<?xml version="1.0" encoding="UTF-8" standalone="no"?>
<!DOCTYPE svg PUBLIC "-//W3C//DTD SVG 1.1//EN"
 "http://www.w3.org/Graphics/SVG/1.1/DTD/svg11.dtd">
<!-- Generated by graphviz version 2.43.0 (0)
 -->
<!-- Title: include/kcenon/database_server/gateway/auth_middleware.h Pages: 1 -->
<svg width="1037pt" height="214pt"
 viewBox="0.00 0.00 1036.50 214.00" xmlns="http://www.w3.org/2000/svg" xmlns:xlink="http://www.w3.org/1999/xlink">
<g id="graph0" class="graph" transform="scale(1 1) rotate(0) translate(4 210)">
<title>include/kcenon/database_server/gateway/auth_middleware.h</title>
<!-- Node1 -->
<g id="Node000001" class="node">
<title>Node1</title>
<g id="a_Node000001"><a xlink:title="Authentication middleware for database gateway.">
<polygon fill="#999999" stroke="#666666" points="767,-206 573,-206 573,-176 767,-176 767,-206"/>
<text text-anchor="start" x="581" y="-194" font-family="Helvetica,sans-Serif" font-size="10.00">include/kcenon/database</text>
<text text-anchor="middle" x="670" y="-183" font-family="Helvetica,sans-Serif" font-size="10.00">_server/gateway/auth_middleware.h</text>
</a>
</g>
</g>
<!-- Node2 -->
<g id="Node000002" class="node">
<title>Node2</title>
<g id="a_Node000002"><a xlink:href="query__protocol_8h.html" target="_top" xlink:title="Query protocol message structures for database gateway.">
<polygon fill="white" stroke="#666666" points="361,-140 263,-140 263,-121 361,-121 361,-140"/>
<text text-anchor="middle" x="312" y="-128" font-family="Helvetica,sans-Serif" font-size="10.00">query_protocol.h</text>
</a>
</g>
</g>
<!-- Node1&#45;&gt;Node2 -->
<g id="edge1_Node000001_Node000002" class="edge">
<title>Node1&#45;&gt;Node2</title>
<g id="a_edge1_Node000001_Node000002"><a xlink:title=" ">
<path fill="none" stroke="#63b8ff" d="M584.25,-175.99C518.49,-165.24 429.43,-150.69 371.36,-141.2"/>
<polygon fill="#63b8ff" stroke="#63b8ff" points="371.68,-137.71 361.24,-139.55 370.55,-144.61 371.68,-137.71"/>
</a>
</g>
</g>
<!-- Node3 -->
<g id="Node000003" class="node">
<title>Node3</title>
<g id="a_Node000003"><a xlink:href="query__types_8h.html" target="_top" xlink:title="Query protocol type definitions for database gateway.">
<polygon fill="white" stroke="#666666" points="86,-79.5 0,-79.5 0,-60.5 86,-60.5 86,-79.5"/>
<text text-anchor="middle" x="43" y="-67.5" font-family="Helvetica,sans-Serif" font-size="10.00">query_types.h</text>
</a>
</g>
</g>
<!-- Node1&#45;&gt;Node3 -->
<g id="edge14_Node000001_Node000003" class="edge">
<title>Node1&#45;&gt;Node3</title>
<g id="a_edge14_Node000001_Node000003"><a xlink:title=" ">
<path fill="none" stroke="#63b8ff" d="M572.77,-187.68C478.06,-183.52 330.68,-171.96 207,-140 155.78,-126.76 99.68,-100.35 68.16,-84.32"/>
<polygon fill="#63b8ff" stroke="#63b8ff" points="69.7,-81.17 59.21,-79.7 66.49,-87.39 69.7,-81.17"/>
</a>
</g>
</g>
<!-- Node5 -->
<g id="Node000005" class="node">
<title>Node5</title>
<g id="a_Node000005"><a xlink:title=" ">
<polygon fill="#e0e0e0" stroke="#999999" points="242,-19 198,-19 198,0 242,0 242,-19"/>
<text text-anchor="middle" x="220" y="-7" font-family="Helvetica,sans-Serif" font-size="10.00">string</text>
</a>
</g>
</g>
<!-- Node1&#45;&gt;Node5 -->
<g id="edge20_Node000001_Node000005" class="edge">
<title>Node1&#45;&gt;Node5</title>
<g id="a_edge20_Node000001_Node000005"><a xlink:title=" ">
<path fill="none" stroke="#63b8ff" d="M677.68,-175.61C691.1,-148.3 714.58,-88.66 684,-55 655.02,-23.11 353.08,-13.48 252.44,-11.15"/>
<polygon fill="#63b8ff" stroke="#63b8ff" points="252.34,-7.64 242.26,-10.92 252.18,-14.64 252.34,-7.64"/>
</a>
</g>
</g>
<!-- Node7 -->
<g id="Node000007" class="node">
<title>Node7</title>
<g id="a_Node000007"><a xlink:title=" ">
<polygon fill="#e0e0e0" stroke="#999999" points="154,-79.5 104,-79.5 104,-60.5 154,-60.5 154,-79.5"/>
<text text-anchor="middle" x="129" y="-67.5" font-family="Helvetica,sans-Serif" font-size="10.00">chrono</text>
</a>
</g>
</g>
<!-- Node1&#45;&gt;Node7 -->
<g id="edge16_Node000001_Node000007" class="edge">
<title>Node1&#45;&gt;Node7</title>
<g id="a_edge16_Node000001_Node000007"><a xlink:title=" ">
<path fill="none" stroke="#63b8ff" d="M572.76,-188.79C486.99,-185.28 359.58,-174.05 254,-140 214.43,-127.24 173.05,-101.58 149.22,-85.4"/>
<polygon fill="#63b8ff" stroke="#63b8ff" points="150.92,-82.32 140.7,-79.51 146.94,-88.08 150.92,-82.32"/>
</a>
</g>
</g>
<!-- Node8 -->
<g id="Node000008" class="node">
<title>Node8</title>
<g id="a_Node000008"><a xlink:title=" ">
<polygon fill="#e0e0e0" stroke="#999999" points="609,-79.5 551,-79.5 551,-60.5 609,-60.5 609,-79.5"/>
<text text-anchor="middle" x="580" y="-67.5" font-family="Helvetica,sans-Serif" font-size="10.00">memory</text>
</a>
</g>
</g>
<!-- Node1&#45;&gt;Node8 -->
<g id="edge18_Node000001_Node000008" class="edge">
<title>Node1&#45;&gt;Node8</title>
<g id="a_edge18_Node000001_Node000008"><a xlink:title=" ">
<path fill="none" stroke="#63b8ff" d="M659.32,-175.88C642.64,-153.83 610.47,-111.29 592.65,-87.73"/>
<polygon fill="#63b8ff" stroke="#63b8ff" points="595.41,-85.58 586.59,-79.71 589.83,-89.8 595.41,-85.58"/>
</a>
</g>
</g>
<!-- Node11 -->
<g id="Node000011" class="node">
<title>Node11</title>
<g id="a_Node000011"><a xlink:title=" ">
<polygon fill="#e0e0e0" stroke="#999999" points="674.5,-79.5 627.5,-79.5 627.5,-60.5 674.5,-60.5 674.5,-79.5"/>
<text text-anchor="middle" x="651" y="-67.5" font-family="Helvetica,sans-Serif" font-size="10.00">vector</text>
</a>
</g>
</g>
<!-- Node1&#45;&gt;Node11 -->
<g id="edge22_Node000001_Node000011" class="edge">
<title>Node1&#45;&gt;Node11</title>
<g id="a_edge22_Node000001_Node000011"><a xlink:title=" ">
<path fill="none" stroke="#63b8ff" d="M667.75,-175.88C664.32,-154.41 657.79,-113.52 653.98,-89.64"/>
<polygon fill="#63b8ff" stroke="#63b8ff" points="657.42,-89.03 652.39,-79.71 650.51,-90.14 657.42,-89.03"/>
</a>
</g>
</g>
<!-- Node13 -->
<g id="Node000013" class="node">
<title>Node13</title>
<g id="a_Node000013"><a xlink:title=" ">
<polygon fill="#e0e0e0" stroke="#999999" points="767,-140 717,-140 717,-121 767,-121 767,-140"/>
<text text-anchor="middle" x="742" y="-128" font-family="Helvetica,sans-Serif" font-size="10.00">atomic</text>
</a>
</g>
</g>
<!-- Node1&#45;&gt;Node13 -->
<g id="edge15_Node000001_Node000013" class="edge">
<title>Node1&#45;&gt;Node13</title>
<g id="a_edge15_Node000001_Node000013"><a xlink:title=" ">
<path fill="none" stroke="#63b8ff" d="M687.43,-175.84C698.31,-167 712.3,-155.63 723.39,-146.62"/>
<polygon fill="#63b8ff" stroke="#63b8ff" points="725.66,-149.29 731.21,-140.27 721.24,-143.86 725.66,-149.29"/>
</a>
</g>
</g>
<!-- Node14 -->
<g id="Node000014" class="node">
<title>Node14</title>
<g id="a_Node000014"><a xlink:title=" ">
<polygon fill="#e0e0e0" stroke="#999999" points="850.5,-140 785.5,-140 785.5,-121 850.5,-121 850.5,-140"/>
<text text-anchor="middle" x="818" y="-128" font-family="Helvetica,sans-Serif" font-size="10.00">functional</text>
</a>
</g>
</g>
<!-- Node1&#45;&gt;Node14 -->
<g id="edge17_Node000001_Node000014" class="edge">
<title>Node1&#45;&gt;Node14</title>
<g id="a_edge17_Node000001_Node000014"><a xlink:title=" ">
<path fill="none" stroke="#63b8ff" d="M705.45,-175.99C730.14,-166.23 762.78,-153.33 786.55,-143.93"/>
<polygon fill="#63b8ff" stroke="#63b8ff" points="788.13,-147.07 796.14,-140.14 785.56,-140.56 788.13,-147.07"/>
</a>
</g>
</g>
<!-- Node15 -->
<g id="Node000015" class="node">
<title>Node15</title>
<g id="a_Node000015"><a xlink:title=" ">
<polygon fill="#e0e0e0" stroke="#999999" points="917,-140 869,-140 869,-121 917,-121 917,-140"/>
<text text-anchor="middle" x="893" y="-128" font-family="Helvetica,sans-Serif" font-size="10.00">mutex</text>
</a>
</g>
</g>
<!-- Node1&#45;&gt;Node15 -->
<g id="edge19_Node000001_Node000015" class="edge">
<title>Node1&#45;&gt;Node15</title>
<g id="a_edge19_Node000001_Node000015"><a xlink:title=" ">
<path fill="none" stroke="#63b8ff" d="M723.41,-175.99C765.4,-164.97 822.63,-149.96 858.7,-140.5"/>
<polygon fill="#63b8ff" stroke="#63b8ff" points="859.94,-143.79 868.72,-137.87 858.16,-137.02 859.94,-143.79"/>
</a>
</g>
</g>
<!-- Node16 -->
<g id="Node000016" class="node">
<title>Node16</title>
<g id="a_Node000016"><a xlink:title=" ">
<polygon fill="#e0e0e0" stroke="#999999" points="1028.5,-140 935.5,-140 935.5,-121 1028.5,-121 1028.5,-140"/>
<text text-anchor="middle" x="982" y="-128" font-family="Helvetica,sans-Serif" font-size="10.00">unordered_map</text>
</a>
</g>
</g>
<!-- Node1&#45;&gt;Node16 -->
<g id="edge21_Node000001_Node000016" class="edge">
<title>Node1&#45;&gt;Node16</title>
<g id="a_edge21_Node000001_Node000016"><a xlink:title=" ">
<path fill="none" stroke="#63b8ff" d="M744.73,-175.99C800.56,-165.52 875.65,-151.44 926.28,-141.95"/>
<polygon fill="#63b8ff" stroke="#63b8ff" points="927.2,-145.34 936.38,-140.05 925.91,-138.46 927.2,-145.34"/>
</a>
</g>
</g>
<!-- Node2&#45;&gt;Node3 -->
<g id="edge2_Node000002_Node000003" class="edge">
<title>Node2&#45;&gt;Node3</title>
<g id="a_edge2_Node000002_Node000003"><a xlink:title=" ">
<path fill="none" stroke="#63b8ff" d="M266.1,-120.93C222.06,-112.5 153.75,-98.92 95,-85 91.17,-84.09 87.19,-83.1 83.22,-82.09"/>
<polygon fill="#63b8ff" stroke="#63b8ff" points="84,-78.67 73.44,-79.53 82.23,-85.45 84,-78.67"/>
</a>
</g>
</g>
<!-- Node4 -->
<g id="Node000004" class="node">
<title>Node4</title>
<g id="a_Node000004"><a xlink:title=" ">
<polygon fill="#e0e0e0" stroke="#999999" points="164,-19 114,-19 114,0 164,0 164,-19"/>
<text text-anchor="middle" x="139" y="-7" font-family="Helvetica,sans-Serif" font-size="10.00">cstdint</text>
</a>
</g>
</g>
<!-- Node2&#45;&gt;Node4 -->
<g id="edge7_Node000002_Node000004" class="edge">
<title>Node2&#45;&gt;Node4</title>
<g id="a_edge7_Node000002_Node000004"><a xlink:title=" ">
<path fill="none" stroke="#63b8ff" d="M290.74,-120.95C271.92,-112.93 244.08,-99.96 222,-85 196.33,-67.62 170.31,-42.84 154.41,-26.71"/>
<polygon fill="#63b8ff" stroke="#63b8ff" points="156.55,-23.9 147.08,-19.16 151.53,-28.77 156.55,-23.9"/>
</a>
</g>
</g>
<!-- Node2&#45;&gt;Node5 -->
<g id="edge10_Node000002_Node000005" class="edge">
<title>Node2&#45;&gt;Node5</title>
<g id="a_edge10_Node000002_Node000005"><a xlink:title=" ">
<path fill="none" stroke="#63b8ff" d="M288.92,-120.97C272.62,-113.79 251.53,-101.95 239,-85 227,-68.76 222.55,-45.7 220.91,-29.55"/>
<polygon fill="#63b8ff" stroke="#63b8ff" points="224.38,-28.92 220.15,-19.21 217.39,-29.43 224.38,-28.92"/>
</a>
</g>
</g>
<!-- Node2&#45;&gt;Node7 -->
<g id="edge6_Node000002_Node000007" class="edge">
<title>Node2&#45;&gt;Node7</title>
<g id="a_edge6_Node000002_Node000007"><a xlink:title=" ">
<path fill="none" stroke="#63b8ff" d="M282.92,-120.93C253.74,-112.24 207.59,-98.22 168,-85 166.11,-84.37 164.17,-83.71 162.21,-83.03"/>
<polygon fill="#63b8ff" stroke="#63b8ff" points="163.05,-79.62 152.45,-79.61 160.73,-86.22 163.05,-79.62"/>
</a>
</g>
</g>
<!-- Node2&#45;&gt;Node8 -->
<g id="edge8_Node000002_Node000008" class="edge">
<title>Node2&#45;&gt;Node8</title>
<g id="a_edge8_Node000002_Node000008"><a xlink:title=" ">
<path fill="none" stroke="#63b8ff" d="M361.19,-122.17C407.91,-114.69 479.88,-101.8 541,-85 543.43,-84.33 545.92,-83.59 548.42,-82.79"/>
<polygon fill="#63b8ff" stroke="#63b8ff" points="549.56,-86.1 557.91,-79.59 547.32,-79.47 549.56,-86.1"/>
</a>
</g>
</g>
<!-- Node9 -->
<g id="Node000009" class="node">
<title>Node9</title>
<g id="a_Node000009"><a xlink:title=" ">
<polygon fill="#e0e0e0" stroke="#999999" points="304,-79.5 248,-79.5 248,-60.5 304,-60.5 304,-79.5"/>
<text text-anchor="middle" x="276" y="-67.5" font-family="Helvetica,sans-Serif" font-size="10.00">optional</text>
</a>
</g>
</g>
<!-- Node2&#45;&gt;Node9 -->
<g id="edge9_Node000002_Node000009" class="edge">
<title>Node2&#45;&gt;Node9</title>
<g id="a_edge9_Node000002_Node000009"><a xlink:title=" ">
<path fill="none" stroke="#63b8ff" d="M306.69,-120.87C301.42,-112.31 293.21,-98.97 286.61,-88.24"/>
<polygon fill="#63b8ff" stroke="#63b8ff" points="289.56,-86.35 281.33,-79.67 283.59,-90.02 289.56,-86.35"/>
</a>
</g>
</g>
<!-- Node10 -->
<g id="Node000010" class="node">
<title>Node10</title>
<g id="a_Node000010"><a xlink:title=" ">
<polygon fill="#e0e0e0" stroke="#999999" points="373.5,-79.5 322.5,-79.5 322.5,-60.5 373.5,-60.5 373.5,-79.5"/>
<text text-anchor="middle" x="348" y="-67.5" font-family="Helvetica,sans-Serif" font-size="10.00">variant</text>
</a>
</g>
</g>
<!-- Node2&#45;&gt;Node10 -->
<g id="edge11_Node000002_Node000010" class="edge">
<title>Node2&#45;&gt;Node10</title>
<g id="a_edge11_Node000002_Node000010"><a xlink:title=" ">
<path fill="none" stroke="#63b8ff" d="M317.31,-120.87C322.58,-112.31 330.79,-98.97 337.39,-88.24"/>
<polygon fill="#63b8ff" stroke="#63b8ff" points="340.41,-90.02 342.67,-79.67 334.44,-86.35 340.41,-90.02"/>
</a>
</g>
</g>
<!-- Node2&#45;&gt;Node11 -->
<g id="edge12_Node000002_Node000011" class="edge">
<title>Node2&#45;&gt;Node11</title>
<g id="a_edge12_Node000002_Node000011"><a xlink:title=" ">
<path fill="none" stroke="#63b8ff" d="M361.03,-126.26C422.14,-121.35 529.34,-109.81 618,-85 619.89,-84.47 621.81,-83.86 623.73,-83.2"/>
<polygon fill="#63b8ff" stroke="#63b8ff" points="625.08,-86.43 633.15,-79.56 622.56,-79.9 625.08,-86.43"/>
</a>
</g>
</g>
<!-- Node12 -->
<g id="Node000012" class="node">
<title>Node12</title>
<g id="a_Node000012"><a xlink:title=" ">
<polygon fill="#e0e0e0" stroke="#999999" points="532.5,-85 391.5,-85 391.5,-55 532.5,-55 532.5,-85"/>
<text text-anchor="start" x="399.5" y="-73" font-family="Helvetica,sans-Serif" font-size="10.00">kcenon/common/patterns</text>
<text text-anchor="middle" x="462" y="-62" font-family="Helvetica,sans-Serif" font-size="10.00">/result.h</text>
</a>
</g>
</g>
<!-- Node2&#45;&gt;Node12 -->
<g id="edge13_Node000002_Node000012" class="edge">
<title>Node2&#45;&gt;Node12</title>
<g id="a_edge13_Node000002_Node000012"><a xlink:title=" ">
<path fill="none" stroke="#63b8ff" d="M333.81,-120.99C355.4,-112.57 389.1,-99.43 416.53,-88.73"/>
<polygon fill="#63b8ff" stroke="#63b8ff" points="417.89,-91.96 425.94,-85.06 415.35,-85.44 417.89,-91.96"/>
</a>
</g>
</g>
<!-- Node3&#45;&gt;Node4 -->
<g id="edge3_Node000003_Node000004" class="edge">
<title>Node3&#45;&gt;Node4</title>
<g id="a_edge3_Node000003_Node000004"><a xlink:title=" ">
<path fill="none" stroke="#63b8ff" d="M57.17,-60.37C72.69,-50.91 97.83,-35.59 116.15,-24.42"/>
<polygon fill="#63b8ff" stroke="#63b8ff" points="118.06,-27.36 124.78,-19.17 114.42,-21.38 118.06,-27.36"/>
</a>
</g>
</g>
<!-- Node3&#45;&gt;Node5 -->
<g id="edge4_Node000003_Node000005" class="edge">
<title>Node3&#45;&gt;Node5</title>
<g id="a_edge4_Node000003_Node000005"><a xlink:title=" ">
<path fill="none" stroke="#63b8ff" d="M68.74,-60.49C100.41,-50.02 154.2,-32.25 188.36,-20.96"/>
<polygon fill="#63b8ff" stroke="#63b8ff" points="189.47,-24.28 197.87,-17.81 187.27,-17.63 189.47,-24.28"/>
</a>
</g>
</g>
<!-- Node6 -->
<g id="Node000006" class="node">
<title>Node6</title>
<g id="a_Node000006"><a xlink:title=" ">
<polygon fill="#e0e0e0" stroke="#999999" points="79.5,-19 6.5,-19 6.5,0 79.5,0 79.5,-19"/>
<text text-anchor="middle" x="43" y="-7" font-family="Helvetica,sans-Serif" font-size="10.00">string_view</text>
</a>
</g>
</g>
<!-- Node3&#45;&gt;Node6 -->
<g id="edge5_Node000003_Node000006" class="edge">
<title>Node3&#45;&gt;Node6</title>
<g id="a_edge5_Node000003_Node000006"><a xlink:title=" ">
<path fill="none" stroke="#63b8ff" d="M43,-60.37C43,-52.25 43,-39.81 43,-29.39"/>
<polygon fill="#63b8ff" stroke="#63b8ff" points="46.5,-29.17 43,-19.17 39.5,-29.17 46.5,-29.17"/>
</a>
</g>
</g>
</g>
</svg>
