<?xml version="1.0" encoding="UTF-8" standalone="no"?>
<!DOCTYPE svg PUBLIC "-//W3C//DTD SVG 1.1//EN"
 "http://www.w3.org/Graphics/SVG/1.1/DTD/svg11.dtd">
<!-- Generated by graphviz version 2.43.0 (0)
 -->
<!-- Title: include/kcenon/database_server/gateway/auth_middleware.h Pages: 1 -->
<svg width="431pt" height="181pt"
 viewBox="0.00 0.00 431.00 181.00" xmlns="http://www.w3.org/2000/svg" xmlns:xlink="http://www.w3.org/1999/xlink">

<svg id="main" version="1.1" xmlns="http://www.w3.org/2000/svg" xmlns:xlink="http://www.w3.org/1999/xlink" xml:space="preserve" onload="init(evt)">
<style type="text/css"><![CDATA[
.node, .edge {opacity: 0.7;}
.node.selected, .edge.selected {opacity: 1;}
.edge:hover path { stroke: red; }
.edge:hover polygon { stroke: red; fill: red; }
]]></style>
<script type="application/ecmascript" xlink:href="svg.min.js"/>
<svg id="graph" class="graph">
<g id="graph0" class="graph" transform="scale(1 1) rotate(0) translate(4 177)">
<title>include/kcenon/database_server/gateway/auth_middleware.h</title>
<!-- Node1 -->
<g id="Node000001" class="node">
<title>Node1</title>
<g id="a_Node000001"><a xlink:title="Authentication middleware for database gateway.">
<polygon fill="#999999" stroke="#666666" points="308,-173 114,-173 114,-143 308,-143 308,-173"/>
<text text-anchor="start" x="122" y="-161" font-family="Helvetica,sans-Serif" font-size="10.00">include/kcenon/database</text>
<text text-anchor="middle" x="211" y="-150" font-family="Helvetica,sans-Serif" font-size="10.00">_server/gateway/auth_middleware.h</text>
</a>
</g>
</g>
<!-- Node2 -->
<g id="Node000002" class="node">
<title>Node2</title>
<g id="a_Node000002"><a xlink:href="gateway__server_8h.html" target="_top" xlink:title="Database gateway TCP server.">
<polygon fill="white" stroke="#666666" points="182.5,-107 39.5,-107 39.5,-66 182.5,-66 182.5,-107"/>
<text text-anchor="start" x="47.5" y="-95" font-family="Helvetica,sans-Serif" font-size="10.00">include/kcenon/database</text>
<text text-anchor="start" x="47.5" y="-84" font-family="Helvetica,sans-Serif" font-size="10.00">_server/gateway/gateway</text>
<text text-anchor="middle" x="111" y="-73" font-family="Helvetica,sans-Serif" font-size="10.00">_server.h</text>
</a>
</g>
</g>
<!-- Node1&#45;&gt;Node2 -->
<g id="edge1_Node000001_Node000002" class="edge">
<title>Node1&#45;&gt;Node2</title>
<g id="a_edge1_Node000001_Node000002"><a xlink:title=" ">
<path fill="none" stroke="#63b8ff" d="M182.29,-137.04C168.74,-127.63 152.64,-116.44 139.16,-107.07"/>
<polygon fill="#63b8ff" stroke="#63b8ff" points="180.55,-140.1 190.76,-142.94 184.55,-134.35 180.55,-140.1"/>
</a>
</g>
</g>
<!-- Node4 -->
<g id="Node000004" class="node">
<title>Node4</title>
<g id="a_Node000004"><a xlink:href="gateway__server_8cpp.html" target="_top" xlink:title=" ">
<polygon fill="white" stroke="#666666" points="271.5,-30 150.5,-30 150.5,0 271.5,0 271.5,-30"/>
<text text-anchor="start" x="158.5" y="-18" font-family="Helvetica,sans-Serif" font-size="10.00">src/gateway/gateway</text>
<text text-anchor="middle" x="211" y="-7" font-family="Helvetica,sans-Serif" font-size="10.00">_server.cpp</text>
</a>
</g>
</g>
<!-- Node1&#45;&gt;Node4 -->
<g id="edge5_Node000001_Node000004" class="edge">
<title>Node1&#45;&gt;Node4</title>
<g id="a_edge5_Node000001_Node000004"><a xlink:title=" ">
<path fill="none" stroke="#63b8ff" d="M211,-132.7C211,-103.22 211,-54.49 211,-30.4"/>
<polygon fill="#63b8ff" stroke="#63b8ff" points="207.5,-132.96 211,-142.96 214.5,-132.96 207.5,-132.96"/>
</a>
</g>
</g>
<!-- Node5 -->
<g id="Node000005" class="node">
<title>Node5</title>
<g id="a_Node000005"><a xlink:href="auth__middleware_8cpp.html" target="_top" xlink:title=" ">
<polygon fill="white" stroke="#666666" points="423,-96 239,-96 239,-77 423,-77 423,-96"/>
<text text-anchor="middle" x="331" y="-84" font-family="Helvetica,sans-Serif" font-size="10.00">src/gateway/auth_middleware.cpp</text>
</a>
</g>
</g>
<!-- Node1&#45;&gt;Node5 -->
<g id="edge4_Node000001_Node000005" class="edge">
<title>Node1&#45;&gt;Node5</title>
<g id="a_edge4_Node000001_Node000005"><a xlink:title=" ">
<path fill="none" stroke="#63b8ff" d="M243.95,-137.92C267.58,-124.23 298.29,-106.44 316.21,-96.07"/>
<polygon fill="#63b8ff" stroke="#63b8ff" points="242.18,-134.9 235.28,-142.94 245.69,-140.95 242.18,-134.9"/>
</a>
</g>
</g>
<!-- Node3 -->
<g id="Node000003" class="node">
<title>Node3</title>
<g id="a_Node000003"><a xlink:href="server__app_8cpp.html" target="_top" xlink:title=" ">
<polygon fill="white" stroke="#666666" points="132,-24.5 0,-24.5 0,-5.5 132,-5.5 132,-24.5"/>
<text text-anchor="middle" x="66" y="-12.5" font-family="Helvetica,sans-Serif" font-size="10.00">src/core/server_app.cpp</text>
</a>
</g>
</g>
<!-- Node2&#45;&gt;Node3 -->
<g id="edge2_Node000002_Node000003" class="edge">
<title>Node2&#45;&gt;Node3</title>
<g id="a_edge2_Node000002_Node000003"><a xlink:title=" ">
<path fill="none" stroke="#63b8ff" d="M92.66,-57.18C85.15,-45.58 77,-32.98 71.71,-24.82"/>
<polygon fill="#63b8ff" stroke="#63b8ff" points="89.85,-59.28 98.23,-65.77 95.73,-55.47 89.85,-59.28"/>
</a>
</g>
</g>
<!-- Node2&#45;&gt;Node4 -->
<g id="edge3_Node000002_Node000004" class="edge">
<title>Node2&#45;&gt;Node4</title>
<g id="a_edge3_Node000002_Node000004"><a xlink:title=" ">
<path fill="none" stroke="#63b8ff" d="M147.47,-60.15C162.05,-50.02 178.28,-38.74 190.69,-30.11"/>
<polygon fill="#63b8ff" stroke="#63b8ff" points="145.34,-57.37 139.12,-65.96 149.33,-63.12 145.34,-57.37"/>
</a>
</g>
</g>
</g>
</svg>
</svg>

<style type='text/css'>
<![CDATA[
[data-mouse-over-selected='false'] { opacity: 0.7; }
[data-mouse-over-selected='true']  { opacity: 1.0; }
]]>
</style>
<script type="application/ecmascript"><![CDATA[
document.addEventListener('DOMContentLoaded', (event) => {
  highlightEdges();
  highlightAdjacentNodes();
});
]]></script>
</svg>
