<?xml version="1.0" encoding="UTF-8" standalone="no"?>
<!DOCTYPE svg PUBLIC "-//W3C//DTD SVG 1.1//EN"
 "http://www.w3.org/Graphics/SVG/1.1/DTD/svg11.dtd">
<!-- Generated by graphviz version 2.43.0 (0)
 -->
<!-- Title: src/metrics/collector_integration.cpp Pages: 1 -->
<svg width="646pt" height="335pt"
 viewBox="0.00 0.00 646.44 335.00" xmlns="http://www.w3.org/2000/svg" xmlns:xlink="http://www.w3.org/1999/xlink">
<g id="graph0" class="graph" transform="scale(1 1) rotate(0) translate(4 331)">
<title>src/metrics/collector_integration.cpp</title>
<!-- Node1 -->
<g id="Node000001" class="node">
<title>Node1</title>
<g id="a_Node000001"><a xlink:title="Integration layer between query_metrics_collector and monitoring_system.">
<polygon fill="#999999" stroke="#666666" points="479.94,-327 363.94,-327 363.94,-297 479.94,-297 479.94,-327"/>
<text text-anchor="start" x="371.94" y="-315" font-family="Helvetica,sans-Serif" font-size="10.00">src/metrics/collector</text>
<text text-anchor="middle" x="421.94" y="-304" font-family="Helvetica,sans-Serif" font-size="10.00">_integration.cpp</text>
</a>
</g>
</g>
<!-- Node2 -->
<g id="Node000002" class="node">
<title>Node2</title>
<g id="a_Node000002"><a xlink:href="query__metrics__collector_8h.html" target="_top" xlink:title="CRTP&#45;based query metrics collector implementation.">
<polygon fill="white" stroke="#666666" points="277.94,-261 141.94,-261 141.94,-220 277.94,-220 277.94,-261"/>
<text text-anchor="start" x="149.94" y="-249" font-family="Helvetica,sans-Serif" font-size="10.00">kcenon/database_server</text>
<text text-anchor="start" x="149.94" y="-238" font-family="Helvetica,sans-Serif" font-size="10.00">/metrics/query_metrics</text>
<text text-anchor="middle" x="209.94" y="-227" font-family="Helvetica,sans-Serif" font-size="10.00">_collector.h</text>
</a>
</g>
</g>
<!-- Node1&#45;&gt;Node2 -->
<g id="edge1_Node000001_Node000002" class="edge">
<title>Node1&#45;&gt;Node2</title>
<g id="a_edge1_Node000001_Node000002"><a xlink:title=" ">
<path fill="none" stroke="#63b8ff" d="M379.04,-296.94C350.41,-287.55 312.12,-275 279.22,-264.21"/>
<polygon fill="#63b8ff" stroke="#63b8ff" points="280.24,-260.86 269.64,-261.07 278.06,-267.51 280.24,-260.86"/>
</a>
</g>
</g>
<!-- Node9 -->
<g id="Node000009" class="node">
<title>Node9</title>
<g id="a_Node000009"><a xlink:title=" ">
<polygon fill="#e0e0e0" stroke="#999999" points="60.94,-74 10.94,-74 10.94,-55 60.94,-55 60.94,-74"/>
<text text-anchor="middle" x="35.94" y="-62" font-family="Helvetica,sans-Serif" font-size="10.00">chrono</text>
</a>
</g>
</g>
<!-- Node1&#45;&gt;Node9 -->
<g id="edge20_Node000001_Node000009" class="edge">
<title>Node1&#45;&gt;Node9</title>
<g id="a_edge20_Node000001_Node000009"><a xlink:title=" ">
<path fill="none" stroke="#63b8ff" d="M363.65,-308.17C279.66,-303.14 129.76,-290.26 84.94,-261 26.91,-223.12 21.13,-195.59 1.94,-129 -0.4,-120.89 -0.77,-118 1.94,-110 5.5,-99.47 12.66,-89.48 19.49,-81.63"/>
<polygon fill="#63b8ff" stroke="#63b8ff" points="22.06,-84.01 26.33,-74.31 16.95,-79.23 22.06,-84.01"/>
</a>
</g>
</g>
<!-- Node10 -->
<g id="Node000010" class="node">
<title>Node10</title>
<g id="a_Node000010"><a xlink:title=" ">
<polygon fill="#e0e0e0" stroke="#999999" points="58.94,-129 10.94,-129 10.94,-110 58.94,-110 58.94,-129"/>
<text text-anchor="middle" x="34.94" y="-117" font-family="Helvetica,sans-Serif" font-size="10.00">mutex</text>
</a>
</g>
</g>
<!-- Node1&#45;&gt;Node10 -->
<g id="edge23_Node000001_Node000010" class="edge">
<title>Node1&#45;&gt;Node10</title>
<g id="a_edge23_Node000001_Node000010"><a xlink:title=" ">
<path fill="none" stroke="#63b8ff" d="M363.88,-305.55C291.23,-297.94 171.61,-282.6 132.94,-261 83.93,-233.63 53.92,-170.24 41.53,-138.83"/>
<polygon fill="#63b8ff" stroke="#63b8ff" points="44.69,-137.28 37.88,-129.16 38.14,-139.75 44.69,-137.28"/>
</a>
</g>
</g>
<!-- Node11 -->
<g id="Node000011" class="node">
<title>Node11</title>
<g id="a_Node000011"><a xlink:title=" ">
<polygon fill="#e0e0e0" stroke="#999999" points="381.94,-129 337.94,-129 337.94,-110 381.94,-110 381.94,-129"/>
<text text-anchor="middle" x="359.94" y="-117" font-family="Helvetica,sans-Serif" font-size="10.00">string</text>
</a>
</g>
</g>
<!-- Node1&#45;&gt;Node11 -->
<g id="edge24_Node000001_Node000011" class="edge">
<title>Node1&#45;&gt;Node11</title>
<g id="a_edge24_Node000001_Node000011"><a xlink:title=" ">
<path fill="none" stroke="#63b8ff" d="M426.18,-296.72C433.44,-269.36 445.44,-208.44 422.94,-165 415.9,-151.41 402.59,-141.09 390.02,-133.82"/>
<polygon fill="#63b8ff" stroke="#63b8ff" points="391.56,-130.68 381.09,-129.07 388.27,-136.86 391.56,-130.68"/>
</a>
</g>
</g>
<!-- Node12 -->
<g id="Node000012" class="node">
<title>Node12</title>
<g id="a_Node000012"><a xlink:title=" ">
<polygon fill="#e0e0e0" stroke="#999999" points="510.44,-129 417.44,-129 417.44,-110 510.44,-110 510.44,-129"/>
<text text-anchor="middle" x="463.94" y="-117" font-family="Helvetica,sans-Serif" font-size="10.00">unordered_map</text>
</a>
</g>
</g>
<!-- Node1&#45;&gt;Node12 -->
<g id="edge25_Node000001_Node000012" class="edge">
<title>Node1&#45;&gt;Node12</title>
<g id="a_edge25_Node000001_Node000012"><a xlink:title=" ">
<path fill="none" stroke="#63b8ff" d="M434.66,-296.83C442.32,-287.4 451.42,-274.32 455.94,-261 470.08,-219.3 468.28,-166.67 465.97,-139.17"/>
<polygon fill="#63b8ff" stroke="#63b8ff" points="469.43,-138.65 464.99,-129.03 462.47,-139.32 469.43,-138.65"/>
</a>
</g>
</g>
<!-- Node13 -->
<g id="Node000013" class="node">
<title>Node13</title>
<g id="a_Node000013"><a xlink:title=" ">
<polygon fill="#e0e0e0" stroke="#999999" points="413.94,-184 355.94,-184 355.94,-165 413.94,-165 413.94,-184"/>
<text text-anchor="middle" x="384.94" y="-172" font-family="Helvetica,sans-Serif" font-size="10.00">memory</text>
</a>
</g>
</g>
<!-- Node1&#45;&gt;Node13 -->
<g id="edge22_Node000001_Node000013" class="edge">
<title>Node1&#45;&gt;Node13</title>
<g id="a_edge22_Node000001_Node000013"><a xlink:title=" ">
<path fill="none" stroke="#63b8ff" d="M418.05,-296.76C411.3,-272.03 397.42,-221.21 389.95,-193.87"/>
<polygon fill="#63b8ff" stroke="#63b8ff" points="393.28,-192.76 387.27,-184.03 386.53,-194.6 393.28,-192.76"/>
</a>
</g>
</g>
<!-- Node15 -->
<g id="Node000015" class="node">
<title>Node15</title>
<g id="a_Node000015"><a xlink:title=" ">
<polygon fill="#e0e0e0" stroke="#999999" points="573.44,-250 508.44,-250 508.44,-231 573.44,-231 573.44,-250"/>
<text text-anchor="middle" x="540.94" y="-238" font-family="Helvetica,sans-Serif" font-size="10.00">functional</text>
</a>
</g>
</g>
<!-- Node1&#45;&gt;Node15 -->
<g id="edge21_Node000001_Node000015" class="edge">
<title>Node1&#45;&gt;Node15</title>
<g id="a_edge21_Node000001_Node000015"><a xlink:title=" ">
<path fill="none" stroke="#63b8ff" d="M446.02,-296.94C466.87,-284.76 496.84,-267.26 517.5,-255.19"/>
<polygon fill="#63b8ff" stroke="#63b8ff" points="519.4,-258.13 526.27,-250.07 515.87,-252.09 519.4,-258.13"/>
</a>
</g>
</g>
<!-- Node16 -->
<g id="Node000016" class="node">
<title>Node16</title>
<g id="a_Node000016"><a xlink:title=" ">
<polygon fill="#e0e0e0" stroke="#999999" points="638.44,-250 591.44,-250 591.44,-231 638.44,-231 638.44,-250"/>
<text text-anchor="middle" x="614.94" y="-238" font-family="Helvetica,sans-Serif" font-size="10.00">vector</text>
</a>
</g>
</g>
<!-- Node1&#45;&gt;Node16 -->
<g id="edge26_Node000001_Node000016" class="edge">
<title>Node1&#45;&gt;Node16</title>
<g id="a_edge26_Node000001_Node000016"><a xlink:title=" ">
<path fill="none" stroke="#63b8ff" d="M479.07,-296.95C510.43,-288.33 549.6,-276.06 582.94,-261 586.53,-259.38 590.21,-257.43 593.74,-255.41"/>
<polygon fill="#63b8ff" stroke="#63b8ff" points="595.85,-258.22 602.56,-250.03 592.2,-252.25 595.85,-258.22"/>
</a>
</g>
</g>
<!-- Node3 -->
<g id="Node000003" class="node">
<title>Node3</title>
<g id="a_Node000003"><a xlink:href="query__collector__base_8h.html" target="_top" xlink:title="CRTP base class for query metrics collectors.">
<polygon fill="white" stroke="#666666" points="337.44,-184 208.44,-184 208.44,-165 337.44,-165 337.44,-184"/>
<text text-anchor="middle" x="272.94" y="-172" font-family="Helvetica,sans-Serif" font-size="10.00">query_collector_base.h</text>
</a>
</g>
</g>
<!-- Node2&#45;&gt;Node3 -->
<g id="edge2_Node000002_Node000003" class="edge">
<title>Node2&#45;&gt;Node3</title>
<g id="a_edge2_Node000002_Node000003"><a xlink:title=" ">
<path fill="none" stroke="#63b8ff" d="M229.18,-219.95C238.16,-210.83 248.71,-200.11 257.2,-191.49"/>
<polygon fill="#63b8ff" stroke="#63b8ff" points="259.79,-193.84 264.31,-184.26 254.8,-188.93 259.79,-193.84"/>
</a>
</g>
</g>
<!-- Node4 -->
<g id="Node000004" class="node">
<title>Node4</title>
<g id="a_Node000004"><a xlink:href="query__metrics_8h.html" target="_top" xlink:title="Metrics structures for query server performance monitoring.">
<polygon fill="white" stroke="#666666" points="210.44,-129 115.44,-129 115.44,-110 210.44,-110 210.44,-129"/>
<text text-anchor="middle" x="162.94" y="-117" font-family="Helvetica,sans-Serif" font-size="10.00">query_metrics.h</text>
</a>
</g>
</g>
<!-- Node2&#45;&gt;Node4 -->
<g id="edge16_Node000002_Node000004" class="edge">
<title>Node2&#45;&gt;Node4</title>
<g id="a_edge16_Node000002_Node000004"><a xlink:title=" ">
<path fill="none" stroke="#63b8ff" d="M141.87,-221.48C123.49,-213.17 105.72,-201.18 94.94,-184 81.97,-163.35 107.94,-144.97 131.44,-133.37"/>
<polygon fill="#63b8ff" stroke="#63b8ff" points="132.98,-136.51 140.57,-129.12 130.03,-130.17 132.98,-136.51"/>
</a>
</g>
</g>
<!-- Node2&#45;&gt;Node10 -->
<g id="edge18_Node000002_Node000010" class="edge">
<title>Node2&#45;&gt;Node10</title>
<g id="a_edge18_Node000002_Node000010"><a xlink:title=" ">
<path fill="none" stroke="#63b8ff" d="M153.27,-219.94C131.62,-210.92 107.46,-198.88 87.94,-184 71.05,-171.13 55.99,-151.94 46.28,-138.03"/>
<polygon fill="#63b8ff" stroke="#63b8ff" points="48.94,-135.72 40.45,-129.38 43.14,-139.63 48.94,-135.72"/>
</a>
</g>
</g>
<!-- Node2&#45;&gt;Node13 -->
<g id="edge17_Node000002_Node000013" class="edge">
<title>Node2&#45;&gt;Node13</title>
<g id="a_edge17_Node000002_Node000013"><a xlink:title=" ">
<path fill="none" stroke="#63b8ff" d="M263.39,-219.95C292.19,-209.42 326.82,-196.75 351.74,-187.64"/>
<polygon fill="#63b8ff" stroke="#63b8ff" points="353.25,-190.81 361.44,-184.09 350.85,-184.24 353.25,-190.81"/>
</a>
</g>
</g>
<!-- Node14 -->
<g id="Node000014" class="node">
<title>Node14</title>
<g id="a_Node000014"><a xlink:title=" ">
<polygon fill="#e0e0e0" stroke="#999999" points="189.94,-184 103.94,-184 103.94,-165 189.94,-165 189.94,-184"/>
<text text-anchor="middle" x="146.94" y="-172" font-family="Helvetica,sans-Serif" font-size="10.00">shared_mutex</text>
</a>
</g>
</g>
<!-- Node2&#45;&gt;Node14 -->
<g id="edge19_Node000002_Node000014" class="edge">
<title>Node2&#45;&gt;Node14</title>
<g id="a_edge19_Node000002_Node000014"><a xlink:title=" ">
<path fill="none" stroke="#63b8ff" d="M190.69,-219.95C181.72,-210.83 171.17,-200.11 162.68,-191.49"/>
<polygon fill="#63b8ff" stroke="#63b8ff" points="165.07,-188.93 155.56,-184.26 160.08,-193.84 165.07,-188.93"/>
</a>
</g>
</g>
<!-- Node3&#45;&gt;Node4 -->
<g id="edge3_Node000003_Node000004" class="edge">
<title>Node3&#45;&gt;Node4</title>
<g id="a_edge3_Node000003_Node000004"><a xlink:title=" ">
<path fill="none" stroke="#63b8ff" d="M255.26,-164.98C237.65,-156.5 210.36,-143.35 190.01,-133.54"/>
<polygon fill="#63b8ff" stroke="#63b8ff" points="191.46,-130.36 180.93,-129.17 188.42,-136.66 191.46,-130.36"/>
</a>
</g>
</g>
<!-- Node6 -->
<g id="Node000006" class="node">
<title>Node6</title>
<g id="a_Node000006"><a xlink:title=" ">
<polygon fill="#e0e0e0" stroke="#999999" points="261.94,-19 211.94,-19 211.94,0 261.94,0 261.94,-19"/>
<text text-anchor="middle" x="236.94" y="-7" font-family="Helvetica,sans-Serif" font-size="10.00">atomic</text>
</a>
</g>
</g>
<!-- Node3&#45;&gt;Node6 -->
<g id="edge11_Node000003_Node000006" class="edge">
<title>Node3&#45;&gt;Node6</title>
<g id="a_edge11_Node000003_Node000006"><a xlink:title=" ">
<path fill="none" stroke="#63b8ff" d="M271,-164.74C265.36,-139.2 248.85,-64.43 241.07,-29.23"/>
<polygon fill="#63b8ff" stroke="#63b8ff" points="244.46,-28.32 238.88,-19.31 237.62,-29.83 244.46,-28.32"/>
</a>
</g>
</g>
<!-- Node3&#45;&gt;Node9 -->
<g id="edge12_Node000003_Node000009" class="edge">
<title>Node3&#45;&gt;Node9</title>
<g id="a_edge12_Node000003_Node000009"><a xlink:title=" ">
<path fill="none" stroke="#63b8ff" d="M214.34,-164.95C181.09,-158.4 139.54,-147.29 105.94,-129 83.77,-116.93 62.97,-96.44 49.9,-82.01"/>
<polygon fill="#63b8ff" stroke="#63b8ff" points="52.37,-79.52 43.14,-74.32 47.11,-84.14 52.37,-79.52"/>
</a>
</g>
</g>
<!-- Node3&#45;&gt;Node10 -->
<g id="edge13_Node000003_Node000010" class="edge">
<title>Node3&#45;&gt;Node10</title>
<g id="a_edge13_Node000003_Node000010"><a xlink:title=" ">
<path fill="none" stroke="#63b8ff" d="M234.59,-164.98C194.33,-156.03 129.18,-141.55 72.94,-129 71.68,-128.72 70.39,-128.43 69.09,-128.14"/>
<polygon fill="#63b8ff" stroke="#63b8ff" points="69.58,-124.66 59.06,-125.9 68.06,-131.5 69.58,-124.66"/>
</a>
</g>
</g>
<!-- Node3&#45;&gt;Node11 -->
<g id="edge14_Node000003_Node000011" class="edge">
<title>Node3&#45;&gt;Node11</title>
<g id="a_edge14_Node000003_Node000011"><a xlink:title=" ">
<path fill="none" stroke="#63b8ff" d="M286.92,-164.98C300.41,-156.77 321.07,-144.18 336.98,-134.49"/>
<polygon fill="#63b8ff" stroke="#63b8ff" points="338.99,-137.36 345.71,-129.17 335.34,-131.38 338.99,-137.36"/>
</a>
</g>
</g>
<!-- Node3&#45;&gt;Node12 -->
<g id="edge15_Node000003_Node000012" class="edge">
<title>Node3&#45;&gt;Node12</title>
<g id="a_edge15_Node000003_Node000012"><a xlink:title=" ">
<path fill="none" stroke="#63b8ff" d="M303.63,-164.98C336.11,-155.97 387.53,-141.7 423.35,-131.76"/>
<polygon fill="#63b8ff" stroke="#63b8ff" points="424.31,-135.13 433.01,-129.08 422.44,-128.38 424.31,-135.13"/>
</a>
</g>
</g>
<!-- Node5 -->
<g id="Node000005" class="node">
<title>Node5</title>
<g id="a_Node000005"><a xlink:href="metrics__base_8h.html" target="_top" xlink:title="Common utilities for atomic metrics operations.">
<polygon fill="white" stroke="#666666" points="208.44,-74 117.44,-74 117.44,-55 208.44,-55 208.44,-74"/>
<text text-anchor="middle" x="162.94" y="-62" font-family="Helvetica,sans-Serif" font-size="10.00">metrics_base.h</text>
</a>
</g>
</g>
<!-- Node4&#45;&gt;Node5 -->
<g id="edge4_Node000004_Node000005" class="edge">
<title>Node4&#45;&gt;Node5</title>
<g id="a_edge4_Node000004_Node000005"><a xlink:title=" ">
<path fill="none" stroke="#63b8ff" d="M162.94,-109.75C162.94,-102.8 162.94,-92.85 162.94,-84.13"/>
<polygon fill="#63b8ff" stroke="#63b8ff" points="166.44,-84.09 162.94,-74.09 159.44,-84.09 166.44,-84.09"/>
</a>
</g>
</g>
<!-- Node4&#45;&gt;Node6 -->
<g id="edge8_Node000004_Node000006" class="edge">
<title>Node4&#45;&gt;Node6</title>
<g id="a_edge8_Node000004_Node000006"><a xlink:title=" ">
<path fill="none" stroke="#63b8ff" d="M177.8,-109.7C189.96,-101.79 206.75,-89.11 216.94,-74 226.03,-60.52 231.16,-42.69 233.95,-29.36"/>
<polygon fill="#63b8ff" stroke="#63b8ff" points="237.41,-29.87 235.77,-19.41 230.53,-28.61 237.41,-29.87"/>
</a>
</g>
</g>
<!-- Node7 -->
<g id="Node000007" class="node">
<title>Node7</title>
<g id="a_Node000007"><a xlink:title=" ">
<polygon fill="#e0e0e0" stroke="#999999" points="118.94,-19 68.94,-19 68.94,0 118.94,0 118.94,-19"/>
<text text-anchor="middle" x="93.94" y="-7" font-family="Helvetica,sans-Serif" font-size="10.00">cstdint</text>
</a>
</g>
</g>
<!-- Node4&#45;&gt;Node7 -->
<g id="edge10_Node000004_Node000007" class="edge">
<title>Node4&#45;&gt;Node7</title>
<g id="a_edge10_Node000004_Node000007"><a xlink:title=" ">
<path fill="none" stroke="#63b8ff" d="M147.44,-109.99C134.84,-102.25 117.63,-89.67 107.94,-74 99.67,-60.63 96.26,-43.02 94.86,-29.74"/>
<polygon fill="#63b8ff" stroke="#63b8ff" points="98.32,-29.11 94.08,-19.4 91.34,-29.63 98.32,-29.11"/>
</a>
</g>
</g>
<!-- Node4&#45;&gt;Node9 -->
<g id="edge9_Node000004_Node000009" class="edge">
<title>Node4&#45;&gt;Node9</title>
<g id="a_edge9_Node000004_Node000009"><a xlink:title=" ">
<path fill="none" stroke="#63b8ff" d="M142.53,-109.98C121.92,-101.38 89.83,-87.99 66.24,-78.15"/>
<polygon fill="#63b8ff" stroke="#63b8ff" points="67.29,-74.79 56.71,-74.17 64.59,-81.25 67.29,-74.79"/>
</a>
</g>
</g>
<!-- Node5&#45;&gt;Node6 -->
<g id="edge5_Node000005_Node000006" class="edge">
<title>Node5&#45;&gt;Node6</title>
<g id="a_edge5_Node000005_Node000006"><a xlink:title=" ">
<path fill="none" stroke="#63b8ff" d="M174.83,-54.98C186.09,-46.92 203.22,-34.65 216.65,-25.03"/>
<polygon fill="#63b8ff" stroke="#63b8ff" points="218.74,-27.84 224.83,-19.17 214.66,-22.15 218.74,-27.84"/>
</a>
</g>
</g>
<!-- Node5&#45;&gt;Node7 -->
<g id="edge6_Node000005_Node000007" class="edge">
<title>Node5&#45;&gt;Node7</title>
<g id="a_edge6_Node000005_Node000007"><a xlink:title=" ">
<path fill="none" stroke="#63b8ff" d="M151.85,-54.98C141.45,-47 125.68,-34.88 113.22,-25.31"/>
<polygon fill="#63b8ff" stroke="#63b8ff" points="115.29,-22.49 105.23,-19.17 111.02,-28.04 115.29,-22.49"/>
</a>
</g>
</g>
<!-- Node8 -->
<g id="Node000008" class="node">
<title>Node8</title>
<g id="a_Node000008"><a xlink:title=" ">
<polygon fill="#e0e0e0" stroke="#999999" points="184.94,-19 140.94,-19 140.94,0 184.94,0 184.94,-19"/>
<text text-anchor="middle" x="162.94" y="-7" font-family="Helvetica,sans-Serif" font-size="10.00">limits</text>
</a>
</g>
</g>
<!-- Node5&#45;&gt;Node8 -->
<g id="edge7_Node000005_Node000008" class="edge">
<title>Node5&#45;&gt;Node8</title>
<g id="a_edge7_Node000005_Node000008"><a xlink:title=" ">
<path fill="none" stroke="#63b8ff" d="M162.94,-54.75C162.94,-47.8 162.94,-37.85 162.94,-29.13"/>
<polygon fill="#63b8ff" stroke="#63b8ff" points="166.44,-29.09 162.94,-19.09 159.44,-29.09 166.44,-29.09"/>
</a>
</g>
</g>
</g>
</svg>
