<?xml version="1.0" encoding="UTF-8" standalone="no"?>
<!DOCTYPE svg PUBLIC "-//W3C//DTD SVG 1.1//EN"
 "http://www.w3.org/Graphics/SVG/1.1/DTD/svg11.dtd">
<!-- Generated by graphviz version 2.43.0 (0)
 -->
<!-- Title: src/metrics/collector_integration.cpp Pages: 1 -->
<!--zoomable 280 -->

<svg id="main" version="1.1" xmlns="http://www.w3.org/2000/svg" xmlns:xlink="http://www.w3.org/1999/xlink" xml:space="preserve" onload="init(evt)">
<style type="text/css"><![CDATA[
.node, .edge {opacity: 0.7;}
.node.selected, .edge.selected {opacity: 1;}
.edge:hover path { stroke: red; }
.edge:hover polygon { stroke: red; fill: red; }
]]></style>

<defs>
  <circle id="rim" cx="0" cy="0" r="7"/>
  <circle id="rim2" cx="0" cy="0" r="3.5"/>
  <g id="zoomPlus">
    <use xlink:href="#rim" fill="#404040"><set attributeName="fill" to="#808080" begin="zoomplus.mouseover" end="zoomplus.mouseout"/></use>
    <path d="M-4,0h8M0,-4v8" fill="none" stroke="white" stroke-width="1.5" pointer-events="none"/>
  </g>
  <g id="zoomMin">
    <use xlink:href="#rim" fill="#404040"><set attributeName="fill" to="#808080" begin="zoomminus.mouseover" end="zoomminus.mouseout"/></use>
    <path d="M-4,0h8" fill="none" stroke="white" stroke-width="1.5" pointer-events="none"/>
  </g>
  <g id="arrowUp" transform="translate(30 24)">
    <use xlink:href="#rim"/>
    <path pointer-events="none" fill="none" stroke="white" stroke-width="1.5" d="M0,-3.0v7 M-2.5,-0.5L0,-3.0L2.5,-0.5"/>
  </g>
  <g id="arrowRight" transform="rotate(90) translate(36 -43)">
    <use xlink:href="#rim"/>
    <path pointer-events="none" fill="none" stroke="white" stroke-width="1.5" d="M0,-3.0v7 M-2.5,-0.5L0,-3.0L2.5,-0.5"/>
  </g>
  <g id="arrowDown" transform="rotate(180) translate(-30 -48)">
    <use xlink:href="#rim"/>
    <path pointer-events="none" fill="none" stroke="white" stroke-width="1.5" d="M0,-3.0v7 M-2.5,-0.5L0,-3.0L2.5,-0.5"/>
  </g>
  <g id="arrowLeft" transform="rotate(270) translate(-36 17)">
    <use xlink:href="#rim"/>
    <path pointer-events="none" fill="none" stroke="white" stroke-width="1.5" d="M0,-3.0v7 M-2.5,-0.5L0,-3.0L2.5,-0.5"/>
  </g>
  <g id="resetDef">
    <use xlink:href="#rim2" fill="#404040"><set attributeName="fill" to="#808080" begin="reset.mouseover" end="reset.mouseout"/></use>
  </g>
</defs>
<script type="application/ecmascript">
var viewWidth = 656;
var viewHeight = 280;
var sectionId = 'dynsection-0';
</script>
<script type="application/ecmascript" xlink:href="svg.min.js"/>
<svg id="graph" class="graph">
<g id="viewport">
<title>src/metrics/collector_integration.cpp</title>
<!-- Node1 -->
<g id="Node000001" class="node">
<title>Node1</title>
<g id="a_Node000001"><a xlink:title="Integration layer between query_metrics_collector and monitoring_system.">
<polygon fill="#999999" stroke="#666666" points="489.78,-272 373.78,-272 373.78,-242 489.78,-242 489.78,-272"/>
<text text-anchor="start" x="381.78" y="-260" font-family="Helvetica,sans-Serif" font-size="10.00">src/metrics/collector</text>
<text text-anchor="middle" x="431.78" y="-249" font-family="Helvetica,sans-Serif" font-size="10.00">_integration.cpp</text>
</a>
</g>
</g>
<!-- Node2 -->
<g id="Node000002" class="node">
<title>Node2</title>
<g id="a_Node000002"><a xlink:href="query__metrics__collector_8h.html" target="_top" xlink:title="CRTP&#45;based query metrics collector implementation.">
<polygon fill="white" stroke="#666666" points="287.78,-206 151.78,-206 151.78,-165 287.78,-165 287.78,-206"/>
<text text-anchor="start" x="159.78" y="-194" font-family="Helvetica,sans-Serif" font-size="10.00">kcenon/database_server</text>
<text text-anchor="start" x="159.78" y="-183" font-family="Helvetica,sans-Serif" font-size="10.00">/metrics/query_metrics</text>
<text text-anchor="middle" x="219.78" y="-172" font-family="Helvetica,sans-Serif" font-size="10.00">_collector.h</text>
</a>
</g>
</g>
<!-- Node1&#45;&gt;Node2 -->
<g id="edge1_Node000001_Node000002" class="edge">
<title>Node1&#45;&gt;Node2</title>
<g id="a_edge1_Node000001_Node000002"><a xlink:title=" ">
<path fill="none" stroke="#63b8ff" d="M388.88,-241.94C360.25,-232.55 321.96,-220 289.06,-209.21"/>
<polygon fill="#63b8ff" stroke="#63b8ff" points="290.08,-205.86 279.49,-206.07 287.9,-212.51 290.08,-205.86"/>
</a>
</g>
</g>
<!-- Node6 -->
<g id="Node000006" class="node">
<title>Node6</title>
<g id="a_Node000006"><a xlink:title=" ">
<polygon fill="#e0e0e0" stroke="#999999" points="155.78,-19 105.78,-19 105.78,0 155.78,0 155.78,-19"/>
<text text-anchor="middle" x="130.78" y="-7" font-family="Helvetica,sans-Serif" font-size="10.00">chrono</text>
</a>
</g>
</g>
<!-- Node1&#45;&gt;Node6 -->
<g id="edge16_Node000001_Node000006" class="edge">
<title>Node1&#45;&gt;Node6</title>
<g id="a_edge16_Node000001_Node000006"><a xlink:title=" ">
<path fill="none" stroke="#63b8ff" d="M373.63,-253.22C289.84,-248.24 140.31,-235.43 95.78,-206 32.25,-164.01 -28.36,-117.76 14.78,-55 32.69,-28.95 68.11,-18.14 95.12,-13.66"/>
<polygon fill="#63b8ff" stroke="#63b8ff" points="95.97,-17.08 105.37,-12.19 94.98,-10.15 95.97,-17.08"/>
</a>
</g>
</g>
<!-- Node8 -->
<g id="Node000008" class="node">
<title>Node8</title>
<g id="a_Node000008"><a xlink:title=" ">
<polygon fill="#e0e0e0" stroke="#999999" points="71.78,-74 23.78,-74 23.78,-55 71.78,-55 71.78,-74"/>
<text text-anchor="middle" x="47.78" y="-62" font-family="Helvetica,sans-Serif" font-size="10.00">mutex</text>
</a>
</g>
</g>
<!-- Node1&#45;&gt;Node8 -->
<g id="edge19_Node000001_Node000008" class="edge">
<title>Node1&#45;&gt;Node8</title>
<g id="a_edge19_Node000001_Node000008"><a xlink:title=" ">
<path fill="none" stroke="#63b8ff" d="M373.73,-250.55C301.07,-242.94 181.46,-227.6 142.78,-206 94.26,-178.9 65.65,-115.39 53.96,-83.88"/>
<polygon fill="#63b8ff" stroke="#63b8ff" points="57.17,-82.45 50.53,-74.19 50.57,-84.78 57.17,-82.45"/>
</a>
</g>
</g>
<!-- Node9 -->
<g id="Node000009" class="node">
<title>Node9</title>
<g id="a_Node000009"><a xlink:title=" ">
<polygon fill="#e0e0e0" stroke="#999999" points="389.78,-74 345.78,-74 345.78,-55 389.78,-55 389.78,-74"/>
<text text-anchor="middle" x="367.78" y="-62" font-family="Helvetica,sans-Serif" font-size="10.00">string</text>
</a>
</g>
</g>
<!-- Node1&#45;&gt;Node9 -->
<g id="edge20_Node000001_Node000009" class="edge">
<title>Node1&#45;&gt;Node9</title>
<g id="a_edge20_Node000001_Node000009"><a xlink:title=" ">
<path fill="none" stroke="#63b8ff" d="M436.08,-241.69C443.44,-214.28 455.6,-153.27 432.78,-110 425.55,-96.27 411.96,-85.97 399.07,-78.76"/>
<polygon fill="#63b8ff" stroke="#63b8ff" points="400.4,-75.51 389.9,-74.05 397.19,-81.73 400.4,-75.51"/>
</a>
</g>
</g>
<!-- Node10 -->
<g id="Node000010" class="node">
<title>Node10</title>
<g id="a_Node000010"><a xlink:title=" ">
<polygon fill="#e0e0e0" stroke="#999999" points="518.28,-74 425.28,-74 425.28,-55 518.28,-55 518.28,-74"/>
<text text-anchor="middle" x="471.78" y="-62" font-family="Helvetica,sans-Serif" font-size="10.00">unordered_map</text>
</a>
</g>
</g>
<!-- Node1&#45;&gt;Node10 -->
<g id="edge21_Node000001_Node000010" class="edge">
<title>Node1&#45;&gt;Node10</title>
<g id="a_edge21_Node000001_Node000010"><a xlink:title=" ">
<path fill="none" stroke="#63b8ff" d="M444.57,-241.85C452.25,-232.43 461.36,-219.35 465.78,-206 479.62,-164.23 476.95,-111.62 474.15,-84.15"/>
<polygon fill="#63b8ff" stroke="#63b8ff" points="477.61,-83.56 473,-74.02 470.65,-84.35 477.61,-83.56"/>
</a>
</g>
</g>
<!-- Node11 -->
<g id="Node000011" class="node">
<title>Node11</title>
<g id="a_Node000011"><a xlink:title=" ">
<polygon fill="#e0e0e0" stroke="#999999" points="423.78,-129 365.78,-129 365.78,-110 423.78,-110 423.78,-129"/>
<text text-anchor="middle" x="394.78" y="-117" font-family="Helvetica,sans-Serif" font-size="10.00">memory</text>
</a>
</g>
</g>
<!-- Node1&#45;&gt;Node11 -->
<g id="edge18_Node000001_Node000011" class="edge">
<title>Node1&#45;&gt;Node11</title>
<g id="a_edge18_Node000001_Node000011"><a xlink:title=" ">
<path fill="none" stroke="#63b8ff" d="M427.89,-241.76C421.14,-217.03 407.26,-166.21 399.8,-138.87"/>
<polygon fill="#63b8ff" stroke="#63b8ff" points="403.12,-137.76 397.11,-129.03 396.37,-139.6 403.12,-137.76"/>
</a>
</g>
</g>
<!-- Node13 -->
<g id="Node000013" class="node">
<title>Node13</title>
<g id="a_Node000013"><a xlink:title=" ">
<polygon fill="#e0e0e0" stroke="#999999" points="583.28,-195 518.28,-195 518.28,-176 583.28,-176 583.28,-195"/>
<text text-anchor="middle" x="550.78" y="-183" font-family="Helvetica,sans-Serif" font-size="10.00">functional</text>
</a>
</g>
</g>
<!-- Node1&#45;&gt;Node13 -->
<g id="edge17_Node000001_Node000013" class="edge">
<title>Node1&#45;&gt;Node13</title>
<g id="a_edge17_Node000001_Node000013"><a xlink:title=" ">
<path fill="none" stroke="#63b8ff" d="M455.86,-241.94C476.71,-229.76 506.68,-212.26 527.34,-200.19"/>
<polygon fill="#63b8ff" stroke="#63b8ff" points="529.24,-203.13 536.11,-195.07 525.71,-197.09 529.24,-203.13"/>
</a>
</g>
</g>
<!-- Node14 -->
<g id="Node000014" class="node">
<title>Node14</title>
<g id="a_Node000014"><a xlink:title=" ">
<polygon fill="#e0e0e0" stroke="#999999" points="648.28,-195 601.28,-195 601.28,-176 648.28,-176 648.28,-195"/>
<text text-anchor="middle" x="624.78" y="-183" font-family="Helvetica,sans-Serif" font-size="10.00">vector</text>
</a>
</g>
</g>
<!-- Node1&#45;&gt;Node14 -->
<g id="edge22_Node000001_Node000014" class="edge">
<title>Node1&#45;&gt;Node14</title>
<g id="a_edge22_Node000001_Node000014"><a xlink:title=" ">
<path fill="none" stroke="#63b8ff" d="M488.92,-241.95C520.27,-233.33 559.44,-221.06 592.78,-206 596.37,-204.38 600.06,-202.43 603.59,-200.41"/>
<polygon fill="#63b8ff" stroke="#63b8ff" points="605.69,-203.22 612.41,-195.03 602.05,-197.25 605.69,-203.22"/>
</a>
</g>
</g>
<!-- Node3 -->
<g id="Node000003" class="node">
<title>Node3</title>
<g id="a_Node000003"><a xlink:href="query__collector__base_8h.html" target="_top" xlink:title="CRTP base class for query metrics collectors.">
<polygon fill="white" stroke="#666666" points="347.28,-129 218.28,-129 218.28,-110 347.28,-110 347.28,-129"/>
<text text-anchor="middle" x="282.78" y="-117" font-family="Helvetica,sans-Serif" font-size="10.00">query_collector_base.h</text>
</a>
</g>
</g>
<!-- Node2&#45;&gt;Node3 -->
<g id="edge2_Node000002_Node000003" class="edge">
<title>Node2&#45;&gt;Node3</title>
<g id="a_edge2_Node000002_Node000003"><a xlink:title=" ">
<path fill="none" stroke="#63b8ff" d="M239.03,-164.95C248,-155.83 258.55,-145.11 267.04,-136.49"/>
<polygon fill="#63b8ff" stroke="#63b8ff" points="269.64,-138.84 274.16,-129.26 264.65,-133.93 269.64,-138.84"/>
</a>
</g>
</g>
<!-- Node4 -->
<g id="Node000004" class="node">
<title>Node4</title>
<g id="a_Node000004"><a xlink:href="query__metrics_8h.html" target="_top" xlink:title="Metrics structures for query server performance monitoring.">
<polygon fill="white" stroke="#666666" points="254.28,-74 159.28,-74 159.28,-55 254.28,-55 254.28,-74"/>
<text text-anchor="middle" x="206.78" y="-62" font-family="Helvetica,sans-Serif" font-size="10.00">query_metrics.h</text>
</a>
</g>
</g>
<!-- Node2&#45;&gt;Node4 -->
<g id="edge12_Node000002_Node000004" class="edge">
<title>Node2&#45;&gt;Node4</title>
<g id="a_edge12_Node000002_Node000004"><a xlink:title=" ">
<path fill="none" stroke="#63b8ff" d="M151.71,-166.48C133.33,-158.17 115.57,-146.18 104.78,-129 88.83,-103.59 122.99,-86.69 155.99,-76.76"/>
<polygon fill="#63b8ff" stroke="#63b8ff" points="157.01,-80.11 165.68,-74.02 155.11,-73.37 157.01,-80.11"/>
</a>
</g>
</g>
<!-- Node2&#45;&gt;Node8 -->
<g id="edge14_Node000002_Node000008" class="edge">
<title>Node2&#45;&gt;Node8</title>
<g id="a_edge14_Node000002_Node000008"><a xlink:title=" ">
<path fill="none" stroke="#63b8ff" d="M161.09,-164.88C139.55,-155.98 115.81,-144.03 96.78,-129 80.63,-116.23 66.79,-97.03 57.98,-83.08"/>
<polygon fill="#63b8ff" stroke="#63b8ff" points="60.89,-81.14 52.71,-74.41 54.91,-84.78 60.89,-81.14"/>
</a>
</g>
</g>
<!-- Node2&#45;&gt;Node11 -->
<g id="edge13_Node000002_Node000011" class="edge">
<title>Node2&#45;&gt;Node11</title>
<g id="a_edge13_Node000002_Node000011"><a xlink:title=" ">
<path fill="none" stroke="#63b8ff" d="M273.24,-164.95C302.04,-154.42 336.67,-141.75 361.58,-132.64"/>
<polygon fill="#63b8ff" stroke="#63b8ff" points="363.1,-135.81 371.29,-129.09 360.7,-129.24 363.1,-135.81"/>
</a>
</g>
</g>
<!-- Node12 -->
<g id="Node000012" class="node">
<title>Node12</title>
<g id="a_Node000012"><a xlink:title=" ">
<polygon fill="#e0e0e0" stroke="#999999" points="199.78,-129 113.78,-129 113.78,-110 199.78,-110 199.78,-129"/>
<text text-anchor="middle" x="156.78" y="-117" font-family="Helvetica,sans-Serif" font-size="10.00">shared_mutex</text>
</a>
</g>
</g>
<!-- Node2&#45;&gt;Node12 -->
<g id="edge15_Node000002_Node000012" class="edge">
<title>Node2&#45;&gt;Node12</title>
<g id="a_edge15_Node000002_Node000012"><a xlink:title=" ">
<path fill="none" stroke="#63b8ff" d="M200.54,-164.95C191.56,-155.83 181.01,-145.11 172.52,-136.49"/>
<polygon fill="#63b8ff" stroke="#63b8ff" points="174.92,-133.93 165.41,-129.26 169.93,-138.84 174.92,-133.93"/>
</a>
</g>
</g>
<!-- Node3&#45;&gt;Node4 -->
<g id="edge3_Node000003_Node000004" class="edge">
<title>Node3&#45;&gt;Node4</title>
<g id="a_edge3_Node000003_Node000004"><a xlink:title=" ">
<path fill="none" stroke="#63b8ff" d="M270.57,-109.98C259.01,-101.92 241.41,-89.65 227.62,-80.03"/>
<polygon fill="#63b8ff" stroke="#63b8ff" points="229.42,-77.02 219.22,-74.17 225.42,-82.76 229.42,-77.02"/>
</a>
</g>
</g>
<!-- Node5 -->
<g id="Node000005" class="node">
<title>Node5</title>
<g id="a_Node000005"><a xlink:title=" ">
<polygon fill="#e0e0e0" stroke="#999999" points="303.78,-19 253.78,-19 253.78,0 303.78,0 303.78,-19"/>
<text text-anchor="middle" x="278.78" y="-7" font-family="Helvetica,sans-Serif" font-size="10.00">atomic</text>
</a>
</g>
</g>
<!-- Node3&#45;&gt;Node5 -->
<g id="edge7_Node000003_Node000005" class="edge">
<title>Node3&#45;&gt;Node5</title>
<g id="a_edge7_Node000003_Node000005"><a xlink:title=" ">
<path fill="none" stroke="#63b8ff" d="M282.46,-109.66C281.81,-92.17 280.35,-52.8 279.48,-29.27"/>
<polygon fill="#63b8ff" stroke="#63b8ff" points="282.97,-29.02 279.1,-19.16 275.98,-29.28 282.97,-29.02"/>
</a>
</g>
</g>
<!-- Node3&#45;&gt;Node6 -->
<g id="edge8_Node000003_Node000006" class="edge">
<title>Node3&#45;&gt;Node6</title>
<g id="a_edge8_Node000003_Node000006"><a xlink:title=" ">
<path fill="none" stroke="#63b8ff" d="M218.82,-109.93C194.36,-103.66 167.99,-92.8 149.78,-74 138.16,-62 133.61,-43.19 131.85,-29.15"/>
<polygon fill="#63b8ff" stroke="#63b8ff" points="135.33,-28.78 130.95,-19.13 128.36,-29.41 135.33,-28.78"/>
</a>
</g>
</g>
<!-- Node3&#45;&gt;Node8 -->
<g id="edge9_Node000003_Node000008" class="edge">
<title>Node3&#45;&gt;Node8</title>
<g id="a_edge9_Node000003_Node000008"><a xlink:title=" ">
<path fill="none" stroke="#63b8ff" d="M245.03,-109.98C199.86,-99.8 124.94,-82.9 81.6,-73.13"/>
<polygon fill="#63b8ff" stroke="#63b8ff" points="82.34,-69.71 71.81,-70.92 80.8,-76.53 82.34,-69.71"/>
</a>
</g>
</g>
<!-- Node3&#45;&gt;Node9 -->
<g id="edge10_Node000003_Node000009" class="edge">
<title>Node3&#45;&gt;Node9</title>
<g id="a_edge10_Node000003_Node000009"><a xlink:title=" ">
<path fill="none" stroke="#63b8ff" d="M296.44,-109.98C309.62,-101.77 329.81,-89.18 345.35,-79.49"/>
<polygon fill="#63b8ff" stroke="#63b8ff" points="347.24,-82.43 353.88,-74.17 343.54,-76.49 347.24,-82.43"/>
</a>
</g>
</g>
<!-- Node3&#45;&gt;Node10 -->
<g id="edge11_Node000003_Node000010" class="edge">
<title>Node3&#45;&gt;Node10</title>
<g id="a_edge11_Node000003_Node000010"><a xlink:title=" ">
<path fill="none" stroke="#63b8ff" d="M313.15,-109.98C345.15,-101.01 395.74,-86.82 431.16,-76.89"/>
<polygon fill="#63b8ff" stroke="#63b8ff" points="432.5,-80.15 441.18,-74.08 430.6,-73.41 432.5,-80.15"/>
</a>
</g>
</g>
<!-- Node4&#45;&gt;Node5 -->
<g id="edge4_Node000004_Node000005" class="edge">
<title>Node4&#45;&gt;Node5</title>
<g id="a_edge4_Node000004_Node000005"><a xlink:title=" ">
<path fill="none" stroke="#63b8ff" d="M218.35,-54.98C229.2,-47 245.66,-34.88 258.67,-25.31"/>
<polygon fill="#63b8ff" stroke="#63b8ff" points="261.03,-27.92 267,-19.17 256.88,-22.28 261.03,-27.92"/>
</a>
</g>
</g>
<!-- Node4&#45;&gt;Node6 -->
<g id="edge5_Node000004_Node000006" class="edge">
<title>Node4&#45;&gt;Node6</title>
<g id="a_edge5_Node000004_Node000006"><a xlink:title=" ">
<path fill="none" stroke="#63b8ff" d="M194.57,-54.98C183.01,-46.92 165.41,-34.65 151.62,-25.03"/>
<polygon fill="#63b8ff" stroke="#63b8ff" points="153.42,-22.02 143.22,-19.17 149.42,-27.76 153.42,-22.02"/>
</a>
</g>
</g>
<!-- Node7 -->
<g id="Node000007" class="node">
<title>Node7</title>
<g id="a_Node000007"><a xlink:title=" ">
<polygon fill="#e0e0e0" stroke="#999999" points="231.78,-19 181.78,-19 181.78,0 231.78,0 231.78,-19"/>
<text text-anchor="middle" x="206.78" y="-7" font-family="Helvetica,sans-Serif" font-size="10.00">cstdint</text>
</a>
</g>
</g>
<!-- Node4&#45;&gt;Node7 -->
<g id="edge6_Node000004_Node000007" class="edge">
<title>Node4&#45;&gt;Node7</title>
<g id="a_edge6_Node000004_Node000007"><a xlink:title=" ">
<path fill="none" stroke="#63b8ff" d="M206.78,-54.75C206.78,-47.8 206.78,-37.85 206.78,-29.13"/>
<polygon fill="#63b8ff" stroke="#63b8ff" points="210.28,-29.09 206.78,-19.09 203.28,-29.09 210.28,-29.09"/>
</a>
</g>
</g>
</g>
</svg>

<g id="navigator" transform="translate(0 0)" fill="#404254">
  <rect fill="#f2f5e9" fill-opacity="0.5" stroke="#606060" stroke-width=".5" x="0" y="0" width="60" height="60"/>
  <use id="zoomplus" xlink:href="#zoomPlus" x="17" y="9" onmousedown="handleZoom(evt,'in')"/>
  <use id="zoomminus" xlink:href="#zoomMin" x="42" y="9" onmousedown="handleZoom(evt,'out')"/>
  <use id="reset" xlink:href="#resetDef" x="30" y="36" onmousedown="handleReset()"/>
   <use id="arrowup" xlink:href="#arrowUp" x="0" y="0" onmousedown="handlePan(0,-1)"/>
  <use id="arrowright" xlink:href="#arrowRight" x="0" y="0" onmousedown="handlePan(1,0)"/>
  <use id="arrowdown" xlink:href="#arrowDown" x="0" y="0" onmousedown="handlePan(0,1)"/>
  <use id="arrowleft" xlink:href="#arrowLeft" x="0" y="0" onmousedown="handlePan(-1,0)"/>
</g>
<svg viewBox="0 0 15 15" width="100%" height="30px" preserveAspectRatio="xMaxYMin meet">
 <g id="arrow_out" transform="scale(0.3 0.3)">
  <a xlink:href="collector__integration_8cpp__incl_org.svg" target="_base">
   <rect id="button" ry="5" rx="5" y="6" x="6" height="38" width="38"
        fill="#f2f5e9" fill-opacity="0.5" stroke="#606060" stroke-width="1.0"/>
   <path id="arrow"
     d="M 11.500037,31.436501 C 11.940474,20.09759 22.043105,11.32322 32.158766,21.979434 L 37.068811,17.246167 C 37.068811,17.246167 37.088388,32 37.088388,32 L 22.160133,31.978069 C 22.160133,31.978069 26.997745,27.140456 26.997745,27.140456 C 18.528582,18.264221 13.291696,25.230495 11.500037,31.436501 z"
     style="fill:#404040;"/>
  </a>
 </g>
</svg>

<style type='text/css'>
<![CDATA[
[data-mouse-over-selected='false'] { opacity: 0.7; }
[data-mouse-over-selected='true']  { opacity: 1.0; }
]]>
</style>
<script type="application/ecmascript"><![CDATA[
document.addEventListener('DOMContentLoaded', (event) => {
  highlightEdges();
  highlightAdjacentNodes();
});
]]></script>
</svg>
