<?xml version="1.0" encoding="UTF-8" standalone="no"?>
<!DOCTYPE svg PUBLIC "-//W3C//DTD SVG 1.1//EN"
 "http://www.w3.org/Graphics/SVG/1.1/DTD/svg11.dtd">
<!-- Generated by graphviz version 2.43.0 (0)
 -->
<!-- Title: src/pooling/connection_pool.cpp Pages: 1 -->
<svg width="1973pt" height="247pt"
 viewBox="0.00 0.00 1973.00 247.00" xmlns="http://www.w3.org/2000/svg" xmlns:xlink="http://www.w3.org/1999/xlink">
<g id="graph0" class="graph" transform="scale(1 1) rotate(0) translate(4 243)">
<title>src/pooling/connection_pool.cpp</title>
<!-- Node1 -->
<g id="Node000001" class="node">
<title>Node1</title>
<g id="a_Node000001"><a xlink:title=" ">
<polygon fill="#999999" stroke="#666666" points="1253.5,-239 1127.5,-239 1127.5,-209 1253.5,-209 1253.5,-239"/>
<text text-anchor="start" x="1135.5" y="-227" font-family="Helvetica,sans-Serif" font-size="10.00">src/pooling/connection</text>
<text text-anchor="middle" x="1190.5" y="-216" font-family="Helvetica,sans-Serif" font-size="10.00">_pool.cpp</text>
</a>
</g>
</g>
<!-- Node2 -->
<g id="Node000002" class="node">
<title>Node2</title>
<g id="a_Node000002"><a xlink:href="connection__pool_8h.html" target="_top" xlink:title="High&#45;performance connection pool with adaptive queue and priority scheduling.">
<polygon fill="white" stroke="#666666" points="1203,-173 1056,-173 1056,-143 1203,-143 1203,-173"/>
<text text-anchor="start" x="1064" y="-161" font-family="Helvetica,sans-Serif" font-size="10.00">kcenon/database_server</text>
<text text-anchor="middle" x="1129.5" y="-150" font-family="Helvetica,sans-Serif" font-size="10.00">/pooling/connection_pool.h</text>
</a>
</g>
</g>
<!-- Node1&#45;&gt;Node2 -->
<g id="edge1_Node000001_Node000002" class="edge">
<title>Node1&#45;&gt;Node2</title>
<g id="a_edge1_Node000001_Node000002"><a xlink:title=" ">
<path fill="none" stroke="#63b8ff" d="M1176.96,-208.8C1169.06,-200.51 1158.94,-189.89 1150.08,-180.59"/>
<polygon fill="#63b8ff" stroke="#63b8ff" points="1152.43,-177.99 1143,-173.16 1147.37,-182.82 1152.43,-177.99"/>
</a>
</g>
</g>
<!-- Node27 -->
<g id="Node000027" class="node">
<title>Node27</title>
<g id="a_Node000027"><a xlink:title=" ">
<polygon fill="#e0e0e0" stroke="#999999" points="1281.5,-167.5 1221.5,-167.5 1221.5,-148.5 1281.5,-148.5 1281.5,-167.5"/>
<text text-anchor="middle" x="1251.5" y="-155.5" font-family="Helvetica,sans-Serif" font-size="10.00">iostream</text>
</a>
</g>
</g>
<!-- Node1&#45;&gt;Node27 -->
<g id="edge34_Node000001_Node000027" class="edge">
<title>Node1&#45;&gt;Node27</title>
<g id="a_edge34_Node000001_Node000027"><a xlink:title=" ">
<path fill="none" stroke="#63b8ff" d="M1204.04,-208.8C1213.55,-198.82 1226.28,-185.46 1236.17,-175.09"/>
<polygon fill="#63b8ff" stroke="#63b8ff" points="1238.7,-177.5 1243.07,-167.84 1233.64,-172.67 1238.7,-177.5"/>
</a>
</g>
</g>
<!-- Node3 -->
<g id="Node000003" class="node">
<title>Node3</title>
<g id="a_Node000003"><a xlink:href="connection__priority_8h.html" target="_top" xlink:title="Priority levels for connection acquisition requests.">
<polygon fill="white" stroke="#666666" points="290.5,-96 172.5,-96 172.5,-77 290.5,-77 290.5,-96"/>
<text text-anchor="middle" x="231.5" y="-84" font-family="Helvetica,sans-Serif" font-size="10.00">connection_priority.h</text>
</a>
</g>
</g>
<!-- Node2&#45;&gt;Node3 -->
<g id="edge2_Node000002_Node000003" class="edge">
<title>Node2&#45;&gt;Node3</title>
<g id="a_edge2_Node000002_Node000003"><a xlink:title=" ">
<path fill="none" stroke="#63b8ff" d="M1055.63,-151.28C885.19,-138.09 466.38,-105.68 300.64,-92.85"/>
<polygon fill="#63b8ff" stroke="#63b8ff" points="300.81,-89.35 290.57,-92.07 300.27,-96.33 300.81,-89.35"/>
</a>
</g>
</g>
<!-- Node5 -->
<g id="Node000005" class="node">
<title>Node5</title>
<g id="a_Node000005"><a xlink:href="pool__metrics_8h.html" target="_top" xlink:title="Performance metrics for connection pools.">
<polygon fill="white" stroke="#666666" points="1211,-96 1122,-96 1122,-77 1211,-77 1211,-96"/>
<text text-anchor="middle" x="1166.5" y="-84" font-family="Helvetica,sans-Serif" font-size="10.00">pool_metrics.h</text>
</a>
</g>
</g>
<!-- Node2&#45;&gt;Node5 -->
<g id="edge4_Node000002_Node000005" class="edge">
<title>Node2&#45;&gt;Node5</title>
<g id="a_edge4_Node000002_Node000005"><a xlink:title=" ">
<path fill="none" stroke="#63b8ff" d="M1136.99,-142.94C1142.79,-132.03 1150.88,-116.85 1157.12,-105.13"/>
<polygon fill="#63b8ff" stroke="#63b8ff" points="1160.22,-106.74 1161.83,-96.27 1154.04,-103.45 1160.22,-106.74"/>
</a>
</g>
</g>
<!-- Node6 -->
<g id="Node000006" class="node">
<title>Node6</title>
<g id="a_Node000006"><a xlink:title=" ">
<polygon fill="#e0e0e0" stroke="#999999" points="1243.5,-24.5 1193.5,-24.5 1193.5,-5.5 1243.5,-5.5 1243.5,-24.5"/>
<text text-anchor="middle" x="1218.5" y="-12.5" font-family="Helvetica,sans-Serif" font-size="10.00">atomic</text>
</a>
</g>
</g>
<!-- Node2&#45;&gt;Node6 -->
<g id="edge11_Node000002_Node000006" class="edge">
<title>Node2&#45;&gt;Node6</title>
<g id="a_edge11_Node000002_Node000006"><a xlink:title=" ">
<path fill="none" stroke="#63b8ff" d="M1121.37,-142.89C1111.64,-123.93 1098.43,-89.87 1113.5,-66 1117.86,-59.1 1158.61,-40.96 1188.04,-28.54"/>
<polygon fill="#63b8ff" stroke="#63b8ff" points="1189.64,-31.66 1197.51,-24.57 1186.94,-25.21 1189.64,-31.66"/>
</a>
</g>
</g>
<!-- Node7 -->
<g id="Node000007" class="node">
<title>Node7</title>
<g id="a_Node000007"><a xlink:title=" ">
<polygon fill="#e0e0e0" stroke="#999999" points="1109.5,-24.5 1059.5,-24.5 1059.5,-5.5 1109.5,-5.5 1109.5,-24.5"/>
<text text-anchor="middle" x="1084.5" y="-12.5" font-family="Helvetica,sans-Serif" font-size="10.00">chrono</text>
</a>
</g>
</g>
<!-- Node2&#45;&gt;Node7 -->
<g id="edge12_Node000002_Node000007" class="edge">
<title>Node2&#45;&gt;Node7</title>
<g id="a_edge12_Node000002_Node000007"><a xlink:title=" ">
<path fill="none" stroke="#63b8ff" d="M1109.01,-142.89C1098.01,-134.02 1085.51,-121.52 1079.5,-107 1069.73,-83.42 1074.26,-53.42 1078.95,-34.45"/>
<polygon fill="#63b8ff" stroke="#63b8ff" points="1082.35,-35.26 1081.62,-24.7 1075.6,-33.42 1082.35,-35.26"/>
</a>
</g>
</g>
<!-- Node12 -->
<g id="Node000012" class="node">
<title>Node12</title>
<g id="a_Node000012"><a xlink:title=" ">
<polygon fill="#e0e0e0" stroke="#999999" points="216,-24.5 151,-24.5 151,-5.5 216,-5.5 216,-24.5"/>
<text text-anchor="middle" x="183.5" y="-12.5" font-family="Helvetica,sans-Serif" font-size="10.00">functional</text>
</a>
</g>
</g>
<!-- Node2&#45;&gt;Node12 -->
<g id="edge13_Node000002_Node000012" class="edge">
<title>Node2&#45;&gt;Node12</title>
<g id="a_edge13_Node000002_Node000012"><a xlink:title=" ">
<path fill="none" stroke="#63b8ff" d="M1055.89,-151.43C900.56,-138.64 528.52,-102.54 224.5,-30 221.69,-29.33 218.8,-28.54 215.91,-27.69"/>
<polygon fill="#63b8ff" stroke="#63b8ff" points="216.85,-24.32 206.26,-24.63 214.73,-30.99 216.85,-24.32"/>
</a>
</g>
</g>
<!-- Node13 -->
<g id="Node000013" class="node">
<title>Node13</title>
<g id="a_Node000013"><a xlink:title=" ">
<polygon fill="#e0e0e0" stroke="#999999" points="1275.5,-96 1229.5,-96 1229.5,-77 1275.5,-77 1275.5,-96"/>
<text text-anchor="middle" x="1252.5" y="-84" font-family="Helvetica,sans-Serif" font-size="10.00">future</text>
</a>
</g>
</g>
<!-- Node2&#45;&gt;Node13 -->
<g id="edge14_Node000002_Node000013" class="edge">
<title>Node2&#45;&gt;Node13</title>
<g id="a_edge14_Node000002_Node000013"><a xlink:title=" ">
<path fill="none" stroke="#63b8ff" d="M1155.96,-142.87C1174.21,-133.02 1198.97,-119.47 1220.5,-107 1223.58,-105.22 1226.8,-103.31 1229.96,-101.41"/>
<polygon fill="#63b8ff" stroke="#63b8ff" points="1231.84,-104.36 1238.56,-96.18 1228.2,-98.38 1231.84,-104.36"/>
</a>
</g>
</g>
<!-- Node14 -->
<g id="Node000014" class="node">
<title>Node14</title>
<g id="a_Node000014"><a xlink:title=" ">
<polygon fill="#e0e0e0" stroke="#999999" points="975.5,-24.5 917.5,-24.5 917.5,-5.5 975.5,-5.5 975.5,-24.5"/>
<text text-anchor="middle" x="946.5" y="-12.5" font-family="Helvetica,sans-Serif" font-size="10.00">memory</text>
</a>
</g>
</g>
<!-- Node2&#45;&gt;Node14 -->
<g id="edge15_Node000002_Node000014" class="edge">
<title>Node2&#45;&gt;Node14</title>
<g id="a_edge15_Node000002_Node000014"><a xlink:title=" ">
<path fill="none" stroke="#63b8ff" d="M1098.34,-142.86C1079.86,-133.82 1056.43,-121.14 1037.5,-107 1007.1,-84.29 976.97,-51.65 960.15,-32.26"/>
<polygon fill="#63b8ff" stroke="#63b8ff" points="962.75,-29.92 953.59,-24.6 957.43,-34.47 962.75,-29.92"/>
</a>
</g>
</g>
<!-- Node15 -->
<g id="Node000015" class="node">
<title>Node15</title>
<g id="a_Node000015"><a xlink:title=" ">
<polygon fill="#e0e0e0" stroke="#999999" points="1041.5,-24.5 993.5,-24.5 993.5,-5.5 1041.5,-5.5 1041.5,-24.5"/>
<text text-anchor="middle" x="1017.5" y="-12.5" font-family="Helvetica,sans-Serif" font-size="10.00">thread</text>
</a>
</g>
</g>
<!-- Node2&#45;&gt;Node15 -->
<g id="edge16_Node000002_Node000015" class="edge">
<title>Node2&#45;&gt;Node15</title>
<g id="a_edge16_Node000002_Node000015"><a xlink:title=" ">
<path fill="none" stroke="#63b8ff" d="M1109,-142.83C1096.59,-133.58 1081,-120.72 1069.5,-107 1050.28,-84.07 1034.29,-53.05 1025.32,-33.79"/>
<polygon fill="#63b8ff" stroke="#63b8ff" points="1028.5,-32.33 1021.18,-24.67 1022.12,-35.22 1028.5,-32.33"/>
</a>
</g>
</g>
<!-- Node16 -->
<g id="Node000016" class="node">
<title>Node16</title>
<g id="a_Node000016"><a xlink:href="connection__types_8h.html" target="_top" xlink:title="Connection pool types for database_server middleware.">
<polygon fill="white" stroke="#666666" points="936,-96 825,-96 825,-77 936,-77 936,-96"/>
<text text-anchor="middle" x="880.5" y="-84" font-family="Helvetica,sans-Serif" font-size="10.00">connection_types.h</text>
</a>
</g>
</g>
<!-- Node2&#45;&gt;Node16 -->
<g id="edge17_Node000002_Node000016" class="edge">
<title>Node2&#45;&gt;Node16</title>
<g id="a_edge17_Node000002_Node000016"><a xlink:title=" ">
<path fill="none" stroke="#63b8ff" d="M1079.11,-142.94C1032.54,-129.94 964.21,-110.87 921.06,-98.82"/>
<polygon fill="#63b8ff" stroke="#63b8ff" points="921.77,-95.39 911.2,-96.07 919.89,-102.13 921.77,-95.39"/>
</a>
</g>
</g>
<!-- Node22 -->
<g id="Node000022" class="node">
<title>Node22</title>
<g id="a_Node000022"><a xlink:title=" ">
<polygon fill="#e0e0e0" stroke="#999999" points="1413.5,-101.5 1293.5,-101.5 1293.5,-71.5 1413.5,-71.5 1413.5,-101.5"/>
<text text-anchor="start" x="1301.5" y="-89.5" font-family="Helvetica,sans-Serif" font-size="10.00">kcenon/thread/core</text>
<text text-anchor="middle" x="1353.5" y="-78.5" font-family="Helvetica,sans-Serif" font-size="10.00">/cancellation_token.h</text>
</a>
</g>
</g>
<!-- Node2&#45;&gt;Node22 -->
<g id="edge29_Node000002_Node000022" class="edge">
<title>Node2&#45;&gt;Node22</title>
<g id="a_edge29_Node000002_Node000022"><a xlink:title=" ">
<path fill="none" stroke="#63b8ff" d="M1174.83,-142.94C1210.5,-131.87 1260.37,-116.4 1298.36,-104.61"/>
<polygon fill="#63b8ff" stroke="#63b8ff" points="1299.72,-107.85 1308.24,-101.54 1297.65,-101.16 1299.72,-107.85"/>
</a>
</g>
</g>
<!-- Node23 -->
<g id="Node000023" class="node">
<title>Node23</title>
<g id="a_Node000023"><a xlink:title=" ">
<polygon fill="#e0e0e0" stroke="#999999" points="1541.5,-101.5 1431.5,-101.5 1431.5,-71.5 1541.5,-71.5 1541.5,-101.5"/>
<text text-anchor="start" x="1439.5" y="-89.5" font-family="Helvetica,sans-Serif" font-size="10.00">kcenon/thread/core</text>
<text text-anchor="middle" x="1486.5" y="-78.5" font-family="Helvetica,sans-Serif" font-size="10.00">/error_handling.h</text>
</a>
</g>
</g>
<!-- Node2&#45;&gt;Node23 -->
<g id="edge30_Node000002_Node000023" class="edge">
<title>Node2&#45;&gt;Node23</title>
<g id="a_edge30_Node000002_Node000023"><a xlink:title=" ">
<path fill="none" stroke="#63b8ff" d="M1203.18,-144.54C1288.2,-130.15 1417.13,-108.27 1422.5,-107 1426.04,-106.16 1429.68,-105.24 1433.33,-104.26"/>
<polygon fill="#63b8ff" stroke="#63b8ff" points="1434.29,-107.62 1442.98,-101.57 1432.41,-100.88 1434.29,-107.62"/>
</a>
</g>
</g>
<!-- Node24 -->
<g id="Node000024" class="node">
<title>Node24</title>
<g id="a_Node000024"><a xlink:title=" ">
<polygon fill="#e0e0e0" stroke="#999999" points="1679,-101.5 1560,-101.5 1560,-71.5 1679,-71.5 1679,-101.5"/>
<text text-anchor="start" x="1568" y="-89.5" font-family="Helvetica,sans-Serif" font-size="10.00">kcenon/thread/core</text>
<text text-anchor="middle" x="1619.5" y="-78.5" font-family="Helvetica,sans-Serif" font-size="10.00">/typed_thread_pool.h</text>
</a>
</g>
</g>
<!-- Node2&#45;&gt;Node24 -->
<g id="edge31_Node000002_Node000024" class="edge">
<title>Node2&#45;&gt;Node24</title>
<g id="a_edge31_Node000002_Node000024"><a xlink:title=" ">
<path fill="none" stroke="#63b8ff" d="M1203.23,-144.32C1206.36,-143.86 1209.46,-143.42 1212.5,-143 1362.16,-122.43 1402.17,-135.65 1550.5,-107 1554.95,-106.14 1559.53,-105.13 1564.12,-104.03"/>
<polygon fill="#63b8ff" stroke="#63b8ff" points="1565.27,-107.35 1574.11,-101.5 1563.56,-100.56 1565.27,-107.35"/>
</a>
</g>
</g>
<!-- Node25 -->
<g id="Node000025" class="node">
<title>Node25</title>
<g id="a_Node000025"><a xlink:title=" ">
<polygon fill="#e0e0e0" stroke="#999999" points="1828,-101.5 1697,-101.5 1697,-71.5 1828,-71.5 1828,-101.5"/>
<text text-anchor="start" x="1705" y="-89.5" font-family="Helvetica,sans-Serif" font-size="10.00">kcenon/thread/core</text>
<text text-anchor="middle" x="1762.5" y="-78.5" font-family="Helvetica,sans-Serif" font-size="10.00">/typed_thread_worker.h</text>
</a>
</g>
</g>
<!-- Node2&#45;&gt;Node25 -->
<g id="edge32_Node000002_Node000025" class="edge">
<title>Node2&#45;&gt;Node25</title>
<g id="a_edge32_Node000002_Node000025"><a xlink:title=" ">
<path fill="none" stroke="#63b8ff" d="M1203.22,-144.21C1206.35,-143.78 1209.45,-143.37 1212.5,-143 1423.1,-117.33 1479.28,-142.18 1688.5,-107 1693.61,-106.14 1698.88,-105.09 1704.14,-103.93"/>
<polygon fill="#63b8ff" stroke="#63b8ff" points="1705.27,-107.26 1714.21,-101.57 1703.68,-100.44 1705.27,-107.26"/>
</a>
</g>
</g>
<!-- Node26 -->
<g id="Node000026" class="node">
<title>Node26</title>
<g id="a_Node000026"><a xlink:title=" ">
<polygon fill="#e0e0e0" stroke="#999999" points="1965,-107 1846,-107 1846,-66 1965,-66 1965,-107"/>
<text text-anchor="start" x="1854" y="-95" font-family="Helvetica,sans-Serif" font-size="10.00">kcenon/thread/impl</text>
<text text-anchor="start" x="1854" y="-84" font-family="Helvetica,sans-Serif" font-size="10.00">/typed_pool/adaptive</text>
<text text-anchor="middle" x="1905.5" y="-73" font-family="Helvetica,sans-Serif" font-size="10.00">_typed_job_queue.h</text>
</a>
</g>
</g>
<!-- Node2&#45;&gt;Node26 -->
<g id="edge33_Node000002_Node000026" class="edge">
<title>Node2&#45;&gt;Node26</title>
<g id="a_edge33_Node000002_Node000026"><a xlink:title=" ">
<path fill="none" stroke="#63b8ff" d="M1203.21,-144.14C1206.34,-143.73 1209.45,-143.34 1212.5,-143 1485.61,-112.19 1561.36,-152.62 1835.71,-107.11"/>
<polygon fill="#63b8ff" stroke="#63b8ff" points="1836.69,-110.49 1845.97,-105.38 1835.53,-103.59 1836.69,-110.49"/>
</a>
</g>
</g>
<!-- Node4 -->
<g id="Node000004" class="node">
<title>Node4</title>
<g id="a_Node000004"><a xlink:title=" ">
<polygon fill="#e0e0e0" stroke="#999999" points="133,-30 0,-30 0,0 133,0 133,-30"/>
<text text-anchor="start" x="8" y="-18" font-family="Helvetica,sans-Serif" font-size="10.00">kcenon/thread/impl</text>
<text text-anchor="middle" x="66.5" y="-7" font-family="Helvetica,sans-Serif" font-size="10.00">/typed_pool/job_types.h</text>
</a>
</g>
</g>
<!-- Node3&#45;&gt;Node4 -->
<g id="edge3_Node000003_Node000004" class="edge">
<title>Node3&#45;&gt;Node4</title>
<g id="a_edge3_Node000003_Node000004"><a xlink:title=" ">
<path fill="none" stroke="#63b8ff" d="M211.27,-76.98C185.97,-66.32 142,-47.8 109.13,-33.96"/>
<polygon fill="#63b8ff" stroke="#63b8ff" points="110.33,-30.66 99.75,-30.01 107.61,-37.11 110.33,-30.66"/>
</a>
</g>
</g>
<!-- Node5&#45;&gt;Node6 -->
<g id="edge5_Node000005_Node000006" class="edge">
<title>Node5&#45;&gt;Node6</title>
<g id="a_edge5_Node000005_Node000006"><a xlink:title=" ">
<path fill="none" stroke="#63b8ff" d="M1172.88,-76.98C1181.06,-66.04 1195.46,-46.8 1205.89,-32.85"/>
<polygon fill="#63b8ff" stroke="#63b8ff" points="1208.88,-34.7 1212.07,-24.59 1203.28,-30.5 1208.88,-34.7"/>
</a>
</g>
</g>
<!-- Node5&#45;&gt;Node7 -->
<g id="edge6_Node000005_Node000007" class="edge">
<title>Node5&#45;&gt;Node7</title>
<g id="a_edge6_Node000005_Node000007"><a xlink:title=" ">
<path fill="none" stroke="#63b8ff" d="M1156.45,-76.98C1143.04,-65.62 1119.09,-45.32 1102.53,-31.28"/>
<polygon fill="#63b8ff" stroke="#63b8ff" points="1104.53,-28.39 1094.64,-24.59 1100,-33.73 1104.53,-28.39"/>
</a>
</g>
</g>
<!-- Node8 -->
<g id="Node000008" class="node">
<title>Node8</title>
<g id="a_Node000008"><a xlink:title=" ">
<polygon fill="#e0e0e0" stroke="#999999" points="1311.5,-24.5 1261.5,-24.5 1261.5,-5.5 1311.5,-5.5 1311.5,-24.5"/>
<text text-anchor="middle" x="1286.5" y="-12.5" font-family="Helvetica,sans-Serif" font-size="10.00">cstdint</text>
</a>
</g>
</g>
<!-- Node5&#45;&gt;Node8 -->
<g id="edge7_Node000005_Node000008" class="edge">
<title>Node5&#45;&gt;Node8</title>
<g id="a_edge7_Node000005_Node000008"><a xlink:title=" ">
<path fill="none" stroke="#63b8ff" d="M1181.21,-76.98C1201.55,-65.2 1238.47,-43.82 1262.74,-29.76"/>
<polygon fill="#63b8ff" stroke="#63b8ff" points="1264.77,-32.63 1271.67,-24.59 1261.26,-26.57 1264.77,-32.63"/>
</a>
</g>
</g>
<!-- Node9 -->
<g id="Node000009" class="node">
<title>Node9</title>
<g id="a_Node000009"><a xlink:title=" ">
<polygon fill="#e0e0e0" stroke="#999999" points="1367.5,-24.5 1329.5,-24.5 1329.5,-5.5 1367.5,-5.5 1367.5,-24.5"/>
<text text-anchor="middle" x="1348.5" y="-12.5" font-family="Helvetica,sans-Serif" font-size="10.00">map</text>
</a>
</g>
</g>
<!-- Node5&#45;&gt;Node9 -->
<g id="edge8_Node000005_Node000009" class="edge">
<title>Node5&#45;&gt;Node9</title>
<g id="a_edge8_Node000005_Node000009"><a xlink:title=" ">
<path fill="none" stroke="#63b8ff" d="M1190.16,-76.95C1199.59,-73.54 1210.56,-69.58 1220.5,-66 1264.94,-49.98 1277.08,-48.59 1320.5,-30 1321.33,-29.64 1322.17,-29.28 1323.02,-28.9"/>
<polygon fill="#63b8ff" stroke="#63b8ff" points="1324.52,-32.06 1332.07,-24.62 1321.53,-25.73 1324.52,-32.06"/>
</a>
</g>
</g>
<!-- Node10 -->
<g id="Node000010" class="node">
<title>Node10</title>
<g id="a_Node000010"><a xlink:title=" ">
<polygon fill="#e0e0e0" stroke="#999999" points="1175.5,-24.5 1127.5,-24.5 1127.5,-5.5 1175.5,-5.5 1175.5,-24.5"/>
<text text-anchor="middle" x="1151.5" y="-12.5" font-family="Helvetica,sans-Serif" font-size="10.00">mutex</text>
</a>
</g>
</g>
<!-- Node5&#45;&gt;Node10 -->
<g id="edge9_Node000005_Node000010" class="edge">
<title>Node5&#45;&gt;Node10</title>
<g id="a_edge9_Node000005_Node000010"><a xlink:title=" ">
<path fill="none" stroke="#63b8ff" d="M1164.66,-76.98C1162.39,-66.45 1158.46,-48.25 1155.49,-34.47"/>
<polygon fill="#63b8ff" stroke="#63b8ff" points="1158.89,-33.63 1153.35,-24.59 1152.04,-35.11 1158.89,-33.63"/>
</a>
</g>
</g>
<!-- Node11 -->
<g id="Node000011" class="node">
<title>Node11</title>
<g id="a_Node000011"><a xlink:title=" ">
<polygon fill="#e0e0e0" stroke="#999999" points="1429.5,-24.5 1385.5,-24.5 1385.5,-5.5 1429.5,-5.5 1429.5,-24.5"/>
<text text-anchor="middle" x="1407.5" y="-12.5" font-family="Helvetica,sans-Serif" font-size="10.00">string</text>
</a>
</g>
</g>
<!-- Node5&#45;&gt;Node11 -->
<g id="edge10_Node000005_Node000011" class="edge">
<title>Node5&#45;&gt;Node11</title>
<g id="a_edge10_Node000005_Node000011"><a xlink:title=" ">
<path fill="none" stroke="#63b8ff" d="M1188.37,-76.93C1198.12,-73.28 1209.79,-69.16 1220.5,-66 1288.75,-45.88 1309.08,-52.75 1376.5,-30 1377.9,-29.53 1379.32,-29.01 1380.75,-28.47"/>
<polygon fill="#63b8ff" stroke="#63b8ff" points="1382.15,-31.68 1390.04,-24.61 1379.46,-25.22 1382.15,-31.68"/>
</a>
</g>
</g>
<!-- Node16&#45;&gt;Node6 -->
<g id="edge21_Node000016_Node000006" class="edge">
<title>Node16&#45;&gt;Node6</title>
<g id="a_edge21_Node000016_Node000006"><a xlink:title=" ">
<path fill="none" stroke="#63b8ff" d="M936.23,-78.9C997.83,-70.79 1099.56,-54.94 1184.5,-30 1186.38,-29.45 1188.3,-28.82 1190.23,-28.16"/>
<polygon fill="#63b8ff" stroke="#63b8ff" points="1191.58,-31.39 1199.69,-24.57 1189.1,-24.84 1191.58,-31.39"/>
</a>
</g>
</g>
<!-- Node16&#45;&gt;Node7 -->
<g id="edge22_Node000016_Node000007" class="edge">
<title>Node16&#45;&gt;Node7</title>
<g id="a_edge22_Node000016_Node000007"><a xlink:title=" ">
<path fill="none" stroke="#63b8ff" d="M909,-76.91C942.95,-66.52 1001.27,-48.14 1050.5,-30 1051.92,-29.48 1053.37,-28.93 1054.84,-28.37"/>
<polygon fill="#63b8ff" stroke="#63b8ff" points="1056.46,-31.49 1064.46,-24.54 1053.88,-24.98 1056.46,-31.49"/>
</a>
</g>
</g>
<!-- Node16&#45;&gt;Node10 -->
<g id="edge26_Node000016_Node000010" class="edge">
<title>Node16&#45;&gt;Node10</title>
<g id="a_edge26_Node000016_Node000010"><a xlink:title=" ">
<path fill="none" stroke="#63b8ff" d="M927.67,-76.99C976.16,-67.67 1053.56,-51.17 1118.5,-30 1120.13,-29.47 1121.79,-28.89 1123.45,-28.28"/>
<polygon fill="#63b8ff" stroke="#63b8ff" points="1124.85,-31.49 1132.87,-24.56 1122.28,-24.98 1124.85,-31.49"/>
</a>
</g>
</g>
<!-- Node16&#45;&gt;Node12 -->
<g id="edge24_Node000016_Node000012" class="edge">
<title>Node16&#45;&gt;Node12</title>
<g id="a_edge24_Node000016_Node000012"><a xlink:title=" ">
<path fill="none" stroke="#63b8ff" d="M824.97,-80.76C778.6,-76.8 710.74,-71.02 651.5,-66 461.73,-49.92 410.9,-69.06 224.5,-30 221.43,-29.36 218.28,-28.55 215.15,-27.66"/>
<polygon fill="#63b8ff" stroke="#63b8ff" points="215.94,-24.24 205.35,-24.57 213.84,-30.91 215.94,-24.24"/>
</a>
</g>
</g>
<!-- Node16&#45;&gt;Node14 -->
<g id="edge25_Node000016_Node000014" class="edge">
<title>Node16&#45;&gt;Node14</title>
<g id="a_edge25_Node000016_Node000014"><a xlink:title=" ">
<path fill="none" stroke="#63b8ff" d="M888.59,-76.98C899.18,-65.83 917.95,-46.06 931.25,-32.06"/>
<polygon fill="#63b8ff" stroke="#63b8ff" points="933.99,-34.25 938.34,-24.59 928.92,-29.43 933.99,-34.25"/>
</a>
</g>
</g>
<!-- Node16&#45;&gt;Node15 -->
<g id="edge28_Node000016_Node000015" class="edge">
<title>Node16&#45;&gt;Node15</title>
<g id="a_edge28_Node000016_Node000015"><a xlink:title=" ">
<path fill="none" stroke="#63b8ff" d="M897.3,-76.98C920.82,-65.05 963.78,-43.25 991.47,-29.21"/>
<polygon fill="#63b8ff" stroke="#63b8ff" points="993.23,-32.24 1000.56,-24.59 990.06,-25.99 993.23,-32.24"/>
</a>
</g>
</g>
<!-- Node17 -->
<g id="Node000017" class="node">
<title>Node17</title>
<g id="a_Node000017"><a xlink:title=" ">
<polygon fill="#e0e0e0" stroke="#999999" points="381,-24.5 234,-24.5 234,-5.5 381,-5.5 381,-24.5"/>
<text text-anchor="middle" x="307.5" y="-12.5" font-family="Helvetica,sans-Serif" font-size="10.00">database/database_base.h</text>
</a>
</g>
</g>
<!-- Node16&#45;&gt;Node17 -->
<g id="edge18_Node000016_Node000017" class="edge">
<title>Node16&#45;&gt;Node17</title>
<g id="a_edge18_Node000016_Node000017"><a xlink:title=" ">
<path fill="none" stroke="#63b8ff" d="M824.78,-80.24C733.58,-71.39 546.85,-52.31 389.5,-30 381.47,-28.86 373.02,-27.55 364.71,-26.19"/>
<polygon fill="#63b8ff" stroke="#63b8ff" points="365.13,-22.71 354.69,-24.53 363.98,-29.62 365.13,-22.71"/>
</a>
</g>
</g>
<!-- Node18 -->
<g id="Node000018" class="node">
<title>Node18</title>
<g id="a_Node000018"><a xlink:title=" ">
<polygon fill="#e0e0e0" stroke="#999999" points="550,-24.5 399,-24.5 399,-5.5 550,-5.5 550,-24.5"/>
<text text-anchor="middle" x="474.5" y="-12.5" font-family="Helvetica,sans-Serif" font-size="10.00">database/database_types.h</text>
</a>
</g>
</g>
<!-- Node16&#45;&gt;Node18 -->
<g id="edge19_Node000016_Node000018" class="edge">
<title>Node16&#45;&gt;Node18</title>
<g id="a_edge19_Node000016_Node000018"><a xlink:title=" ">
<path fill="none" stroke="#63b8ff" d="M830.72,-76.98C755.89,-64.17 614.66,-39.99 534.33,-26.24"/>
<polygon fill="#63b8ff" stroke="#63b8ff" points="534.82,-22.77 524.37,-24.54 533.64,-29.67 534.82,-22.77"/>
</a>
</g>
</g>
<!-- Node19 -->
<g id="Node000019" class="node">
<title>Node19</title>
<g id="a_Node000019"><a xlink:title=" ">
<polygon fill="#e0e0e0" stroke="#999999" points="709,-30 568,-30 568,0 709,0 709,-30"/>
<text text-anchor="start" x="576" y="-18" font-family="Helvetica,sans-Serif" font-size="10.00">kcenon/common/patterns</text>
<text text-anchor="middle" x="638.5" y="-7" font-family="Helvetica,sans-Serif" font-size="10.00">/result.h</text>
</a>
</g>
</g>
<!-- Node16&#45;&gt;Node19 -->
<g id="edge20_Node000016_Node000019" class="edge">
<title>Node16&#45;&gt;Node19</title>
<g id="a_edge20_Node000016_Node000019"><a xlink:title=" ">
<path fill="none" stroke="#63b8ff" d="M850.83,-76.98C812.69,-66.02 745.61,-46.76 697.03,-32.81"/>
<polygon fill="#63b8ff" stroke="#63b8ff" points="697.85,-29.4 687.27,-30.01 695.92,-36.13 697.85,-29.4"/>
</a>
</g>
</g>
<!-- Node20 -->
<g id="Node000020" class="node">
<title>Node20</title>
<g id="a_Node000020"><a xlink:title=" ">
<polygon fill="#e0e0e0" stroke="#999999" points="834,-24.5 727,-24.5 727,-5.5 834,-5.5 834,-24.5"/>
<text text-anchor="middle" x="780.5" y="-12.5" font-family="Helvetica,sans-Serif" font-size="10.00">condition_variable</text>
</a>
</g>
</g>
<!-- Node16&#45;&gt;Node20 -->
<g id="edge23_Node000016_Node000020" class="edge">
<title>Node16&#45;&gt;Node20</title>
<g id="a_edge23_Node000016_Node000020"><a xlink:title=" ">
<path fill="none" stroke="#63b8ff" d="M868.24,-76.98C851.52,-65.36 821.34,-44.39 801.11,-30.33"/>
<polygon fill="#63b8ff" stroke="#63b8ff" points="803.07,-27.42 792.86,-24.59 799.08,-33.17 803.07,-27.42"/>
</a>
</g>
</g>
<!-- Node21 -->
<g id="Node000021" class="node">
<title>Node21</title>
<g id="a_Node000021"><a xlink:title=" ">
<polygon fill="#e0e0e0" stroke="#999999" points="899,-24.5 852,-24.5 852,-5.5 899,-5.5 899,-24.5"/>
<text text-anchor="middle" x="875.5" y="-12.5" font-family="Helvetica,sans-Serif" font-size="10.00">queue</text>
</a>
</g>
</g>
<!-- Node16&#45;&gt;Node21 -->
<g id="edge27_Node000016_Node000021" class="edge">
<title>Node16&#45;&gt;Node21</title>
<g id="a_edge27_Node000016_Node000021"><a xlink:title=" ">
<path fill="none" stroke="#63b8ff" d="M879.89,-76.98C879.14,-66.56 877.85,-48.61 876.86,-34.88"/>
<polygon fill="#63b8ff" stroke="#63b8ff" points="880.33,-34.31 876.12,-24.59 873.34,-34.82 880.33,-34.31"/>
</a>
</g>
</g>
</g>
</svg>
