<?xml version="1.0" encoding="UTF-8" standalone="no"?>
<!DOCTYPE svg PUBLIC "-//W3C//DTD SVG 1.1//EN"
 "http://www.w3.org/Graphics/SVG/1.1/DTD/svg11.dtd">
<!-- Generated by graphviz version 2.43.0 (0)
 -->
<!-- Title: include/kcenon/database_server/pooling/connection_pool.h Pages: 1 -->
<!--zoomable 192 -->

<svg id="main" version="1.1" xmlns="http://www.w3.org/2000/svg" xmlns:xlink="http://www.w3.org/1999/xlink" xml:space="preserve" onload="init(evt)">
<style type="text/css"><![CDATA[
.node, .edge {opacity: 0.7;}
.node.selected, .edge.selected {opacity: 1;}
.edge:hover path { stroke: red; }
.edge:hover polygon { stroke: red; fill: red; }
]]></style>

<defs>
  <circle id="rim" cx="0" cy="0" r="7"/>
  <circle id="rim2" cx="0" cy="0" r="3.5"/>
  <g id="zoomPlus">
    <use xlink:href="#rim" fill="#404040"><set attributeName="fill" to="#808080" begin="zoomplus.mouseover" end="zoomplus.mouseout"/></use>
    <path d="M-4,0h8M0,-4v8" fill="none" stroke="white" stroke-width="1.5" pointer-events="none"/>
  </g>
  <g id="zoomMin">
    <use xlink:href="#rim" fill="#404040"><set attributeName="fill" to="#808080" begin="zoomminus.mouseover" end="zoomminus.mouseout"/></use>
    <path d="M-4,0h8" fill="none" stroke="white" stroke-width="1.5" pointer-events="none"/>
  </g>
  <g id="arrowUp" transform="translate(30 24)">
    <use xlink:href="#rim"/>
    <path pointer-events="none" fill="none" stroke="white" stroke-width="1.5" d="M0,-3.0v7 M-2.5,-0.5L0,-3.0L2.5,-0.5"/>
  </g>
  <g id="arrowRight" transform="rotate(90) translate(36 -43)">
    <use xlink:href="#rim"/>
    <path pointer-events="none" fill="none" stroke="white" stroke-width="1.5" d="M0,-3.0v7 M-2.5,-0.5L0,-3.0L2.5,-0.5"/>
  </g>
  <g id="arrowDown" transform="rotate(180) translate(-30 -48)">
    <use xlink:href="#rim"/>
    <path pointer-events="none" fill="none" stroke="white" stroke-width="1.5" d="M0,-3.0v7 M-2.5,-0.5L0,-3.0L2.5,-0.5"/>
  </g>
  <g id="arrowLeft" transform="rotate(270) translate(-36 17)">
    <use xlink:href="#rim"/>
    <path pointer-events="none" fill="none" stroke="white" stroke-width="1.5" d="M0,-3.0v7 M-2.5,-0.5L0,-3.0L2.5,-0.5"/>
  </g>
  <g id="resetDef">
    <use xlink:href="#rim2" fill="#404040"><set attributeName="fill" to="#808080" begin="reset.mouseover" end="reset.mouseout"/></use>
  </g>
</defs>
<script type="application/ecmascript">
var viewWidth = 1973;
var viewHeight = 192;
var sectionId = 'dynsection-0';
</script>
<script type="application/ecmascript" xlink:href="svg.min.js"/>
<svg id="graph" class="graph">
<g id="viewport">
<title>include/kcenon/database_server/pooling/connection_pool.h</title>
<!-- Node1 -->
<g id="Node000001" class="node">
<title>Node1</title>
<g id="a_Node000001"><a xlink:title="High&#45;performance connection pool with adaptive queue and priority scheduling.">
<polygon fill="#999999" stroke="#666666" points="1203.5,-184 1055.5,-184 1055.5,-143 1203.5,-143 1203.5,-184"/>
<text text-anchor="start" x="1063.5" y="-172" font-family="Helvetica,sans-Serif" font-size="10.00">include/kcenon/database</text>
<text text-anchor="start" x="1063.5" y="-161" font-family="Helvetica,sans-Serif" font-size="10.00">_server/pooling/connection</text>
<text text-anchor="middle" x="1129.5" y="-150" font-family="Helvetica,sans-Serif" font-size="10.00">_pool.h</text>
</a>
</g>
</g>
<!-- Node2 -->
<g id="Node000002" class="node">
<title>Node2</title>
<g id="a_Node000002"><a xlink:href="connection__priority_8h.html" target="_top" xlink:title="Priority levels for connection acquisition requests.">
<polygon fill="white" stroke="#666666" points="290.5,-96 172.5,-96 172.5,-77 290.5,-77 290.5,-96"/>
<text text-anchor="middle" x="231.5" y="-84" font-family="Helvetica,sans-Serif" font-size="10.00">connection_priority.h</text>
</a>
</g>
</g>
<!-- Node1&#45;&gt;Node2 -->
<g id="edge1_Node000001_Node000002" class="edge">
<title>Node1&#45;&gt;Node2</title>
<g id="a_edge1_Node000001_Node000002"><a xlink:title=" ">
<path fill="none" stroke="#63b8ff" d="M1055.25,-156.3C884.54,-142.04 466.13,-107.1 300.57,-93.27"/>
<polygon fill="#63b8ff" stroke="#63b8ff" points="300.76,-89.77 290.5,-92.43 300.18,-96.75 300.76,-89.77"/>
</a>
</g>
</g>
<!-- Node4 -->
<g id="Node000004" class="node">
<title>Node4</title>
<g id="a_Node000004"><a xlink:href="pool__metrics_8h.html" target="_top" xlink:title="Performance metrics for connection pools.">
<polygon fill="white" stroke="#666666" points="1211,-96 1122,-96 1122,-77 1211,-77 1211,-96"/>
<text text-anchor="middle" x="1166.5" y="-84" font-family="Helvetica,sans-Serif" font-size="10.00">pool_metrics.h</text>
</a>
</g>
</g>
<!-- Node1&#45;&gt;Node4 -->
<g id="edge3_Node000001_Node000004" class="edge">
<title>Node1&#45;&gt;Node4</title>
<g id="a_edge3_Node000001_Node000004"><a xlink:title=" ">
<path fill="none" stroke="#63b8ff" d="M1139.22,-142.79C1144.93,-131.23 1152.08,-116.73 1157.63,-105.48"/>
<polygon fill="#63b8ff" stroke="#63b8ff" points="1160.9,-106.75 1162.19,-96.24 1154.63,-103.66 1160.9,-106.75"/>
</a>
</g>
</g>
<!-- Node5 -->
<g id="Node000005" class="node">
<title>Node5</title>
<g id="a_Node000005"><a xlink:title=" ">
<polygon fill="#e0e0e0" stroke="#999999" points="1243.5,-24.5 1193.5,-24.5 1193.5,-5.5 1243.5,-5.5 1243.5,-24.5"/>
<text text-anchor="middle" x="1218.5" y="-12.5" font-family="Helvetica,sans-Serif" font-size="10.00">atomic</text>
</a>
</g>
</g>
<!-- Node1&#45;&gt;Node5 -->
<g id="edge10_Node000001_Node000005" class="edge">
<title>Node1&#45;&gt;Node5</title>
<g id="a_edge10_Node000001_Node000005"><a xlink:title=" ">
<path fill="none" stroke="#63b8ff" d="M1118.85,-142.81C1109.25,-122.13 1098.72,-89.41 1113.5,-66 1117.86,-59.1 1158.61,-40.96 1188.04,-28.54"/>
<polygon fill="#63b8ff" stroke="#63b8ff" points="1189.64,-31.66 1197.51,-24.57 1186.94,-25.21 1189.64,-31.66"/>
</a>
</g>
</g>
<!-- Node6 -->
<g id="Node000006" class="node">
<title>Node6</title>
<g id="a_Node000006"><a xlink:title=" ">
<polygon fill="#e0e0e0" stroke="#999999" points="1109.5,-24.5 1059.5,-24.5 1059.5,-5.5 1109.5,-5.5 1109.5,-24.5"/>
<text text-anchor="middle" x="1084.5" y="-12.5" font-family="Helvetica,sans-Serif" font-size="10.00">chrono</text>
</a>
</g>
</g>
<!-- Node1&#45;&gt;Node6 -->
<g id="edge11_Node000001_Node000006" class="edge">
<title>Node1&#45;&gt;Node6</title>
<g id="a_edge11_Node000001_Node000006"><a xlink:title=" ">
<path fill="none" stroke="#63b8ff" d="M1105.31,-142.96C1095.3,-133.32 1084.8,-120.8 1079.5,-107 1070.35,-83.17 1074.72,-53.23 1079.2,-34.35"/>
<polygon fill="#63b8ff" stroke="#63b8ff" points="1082.6,-35.2 1081.75,-24.64 1075.83,-33.42 1082.6,-35.2"/>
</a>
</g>
</g>
<!-- Node11 -->
<g id="Node000011" class="node">
<title>Node11</title>
<g id="a_Node000011"><a xlink:title=" ">
<polygon fill="#e0e0e0" stroke="#999999" points="216,-24.5 151,-24.5 151,-5.5 216,-5.5 216,-24.5"/>
<text text-anchor="middle" x="183.5" y="-12.5" font-family="Helvetica,sans-Serif" font-size="10.00">functional</text>
</a>
</g>
</g>
<!-- Node1&#45;&gt;Node11 -->
<g id="edge12_Node000001_Node000011" class="edge">
<title>Node1&#45;&gt;Node11</title>
<g id="a_edge12_Node000001_Node000011"><a xlink:title=" ">
<path fill="none" stroke="#63b8ff" d="M1055.31,-156.29C899.63,-142.25 528.18,-103.42 224.5,-30 221.69,-29.32 218.8,-28.53 215.92,-27.68"/>
<polygon fill="#63b8ff" stroke="#63b8ff" points="216.86,-24.3 206.27,-24.6 214.73,-30.97 216.86,-24.3"/>
</a>
</g>
</g>
<!-- Node12 -->
<g id="Node000012" class="node">
<title>Node12</title>
<g id="a_Node000012"><a xlink:title=" ">
<polygon fill="#e0e0e0" stroke="#999999" points="1275.5,-96 1229.5,-96 1229.5,-77 1275.5,-77 1275.5,-96"/>
<text text-anchor="middle" x="1252.5" y="-84" font-family="Helvetica,sans-Serif" font-size="10.00">future</text>
</a>
</g>
</g>
<!-- Node1&#45;&gt;Node12 -->
<g id="edge13_Node000001_Node000012" class="edge">
<title>Node1&#45;&gt;Node12</title>
<g id="a_edge13_Node000001_Node000012"><a xlink:title=" ">
<path fill="none" stroke="#63b8ff" d="M1161.5,-142.99C1182.91,-129.94 1210.57,-113.07 1229.75,-101.37"/>
<polygon fill="#63b8ff" stroke="#63b8ff" points="1231.7,-104.28 1238.42,-96.09 1228.06,-98.31 1231.7,-104.28"/>
</a>
</g>
</g>
<!-- Node13 -->
<g id="Node000013" class="node">
<title>Node13</title>
<g id="a_Node000013"><a xlink:title=" ">
<polygon fill="#e0e0e0" stroke="#999999" points="975.5,-24.5 917.5,-24.5 917.5,-5.5 975.5,-5.5 975.5,-24.5"/>
<text text-anchor="middle" x="946.5" y="-12.5" font-family="Helvetica,sans-Serif" font-size="10.00">memory</text>
</a>
</g>
</g>
<!-- Node1&#45;&gt;Node13 -->
<g id="edge14_Node000001_Node000013" class="edge">
<title>Node1&#45;&gt;Node13</title>
<g id="a_edge14_Node000001_Node000013"><a xlink:title=" ">
<path fill="none" stroke="#63b8ff" d="M1093.23,-142.98C1076.03,-133.08 1055.55,-120.34 1038.5,-107 1008.6,-83.61 978.08,-51.45 960.8,-32.28"/>
<polygon fill="#63b8ff" stroke="#63b8ff" points="963.3,-29.84 954.03,-24.7 958.08,-34.5 963.3,-29.84"/>
</a>
</g>
</g>
<!-- Node14 -->
<g id="Node000014" class="node">
<title>Node14</title>
<g id="a_Node000014"><a xlink:title=" ">
<polygon fill="#e0e0e0" stroke="#999999" points="1041.5,-24.5 993.5,-24.5 993.5,-5.5 1041.5,-5.5 1041.5,-24.5"/>
<text text-anchor="middle" x="1017.5" y="-12.5" font-family="Helvetica,sans-Serif" font-size="10.00">thread</text>
</a>
</g>
</g>
<!-- Node1&#45;&gt;Node14 -->
<g id="edge15_Node000001_Node000014" class="edge">
<title>Node1&#45;&gt;Node14</title>
<g id="a_edge15_Node000001_Node000014"><a xlink:title=" ">
<path fill="none" stroke="#63b8ff" d="M1105.08,-142.93C1093.48,-132.92 1079.92,-120.11 1069.5,-107 1050.96,-83.69 1034.87,-52.98 1025.68,-33.87"/>
<polygon fill="#63b8ff" stroke="#63b8ff" points="1028.73,-32.13 1021.31,-24.57 1022.39,-35.1 1028.73,-32.13"/>
</a>
</g>
</g>
<!-- Node15 -->
<g id="Node000015" class="node">
<title>Node15</title>
<g id="a_Node000015"><a xlink:href="connection__types_8h.html" target="_top" xlink:title="Connection pool types for database_server middleware.">
<polygon fill="white" stroke="#666666" points="936,-96 825,-96 825,-77 936,-77 936,-96"/>
<text text-anchor="middle" x="880.5" y="-84" font-family="Helvetica,sans-Serif" font-size="10.00">connection_types.h</text>
</a>
</g>
</g>
<!-- Node1&#45;&gt;Node15 -->
<g id="edge16_Node000001_Node000015" class="edge">
<title>Node1&#45;&gt;Node15</title>
<g id="a_edge16_Node000001_Node000015"><a xlink:title=" ">
<path fill="none" stroke="#63b8ff" d="M1064.73,-142.99C1018.43,-129.05 957.69,-110.75 918.87,-99.06"/>
<polygon fill="#63b8ff" stroke="#63b8ff" points="919.6,-95.62 909.01,-96.09 917.58,-102.32 919.6,-95.62"/>
</a>
</g>
</g>
<!-- Node21 -->
<g id="Node000021" class="node">
<title>Node21</title>
<g id="a_Node000021"><a xlink:title=" ">
<polygon fill="#e0e0e0" stroke="#999999" points="1413.5,-101.5 1293.5,-101.5 1293.5,-71.5 1413.5,-71.5 1413.5,-101.5"/>
<text text-anchor="start" x="1301.5" y="-89.5" font-family="Helvetica,sans-Serif" font-size="10.00">kcenon/thread/core</text>
<text text-anchor="middle" x="1353.5" y="-78.5" font-family="Helvetica,sans-Serif" font-size="10.00">/cancellation_token.h</text>
</a>
</g>
</g>
<!-- Node1&#45;&gt;Node21 -->
<g id="edge28_Node000001_Node000021" class="edge">
<title>Node1&#45;&gt;Node21</title>
<g id="a_edge28_Node000001_Node000021"><a xlink:title=" ">
<path fill="none" stroke="#63b8ff" d="M1187.77,-142.99C1223.05,-131.18 1267.64,-116.25 1301.69,-104.85"/>
<polygon fill="#63b8ff" stroke="#63b8ff" points="1303.07,-108.08 1311.44,-101.58 1300.85,-101.44 1303.07,-108.08"/>
</a>
</g>
</g>
<!-- Node22 -->
<g id="Node000022" class="node">
<title>Node22</title>
<g id="a_Node000022"><a xlink:title=" ">
<polygon fill="#e0e0e0" stroke="#999999" points="1541.5,-101.5 1431.5,-101.5 1431.5,-71.5 1541.5,-71.5 1541.5,-101.5"/>
<text text-anchor="start" x="1439.5" y="-89.5" font-family="Helvetica,sans-Serif" font-size="10.00">kcenon/thread/core</text>
<text text-anchor="middle" x="1486.5" y="-78.5" font-family="Helvetica,sans-Serif" font-size="10.00">/error_handling.h</text>
</a>
</g>
</g>
<!-- Node1&#45;&gt;Node22 -->
<g id="edge29_Node000001_Node000022" class="edge">
<title>Node1&#45;&gt;Node22</title>
<g id="a_edge29_Node000001_Node000022"><a xlink:title=" ">
<path fill="none" stroke="#63b8ff" d="M1203.73,-150.73C1263.25,-140.74 1348.73,-125.17 1422.5,-107 1425.87,-106.17 1429.33,-105.27 1432.81,-104.32"/>
<polygon fill="#63b8ff" stroke="#63b8ff" points="1433.93,-107.64 1442.61,-101.56 1432.03,-100.9 1433.93,-107.64"/>
</a>
</g>
</g>
<!-- Node23 -->
<g id="Node000023" class="node">
<title>Node23</title>
<g id="a_Node000023"><a xlink:title=" ">
<polygon fill="#e0e0e0" stroke="#999999" points="1679,-101.5 1560,-101.5 1560,-71.5 1679,-71.5 1679,-101.5"/>
<text text-anchor="start" x="1568" y="-89.5" font-family="Helvetica,sans-Serif" font-size="10.00">kcenon/thread/core</text>
<text text-anchor="middle" x="1619.5" y="-78.5" font-family="Helvetica,sans-Serif" font-size="10.00">/typed_thread_pool.h</text>
</a>
</g>
</g>
<!-- Node1&#45;&gt;Node23 -->
<g id="edge30_Node000001_Node000023" class="edge">
<title>Node1&#45;&gt;Node23</title>
<g id="a_edge30_Node000001_Node000023"><a xlink:title=" ">
<path fill="none" stroke="#63b8ff" d="M1203.81,-155.98C1288.35,-147.8 1430.28,-131.78 1550.5,-107 1554.68,-106.14 1558.98,-105.16 1563.3,-104.1"/>
<polygon fill="#63b8ff" stroke="#63b8ff" points="1564.51,-107.41 1573.33,-101.54 1562.78,-100.62 1564.51,-107.41"/>
</a>
</g>
</g>
<!-- Node24 -->
<g id="Node000024" class="node">
<title>Node24</title>
<g id="a_Node000024"><a xlink:title=" ">
<polygon fill="#e0e0e0" stroke="#999999" points="1828,-101.5 1697,-101.5 1697,-71.5 1828,-71.5 1828,-101.5"/>
<text text-anchor="start" x="1705" y="-89.5" font-family="Helvetica,sans-Serif" font-size="10.00">kcenon/thread/core</text>
<text text-anchor="middle" x="1762.5" y="-78.5" font-family="Helvetica,sans-Serif" font-size="10.00">/typed_thread_worker.h</text>
</a>
</g>
</g>
<!-- Node1&#45;&gt;Node24 -->
<g id="edge31_Node000001_Node000024" class="edge">
<title>Node1&#45;&gt;Node24</title>
<g id="a_edge31_Node000001_Node000024"><a xlink:title=" ">
<path fill="none" stroke="#63b8ff" d="M1203.72,-158.89C1311.28,-152.8 1516.46,-138.01 1688.5,-107 1693.52,-106.1 1698.7,-105.02 1703.87,-103.85"/>
<polygon fill="#63b8ff" stroke="#63b8ff" points="1704.86,-107.22 1713.78,-101.51 1703.25,-100.41 1704.86,-107.22"/>
</a>
</g>
</g>
<!-- Node25 -->
<g id="Node000025" class="node">
<title>Node25</title>
<g id="a_Node000025"><a xlink:title=" ">
<polygon fill="#e0e0e0" stroke="#999999" points="1965,-107 1846,-107 1846,-66 1965,-66 1965,-107"/>
<text text-anchor="start" x="1854" y="-95" font-family="Helvetica,sans-Serif" font-size="10.00">kcenon/thread/impl</text>
<text text-anchor="start" x="1854" y="-84" font-family="Helvetica,sans-Serif" font-size="10.00">/typed_pool/adaptive</text>
<text text-anchor="middle" x="1905.5" y="-73" font-family="Helvetica,sans-Serif" font-size="10.00">_typed_job_queue.h</text>
</a>
</g>
</g>
<!-- Node1&#45;&gt;Node25 -->
<g id="edge32_Node000001_Node000025" class="edge">
<title>Node1&#45;&gt;Node25</title>
<g id="a_edge32_Node000001_Node000025"><a xlink:title=" ">
<path fill="none" stroke="#63b8ff" d="M1203.51,-161.58C1331.2,-158.92 1601.01,-148.62 1835.86,-107.12"/>
<polygon fill="#63b8ff" stroke="#63b8ff" points="1836.73,-110.52 1845.96,-105.31 1835.5,-103.63 1836.73,-110.52"/>
</a>
</g>
</g>
<!-- Node3 -->
<g id="Node000003" class="node">
<title>Node3</title>
<g id="a_Node000003"><a xlink:title=" ">
<polygon fill="#e0e0e0" stroke="#999999" points="133,-30 0,-30 0,0 133,0 133,-30"/>
<text text-anchor="start" x="8" y="-18" font-family="Helvetica,sans-Serif" font-size="10.00">kcenon/thread/impl</text>
<text text-anchor="middle" x="66.5" y="-7" font-family="Helvetica,sans-Serif" font-size="10.00">/typed_pool/job_types.h</text>
</a>
</g>
</g>
<!-- Node2&#45;&gt;Node3 -->
<g id="edge2_Node000002_Node000003" class="edge">
<title>Node2&#45;&gt;Node3</title>
<g id="a_edge2_Node000002_Node000003"><a xlink:title=" ">
<path fill="none" stroke="#63b8ff" d="M211.27,-76.98C185.97,-66.32 142,-47.8 109.13,-33.96"/>
<polygon fill="#63b8ff" stroke="#63b8ff" points="110.33,-30.66 99.75,-30.01 107.61,-37.11 110.33,-30.66"/>
</a>
</g>
</g>
<!-- Node4&#45;&gt;Node5 -->
<g id="edge4_Node000004_Node000005" class="edge">
<title>Node4&#45;&gt;Node5</title>
<g id="a_edge4_Node000004_Node000005"><a xlink:title=" ">
<path fill="none" stroke="#63b8ff" d="M1172.88,-76.98C1181.06,-66.04 1195.46,-46.8 1205.89,-32.85"/>
<polygon fill="#63b8ff" stroke="#63b8ff" points="1208.88,-34.7 1212.07,-24.59 1203.28,-30.5 1208.88,-34.7"/>
</a>
</g>
</g>
<!-- Node4&#45;&gt;Node6 -->
<g id="edge5_Node000004_Node000006" class="edge">
<title>Node4&#45;&gt;Node6</title>
<g id="a_edge5_Node000004_Node000006"><a xlink:title=" ">
<path fill="none" stroke="#63b8ff" d="M1156.45,-76.98C1143.04,-65.62 1119.09,-45.32 1102.53,-31.28"/>
<polygon fill="#63b8ff" stroke="#63b8ff" points="1104.53,-28.39 1094.64,-24.59 1100,-33.73 1104.53,-28.39"/>
</a>
</g>
</g>
<!-- Node7 -->
<g id="Node000007" class="node">
<title>Node7</title>
<g id="a_Node000007"><a xlink:title=" ">
<polygon fill="#e0e0e0" stroke="#999999" points="1311.5,-24.5 1261.5,-24.5 1261.5,-5.5 1311.5,-5.5 1311.5,-24.5"/>
<text text-anchor="middle" x="1286.5" y="-12.5" font-family="Helvetica,sans-Serif" font-size="10.00">cstdint</text>
</a>
</g>
</g>
<!-- Node4&#45;&gt;Node7 -->
<g id="edge6_Node000004_Node000007" class="edge">
<title>Node4&#45;&gt;Node7</title>
<g id="a_edge6_Node000004_Node000007"><a xlink:title=" ">
<path fill="none" stroke="#63b8ff" d="M1181.21,-76.98C1201.55,-65.2 1238.47,-43.82 1262.74,-29.76"/>
<polygon fill="#63b8ff" stroke="#63b8ff" points="1264.77,-32.63 1271.67,-24.59 1261.26,-26.57 1264.77,-32.63"/>
</a>
</g>
</g>
<!-- Node8 -->
<g id="Node000008" class="node">
<title>Node8</title>
<g id="a_Node000008"><a xlink:title=" ">
<polygon fill="#e0e0e0" stroke="#999999" points="1367.5,-24.5 1329.5,-24.5 1329.5,-5.5 1367.5,-5.5 1367.5,-24.5"/>
<text text-anchor="middle" x="1348.5" y="-12.5" font-family="Helvetica,sans-Serif" font-size="10.00">map</text>
</a>
</g>
</g>
<!-- Node4&#45;&gt;Node8 -->
<g id="edge7_Node000004_Node000008" class="edge">
<title>Node4&#45;&gt;Node8</title>
<g id="a_edge7_Node000004_Node000008"><a xlink:title=" ">
<path fill="none" stroke="#63b8ff" d="M1190.16,-76.95C1199.59,-73.54 1210.56,-69.58 1220.5,-66 1264.94,-49.98 1277.08,-48.59 1320.5,-30 1321.33,-29.64 1322.17,-29.28 1323.02,-28.9"/>
<polygon fill="#63b8ff" stroke="#63b8ff" points="1324.52,-32.06 1332.07,-24.62 1321.53,-25.73 1324.52,-32.06"/>
</a>
</g>
</g>
<!-- Node9 -->
<g id="Node000009" class="node">
<title>Node9</title>
<g id="a_Node000009"><a xlink:title=" ">
<polygon fill="#e0e0e0" stroke="#999999" points="1175.5,-24.5 1127.5,-24.5 1127.5,-5.5 1175.5,-5.5 1175.5,-24.5"/>
<text text-anchor="middle" x="1151.5" y="-12.5" font-family="Helvetica,sans-Serif" font-size="10.00">mutex</text>
</a>
</g>
</g>
<!-- Node4&#45;&gt;Node9 -->
<g id="edge8_Node000004_Node000009" class="edge">
<title>Node4&#45;&gt;Node9</title>
<g id="a_edge8_Node000004_Node000009"><a xlink:title=" ">
<path fill="none" stroke="#63b8ff" d="M1164.66,-76.98C1162.39,-66.45 1158.46,-48.25 1155.49,-34.47"/>
<polygon fill="#63b8ff" stroke="#63b8ff" points="1158.89,-33.63 1153.35,-24.59 1152.04,-35.11 1158.89,-33.63"/>
</a>
</g>
</g>
<!-- Node10 -->
<g id="Node000010" class="node">
<title>Node10</title>
<g id="a_Node000010"><a xlink:title=" ">
<polygon fill="#e0e0e0" stroke="#999999" points="1429.5,-24.5 1385.5,-24.5 1385.5,-5.5 1429.5,-5.5 1429.5,-24.5"/>
<text text-anchor="middle" x="1407.5" y="-12.5" font-family="Helvetica,sans-Serif" font-size="10.00">string</text>
</a>
</g>
</g>
<!-- Node4&#45;&gt;Node10 -->
<g id="edge9_Node000004_Node000010" class="edge">
<title>Node4&#45;&gt;Node10</title>
<g id="a_edge9_Node000004_Node000010"><a xlink:title=" ">
<path fill="none" stroke="#63b8ff" d="M1188.37,-76.93C1198.12,-73.28 1209.79,-69.16 1220.5,-66 1288.75,-45.88 1309.08,-52.75 1376.5,-30 1377.9,-29.53 1379.32,-29.01 1380.75,-28.47"/>
<polygon fill="#63b8ff" stroke="#63b8ff" points="1382.15,-31.68 1390.04,-24.61 1379.46,-25.22 1382.15,-31.68"/>
</a>
</g>
</g>
<!-- Node15&#45;&gt;Node5 -->
<g id="edge20_Node000015_Node000005" class="edge">
<title>Node15&#45;&gt;Node5</title>
<g id="a_edge20_Node000015_Node000005"><a xlink:title=" ">
<path fill="none" stroke="#63b8ff" d="M936.23,-78.9C997.83,-70.79 1099.56,-54.94 1184.5,-30 1186.38,-29.45 1188.3,-28.82 1190.23,-28.16"/>
<polygon fill="#63b8ff" stroke="#63b8ff" points="1191.58,-31.39 1199.69,-24.57 1189.1,-24.84 1191.58,-31.39"/>
</a>
</g>
</g>
<!-- Node15&#45;&gt;Node6 -->
<g id="edge21_Node000015_Node000006" class="edge">
<title>Node15&#45;&gt;Node6</title>
<g id="a_edge21_Node000015_Node000006"><a xlink:title=" ">
<path fill="none" stroke="#63b8ff" d="M909,-76.91C942.95,-66.52 1001.27,-48.14 1050.5,-30 1051.92,-29.48 1053.37,-28.93 1054.84,-28.37"/>
<polygon fill="#63b8ff" stroke="#63b8ff" points="1056.46,-31.49 1064.46,-24.54 1053.88,-24.98 1056.46,-31.49"/>
</a>
</g>
</g>
<!-- Node15&#45;&gt;Node9 -->
<g id="edge25_Node000015_Node000009" class="edge">
<title>Node15&#45;&gt;Node9</title>
<g id="a_edge25_Node000015_Node000009"><a xlink:title=" ">
<path fill="none" stroke="#63b8ff" d="M927.67,-76.99C976.16,-67.67 1053.56,-51.17 1118.5,-30 1120.13,-29.47 1121.79,-28.89 1123.45,-28.28"/>
<polygon fill="#63b8ff" stroke="#63b8ff" points="1124.85,-31.49 1132.87,-24.56 1122.28,-24.98 1124.85,-31.49"/>
</a>
</g>
</g>
<!-- Node15&#45;&gt;Node11 -->
<g id="edge23_Node000015_Node000011" class="edge">
<title>Node15&#45;&gt;Node11</title>
<g id="a_edge23_Node000015_Node000011"><a xlink:title=" ">
<path fill="none" stroke="#63b8ff" d="M824.97,-80.76C778.6,-76.8 710.74,-71.02 651.5,-66 461.73,-49.92 410.9,-69.06 224.5,-30 221.43,-29.36 218.28,-28.55 215.15,-27.66"/>
<polygon fill="#63b8ff" stroke="#63b8ff" points="215.94,-24.24 205.35,-24.57 213.84,-30.91 215.94,-24.24"/>
</a>
</g>
</g>
<!-- Node15&#45;&gt;Node13 -->
<g id="edge24_Node000015_Node000013" class="edge">
<title>Node15&#45;&gt;Node13</title>
<g id="a_edge24_Node000015_Node000013"><a xlink:title=" ">
<path fill="none" stroke="#63b8ff" d="M888.59,-76.98C899.18,-65.83 917.95,-46.06 931.25,-32.06"/>
<polygon fill="#63b8ff" stroke="#63b8ff" points="933.99,-34.25 938.34,-24.59 928.92,-29.43 933.99,-34.25"/>
</a>
</g>
</g>
<!-- Node15&#45;&gt;Node14 -->
<g id="edge27_Node000015_Node000014" class="edge">
<title>Node15&#45;&gt;Node14</title>
<g id="a_edge27_Node000015_Node000014"><a xlink:title=" ">
<path fill="none" stroke="#63b8ff" d="M897.3,-76.98C920.82,-65.05 963.78,-43.25 991.47,-29.21"/>
<polygon fill="#63b8ff" stroke="#63b8ff" points="993.23,-32.24 1000.56,-24.59 990.06,-25.99 993.23,-32.24"/>
</a>
</g>
</g>
<!-- Node16 -->
<g id="Node000016" class="node">
<title>Node16</title>
<g id="a_Node000016"><a xlink:title=" ">
<polygon fill="#e0e0e0" stroke="#999999" points="381,-24.5 234,-24.5 234,-5.5 381,-5.5 381,-24.5"/>
<text text-anchor="middle" x="307.5" y="-12.5" font-family="Helvetica,sans-Serif" font-size="10.00">database/database_base.h</text>
</a>
</g>
</g>
<!-- Node15&#45;&gt;Node16 -->
<g id="edge17_Node000015_Node000016" class="edge">
<title>Node15&#45;&gt;Node16</title>
<g id="a_edge17_Node000015_Node000016"><a xlink:title=" ">
<path fill="none" stroke="#63b8ff" d="M824.78,-80.24C733.58,-71.39 546.85,-52.31 389.5,-30 381.47,-28.86 373.02,-27.55 364.71,-26.19"/>
<polygon fill="#63b8ff" stroke="#63b8ff" points="365.13,-22.71 354.69,-24.53 363.98,-29.62 365.13,-22.71"/>
</a>
</g>
</g>
<!-- Node17 -->
<g id="Node000017" class="node">
<title>Node17</title>
<g id="a_Node000017"><a xlink:title=" ">
<polygon fill="#e0e0e0" stroke="#999999" points="550,-24.5 399,-24.5 399,-5.5 550,-5.5 550,-24.5"/>
<text text-anchor="middle" x="474.5" y="-12.5" font-family="Helvetica,sans-Serif" font-size="10.00">database/database_types.h</text>
</a>
</g>
</g>
<!-- Node15&#45;&gt;Node17 -->
<g id="edge18_Node000015_Node000017" class="edge">
<title>Node15&#45;&gt;Node17</title>
<g id="a_edge18_Node000015_Node000017"><a xlink:title=" ">
<path fill="none" stroke="#63b8ff" d="M830.72,-76.98C755.89,-64.17 614.66,-39.99 534.33,-26.24"/>
<polygon fill="#63b8ff" stroke="#63b8ff" points="534.82,-22.77 524.37,-24.54 533.64,-29.67 534.82,-22.77"/>
</a>
</g>
</g>
<!-- Node18 -->
<g id="Node000018" class="node">
<title>Node18</title>
<g id="a_Node000018"><a xlink:title=" ">
<polygon fill="#e0e0e0" stroke="#999999" points="709,-30 568,-30 568,0 709,0 709,-30"/>
<text text-anchor="start" x="576" y="-18" font-family="Helvetica,sans-Serif" font-size="10.00">kcenon/common/patterns</text>
<text text-anchor="middle" x="638.5" y="-7" font-family="Helvetica,sans-Serif" font-size="10.00">/result.h</text>
</a>
</g>
</g>
<!-- Node15&#45;&gt;Node18 -->
<g id="edge19_Node000015_Node000018" class="edge">
<title>Node15&#45;&gt;Node18</title>
<g id="a_edge19_Node000015_Node000018"><a xlink:title=" ">
<path fill="none" stroke="#63b8ff" d="M850.83,-76.98C812.69,-66.02 745.61,-46.76 697.03,-32.81"/>
<polygon fill="#63b8ff" stroke="#63b8ff" points="697.85,-29.4 687.27,-30.01 695.92,-36.13 697.85,-29.4"/>
</a>
</g>
</g>
<!-- Node19 -->
<g id="Node000019" class="node">
<title>Node19</title>
<g id="a_Node000019"><a xlink:title=" ">
<polygon fill="#e0e0e0" stroke="#999999" points="834,-24.5 727,-24.5 727,-5.5 834,-5.5 834,-24.5"/>
<text text-anchor="middle" x="780.5" y="-12.5" font-family="Helvetica,sans-Serif" font-size="10.00">condition_variable</text>
</a>
</g>
</g>
<!-- Node15&#45;&gt;Node19 -->
<g id="edge22_Node000015_Node000019" class="edge">
<title>Node15&#45;&gt;Node19</title>
<g id="a_edge22_Node000015_Node000019"><a xlink:title=" ">
<path fill="none" stroke="#63b8ff" d="M868.24,-76.98C851.52,-65.36 821.34,-44.39 801.11,-30.33"/>
<polygon fill="#63b8ff" stroke="#63b8ff" points="803.07,-27.42 792.86,-24.59 799.08,-33.17 803.07,-27.42"/>
</a>
</g>
</g>
<!-- Node20 -->
<g id="Node000020" class="node">
<title>Node20</title>
<g id="a_Node000020"><a xlink:title=" ">
<polygon fill="#e0e0e0" stroke="#999999" points="899,-24.5 852,-24.5 852,-5.5 899,-5.5 899,-24.5"/>
<text text-anchor="middle" x="875.5" y="-12.5" font-family="Helvetica,sans-Serif" font-size="10.00">queue</text>
</a>
</g>
</g>
<!-- Node15&#45;&gt;Node20 -->
<g id="edge26_Node000015_Node000020" class="edge">
<title>Node15&#45;&gt;Node20</title>
<g id="a_edge26_Node000015_Node000020"><a xlink:title=" ">
<path fill="none" stroke="#63b8ff" d="M879.89,-76.98C879.14,-66.56 877.85,-48.61 876.86,-34.88"/>
<polygon fill="#63b8ff" stroke="#63b8ff" points="880.33,-34.31 876.12,-24.59 873.34,-34.82 880.33,-34.31"/>
</a>
</g>
</g>
</g>
</svg>

<g id="navigator" transform="translate(0 0)" fill="#404254">
  <rect fill="#f2f5e9" fill-opacity="0.5" stroke="#606060" stroke-width=".5" x="0" y="0" width="60" height="60"/>
  <use id="zoomplus" xlink:href="#zoomPlus" x="17" y="9" onmousedown="handleZoom(evt,'in')"/>
  <use id="zoomminus" xlink:href="#zoomMin" x="42" y="9" onmousedown="handleZoom(evt,'out')"/>
  <use id="reset" xlink:href="#resetDef" x="30" y="36" onmousedown="handleReset()"/>
   <use id="arrowup" xlink:href="#arrowUp" x="0" y="0" onmousedown="handlePan(0,-1)"/>
  <use id="arrowright" xlink:href="#arrowRight" x="0" y="0" onmousedown="handlePan(1,0)"/>
  <use id="arrowdown" xlink:href="#arrowDown" x="0" y="0" onmousedown="handlePan(0,1)"/>
  <use id="arrowleft" xlink:href="#arrowLeft" x="0" y="0" onmousedown="handlePan(-1,0)"/>
</g>
<svg viewBox="0 0 15 15" width="100%" height="30px" preserveAspectRatio="xMaxYMin meet">
 <g id="arrow_out" transform="scale(0.3 0.3)">
  <a xlink:href="connection__pool_8h__incl_org.svg" target="_base">
   <rect id="button" ry="5" rx="5" y="6" x="6" height="38" width="38"
        fill="#f2f5e9" fill-opacity="0.5" stroke="#606060" stroke-width="1.0"/>
   <path id="arrow"
     d="M 11.500037,31.436501 C 11.940474,20.09759 22.043105,11.32322 32.158766,21.979434 L 37.068811,17.246167 C 37.068811,17.246167 37.088388,32 37.088388,32 L 22.160133,31.978069 C 22.160133,31.978069 26.997745,27.140456 26.997745,27.140456 C 18.528582,18.264221 13.291696,25.230495 11.500037,31.436501 z"
     style="fill:#404040;"/>
  </a>
 </g>
</svg>

<style type='text/css'>
<![CDATA[
[data-mouse-over-selected='false'] { opacity: 0.7; }
[data-mouse-over-selected='true']  { opacity: 1.0; }
]]>
</style>
<script type="application/ecmascript"><![CDATA[
document.addEventListener('DOMContentLoaded', (event) => {
  highlightEdges();
  highlightAdjacentNodes();
});
]]></script>
</svg>
