<?xml version="1.0" encoding="UTF-8" standalone="no"?>
<!DOCTYPE svg PUBLIC "-//W3C//DTD SVG 1.1//EN"
 "http://www.w3.org/Graphics/SVG/1.1/DTD/svg11.dtd">
<!-- Generated by graphviz version 2.43.0 (0)
 -->
<!-- Title: include/kcenon/database_server/pooling/connection_pool.h Pages: 1 -->
<svg width="536pt" height="258pt"
 viewBox="0.00 0.00 536.44 258.00" xmlns="http://www.w3.org/2000/svg" xmlns:xlink="http://www.w3.org/1999/xlink">
<g id="graph0" class="graph" transform="scale(1 1) rotate(0) translate(4 254)">
<title>include/kcenon/database_server/pooling/connection_pool.h</title>
<!-- Node1 -->
<g id="Node000001" class="node">
<title>Node1</title>
<g id="a_Node000001"><a xlink:title="High&#45;performance connection pool with priority aging and scheduling.">
<polygon fill="#999999" stroke="#666666" points="399.44,-250 251.44,-250 251.44,-209 399.44,-209 399.44,-250"/>
<text text-anchor="start" x="259.44" y="-238" font-family="Helvetica,sans-Serif" font-size="10.00">include/kcenon/database</text>
<text text-anchor="start" x="259.44" y="-227" font-family="Helvetica,sans-Serif" font-size="10.00">_server/pooling/connection</text>
<text text-anchor="middle" x="325.44" y="-216" font-family="Helvetica,sans-Serif" font-size="10.00">_pool.h</text>
</a>
</g>
</g>
<!-- Node2 -->
<g id="Node000002" class="node">
<title>Node2</title>
<g id="a_Node000002"><a xlink:href="query__handlers_8h.html" target="_top" xlink:title="CRTP&#45;based query handlers for database gateway.">
<polygon fill="white" stroke="#666666" points="346.44,-173 208.44,-173 208.44,-132 346.44,-132 346.44,-173"/>
<text text-anchor="start" x="216.44" y="-161" font-family="Helvetica,sans-Serif" font-size="10.00">include/kcenon/database</text>
<text text-anchor="start" x="216.44" y="-150" font-family="Helvetica,sans-Serif" font-size="10.00">_server/gateway/query</text>
<text text-anchor="middle" x="277.44" y="-139" font-family="Helvetica,sans-Serif" font-size="10.00">_handlers.h</text>
</a>
</g>
</g>
<!-- Node1&#45;&gt;Node2 -->
<g id="edge1_Node000001_Node000002" class="edge">
<title>Node1&#45;&gt;Node2</title>
<g id="a_edge1_Node000001_Node000002"><a xlink:title=" ">
<path fill="none" stroke="#63b8ff" d="M307.27,-200.11C301.5,-191.09 295.25,-181.33 289.96,-173.07"/>
<polygon fill="#63b8ff" stroke="#63b8ff" points="304.49,-202.26 312.83,-208.79 310.38,-198.49 304.49,-202.26"/>
</a>
</g>
</g>
<!-- Node4 -->
<g id="Node000004" class="node">
<title>Node4</title>
<g id="a_Node000004"><a xlink:href="server__app_8cpp.html" target="_top" xlink:title=" ">
<polygon fill="white" stroke="#666666" points="164.44,-19 32.44,-19 32.44,0 164.44,0 164.44,-19"/>
<text text-anchor="middle" x="98.44" y="-7" font-family="Helvetica,sans-Serif" font-size="10.00">src/core/server_app.cpp</text>
</a>
</g>
</g>
<!-- Node1&#45;&gt;Node4 -->
<g id="edge6_Node000001_Node000004" class="edge">
<title>Node1&#45;&gt;Node4</title>
<g id="a_edge6_Node000001_Node000004"><a xlink:title=" ">
<path fill="none" stroke="#63b8ff" d="M241.46,-219.18C165.95,-205.85 59.19,-173.63 7.44,-96 -2.67,-80.84 -2.21,-70.46 7.44,-55 18.98,-36.5 40.69,-25.48 60.01,-19.04"/>
<polygon fill="#63b8ff" stroke="#63b8ff" points="240.99,-222.65 251.44,-220.86 242.16,-215.75 240.99,-222.65"/>
</a>
</g>
</g>
<!-- Node5 -->
<g id="Node000005" class="node">
<title>Node5</title>
<g id="a_Node000005"><a xlink:href="query__router_8cpp.html" target="_top" xlink:title=" ">
<polygon fill="white" stroke="#666666" points="405.94,-19 244.94,-19 244.94,0 405.94,0 405.94,-19"/>
<text text-anchor="middle" x="325.44" y="-7" font-family="Helvetica,sans-Serif" font-size="10.00">src/gateway/query_router.cpp</text>
</a>
</g>
</g>
<!-- Node1&#45;&gt;Node5 -->
<g id="edge7_Node000001_Node000005" class="edge">
<title>Node1&#45;&gt;Node5</title>
<g id="a_edge7_Node000001_Node000005"><a xlink:title=" ">
<path fill="none" stroke="#63b8ff" d="M344.17,-200.27C348.78,-191.85 353.07,-182.36 355.44,-173 368.3,-122.16 370.76,-105.15 355.44,-55 351.19,-41.1 340.98,-27.62 333.65,-19.2"/>
<polygon fill="#63b8ff" stroke="#63b8ff" points="341.13,-198.54 339.11,-208.94 347.17,-202.06 341.13,-198.54"/>
</a>
</g>
</g>
<!-- Node7 -->
<g id="Node000007" class="node">
<title>Node7</title>
<g id="a_Node000007"><a xlink:href="connection__pool_8cpp.html" target="_top" xlink:title=" ">
<polygon fill="white" stroke="#666666" points="528.44,-167.5 402.44,-167.5 402.44,-137.5 528.44,-137.5 528.44,-167.5"/>
<text text-anchor="start" x="410.44" y="-155.5" font-family="Helvetica,sans-Serif" font-size="10.00">src/pooling/connection</text>
<text text-anchor="middle" x="465.44" y="-144.5" font-family="Helvetica,sans-Serif" font-size="10.00">_pool.cpp</text>
</a>
</g>
</g>
<!-- Node1&#45;&gt;Node7 -->
<g id="edge8_Node000001_Node000007" class="edge">
<title>Node1&#45;&gt;Node7</title>
<g id="a_edge8_Node000001_Node000007"><a xlink:title=" ">
<path fill="none" stroke="#63b8ff" d="M370.9,-204.14C393.4,-192.09 419.77,-177.97 438.93,-167.7"/>
<polygon fill="#63b8ff" stroke="#63b8ff" points="369.02,-201.18 361.86,-208.99 372.32,-207.35 369.02,-201.18"/>
</a>
</g>
</g>
<!-- Node3 -->
<g id="Node000003" class="node">
<title>Node3</title>
<g id="a_Node000003"><a xlink:href="query__router_8h.html" target="_top" xlink:title="Query router with load balancing for database gateway.">
<polygon fill="white" stroke="#666666" points="346.44,-96 208.44,-96 208.44,-55 346.44,-55 346.44,-96"/>
<text text-anchor="start" x="216.44" y="-84" font-family="Helvetica,sans-Serif" font-size="10.00">include/kcenon/database</text>
<text text-anchor="start" x="216.44" y="-73" font-family="Helvetica,sans-Serif" font-size="10.00">_server/gateway/query</text>
<text text-anchor="middle" x="277.44" y="-62" font-family="Helvetica,sans-Serif" font-size="10.00">_router.h</text>
</a>
</g>
</g>
<!-- Node2&#45;&gt;Node3 -->
<g id="edge2_Node000002_Node000003" class="edge">
<title>Node2&#45;&gt;Node3</title>
<g id="a_edge2_Node000002_Node000003"><a xlink:title=" ">
<path fill="none" stroke="#63b8ff" d="M277.44,-121.69C277.44,-113.08 277.44,-103.9 277.44,-96.07"/>
<polygon fill="#63b8ff" stroke="#63b8ff" points="273.94,-121.79 277.44,-131.79 280.94,-121.79 273.94,-121.79"/>
</a>
</g>
</g>
<!-- Node6 -->
<g id="Node000006" class="node">
<title>Node6</title>
<g id="a_Node000006"><a xlink:href="query__handlers_8cpp.html" target="_top" xlink:title=" ">
<polygon fill="white" stroke="#666666" points="190.44,-85 16.44,-85 16.44,-66 190.44,-66 190.44,-85"/>
<text text-anchor="middle" x="103.44" y="-73" font-family="Helvetica,sans-Serif" font-size="10.00">src/gateway/query_handlers.cpp</text>
</a>
</g>
</g>
<!-- Node2&#45;&gt;Node6 -->
<g id="edge5_Node000002_Node000006" class="edge">
<title>Node2&#45;&gt;Node6</title>
<g id="a_edge5_Node000002_Node000006"><a xlink:title=" ">
<path fill="none" stroke="#63b8ff" d="M222.84,-127.97C188.97,-113.37 147.45,-95.47 123.36,-85.09"/>
<polygon fill="#63b8ff" stroke="#63b8ff" points="221.61,-131.25 232.18,-131.99 224.38,-124.82 221.61,-131.25"/>
</a>
</g>
</g>
<!-- Node3&#45;&gt;Node4 -->
<g id="edge3_Node000003_Node000004" class="edge">
<title>Node3&#45;&gt;Node4</title>
<g id="a_edge3_Node000003_Node000004"><a xlink:title=" ">
<path fill="none" stroke="#63b8ff" d="M213.15,-51.51C181.65,-40.25 145.61,-27.37 122.47,-19.09"/>
<polygon fill="#63b8ff" stroke="#63b8ff" points="212.16,-54.88 222.76,-54.95 214.52,-48.29 212.16,-54.88"/>
</a>
</g>
</g>
<!-- Node3&#45;&gt;Node5 -->
<g id="edge4_Node000003_Node000005" class="edge">
<title>Node3&#45;&gt;Node5</title>
<g id="a_edge4_Node000003_Node000005"><a xlink:title=" ">
<path fill="none" stroke="#63b8ff" d="M298.19,-46.83C305.64,-36.9 313.51,-26.4 318.87,-19.26"/>
<polygon fill="#63b8ff" stroke="#63b8ff" points="295.3,-44.85 292.1,-54.95 300.9,-49.05 295.3,-44.85"/>
</a>
</g>
</g>
</g>
</svg>
