<?xml version="1.0" encoding="UTF-8" standalone="no"?>
<!DOCTYPE svg PUBLIC "-//W3C//DTD SVG 1.1//EN"
 "http://www.w3.org/Graphics/SVG/1.1/DTD/svg11.dtd">
<!-- Generated by graphviz version 2.43.0 (0)
 -->
<!-- Title: src/resilience/connection_health_monitor.cpp Pages: 1 -->
<svg width="715pt" height="181pt"
 viewBox="0.00 0.00 715.00 181.00" xmlns="http://www.w3.org/2000/svg" xmlns:xlink="http://www.w3.org/1999/xlink">
<g id="graph0" class="graph" transform="scale(1 1) rotate(0) translate(4 177)">
<title>src/resilience/connection_health_monitor.cpp</title>
<!-- Node1 -->
<g id="Node000001" class="node">
<title>Node1</title>
<g id="a_Node000001"><a xlink:title=" ">
<polygon fill="#999999" stroke="#666666" points="639.5,-173 502.5,-173 502.5,-143 639.5,-143 639.5,-173"/>
<text text-anchor="start" x="510.5" y="-161" font-family="Helvetica,sans-Serif" font-size="10.00">src/resilience/connection</text>
<text text-anchor="middle" x="571" y="-150" font-family="Helvetica,sans-Serif" font-size="10.00">_health_monitor.cpp</text>
</a>
</g>
</g>
<!-- Node2 -->
<g id="Node000002" class="node">
<title>Node2</title>
<g id="a_Node000002"><a xlink:href="connection__health__monitor_8h.html" target="_top" xlink:title="Health monitoring for database connections.">
<polygon fill="white" stroke="#666666" points="404,-107 268,-107 268,-66 404,-66 404,-107"/>
<text text-anchor="start" x="276" y="-95" font-family="Helvetica,sans-Serif" font-size="10.00">kcenon/database_server</text>
<text text-anchor="start" x="276" y="-84" font-family="Helvetica,sans-Serif" font-size="10.00">/resilience/connection</text>
<text text-anchor="middle" x="336" y="-73" font-family="Helvetica,sans-Serif" font-size="10.00">_health_monitor.h</text>
</a>
</g>
</g>
<!-- Node1&#45;&gt;Node2 -->
<g id="edge1_Node000001_Node000002" class="edge">
<title>Node1&#45;&gt;Node2</title>
<g id="a_edge1_Node000001_Node000002"><a xlink:title=" ">
<path fill="none" stroke="#63b8ff" d="M523.44,-142.94C491.43,-133.47 448.54,-120.78 411.86,-109.93"/>
<polygon fill="#63b8ff" stroke="#63b8ff" points="412.77,-106.55 402.18,-107.07 410.78,-113.27 412.77,-106.55"/>
</a>
</g>
</g>
<!-- Node9 -->
<g id="Node000009" class="node">
<title>Node9</title>
<g id="a_Node000009"><a xlink:title=" ">
<polygon fill="#e0e0e0" stroke="#999999" points="674,-24.5 626,-24.5 626,-5.5 674,-5.5 674,-24.5"/>
<text text-anchor="middle" x="650" y="-12.5" font-family="Helvetica,sans-Serif" font-size="10.00">thread</text>
</a>
</g>
</g>
<!-- Node1&#45;&gt;Node9 -->
<g id="edge13_Node000001_Node000009" class="edge">
<title>Node1&#45;&gt;Node9</title>
<g id="a_edge13_Node000001_Node000009"><a xlink:title=" ">
<path fill="none" stroke="#63b8ff" d="M564.29,-142.97C556.32,-124.1 545.8,-90.14 560,-66 566.81,-54.42 596.65,-39.21 620.12,-28.61"/>
<polygon fill="#63b8ff" stroke="#63b8ff" points="621.65,-31.76 629.39,-24.52 618.82,-25.36 621.65,-31.76"/>
</a>
</g>
</g>
<!-- Node12 -->
<g id="Node000012" class="node">
<title>Node12</title>
<g id="a_Node000012"><a xlink:title=" ">
<polygon fill="#e0e0e0" stroke="#999999" points="633,-96 569,-96 569,-77 633,-77 633,-96"/>
<text text-anchor="middle" x="601" y="-84" font-family="Helvetica,sans-Serif" font-size="10.00">algorithm</text>
</a>
</g>
</g>
<!-- Node1&#45;&gt;Node12 -->
<g id="edge11_Node000001_Node000012" class="edge">
<title>Node1&#45;&gt;Node12</title>
<g id="a_edge11_Node000001_Node000012"><a xlink:title=" ">
<path fill="none" stroke="#63b8ff" d="M577.07,-142.94C581.73,-132.14 588.2,-117.15 593.24,-105.48"/>
<polygon fill="#63b8ff" stroke="#63b8ff" points="596.47,-106.84 597.22,-96.27 590.04,-104.06 596.47,-106.84"/>
</a>
</g>
</g>
<!-- Node13 -->
<g id="Node000013" class="node">
<title>Node13</title>
<g id="a_Node000013"><a xlink:title=" ">
<polygon fill="#e0e0e0" stroke="#999999" points="707,-96 651,-96 651,-77 707,-77 707,-96"/>
<text text-anchor="middle" x="679" y="-84" font-family="Helvetica,sans-Serif" font-size="10.00">numeric</text>
</a>
</g>
</g>
<!-- Node1&#45;&gt;Node13 -->
<g id="edge12_Node000001_Node000013" class="edge">
<title>Node1&#45;&gt;Node13</title>
<g id="a_edge12_Node000001_Node000013"><a xlink:title=" ">
<path fill="none" stroke="#63b8ff" d="M592.86,-142.94C611.61,-130.87 638.49,-113.57 657.22,-101.52"/>
<polygon fill="#63b8ff" stroke="#63b8ff" points="659.17,-104.42 665.69,-96.07 655.38,-98.54 659.17,-104.42"/>
</a>
</g>
</g>
<!-- Node3 -->
<g id="Node000003" class="node">
<title>Node3</title>
<g id="a_Node000003"><a xlink:title=" ">
<polygon fill="#e0e0e0" stroke="#999999" points="50,-24.5 0,-24.5 0,-5.5 50,-5.5 50,-24.5"/>
<text text-anchor="middle" x="25" y="-12.5" font-family="Helvetica,sans-Serif" font-size="10.00">atomic</text>
</a>
</g>
</g>
<!-- Node2&#45;&gt;Node3 -->
<g id="edge2_Node000002_Node000003" class="edge">
<title>Node2&#45;&gt;Node3</title>
<g id="a_edge2_Node000002_Node000003"><a xlink:title=" ">
<path fill="none" stroke="#63b8ff" d="M267.93,-75.62C211.3,-66.51 128.94,-51.19 59,-30 57.12,-29.43 55.2,-28.8 53.28,-28.12"/>
<polygon fill="#63b8ff" stroke="#63b8ff" points="54.42,-24.81 43.83,-24.51 51.92,-31.35 54.42,-24.81"/>
</a>
</g>
</g>
<!-- Node4 -->
<g id="Node000004" class="node">
<title>Node4</title>
<g id="a_Node000004"><a xlink:title=" ">
<polygon fill="#e0e0e0" stroke="#999999" points="118,-24.5 68,-24.5 68,-5.5 118,-5.5 118,-24.5"/>
<text text-anchor="middle" x="93" y="-12.5" font-family="Helvetica,sans-Serif" font-size="10.00">chrono</text>
</a>
</g>
</g>
<!-- Node2&#45;&gt;Node4 -->
<g id="edge3_Node000002_Node000004" class="edge">
<title>Node2&#45;&gt;Node4</title>
<g id="a_edge3_Node000002_Node000004"><a xlink:title=" ">
<path fill="none" stroke="#63b8ff" d="M267.56,-69.73C226.42,-59.66 173.25,-45.59 127,-30 125.38,-29.45 123.72,-28.87 122.06,-28.26"/>
<polygon fill="#63b8ff" stroke="#63b8ff" points="123.2,-24.95 112.61,-24.59 120.66,-31.47 123.2,-24.95"/>
</a>
</g>
</g>
<!-- Node5 -->
<g id="Node000005" class="node">
<title>Node5</title>
<g id="a_Node000005"><a xlink:title=" ">
<polygon fill="#e0e0e0" stroke="#999999" points="186,-24.5 136,-24.5 136,-5.5 186,-5.5 186,-24.5"/>
<text text-anchor="middle" x="161" y="-12.5" font-family="Helvetica,sans-Serif" font-size="10.00">cstdint</text>
</a>
</g>
</g>
<!-- Node2&#45;&gt;Node5 -->
<g id="edge4_Node000002_Node000005" class="edge">
<title>Node2&#45;&gt;Node5</title>
<g id="a_edge4_Node000002_Node000005"><a xlink:title=" ">
<path fill="none" stroke="#63b8ff" d="M285.68,-65.91C258.74,-55.37 225.02,-42.09 195,-30 193.8,-29.52 192.58,-29.02 191.34,-28.52"/>
<polygon fill="#63b8ff" stroke="#63b8ff" points="192.42,-25.18 181.84,-24.64 189.77,-31.66 192.42,-25.18"/>
</a>
</g>
</g>
<!-- Node6 -->
<g id="Node000006" class="node">
<title>Node6</title>
<g id="a_Node000006"><a xlink:title=" ">
<polygon fill="#e0e0e0" stroke="#999999" points="262,-24.5 204,-24.5 204,-5.5 262,-5.5 262,-24.5"/>
<text text-anchor="middle" x="233" y="-12.5" font-family="Helvetica,sans-Serif" font-size="10.00">memory</text>
</a>
</g>
</g>
<!-- Node2&#45;&gt;Node6 -->
<g id="edge5_Node000002_Node000006" class="edge">
<title>Node2&#45;&gt;Node6</title>
<g id="a_edge5_Node000002_Node000006"><a xlink:title=" ">
<path fill="none" stroke="#63b8ff" d="M307.03,-65.96C290.28,-54.65 269.56,-40.67 254.31,-30.38"/>
<polygon fill="#63b8ff" stroke="#63b8ff" points="255.85,-27.2 245.6,-24.5 251.93,-33 255.85,-27.2"/>
</a>
</g>
</g>
<!-- Node7 -->
<g id="Node000007" class="node">
<title>Node7</title>
<g id="a_Node000007"><a xlink:title=" ">
<polygon fill="#e0e0e0" stroke="#999999" points="328,-24.5 280,-24.5 280,-5.5 328,-5.5 328,-24.5"/>
<text text-anchor="middle" x="304" y="-12.5" font-family="Helvetica,sans-Serif" font-size="10.00">mutex</text>
</a>
</g>
</g>
<!-- Node2&#45;&gt;Node7 -->
<g id="edge6_Node000002_Node000007" class="edge">
<title>Node2&#45;&gt;Node7</title>
<g id="a_edge6_Node000002_Node000007"><a xlink:title=" ">
<path fill="none" stroke="#63b8ff" d="M326.92,-65.77C322.31,-55.76 316.75,-43.7 312.27,-33.95"/>
<polygon fill="#63b8ff" stroke="#63b8ff" points="315.42,-32.44 308.06,-24.82 309.06,-35.37 315.42,-32.44"/>
</a>
</g>
</g>
<!-- Node8 -->
<g id="Node000008" class="node">
<title>Node8</title>
<g id="a_Node000008"><a xlink:title=" ">
<polygon fill="#e0e0e0" stroke="#999999" points="390,-24.5 346,-24.5 346,-5.5 390,-5.5 390,-24.5"/>
<text text-anchor="middle" x="368" y="-12.5" font-family="Helvetica,sans-Serif" font-size="10.00">string</text>
</a>
</g>
</g>
<!-- Node2&#45;&gt;Node8 -->
<g id="edge7_Node000002_Node000008" class="edge">
<title>Node2&#45;&gt;Node8</title>
<g id="a_edge7_Node000002_Node000008"><a xlink:title=" ">
<path fill="none" stroke="#63b8ff" d="M345.08,-65.77C349.69,-55.76 355.25,-43.7 359.73,-33.95"/>
<polygon fill="#63b8ff" stroke="#63b8ff" points="362.94,-35.37 363.94,-24.82 356.58,-32.44 362.94,-35.37"/>
</a>
</g>
</g>
<!-- Node2&#45;&gt;Node9 -->
<g id="edge8_Node000002_Node000009" class="edge">
<title>Node2&#45;&gt;Node9</title>
<g id="a_edge8_Node000002_Node000009"><a xlink:title=" ">
<path fill="none" stroke="#63b8ff" d="M404.25,-76.06C461.76,-67.15 545.82,-51.87 617,-30 618.68,-29.48 620.38,-28.91 622.1,-28.3"/>
<polygon fill="#63b8ff" stroke="#63b8ff" points="623.71,-31.43 631.75,-24.53 621.16,-24.91 623.71,-31.43"/>
</a>
</g>
</g>
<!-- Node10 -->
<g id="Node000010" class="node">
<title>Node10</title>
<g id="a_Node000010"><a xlink:title=" ">
<polygon fill="#e0e0e0" stroke="#999999" points="455.5,-24.5 408.5,-24.5 408.5,-5.5 455.5,-5.5 455.5,-24.5"/>
<text text-anchor="middle" x="432" y="-12.5" font-family="Helvetica,sans-Serif" font-size="10.00">vector</text>
</a>
</g>
</g>
<!-- Node2&#45;&gt;Node10 -->
<g id="edge9_Node000002_Node000010" class="edge">
<title>Node2&#45;&gt;Node10</title>
<g id="a_edge9_Node000002_Node000010"><a xlink:title=" ">
<path fill="none" stroke="#63b8ff" d="M363,-65.96C378.61,-54.65 397.92,-40.67 412.14,-30.38"/>
<polygon fill="#63b8ff" stroke="#63b8ff" points="414.21,-33.2 420.25,-24.5 410.1,-27.53 414.21,-33.2"/>
</a>
</g>
</g>
<!-- Node11 -->
<g id="Node000011" class="node">
<title>Node11</title>
<g id="a_Node000011"><a xlink:title=" ">
<polygon fill="#e0e0e0" stroke="#999999" points="608,-30 474,-30 474,0 608,0 608,-30"/>
<text text-anchor="start" x="482" y="-18" font-family="Helvetica,sans-Serif" font-size="10.00">database/core/database</text>
<text text-anchor="middle" x="541" y="-7" font-family="Helvetica,sans-Serif" font-size="10.00">_backend.h</text>
</a>
</g>
</g>
<!-- Node2&#45;&gt;Node11 -->
<g id="edge10_Node000002_Node000011" class="edge">
<title>Node2&#45;&gt;Node11</title>
<g id="a_edge10_Node000002_Node000011"><a xlink:title=" ">
<path fill="none" stroke="#63b8ff" d="M393.65,-65.96C423.97,-55.68 460.82,-43.18 490.08,-33.26"/>
<polygon fill="#63b8ff" stroke="#63b8ff" points="491.35,-36.53 499.69,-30 489.1,-29.9 491.35,-36.53"/>
</a>
</g>
</g>
</g>
</svg>
