<?xml version="1.0" encoding="UTF-8" standalone="no"?>
<!DOCTYPE svg PUBLIC "-//W3C//DTD SVG 1.1//EN"
 "http://www.w3.org/Graphics/SVG/1.1/DTD/svg11.dtd">
<!-- Generated by graphviz version 2.43.0 (0)
 -->
<!-- Title: src/resilience/connection_health_monitor.cpp Pages: 1 -->
<svg width="848pt" height="181pt"
 viewBox="0.00 0.00 847.50 181.00" xmlns="http://www.w3.org/2000/svg" xmlns:xlink="http://www.w3.org/1999/xlink">
<g id="graph0" class="graph" transform="scale(1 1) rotate(0) translate(4 177)">
<title>src/resilience/connection_health_monitor.cpp</title>
<!-- Node1 -->
<g id="Node000001" class="node">
<title>Node1</title>
<g id="a_Node000001"><a xlink:title=" ">
<polygon fill="#999999" stroke="#666666" points="557.5,-173 420.5,-173 420.5,-143 557.5,-143 557.5,-173"/>
<text text-anchor="start" x="428.5" y="-161" font-family="Helvetica,sans-Serif" font-size="10.00">src/resilience/connection</text>
<text text-anchor="middle" x="489" y="-150" font-family="Helvetica,sans-Serif" font-size="10.00">_health_monitor.cpp</text>
</a>
</g>
</g>
<!-- Node2 -->
<g id="Node000002" class="node">
<title>Node2</title>
<g id="a_Node000002"><a xlink:href="connection__health__monitor_8h.html" target="_top" xlink:title="Health monitoring for database connections.">
<polygon fill="white" stroke="#666666" points="400,-107 264,-107 264,-66 400,-66 400,-107"/>
<text text-anchor="start" x="272" y="-95" font-family="Helvetica,sans-Serif" font-size="10.00">kcenon/database_server</text>
<text text-anchor="start" x="272" y="-84" font-family="Helvetica,sans-Serif" font-size="10.00">/resilience/connection</text>
<text text-anchor="middle" x="332" y="-73" font-family="Helvetica,sans-Serif" font-size="10.00">_health_monitor.h</text>
</a>
</g>
</g>
<!-- Node1&#45;&gt;Node2 -->
<g id="edge1_Node000001_Node000002" class="edge">
<title>Node1&#45;&gt;Node2</title>
<g id="a_edge1_Node000001_Node000002"><a xlink:title=" ">
<path fill="none" stroke="#63b8ff" d="M457.23,-142.94C436.66,-133.83 409.37,-121.75 385.51,-111.19"/>
<polygon fill="#63b8ff" stroke="#63b8ff" points="386.78,-107.92 376.22,-107.07 383.94,-114.32 386.78,-107.92"/>
</a>
</g>
</g>
<!-- Node13 -->
<g id="Node000013" class="node">
<title>Node13</title>
<g id="a_Node000013"><a xlink:title=" ">
<polygon fill="#e0e0e0" stroke="#999999" points="482,-96 418,-96 418,-77 482,-77 482,-96"/>
<text text-anchor="middle" x="450" y="-84" font-family="Helvetica,sans-Serif" font-size="10.00">algorithm</text>
</a>
</g>
</g>
<!-- Node1&#45;&gt;Node13 -->
<g id="edge12_Node000001_Node000013" class="edge">
<title>Node1&#45;&gt;Node13</title>
<g id="a_edge12_Node000001_Node000013"><a xlink:title=" ">
<path fill="none" stroke="#63b8ff" d="M481.11,-142.94C474.99,-132.03 466.47,-116.85 459.89,-105.13"/>
<polygon fill="#63b8ff" stroke="#63b8ff" points="462.87,-103.27 454.92,-96.27 456.76,-106.7 462.87,-103.27"/>
</a>
</g>
</g>
<!-- Node14 -->
<g id="Node000014" class="node">
<title>Node14</title>
<g id="a_Node000014"><a xlink:title=" ">
<polygon fill="#e0e0e0" stroke="#999999" points="556,-96 500,-96 500,-77 556,-77 556,-96"/>
<text text-anchor="middle" x="528" y="-84" font-family="Helvetica,sans-Serif" font-size="10.00">numeric</text>
</a>
</g>
</g>
<!-- Node1&#45;&gt;Node14 -->
<g id="edge13_Node000001_Node000014" class="edge">
<title>Node1&#45;&gt;Node14</title>
<g id="a_edge13_Node000001_Node000014"><a xlink:title=" ">
<path fill="none" stroke="#63b8ff" d="M496.89,-142.94C503.01,-132.03 511.53,-116.85 518.11,-105.13"/>
<polygon fill="#63b8ff" stroke="#63b8ff" points="521.24,-106.7 523.08,-96.27 515.13,-103.27 521.24,-106.7"/>
</a>
</g>
</g>
<!-- Node15 -->
<g id="Node000015" class="node">
<title>Node15</title>
<g id="a_Node000015"><a xlink:title=" ">
<polygon fill="#e0e0e0" stroke="#999999" points="622,-96 574,-96 574,-77 622,-77 622,-96"/>
<text text-anchor="middle" x="598" y="-84" font-family="Helvetica,sans-Serif" font-size="10.00">thread</text>
</a>
</g>
</g>
<!-- Node1&#45;&gt;Node15 -->
<g id="edge14_Node000001_Node000015" class="edge">
<title>Node1&#45;&gt;Node15</title>
<g id="a_edge14_Node000001_Node000015"><a xlink:title=" ">
<path fill="none" stroke="#63b8ff" d="M511.06,-142.94C529.98,-130.87 557.11,-113.57 576.02,-101.52"/>
<polygon fill="#63b8ff" stroke="#63b8ff" points="578.01,-104.4 584.56,-96.07 574.25,-98.49 578.01,-104.4"/>
</a>
</g>
</g>
<!-- Node3 -->
<g id="Node000003" class="node">
<title>Node3</title>
<g id="a_Node000003"><a xlink:title=" ">
<polygon fill="#e0e0e0" stroke="#999999" points="50,-24.5 0,-24.5 0,-5.5 50,-5.5 50,-24.5"/>
<text text-anchor="middle" x="25" y="-12.5" font-family="Helvetica,sans-Serif" font-size="10.00">atomic</text>
</a>
</g>
</g>
<!-- Node2&#45;&gt;Node3 -->
<g id="edge2_Node000002_Node000003" class="edge">
<title>Node2&#45;&gt;Node3</title>
<g id="a_edge2_Node000002_Node000003"><a xlink:title=" ">
<path fill="none" stroke="#63b8ff" d="M263.79,-75.33C208.02,-66.14 127.48,-50.85 59,-30 57.32,-29.49 55.61,-28.93 53.89,-28.33"/>
<polygon fill="#63b8ff" stroke="#63b8ff" points="54.78,-24.92 44.19,-24.64 52.29,-31.46 54.78,-24.92"/>
</a>
</g>
</g>
<!-- Node4 -->
<g id="Node000004" class="node">
<title>Node4</title>
<g id="a_Node000004"><a xlink:title=" ">
<polygon fill="#e0e0e0" stroke="#999999" points="118,-24.5 68,-24.5 68,-5.5 118,-5.5 118,-24.5"/>
<text text-anchor="middle" x="93" y="-12.5" font-family="Helvetica,sans-Serif" font-size="10.00">chrono</text>
</a>
</g>
</g>
<!-- Node2&#45;&gt;Node4 -->
<g id="edge3_Node000002_Node000004" class="edge">
<title>Node2&#45;&gt;Node4</title>
<g id="a_edge3_Node000002_Node000004"><a xlink:title=" ">
<path fill="none" stroke="#63b8ff" d="M263.95,-69.37C223.74,-59.27 172.04,-45.3 127,-30 125.38,-29.45 123.73,-28.86 122.06,-28.25"/>
<polygon fill="#63b8ff" stroke="#63b8ff" points="123.2,-24.94 112.62,-24.57 120.67,-31.46 123.2,-24.94"/>
</a>
</g>
</g>
<!-- Node5 -->
<g id="Node000005" class="node">
<title>Node5</title>
<g id="a_Node000005"><a xlink:title=" ">
<polygon fill="#e0e0e0" stroke="#999999" points="186,-24.5 136,-24.5 136,-5.5 186,-5.5 186,-24.5"/>
<text text-anchor="middle" x="161" y="-12.5" font-family="Helvetica,sans-Serif" font-size="10.00">cstdint</text>
</a>
</g>
</g>
<!-- Node2&#45;&gt;Node5 -->
<g id="edge4_Node000002_Node000005" class="edge">
<title>Node2&#45;&gt;Node5</title>
<g id="a_edge4_Node000002_Node000005"><a xlink:title=" ">
<path fill="none" stroke="#63b8ff" d="M283.47,-65.92C257.26,-55.32 224.34,-41.98 195,-30 193.8,-29.51 192.58,-29.01 191.35,-28.51"/>
<polygon fill="#63b8ff" stroke="#63b8ff" points="192.43,-25.17 181.85,-24.61 189.77,-31.64 192.43,-25.17"/>
</a>
</g>
</g>
<!-- Node6 -->
<g id="Node000006" class="node">
<title>Node6</title>
<g id="a_Node000006"><a xlink:title=" ">
<polygon fill="#e0e0e0" stroke="#999999" points="250,-24.5 204,-24.5 204,-5.5 250,-5.5 250,-24.5"/>
<text text-anchor="middle" x="227" y="-12.5" font-family="Helvetica,sans-Serif" font-size="10.00">future</text>
</a>
</g>
</g>
<!-- Node2&#45;&gt;Node6 -->
<g id="edge5_Node000002_Node000006" class="edge">
<title>Node2&#45;&gt;Node6</title>
<g id="a_edge5_Node000002_Node000006"><a xlink:title=" ">
<path fill="none" stroke="#63b8ff" d="M302.47,-65.96C285.23,-54.54 263.88,-40.41 248.29,-30.09"/>
<polygon fill="#63b8ff" stroke="#63b8ff" points="250.12,-27.1 239.85,-24.5 246.25,-32.94 250.12,-27.1"/>
</a>
</g>
</g>
<!-- Node7 -->
<g id="Node000007" class="node">
<title>Node7</title>
<g id="a_Node000007"><a xlink:title=" ">
<polygon fill="#e0e0e0" stroke="#999999" points="326,-24.5 268,-24.5 268,-5.5 326,-5.5 326,-24.5"/>
<text text-anchor="middle" x="297" y="-12.5" font-family="Helvetica,sans-Serif" font-size="10.00">memory</text>
</a>
</g>
</g>
<!-- Node2&#45;&gt;Node7 -->
<g id="edge6_Node000002_Node000007" class="edge">
<title>Node2&#45;&gt;Node7</title>
<g id="a_edge6_Node000002_Node000007"><a xlink:title=" ">
<path fill="none" stroke="#63b8ff" d="M322.06,-65.77C317.02,-55.76 310.95,-43.7 306.04,-33.95"/>
<polygon fill="#63b8ff" stroke="#63b8ff" points="309.07,-32.18 301.44,-24.82 302.81,-35.33 309.07,-32.18"/>
</a>
</g>
</g>
<!-- Node8 -->
<g id="Node000008" class="node">
<title>Node8</title>
<g id="a_Node000008"><a xlink:title=" ">
<polygon fill="#e0e0e0" stroke="#999999" points="392,-24.5 344,-24.5 344,-5.5 392,-5.5 392,-24.5"/>
<text text-anchor="middle" x="368" y="-12.5" font-family="Helvetica,sans-Serif" font-size="10.00">mutex</text>
</a>
</g>
</g>
<!-- Node2&#45;&gt;Node8 -->
<g id="edge7_Node000002_Node000008" class="edge">
<title>Node2&#45;&gt;Node8</title>
<g id="a_edge7_Node000002_Node000008"><a xlink:title=" ">
<path fill="none" stroke="#63b8ff" d="M342.22,-65.77C347.4,-55.76 353.65,-43.7 358.7,-33.95"/>
<polygon fill="#63b8ff" stroke="#63b8ff" points="361.94,-35.31 363.43,-24.82 355.72,-32.09 361.94,-35.31"/>
</a>
</g>
</g>
<!-- Node9 -->
<g id="Node000009" class="node">
<title>Node9</title>
<g id="a_Node000009"><a xlink:title=" ">
<polygon fill="#e0e0e0" stroke="#999999" points="454,-24.5 410,-24.5 410,-5.5 454,-5.5 454,-24.5"/>
<text text-anchor="middle" x="432" y="-12.5" font-family="Helvetica,sans-Serif" font-size="10.00">string</text>
</a>
</g>
</g>
<!-- Node2&#45;&gt;Node9 -->
<g id="edge8_Node000002_Node000009" class="edge">
<title>Node2&#45;&gt;Node9</title>
<g id="a_edge8_Node000002_Node000009"><a xlink:title=" ">
<path fill="none" stroke="#63b8ff" d="M360.12,-65.96C376.39,-54.65 396.5,-40.67 411.31,-30.38"/>
<polygon fill="#63b8ff" stroke="#63b8ff" points="413.55,-33.08 419.76,-24.5 409.56,-27.34 413.55,-33.08"/>
</a>
</g>
</g>
<!-- Node10 -->
<g id="Node000010" class="node">
<title>Node10</title>
<g id="a_Node000010"><a xlink:title=" ">
<polygon fill="#e0e0e0" stroke="#999999" points="519.5,-24.5 472.5,-24.5 472.5,-5.5 519.5,-5.5 519.5,-24.5"/>
<text text-anchor="middle" x="496" y="-12.5" font-family="Helvetica,sans-Serif" font-size="10.00">vector</text>
</a>
</g>
</g>
<!-- Node2&#45;&gt;Node10 -->
<g id="edge9_Node000002_Node000010" class="edge">
<title>Node2&#45;&gt;Node10</title>
<g id="a_edge9_Node000002_Node000010"><a xlink:title=" ">
<path fill="none" stroke="#63b8ff" d="M378.08,-65.98C403.19,-55.35 434.8,-41.95 463,-30 464.16,-29.51 465.34,-29.01 466.54,-28.5"/>
<polygon fill="#63b8ff" stroke="#63b8ff" points="467.92,-31.72 475.76,-24.59 465.18,-25.27 467.92,-31.72"/>
</a>
</g>
</g>
<!-- Node11 -->
<g id="Node000011" class="node">
<title>Node11</title>
<g id="a_Node000011"><a xlink:title=" ">
<polygon fill="#e0e0e0" stroke="#999999" points="672,-30 538,-30 538,0 672,0 672,-30"/>
<text text-anchor="start" x="546" y="-18" font-family="Helvetica,sans-Serif" font-size="10.00">database/core/database</text>
<text text-anchor="middle" x="605" y="-7" font-family="Helvetica,sans-Serif" font-size="10.00">_backend.h</text>
</a>
</g>
</g>
<!-- Node2&#45;&gt;Node11 -->
<g id="edge10_Node000002_Node000011" class="edge">
<title>Node2&#45;&gt;Node11</title>
<g id="a_edge10_Node000002_Node000011"><a xlink:title=" ">
<path fill="none" stroke="#63b8ff" d="M400.19,-68.14C442.88,-57.27 497.58,-43.35 539.72,-32.62"/>
<polygon fill="#63b8ff" stroke="#63b8ff" points="540.77,-35.96 549.6,-30.1 539.04,-29.18 540.77,-35.96"/>
</a>
</g>
</g>
<!-- Node12 -->
<g id="Node000012" class="node">
<title>Node12</title>
<g id="a_Node000012"><a xlink:title=" ">
<polygon fill="#e0e0e0" stroke="#999999" points="839.5,-30 690.5,-30 690.5,0 839.5,0 839.5,-30"/>
<text text-anchor="start" x="698.5" y="-18" font-family="Helvetica,sans-Serif" font-size="10.00">kcenon/common/interfaces</text>
<text text-anchor="middle" x="765" y="-7" font-family="Helvetica,sans-Serif" font-size="10.00">/executor_interface.h</text>
</a>
</g>
</g>
<!-- Node2&#45;&gt;Node12 -->
<g id="edge11_Node000002_Node000012" class="edge">
<title>Node2&#45;&gt;Node12</title>
<g id="a_edge11_Node000002_Node000012"><a xlink:title=" ">
<path fill="none" stroke="#63b8ff" d="M400.34,-67.75C403.26,-67.13 406.16,-66.55 409,-66 525.6,-43.6 558.67,-47.78 680.29,-30.06"/>
<polygon fill="#63b8ff" stroke="#63b8ff" points="680.98,-33.5 690.37,-28.57 679.96,-26.57 680.98,-33.5"/>
</a>
</g>
</g>
</g>
</svg>
