<?xml version="1.0" encoding="UTF-8" standalone="no"?>
<!DOCTYPE svg PUBLIC "-//W3C//DTD SVG 1.1//EN"
 "http://www.w3.org/Graphics/SVG/1.1/DTD/svg11.dtd">
<!-- Generated by graphviz version 2.43.0 (0)
 -->
<!-- Title: include/kcenon/database_server/pooling/connection_priority.h Pages: 1 -->
<svg width="464pt" height="192pt"
 viewBox="0.00 0.00 463.50 192.00" xmlns="http://www.w3.org/2000/svg" xmlns:xlink="http://www.w3.org/1999/xlink">
<g id="graph0" class="graph" transform="scale(1 1) rotate(0) translate(4 188)">
<title>include/kcenon/database_server/pooling/connection_priority.h</title>
<!-- Node1 -->
<g id="Node000001" class="node">
<title>Node1</title>
<g id="a_Node000001"><a xlink:title="Priority levels for connection acquisition requests.">
<polygon fill="#999999" stroke="#666666" points="368,-184 220,-184 220,-143 368,-143 368,-184"/>
<text text-anchor="start" x="228" y="-172" font-family="Helvetica,sans-Serif" font-size="10.00">include/kcenon/database</text>
<text text-anchor="start" x="228" y="-161" font-family="Helvetica,sans-Serif" font-size="10.00">_server/pooling/connection</text>
<text text-anchor="middle" x="294" y="-150" font-family="Helvetica,sans-Serif" font-size="10.00">_priority.h</text>
</a>
</g>
</g>
<!-- Node2 -->
<g id="Node000002" class="node">
<title>Node2</title>
<g id="a_Node000002"><a xlink:href="connection__pool_8h.html" target="_top" xlink:title="High&#45;performance connection pool with adaptive queue and priority scheduling.">
<polygon fill="white" stroke="#666666" points="317,-107 169,-107 169,-66 317,-66 317,-107"/>
<text text-anchor="start" x="177" y="-95" font-family="Helvetica,sans-Serif" font-size="10.00">include/kcenon/database</text>
<text text-anchor="start" x="177" y="-84" font-family="Helvetica,sans-Serif" font-size="10.00">_server/pooling/connection</text>
<text text-anchor="middle" x="243" y="-73" font-family="Helvetica,sans-Serif" font-size="10.00">_pool.h</text>
</a>
</g>
</g>
<!-- Node1&#45;&gt;Node2 -->
<g id="edge1_Node000001_Node000002" class="edge">
<title>Node1&#45;&gt;Node2</title>
<g id="a_edge1_Node000001_Node000002"><a xlink:title=" ">
<path fill="none" stroke="#63b8ff" d="M274.89,-134.39C268.7,-125.3 261.98,-115.41 256.31,-107.07"/>
<polygon fill="#63b8ff" stroke="#63b8ff" points="272.08,-136.49 280.6,-142.79 277.87,-132.56 272.08,-136.49"/>
</a>
</g>
</g>
<!-- Node4 -->
<g id="Node000004" class="node">
<title>Node4</title>
<g id="a_Node000004"><a xlink:href="query__router_8cpp.html" target="_top" xlink:title=" ">
<polygon fill="white" stroke="#666666" points="455.5,-24.5 294.5,-24.5 294.5,-5.5 455.5,-5.5 455.5,-24.5"/>
<text text-anchor="middle" x="375" y="-12.5" font-family="Helvetica,sans-Serif" font-size="10.00">src/gateway/query_router.cpp</text>
</a>
</g>
</g>
<!-- Node1&#45;&gt;Node4 -->
<g id="edge5_Node000001_Node000004" class="edge">
<title>Node1&#45;&gt;Node4</title>
<g id="a_edge5_Node000001_Node000004"><a xlink:title=" ">
<path fill="none" stroke="#63b8ff" d="M310.71,-133.88C315.69,-125.27 321.11,-115.78 326,-107 342.77,-76.91 361.95,-40.77 370.49,-24.58"/>
<polygon fill="#63b8ff" stroke="#63b8ff" points="307.53,-132.39 305.54,-142.8 313.59,-135.9 307.53,-132.39"/>
</a>
</g>
</g>
<!-- Node3 -->
<g id="Node000003" class="node">
<title>Node3</title>
<g id="a_Node000003"><a xlink:href="server__app_8cpp.html" target="_top" xlink:title=" ">
<polygon fill="white" stroke="#666666" points="132,-24.5 0,-24.5 0,-5.5 132,-5.5 132,-24.5"/>
<text text-anchor="middle" x="66" y="-12.5" font-family="Helvetica,sans-Serif" font-size="10.00">src/core/server_app.cpp</text>
</a>
</g>
</g>
<!-- Node2&#45;&gt;Node3 -->
<g id="edge2_Node000002_Node000003" class="edge">
<title>Node2&#45;&gt;Node3</title>
<g id="a_edge2_Node000002_Node000003"><a xlink:title=" ">
<path fill="none" stroke="#63b8ff" d="M183.63,-62.19C150.58,-49.21 111.42,-33.83 87.66,-24.5"/>
<polygon fill="#63b8ff" stroke="#63b8ff" points="182.64,-65.56 193.22,-65.96 185.2,-59.04 182.64,-65.56"/>
</a>
</g>
</g>
<!-- Node2&#45;&gt;Node4 -->
<g id="edge3_Node000002_Node000004" class="edge">
<title>Node2&#45;&gt;Node4</title>
<g id="a_edge3_Node000002_Node000004"><a xlink:title=" ">
<path fill="none" stroke="#63b8ff" d="M289.19,-61.18C313.42,-48.42 341.59,-33.59 358.85,-24.5"/>
<polygon fill="#63b8ff" stroke="#63b8ff" points="287.34,-58.2 280.12,-65.96 290.6,-64.39 287.34,-58.2"/>
</a>
</g>
</g>
<!-- Node5 -->
<g id="Node000005" class="node">
<title>Node5</title>
<g id="a_Node000005"><a xlink:href="connection__pool_8cpp.html" target="_top" xlink:title=" ">
<polygon fill="white" stroke="#666666" points="276,-30 150,-30 150,0 276,0 276,-30"/>
<text text-anchor="start" x="158" y="-18" font-family="Helvetica,sans-Serif" font-size="10.00">src/pooling/connection</text>
<text text-anchor="middle" x="213" y="-7" font-family="Helvetica,sans-Serif" font-size="10.00">_pool.cpp</text>
</a>
</g>
</g>
<!-- Node2&#45;&gt;Node5 -->
<g id="edge4_Node000002_Node000005" class="edge">
<title>Node2&#45;&gt;Node5</title>
<g id="a_edge4_Node000002_Node000005"><a xlink:title=" ">
<path fill="none" stroke="#63b8ff" d="M230.5,-56.53C226.54,-47.37 222.35,-37.66 219.06,-30.04"/>
<polygon fill="#63b8ff" stroke="#63b8ff" points="227.31,-57.98 234.48,-65.77 233.73,-55.2 227.31,-57.98"/>
</a>
</g>
</g>
</g>
</svg>
