<?xml version="1.0" encoding="UTF-8" standalone="no"?>
<!DOCTYPE svg PUBLIC "-//W3C//DTD SVG 1.1//EN"
 "http://www.w3.org/Graphics/SVG/1.1/DTD/svg11.dtd">
<!-- Generated by graphviz version 2.43.0 (0)
 -->
<!-- Title: include/kcenon/database_server/pooling/connection_types.h Pages: 1 -->
<svg width="1103pt" height="115pt"
 viewBox="0.00 0.00 1102.50 115.00" xmlns="http://www.w3.org/2000/svg" xmlns:xlink="http://www.w3.org/1999/xlink">
<g id="graph0" class="graph" transform="scale(1 1) rotate(0) translate(4 111)">
<title>include/kcenon/database_server/pooling/connection_types.h</title>
<!-- Node1 -->
<g id="Node000001" class="node">
<title>Node1</title>
<g id="a_Node000001"><a xlink:title="Connection pool types for database_server middleware.">
<polygon fill="#999999" stroke="#666666" points="757.5,-107 609.5,-107 609.5,-66 757.5,-66 757.5,-107"/>
<text text-anchor="start" x="617.5" y="-95" font-family="Helvetica,sans-Serif" font-size="10.00">include/kcenon/database</text>
<text text-anchor="start" x="617.5" y="-84" font-family="Helvetica,sans-Serif" font-size="10.00">_server/pooling/connection</text>
<text text-anchor="middle" x="683.5" y="-73" font-family="Helvetica,sans-Serif" font-size="10.00">_types.h</text>
</a>
</g>
</g>
<!-- Node2 -->
<g id="Node000002" class="node">
<title>Node2</title>
<g id="a_Node000002"><a xlink:title=" ">
<polygon fill="#e0e0e0" stroke="#999999" points="147,-24.5 0,-24.5 0,-5.5 147,-5.5 147,-24.5"/>
<text text-anchor="middle" x="73.5" y="-12.5" font-family="Helvetica,sans-Serif" font-size="10.00">database/database_base.h</text>
</a>
</g>
</g>
<!-- Node1&#45;&gt;Node2 -->
<g id="edge1_Node000001_Node000002" class="edge">
<title>Node1&#45;&gt;Node2</title>
<g id="a_edge1_Node000001_Node000002"><a xlink:title=" ">
<path fill="none" stroke="#63b8ff" d="M609.43,-79.23C507.12,-70.22 316.89,-52.24 155.5,-30 147.36,-28.88 138.79,-27.56 130.39,-26.2"/>
<polygon fill="#63b8ff" stroke="#63b8ff" points="130.69,-22.7 120.25,-24.52 129.54,-29.61 130.69,-22.7"/>
</a>
</g>
</g>
<!-- Node3 -->
<g id="Node000003" class="node">
<title>Node3</title>
<g id="a_Node000003"><a xlink:title=" ">
<polygon fill="#e0e0e0" stroke="#999999" points="316,-24.5 165,-24.5 165,-5.5 316,-5.5 316,-24.5"/>
<text text-anchor="middle" x="240.5" y="-12.5" font-family="Helvetica,sans-Serif" font-size="10.00">database/database_types.h</text>
</a>
</g>
</g>
<!-- Node1&#45;&gt;Node3 -->
<g id="edge2_Node000001_Node000003" class="edge">
<title>Node1&#45;&gt;Node3</title>
<g id="a_edge2_Node000001_Node000003"><a xlink:title=" ">
<path fill="none" stroke="#63b8ff" d="M609.2,-74.27C536.58,-63.24 422.88,-45.8 324.5,-30 316.9,-28.78 308.93,-27.48 301.04,-26.18"/>
<polygon fill="#63b8ff" stroke="#63b8ff" points="301.56,-22.72 291.12,-24.54 300.42,-29.62 301.56,-22.72"/>
</a>
</g>
</g>
<!-- Node4 -->
<g id="Node000004" class="node">
<title>Node4</title>
<g id="a_Node000004"><a xlink:title=" ">
<polygon fill="#e0e0e0" stroke="#999999" points="475,-30 334,-30 334,0 475,0 475,-30"/>
<text text-anchor="start" x="342" y="-18" font-family="Helvetica,sans-Serif" font-size="10.00">kcenon/common/patterns</text>
<text text-anchor="middle" x="404.5" y="-7" font-family="Helvetica,sans-Serif" font-size="10.00">/result.h</text>
</a>
</g>
</g>
<!-- Node1&#45;&gt;Node4 -->
<g id="edge3_Node000001_Node000004" class="edge">
<title>Node1&#45;&gt;Node4</title>
<g id="a_edge3_Node000001_Node000004"><a xlink:title=" ">
<path fill="none" stroke="#63b8ff" d="M609.47,-67.06C566.27,-56.3 512.25,-42.84 470.51,-32.44"/>
<polygon fill="#63b8ff" stroke="#63b8ff" points="471.27,-29.03 460.73,-30.01 469.58,-35.82 471.27,-29.03"/>
</a>
</g>
</g>
<!-- Node5 -->
<g id="Node000005" class="node">
<title>Node5</title>
<g id="a_Node000005"><a xlink:title=" ">
<polygon fill="#e0e0e0" stroke="#999999" points="543.5,-24.5 493.5,-24.5 493.5,-5.5 543.5,-5.5 543.5,-24.5"/>
<text text-anchor="middle" x="518.5" y="-12.5" font-family="Helvetica,sans-Serif" font-size="10.00">atomic</text>
</a>
</g>
</g>
<!-- Node1&#45;&gt;Node5 -->
<g id="edge4_Node000001_Node000005" class="edge">
<title>Node1&#45;&gt;Node5</title>
<g id="a_edge4_Node000001_Node000005"><a xlink:title=" ">
<path fill="none" stroke="#63b8ff" d="M637.1,-65.96C608.49,-53.9 572.66,-38.81 547.92,-28.39"/>
<polygon fill="#63b8ff" stroke="#63b8ff" points="549.26,-25.16 538.69,-24.5 546.55,-31.61 549.26,-25.16"/>
</a>
</g>
</g>
<!-- Node6 -->
<g id="Node000006" class="node">
<title>Node6</title>
<g id="a_Node000006"><a xlink:title=" ">
<polygon fill="#e0e0e0" stroke="#999999" points="611.5,-24.5 561.5,-24.5 561.5,-5.5 611.5,-5.5 611.5,-24.5"/>
<text text-anchor="middle" x="586.5" y="-12.5" font-family="Helvetica,sans-Serif" font-size="10.00">chrono</text>
</a>
</g>
</g>
<!-- Node1&#45;&gt;Node6 -->
<g id="edge5_Node000001_Node000006" class="edge">
<title>Node1&#45;&gt;Node6</title>
<g id="a_edge5_Node000001_Node000006"><a xlink:title=" ">
<path fill="none" stroke="#63b8ff" d="M656.22,-65.96C640.44,-54.65 620.93,-40.67 606.57,-30.38"/>
<polygon fill="#63b8ff" stroke="#63b8ff" points="608.54,-27.48 598.37,-24.5 604.46,-33.17 608.54,-27.48"/>
</a>
</g>
</g>
<!-- Node7 -->
<g id="Node000007" class="node">
<title>Node7</title>
<g id="a_Node000007"><a xlink:title=" ">
<polygon fill="#e0e0e0" stroke="#999999" points="737,-24.5 630,-24.5 630,-5.5 737,-5.5 737,-24.5"/>
<text text-anchor="middle" x="683.5" y="-12.5" font-family="Helvetica,sans-Serif" font-size="10.00">condition_variable</text>
</a>
</g>
</g>
<!-- Node1&#45;&gt;Node7 -->
<g id="edge6_Node000001_Node000007" class="edge">
<title>Node1&#45;&gt;Node7</title>
<g id="a_edge6_Node000001_Node000007"><a xlink:title=" ">
<path fill="none" stroke="#63b8ff" d="M683.5,-65.77C683.5,-56.08 683.5,-44.46 683.5,-34.88"/>
<polygon fill="#63b8ff" stroke="#63b8ff" points="687,-34.82 683.5,-24.82 680,-34.82 687,-34.82"/>
</a>
</g>
</g>
<!-- Node8 -->
<g id="Node000008" class="node">
<title>Node8</title>
<g id="a_Node000008"><a xlink:title=" ">
<polygon fill="#e0e0e0" stroke="#999999" points="820,-24.5 755,-24.5 755,-5.5 820,-5.5 820,-24.5"/>
<text text-anchor="middle" x="787.5" y="-12.5" font-family="Helvetica,sans-Serif" font-size="10.00">functional</text>
</a>
</g>
</g>
<!-- Node1&#45;&gt;Node8 -->
<g id="edge7_Node000001_Node000008" class="edge">
<title>Node1&#45;&gt;Node8</title>
<g id="a_edge7_Node000001_Node000008"><a xlink:title=" ">
<path fill="none" stroke="#63b8ff" d="M712.75,-65.96C729.82,-54.54 750.98,-40.41 766.42,-30.09"/>
<polygon fill="#63b8ff" stroke="#63b8ff" points="768.41,-32.97 774.78,-24.5 764.52,-27.15 768.41,-32.97"/>
</a>
</g>
</g>
<!-- Node9 -->
<g id="Node000009" class="node">
<title>Node9</title>
<g id="a_Node000009"><a xlink:title=" ">
<polygon fill="#e0e0e0" stroke="#999999" points="896.5,-24.5 838.5,-24.5 838.5,-5.5 896.5,-5.5 896.5,-24.5"/>
<text text-anchor="middle" x="867.5" y="-12.5" font-family="Helvetica,sans-Serif" font-size="10.00">memory</text>
</a>
</g>
</g>
<!-- Node1&#45;&gt;Node9 -->
<g id="edge8_Node000001_Node000009" class="edge">
<title>Node1&#45;&gt;Node9</title>
<g id="a_edge8_Node000001_Node000009"><a xlink:title=" ">
<path fill="none" stroke="#63b8ff" d="M735.24,-65.96C767.43,-53.8 807.81,-38.55 835.43,-28.11"/>
<polygon fill="#63b8ff" stroke="#63b8ff" points="836.87,-31.31 844.99,-24.5 834.4,-24.76 836.87,-31.31"/>
</a>
</g>
</g>
<!-- Node10 -->
<g id="Node000010" class="node">
<title>Node10</title>
<g id="a_Node000010"><a xlink:title=" ">
<polygon fill="#e0e0e0" stroke="#999999" points="962.5,-24.5 914.5,-24.5 914.5,-5.5 962.5,-5.5 962.5,-24.5"/>
<text text-anchor="middle" x="938.5" y="-12.5" font-family="Helvetica,sans-Serif" font-size="10.00">mutex</text>
</a>
</g>
</g>
<!-- Node1&#45;&gt;Node10 -->
<g id="edge9_Node000001_Node000010" class="edge">
<title>Node1&#45;&gt;Node10</title>
<g id="a_edge9_Node000001_Node000010"><a xlink:title=" ">
<path fill="none" stroke="#63b8ff" d="M757.57,-70.03C801.13,-60.18 857,-46.24 905.5,-30 907.12,-29.46 908.78,-28.87 910.44,-28.25"/>
<polygon fill="#63b8ff" stroke="#63b8ff" points="911.85,-31.46 919.85,-24.51 909.26,-24.95 911.85,-31.46"/>
</a>
</g>
</g>
<!-- Node11 -->
<g id="Node000011" class="node">
<title>Node11</title>
<g id="a_Node000011"><a xlink:title=" ">
<polygon fill="#e0e0e0" stroke="#999999" points="1028,-24.5 981,-24.5 981,-5.5 1028,-5.5 1028,-24.5"/>
<text text-anchor="middle" x="1004.5" y="-12.5" font-family="Helvetica,sans-Serif" font-size="10.00">queue</text>
</a>
</g>
</g>
<!-- Node1&#45;&gt;Node11 -->
<g id="edge10_Node000001_Node000011" class="edge">
<title>Node1&#45;&gt;Node11</title>
<g id="a_edge10_Node000001_Node000011"><a xlink:title=" ">
<path fill="none" stroke="#63b8ff" d="M757.63,-75.61C816.43,-66.73 900.26,-51.71 971.5,-30 973.18,-29.49 974.89,-28.92 976.6,-28.31"/>
<polygon fill="#63b8ff" stroke="#63b8ff" points="978.21,-31.44 986.25,-24.55 975.67,-24.92 978.21,-31.44"/>
</a>
</g>
</g>
<!-- Node12 -->
<g id="Node000012" class="node">
<title>Node12</title>
<g id="a_Node000012"><a xlink:title=" ">
<polygon fill="#e0e0e0" stroke="#999999" points="1094.5,-24.5 1046.5,-24.5 1046.5,-5.5 1094.5,-5.5 1094.5,-24.5"/>
<text text-anchor="middle" x="1070.5" y="-12.5" font-family="Helvetica,sans-Serif" font-size="10.00">thread</text>
</a>
</g>
</g>
<!-- Node1&#45;&gt;Node12 -->
<g id="edge11_Node000001_Node000012" class="edge">
<title>Node1&#45;&gt;Node12</title>
<g id="a_edge11_Node000001_Node000012"><a xlink:title=" ">
<path fill="none" stroke="#63b8ff" d="M757.52,-79.24C829.94,-71.87 942.84,-57.05 1037.5,-30 1039.38,-29.46 1041.31,-28.84 1043.22,-28.17"/>
<polygon fill="#63b8ff" stroke="#63b8ff" points="1044.58,-31.4 1052.63,-24.52 1042.05,-24.88 1044.58,-31.4"/>
</a>
</g>
</g>
</g>
</svg>
