<?xml version="1.0" encoding="UTF-8" standalone="no"?>
<!DOCTYPE svg PUBLIC "-//W3C//DTD SVG 1.1//EN"
 "http://www.w3.org/Graphics/SVG/1.1/DTD/svg11.dtd">
<!-- Generated by graphviz version 2.43.0 (0)
 -->
<!-- Title: include/kcenon/database_server/pooling/connection_pool.h Pages: 1 -->
<svg width="464pt" height="115pt"
 viewBox="0.00 0.00 464.00 115.00" xmlns="http://www.w3.org/2000/svg" xmlns:xlink="http://www.w3.org/1999/xlink">
<g id="graph0" class="graph" transform="scale(1 1) rotate(0) translate(4 111)">
<title>include/kcenon/database_server/pooling/connection_pool.h</title>
<!-- Node1 -->
<g id="Node000001" class="node">
<title>Node1</title>
<g id="a_Node000001"><a xlink:title="High&#45;performance connection pool with adaptive queue and priority scheduling.">
<polygon fill="#999999" stroke="#666666" points="305,-107 157,-107 157,-66 305,-66 305,-107"/>
<text text-anchor="start" x="165" y="-95" font-family="Helvetica,sans-Serif" font-size="10.00">include/kcenon/database</text>
<text text-anchor="start" x="165" y="-84" font-family="Helvetica,sans-Serif" font-size="10.00">_server/pooling/connection</text>
<text text-anchor="middle" x="231" y="-73" font-family="Helvetica,sans-Serif" font-size="10.00">_pool.h</text>
</a>
</g>
</g>
<!-- Node2 -->
<g id="Node000002" class="node">
<title>Node2</title>
<g id="a_Node000002"><a xlink:href="server__app_8cpp.html" target="_top" xlink:title=" ">
<polygon fill="white" stroke="#666666" points="132,-24.5 0,-24.5 0,-5.5 132,-5.5 132,-24.5"/>
<text text-anchor="middle" x="66" y="-12.5" font-family="Helvetica,sans-Serif" font-size="10.00">src/core/server_app.cpp</text>
</a>
</g>
</g>
<!-- Node1&#45;&gt;Node2 -->
<g id="edge1_Node000001_Node000002" class="edge">
<title>Node1&#45;&gt;Node2</title>
<g id="a_edge1_Node000001_Node000002"><a xlink:title=" ">
<path fill="none" stroke="#63b8ff" d="M175.26,-62.02C144.53,-49.08 108.24,-33.79 86.19,-24.5"/>
<polygon fill="#63b8ff" stroke="#63b8ff" points="174.02,-65.3 184.6,-65.96 176.74,-58.85 174.02,-65.3"/>
</a>
</g>
</g>
<!-- Node3 -->
<g id="Node000003" class="node">
<title>Node3</title>
<g id="a_Node000003"><a xlink:href="query__router_8cpp.html" target="_top" xlink:title=" ">
<polygon fill="white" stroke="#666666" points="311.5,-24.5 150.5,-24.5 150.5,-5.5 311.5,-5.5 311.5,-24.5"/>
<text text-anchor="middle" x="231" y="-12.5" font-family="Helvetica,sans-Serif" font-size="10.00">src/gateway/query_router.cpp</text>
</a>
</g>
</g>
<!-- Node1&#45;&gt;Node3 -->
<g id="edge2_Node000001_Node000003" class="edge">
<title>Node1&#45;&gt;Node3</title>
<g id="a_edge2_Node000001_Node000003"><a xlink:title=" ">
<path fill="none" stroke="#63b8ff" d="M231,-55.47C231,-44.35 231,-32.58 231,-24.82"/>
<polygon fill="#63b8ff" stroke="#63b8ff" points="227.5,-55.77 231,-65.77 234.5,-55.77 227.5,-55.77"/>
</a>
</g>
</g>
<!-- Node4 -->
<g id="Node000004" class="node">
<title>Node4</title>
<g id="a_Node000004"><a xlink:href="connection__pool_8cpp.html" target="_top" xlink:title=" ">
<polygon fill="white" stroke="#666666" points="456,-30 330,-30 330,0 456,0 456,-30"/>
<text text-anchor="start" x="338" y="-18" font-family="Helvetica,sans-Serif" font-size="10.00">src/pooling/connection</text>
<text text-anchor="middle" x="393" y="-7" font-family="Helvetica,sans-Serif" font-size="10.00">_pool.cpp</text>
</a>
</g>
</g>
<!-- Node1&#45;&gt;Node4 -->
<g id="edge3_Node000001_Node000004" class="edge">
<title>Node1&#45;&gt;Node4</title>
<g id="a_edge3_Node000001_Node000004"><a xlink:title=" ">
<path fill="none" stroke="#63b8ff" d="M285.84,-61.97C310.6,-51.35 339.01,-39.16 360.36,-30"/>
<polygon fill="#63b8ff" stroke="#63b8ff" points="284.37,-58.8 276.56,-65.96 287.13,-65.23 284.37,-58.8"/>
</a>
</g>
</g>
</g>
</svg>
