<?xml version="1.0" encoding="UTF-8" standalone="no"?>
<!DOCTYPE svg PUBLIC "-//W3C//DTD SVG 1.1//EN"
 "http://www.w3.org/Graphics/SVG/1.1/DTD/svg11.dtd">
<!-- Generated by graphviz version 2.43.0 (0)
 -->
<!-- Title: src/pooling/connection_pool.cpp Pages: 1 -->
<svg width="1809pt" height="302pt"
 viewBox="0.00 0.00 1809.00 302.00" xmlns="http://www.w3.org/2000/svg" xmlns:xlink="http://www.w3.org/1999/xlink">
<g id="graph0" class="graph" transform="scale(1 1) rotate(0) translate(4 298)">
<title>src/pooling/connection_pool.cpp</title>
<!-- Node1 -->
<g id="Node000001" class="node">
<title>Node1</title>
<g id="a_Node000001"><a xlink:title=" ">
<polygon fill="#999999" stroke="#666666" points="850.5,-294 724.5,-294 724.5,-264 850.5,-264 850.5,-294"/>
<text text-anchor="start" x="732.5" y="-282" font-family="Helvetica,sans-Serif" font-size="10.00">src/pooling/connection</text>
<text text-anchor="middle" x="787.5" y="-271" font-family="Helvetica,sans-Serif" font-size="10.00">_pool.cpp</text>
</a>
</g>
</g>
<!-- Node2 -->
<g id="Node000002" class="node">
<title>Node2</title>
<g id="a_Node000002"><a xlink:href="connection__pool_8h.html" target="_top" xlink:title="High&#45;performance connection pool with priority aging and scheduling.">
<polygon fill="white" stroke="#666666" points="861,-228 714,-228 714,-198 861,-198 861,-228"/>
<text text-anchor="start" x="722" y="-216" font-family="Helvetica,sans-Serif" font-size="10.00">kcenon/database_server</text>
<text text-anchor="middle" x="787.5" y="-205" font-family="Helvetica,sans-Serif" font-size="10.00">/pooling/connection_pool.h</text>
</a>
</g>
</g>
<!-- Node1&#45;&gt;Node2 -->
<g id="edge1_Node000001_Node000002" class="edge">
<title>Node1&#45;&gt;Node2</title>
<g id="a_edge1_Node000001_Node000002"><a xlink:title=" ">
<path fill="none" stroke="#63b8ff" d="M787.5,-263.8C787.5,-256.34 787.5,-246.99 787.5,-238.41"/>
<polygon fill="#63b8ff" stroke="#63b8ff" points="791,-238.16 787.5,-228.16 784,-238.16 791,-238.16"/>
</a>
</g>
</g>
<!-- Node3 -->
<g id="Node000003" class="node">
<title>Node3</title>
<g id="a_Node000003"><a xlink:href="connection__priority_8h.html" target="_top" xlink:title="Priority levels for connection acquisition requests.">
<polygon fill="white" stroke="#666666" points="245.5,-151 127.5,-151 127.5,-132 245.5,-132 245.5,-151"/>
<text text-anchor="middle" x="186.5" y="-139" font-family="Helvetica,sans-Serif" font-size="10.00">connection_priority.h</text>
</a>
</g>
</g>
<!-- Node2&#45;&gt;Node3 -->
<g id="edge2_Node000002_Node000003" class="edge">
<title>Node2&#45;&gt;Node3</title>
<g id="a_edge2_Node000002_Node000003"><a xlink:title=" ">
<path fill="none" stroke="#63b8ff" d="M713.65,-203.65C626.75,-193.8 478.12,-176.89 350.5,-162 319.42,-158.37 285.03,-154.3 255.81,-150.81"/>
<polygon fill="#63b8ff" stroke="#63b8ff" points="256.05,-147.31 245.7,-149.6 255.22,-154.26 256.05,-147.31"/>
</a>
</g>
</g>
<!-- Node5 -->
<g id="Node000005" class="node">
<title>Node5</title>
<g id="a_Node000005"><a xlink:href="pool__metrics_8h.html" target="_top" xlink:title="Performance metrics for connection pools.">
<polygon fill="white" stroke="#666666" points="449,-151 360,-151 360,-132 449,-132 449,-151"/>
<text text-anchor="middle" x="404.5" y="-139" font-family="Helvetica,sans-Serif" font-size="10.00">pool_metrics.h</text>
</a>
</g>
</g>
<!-- Node2&#45;&gt;Node5 -->
<g id="edge4_Node000002_Node000005" class="edge">
<title>Node2&#45;&gt;Node5</title>
<g id="a_edge4_Node000002_Node000005"><a xlink:title=" ">
<path fill="none" stroke="#63b8ff" d="M713.65,-198.6C639.12,-185.07 525.75,-164.5 459,-152.39"/>
<polygon fill="#63b8ff" stroke="#63b8ff" points="459.57,-148.94 449.1,-150.59 458.32,-155.82 459.57,-148.94"/>
</a>
</g>
</g>
<!-- Node7 -->
<g id="Node000007" class="node">
<title>Node7</title>
<g id="a_Node000007"><a xlink:title=" ">
<polygon fill="#e0e0e0" stroke="#999999" points="520.5,-19 470.5,-19 470.5,0 520.5,0 520.5,-19"/>
<text text-anchor="middle" x="495.5" y="-7" font-family="Helvetica,sans-Serif" font-size="10.00">atomic</text>
</a>
</g>
</g>
<!-- Node2&#45;&gt;Node7 -->
<g id="edge15_Node000002_Node000007" class="edge">
<title>Node2&#45;&gt;Node7</title>
<g id="a_edge15_Node000002_Node000007"><a xlink:title=" ">
<path fill="none" stroke="#63b8ff" d="M722.95,-197.98C698.89,-190.36 672.57,-178.91 652.5,-162 610.47,-126.59 631.02,-92.14 590.5,-55 573.27,-39.21 549.44,-28.07 529.96,-20.88"/>
<polygon fill="#63b8ff" stroke="#63b8ff" points="531.11,-17.58 520.52,-17.58 528.8,-24.18 531.11,-17.58"/>
</a>
</g>
</g>
<!-- Node10 -->
<g id="Node000010" class="node">
<title>Node10</title>
<g id="a_Node000010"><a xlink:title=" ">
<polygon fill="#e0e0e0" stroke="#999999" points="581.5,-79.5 531.5,-79.5 531.5,-60.5 581.5,-60.5 581.5,-79.5"/>
<text text-anchor="middle" x="556.5" y="-67.5" font-family="Helvetica,sans-Serif" font-size="10.00">chrono</text>
</a>
</g>
</g>
<!-- Node2&#45;&gt;Node10 -->
<g id="edge16_Node000002_Node000010" class="edge">
<title>Node2&#45;&gt;Node10</title>
<g id="a_edge16_Node000002_Node000010"><a xlink:title=" ">
<path fill="none" stroke="#63b8ff" d="M713.77,-208.18C674.68,-202.66 628.14,-190.08 595.5,-162 573.84,-143.37 563.87,-110.57 559.53,-89.85"/>
<polygon fill="#63b8ff" stroke="#63b8ff" points="562.93,-88.95 557.67,-79.75 556.04,-90.22 562.93,-88.95"/>
</a>
</g>
</g>
<!-- Node14 -->
<g id="Node000014" class="node">
<title>Node14</title>
<g id="a_Node000014"><a xlink:title=" ">
<polygon fill="#e0e0e0" stroke="#999999" points="703,-79.5 638,-79.5 638,-60.5 703,-60.5 703,-79.5"/>
<text text-anchor="middle" x="670.5" y="-67.5" font-family="Helvetica,sans-Serif" font-size="10.00">functional</text>
</a>
</g>
</g>
<!-- Node2&#45;&gt;Node14 -->
<g id="edge17_Node000002_Node000014" class="edge">
<title>Node2&#45;&gt;Node14</title>
<g id="a_edge17_Node000002_Node000014"><a xlink:title=" ">
<path fill="none" stroke="#63b8ff" d="M715.83,-197.89C696.61,-190.48 678,-179.19 666.5,-162 652.04,-140.37 657.82,-108.96 663.79,-89.27"/>
<polygon fill="#63b8ff" stroke="#63b8ff" points="667.15,-90.27 667.01,-79.67 660.51,-88.04 667.15,-90.27"/>
</a>
</g>
</g>
<!-- Node15 -->
<g id="Node000015" class="node">
<title>Node15</title>
<g id="a_Node000015"><a xlink:title=" ">
<polygon fill="#e0e0e0" stroke="#999999" points="721.5,-151 675.5,-151 675.5,-132 721.5,-132 721.5,-151"/>
<text text-anchor="middle" x="698.5" y="-139" font-family="Helvetica,sans-Serif" font-size="10.00">future</text>
</a>
</g>
</g>
<!-- Node2&#45;&gt;Node15 -->
<g id="edge18_Node000002_Node000015" class="edge">
<title>Node2&#45;&gt;Node15</title>
<g id="a_edge18_Node000002_Node000015"><a xlink:title=" ">
<path fill="none" stroke="#63b8ff" d="M769.49,-197.94C754.54,-186.26 733.33,-169.7 717.99,-157.72"/>
<polygon fill="#63b8ff" stroke="#63b8ff" points="719.76,-154.66 709.73,-151.27 715.45,-160.18 719.76,-154.66"/>
</a>
</g>
</g>
<!-- Node16 -->
<g id="Node000016" class="node">
<title>Node16</title>
<g id="a_Node000016"><a xlink:title=" ">
<polygon fill="#e0e0e0" stroke="#999999" points="779.5,-79.5 721.5,-79.5 721.5,-60.5 779.5,-60.5 779.5,-79.5"/>
<text text-anchor="middle" x="750.5" y="-67.5" font-family="Helvetica,sans-Serif" font-size="10.00">memory</text>
</a>
</g>
</g>
<!-- Node2&#45;&gt;Node16 -->
<g id="edge19_Node000002_Node000016" class="edge">
<title>Node2&#45;&gt;Node16</title>
<g id="a_edge19_Node000002_Node000016"><a xlink:title=" ">
<path fill="none" stroke="#63b8ff" d="M783.82,-197.96C777.1,-172.38 762.88,-118.18 755.37,-89.57"/>
<polygon fill="#63b8ff" stroke="#63b8ff" points="758.7,-88.44 752.77,-79.66 751.93,-90.22 758.7,-88.44"/>
</a>
</g>
</g>
<!-- Node17 -->
<g id="Node000017" class="node">
<title>Node17</title>
<g id="a_Node000017"><a xlink:title=" ">
<polygon fill="#e0e0e0" stroke="#999999" points="845.5,-79.5 797.5,-79.5 797.5,-60.5 845.5,-60.5 845.5,-79.5"/>
<text text-anchor="middle" x="821.5" y="-67.5" font-family="Helvetica,sans-Serif" font-size="10.00">thread</text>
</a>
</g>
</g>
<!-- Node2&#45;&gt;Node17 -->
<g id="edge20_Node000002_Node000017" class="edge">
<title>Node2&#45;&gt;Node17</title>
<g id="a_edge20_Node000002_Node000017"><a xlink:title=" ">
<path fill="none" stroke="#63b8ff" d="M790.09,-197.73C793.44,-179.74 799.67,-147.91 806.5,-121 809.16,-110.52 812.6,-98.95 815.51,-89.58"/>
<polygon fill="#63b8ff" stroke="#63b8ff" points="818.93,-90.38 818.61,-79.79 812.26,-88.26 818.93,-90.38"/>
</a>
</g>
</g>
<!-- Node18 -->
<g id="Node000018" class="node">
<title>Node18</title>
<g id="a_Node000018"><a xlink:title=" ">
<polygon fill="#e0e0e0" stroke="#999999" points="964,-156.5 815,-156.5 815,-126.5 964,-126.5 964,-156.5"/>
<text text-anchor="start" x="823" y="-144.5" font-family="Helvetica,sans-Serif" font-size="10.00">kcenon/common/interfaces</text>
<text text-anchor="middle" x="889.5" y="-133.5" font-family="Helvetica,sans-Serif" font-size="10.00">/logger_interface.h</text>
</a>
</g>
</g>
<!-- Node2&#45;&gt;Node18 -->
<g id="edge21_Node000002_Node000018" class="edge">
<title>Node2&#45;&gt;Node18</title>
<g id="a_edge21_Node000002_Node000018"><a xlink:title=" ">
<path fill="none" stroke="#63b8ff" d="M808.14,-197.94C823.21,-187.67 843.84,-173.61 860.56,-162.22"/>
<polygon fill="#63b8ff" stroke="#63b8ff" points="862.6,-165.07 868.89,-156.54 858.65,-159.28 862.6,-165.07"/>
</a>
</g>
</g>
<!-- Node19 -->
<g id="Node000019" class="node">
<title>Node19</title>
<g id="a_Node000019"><a xlink:href="connection__types_8h.html" target="_top" xlink:title="Connection pool types for database_server middleware.">
<polygon fill="white" stroke="#666666" points="1093,-151 982,-151 982,-132 1093,-132 1093,-151"/>
<text text-anchor="middle" x="1037.5" y="-139" font-family="Helvetica,sans-Serif" font-size="10.00">connection_types.h</text>
</a>
</g>
</g>
<!-- Node2&#45;&gt;Node19 -->
<g id="edge22_Node000002_Node000019" class="edge">
<title>Node2&#45;&gt;Node19</title>
<g id="a_edge22_Node000002_Node000019"><a xlink:title=" ">
<path fill="none" stroke="#63b8ff" d="M841.76,-197.92C878.92,-188.15 929.3,-174.67 973.5,-162 982.26,-159.49 991.67,-156.68 1000.49,-154"/>
<polygon fill="#63b8ff" stroke="#63b8ff" points="1001.61,-157.32 1010.15,-151.05 999.57,-150.63 1001.61,-157.32"/>
</a>
</g>
</g>
<!-- Node25 -->
<g id="Node000025" class="node">
<title>Node25</title>
<g id="a_Node000025"><a xlink:title=" ">
<polygon fill="#e0e0e0" stroke="#999999" points="1231.5,-156.5 1111.5,-156.5 1111.5,-126.5 1231.5,-126.5 1231.5,-156.5"/>
<text text-anchor="start" x="1119.5" y="-144.5" font-family="Helvetica,sans-Serif" font-size="10.00">kcenon/thread/core</text>
<text text-anchor="middle" x="1171.5" y="-133.5" font-family="Helvetica,sans-Serif" font-size="10.00">/cancellation_token.h</text>
</a>
</g>
</g>
<!-- Node2&#45;&gt;Node25 -->
<g id="edge34_Node000002_Node000025" class="edge">
<title>Node2&#45;&gt;Node25</title>
<g id="a_edge34_Node000002_Node000025"><a xlink:title=" ">
<path fill="none" stroke="#63b8ff" d="M861.16,-202.81C925.29,-194.22 1020.57,-180.01 1102.5,-162 1106.53,-161.11 1110.68,-160.13 1114.85,-159.09"/>
<polygon fill="#63b8ff" stroke="#63b8ff" points="1115.75,-162.47 1124.55,-156.57 1113.99,-155.69 1115.75,-162.47"/>
</a>
</g>
</g>
<!-- Node26 -->
<g id="Node000026" class="node">
<title>Node26</title>
<g id="a_Node000026"><a xlink:title=" ">
<polygon fill="#e0e0e0" stroke="#999999" points="1359.5,-156.5 1249.5,-156.5 1249.5,-126.5 1359.5,-126.5 1359.5,-156.5"/>
<text text-anchor="start" x="1257.5" y="-144.5" font-family="Helvetica,sans-Serif" font-size="10.00">kcenon/thread/core</text>
<text text-anchor="middle" x="1304.5" y="-133.5" font-family="Helvetica,sans-Serif" font-size="10.00">/error_handling.h</text>
</a>
</g>
</g>
<!-- Node2&#45;&gt;Node26 -->
<g id="edge35_Node000002_Node000026" class="edge">
<title>Node2&#45;&gt;Node26</title>
<g id="a_edge35_Node000002_Node000026"><a xlink:title=" ">
<path fill="none" stroke="#63b8ff" d="M861.12,-208.09C951.29,-202.33 1108.36,-189.18 1240.5,-162 1244.42,-161.19 1248.44,-160.25 1252.47,-159.22"/>
<polygon fill="#63b8ff" stroke="#63b8ff" points="1253.7,-162.52 1262.44,-156.52 1251.87,-155.76 1253.7,-162.52"/>
</a>
</g>
</g>
<!-- Node27 -->
<g id="Node000027" class="node">
<title>Node27</title>
<g id="a_Node000027"><a xlink:title=" ">
<polygon fill="#e0e0e0" stroke="#999999" points="1497,-156.5 1378,-156.5 1378,-126.5 1497,-126.5 1497,-156.5"/>
<text text-anchor="start" x="1386" y="-144.5" font-family="Helvetica,sans-Serif" font-size="10.00">kcenon/thread/core</text>
<text text-anchor="middle" x="1437.5" y="-133.5" font-family="Helvetica,sans-Serif" font-size="10.00">/typed_thread_pool.h</text>
</a>
</g>
</g>
<!-- Node2&#45;&gt;Node27 -->
<g id="edge36_Node000002_Node000027" class="edge">
<title>Node2&#45;&gt;Node27</title>
<g id="a_edge36_Node000002_Node000027"><a xlink:title=" ">
<path fill="none" stroke="#63b8ff" d="M861.01,-210.13C971.84,-206.32 1187.99,-194.97 1368.5,-162 1373.15,-161.15 1377.95,-160.12 1382.73,-158.99"/>
<polygon fill="#63b8ff" stroke="#63b8ff" points="1383.66,-162.37 1392.51,-156.54 1381.96,-155.58 1383.66,-162.37"/>
</a>
</g>
</g>
<!-- Node28 -->
<g id="Node000028" class="node">
<title>Node28</title>
<g id="a_Node000028"><a xlink:title=" ">
<polygon fill="#e0e0e0" stroke="#999999" points="1646,-156.5 1515,-156.5 1515,-126.5 1646,-126.5 1646,-156.5"/>
<text text-anchor="start" x="1523" y="-144.5" font-family="Helvetica,sans-Serif" font-size="10.00">kcenon/thread/core</text>
<text text-anchor="middle" x="1580.5" y="-133.5" font-family="Helvetica,sans-Serif" font-size="10.00">/typed_thread_worker.h</text>
</a>
</g>
</g>
<!-- Node2&#45;&gt;Node28 -->
<g id="edge37_Node000002_Node000028" class="edge">
<title>Node2&#45;&gt;Node28</title>
<g id="a_edge37_Node000002_Node000028"><a xlink:title=" ">
<path fill="none" stroke="#63b8ff" d="M861,-211.44C991.72,-209.43 1272.86,-200.56 1506.5,-162 1511.83,-161.12 1517.32,-160.03 1522.81,-158.82"/>
<polygon fill="#63b8ff" stroke="#63b8ff" points="1523.68,-162.21 1532.62,-156.52 1522.08,-155.39 1523.68,-162.21"/>
</a>
</g>
</g>
<!-- Node29 -->
<g id="Node000029" class="node">
<title>Node29</title>
<g id="a_Node000029"><a xlink:title=" ">
<polygon fill="#e0e0e0" stroke="#999999" points="1801,-162 1664,-162 1664,-121 1801,-121 1801,-162"/>
<text text-anchor="start" x="1672" y="-150" font-family="Helvetica,sans-Serif" font-size="10.00">kcenon/thread/impl</text>
<text text-anchor="start" x="1672" y="-139" font-family="Helvetica,sans-Serif" font-size="10.00">/typed_pool/aging_typed</text>
<text text-anchor="middle" x="1732.5" y="-128" font-family="Helvetica,sans-Serif" font-size="10.00">_job_queue.h</text>
</a>
</g>
</g>
<!-- Node2&#45;&gt;Node29 -->
<g id="edge38_Node000002_Node000029" class="edge">
<title>Node2&#45;&gt;Node29</title>
<g id="a_edge38_Node000002_Node000029"><a xlink:title=" ">
<path fill="none" stroke="#63b8ff" d="M861.15,-212.47C1009.75,-212.39 1355.95,-207.03 1653.66,-162.14"/>
<polygon fill="#63b8ff" stroke="#63b8ff" points="1654.43,-165.56 1663.79,-160.59 1653.37,-158.64 1654.43,-165.56"/>
</a>
</g>
</g>
<!-- Node4 -->
<g id="Node000004" class="node">
<title>Node4</title>
<g id="a_Node000004"><a xlink:title=" ">
<polygon fill="#e0e0e0" stroke="#999999" points="133,-85 0,-85 0,-55 133,-55 133,-85"/>
<text text-anchor="start" x="8" y="-73" font-family="Helvetica,sans-Serif" font-size="10.00">kcenon/thread/impl</text>
<text text-anchor="middle" x="66.5" y="-62" font-family="Helvetica,sans-Serif" font-size="10.00">/typed_pool/job_types.h</text>
</a>
</g>
</g>
<!-- Node3&#45;&gt;Node4 -->
<g id="edge3_Node000003_Node000004" class="edge">
<title>Node3&#45;&gt;Node4</title>
<g id="a_edge3_Node000003_Node000004"><a xlink:title=" ">
<path fill="none" stroke="#63b8ff" d="M171.79,-131.98C153.92,-121.63 123.23,-103.86 99.59,-90.16"/>
<polygon fill="#63b8ff" stroke="#63b8ff" points="101.32,-87.12 90.91,-85.14 97.81,-93.18 101.32,-87.12"/>
</a>
</g>
</g>
<!-- Node6 -->
<g id="Node000006" class="node">
<title>Node6</title>
<g id="a_Node000006"><a xlink:href="metrics__base_8h.html" target="_top" xlink:title="Common utilities for atomic metrics operations.">
<polygon fill="white" stroke="#666666" points="353.5,-85 251.5,-85 251.5,-55 353.5,-55 353.5,-85"/>
<text text-anchor="start" x="259.5" y="-73" font-family="Helvetica,sans-Serif" font-size="10.00">../metrics/metrics</text>
<text text-anchor="middle" x="302.5" y="-62" font-family="Helvetica,sans-Serif" font-size="10.00">_base.h</text>
</a>
</g>
</g>
<!-- Node5&#45;&gt;Node6 -->
<g id="edge5_Node000005_Node000006" class="edge">
<title>Node5&#45;&gt;Node6</title>
<g id="a_edge5_Node000005_Node000006"><a xlink:title=" ">
<path fill="none" stroke="#63b8ff" d="M391.99,-131.98C377.07,-121.81 351.64,-104.48 331.69,-90.89"/>
<polygon fill="#63b8ff" stroke="#63b8ff" points="333.48,-87.88 323.25,-85.14 329.54,-93.66 333.48,-87.88"/>
</a>
</g>
</g>
<!-- Node5&#45;&gt;Node7 -->
<g id="edge9_Node000005_Node000007" class="edge">
<title>Node5&#45;&gt;Node7</title>
<g id="a_edge9_Node000005_Node000007"><a xlink:title=" ">
<path fill="none" stroke="#63b8ff" d="M401,-131.65C395.1,-115.13 385.19,-79.08 400.5,-55 413.66,-34.3 439.27,-23.07 460.58,-17.06"/>
<polygon fill="#63b8ff" stroke="#63b8ff" points="461.49,-20.45 470.32,-14.59 459.76,-13.66 461.49,-20.45"/>
</a>
</g>
</g>
<!-- Node8 -->
<g id="Node000008" class="node">
<title>Node8</title>
<g id="a_Node000008"><a xlink:title=" ">
<polygon fill="#e0e0e0" stroke="#999999" points="255.5,-19 205.5,-19 205.5,0 255.5,0 255.5,-19"/>
<text text-anchor="middle" x="230.5" y="-7" font-family="Helvetica,sans-Serif" font-size="10.00">cstdint</text>
</a>
</g>
</g>
<!-- Node5&#45;&gt;Node8 -->
<g id="edge11_Node000005_Node000008" class="edge">
<title>Node5&#45;&gt;Node8</title>
<g id="a_edge11_Node000005_Node000008"><a xlink:title=" ">
<path fill="none" stroke="#63b8ff" d="M359.7,-137.47C322.59,-132.47 271.43,-119.33 242.5,-85 229.47,-69.53 227.79,-45.63 228.51,-29.09"/>
<polygon fill="#63b8ff" stroke="#63b8ff" points="232.01,-29.24 229.28,-19.01 225.03,-28.71 232.01,-29.24"/>
</a>
</g>
</g>
<!-- Node5&#45;&gt;Node10 -->
<g id="edge10_Node000005_Node000010" class="edge">
<title>Node5&#45;&gt;Node10</title>
<g id="a_edge10_Node000005_Node000010"><a xlink:title=" ">
<path fill="none" stroke="#63b8ff" d="M423.14,-131.98C449.46,-119.94 497.74,-97.87 528.42,-83.84"/>
<polygon fill="#63b8ff" stroke="#63b8ff" points="530.07,-86.93 537.71,-79.59 527.16,-80.57 530.07,-86.93"/>
</a>
</g>
</g>
<!-- Node11 -->
<g id="Node000011" class="node">
<title>Node11</title>
<g id="a_Node000011"><a xlink:title=" ">
<polygon fill="#e0e0e0" stroke="#999999" points="447.5,-79.5 409.5,-79.5 409.5,-60.5 447.5,-60.5 447.5,-79.5"/>
<text text-anchor="middle" x="428.5" y="-67.5" font-family="Helvetica,sans-Serif" font-size="10.00">map</text>
</a>
</g>
</g>
<!-- Node5&#45;&gt;Node11 -->
<g id="edge12_Node000005_Node000011" class="edge">
<title>Node5&#45;&gt;Node11</title>
<g id="a_edge12_Node000005_Node000011"><a xlink:title=" ">
<path fill="none" stroke="#63b8ff" d="M407.44,-131.98C411.11,-121.35 417.49,-102.89 422.26,-89.06"/>
<polygon fill="#63b8ff" stroke="#63b8ff" points="425.58,-90.19 425.53,-79.59 418.96,-87.9 425.58,-90.19"/>
</a>
</g>
</g>
<!-- Node12 -->
<g id="Node000012" class="node">
<title>Node12</title>
<g id="a_Node000012"><a xlink:title=" ">
<polygon fill="#e0e0e0" stroke="#999999" points="513.5,-79.5 465.5,-79.5 465.5,-60.5 513.5,-60.5 513.5,-79.5"/>
<text text-anchor="middle" x="489.5" y="-67.5" font-family="Helvetica,sans-Serif" font-size="10.00">mutex</text>
</a>
</g>
</g>
<!-- Node5&#45;&gt;Node12 -->
<g id="edge13_Node000005_Node000012" class="edge">
<title>Node5&#45;&gt;Node12</title>
<g id="a_edge13_Node000005_Node000012"><a xlink:title=" ">
<path fill="none" stroke="#63b8ff" d="M414.92,-131.98C428.81,-120.62 453.64,-100.32 470.81,-86.28"/>
<polygon fill="#63b8ff" stroke="#63b8ff" points="473.47,-88.63 478.99,-79.59 469.03,-83.21 473.47,-88.63"/>
</a>
</g>
</g>
<!-- Node13 -->
<g id="Node000013" class="node">
<title>Node13</title>
<g id="a_Node000013"><a xlink:title=" ">
<polygon fill="#e0e0e0" stroke="#999999" points="195.5,-79.5 151.5,-79.5 151.5,-60.5 195.5,-60.5 195.5,-79.5"/>
<text text-anchor="middle" x="173.5" y="-67.5" font-family="Helvetica,sans-Serif" font-size="10.00">string</text>
</a>
</g>
</g>
<!-- Node5&#45;&gt;Node13 -->
<g id="edge14_Node000005_Node000013" class="edge">
<title>Node5&#45;&gt;Node13</title>
<g id="a_edge14_Node000005_Node000013"><a xlink:title=" ">
<path fill="none" stroke="#63b8ff" d="M370.74,-131.92C331.62,-121.74 265.39,-103.77 209.5,-85 207.84,-84.44 206.14,-83.85 204.43,-83.24"/>
<polygon fill="#63b8ff" stroke="#63b8ff" points="205.29,-79.83 194.7,-79.62 202.85,-86.39 205.29,-79.83"/>
</a>
</g>
</g>
<!-- Node6&#45;&gt;Node7 -->
<g id="edge6_Node000006_Node000007" class="edge">
<title>Node6&#45;&gt;Node7</title>
<g id="a_edge6_Node000006_Node000007"><a xlink:title=" ">
<path fill="none" stroke="#63b8ff" d="M348.73,-54.99C383.14,-44.56 429.39,-30.54 460.71,-21.05"/>
<polygon fill="#63b8ff" stroke="#63b8ff" points="461.76,-24.38 470.32,-18.13 459.73,-17.68 461.76,-24.38"/>
</a>
</g>
</g>
<!-- Node6&#45;&gt;Node8 -->
<g id="edge7_Node000006_Node000008" class="edge">
<title>Node6&#45;&gt;Node8</title>
<g id="a_edge7_Node000006_Node000008"><a xlink:title=" ">
<path fill="none" stroke="#63b8ff" d="M285.07,-54.84C274.19,-46 260.2,-34.63 249.11,-25.62"/>
<polygon fill="#63b8ff" stroke="#63b8ff" points="251.26,-22.86 241.29,-19.27 246.84,-28.29 251.26,-22.86"/>
</a>
</g>
</g>
<!-- Node9 -->
<g id="Node000009" class="node">
<title>Node9</title>
<g id="a_Node000009"><a xlink:title=" ">
<polygon fill="#e0e0e0" stroke="#999999" points="324.5,-19 280.5,-19 280.5,0 324.5,0 324.5,-19"/>
<text text-anchor="middle" x="302.5" y="-7" font-family="Helvetica,sans-Serif" font-size="10.00">limits</text>
</a>
</g>
</g>
<!-- Node6&#45;&gt;Node9 -->
<g id="edge8_Node000006_Node000009" class="edge">
<title>Node6&#45;&gt;Node9</title>
<g id="a_edge8_Node000006_Node000009"><a xlink:title=" ">
<path fill="none" stroke="#63b8ff" d="M302.5,-54.84C302.5,-47.21 302.5,-37.7 302.5,-29.45"/>
<polygon fill="#63b8ff" stroke="#63b8ff" points="306,-29.27 302.5,-19.27 299,-29.27 306,-29.27"/>
</a>
</g>
</g>
<!-- Node19&#45;&gt;Node7 -->
<g id="edge26_Node000019_Node000007" class="edge">
<title>Node19&#45;&gt;Node7</title>
<g id="a_edge26_Node000019_Node000007"><a xlink:title=" ">
<path fill="none" stroke="#63b8ff" d="M1007.44,-131.93C977.26,-122.67 929.99,-106.31 892.5,-85 873.79,-74.37 874.35,-63.3 854.5,-55 796.53,-30.78 609.87,-17.23 531.1,-12.47"/>
<polygon fill="#63b8ff" stroke="#63b8ff" points="530.91,-8.96 520.72,-11.86 530.5,-15.95 530.91,-8.96"/>
</a>
</g>
</g>
<!-- Node19&#45;&gt;Node10 -->
<g id="edge27_Node000019_Node000010" class="edge">
<title>Node19&#45;&gt;Node10</title>
<g id="a_edge27_Node000019_Node000010"><a xlink:title=" ">
<path fill="none" stroke="#63b8ff" d="M1013.47,-131.98C1001.58,-128.08 986.93,-123.72 973.5,-121 822.84,-90.46 781.57,-107.5 629.5,-85 617.16,-83.17 603.73,-80.73 591.79,-78.4"/>
<polygon fill="#63b8ff" stroke="#63b8ff" points="592.24,-74.92 581.75,-76.39 590.87,-81.78 592.24,-74.92"/>
</a>
</g>
</g>
<!-- Node19&#45;&gt;Node12 -->
<g id="edge31_Node000019_Node000012" class="edge">
<title>Node19&#45;&gt;Node12</title>
<g id="a_edge31_Node000019_Node000012"><a xlink:title=" ">
<path fill="none" stroke="#63b8ff" d="M1013.8,-131.94C1001.86,-127.97 987.08,-123.58 973.5,-121 775.95,-83.48 717.8,-132.88 522.5,-85 520.55,-84.52 518.57,-83.94 516.59,-83.29"/>
<polygon fill="#63b8ff" stroke="#63b8ff" points="517.54,-79.91 506.95,-79.64 515.06,-86.46 517.54,-79.91"/>
</a>
</g>
</g>
<!-- Node19&#45;&gt;Node14 -->
<g id="edge29_Node000019_Node000014" class="edge">
<title>Node19&#45;&gt;Node14</title>
<g id="a_edge29_Node000019_Node000014"><a xlink:title=" ">
<path fill="none" stroke="#63b8ff" d="M1012.82,-131.98C1001.03,-128.17 986.66,-123.89 973.5,-121 859.13,-95.86 826.53,-111.63 712.5,-85 709.53,-84.31 706.47,-83.49 703.41,-82.61"/>
<polygon fill="#63b8ff" stroke="#63b8ff" points="704.42,-79.25 693.83,-79.62 702.34,-85.94 704.42,-79.25"/>
</a>
</g>
</g>
<!-- Node19&#45;&gt;Node16 -->
<g id="edge30_Node000019_Node000016" class="edge">
<title>Node19&#45;&gt;Node16</title>
<g id="a_edge30_Node000019_Node000016"><a xlink:title=" ">
<path fill="none" stroke="#63b8ff" d="M1011.51,-131.91C999.95,-128.27 986.12,-124.14 973.5,-121 892.22,-100.77 869.17,-107.55 788.5,-85 786.21,-84.36 783.87,-83.65 781.53,-82.89"/>
<polygon fill="#63b8ff" stroke="#63b8ff" points="782.6,-79.56 772.01,-79.61 780.32,-86.18 782.6,-79.56"/>
</a>
</g>
</g>
<!-- Node19&#45;&gt;Node17 -->
<g id="edge33_Node000019_Node000017" class="edge">
<title>Node19&#45;&gt;Node17</title>
<g id="a_edge33_Node000019_Node000017"><a xlink:title=" ">
<path fill="none" stroke="#63b8ff" d="M1009.52,-131.97C966.88,-118.93 887.62,-94.56 859.5,-85 857.65,-84.37 855.76,-83.72 853.85,-83.04"/>
<polygon fill="#63b8ff" stroke="#63b8ff" points="854.94,-79.72 844.34,-79.63 852.57,-86.3 854.94,-79.72"/>
</a>
</g>
</g>
<!-- Node20 -->
<g id="Node000020" class="node">
<title>Node20</title>
<g id="a_Node000020"><a xlink:title=" ">
<polygon fill="#e0e0e0" stroke="#999999" points="1035.5,-85 901.5,-85 901.5,-55 1035.5,-55 1035.5,-85"/>
<text text-anchor="start" x="909.5" y="-73" font-family="Helvetica,sans-Serif" font-size="10.00">database/core/database</text>
<text text-anchor="middle" x="968.5" y="-62" font-family="Helvetica,sans-Serif" font-size="10.00">_backend.h</text>
</a>
</g>
</g>
<!-- Node19&#45;&gt;Node20 -->
<g id="edge23_Node000019_Node000020" class="edge">
<title>Node19&#45;&gt;Node20</title>
<g id="a_edge23_Node000019_Node000020"><a xlink:title=" ">
<path fill="none" stroke="#63b8ff" d="M1029.04,-131.98C1019.35,-122.22 1003.12,-105.87 989.9,-92.55"/>
<polygon fill="#63b8ff" stroke="#63b8ff" points="992.07,-89.77 982.54,-85.14 987.1,-94.7 992.07,-89.77"/>
</a>
</g>
</g>
<!-- Node21 -->
<g id="Node000021" class="node">
<title>Node21</title>
<g id="a_Node000021"><a xlink:title=" ">
<polygon fill="#e0e0e0" stroke="#999999" points="1205,-79.5 1054,-79.5 1054,-60.5 1205,-60.5 1205,-79.5"/>
<text text-anchor="middle" x="1129.5" y="-67.5" font-family="Helvetica,sans-Serif" font-size="10.00">database/database_types.h</text>
</a>
</g>
</g>
<!-- Node19&#45;&gt;Node21 -->
<g id="edge24_Node000019_Node000021" class="edge">
<title>Node19&#45;&gt;Node21</title>
<g id="a_edge24_Node000019_Node000021"><a xlink:title=" ">
<path fill="none" stroke="#63b8ff" d="M1048.78,-131.98C1064.02,-120.46 1091.43,-99.76 1110.03,-85.71"/>
<polygon fill="#63b8ff" stroke="#63b8ff" points="1112.26,-88.41 1118.13,-79.59 1108.04,-82.83 1112.26,-88.41"/>
</a>
</g>
</g>
<!-- Node22 -->
<g id="Node000022" class="node">
<title>Node22</title>
<g id="a_Node000022"><a xlink:title=" ">
<polygon fill="#e0e0e0" stroke="#999999" points="1364,-85 1223,-85 1223,-55 1364,-55 1364,-85"/>
<text text-anchor="start" x="1231" y="-73" font-family="Helvetica,sans-Serif" font-size="10.00">kcenon/common/patterns</text>
<text text-anchor="middle" x="1293.5" y="-62" font-family="Helvetica,sans-Serif" font-size="10.00">/result.h</text>
</a>
</g>
</g>
<!-- Node19&#45;&gt;Node22 -->
<g id="edge25_Node000019_Node000022" class="edge">
<title>Node19&#45;&gt;Node22</title>
<g id="a_edge25_Node000019_Node000022"><a xlink:title=" ">
<path fill="none" stroke="#63b8ff" d="M1065.27,-131.93C1076.77,-128.45 1090.25,-124.44 1102.5,-121 1143.98,-109.35 1190.76,-97.09 1227.65,-87.62"/>
<polygon fill="#63b8ff" stroke="#63b8ff" points="1228.96,-90.9 1237.78,-85.03 1227.22,-84.12 1228.96,-90.9"/>
</a>
</g>
</g>
<!-- Node23 -->
<g id="Node000023" class="node">
<title>Node23</title>
<g id="a_Node000023"><a xlink:title=" ">
<polygon fill="#e0e0e0" stroke="#999999" points="1489,-79.5 1382,-79.5 1382,-60.5 1489,-60.5 1489,-79.5"/>
<text text-anchor="middle" x="1435.5" y="-67.5" font-family="Helvetica,sans-Serif" font-size="10.00">condition_variable</text>
</a>
</g>
</g>
<!-- Node19&#45;&gt;Node23 -->
<g id="edge28_Node000019_Node000023" class="edge">
<title>Node19&#45;&gt;Node23</title>
<g id="a_edge28_Node000019_Node000023"><a xlink:title=" ">
<path fill="none" stroke="#63b8ff" d="M1062.57,-131.96C1074.54,-128.15 1089.14,-123.87 1102.5,-121 1221.29,-95.46 1253.9,-106.4 1373.5,-85 1378.93,-84.03 1384.61,-82.9 1390.22,-81.72"/>
<polygon fill="#63b8ff" stroke="#63b8ff" points="1391.17,-85.09 1400.2,-79.55 1389.69,-78.25 1391.17,-85.09"/>
</a>
</g>
</g>
<!-- Node24 -->
<g id="Node000024" class="node">
<title>Node24</title>
<g id="a_Node000024"><a xlink:title=" ">
<polygon fill="#e0e0e0" stroke="#999999" points="1554,-79.5 1507,-79.5 1507,-60.5 1554,-60.5 1554,-79.5"/>
<text text-anchor="middle" x="1530.5" y="-67.5" font-family="Helvetica,sans-Serif" font-size="10.00">queue</text>
</a>
</g>
</g>
<!-- Node19&#45;&gt;Node24 -->
<g id="edge32_Node000019_Node000024" class="edge">
<title>Node19&#45;&gt;Node24</title>
<g id="a_edge32_Node000019_Node000024"><a xlink:title=" ">
<path fill="none" stroke="#63b8ff" d="M1061.9,-131.91C1073.97,-127.99 1088.85,-123.64 1102.5,-121 1276.01,-87.44 1327.34,-128.99 1498.5,-85 1500.39,-84.51 1502.32,-83.93 1504.24,-83.27"/>
<polygon fill="#63b8ff" stroke="#63b8ff" points="1505.56,-86.51 1513.59,-79.6 1503,-80 1505.56,-86.51"/>
</a>
</g>
</g>
</g>
</svg>
