<?xml version="1.0" encoding="UTF-8" standalone="no"?>
<!DOCTYPE svg PUBLIC "-//W3C//DTD SVG 1.1//EN"
 "http://www.w3.org/Graphics/SVG/1.1/DTD/svg11.dtd">
<!-- Generated by graphviz version 2.43.0 (0)
 -->
<!-- Title: include/kcenon/database_server/pooling/connection_types.h Pages: 1 -->
<svg width="1090pt" height="115pt"
 viewBox="0.00 0.00 1090.00 115.00" xmlns="http://www.w3.org/2000/svg" xmlns:xlink="http://www.w3.org/1999/xlink">
<g id="graph0" class="graph" transform="scale(1 1) rotate(0) translate(4 111)">
<title>include/kcenon/database_server/pooling/connection_types.h</title>
<!-- Node1 -->
<g id="Node000001" class="node">
<title>Node1</title>
<g id="a_Node000001"><a xlink:title="Connection pool types for database_server middleware.">
<polygon fill="#999999" stroke="#666666" points="745,-107 597,-107 597,-66 745,-66 745,-107"/>
<text text-anchor="start" x="605" y="-95" font-family="Helvetica,sans-Serif" font-size="10.00">include/kcenon/database</text>
<text text-anchor="start" x="605" y="-84" font-family="Helvetica,sans-Serif" font-size="10.00">_server/pooling/connection</text>
<text text-anchor="middle" x="671" y="-73" font-family="Helvetica,sans-Serif" font-size="10.00">_types.h</text>
</a>
</g>
</g>
<!-- Node2 -->
<g id="Node000002" class="node">
<title>Node2</title>
<g id="a_Node000002"><a xlink:title=" ">
<polygon fill="#e0e0e0" stroke="#999999" points="134,-30 0,-30 0,0 134,0 134,-30"/>
<text text-anchor="start" x="8" y="-18" font-family="Helvetica,sans-Serif" font-size="10.00">database/core/database</text>
<text text-anchor="middle" x="67" y="-7" font-family="Helvetica,sans-Serif" font-size="10.00">_backend.h</text>
</a>
</g>
</g>
<!-- Node1&#45;&gt;Node2 -->
<g id="edge1_Node000001_Node000002" class="edge">
<title>Node1&#45;&gt;Node2</title>
<g id="a_edge1_Node000001_Node000002"><a xlink:title=" ">
<path fill="none" stroke="#63b8ff" d="M596.88,-79.53C496.52,-71.05 311.64,-53.97 144.08,-30.09"/>
<polygon fill="#63b8ff" stroke="#63b8ff" points="144.49,-26.61 134.09,-28.65 143.49,-33.54 144.49,-26.61"/>
</a>
</g>
</g>
<!-- Node3 -->
<g id="Node000003" class="node">
<title>Node3</title>
<g id="a_Node000003"><a xlink:title=" ">
<polygon fill="#e0e0e0" stroke="#999999" points="303.5,-24.5 152.5,-24.5 152.5,-5.5 303.5,-5.5 303.5,-24.5"/>
<text text-anchor="middle" x="228" y="-12.5" font-family="Helvetica,sans-Serif" font-size="10.00">database/database_types.h</text>
</a>
</g>
</g>
<!-- Node1&#45;&gt;Node3 -->
<g id="edge2_Node000001_Node000003" class="edge">
<title>Node1&#45;&gt;Node3</title>
<g id="a_edge2_Node000001_Node000003"><a xlink:title=" ">
<path fill="none" stroke="#63b8ff" d="M596.7,-74.27C524.08,-63.24 410.38,-45.8 312,-30 304.4,-28.78 296.43,-27.48 288.54,-26.18"/>
<polygon fill="#63b8ff" stroke="#63b8ff" points="289.06,-22.72 278.62,-24.54 287.92,-29.62 289.06,-22.72"/>
</a>
</g>
</g>
<!-- Node4 -->
<g id="Node000004" class="node">
<title>Node4</title>
<g id="a_Node000004"><a xlink:title=" ">
<polygon fill="#e0e0e0" stroke="#999999" points="462.5,-30 321.5,-30 321.5,0 462.5,0 462.5,-30"/>
<text text-anchor="start" x="329.5" y="-18" font-family="Helvetica,sans-Serif" font-size="10.00">kcenon/common/patterns</text>
<text text-anchor="middle" x="392" y="-7" font-family="Helvetica,sans-Serif" font-size="10.00">/result.h</text>
</a>
</g>
</g>
<!-- Node1&#45;&gt;Node4 -->
<g id="edge3_Node000001_Node000004" class="edge">
<title>Node1&#45;&gt;Node4</title>
<g id="a_edge3_Node000001_Node000004"><a xlink:title=" ">
<path fill="none" stroke="#63b8ff" d="M596.97,-67.06C553.77,-56.3 499.75,-42.84 458.01,-32.44"/>
<polygon fill="#63b8ff" stroke="#63b8ff" points="458.77,-29.03 448.23,-30.01 457.08,-35.82 458.77,-29.03"/>
</a>
</g>
</g>
<!-- Node5 -->
<g id="Node000005" class="node">
<title>Node5</title>
<g id="a_Node000005"><a xlink:title=" ">
<polygon fill="#e0e0e0" stroke="#999999" points="531,-24.5 481,-24.5 481,-5.5 531,-5.5 531,-24.5"/>
<text text-anchor="middle" x="506" y="-12.5" font-family="Helvetica,sans-Serif" font-size="10.00">atomic</text>
</a>
</g>
</g>
<!-- Node1&#45;&gt;Node5 -->
<g id="edge4_Node000001_Node000005" class="edge">
<title>Node1&#45;&gt;Node5</title>
<g id="a_edge4_Node000001_Node000005"><a xlink:title=" ">
<path fill="none" stroke="#63b8ff" d="M624.6,-65.96C595.99,-53.9 560.16,-38.81 535.42,-28.39"/>
<polygon fill="#63b8ff" stroke="#63b8ff" points="536.76,-25.16 526.19,-24.5 534.05,-31.61 536.76,-25.16"/>
</a>
</g>
</g>
<!-- Node6 -->
<g id="Node000006" class="node">
<title>Node6</title>
<g id="a_Node000006"><a xlink:title=" ">
<polygon fill="#e0e0e0" stroke="#999999" points="599,-24.5 549,-24.5 549,-5.5 599,-5.5 599,-24.5"/>
<text text-anchor="middle" x="574" y="-12.5" font-family="Helvetica,sans-Serif" font-size="10.00">chrono</text>
</a>
</g>
</g>
<!-- Node1&#45;&gt;Node6 -->
<g id="edge5_Node000001_Node000006" class="edge">
<title>Node1&#45;&gt;Node6</title>
<g id="a_edge5_Node000001_Node000006"><a xlink:title=" ">
<path fill="none" stroke="#63b8ff" d="M643.72,-65.96C627.94,-54.65 608.43,-40.67 594.07,-30.38"/>
<polygon fill="#63b8ff" stroke="#63b8ff" points="596.04,-27.48 585.87,-24.5 591.96,-33.17 596.04,-27.48"/>
</a>
</g>
</g>
<!-- Node7 -->
<g id="Node000007" class="node">
<title>Node7</title>
<g id="a_Node000007"><a xlink:title=" ">
<polygon fill="#e0e0e0" stroke="#999999" points="724.5,-24.5 617.5,-24.5 617.5,-5.5 724.5,-5.5 724.5,-24.5"/>
<text text-anchor="middle" x="671" y="-12.5" font-family="Helvetica,sans-Serif" font-size="10.00">condition_variable</text>
</a>
</g>
</g>
<!-- Node1&#45;&gt;Node7 -->
<g id="edge6_Node000001_Node000007" class="edge">
<title>Node1&#45;&gt;Node7</title>
<g id="a_edge6_Node000001_Node000007"><a xlink:title=" ">
<path fill="none" stroke="#63b8ff" d="M671,-65.77C671,-56.08 671,-44.46 671,-34.88"/>
<polygon fill="#63b8ff" stroke="#63b8ff" points="674.5,-34.82 671,-24.82 667.5,-34.82 674.5,-34.82"/>
</a>
</g>
</g>
<!-- Node8 -->
<g id="Node000008" class="node">
<title>Node8</title>
<g id="a_Node000008"><a xlink:title=" ">
<polygon fill="#e0e0e0" stroke="#999999" points="807.5,-24.5 742.5,-24.5 742.5,-5.5 807.5,-5.5 807.5,-24.5"/>
<text text-anchor="middle" x="775" y="-12.5" font-family="Helvetica,sans-Serif" font-size="10.00">functional</text>
</a>
</g>
</g>
<!-- Node1&#45;&gt;Node8 -->
<g id="edge7_Node000001_Node000008" class="edge">
<title>Node1&#45;&gt;Node8</title>
<g id="a_edge7_Node000001_Node000008"><a xlink:title=" ">
<path fill="none" stroke="#63b8ff" d="M700.25,-65.96C717.32,-54.54 738.48,-40.41 753.92,-30.09"/>
<polygon fill="#63b8ff" stroke="#63b8ff" points="755.91,-32.97 762.28,-24.5 752.02,-27.15 755.91,-32.97"/>
</a>
</g>
</g>
<!-- Node9 -->
<g id="Node000009" class="node">
<title>Node9</title>
<g id="a_Node000009"><a xlink:title=" ">
<polygon fill="#e0e0e0" stroke="#999999" points="884,-24.5 826,-24.5 826,-5.5 884,-5.5 884,-24.5"/>
<text text-anchor="middle" x="855" y="-12.5" font-family="Helvetica,sans-Serif" font-size="10.00">memory</text>
</a>
</g>
</g>
<!-- Node1&#45;&gt;Node9 -->
<g id="edge8_Node000001_Node000009" class="edge">
<title>Node1&#45;&gt;Node9</title>
<g id="a_edge8_Node000001_Node000009"><a xlink:title=" ">
<path fill="none" stroke="#63b8ff" d="M722.74,-65.96C754.93,-53.8 795.31,-38.55 822.93,-28.11"/>
<polygon fill="#63b8ff" stroke="#63b8ff" points="824.37,-31.31 832.49,-24.5 821.9,-24.76 824.37,-31.31"/>
</a>
</g>
</g>
<!-- Node10 -->
<g id="Node000010" class="node">
<title>Node10</title>
<g id="a_Node000010"><a xlink:title=" ">
<polygon fill="#e0e0e0" stroke="#999999" points="950,-24.5 902,-24.5 902,-5.5 950,-5.5 950,-24.5"/>
<text text-anchor="middle" x="926" y="-12.5" font-family="Helvetica,sans-Serif" font-size="10.00">mutex</text>
</a>
</g>
</g>
<!-- Node1&#45;&gt;Node10 -->
<g id="edge9_Node000001_Node000010" class="edge">
<title>Node1&#45;&gt;Node10</title>
<g id="a_edge9_Node000001_Node000010"><a xlink:title=" ">
<path fill="none" stroke="#63b8ff" d="M745.07,-70.03C788.63,-60.18 844.5,-46.24 893,-30 894.62,-29.46 896.28,-28.87 897.94,-28.25"/>
<polygon fill="#63b8ff" stroke="#63b8ff" points="899.35,-31.46 907.35,-24.51 896.76,-24.95 899.35,-31.46"/>
</a>
</g>
</g>
<!-- Node11 -->
<g id="Node000011" class="node">
<title>Node11</title>
<g id="a_Node000011"><a xlink:title=" ">
<polygon fill="#e0e0e0" stroke="#999999" points="1015.5,-24.5 968.5,-24.5 968.5,-5.5 1015.5,-5.5 1015.5,-24.5"/>
<text text-anchor="middle" x="992" y="-12.5" font-family="Helvetica,sans-Serif" font-size="10.00">queue</text>
</a>
</g>
</g>
<!-- Node1&#45;&gt;Node11 -->
<g id="edge10_Node000001_Node000011" class="edge">
<title>Node1&#45;&gt;Node11</title>
<g id="a_edge10_Node000001_Node000011"><a xlink:title=" ">
<path fill="none" stroke="#63b8ff" d="M745.13,-75.61C803.93,-66.73 887.76,-51.71 959,-30 960.68,-29.49 962.39,-28.92 964.1,-28.31"/>
<polygon fill="#63b8ff" stroke="#63b8ff" points="965.71,-31.44 973.75,-24.55 963.17,-24.92 965.71,-31.44"/>
</a>
</g>
</g>
<!-- Node12 -->
<g id="Node000012" class="node">
<title>Node12</title>
<g id="a_Node000012"><a xlink:title=" ">
<polygon fill="#e0e0e0" stroke="#999999" points="1082,-24.5 1034,-24.5 1034,-5.5 1082,-5.5 1082,-24.5"/>
<text text-anchor="middle" x="1058" y="-12.5" font-family="Helvetica,sans-Serif" font-size="10.00">thread</text>
</a>
</g>
</g>
<!-- Node1&#45;&gt;Node12 -->
<g id="edge11_Node000001_Node000012" class="edge">
<title>Node1&#45;&gt;Node12</title>
<g id="a_edge11_Node000001_Node000012"><a xlink:title=" ">
<path fill="none" stroke="#63b8ff" d="M745.02,-79.24C817.44,-71.87 930.34,-57.05 1025,-30 1026.88,-29.46 1028.81,-28.84 1030.72,-28.17"/>
<polygon fill="#63b8ff" stroke="#63b8ff" points="1032.08,-31.4 1040.13,-24.52 1029.55,-24.88 1032.08,-31.4"/>
</a>
</g>
</g>
</g>
</svg>
