<?xml version="1.0" encoding="UTF-8" standalone="no"?>
<!DOCTYPE svg PUBLIC "-//W3C//DTD SVG 1.1//EN"
 "http://www.w3.org/Graphics/SVG/1.1/DTD/svg11.dtd">
<!-- Generated by graphviz version 2.43.0 (0)
 -->
<!-- Title: include/kcenon/database_server/pooling/connection_priority.h Pages: 1 -->
<svg width="485pt" height="335pt"
 viewBox="0.00 0.00 484.50 335.00" xmlns="http://www.w3.org/2000/svg" xmlns:xlink="http://www.w3.org/1999/xlink">
<g id="graph0" class="graph" transform="scale(1 1) rotate(0) translate(4 331)">
<title>include/kcenon/database_server/pooling/connection_priority.h</title>
<!-- Node1 -->
<g id="Node000001" class="node">
<title>Node1</title>
<g id="a_Node000001"><a xlink:title="Priority levels for connection acquisition requests.">
<polygon fill="#999999" stroke="#666666" points="324,-327 176,-327 176,-286 324,-286 324,-327"/>
<text text-anchor="start" x="184" y="-315" font-family="Helvetica,sans-Serif" font-size="10.00">include/kcenon/database</text>
<text text-anchor="start" x="184" y="-304" font-family="Helvetica,sans-Serif" font-size="10.00">_server/pooling/connection</text>
<text text-anchor="middle" x="250" y="-293" font-family="Helvetica,sans-Serif" font-size="10.00">_priority.h</text>
</a>
</g>
</g>
<!-- Node2 -->
<g id="Node000002" class="node">
<title>Node2</title>
<g id="a_Node000002"><a xlink:href="query__handlers_8h.html" target="_top" xlink:title="CRTP&#45;based query handlers for database gateway.">
<polygon fill="white" stroke="#666666" points="174,-173 36,-173 36,-132 174,-132 174,-173"/>
<text text-anchor="start" x="44" y="-161" font-family="Helvetica,sans-Serif" font-size="10.00">include/kcenon/database</text>
<text text-anchor="start" x="44" y="-150" font-family="Helvetica,sans-Serif" font-size="10.00">_server/gateway/query</text>
<text text-anchor="middle" x="105" y="-139" font-family="Helvetica,sans-Serif" font-size="10.00">_handlers.h</text>
</a>
</g>
</g>
<!-- Node1&#45;&gt;Node2 -->
<g id="edge1_Node000001_Node000002" class="edge">
<title>Node1&#45;&gt;Node2</title>
<g id="a_edge1_Node000001_Node000002"><a xlink:title=" ">
<path fill="none" stroke="#63b8ff" d="M205.51,-280.56C192.24,-271.9 178.26,-261.47 167,-250 144.26,-226.84 125.34,-194.05 114.6,-173.28"/>
<polygon fill="#63b8ff" stroke="#63b8ff" points="203.76,-283.59 214.08,-285.98 207.5,-277.68 203.76,-283.59"/>
</a>
</g>
</g>
<!-- Node5 -->
<g id="Node000005" class="node">
<title>Node5</title>
<g id="a_Node000005"><a xlink:href="query__router_8cpp.html" target="_top" xlink:title=" ">
<polygon fill="white" stroke="#666666" points="476.5,-19 315.5,-19 315.5,0 476.5,0 476.5,-19"/>
<text text-anchor="middle" x="396" y="-7" font-family="Helvetica,sans-Serif" font-size="10.00">src/gateway/query_router.cpp</text>
</a>
</g>
</g>
<!-- Node1&#45;&gt;Node5 -->
<g id="edge11_Node000001_Node000005" class="edge">
<title>Node1&#45;&gt;Node5</title>
<g id="a_edge11_Node000001_Node000005"><a xlink:title=" ">
<path fill="none" stroke="#63b8ff" d="M293.68,-280.32C307.03,-271.6 321.27,-261.18 333,-250 363.82,-220.62 371.41,-211.31 390,-173 413.25,-125.08 419.62,-107.57 411,-55 408.89,-42.13 403.56,-27.96 399.86,-19.15"/>
<polygon fill="#63b8ff" stroke="#63b8ff" points="291.64,-277.48 285.08,-285.8 295.39,-283.39 291.64,-277.48"/>
</a>
</g>
</g>
<!-- Node7 -->
<g id="Node000007" class="node">
<title>Node7</title>
<g id="a_Node000007"><a xlink:href="connection__pool_8h.html" target="_top" xlink:title="High&#45;performance connection pool with priority aging and scheduling.">
<polygon fill="white" stroke="#666666" points="324,-250 176,-250 176,-209 324,-209 324,-250"/>
<text text-anchor="start" x="184" y="-238" font-family="Helvetica,sans-Serif" font-size="10.00">include/kcenon/database</text>
<text text-anchor="start" x="184" y="-227" font-family="Helvetica,sans-Serif" font-size="10.00">_server/pooling/connection</text>
<text text-anchor="middle" x="250" y="-216" font-family="Helvetica,sans-Serif" font-size="10.00">_pool.h</text>
</a>
</g>
</g>
<!-- Node1&#45;&gt;Node7 -->
<g id="edge6_Node000001_Node000007" class="edge">
<title>Node1&#45;&gt;Node7</title>
<g id="a_edge6_Node000001_Node000007"><a xlink:title=" ">
<path fill="none" stroke="#63b8ff" d="M250,-275.69C250,-267.08 250,-257.9 250,-250.07"/>
<polygon fill="#63b8ff" stroke="#63b8ff" points="246.5,-275.79 250,-285.79 253.5,-275.79 246.5,-275.79"/>
</a>
</g>
</g>
<!-- Node3 -->
<g id="Node000003" class="node">
<title>Node3</title>
<g id="a_Node000003"><a xlink:href="query__router_8h.html" target="_top" xlink:title="Query router with load balancing for database gateway.">
<polygon fill="white" stroke="#666666" points="368,-96 230,-96 230,-55 368,-55 368,-96"/>
<text text-anchor="start" x="238" y="-84" font-family="Helvetica,sans-Serif" font-size="10.00">include/kcenon/database</text>
<text text-anchor="start" x="238" y="-73" font-family="Helvetica,sans-Serif" font-size="10.00">_server/gateway/query</text>
<text text-anchor="middle" x="299" y="-62" font-family="Helvetica,sans-Serif" font-size="10.00">_router.h</text>
</a>
</g>
</g>
<!-- Node2&#45;&gt;Node3 -->
<g id="edge2_Node000002_Node000003" class="edge">
<title>Node2&#45;&gt;Node3</title>
<g id="a_edge2_Node000002_Node000003"><a xlink:title=" ">
<path fill="none" stroke="#63b8ff" d="M165.09,-128.27C191.82,-117.94 222.94,-105.9 248.45,-96.04"/>
<polygon fill="#63b8ff" stroke="#63b8ff" points="163.53,-125.12 155.46,-131.99 166.05,-131.65 163.53,-125.12"/>
</a>
</g>
</g>
<!-- Node6 -->
<g id="Node000006" class="node">
<title>Node6</title>
<g id="a_Node000006"><a xlink:href="query__handlers_8cpp.html" target="_top" xlink:title=" ">
<polygon fill="white" stroke="#666666" points="174,-85 0,-85 0,-66 174,-66 174,-85"/>
<text text-anchor="middle" x="87" y="-73" font-family="Helvetica,sans-Serif" font-size="10.00">src/gateway/query_handlers.cpp</text>
</a>
</g>
</g>
<!-- Node2&#45;&gt;Node6 -->
<g id="edge5_Node000002_Node000006" class="edge">
<title>Node2&#45;&gt;Node6</title>
<g id="a_edge5_Node000002_Node000006"><a xlink:title=" ">
<path fill="none" stroke="#63b8ff" d="M97.85,-121.7C94.7,-108.59 91.24,-94.18 89.1,-85.24"/>
<polygon fill="#63b8ff" stroke="#63b8ff" points="94.53,-122.89 100.27,-131.79 101.34,-121.25 94.53,-122.89"/>
</a>
</g>
</g>
<!-- Node4 -->
<g id="Node000004" class="node">
<title>Node4</title>
<g id="a_Node000004"><a xlink:href="server__app_8cpp.html" target="_top" xlink:title=" ">
<polygon fill="white" stroke="#666666" points="283,-19 151,-19 151,0 283,0 283,-19"/>
<text text-anchor="middle" x="217" y="-7" font-family="Helvetica,sans-Serif" font-size="10.00">src/core/server_app.cpp</text>
</a>
</g>
</g>
<!-- Node3&#45;&gt;Node4 -->
<g id="edge3_Node000003_Node000004" class="edge">
<title>Node3&#45;&gt;Node4</title>
<g id="a_edge3_Node000003_Node000004"><a xlink:title=" ">
<path fill="none" stroke="#63b8ff" d="M265.83,-48.61C252.45,-38.17 237.93,-26.83 228.22,-19.26"/>
<polygon fill="#63b8ff" stroke="#63b8ff" points="263.92,-51.56 273.95,-54.95 268.22,-46.04 263.92,-51.56"/>
</a>
</g>
</g>
<!-- Node3&#45;&gt;Node5 -->
<g id="edge4_Node000003_Node000005" class="edge">
<title>Node3&#45;&gt;Node5</title>
<g id="a_edge4_Node000003_Node000005"><a xlink:title=" ">
<path fill="none" stroke="#63b8ff" d="M337.4,-49.16C353.57,-38.5 371.3,-26.8 382.98,-19.09"/>
<polygon fill="#63b8ff" stroke="#63b8ff" points="335.05,-46.52 328.63,-54.95 338.9,-52.36 335.05,-46.52"/>
</a>
</g>
</g>
<!-- Node7&#45;&gt;Node2 -->
<g id="edge7_Node000007_Node000002" class="edge">
<title>Node7&#45;&gt;Node2</title>
<g id="a_edge7_Node000007_Node000002"><a xlink:title=" ">
<path fill="none" stroke="#63b8ff" d="M203.24,-204.31C183.68,-194.2 161.26,-182.6 142.78,-173.04"/>
<polygon fill="#63b8ff" stroke="#63b8ff" points="201.79,-207.5 212.28,-208.99 205.01,-201.29 201.79,-207.5"/>
</a>
</g>
</g>
<!-- Node7&#45;&gt;Node4 -->
<g id="edge8_Node000007_Node000004" class="edge">
<title>Node7&#45;&gt;Node4</title>
<g id="a_edge8_Node000007_Node000004"><a xlink:title=" ">
<path fill="none" stroke="#63b8ff" d="M231.9,-199.9C227.49,-191.54 223.37,-182.18 221,-173 206.23,-115.9 212.91,-43.72 215.86,-19.15"/>
<polygon fill="#63b8ff" stroke="#63b8ff" points="228.97,-201.83 236.91,-208.85 235.07,-198.41 228.97,-201.83"/>
</a>
</g>
</g>
<!-- Node7&#45;&gt;Node5 -->
<g id="edge9_Node000007_Node000005" class="edge">
<title>Node7&#45;&gt;Node5</title>
<g id="a_edge9_Node000007_Node000005"><a xlink:title=" ">
<path fill="none" stroke="#63b8ff" d="M325.77,-204.39C340.68,-196.51 354.83,-186.25 365,-173 401.91,-124.93 399.03,-45.71 396.88,-19.34"/>
<polygon fill="#63b8ff" stroke="#63b8ff" points="323.85,-201.44 316.43,-208.99 326.94,-207.71 323.85,-201.44"/>
</a>
</g>
</g>
<!-- Node8 -->
<g id="Node000008" class="node">
<title>Node8</title>
<g id="a_Node000008"><a xlink:href="connection__pool_8cpp.html" target="_top" xlink:title=" ">
<polygon fill="white" stroke="#666666" points="356,-167.5 230,-167.5 230,-137.5 356,-137.5 356,-167.5"/>
<text text-anchor="start" x="238" y="-155.5" font-family="Helvetica,sans-Serif" font-size="10.00">src/pooling/connection</text>
<text text-anchor="middle" x="293" y="-144.5" font-family="Helvetica,sans-Serif" font-size="10.00">_pool.cpp</text>
</a>
</g>
</g>
<!-- Node7&#45;&gt;Node8 -->
<g id="edge10_Node000007_Node000008" class="edge">
<title>Node7&#45;&gt;Node8</title>
<g id="a_edge10_Node000007_Node000008"><a xlink:title=" ">
<path fill="none" stroke="#63b8ff" d="M266.38,-199.93C272.66,-188.97 279.56,-176.93 284.77,-167.86"/>
<polygon fill="#63b8ff" stroke="#63b8ff" points="263.24,-198.38 261.3,-208.79 269.31,-201.86 263.24,-198.38"/>
</a>
</g>
</g>
</g>
</svg>
