<?xml version="1.0" encoding="UTF-8" standalone="no"?>
<!DOCTYPE svg PUBLIC "-//W3C//DTD SVG 1.1//EN"
 "http://www.w3.org/Graphics/SVG/1.1/DTD/svg11.dtd">
<!-- Generated by graphviz version 2.43.0 (0)
 -->
<!-- Title: include/kcenon/database_server/logging/console_logger.h Pages: 1 -->
<svg width="429pt" height="115pt"
 viewBox="0.00 0.00 428.50 115.00" xmlns="http://www.w3.org/2000/svg" xmlns:xlink="http://www.w3.org/1999/xlink">
<g id="graph0" class="graph" transform="scale(1 1) rotate(0) translate(4 111)">
<title>include/kcenon/database_server/logging/console_logger.h</title>
<!-- Node1 -->
<g id="Node000001" class="node">
<title>Node1</title>
<g id="a_Node000001"><a xlink:title="Console logger implementation for database_server.">
<polygon fill="#999999" stroke="#666666" points="332.5,-107 194.5,-107 194.5,-66 332.5,-66 332.5,-107"/>
<text text-anchor="start" x="202.5" y="-95" font-family="Helvetica,sans-Serif" font-size="10.00">include/kcenon/database</text>
<text text-anchor="start" x="202.5" y="-84" font-family="Helvetica,sans-Serif" font-size="10.00">_server/logging/console</text>
<text text-anchor="middle" x="263.5" y="-73" font-family="Helvetica,sans-Serif" font-size="10.00">_logger.h</text>
</a>
</g>
</g>
<!-- Node2 -->
<g id="Node000002" class="node">
<title>Node2</title>
<g id="a_Node000002"><a xlink:title=" ">
<polygon fill="#e0e0e0" stroke="#999999" points="149,-30 0,-30 0,0 149,0 149,-30"/>
<text text-anchor="start" x="8" y="-18" font-family="Helvetica,sans-Serif" font-size="10.00">kcenon/common/interfaces</text>
<text text-anchor="middle" x="74.5" y="-7" font-family="Helvetica,sans-Serif" font-size="10.00">/logger_interface.h</text>
</a>
</g>
</g>
<!-- Node1&#45;&gt;Node2 -->
<g id="edge1_Node000001_Node000002" class="edge">
<title>Node1&#45;&gt;Node2</title>
<g id="a_edge1_Node000001_Node000002"><a xlink:title=" ">
<path fill="none" stroke="#63b8ff" d="M210.35,-65.96C182.64,-55.76 149.01,-43.4 122.15,-33.52"/>
<polygon fill="#63b8ff" stroke="#63b8ff" points="123.18,-30.17 112.58,-30 120.76,-36.74 123.18,-30.17"/>
</a>
</g>
</g>
<!-- Node3 -->
<g id="Node000003" class="node">
<title>Node3</title>
<g id="a_Node000003"><a xlink:title=" ">
<polygon fill="#e0e0e0" stroke="#999999" points="216.5,-24.5 166.5,-24.5 166.5,-5.5 216.5,-5.5 216.5,-24.5"/>
<text text-anchor="middle" x="191.5" y="-12.5" font-family="Helvetica,sans-Serif" font-size="10.00">atomic</text>
</a>
</g>
</g>
<!-- Node1&#45;&gt;Node3 -->
<g id="edge2_Node000001_Node000003" class="edge">
<title>Node1&#45;&gt;Node3</title>
<g id="a_edge2_Node000001_Node000003"><a xlink:title=" ">
<path fill="none" stroke="#63b8ff" d="M243.06,-65.77C231.93,-55.02 218.34,-41.91 207.91,-31.84"/>
<polygon fill="#63b8ff" stroke="#63b8ff" points="210.26,-29.25 200.64,-24.82 205.4,-34.28 210.26,-29.25"/>
</a>
</g>
</g>
<!-- Node4 -->
<g id="Node000004" class="node">
<title>Node4</title>
<g id="a_Node000004"><a xlink:title=" ">
<polygon fill="#e0e0e0" stroke="#999999" points="292.5,-24.5 234.5,-24.5 234.5,-5.5 292.5,-5.5 292.5,-24.5"/>
<text text-anchor="middle" x="263.5" y="-12.5" font-family="Helvetica,sans-Serif" font-size="10.00">memory</text>
</a>
</g>
</g>
<!-- Node1&#45;&gt;Node4 -->
<g id="edge3_Node000001_Node000004" class="edge">
<title>Node1&#45;&gt;Node4</title>
<g id="a_edge3_Node000001_Node000004"><a xlink:title=" ">
<path fill="none" stroke="#63b8ff" d="M263.5,-65.77C263.5,-56.08 263.5,-44.46 263.5,-34.88"/>
<polygon fill="#63b8ff" stroke="#63b8ff" points="267,-34.82 263.5,-24.82 260,-34.82 267,-34.82"/>
</a>
</g>
</g>
<!-- Node5 -->
<g id="Node000005" class="node">
<title>Node5</title>
<g id="a_Node000005"><a xlink:title=" ">
<polygon fill="#e0e0e0" stroke="#999999" points="358.5,-24.5 310.5,-24.5 310.5,-5.5 358.5,-5.5 358.5,-24.5"/>
<text text-anchor="middle" x="334.5" y="-12.5" font-family="Helvetica,sans-Serif" font-size="10.00">mutex</text>
</a>
</g>
</g>
<!-- Node1&#45;&gt;Node5 -->
<g id="edge4_Node000001_Node000005" class="edge">
<title>Node1&#45;&gt;Node5</title>
<g id="a_edge4_Node000001_Node000005"><a xlink:title=" ">
<path fill="none" stroke="#63b8ff" d="M283.66,-65.77C294.63,-55.02 308.03,-41.91 318.32,-31.84"/>
<polygon fill="#63b8ff" stroke="#63b8ff" points="320.79,-34.32 325.49,-24.82 315.9,-29.31 320.79,-34.32"/>
</a>
</g>
</g>
<!-- Node6 -->
<g id="Node000006" class="node">
<title>Node6</title>
<g id="a_Node000006"><a xlink:title=" ">
<polygon fill="#e0e0e0" stroke="#999999" points="420.5,-24.5 376.5,-24.5 376.5,-5.5 420.5,-5.5 420.5,-24.5"/>
<text text-anchor="middle" x="398.5" y="-12.5" font-family="Helvetica,sans-Serif" font-size="10.00">string</text>
</a>
</g>
</g>
<!-- Node1&#45;&gt;Node6 -->
<g id="edge5_Node000001_Node000006" class="edge">
<title>Node1&#45;&gt;Node6</title>
<g id="a_edge5_Node000001_Node000006"><a xlink:title=" ">
<path fill="none" stroke="#63b8ff" d="M301.46,-65.96C324.35,-54.17 352.89,-39.48 373.08,-29.09"/>
<polygon fill="#63b8ff" stroke="#63b8ff" points="374.69,-32.19 381.98,-24.5 371.49,-25.97 374.69,-32.19"/>
</a>
</g>
</g>
</g>
</svg>
