<?xml version="1.0" encoding="UTF-8" standalone="no"?>
<!DOCTYPE svg PUBLIC "-//W3C//DTD SVG 1.1//EN"
 "http://www.w3.org/Graphics/SVG/1.1/DTD/svg11.dtd">
<!-- Generated by graphviz version 2.43.0 (0)
 -->
<!-- Title: src/logging/console_logger.cpp Pages: 1 -->
<svg width="636pt" height="170pt"
 viewBox="0.00 0.00 635.50 170.00" xmlns="http://www.w3.org/2000/svg" xmlns:xlink="http://www.w3.org/1999/xlink">
<g id="graph0" class="graph" transform="scale(1 1) rotate(0) translate(4 166)">
<title>src/logging/console_logger.cpp</title>
<!-- Node1 -->
<g id="Node000001" class="node">
<title>Node1</title>
<g id="a_Node000001"><a xlink:title=" ">
<polygon fill="#999999" stroke="#666666" points="502.5,-162 392.5,-162 392.5,-132 502.5,-132 502.5,-162"/>
<text text-anchor="start" x="400.5" y="-150" font-family="Helvetica,sans-Serif" font-size="10.00">src/logging/console</text>
<text text-anchor="middle" x="447.5" y="-139" font-family="Helvetica,sans-Serif" font-size="10.00">_logger.cpp</text>
</a>
</g>
</g>
<!-- Node2 -->
<g id="Node000002" class="node">
<title>Node2</title>
<g id="a_Node000002"><a xlink:href="console__logger_8h.html" target="_top" xlink:title="Console logger implementation for database_server.">
<polygon fill="white" stroke="#666666" points="333.5,-96 193.5,-96 193.5,-66 333.5,-66 333.5,-96"/>
<text text-anchor="start" x="201.5" y="-84" font-family="Helvetica,sans-Serif" font-size="10.00">kcenon/database_server</text>
<text text-anchor="middle" x="263.5" y="-73" font-family="Helvetica,sans-Serif" font-size="10.00">/logging/console_logger.h</text>
</a>
</g>
</g>
<!-- Node1&#45;&gt;Node2 -->
<g id="edge1_Node000001_Node000002" class="edge">
<title>Node1&#45;&gt;Node2</title>
<g id="a_edge1_Node000001_Node000002"><a xlink:title=" ">
<path fill="none" stroke="#63b8ff" d="M407.12,-131.95C379.56,-122.37 342.86,-109.6 313.45,-99.37"/>
<polygon fill="#63b8ff" stroke="#63b8ff" points="314.38,-95.99 303.79,-96.01 312.08,-102.6 314.38,-95.99"/>
</a>
</g>
</g>
<!-- Node8 -->
<g id="Node000008" class="node">
<title>Node8</title>
<g id="a_Node000008"><a xlink:title=" ">
<polygon fill="#e0e0e0" stroke="#999999" points="401.5,-90.5 351.5,-90.5 351.5,-71.5 401.5,-71.5 401.5,-90.5"/>
<text text-anchor="middle" x="376.5" y="-78.5" font-family="Helvetica,sans-Serif" font-size="10.00">chrono</text>
</a>
</g>
</g>
<!-- Node1&#45;&gt;Node8 -->
<g id="edge7_Node000001_Node000008" class="edge">
<title>Node1&#45;&gt;Node8</title>
<g id="a_edge7_Node000001_Node000008"><a xlink:title=" ">
<path fill="none" stroke="#63b8ff" d="M431.74,-131.8C420.57,-121.72 405.56,-108.19 394.01,-97.78"/>
<polygon fill="#63b8ff" stroke="#63b8ff" points="396.08,-94.94 386.31,-90.84 391.4,-100.14 396.08,-94.94"/>
</a>
</g>
</g>
<!-- Node9 -->
<g id="Node000009" class="node">
<title>Node9</title>
<g id="a_Node000009"><a xlink:title=" ">
<polygon fill="#e0e0e0" stroke="#999999" points="475.5,-90.5 419.5,-90.5 419.5,-71.5 475.5,-71.5 475.5,-90.5"/>
<text text-anchor="middle" x="447.5" y="-78.5" font-family="Helvetica,sans-Serif" font-size="10.00">iomanip</text>
</a>
</g>
</g>
<!-- Node1&#45;&gt;Node9 -->
<g id="edge8_Node000001_Node000009" class="edge">
<title>Node1&#45;&gt;Node9</title>
<g id="a_edge8_Node000001_Node000009"><a xlink:title=" ">
<path fill="none" stroke="#63b8ff" d="M447.5,-131.8C447.5,-122.7 447.5,-110.79 447.5,-100.9"/>
<polygon fill="#63b8ff" stroke="#63b8ff" points="451,-100.84 447.5,-90.84 444,-100.84 451,-100.84"/>
</a>
</g>
</g>
<!-- Node10 -->
<g id="Node000010" class="node">
<title>Node10</title>
<g id="a_Node000010"><a xlink:title=" ">
<polygon fill="#e0e0e0" stroke="#999999" points="553.5,-90.5 493.5,-90.5 493.5,-71.5 553.5,-71.5 553.5,-90.5"/>
<text text-anchor="middle" x="523.5" y="-78.5" font-family="Helvetica,sans-Serif" font-size="10.00">iostream</text>
</a>
</g>
</g>
<!-- Node1&#45;&gt;Node10 -->
<g id="edge9_Node000001_Node000010" class="edge">
<title>Node1&#45;&gt;Node10</title>
<g id="a_edge9_Node000001_Node000010"><a xlink:title=" ">
<path fill="none" stroke="#63b8ff" d="M464.37,-131.8C476.45,-121.62 492.71,-107.93 505.12,-97.48"/>
<polygon fill="#63b8ff" stroke="#63b8ff" points="507.6,-99.96 513,-90.84 503.09,-94.61 507.6,-99.96"/>
</a>
</g>
</g>
<!-- Node11 -->
<g id="Node000011" class="node">
<title>Node11</title>
<g id="a_Node000011"><a xlink:title=" ">
<polygon fill="#e0e0e0" stroke="#999999" points="627.5,-90.5 571.5,-90.5 571.5,-71.5 627.5,-71.5 627.5,-90.5"/>
<text text-anchor="middle" x="599.5" y="-78.5" font-family="Helvetica,sans-Serif" font-size="10.00">sstream</text>
</a>
</g>
</g>
<!-- Node1&#45;&gt;Node11 -->
<g id="edge10_Node000001_Node000011" class="edge">
<title>Node1&#45;&gt;Node11</title>
<g id="a_edge10_Node000001_Node000011"><a xlink:title=" ">
<path fill="none" stroke="#63b8ff" d="M480.86,-131.95C507.4,-120.78 544.19,-105.29 569.74,-94.53"/>
<polygon fill="#63b8ff" stroke="#63b8ff" points="571.41,-97.62 579.27,-90.52 568.7,-91.17 571.41,-97.62"/>
</a>
</g>
</g>
<!-- Node3 -->
<g id="Node000003" class="node">
<title>Node3</title>
<g id="a_Node000003"><a xlink:title=" ">
<polygon fill="#e0e0e0" stroke="#999999" points="149,-30 0,-30 0,0 149,0 149,-30"/>
<text text-anchor="start" x="8" y="-18" font-family="Helvetica,sans-Serif" font-size="10.00">kcenon/common/interfaces</text>
<text text-anchor="middle" x="74.5" y="-7" font-family="Helvetica,sans-Serif" font-size="10.00">/logger_interface.h</text>
</a>
</g>
</g>
<!-- Node2&#45;&gt;Node3 -->
<g id="edge2_Node000002_Node000003" class="edge">
<title>Node2&#45;&gt;Node3</title>
<g id="a_edge2_Node000002_Node000003"><a xlink:title=" ">
<path fill="none" stroke="#63b8ff" d="M222.02,-65.95C193.59,-56.33 155.68,-43.49 125.42,-33.24"/>
<polygon fill="#63b8ff" stroke="#63b8ff" points="126.47,-29.9 115.88,-30.01 124.23,-36.53 126.47,-29.9"/>
</a>
</g>
</g>
<!-- Node4 -->
<g id="Node000004" class="node">
<title>Node4</title>
<g id="a_Node000004"><a xlink:title=" ">
<polygon fill="#e0e0e0" stroke="#999999" points="216.5,-24.5 166.5,-24.5 166.5,-5.5 216.5,-5.5 216.5,-24.5"/>
<text text-anchor="middle" x="191.5" y="-12.5" font-family="Helvetica,sans-Serif" font-size="10.00">atomic</text>
</a>
</g>
</g>
<!-- Node2&#45;&gt;Node4 -->
<g id="edge3_Node000002_Node000004" class="edge">
<title>Node2&#45;&gt;Node4</title>
<g id="a_edge3_Node000002_Node000004"><a xlink:title=" ">
<path fill="none" stroke="#63b8ff" d="M247.52,-65.8C236.19,-55.72 220.97,-42.19 209.25,-31.78"/>
<polygon fill="#63b8ff" stroke="#63b8ff" points="211.25,-28.87 201.45,-24.84 206.6,-34.1 211.25,-28.87"/>
</a>
</g>
</g>
<!-- Node5 -->
<g id="Node000005" class="node">
<title>Node5</title>
<g id="a_Node000005"><a xlink:title=" ">
<polygon fill="#e0e0e0" stroke="#999999" points="292.5,-24.5 234.5,-24.5 234.5,-5.5 292.5,-5.5 292.5,-24.5"/>
<text text-anchor="middle" x="263.5" y="-12.5" font-family="Helvetica,sans-Serif" font-size="10.00">memory</text>
</a>
</g>
</g>
<!-- Node2&#45;&gt;Node5 -->
<g id="edge4_Node000002_Node000005" class="edge">
<title>Node2&#45;&gt;Node5</title>
<g id="a_edge4_Node000002_Node000005"><a xlink:title=" ">
<path fill="none" stroke="#63b8ff" d="M263.5,-65.8C263.5,-56.7 263.5,-44.79 263.5,-34.9"/>
<polygon fill="#63b8ff" stroke="#63b8ff" points="267,-34.84 263.5,-24.84 260,-34.84 267,-34.84"/>
</a>
</g>
</g>
<!-- Node6 -->
<g id="Node000006" class="node">
<title>Node6</title>
<g id="a_Node000006"><a xlink:title=" ">
<polygon fill="#e0e0e0" stroke="#999999" points="358.5,-24.5 310.5,-24.5 310.5,-5.5 358.5,-5.5 358.5,-24.5"/>
<text text-anchor="middle" x="334.5" y="-12.5" font-family="Helvetica,sans-Serif" font-size="10.00">mutex</text>
</a>
</g>
</g>
<!-- Node2&#45;&gt;Node6 -->
<g id="edge5_Node000002_Node000006" class="edge">
<title>Node2&#45;&gt;Node6</title>
<g id="a_edge5_Node000002_Node000006"><a xlink:title=" ">
<path fill="none" stroke="#63b8ff" d="M279.26,-65.8C290.43,-55.72 305.44,-42.19 316.99,-31.78"/>
<polygon fill="#63b8ff" stroke="#63b8ff" points="319.6,-34.14 324.69,-24.84 314.92,-28.94 319.6,-34.14"/>
</a>
</g>
</g>
<!-- Node7 -->
<g id="Node000007" class="node">
<title>Node7</title>
<g id="a_Node000007"><a xlink:title=" ">
<polygon fill="#e0e0e0" stroke="#999999" points="420.5,-24.5 376.5,-24.5 376.5,-5.5 420.5,-5.5 420.5,-24.5"/>
<text text-anchor="middle" x="398.5" y="-12.5" font-family="Helvetica,sans-Serif" font-size="10.00">string</text>
</a>
</g>
</g>
<!-- Node2&#45;&gt;Node7 -->
<g id="edge6_Node000002_Node000007" class="edge">
<title>Node2&#45;&gt;Node7</title>
<g id="a_edge6_Node000002_Node000007"><a xlink:title=" ">
<path fill="none" stroke="#63b8ff" d="M293.13,-65.95C316.49,-54.88 348.8,-39.56 371.47,-28.82"/>
<polygon fill="#63b8ff" stroke="#63b8ff" points="373,-31.96 380.53,-24.52 370,-25.64 373,-31.96"/>
</a>
</g>
</g>
</g>
</svg>
