<?xml version="1.0" encoding="UTF-8" standalone="no"?>
<!DOCTYPE svg PUBLIC "-//W3C//DTD SVG 1.1//EN"
 "http://www.w3.org/Graphics/SVG/1.1/DTD/svg11.dtd">
<!-- Generated by graphviz version 2.43.0 (0)
 -->
<!-- Title: src Pages: 1 -->
<svg width="359pt" height="98pt"
 viewBox="0.00 0.00 359.00 98.00" xmlns="http://www.w3.org/2000/svg" xmlns:xlink="http://www.w3.org/1999/xlink">
<g id="graph0" class="graph" transform="scale(1 1) rotate(0) translate(4 94)">
<title>src</title>
<g id="clust1" class="cluster">
<title>clusterdir_68267d1309a1af8e8297ef4c3efbcdba</title>
<g id="a_clust1"><a xlink:href="dir_68267d1309a1af8e8297ef4c3efbcdba.html" target="_top">
<polygon fill="#edf0f7" stroke="#404040" stroke-width="2" points="8,-47 8,-82 343,-82 343,-47 8,-47"/>
</a>
</g>
</g>
<!-- dir_68267d1309a1af8e8297ef4c3efbcdba -->
<g id="node1" class="node">
<title>dir_68267d1309a1af8e8297ef4c3efbcdba</title>
<text text-anchor="middle" x="319" y="-62" font-family="Helvetica,sans-Serif" font-size="10.00">src</text>
</g>
<!-- dir_d44c64559bbebec7f509842c48db8b23 -->
<g id="node6" class="node">
<title>dir_d44c64559bbebec7f509842c48db8b23</title>
<g id="a_node6"><a xlink:href="dir_d44c64559bbebec7f509842c48db8b23.html" target="_top" xlink:title="include">
<polygon fill="#edf0f7" stroke="red" points="225,-19 173,-19 173,0 225,0 225,-19"/>
<text text-anchor="middle" x="199" y="-7" font-family="Helvetica,sans-Serif" font-size="10.00">include</text>
</a>
</g>
</g>
<!-- dir_68267d1309a1af8e8297ef4c3efbcdba&#45;&gt;dir_d44c64559bbebec7f509842c48db8b23 -->
<g id="edge1" class="edge">
<title>dir_68267d1309a1af8e8297ef4c3efbcdba&#45;&gt;dir_d44c64559bbebec7f509842c48db8b23</title>
<g id="a_edge1"><a xlink:href="dir_000011_000005.html" target="_top">
<path fill="none" stroke="#63b8ff" d="M307.11,-54.9C303.06,-52.17 298.44,-49.28 294,-47 275.04,-37.25 252.85,-28.58 234.69,-22.14"/>
<polygon fill="#63b8ff" stroke="#63b8ff" points="235.65,-18.77 225.06,-18.8 233.36,-25.39 235.65,-18.77"/>
</a>
</g>
<g id="a_edge1&#45;headlabel"><a xlink:href="dir_000011_000005.html" target="_top" xlink:title="16">
<text text-anchor="middle" x="239.98" y="-14.77" font-family="Helvetica,sans-Serif" font-size="10.00" fill="#63b8ff">16</text>
</a>
</g>
</g>
<!-- dir_aebb8dcc11953d78e620bbef0b9e2183 -->
<g id="node2" class="node">
<title>dir_aebb8dcc11953d78e620bbef0b9e2183</title>
<g id="a_node2"><a xlink:href="dir_aebb8dcc11953d78e620bbef0b9e2183.html" target="_top" xlink:title="core">
<polygon fill="#a2b4d6" stroke="#404040" points="285,-74 247,-74 247,-55 285,-55 285,-74"/>
<text text-anchor="middle" x="266" y="-62" font-family="Helvetica,sans-Serif" font-size="10.00">core</text>
</a>
</g>
</g>
<!-- dir_aebb8dcc11953d78e620bbef0b9e2183&#45;&gt;dir_d44c64559bbebec7f509842c48db8b23 -->
<g id="edge2" class="edge">
<title>dir_aebb8dcc11953d78e620bbef0b9e2183&#45;&gt;dir_d44c64559bbebec7f509842c48db8b23</title>
<g id="a_edge2"><a xlink:href="dir_000001_000005.html" target="_top">
<path fill="none" stroke="#63b8ff" d="M255.24,-54.98C245.23,-47.07 230.11,-35.11 218.07,-25.58"/>
<polygon fill="#63b8ff" stroke="#63b8ff" points="219.97,-22.63 209.96,-19.17 215.63,-28.12 219.97,-22.63"/>
</a>
</g>
<g id="a_edge2&#45;headlabel"><a xlink:href="dir_000001_000005.html" target="_top" xlink:title="5">
<text text-anchor="middle" x="224.56" y="-20.13" font-family="Helvetica,sans-Serif" font-size="10.00" fill="#63b8ff">5</text>
</a>
</g>
</g>
<!-- dir_899f3bed886f9952929d57251421a8bc -->
<g id="node3" class="node">
<title>dir_899f3bed886f9952929d57251421a8bc</title>
<g id="a_node3"><a xlink:href="dir_899f3bed886f9952929d57251421a8bc.html" target="_top" xlink:title="gateway">
<polygon fill="#a2b4d6" stroke="#404040" points="228.5,-74 169.5,-74 169.5,-55 228.5,-55 228.5,-74"/>
<text text-anchor="middle" x="199" y="-62" font-family="Helvetica,sans-Serif" font-size="10.00">gateway</text>
</a>
</g>
</g>
<!-- dir_899f3bed886f9952929d57251421a8bc&#45;&gt;dir_d44c64559bbebec7f509842c48db8b23 -->
<g id="edge3" class="edge">
<title>dir_899f3bed886f9952929d57251421a8bc&#45;&gt;dir_d44c64559bbebec7f509842c48db8b23</title>
<g id="a_edge3"><a xlink:href="dir_000004_000005.html" target="_top">
<path fill="none" stroke="#63b8ff" d="M199,-54.75C199,-47.8 199,-37.85 199,-29.13"/>
<polygon fill="#63b8ff" stroke="#63b8ff" points="202.5,-29.09 199,-19.09 195.5,-29.09 202.5,-29.09"/>
</a>
</g>
<g id="a_edge3&#45;headlabel"><a xlink:href="dir_000004_000005.html" target="_top" xlink:title="7">
<text text-anchor="middle" x="205.34" y="-30.18" font-family="Helvetica,sans-Serif" font-size="10.00" fill="#63b8ff">7</text>
</a>
</g>
</g>
<!-- dir_3af77139a79e5be29d062c8e93f781c6 -->
<g id="node4" class="node">
<title>dir_3af77139a79e5be29d062c8e93f781c6</title>
<g id="a_node4"><a xlink:href="dir_3af77139a79e5be29d062c8e93f781c6.html" target="_top" xlink:title="pooling">
<polygon fill="#a2b4d6" stroke="#404040" points="151.5,-74 98.5,-74 98.5,-55 151.5,-55 151.5,-74"/>
<text text-anchor="middle" x="125" y="-62" font-family="Helvetica,sans-Serif" font-size="10.00">pooling</text>
</a>
</g>
</g>
<!-- dir_3af77139a79e5be29d062c8e93f781c6&#45;&gt;dir_d44c64559bbebec7f509842c48db8b23 -->
<g id="edge4" class="edge">
<title>dir_3af77139a79e5be29d062c8e93f781c6&#45;&gt;dir_d44c64559bbebec7f509842c48db8b23</title>
<g id="a_edge4"><a xlink:href="dir_000008_000005.html" target="_top">
<path fill="none" stroke="#63b8ff" d="M136.89,-54.98C148.15,-46.92 165.29,-34.65 178.71,-25.03"/>
<polygon fill="#63b8ff" stroke="#63b8ff" points="180.8,-27.84 186.89,-19.17 176.73,-22.15 180.8,-27.84"/>
</a>
</g>
<g id="a_edge4&#45;headlabel"><a xlink:href="dir_000008_000005.html" target="_top" xlink:title="1">
<text text-anchor="middle" x="179.53" y="-29.74" font-family="Helvetica,sans-Serif" font-size="10.00" fill="#63b8ff">1</text>
</a>
</g>
</g>
<!-- dir_cad9fcc5a2c3a9ec0e5b366731da1642 -->
<g id="node5" class="node">
<title>dir_cad9fcc5a2c3a9ec0e5b366731da1642</title>
<g id="a_node5"><a xlink:href="dir_cad9fcc5a2c3a9ec0e5b366731da1642.html" target="_top" xlink:title="resilience">
<polygon fill="#a2b4d6" stroke="#404040" points="80,-74 16,-74 16,-55 80,-55 80,-74"/>
<text text-anchor="middle" x="48" y="-62" font-family="Helvetica,sans-Serif" font-size="10.00">resilience</text>
</a>
</g>
</g>
<!-- dir_cad9fcc5a2c3a9ec0e5b366731da1642&#45;&gt;dir_d44c64559bbebec7f509842c48db8b23 -->
<g id="edge5" class="edge">
<title>dir_cad9fcc5a2c3a9ec0e5b366731da1642&#45;&gt;dir_d44c64559bbebec7f509842c48db8b23</title>
<g id="a_edge5"><a xlink:href="dir_000010_000005.html" target="_top">
<path fill="none" stroke="#63b8ff" d="M69.29,-54.89C75.9,-52.29 83.23,-49.46 90,-47 114.29,-38.17 141.89,-28.93 163.25,-21.96"/>
<polygon fill="#63b8ff" stroke="#63b8ff" points="164.45,-25.25 172.88,-18.83 162.29,-18.59 164.45,-25.25"/>
</a>
</g>
<g id="a_edge5&#45;headlabel"><a xlink:href="dir_000010_000005.html" target="_top" xlink:title="2">
<text text-anchor="middle" x="161.91" y="-26.56" font-family="Helvetica,sans-Serif" font-size="10.00" fill="#63b8ff">2</text>
</a>
</g>
</g>
</g>
</svg>
