<?xml version="1.0" encoding="UTF-8" standalone="no"?>
<!DOCTYPE svg PUBLIC "-//W3C//DTD SVG 1.1//EN"
 "http://www.w3.org/Graphics/SVG/1.1/DTD/svg11.dtd">
<!-- Generated by graphviz version 2.43.0 (0)
 -->
<!-- Title: src Pages: 1 -->
<svg width="501pt" height="98pt"
 viewBox="0.00 0.00 501.00 98.00" xmlns="http://www.w3.org/2000/svg" xmlns:xlink="http://www.w3.org/1999/xlink">
<g id="graph0" class="graph" transform="scale(1 1) rotate(0) translate(4 94)">
<title>src</title>
<g id="clust1" class="cluster">
<title>clusterdir_68267d1309a1af8e8297ef4c3efbcdba</title>
<g id="a_clust1"><a xlink:href="dir_68267d1309a1af8e8297ef4c3efbcdba.html" target="_top">
<polygon fill="#edf0f7" stroke="#404040" stroke-width="2" points="8,-47 8,-82 485,-82 485,-47 8,-47"/>
</a>
</g>
</g>
<!-- dir_68267d1309a1af8e8297ef4c3efbcdba -->
<g id="node1" class="node">
<title>dir_68267d1309a1af8e8297ef4c3efbcdba</title>
<text text-anchor="middle" x="461" y="-62" font-family="Helvetica,sans-Serif" font-size="10.00">src</text>
</g>
<!-- dir_d44c64559bbebec7f509842c48db8b23 -->
<g id="node8" class="node">
<title>dir_d44c64559bbebec7f509842c48db8b23</title>
<g id="a_node8"><a xlink:href="dir_d44c64559bbebec7f509842c48db8b23.html" target="_top" xlink:title="include">
<polygon fill="#edf0f7" stroke="red" points="293,-19 241,-19 241,0 293,0 293,-19"/>
<text text-anchor="middle" x="267" y="-7" font-family="Helvetica,sans-Serif" font-size="10.00">include</text>
</a>
</g>
</g>
<!-- dir_68267d1309a1af8e8297ef4c3efbcdba&#45;&gt;dir_d44c64559bbebec7f509842c48db8b23 -->
<g id="edge1" class="edge">
<title>dir_68267d1309a1af8e8297ef4c3efbcdba&#45;&gt;dir_d44c64559bbebec7f509842c48db8b23</title>
<g id="a_edge1"><a xlink:href="dir_000016_000005.html" target="_top">
<path fill="none" stroke="#63b8ff" d="M449.8,-54.83C445.66,-51.97 440.79,-49.02 436,-47 392.37,-28.65 338.37,-19.06 303.32,-14.4"/>
<polygon fill="#63b8ff" stroke="#63b8ff" points="303.45,-10.89 293.09,-13.1 302.57,-17.83 303.45,-10.89"/>
</a>
</g>
<g id="a_edge1&#45;headlabel"><a xlink:href="dir_000016_000005.html" target="_top" xlink:title="26">
<text text-anchor="middle" x="307.37" y="-6.02" font-family="Helvetica,sans-Serif" font-size="10.00" fill="#63b8ff">26</text>
</a>
</g>
</g>
<!-- dir_aebb8dcc11953d78e620bbef0b9e2183 -->
<g id="node2" class="node">
<title>dir_aebb8dcc11953d78e620bbef0b9e2183</title>
<g id="a_node2"><a xlink:href="dir_aebb8dcc11953d78e620bbef0b9e2183.html" target="_top" xlink:title="core">
<polygon fill="#a2b4d6" stroke="#404040" points="427,-74 389,-74 389,-55 427,-55 427,-74"/>
<text text-anchor="middle" x="408" y="-62" font-family="Helvetica,sans-Serif" font-size="10.00">core</text>
</a>
</g>
</g>
<!-- dir_aebb8dcc11953d78e620bbef0b9e2183&#45;&gt;dir_d44c64559bbebec7f509842c48db8b23 -->
<g id="edge2" class="edge">
<title>dir_aebb8dcc11953d78e620bbef0b9e2183&#45;&gt;dir_d44c64559bbebec7f509842c48db8b23</title>
<g id="a_edge2"><a xlink:href="dir_000001_000005.html" target="_top">
<path fill="none" stroke="#63b8ff" d="M394.93,-54.99C390.33,-52.22 385.04,-49.27 380,-47 355.05,-35.78 325.61,-26.39 303.03,-19.94"/>
<polygon fill="#63b8ff" stroke="#63b8ff" points="303.76,-16.51 293.19,-17.19 301.88,-23.25 303.76,-16.51"/>
</a>
</g>
<g id="a_edge2&#45;headlabel"><a xlink:href="dir_000001_000005.html" target="_top" xlink:title="6">
<text text-anchor="middle" x="307.99" y="-12.24" font-family="Helvetica,sans-Serif" font-size="10.00" fill="#63b8ff">6</text>
</a>
</g>
</g>
<!-- dir_899f3bed886f9952929d57251421a8bc -->
<g id="node3" class="node">
<title>dir_899f3bed886f9952929d57251421a8bc</title>
<g id="a_node3"><a xlink:href="dir_899f3bed886f9952929d57251421a8bc.html" target="_top" xlink:title="gateway">
<polygon fill="#a2b4d6" stroke="#404040" points="370.5,-74 311.5,-74 311.5,-55 370.5,-55 370.5,-74"/>
<text text-anchor="middle" x="341" y="-62" font-family="Helvetica,sans-Serif" font-size="10.00">gateway</text>
</a>
</g>
</g>
<!-- dir_899f3bed886f9952929d57251421a8bc&#45;&gt;dir_d44c64559bbebec7f509842c48db8b23 -->
<g id="edge3" class="edge">
<title>dir_899f3bed886f9952929d57251421a8bc&#45;&gt;dir_d44c64559bbebec7f509842c48db8b23</title>
<g id="a_edge3"><a xlink:href="dir_000004_000005.html" target="_top">
<path fill="none" stroke="#63b8ff" d="M329.11,-54.98C317.85,-46.92 300.71,-34.65 287.29,-25.03"/>
<polygon fill="#63b8ff" stroke="#63b8ff" points="289.27,-22.15 279.11,-19.17 285.2,-27.84 289.27,-22.15"/>
</a>
</g>
<g id="a_edge3&#45;headlabel"><a xlink:href="dir_000004_000005.html" target="_top" xlink:title="13">
<text text-anchor="middle" x="293.85" y="-19.43" font-family="Helvetica,sans-Serif" font-size="10.00" fill="#63b8ff">13</text>
</a>
</g>
</g>
<!-- dir_b3320b59a4aa4a7431bc8488b87009bf -->
<g id="node4" class="node">
<title>dir_b3320b59a4aa4a7431bc8488b87009bf</title>
<g id="a_node4"><a xlink:href="dir_b3320b59a4aa4a7431bc8488b87009bf.html" target="_top" xlink:title="logging">
<polygon fill="#a2b4d6" stroke="#404040" points="293.5,-74 240.5,-74 240.5,-55 293.5,-55 293.5,-74"/>
<text text-anchor="middle" x="267" y="-62" font-family="Helvetica,sans-Serif" font-size="10.00">logging</text>
</a>
</g>
</g>
<!-- dir_b3320b59a4aa4a7431bc8488b87009bf&#45;&gt;dir_d44c64559bbebec7f509842c48db8b23 -->
<g id="edge4" class="edge">
<title>dir_b3320b59a4aa4a7431bc8488b87009bf&#45;&gt;dir_d44c64559bbebec7f509842c48db8b23</title>
<g id="a_edge4"><a xlink:href="dir_000008_000005.html" target="_top">
<path fill="none" stroke="#63b8ff" d="M267,-54.75C267,-47.8 267,-37.85 267,-29.13"/>
<polygon fill="#63b8ff" stroke="#63b8ff" points="270.5,-29.09 267,-19.09 263.5,-29.09 270.5,-29.09"/>
</a>
</g>
<g id="a_edge4&#45;headlabel"><a xlink:href="dir_000008_000005.html" target="_top" xlink:title="1">
<text text-anchor="middle" x="273.34" y="-30.18" font-family="Helvetica,sans-Serif" font-size="10.00" fill="#63b8ff">1</text>
</a>
</g>
</g>
<!-- dir_ee0a2921d8a41481a2eb4b0c39976a70 -->
<g id="node5" class="node">
<title>dir_ee0a2921d8a41481a2eb4b0c39976a70</title>
<g id="a_node5"><a xlink:href="dir_ee0a2921d8a41481a2eb4b0c39976a70.html" target="_top" xlink:title="metrics">
<polygon fill="#a2b4d6" stroke="#404040" points="222.5,-74 169.5,-74 169.5,-55 222.5,-55 222.5,-74"/>
<text text-anchor="middle" x="196" y="-62" font-family="Helvetica,sans-Serif" font-size="10.00">metrics</text>
</a>
</g>
</g>
<!-- dir_ee0a2921d8a41481a2eb4b0c39976a70&#45;&gt;dir_d44c64559bbebec7f509842c48db8b23 -->
<g id="edge5" class="edge">
<title>dir_ee0a2921d8a41481a2eb4b0c39976a70&#45;&gt;dir_d44c64559bbebec7f509842c48db8b23</title>
<g id="a_edge5"><a xlink:href="dir_000010_000005.html" target="_top">
<path fill="none" stroke="#63b8ff" d="M207.41,-54.98C218.11,-47 234.34,-34.88 247.16,-25.31"/>
<polygon fill="#63b8ff" stroke="#63b8ff" points="249.47,-27.96 255.39,-19.17 245.28,-22.35 249.47,-27.96"/>
</a>
</g>
<g id="a_edge5&#45;headlabel"><a xlink:href="dir_000010_000005.html" target="_top" xlink:title="2">
<text text-anchor="middle" x="248.28" y="-29.88" font-family="Helvetica,sans-Serif" font-size="10.00" fill="#63b8ff">2</text>
</a>
</g>
</g>
<!-- dir_3af77139a79e5be29d062c8e93f781c6 -->
<g id="node6" class="node">
<title>dir_3af77139a79e5be29d062c8e93f781c6</title>
<g id="a_node6"><a xlink:href="dir_3af77139a79e5be29d062c8e93f781c6.html" target="_top" xlink:title="pooling">
<polygon fill="#a2b4d6" stroke="#404040" points="151.5,-74 98.5,-74 98.5,-55 151.5,-55 151.5,-74"/>
<text text-anchor="middle" x="125" y="-62" font-family="Helvetica,sans-Serif" font-size="10.00">pooling</text>
</a>
</g>
</g>
<!-- dir_3af77139a79e5be29d062c8e93f781c6&#45;&gt;dir_d44c64559bbebec7f509842c48db8b23 -->
<g id="edge6" class="edge">
<title>dir_3af77139a79e5be29d062c8e93f781c6&#45;&gt;dir_d44c64559bbebec7f509842c48db8b23</title>
<g id="a_edge6"><a xlink:href="dir_000012_000005.html" target="_top">
<path fill="none" stroke="#63b8ff" d="M142.8,-54.93C148.55,-52.26 155,-49.4 161,-47 183.98,-37.8 210.29,-28.73 230.95,-21.94"/>
<polygon fill="#63b8ff" stroke="#63b8ff" points="232.18,-25.22 240.6,-18.79 230.01,-18.56 232.18,-25.22"/>
</a>
</g>
<g id="a_edge6&#45;headlabel"><a xlink:href="dir_000012_000005.html" target="_top" xlink:title="1">
<text text-anchor="middle" x="229.64" y="-26.53" font-family="Helvetica,sans-Serif" font-size="10.00" fill="#63b8ff">1</text>
</a>
</g>
</g>
<!-- dir_cad9fcc5a2c3a9ec0e5b366731da1642 -->
<g id="node7" class="node">
<title>dir_cad9fcc5a2c3a9ec0e5b366731da1642</title>
<g id="a_node7"><a xlink:href="dir_cad9fcc5a2c3a9ec0e5b366731da1642.html" target="_top" xlink:title="resilience">
<polygon fill="#a2b4d6" stroke="#404040" points="80,-74 16,-74 16,-55 80,-55 80,-74"/>
<text text-anchor="middle" x="48" y="-62" font-family="Helvetica,sans-Serif" font-size="10.00">resilience</text>
</a>
</g>
</g>
<!-- dir_cad9fcc5a2c3a9ec0e5b366731da1642&#45;&gt;dir_d44c64559bbebec7f509842c48db8b23 -->
<g id="edge7" class="edge">
<title>dir_cad9fcc5a2c3a9ec0e5b366731da1642&#45;&gt;dir_d44c64559bbebec7f509842c48db8b23</title>
<g id="a_edge7"><a xlink:href="dir_000015_000005.html" target="_top">
<path fill="none" stroke="#63b8ff" d="M67.84,-54.9C74.76,-52.12 82.64,-49.19 90,-47 137.9,-32.76 194.72,-22.11 230.81,-16.1"/>
<polygon fill="#63b8ff" stroke="#63b8ff" points="231.56,-19.52 240.86,-14.45 230.43,-12.61 231.56,-19.52"/>
</a>
</g>
<g id="a_edge7&#45;headlabel"><a xlink:href="dir_000015_000005.html" target="_top" xlink:title="2">
<text text-anchor="middle" x="228.47" y="-20.4" font-family="Helvetica,sans-Serif" font-size="10.00" fill="#63b8ff">2</text>
</a>
</g>
</g>
</g>
</svg>
