<?xml version="1.0" encoding="UTF-8" standalone="no"?>
<!DOCTYPE svg PUBLIC "-//W3C//DTD SVG 1.1//EN"
 "http://www.w3.org/Graphics/SVG/1.1/DTD/svg11.dtd">
<!-- Generated by graphviz version 2.43.0 (0)
 -->
<!-- Title: include/kcenon/database_server/gateway/gateway_server.h Pages: 1 -->
<!--zoomable 280 -->

<svg id="main" version="1.1" xmlns="http://www.w3.org/2000/svg" xmlns:xlink="http://www.w3.org/1999/xlink" xml:space="preserve" onload="init(evt)">
<style type="text/css"><![CDATA[
.node, .edge {opacity: 0.7;}
.node.selected, .edge.selected {opacity: 1;}
.edge:hover path { stroke: red; }
.edge:hover polygon { stroke: red; fill: red; }
]]></style>

<defs>
  <circle id="rim" cx="0" cy="0" r="7"/>
  <circle id="rim2" cx="0" cy="0" r="3.5"/>
  <g id="zoomPlus">
    <use xlink:href="#rim" fill="#404040"><set attributeName="fill" to="#808080" begin="zoomplus.mouseover" end="zoomplus.mouseout"/></use>
    <path d="M-4,0h8M0,-4v8" fill="none" stroke="white" stroke-width="1.5" pointer-events="none"/>
  </g>
  <g id="zoomMin">
    <use xlink:href="#rim" fill="#404040"><set attributeName="fill" to="#808080" begin="zoomminus.mouseover" end="zoomminus.mouseout"/></use>
    <path d="M-4,0h8" fill="none" stroke="white" stroke-width="1.5" pointer-events="none"/>
  </g>
  <g id="arrowUp" transform="translate(30 24)">
    <use xlink:href="#rim"/>
    <path pointer-events="none" fill="none" stroke="white" stroke-width="1.5" d="M0,-3.0v7 M-2.5,-0.5L0,-3.0L2.5,-0.5"/>
  </g>
  <g id="arrowRight" transform="rotate(90) translate(36 -43)">
    <use xlink:href="#rim"/>
    <path pointer-events="none" fill="none" stroke="white" stroke-width="1.5" d="M0,-3.0v7 M-2.5,-0.5L0,-3.0L2.5,-0.5"/>
  </g>
  <g id="arrowDown" transform="rotate(180) translate(-30 -48)">
    <use xlink:href="#rim"/>
    <path pointer-events="none" fill="none" stroke="white" stroke-width="1.5" d="M0,-3.0v7 M-2.5,-0.5L0,-3.0L2.5,-0.5"/>
  </g>
  <g id="arrowLeft" transform="rotate(270) translate(-36 17)">
    <use xlink:href="#rim"/>
    <path pointer-events="none" fill="none" stroke="white" stroke-width="1.5" d="M0,-3.0v7 M-2.5,-0.5L0,-3.0L2.5,-0.5"/>
  </g>
  <g id="resetDef">
    <use xlink:href="#rim2" fill="#404040"><set attributeName="fill" to="#808080" begin="reset.mouseover" end="reset.mouseout"/></use>
  </g>
</defs>
<script type="application/ecmascript">
var viewWidth = 945;
var viewHeight = 280;
var sectionId = 'dynsection-0';
</script>
<script type="application/ecmascript" xlink:href="svg.min.js"/>
<svg id="graph" class="graph">
<g id="viewport">
<title>include/kcenon/database_server/gateway/gateway_server.h</title>
<!-- Node1 -->
<g id="Node000001" class="node">
<title>Node1</title>
<g id="a_Node000001"><a xlink:title="Database gateway TCP server.">
<polygon fill="#999999" stroke="#666666" points="656.5,-272 513.5,-272 513.5,-231 656.5,-231 656.5,-272"/>
<text text-anchor="start" x="521.5" y="-260" font-family="Helvetica,sans-Serif" font-size="10.00">include/kcenon/database</text>
<text text-anchor="start" x="521.5" y="-249" font-family="Helvetica,sans-Serif" font-size="10.00">_server/gateway/gateway</text>
<text text-anchor="middle" x="585" y="-238" font-family="Helvetica,sans-Serif" font-size="10.00">_server.h</text>
</a>
</g>
</g>
<!-- Node2 -->
<g id="Node000002" class="node">
<title>Node2</title>
<g id="a_Node000002"><a xlink:href="auth__middleware_8h.html" target="_top" xlink:title="Authentication middleware for database gateway.">
<polygon fill="white" stroke="#666666" points="599,-195 489,-195 489,-176 599,-176 599,-195"/>
<text text-anchor="middle" x="544" y="-183" font-family="Helvetica,sans-Serif" font-size="10.00">auth_middleware.h</text>
</a>
</g>
</g>
<!-- Node1&#45;&gt;Node2 -->
<g id="edge1_Node000001_Node000002" class="edge">
<title>Node1&#45;&gt;Node2</title>
<g id="a_edge1_Node000001_Node000002"><a xlink:title=" ">
<path fill="none" stroke="#63b8ff" d="M572.48,-230.95C566.93,-222.3 560.47,-212.2 555.1,-203.82"/>
<polygon fill="#63b8ff" stroke="#63b8ff" points="557.95,-201.79 549.61,-195.26 552.06,-205.57 557.95,-201.79"/>
</a>
</g>
</g>
<!-- Node3 -->
<g id="Node000003" class="node">
<title>Node3</title>
<g id="a_Node000003"><a xlink:href="query__protocol_8h.html" target="_top" xlink:title="Query protocol message structures for database gateway.">
<polygon fill="white" stroke="#666666" points="421,-140 323,-140 323,-121 421,-121 421,-140"/>
<text text-anchor="middle" x="372" y="-128" font-family="Helvetica,sans-Serif" font-size="10.00">query_protocol.h</text>
</a>
</g>
</g>
<!-- Node1&#45;&gt;Node3 -->
<g id="edge24_Node000001_Node000003" class="edge">
<title>Node1&#45;&gt;Node3</title>
<g id="a_edge24_Node000001_Node000003"><a xlink:title=" ">
<path fill="none" stroke="#63b8ff" d="M523.41,-230.88C498.49,-221.69 470,-209.54 446,-195 423.97,-181.66 401.99,-161.75 387.78,-147.79"/>
<polygon fill="#63b8ff" stroke="#63b8ff" points="389.91,-144.96 380.37,-140.35 384.95,-149.9 389.91,-144.96"/>
</a>
</g>
</g>
<!-- Node4 -->
<g id="Node000004" class="node">
<title>Node4</title>
<g id="a_Node000004"><a xlink:href="query__types_8h.html" target="_top" xlink:title="Query protocol type definitions for database gateway.">
<polygon fill="white" stroke="#666666" points="162,-79.5 76,-79.5 76,-60.5 162,-60.5 162,-79.5"/>
<text text-anchor="middle" x="119" y="-67.5" font-family="Helvetica,sans-Serif" font-size="10.00">query_types.h</text>
</a>
</g>
</g>
<!-- Node1&#45;&gt;Node4 -->
<g id="edge25_Node000001_Node000004" class="edge">
<title>Node1&#45;&gt;Node4</title>
<g id="a_edge25_Node000001_Node000004"><a xlink:title=" ">
<path fill="none" stroke="#63b8ff" d="M514.68,-230.91C446.23,-210.98 339.82,-177.73 251,-140 211.79,-123.34 168.37,-99.54 142.4,-84.7"/>
<polygon fill="#63b8ff" stroke="#63b8ff" points="144.08,-81.62 133.67,-79.66 140.58,-87.69 144.08,-81.62"/>
</a>
</g>
</g>
<!-- Node6 -->
<g id="Node000006" class="node">
<title>Node6</title>
<g id="a_Node000006"><a xlink:title=" ">
<polygon fill="#e0e0e0" stroke="#999999" points="559,-19 515,-19 515,0 559,0 559,-19"/>
<text text-anchor="middle" x="537" y="-7" font-family="Helvetica,sans-Serif" font-size="10.00">string</text>
</a>
</g>
</g>
<!-- Node1&#45;&gt;Node6 -->
<g id="edge30_Node000001_Node000006" class="edge">
<title>Node1&#45;&gt;Node6</title>
<g id="a_edge30_Node000001_Node000006"><a xlink:title=" ">
<path fill="none" stroke="#63b8ff" d="M656.93,-248.09C775.94,-241.42 994.01,-216.2 923,-121 879.83,-63.13 653.8,-26.57 569.1,-14.72"/>
<polygon fill="#63b8ff" stroke="#63b8ff" points="569.41,-11.23 559.03,-13.33 568.46,-18.16 569.41,-11.23"/>
</a>
</g>
</g>
<!-- Node9 -->
<g id="Node000009" class="node">
<title>Node9</title>
<g id="a_Node000009"><a xlink:title=" ">
<polygon fill="#e0e0e0" stroke="#999999" points="58,-79.5 0,-79.5 0,-60.5 58,-60.5 58,-79.5"/>
<text text-anchor="middle" x="29" y="-67.5" font-family="Helvetica,sans-Serif" font-size="10.00">memory</text>
</a>
</g>
</g>
<!-- Node1&#45;&gt;Node9 -->
<g id="edge28_Node000001_Node000009" class="edge">
<title>Node1&#45;&gt;Node9</title>
<g id="a_edge28_Node000001_Node000009"><a xlink:title=" ">
<path fill="none" stroke="#63b8ff" d="M513.34,-236.91C465.02,-227.04 400.08,-212.39 344,-195 235.67,-161.41 111.65,-107.99 57.17,-83.73"/>
<polygon fill="#63b8ff" stroke="#63b8ff" points="58.38,-80.44 47.82,-79.55 55.52,-86.83 58.38,-80.44"/>
</a>
</g>
</g>
<!-- Node13 -->
<g id="Node000013" class="node">
<title>Node13</title>
<g id="a_Node000013"><a xlink:title=" ">
<polygon fill="#e0e0e0" stroke="#999999" points="541.5,-85 400.5,-85 400.5,-55 541.5,-55 541.5,-85"/>
<text text-anchor="start" x="408.5" y="-73" font-family="Helvetica,sans-Serif" font-size="10.00">kcenon/common/patterns</text>
<text text-anchor="middle" x="471" y="-62" font-family="Helvetica,sans-Serif" font-size="10.00">/result.h</text>
</a>
</g>
</g>
<!-- Node1&#45;&gt;Node13 -->
<g id="edge32_Node000001_Node000013" class="edge">
<title>Node1&#45;&gt;Node13</title>
<g id="a_edge32_Node000001_Node000013"><a xlink:title=" ">
<path fill="none" stroke="#63b8ff" d="M523.71,-230.91C506.85,-222.52 490.37,-210.88 480,-195 460.4,-164.98 462.44,-121.71 466.3,-95.02"/>
<polygon fill="#63b8ff" stroke="#63b8ff" points="469.78,-95.45 467.94,-85.02 462.87,-94.32 469.78,-95.45"/>
</a>
</g>
</g>
<!-- Node14 -->
<g id="Node000014" class="node">
<title>Node14</title>
<g id="a_Node000014"><a xlink:title=" ">
<polygon fill="#e0e0e0" stroke="#999999" points="652,-140 602,-140 602,-121 652,-121 652,-140"/>
<text text-anchor="middle" x="627" y="-128" font-family="Helvetica,sans-Serif" font-size="10.00">atomic</text>
</a>
</g>
</g>
<!-- Node1&#45;&gt;Node14 -->
<g id="edge26_Node000001_Node000014" class="edge">
<title>Node1&#45;&gt;Node14</title>
<g id="a_edge26_Node000001_Node000014"><a xlink:title=" ">
<path fill="none" stroke="#63b8ff" d="M593.69,-230.91C598.22,-220.37 603.7,-207.09 608,-195 613.31,-180.07 618.4,-162.84 621.98,-150.09"/>
<polygon fill="#63b8ff" stroke="#63b8ff" points="625.42,-150.79 624.7,-140.22 618.67,-148.93 625.42,-150.79"/>
</a>
</g>
</g>
<!-- Node15 -->
<g id="Node000015" class="node">
<title>Node15</title>
<g id="a_Node000015"><a xlink:title=" ">
<polygon fill="#e0e0e0" stroke="#999999" points="735.5,-140 670.5,-140 670.5,-121 735.5,-121 735.5,-140"/>
<text text-anchor="middle" x="703" y="-128" font-family="Helvetica,sans-Serif" font-size="10.00">functional</text>
</a>
</g>
</g>
<!-- Node1&#45;&gt;Node15 -->
<g id="edge27_Node000001_Node000015" class="edge">
<title>Node1&#45;&gt;Node15</title>
<g id="a_edge27_Node000001_Node000015"><a xlink:title=" ">
<path fill="none" stroke="#63b8ff" d="M604.49,-230.85C627.69,-207.45 665.98,-168.83 687.35,-147.28"/>
<polygon fill="#63b8ff" stroke="#63b8ff" points="689.84,-149.74 694.4,-140.18 684.87,-144.81 689.84,-149.74"/>
</a>
</g>
</g>
<!-- Node16 -->
<g id="Node000016" class="node">
<title>Node16</title>
<g id="a_Node000016"><a xlink:title=" ">
<polygon fill="#e0e0e0" stroke="#999999" points="802,-140 754,-140 754,-121 802,-121 802,-140"/>
<text text-anchor="middle" x="778" y="-128" font-family="Helvetica,sans-Serif" font-size="10.00">mutex</text>
</a>
</g>
</g>
<!-- Node1&#45;&gt;Node16 -->
<g id="edge29_Node000001_Node000016" class="edge">
<title>Node1&#45;&gt;Node16</title>
<g id="a_edge29_Node000001_Node000016"><a xlink:title=" ">
<path fill="none" stroke="#63b8ff" d="M616.87,-230.85C655.82,-206.83 720.77,-166.79 755.1,-145.62"/>
<polygon fill="#63b8ff" stroke="#63b8ff" points="757.26,-148.4 763.93,-140.18 753.58,-142.44 757.26,-148.4"/>
</a>
</g>
</g>
<!-- Node17 -->
<g id="Node000017" class="node">
<title>Node17</title>
<g id="a_Node000017"><a xlink:title=" ">
<polygon fill="#e0e0e0" stroke="#999999" points="913.5,-140 820.5,-140 820.5,-121 913.5,-121 913.5,-140"/>
<text text-anchor="middle" x="867" y="-128" font-family="Helvetica,sans-Serif" font-size="10.00">unordered_map</text>
</a>
</g>
</g>
<!-- Node1&#45;&gt;Node17 -->
<g id="edge31_Node000001_Node000017" class="edge">
<title>Node1&#45;&gt;Node17</title>
<g id="a_edge31_Node000001_Node000017"><a xlink:title=" ">
<path fill="none" stroke="#63b8ff" d="M631.25,-230.98C689.58,-206.37 788.17,-164.77 837.31,-144.03"/>
<polygon fill="#63b8ff" stroke="#63b8ff" points="838.88,-147.17 846.73,-140.05 836.16,-140.72 838.88,-147.17"/>
</a>
</g>
</g>
<!-- Node2&#45;&gt;Node3 -->
<g id="edge2_Node000002_Node000003" class="edge">
<title>Node2&#45;&gt;Node3</title>
<g id="a_edge2_Node000002_Node000003"><a xlink:title=" ">
<path fill="none" stroke="#63b8ff" d="M516.37,-175.98C487.49,-167.09 441.99,-153.07 409.8,-143.15"/>
<polygon fill="#63b8ff" stroke="#63b8ff" points="410.44,-139.68 399.85,-140.08 408.38,-146.37 410.44,-139.68"/>
</a>
</g>
</g>
<!-- Node2&#45;&gt;Node4 -->
<g id="edge15_Node000002_Node000004" class="edge">
<title>Node2&#45;&gt;Node4</title>
<g id="a_edge15_Node000002_Node000004"><a xlink:title=" ">
<path fill="none" stroke="#63b8ff" d="M488.63,-176.17C441.71,-168.54 372.87,-156.01 314,-140 254.68,-123.86 187.49,-98.45 149.49,-83.38"/>
<polygon fill="#63b8ff" stroke="#63b8ff" points="150.61,-80.06 140.02,-79.61 148.01,-86.57 150.61,-80.06"/>
</a>
</g>
</g>
<!-- Node2&#45;&gt;Node6 -->
<g id="edge21_Node000002_Node000006" class="edge">
<title>Node2&#45;&gt;Node6</title>
<g id="a_edge21_Node000002_Node000006"><a xlink:title=" ">
<path fill="none" stroke="#63b8ff" d="M548.59,-175.91C556.17,-162.47 572.53,-136.41 593,-121 627.75,-94.85 659.55,-120.97 684,-85 691.5,-73.97 691.95,-65.71 684,-55 657.72,-19.59 604.04,-11.36 569.33,-9.97"/>
<polygon fill="#63b8ff" stroke="#63b8ff" points="569.3,-6.47 559.22,-9.73 569.14,-13.46 569.3,-6.47"/>
</a>
</g>
</g>
<!-- Node8 -->
<g id="Node000008" class="node">
<title>Node8</title>
<g id="a_Node000008"><a xlink:title=" ">
<polygon fill="#e0e0e0" stroke="#999999" points="675,-79.5 625,-79.5 625,-60.5 675,-60.5 675,-79.5"/>
<text text-anchor="middle" x="650" y="-67.5" font-family="Helvetica,sans-Serif" font-size="10.00">chrono</text>
</a>
</g>
</g>
<!-- Node2&#45;&gt;Node8 -->
<g id="edge17_Node000002_Node000008" class="edge">
<title>Node2&#45;&gt;Node8</title>
<g id="a_edge17_Node000002_Node000008"><a xlink:title=" ">
<path fill="none" stroke="#63b8ff" d="M544.08,-175.76C544.62,-162.58 547.39,-137.41 560,-121 568.23,-110.29 598.13,-94.79 621.23,-83.9"/>
<polygon fill="#63b8ff" stroke="#63b8ff" points="622.72,-87.06 630.31,-79.68 619.77,-80.71 622.72,-87.06"/>
</a>
</g>
</g>
<!-- Node2&#45;&gt;Node9 -->
<g id="edge19_Node000002_Node000009" class="edge">
<title>Node2&#45;&gt;Node9</title>
<g id="a_edge19_Node000002_Node000009"><a xlink:title=" ">
<path fill="none" stroke="#63b8ff" d="M488.76,-178.45C429.54,-171.41 332.96,-158.38 251,-140 167.72,-121.32 147.97,-111.99 67,-85 65.1,-84.37 63.15,-83.7 61.19,-83.02"/>
<polygon fill="#63b8ff" stroke="#63b8ff" points="62.02,-79.6 51.42,-79.53 59.66,-86.19 62.02,-79.6"/>
</a>
</g>
</g>
<!-- Node12 -->
<g id="Node000012" class="node">
<title>Node12</title>
<g id="a_Node000012"><a xlink:title=" ">
<polygon fill="#e0e0e0" stroke="#999999" points="606.5,-79.5 559.5,-79.5 559.5,-60.5 606.5,-60.5 606.5,-79.5"/>
<text text-anchor="middle" x="583" y="-67.5" font-family="Helvetica,sans-Serif" font-size="10.00">vector</text>
</a>
</g>
</g>
<!-- Node2&#45;&gt;Node12 -->
<g id="edge23_Node000002_Node000012" class="edge">
<title>Node2&#45;&gt;Node12</title>
<g id="a_edge23_Node000002_Node000012"><a xlink:title=" ">
<path fill="none" stroke="#63b8ff" d="M536.64,-175.64C527.22,-163.14 513.12,-139.77 522,-121 529.28,-105.61 543.88,-93.38 556.96,-84.87"/>
<polygon fill="#63b8ff" stroke="#63b8ff" points="558.95,-87.76 565.67,-79.57 555.31,-81.77 558.95,-87.76"/>
</a>
</g>
</g>
<!-- Node2&#45;&gt;Node14 -->
<g id="edge16_Node000002_Node000014" class="edge">
<title>Node2&#45;&gt;Node14</title>
<g id="a_edge16_Node000002_Node000014"><a xlink:title=" ">
<path fill="none" stroke="#63b8ff" d="M557.34,-175.98C570.09,-167.84 589.55,-155.41 604.67,-145.76"/>
<polygon fill="#63b8ff" stroke="#63b8ff" points="606.88,-148.5 613.42,-140.17 603.11,-142.6 606.88,-148.5"/>
</a>
</g>
</g>
<!-- Node2&#45;&gt;Node15 -->
<g id="edge18_Node000002_Node000015" class="edge">
<title>Node2&#45;&gt;Node15</title>
<g id="a_edge18_Node000002_Node000015"><a xlink:title=" ">
<path fill="none" stroke="#63b8ff" d="M569.55,-175.98C596.12,-167.13 637.94,-153.19 667.67,-143.28"/>
<polygon fill="#63b8ff" stroke="#63b8ff" points="668.87,-146.56 677.25,-140.08 666.66,-139.92 668.87,-146.56"/>
</a>
</g>
</g>
<!-- Node2&#45;&gt;Node16 -->
<g id="edge20_Node000002_Node000016" class="edge">
<title>Node2&#45;&gt;Node16</title>
<g id="a_edge20_Node000002_Node000016"><a xlink:title=" ">
<path fill="none" stroke="#63b8ff" d="M583.91,-175.94C624.33,-167.2 688.61,-153.08 744,-140 744.1,-139.98 744.2,-139.95 744.3,-139.93"/>
<polygon fill="#63b8ff" stroke="#63b8ff" points="744.98,-143.37 753.87,-137.61 743.33,-136.56 744.98,-143.37"/>
</a>
</g>
</g>
<!-- Node2&#45;&gt;Node17 -->
<g id="edge22_Node000002_Node000017" class="edge">
<title>Node2&#45;&gt;Node17</title>
<g id="a_edge22_Node000002_Node000017"><a xlink:title=" ">
<path fill="none" stroke="#63b8ff" d="M595.9,-175.98C654.56,-166.36 749.76,-150.74 810.32,-140.8"/>
<polygon fill="#63b8ff" stroke="#63b8ff" points="811.17,-144.21 820.47,-139.13 810.04,-137.3 811.17,-144.21"/>
</a>
</g>
</g>
<!-- Node3&#45;&gt;Node4 -->
<g id="edge3_Node000003_Node000004" class="edge">
<title>Node3&#45;&gt;Node4</title>
<g id="a_edge3_Node000003_Node000004"><a xlink:title=" ">
<path fill="none" stroke="#63b8ff" d="M333.28,-120.92C293.71,-112.1 230.5,-97.88 176,-85 171.87,-84.02 167.58,-83 163.29,-81.96"/>
<polygon fill="#63b8ff" stroke="#63b8ff" points="163.88,-78.5 153.34,-79.54 162.23,-85.3 163.88,-78.5"/>
</a>
</g>
</g>
<!-- Node5 -->
<g id="Node000005" class="node">
<title>Node5</title>
<g id="a_Node000005"><a xlink:title=" ">
<polygon fill="#e0e0e0" stroke="#999999" points="215,-19 165,-19 165,0 215,0 215,-19"/>
<text text-anchor="middle" x="190" y="-7" font-family="Helvetica,sans-Serif" font-size="10.00">cstdint</text>
</a>
</g>
</g>
<!-- Node3&#45;&gt;Node5 -->
<g id="edge8_Node000003_Node000005" class="edge">
<title>Node3&#45;&gt;Node5</title>
<g id="a_edge8_Node000003_Node000005"><a xlink:title=" ">
<path fill="none" stroke="#63b8ff" d="M322.94,-121.68C280.97,-114.02 224.89,-101.16 209,-85 194.55,-70.31 190.62,-46.24 189.77,-29.45"/>
<polygon fill="#63b8ff" stroke="#63b8ff" points="193.27,-29.13 189.59,-19.2 186.27,-29.26 193.27,-29.13"/>
</a>
</g>
</g>
<!-- Node3&#45;&gt;Node6 -->
<g id="edge11_Node000003_Node000006" class="edge">
<title>Node3&#45;&gt;Node6</title>
<g id="a_edge11_Node000003_Node000006"><a xlink:title=" ">
<path fill="none" stroke="#63b8ff" d="M371.65,-120.86C371.5,-105.5 373.49,-73.34 391,-55 420.72,-23.87 471.5,-14.33 504.65,-11.51"/>
<polygon fill="#63b8ff" stroke="#63b8ff" points="505.01,-15 514.75,-10.82 504.53,-8.01 505.01,-15"/>
</a>
</g>
</g>
<!-- Node3&#45;&gt;Node8 -->
<g id="edge7_Node000003_Node000008" class="edge">
<title>Node3&#45;&gt;Node8</title>
<g id="a_edge7_Node000003_Node000008"><a xlink:title=" ">
<path fill="none" stroke="#63b8ff" d="M421.07,-123.44C470.63,-116.65 549.07,-104.02 615,-85 616.93,-84.44 618.91,-83.82 620.88,-83.15"/>
<polygon fill="#63b8ff" stroke="#63b8ff" points="622.45,-86.3 630.62,-79.55 620.03,-79.73 622.45,-86.3"/>
</a>
</g>
</g>
<!-- Node3&#45;&gt;Node9 -->
<g id="edge9_Node000003_Node000009" class="edge">
<title>Node3&#45;&gt;Node9</title>
<g id="a_edge9_Node000003_Node000009"><a xlink:title=" ">
<path fill="none" stroke="#63b8ff" d="M322.79,-125.5C261.98,-119.83 155.68,-107.54 67,-85 64.56,-84.38 62.05,-83.66 59.55,-82.87"/>
<polygon fill="#63b8ff" stroke="#63b8ff" points="60.65,-79.55 50.06,-79.64 58.4,-86.18 60.65,-79.55"/>
</a>
</g>
</g>
<!-- Node10 -->
<g id="Node000010" class="node">
<title>Node10</title>
<g id="a_Node000010"><a xlink:title=" ">
<polygon fill="#e0e0e0" stroke="#999999" points="274,-79.5 218,-79.5 218,-60.5 274,-60.5 274,-79.5"/>
<text text-anchor="middle" x="246" y="-67.5" font-family="Helvetica,sans-Serif" font-size="10.00">optional</text>
</a>
</g>
</g>
<!-- Node3&#45;&gt;Node10 -->
<g id="edge10_Node000003_Node000010" class="edge">
<title>Node3&#45;&gt;Node10</title>
<g id="a_edge10_Node000003_Node000010"><a xlink:title=" ">
<path fill="none" stroke="#63b8ff" d="M353.68,-120.99C332.59,-111.2 297.74,-95.02 273.42,-83.73"/>
<polygon fill="#63b8ff" stroke="#63b8ff" points="274.89,-80.55 264.34,-79.52 271.94,-86.9 274.89,-80.55"/>
</a>
</g>
</g>
<!-- Node11 -->
<g id="Node000011" class="node">
<title>Node11</title>
<g id="a_Node000011"><a xlink:title=" ">
<polygon fill="#e0e0e0" stroke="#999999" points="343.5,-79.5 292.5,-79.5 292.5,-60.5 343.5,-60.5 343.5,-79.5"/>
<text text-anchor="middle" x="318" y="-67.5" font-family="Helvetica,sans-Serif" font-size="10.00">variant</text>
</a>
</g>
</g>
<!-- Node3&#45;&gt;Node11 -->
<g id="edge12_Node000003_Node000011" class="edge">
<title>Node3&#45;&gt;Node11</title>
<g id="a_edge12_Node000003_Node000011"><a xlink:title=" ">
<path fill="none" stroke="#63b8ff" d="M364.03,-120.87C355.9,-112.05 343.07,-98.16 333.02,-87.27"/>
<polygon fill="#63b8ff" stroke="#63b8ff" points="335.36,-84.64 326,-79.67 330.21,-89.39 335.36,-84.64"/>
</a>
</g>
</g>
<!-- Node3&#45;&gt;Node12 -->
<g id="edge13_Node000003_Node000012" class="edge">
<title>Node3&#45;&gt;Node12</title>
<g id="a_edge13_Node000003_Node000012"><a xlink:title=" ">
<path fill="none" stroke="#63b8ff" d="M413.89,-120.97C450.3,-113.09 504.24,-100.32 550,-85 551.62,-84.46 553.28,-83.87 554.94,-83.25"/>
<polygon fill="#63b8ff" stroke="#63b8ff" points="556.35,-86.46 564.35,-79.51 553.76,-79.95 556.35,-86.46"/>
</a>
</g>
</g>
<!-- Node3&#45;&gt;Node13 -->
<g id="edge14_Node000003_Node000013" class="edge">
<title>Node3&#45;&gt;Node13</title>
<g id="a_edge14_Node000003_Node000013"><a xlink:title=" ">
<path fill="none" stroke="#63b8ff" d="M386.61,-120.87C400.17,-112.86 420.83,-100.65 438.31,-90.31"/>
<polygon fill="#63b8ff" stroke="#63b8ff" points="440.29,-93.22 447.11,-85.11 436.72,-87.19 440.29,-93.22"/>
</a>
</g>
</g>
<!-- Node4&#45;&gt;Node5 -->
<g id="edge4_Node000004_Node000005" class="edge">
<title>Node4&#45;&gt;Node5</title>
<g id="a_edge4_Node000004_Node000005"><a xlink:title=" ">
<path fill="none" stroke="#63b8ff" d="M129.48,-60.37C140.49,-51.3 158.04,-36.84 171.41,-25.82"/>
<polygon fill="#63b8ff" stroke="#63b8ff" points="173.99,-28.23 179.48,-19.17 169.54,-22.83 173.99,-28.23"/>
</a>
</g>
</g>
<!-- Node4&#45;&gt;Node6 -->
<g id="edge5_Node000004_Node000006" class="edge">
<title>Node4&#45;&gt;Node6</title>
<g id="a_edge5_Node000004_Node000006"><a xlink:title=" ">
<path fill="none" stroke="#63b8ff" d="M162.01,-62.14C176.88,-59.81 193.67,-57.23 209,-55 317.14,-39.25 445.61,-22.35 504.53,-14.69"/>
<polygon fill="#63b8ff" stroke="#63b8ff" points="505.24,-18.13 514.71,-13.37 504.34,-11.19 505.24,-18.13"/>
</a>
</g>
</g>
<!-- Node7 -->
<g id="Node000007" class="node">
<title>Node7</title>
<g id="a_Node000007"><a xlink:title=" ">
<polygon fill="#e0e0e0" stroke="#999999" points="146.5,-19 73.5,-19 73.5,0 146.5,0 146.5,-19"/>
<text text-anchor="middle" x="110" y="-7" font-family="Helvetica,sans-Serif" font-size="10.00">string_view</text>
</a>
</g>
</g>
<!-- Node4&#45;&gt;Node7 -->
<g id="edge6_Node000004_Node000007" class="edge">
<title>Node4&#45;&gt;Node7</title>
<g id="a_edge6_Node000004_Node000007"><a xlink:title=" ">
<path fill="none" stroke="#63b8ff" d="M117.67,-60.37C116.41,-52.16 114.47,-39.54 112.85,-29.05"/>
<polygon fill="#63b8ff" stroke="#63b8ff" points="116.31,-28.52 111.33,-19.17 109.39,-29.58 116.31,-28.52"/>
</a>
</g>
</g>
</g>
</svg>

<g id="navigator" transform="translate(0 0)" fill="#404254">
  <rect fill="#f2f5e9" fill-opacity="0.5" stroke="#606060" stroke-width=".5" x="0" y="0" width="60" height="60"/>
  <use id="zoomplus" xlink:href="#zoomPlus" x="17" y="9" onmousedown="handleZoom(evt,'in')"/>
  <use id="zoomminus" xlink:href="#zoomMin" x="42" y="9" onmousedown="handleZoom(evt,'out')"/>
  <use id="reset" xlink:href="#resetDef" x="30" y="36" onmousedown="handleReset()"/>
   <use id="arrowup" xlink:href="#arrowUp" x="0" y="0" onmousedown="handlePan(0,-1)"/>
  <use id="arrowright" xlink:href="#arrowRight" x="0" y="0" onmousedown="handlePan(1,0)"/>
  <use id="arrowdown" xlink:href="#arrowDown" x="0" y="0" onmousedown="handlePan(0,1)"/>
  <use id="arrowleft" xlink:href="#arrowLeft" x="0" y="0" onmousedown="handlePan(-1,0)"/>
</g>
<svg viewBox="0 0 15 15" width="100%" height="30px" preserveAspectRatio="xMaxYMin meet">
 <g id="arrow_out" transform="scale(0.3 0.3)">
  <a xlink:href="gateway__server_8h__incl_org.svg" target="_base">
   <rect id="button" ry="5" rx="5" y="6" x="6" height="38" width="38"
        fill="#f2f5e9" fill-opacity="0.5" stroke="#606060" stroke-width="1.0"/>
   <path id="arrow"
     d="M 11.500037,31.436501 C 11.940474,20.09759 22.043105,11.32322 32.158766,21.979434 L 37.068811,17.246167 C 37.068811,17.246167 37.088388,32 37.088388,32 L 22.160133,31.978069 C 22.160133,31.978069 26.997745,27.140456 26.997745,27.140456 C 18.528582,18.264221 13.291696,25.230495 11.500037,31.436501 z"
     style="fill:#404040;"/>
  </a>
 </g>
</svg>

<style type='text/css'>
<![CDATA[
[data-mouse-over-selected='false'] { opacity: 0.7; }
[data-mouse-over-selected='true']  { opacity: 1.0; }
]]>
</style>
<script type="application/ecmascript"><![CDATA[
document.addEventListener('DOMContentLoaded', (event) => {
  highlightEdges();
  highlightAdjacentNodes();
});
]]></script>
</svg>
