<?xml version="1.0" encoding="UTF-8" standalone="no"?>
<!DOCTYPE svg PUBLIC "-//W3C//DTD SVG 1.1//EN"
 "http://www.w3.org/Graphics/SVG/1.1/DTD/svg11.dtd">
<!-- Generated by graphviz version 2.43.0 (0)
 -->
<!-- Title: src/gateway/gateway_server.cpp Pages: 1 -->
<svg width="1245pt" height="346pt"
 viewBox="0.00 0.00 1244.50 346.00" xmlns="http://www.w3.org/2000/svg" xmlns:xlink="http://www.w3.org/1999/xlink">
<g id="graph0" class="graph" transform="scale(1 1) rotate(0) translate(4 342)">
<title>src/gateway/gateway_server.cpp</title>
<!-- Node1 -->
<g id="Node000001" class="node">
<title>Node1</title>
<g id="a_Node000001"><a xlink:title=" ">
<polygon fill="#999999" stroke="#666666" points="744.5,-338 623.5,-338 623.5,-308 744.5,-308 744.5,-338"/>
<text text-anchor="start" x="631.5" y="-326" font-family="Helvetica,sans-Serif" font-size="10.00">src/gateway/gateway</text>
<text text-anchor="middle" x="684" y="-315" font-family="Helvetica,sans-Serif" font-size="10.00">_server.cpp</text>
</a>
</g>
</g>
<!-- Node2 -->
<g id="Node000002" class="node">
<title>Node2</title>
<g id="a_Node000002"><a xlink:href="gateway__server_8h.html" target="_top" xlink:title="Database gateway TCP server.">
<polygon fill="white" stroke="#666666" points="759.5,-272 608.5,-272 608.5,-242 759.5,-242 759.5,-272"/>
<text text-anchor="start" x="616.5" y="-260" font-family="Helvetica,sans-Serif" font-size="10.00">kcenon/database_server</text>
<text text-anchor="middle" x="684" y="-249" font-family="Helvetica,sans-Serif" font-size="10.00">/gateway/gateway_server.h</text>
</a>
</g>
</g>
<!-- Node1&#45;&gt;Node2 -->
<g id="edge1_Node000001_Node000002" class="edge">
<title>Node1&#45;&gt;Node2</title>
<g id="a_edge1_Node000001_Node000002"><a xlink:title=" ">
<path fill="none" stroke="#63b8ff" d="M684,-307.8C684,-300.34 684,-290.99 684,-282.41"/>
<polygon fill="#63b8ff" stroke="#63b8ff" points="687.5,-282.16 684,-272.16 680.5,-282.16 687.5,-282.16"/>
</a>
</g>
</g>
<!-- Node3 -->
<g id="Node000003" class="node">
<title>Node3</title>
<g id="a_Node000003"><a xlink:href="auth__middleware_8h.html" target="_top" xlink:title="Authentication middleware for database gateway.">
<polygon fill="white" stroke="#666666" points="530,-200.5 420,-200.5 420,-181.5 530,-181.5 530,-200.5"/>
<text text-anchor="middle" x="475" y="-188.5" font-family="Helvetica,sans-Serif" font-size="10.00">auth_middleware.h</text>
</a>
</g>
</g>
<!-- Node1&#45;&gt;Node3 -->
<g id="edge36_Node000001_Node000003" class="edge">
<title>Node1&#45;&gt;Node3</title>
<g id="a_edge36_Node000001_Node000003"><a xlink:title=" ">
<path fill="none" stroke="#63b8ff" d="M659.29,-307.83C642.24,-297.96 619.11,-284.4 599,-272 562.64,-249.59 521.05,-222.44 496.47,-206.23"/>
<polygon fill="#63b8ff" stroke="#63b8ff" points="498.19,-203.18 487.92,-200.59 494.33,-209.02 498.19,-203.18"/>
</a>
</g>
</g>
<!-- Node9 -->
<g id="Node000009" class="node">
<title>Node9</title>
<g id="a_Node000009"><a xlink:title=" ">
<polygon fill="#e0e0e0" stroke="#999999" points="248,-79.5 198,-79.5 198,-60.5 248,-60.5 248,-79.5"/>
<text text-anchor="middle" x="223" y="-67.5" font-family="Helvetica,sans-Serif" font-size="10.00">chrono</text>
</a>
</g>
</g>
<!-- Node1&#45;&gt;Node9 -->
<g id="edge42_Node000001_Node000009" class="edge">
<title>Node1&#45;&gt;Node9</title>
<g id="a_edge42_Node000001_Node000009"><a xlink:title=" ">
<path fill="none" stroke="#63b8ff" d="M623.48,-314C528.52,-298.2 344.96,-254.04 244,-140 231.7,-126.1 226.6,-105.17 224.49,-90"/>
<polygon fill="#63b8ff" stroke="#63b8ff" points="227.94,-89.31 223.39,-79.74 220.98,-90.06 227.94,-89.31"/>
</a>
</g>
</g>
<!-- Node20 -->
<g id="Node000020" class="node">
<title>Node20</title>
<g id="a_Node000020"><a xlink:href="session__id__generator_8h.html" target="_top" xlink:title="Cryptographically secure session ID generation.">
<polygon fill="white" stroke="#666666" points="176,-206 0,-206 0,-176 176,-176 176,-206"/>
<text text-anchor="start" x="8" y="-194" font-family="Helvetica,sans-Serif" font-size="10.00">kcenon/database_server</text>
<text text-anchor="middle" x="88" y="-183" font-family="Helvetica,sans-Serif" font-size="10.00">/gateway/session_id_generator.h</text>
</a>
</g>
</g>
<!-- Node1&#45;&gt;Node20 -->
<g id="edge37_Node000001_Node000020" class="edge">
<title>Node1&#45;&gt;Node20</title>
<g id="a_edge37_Node000001_Node000020"><a xlink:title=" ">
<path fill="none" stroke="#63b8ff" d="M623.43,-320.07C509.38,-315.75 267.26,-303.13 190,-272 157.71,-258.99 127.2,-232.49 108.11,-213.56"/>
<polygon fill="#63b8ff" stroke="#63b8ff" points="110.4,-210.9 100.89,-206.22 105.41,-215.8 110.4,-210.9"/>
</a>
</g>
</g>
<!-- Node21 -->
<g id="Node000021" class="node">
<title>Node21</title>
<g id="a_Node000021"><a xlink:title=" ">
<polygon fill="#e0e0e0" stroke="#999999" points="908.5,-272 777.5,-272 777.5,-242 908.5,-242 908.5,-272"/>
<text text-anchor="start" x="785.5" y="-260" font-family="Helvetica,sans-Serif" font-size="10.00">kcenon/network/facade</text>
<text text-anchor="middle" x="843" y="-249" font-family="Helvetica,sans-Serif" font-size="10.00">/tcp_facade.h</text>
</a>
</g>
</g>
<!-- Node1&#45;&gt;Node21 -->
<g id="edge39_Node000001_Node000021" class="edge">
<title>Node1&#45;&gt;Node21</title>
<g id="a_edge39_Node000001_Node000021"><a xlink:title=" ">
<path fill="none" stroke="#63b8ff" d="M718.89,-307.95C742.4,-298.49 773.6,-285.93 798.84,-275.78"/>
<polygon fill="#63b8ff" stroke="#63b8ff" points="800.22,-278.99 808.19,-272.01 797.6,-272.5 800.22,-278.99"/>
</a>
</g>
</g>
<!-- Node22 -->
<g id="Node000022" class="node">
<title>Node22</title>
<g id="a_Node000022"><a xlink:title=" ">
<polygon fill="#e0e0e0" stroke="#999999" points="1057,-272 927,-272 927,-242 1057,-242 1057,-272"/>
<text text-anchor="start" x="935" y="-260" font-family="Helvetica,sans-Serif" font-size="10.00">kcenon/common/config</text>
<text text-anchor="middle" x="992" y="-249" font-family="Helvetica,sans-Serif" font-size="10.00">/feature_flags.h</text>
</a>
</g>
</g>
<!-- Node1&#45;&gt;Node22 -->
<g id="edge40_Node000001_Node000022" class="edge">
<title>Node1&#45;&gt;Node22</title>
<g id="a_edge40_Node000001_Node000022"><a xlink:title=" ">
<path fill="none" stroke="#63b8ff" d="M744.85,-309.36C794.18,-299.11 863.93,-284.61 916.76,-273.63"/>
<polygon fill="#63b8ff" stroke="#63b8ff" points="917.67,-277.02 926.75,-271.56 916.25,-270.17 917.67,-277.02"/>
</a>
</g>
</g>
<!-- Node23 -->
<g id="Node000023" class="node">
<title>Node23</title>
<g id="a_Node000023"><a xlink:href="container__compat_8h.html" target="_top" xlink:title="Compatibility header for container_system includes.">
<polygon fill="white" stroke="#666666" points="1236.5,-272 1075.5,-272 1075.5,-242 1236.5,-242 1236.5,-272"/>
<text text-anchor="start" x="1083.5" y="-260" font-family="Helvetica,sans-Serif" font-size="10.00">kcenon/database_server</text>
<text text-anchor="middle" x="1156" y="-249" font-family="Helvetica,sans-Serif" font-size="10.00">/gateway/container_compat.h</text>
</a>
</g>
</g>
<!-- Node1&#45;&gt;Node23 -->
<g id="edge41_Node000001_Node000023" class="edge">
<title>Node1&#45;&gt;Node23</title>
<g id="a_edge41_Node000001_Node000023"><a xlink:title=" ">
<path fill="none" stroke="#63b8ff" d="M744.6,-314.53C817.93,-305.38 945.41,-289.15 1064.99,-272.12"/>
<polygon fill="#63b8ff" stroke="#63b8ff" points="1065.66,-275.56 1075.06,-270.69 1064.67,-268.63 1065.66,-275.56"/>
</a>
</g>
</g>
<!-- Node2&#45;&gt;Node3 -->
<g id="edge2_Node000002_Node000003" class="edge">
<title>Node2&#45;&gt;Node3</title>
<g id="a_edge2_Node000002_Node000003"><a xlink:title=" ">
<path fill="none" stroke="#63b8ff" d="M638.13,-241.95C600.51,-230.43 547.9,-214.32 512.7,-203.54"/>
<polygon fill="#63b8ff" stroke="#63b8ff" points="513.4,-200.1 502.81,-200.52 511.35,-206.79 513.4,-200.1"/>
</a>
</g>
</g>
<!-- Node4 -->
<g id="Node000004" class="node">
<title>Node4</title>
<g id="a_Node000004"><a xlink:href="query__protocol_8h.html" target="_top" xlink:title="Query protocol message structures for database gateway.">
<polygon fill="white" stroke="#666666" points="444,-140 346,-140 346,-121 444,-121 444,-140"/>
<text text-anchor="middle" x="395" y="-128" font-family="Helvetica,sans-Serif" font-size="10.00">query_protocol.h</text>
</a>
</g>
</g>
<!-- Node2&#45;&gt;Node4 -->
<g id="edge25_Node000002_Node000004" class="edge">
<title>Node2&#45;&gt;Node4</title>
<g id="a_edge25_Node000002_Node000004"><a xlink:title=" ">
<path fill="none" stroke="#63b8ff" d="M608.29,-251.42C537.46,-245.54 438.54,-232.71 411,-206 396.34,-191.78 393.54,-167.62 393.63,-150.68"/>
<polygon fill="#63b8ff" stroke="#63b8ff" points="397.14,-150.44 394.04,-140.31 390.15,-150.17 397.14,-150.44"/>
</a>
</g>
</g>
<!-- Node5 -->
<g id="Node000005" class="node">
<title>Node5</title>
<g id="a_Node000005"><a xlink:href="query__types_8h.html" target="_top" xlink:title="Query protocol type definitions for database gateway.">
<polygon fill="white" stroke="#666666" points="752,-79.5 666,-79.5 666,-60.5 752,-60.5 752,-79.5"/>
<text text-anchor="middle" x="709" y="-67.5" font-family="Helvetica,sans-Serif" font-size="10.00">query_types.h</text>
</a>
</g>
</g>
<!-- Node2&#45;&gt;Node5 -->
<g id="edge26_Node000002_Node000005" class="edge">
<title>Node2&#45;&gt;Node5</title>
<g id="a_edge26_Node000002_Node000005"><a xlink:title=" ">
<path fill="none" stroke="#63b8ff" d="M759.57,-242.52C815.53,-231.77 883.51,-216.77 892,-206 915.38,-176.33 914.92,-151.03 892,-121 883.83,-110.29 811.37,-92.85 760.12,-81.66"/>
<polygon fill="#63b8ff" stroke="#63b8ff" points="760.7,-78.2 750.18,-79.5 759.22,-85.04 760.7,-78.2"/>
</a>
</g>
</g>
<!-- Node7 -->
<g id="Node000007" class="node">
<title>Node7</title>
<g id="a_Node000007"><a xlink:title=" ">
<polygon fill="#e0e0e0" stroke="#999999" points="298,-19 254,-19 254,0 298,0 298,-19"/>
<text text-anchor="middle" x="276" y="-7" font-family="Helvetica,sans-Serif" font-size="10.00">string</text>
</a>
</g>
</g>
<!-- Node2&#45;&gt;Node7 -->
<g id="edge32_Node000002_Node000007" class="edge">
<title>Node2&#45;&gt;Node7</title>
<g id="a_edge32_Node000002_Node000007"><a xlink:title=" ">
<path fill="none" stroke="#63b8ff" d="M608.35,-251.48C515.23,-242.65 355.73,-216.63 244,-140 206.89,-114.55 165.52,-93.38 189,-55 200.91,-35.53 224.33,-24.23 243.88,-17.9"/>
<polygon fill="#63b8ff" stroke="#63b8ff" points="245.06,-21.2 253.66,-15.02 243.08,-14.48 245.06,-21.2"/>
</a>
</g>
</g>
<!-- Node8 -->
<g id="Node000008" class="node">
<title>Node8</title>
<g id="a_Node000008"><a xlink:title=" ">
<polygon fill="#e0e0e0" stroke="#999999" points="886.5,-19 813.5,-19 813.5,0 886.5,0 886.5,-19"/>
<text text-anchor="middle" x="850" y="-7" font-family="Helvetica,sans-Serif" font-size="10.00">string_view</text>
</a>
</g>
</g>
<!-- Node2&#45;&gt;Node8 -->
<g id="edge33_Node000002_Node000008" class="edge">
<title>Node2&#45;&gt;Node8</title>
<g id="a_edge33_Node000002_Node000008"><a xlink:title=" ">
<path fill="none" stroke="#63b8ff" d="M759.66,-242.81C829.74,-230.25 924.06,-212.36 930,-206 976.04,-156.66 982.33,-111.88 946,-55 934.89,-37.6 915.02,-26.9 896.24,-20.37"/>
<polygon fill="#63b8ff" stroke="#63b8ff" points="897.15,-16.99 886.56,-17.32 895.05,-23.67 897.15,-16.99"/>
</a>
</g>
</g>
<!-- Node10 -->
<g id="Node000010" class="node">
<title>Node10</title>
<g id="a_Node000010"><a xlink:title=" ">
<polygon fill="#e0e0e0" stroke="#999999" points="648,-79.5 590,-79.5 590,-60.5 648,-60.5 648,-79.5"/>
<text text-anchor="middle" x="619" y="-67.5" font-family="Helvetica,sans-Serif" font-size="10.00">memory</text>
</a>
</g>
</g>
<!-- Node2&#45;&gt;Node10 -->
<g id="edge30_Node000002_Node000010" class="edge">
<title>Node2&#45;&gt;Node10</title>
<g id="a_edge30_Node000002_Node000010"><a xlink:title=" ">
<path fill="none" stroke="#63b8ff" d="M731.2,-241.92C797.06,-219.93 903.72,-174.39 859,-121 829.72,-86.04 701.01,-96.93 657,-85 654.57,-84.34 652.07,-83.59 649.57,-82.79"/>
<polygon fill="#63b8ff" stroke="#63b8ff" points="650.68,-79.47 640.09,-79.52 648.4,-86.09 650.68,-79.47"/>
</a>
</g>
</g>
<!-- Node14 -->
<g id="Node000014" class="node">
<title>Node14</title>
<g id="a_Node000014"><a xlink:title=" ">
<polygon fill="#e0e0e0" stroke="#999999" points="937.5,-85 796.5,-85 796.5,-55 937.5,-55 937.5,-85"/>
<text text-anchor="start" x="804.5" y="-73" font-family="Helvetica,sans-Serif" font-size="10.00">kcenon/common/patterns</text>
<text text-anchor="middle" x="867" y="-62" font-family="Helvetica,sans-Serif" font-size="10.00">/result.h</text>
</a>
</g>
</g>
<!-- Node2&#45;&gt;Node14 -->
<g id="edge35_Node000002_Node000014" class="edge">
<title>Node2&#45;&gt;Node14</title>
<g id="a_edge35_Node000002_Node000014"><a xlink:title=" ">
<path fill="none" stroke="#63b8ff" d="M759.27,-241.97C824.42,-229.47 908.99,-212.21 914,-206 919.78,-198.82 919.46,-139.43 912,-121 907.73,-110.45 900.18,-100.68 892.48,-92.63"/>
<polygon fill="#63b8ff" stroke="#63b8ff" points="894.44,-89.65 884.83,-85.19 889.56,-94.67 894.44,-89.65"/>
</a>
</g>
</g>
<!-- Node15 -->
<g id="Node000015" class="node">
<title>Node15</title>
<g id="a_Node000015"><a xlink:title=" ">
<polygon fill="#e0e0e0" stroke="#999999" points="850,-140 800,-140 800,-121 850,-121 850,-140"/>
<text text-anchor="middle" x="825" y="-128" font-family="Helvetica,sans-Serif" font-size="10.00">atomic</text>
</a>
</g>
</g>
<!-- Node2&#45;&gt;Node15 -->
<g id="edge27_Node000002_Node000015" class="edge">
<title>Node2&#45;&gt;Node15</title>
<g id="a_edge27_Node000002_Node000015"><a xlink:title=" ">
<path fill="none" stroke="#63b8ff" d="M699.9,-241.96C726.53,-218.45 779.94,-171.29 807.56,-146.9"/>
<polygon fill="#63b8ff" stroke="#63b8ff" points="810.07,-149.35 815.25,-140.11 805.44,-144.1 810.07,-149.35"/>
</a>
</g>
</g>
<!-- Node16 -->
<g id="Node000016" class="node">
<title>Node16</title>
<g id="a_Node000016"><a xlink:title=" ">
<polygon fill="#e0e0e0" stroke="#999999" points="603.5,-140 538.5,-140 538.5,-121 603.5,-121 603.5,-140"/>
<text text-anchor="middle" x="571" y="-128" font-family="Helvetica,sans-Serif" font-size="10.00">functional</text>
</a>
</g>
</g>
<!-- Node2&#45;&gt;Node16 -->
<g id="edge29_Node000002_Node000016" class="edge">
<title>Node2&#45;&gt;Node16</title>
<g id="a_edge29_Node000002_Node000016"><a xlink:title=" ">
<path fill="none" stroke="#63b8ff" d="M683.98,-241.97C683.25,-224.63 679.57,-195.07 664,-176 651.2,-160.32 631.57,-149.82 613.63,-142.97"/>
<polygon fill="#63b8ff" stroke="#63b8ff" points="614.49,-139.56 603.9,-139.53 612.16,-146.16 614.49,-139.56"/>
</a>
</g>
</g>
<!-- Node17 -->
<g id="Node000017" class="node">
<title>Node17</title>
<g id="a_Node000017"><a xlink:title=" ">
<polygon fill="#e0e0e0" stroke="#999999" points="670,-140 622,-140 622,-121 670,-121 670,-140"/>
<text text-anchor="middle" x="646" y="-128" font-family="Helvetica,sans-Serif" font-size="10.00">mutex</text>
</a>
</g>
</g>
<!-- Node2&#45;&gt;Node17 -->
<g id="edge31_Node000002_Node000017" class="edge">
<title>Node2&#45;&gt;Node17</title>
<g id="a_edge31_Node000002_Node000017"><a xlink:title=" ">
<path fill="none" stroke="#63b8ff" d="M691.34,-241.77C698.78,-225.25 707.91,-197.52 698,-176 692.25,-163.52 681.09,-153.24 670.58,-145.71"/>
<polygon fill="#63b8ff" stroke="#63b8ff" points="672.3,-142.65 662.03,-140.05 668.43,-148.49 672.3,-142.65"/>
</a>
</g>
</g>
<!-- Node18 -->
<g id="Node000018" class="node">
<title>Node18</title>
<g id="a_Node000018"><a xlink:title=" ">
<polygon fill="#e0e0e0" stroke="#999999" points="781.5,-140 688.5,-140 688.5,-121 781.5,-121 781.5,-140"/>
<text text-anchor="middle" x="735" y="-128" font-family="Helvetica,sans-Serif" font-size="10.00">unordered_map</text>
</a>
</g>
</g>
<!-- Node2&#45;&gt;Node18 -->
<g id="edge34_Node000002_Node000018" class="edge">
<title>Node2&#45;&gt;Node18</title>
<g id="a_edge34_Node000002_Node000018"><a xlink:title=" ">
<path fill="none" stroke="#63b8ff" d="M694.41,-241.74C701.08,-232.06 709.48,-218.75 715,-206 722.96,-187.61 728.45,-165.25 731.64,-149.86"/>
<polygon fill="#63b8ff" stroke="#63b8ff" points="735.07,-150.52 733.55,-140.04 728.2,-149.18 735.07,-150.52"/>
</a>
</g>
</g>
<!-- Node19 -->
<g id="Node000019" class="node">
<title>Node19</title>
<g id="a_Node000019"><a xlink:title=" ">
<polygon fill="#e0e0e0" stroke="#999999" points="655.5,-200.5 548.5,-200.5 548.5,-181.5 655.5,-181.5 655.5,-200.5"/>
<text text-anchor="middle" x="602" y="-188.5" font-family="Helvetica,sans-Serif" font-size="10.00">condition_variable</text>
</a>
</g>
</g>
<!-- Node2&#45;&gt;Node19 -->
<g id="edge28_Node000002_Node000019" class="edge">
<title>Node2&#45;&gt;Node19</title>
<g id="a_edge28_Node000002_Node000019"><a xlink:title=" ">
<path fill="none" stroke="#63b8ff" d="M665.8,-241.8C652.64,-231.53 634.89,-217.67 621.45,-207.18"/>
<polygon fill="#63b8ff" stroke="#63b8ff" points="623.37,-204.24 613.33,-200.84 619.06,-209.76 623.37,-204.24"/>
</a>
</g>
</g>
<!-- Node3&#45;&gt;Node4 -->
<g id="edge3_Node000003_Node000004" class="edge">
<title>Node3&#45;&gt;Node4</title>
<g id="a_edge3_Node000003_Node000004"><a xlink:title=" ">
<path fill="none" stroke="#63b8ff" d="M463.2,-181.37C450.55,-172.12 430.26,-157.28 415.09,-146.19"/>
<polygon fill="#63b8ff" stroke="#63b8ff" points="416.99,-143.24 406.85,-140.17 412.86,-148.9 416.99,-143.24"/>
</a>
</g>
</g>
<!-- Node3&#45;&gt;Node5 -->
<g id="edge16_Node000003_Node000005" class="edge">
<title>Node3&#45;&gt;Node5</title>
<g id="a_edge16_Node000003_Node000005"><a xlink:title=" ">
<path fill="none" stroke="#63b8ff" d="M479.37,-181.34C487.24,-166.65 505.22,-136.88 529,-121 531.95,-119.03 615.18,-96.33 667.41,-82.21"/>
<polygon fill="#63b8ff" stroke="#63b8ff" points="668.36,-85.58 677.1,-79.59 666.53,-78.82 668.36,-85.58"/>
</a>
</g>
</g>
<!-- Node3&#45;&gt;Node7 -->
<g id="edge22_Node000003_Node000007" class="edge">
<title>Node3&#45;&gt;Node7</title>
<g id="a_edge22_Node000003_Node000007"><a xlink:title=" ">
<path fill="none" stroke="#63b8ff" d="M419.85,-181.83C389.16,-174.95 351.85,-162.46 325,-140 291.29,-111.8 280.74,-57.84 277.46,-29.29"/>
<polygon fill="#63b8ff" stroke="#63b8ff" points="280.92,-28.69 276.48,-19.07 273.95,-29.36 280.92,-28.69"/>
</a>
</g>
</g>
<!-- Node3&#45;&gt;Node9 -->
<g id="edge18_Node000003_Node000009" class="edge">
<title>Node3&#45;&gt;Node9</title>
<g id="a_edge18_Node000003_Node000009"><a xlink:title=" ">
<path fill="none" stroke="#63b8ff" d="M419.63,-188.12C374.51,-184.1 311.11,-172.49 266,-140 248.5,-127.4 236.58,-105.27 229.8,-89.47"/>
<polygon fill="#63b8ff" stroke="#63b8ff" points="232.88,-87.73 225.93,-79.74 226.38,-90.32 232.88,-87.73"/>
</a>
</g>
</g>
<!-- Node3&#45;&gt;Node10 -->
<g id="edge20_Node000003_Node000010" class="edge">
<title>Node3&#45;&gt;Node10</title>
<g id="a_edge20_Node000003_Node000010"><a xlink:title=" ">
<path fill="none" stroke="#63b8ff" d="M475.33,-181.2C476.33,-166.83 480.29,-138.2 496,-121 502.37,-114.03 550.96,-95.5 585.12,-83.07"/>
<polygon fill="#63b8ff" stroke="#63b8ff" points="586.55,-86.27 594.76,-79.58 584.17,-79.69 586.55,-86.27"/>
</a>
</g>
</g>
<!-- Node13 -->
<g id="Node000013" class="node">
<title>Node13</title>
<g id="a_Node000013"><a xlink:title=" ">
<polygon fill="#e0e0e0" stroke="#999999" points="351.5,-79.5 304.5,-79.5 304.5,-60.5 351.5,-60.5 351.5,-79.5"/>
<text text-anchor="middle" x="328" y="-67.5" font-family="Helvetica,sans-Serif" font-size="10.00">vector</text>
</a>
</g>
</g>
<!-- Node3&#45;&gt;Node13 -->
<g id="edge24_Node000003_Node000013" class="edge">
<title>Node3&#45;&gt;Node13</title>
<g id="a_edge24_Node000003_Node000013"><a xlink:title=" ">
<path fill="none" stroke="#63b8ff" d="M419.93,-183.78C390.84,-177.54 357.1,-165.04 337,-140 325.79,-126.04 324.54,-105.11 325.48,-89.97"/>
<polygon fill="#63b8ff" stroke="#63b8ff" points="328.99,-90.02 326.5,-79.73 322.03,-89.33 328.99,-90.02"/>
</a>
</g>
</g>
<!-- Node3&#45;&gt;Node15 -->
<g id="edge17_Node000003_Node000015" class="edge">
<title>Node3&#45;&gt;Node15</title>
<g id="a_edge17_Node000003_Node000015"><a xlink:title=" ">
<path fill="none" stroke="#63b8ff" d="M511.8,-181.47C520.68,-179.54 530.16,-177.6 539,-176 649.9,-155.95 679.34,-161.32 790,-140 790.1,-139.98 790.2,-139.96 790.3,-139.94"/>
<polygon fill="#63b8ff" stroke="#63b8ff" points="790.77,-143.42 799.83,-137.92 789.32,-136.57 790.77,-143.42"/>
</a>
</g>
</g>
<!-- Node3&#45;&gt;Node16 -->
<g id="edge19_Node000003_Node000016" class="edge">
<title>Node3&#45;&gt;Node16</title>
<g id="a_edge19_Node000003_Node000016"><a xlink:title=" ">
<path fill="none" stroke="#63b8ff" d="M489.17,-181.37C504.69,-171.91 529.83,-156.59 548.15,-145.42"/>
<polygon fill="#63b8ff" stroke="#63b8ff" points="550.06,-148.36 556.78,-140.17 546.42,-142.38 550.06,-148.36"/>
</a>
</g>
</g>
<!-- Node3&#45;&gt;Node17 -->
<g id="edge21_Node000003_Node000017" class="edge">
<title>Node3&#45;&gt;Node17</title>
<g id="a_edge21_Node000003_Node000017"><a xlink:title=" ">
<path fill="none" stroke="#63b8ff" d="M499.86,-181.49C529.5,-171.36 579.15,-154.37 612.24,-143.05"/>
<polygon fill="#63b8ff" stroke="#63b8ff" points="613.61,-146.28 621.93,-139.73 611.34,-139.66 613.61,-146.28"/>
</a>
</g>
</g>
<!-- Node3&#45;&gt;Node18 -->
<g id="edge23_Node000003_Node000018" class="edge">
<title>Node3&#45;&gt;Node18</title>
<g id="a_edge23_Node000003_Node000018"><a xlink:title=" ">
<path fill="none" stroke="#63b8ff" d="M512.81,-181.49C558.92,-171.12 636.93,-153.57 687.18,-142.26"/>
<polygon fill="#63b8ff" stroke="#63b8ff" points="688.16,-145.63 697.15,-140.02 686.62,-138.8 688.16,-145.63"/>
</a>
</g>
</g>
<!-- Node4&#45;&gt;Node5 -->
<g id="edge4_Node000004_Node000005" class="edge">
<title>Node4&#45;&gt;Node5</title>
<g id="a_edge4_Node000004_Node000005"><a xlink:title=" ">
<path fill="none" stroke="#63b8ff" d="M444.04,-122.59C496.88,-114.81 583.31,-101.14 657,-85 660.95,-84.14 665.04,-83.16 669.12,-82.15"/>
<polygon fill="#63b8ff" stroke="#63b8ff" points="670.34,-85.45 679.15,-79.56 668.59,-78.67 670.34,-85.45"/>
</a>
</g>
</g>
<!-- Node6 -->
<g id="Node000006" class="node">
<title>Node6</title>
<g id="a_Node000006"><a xlink:title=" ">
<polygon fill="#e0e0e0" stroke="#999999" points="660,-19 610,-19 610,0 660,0 660,-19"/>
<text text-anchor="middle" x="635" y="-7" font-family="Helvetica,sans-Serif" font-size="10.00">cstdint</text>
</a>
</g>
</g>
<!-- Node4&#45;&gt;Node6 -->
<g id="edge9_Node000004_Node000006" class="edge">
<title>Node4&#45;&gt;Node6</title>
<g id="a_edge9_Node000004_Node000006"><a xlink:title=" ">
<path fill="none" stroke="#63b8ff" d="M438.5,-120.93C468.69,-113.9 509.2,-102.27 542,-85 546.13,-82.82 590.71,-46.65 616.62,-25.52"/>
<polygon fill="#63b8ff" stroke="#63b8ff" points="619.07,-28.04 624.6,-19 614.64,-22.61 619.07,-28.04"/>
</a>
</g>
</g>
<!-- Node4&#45;&gt;Node7 -->
<g id="edge12_Node000004_Node000007" class="edge">
<title>Node4&#45;&gt;Node7</title>
<g id="a_edge12_Node000004_Node000007"><a xlink:title=" ">
<path fill="none" stroke="#63b8ff" d="M392.83,-120.64C388.72,-105.51 378.54,-74.45 360,-55 345.63,-39.92 325.01,-28.89 307.79,-21.59"/>
<polygon fill="#63b8ff" stroke="#63b8ff" points="308.71,-18.18 298.12,-17.71 306.11,-24.68 308.71,-18.18"/>
</a>
</g>
</g>
<!-- Node4&#45;&gt;Node9 -->
<g id="edge8_Node000004_Node000009" class="edge">
<title>Node4&#45;&gt;Node9</title>
<g id="a_edge8_Node000004_Node000009"><a xlink:title=" ">
<path fill="none" stroke="#63b8ff" d="M369.99,-120.99C340.44,-110.94 291.09,-94.16 257.81,-82.84"/>
<polygon fill="#63b8ff" stroke="#63b8ff" points="258.63,-79.42 248.04,-79.52 256.38,-86.05 258.63,-79.42"/>
</a>
</g>
</g>
<!-- Node4&#45;&gt;Node10 -->
<g id="edge10_Node000004_Node000010" class="edge">
<title>Node4&#45;&gt;Node10</title>
<g id="a_edge10_Node000004_Node000010"><a xlink:title=" ">
<path fill="none" stroke="#63b8ff" d="M433.35,-120.94C470.14,-112.52 527.15,-98.94 576,-85 578.6,-84.26 581.28,-83.46 583.97,-82.64"/>
<polygon fill="#63b8ff" stroke="#63b8ff" points="585.14,-85.94 593.63,-79.6 583.04,-79.26 585.14,-85.94"/>
</a>
</g>
</g>
<!-- Node11 -->
<g id="Node000011" class="node">
<title>Node11</title>
<g id="a_Node000011"><a xlink:title=" ">
<polygon fill="#e0e0e0" stroke="#999999" points="464,-79.5 408,-79.5 408,-60.5 464,-60.5 464,-79.5"/>
<text text-anchor="middle" x="436" y="-67.5" font-family="Helvetica,sans-Serif" font-size="10.00">optional</text>
</a>
</g>
</g>
<!-- Node4&#45;&gt;Node11 -->
<g id="edge11_Node000004_Node000011" class="edge">
<title>Node4&#45;&gt;Node11</title>
<g id="a_edge11_Node000004_Node000011"><a xlink:title=" ">
<path fill="none" stroke="#63b8ff" d="M401.05,-120.87C407.11,-112.23 416.59,-98.7 424.14,-87.92"/>
<polygon fill="#63b8ff" stroke="#63b8ff" points="427.05,-89.87 429.93,-79.67 421.32,-85.85 427.05,-89.87"/>
</a>
</g>
</g>
<!-- Node12 -->
<g id="Node000012" class="node">
<title>Node12</title>
<g id="a_Node000012"><a xlink:title=" ">
<polygon fill="#e0e0e0" stroke="#999999" points="533.5,-79.5 482.5,-79.5 482.5,-60.5 533.5,-60.5 533.5,-79.5"/>
<text text-anchor="middle" x="508" y="-67.5" font-family="Helvetica,sans-Serif" font-size="10.00">variant</text>
</a>
</g>
</g>
<!-- Node4&#45;&gt;Node12 -->
<g id="edge13_Node000004_Node000012" class="edge">
<title>Node4&#45;&gt;Node12</title>
<g id="a_edge13_Node000004_Node000012"><a xlink:title=" ">
<path fill="none" stroke="#63b8ff" d="M411.67,-120.87C430.28,-111.23 460.62,-95.53 482.28,-84.31"/>
<polygon fill="#63b8ff" stroke="#63b8ff" points="483.99,-87.37 491.26,-79.67 480.77,-81.16 483.99,-87.37"/>
</a>
</g>
</g>
<!-- Node4&#45;&gt;Node13 -->
<g id="edge14_Node000004_Node000013" class="edge">
<title>Node4&#45;&gt;Node13</title>
<g id="a_edge14_Node000004_Node000013"><a xlink:title=" ">
<path fill="none" stroke="#63b8ff" d="M385.11,-120.87C374.72,-111.8 358.16,-97.34 345.55,-86.32"/>
<polygon fill="#63b8ff" stroke="#63b8ff" points="347.76,-83.61 337.93,-79.67 343.16,-88.88 347.76,-83.61"/>
</a>
</g>
</g>
<!-- Node4&#45;&gt;Node14 -->
<g id="edge15_Node000004_Node000014" class="edge">
<title>Node4&#45;&gt;Node14</title>
<g id="a_edge15_Node000004_Node000014"><a xlink:title=" ">
<path fill="none" stroke="#63b8ff" d="M444.16,-123.69C514.43,-115.34 647.65,-99.38 761,-85 769.21,-83.96 777.77,-82.86 786.31,-81.75"/>
<polygon fill="#63b8ff" stroke="#63b8ff" points="786.85,-85.2 796.31,-80.44 785.94,-78.26 786.85,-85.2"/>
</a>
</g>
</g>
<!-- Node5&#45;&gt;Node6 -->
<g id="edge5_Node000005_Node000006" class="edge">
<title>Node5&#45;&gt;Node6</title>
<g id="a_edge5_Node000005_Node000006"><a xlink:title=" ">
<path fill="none" stroke="#63b8ff" d="M698.08,-60.37C686.49,-51.21 667.97,-36.56 653.98,-25.51"/>
<polygon fill="#63b8ff" stroke="#63b8ff" points="655.98,-22.62 645.96,-19.17 651.64,-28.11 655.98,-22.62"/>
</a>
</g>
</g>
<!-- Node5&#45;&gt;Node7 -->
<g id="edge6_Node000005_Node000007" class="edge">
<title>Node5&#45;&gt;Node7</title>
<g id="a_edge6_Node000005_Node000007"><a xlink:title=" ">
<path fill="none" stroke="#63b8ff" d="M680.29,-60.46C672.77,-58.45 664.62,-56.46 657,-55 529.07,-30.44 374.19,-17.43 308.24,-12.66"/>
<polygon fill="#63b8ff" stroke="#63b8ff" points="308.3,-9.16 298.08,-11.94 307.8,-16.14 308.3,-9.16"/>
</a>
</g>
</g>
<!-- Node5&#45;&gt;Node8 -->
<g id="edge7_Node000005_Node000008" class="edge">
<title>Node5&#45;&gt;Node8</title>
<g id="a_edge7_Node000005_Node000008"><a xlink:title=" ">
<path fill="none" stroke="#63b8ff" d="M729.5,-60.49C753.31,-50.62 792.79,-34.23 820.04,-22.93"/>
<polygon fill="#63b8ff" stroke="#63b8ff" points="821.58,-26.08 829.47,-19.02 818.89,-19.62 821.58,-26.08"/>
</a>
</g>
</g>
<!-- Node20&#45;&gt;Node7 -->
<g id="edge38_Node000020_Node000007" class="edge">
<title>Node20&#45;&gt;Node7</title>
<g id="a_edge38_Node000020_Node000007"><a xlink:title=" ">
<path fill="none" stroke="#63b8ff" d="M90.98,-175.6C97.37,-148.28 114.91,-88.62 152,-55 177.7,-31.71 216.45,-20.4 243.79,-15.04"/>
<polygon fill="#63b8ff" stroke="#63b8ff" points="244.43,-18.49 253.65,-13.27 243.19,-11.6 244.43,-18.49"/>
</a>
</g>
</g>
</g>
</svg>
