<?xml version="1.0" encoding="UTF-8" standalone="no"?>
<!DOCTYPE svg PUBLIC "-//W3C//DTD SVG 1.1//EN"
 "http://www.w3.org/Graphics/SVG/1.1/DTD/svg11.dtd">
<!-- Generated by graphviz version 2.43.0 (0)
 -->
<!-- Title: include/kcenon/database_server/gateway/gateway_server.h Pages: 1 -->
<svg width="980pt" height="280pt"
 viewBox="0.00 0.00 980.00 280.00" xmlns="http://www.w3.org/2000/svg" xmlns:xlink="http://www.w3.org/1999/xlink">
<g id="graph0" class="graph" transform="scale(1 1) rotate(0) translate(4 276)">
<title>include/kcenon/database_server/gateway/gateway_server.h</title>
<!-- Node1 -->
<g id="Node000001" class="node">
<title>Node1</title>
<g id="a_Node000001"><a xlink:title="Database gateway TCP server.">
<polygon fill="#999999" stroke="#666666" points="551,-272 408,-272 408,-231 551,-231 551,-272"/>
<text text-anchor="start" x="416" y="-260" font-family="Helvetica,sans-Serif" font-size="10.00">include/kcenon/database</text>
<text text-anchor="start" x="416" y="-249" font-family="Helvetica,sans-Serif" font-size="10.00">_server/gateway/gateway</text>
<text text-anchor="middle" x="479.5" y="-238" font-family="Helvetica,sans-Serif" font-size="10.00">_server.h</text>
</a>
</g>
</g>
<!-- Node2 -->
<g id="Node000002" class="node">
<title>Node2</title>
<g id="a_Node000002"><a xlink:href="auth__middleware_8h.html" target="_top" xlink:title="Authentication middleware for database gateway.">
<polygon fill="white" stroke="#666666" points="493.5,-195 383.5,-195 383.5,-176 493.5,-176 493.5,-195"/>
<text text-anchor="middle" x="438.5" y="-183" font-family="Helvetica,sans-Serif" font-size="10.00">auth_middleware.h</text>
</a>
</g>
</g>
<!-- Node1&#45;&gt;Node2 -->
<g id="edge1_Node000001_Node000002" class="edge">
<title>Node1&#45;&gt;Node2</title>
<g id="a_edge1_Node000001_Node000002"><a xlink:title=" ">
<path fill="none" stroke="#63b8ff" d="M466.98,-230.95C461.43,-222.3 454.97,-212.2 449.6,-203.82"/>
<polygon fill="#63b8ff" stroke="#63b8ff" points="452.45,-201.79 444.11,-195.26 446.56,-205.57 452.45,-201.79"/>
</a>
</g>
</g>
<!-- Node3 -->
<g id="Node000003" class="node">
<title>Node3</title>
<g id="a_Node000003"><a xlink:href="query__protocol_8h.html" target="_top" xlink:title="Query protocol message structures for database gateway.">
<polygon fill="white" stroke="#666666" points="364.5,-140 266.5,-140 266.5,-121 364.5,-121 364.5,-140"/>
<text text-anchor="middle" x="315.5" y="-128" font-family="Helvetica,sans-Serif" font-size="10.00">query_protocol.h</text>
</a>
</g>
</g>
<!-- Node1&#45;&gt;Node3 -->
<g id="edge24_Node000001_Node000003" class="edge">
<title>Node1&#45;&gt;Node3</title>
<g id="a_edge24_Node000001_Node000003"><a xlink:title=" ">
<path fill="none" stroke="#63b8ff" d="M434.6,-230.91C415.21,-221.43 392.83,-209.05 374.5,-195 356.67,-181.33 339.57,-162.01 328.41,-148.27"/>
<polygon fill="#63b8ff" stroke="#63b8ff" points="330.95,-145.83 321.99,-140.17 325.46,-150.18 330.95,-145.83"/>
</a>
</g>
</g>
<!-- Node4 -->
<g id="Node000004" class="node">
<title>Node4</title>
<g id="a_Node000004"><a xlink:href="query__types_8h.html" target="_top" xlink:title="Query protocol type definitions for database gateway.">
<polygon fill="white" stroke="#666666" points="200.5,-79.5 114.5,-79.5 114.5,-60.5 200.5,-60.5 200.5,-79.5"/>
<text text-anchor="middle" x="157.5" y="-67.5" font-family="Helvetica,sans-Serif" font-size="10.00">query_types.h</text>
</a>
</g>
</g>
<!-- Node1&#45;&gt;Node4 -->
<g id="edge25_Node000001_Node000004" class="edge">
<title>Node1&#45;&gt;Node4</title>
<g id="a_edge25_Node000001_Node000004"><a xlink:title=" ">
<path fill="none" stroke="#63b8ff" d="M413.88,-230.93C359.27,-212.73 281.12,-182.06 221.5,-140 200.74,-125.36 181.59,-103.05 169.75,-87.79"/>
<polygon fill="#63b8ff" stroke="#63b8ff" points="172.49,-85.6 163.67,-79.73 166.9,-89.82 172.49,-85.6"/>
</a>
</g>
</g>
<!-- Node6 -->
<g id="Node000006" class="node">
<title>Node6</title>
<g id="a_Node000006"><a xlink:title=" ">
<polygon fill="#e0e0e0" stroke="#999999" points="277.5,-19 233.5,-19 233.5,0 277.5,0 277.5,-19"/>
<text text-anchor="middle" x="255.5" y="-7" font-family="Helvetica,sans-Serif" font-size="10.00">string</text>
</a>
</g>
</g>
<!-- Node1&#45;&gt;Node6 -->
<g id="edge31_Node000001_Node000006" class="edge">
<title>Node1&#45;&gt;Node6</title>
<g id="a_edge31_Node000001_Node000006"><a xlink:title=" ">
<path fill="none" stroke="#63b8ff" d="M407.83,-249.66C301.68,-243.95 106.88,-215.25 29.5,-85 22.69,-73.54 21.03,-65.3 29.5,-55 35.65,-47.52 162.09,-25.85 223.1,-15.77"/>
<polygon fill="#63b8ff" stroke="#63b8ff" points="224.05,-19.16 233.35,-14.09 222.91,-12.25 224.05,-19.16"/>
</a>
</g>
</g>
<!-- Node7 -->
<g id="Node000007" class="node">
<title>Node7</title>
<g id="a_Node000007"><a xlink:title=" ">
<polygon fill="#e0e0e0" stroke="#999999" points="73,-19 0,-19 0,0 73,0 73,-19"/>
<text text-anchor="middle" x="36.5" y="-7" font-family="Helvetica,sans-Serif" font-size="10.00">string_view</text>
</a>
</g>
</g>
<!-- Node1&#45;&gt;Node7 -->
<g id="edge32_Node000001_Node000007" class="edge">
<title>Node1&#45;&gt;Node7</title>
<g id="a_edge32_Node000001_Node000007"><a xlink:title=" ">
<path fill="none" stroke="#63b8ff" d="M407.78,-250.7C332.9,-248.39 213.6,-237.45 120.5,-195 60.38,-167.59 38.97,-148.44 20.5,-85 14.97,-66.01 21.36,-43.79 27.63,-28.59"/>
<polygon fill="#63b8ff" stroke="#63b8ff" points="30.89,-29.87 31.8,-19.32 24.5,-27 30.89,-29.87"/>
</a>
</g>
</g>
<!-- Node9 -->
<g id="Node000009" class="node">
<title>Node9</title>
<g id="a_Node000009"><a xlink:title=" ">
<polygon fill="#e0e0e0" stroke="#999999" points="96.5,-79.5 38.5,-79.5 38.5,-60.5 96.5,-60.5 96.5,-79.5"/>
<text text-anchor="middle" x="67.5" y="-67.5" font-family="Helvetica,sans-Serif" font-size="10.00">memory</text>
</a>
</g>
</g>
<!-- Node1&#45;&gt;Node9 -->
<g id="edge29_Node000001_Node000009" class="edge">
<title>Node1&#45;&gt;Node9</title>
<g id="a_edge29_Node000001_Node000009"><a xlink:title=" ">
<path fill="none" stroke="#63b8ff" d="M407.59,-234.19C369.01,-224.53 321.01,-211.05 279.5,-195 228.89,-175.43 217.35,-167.37 170.5,-140 140.71,-122.6 107.85,-99.94 87.44,-85.43"/>
<polygon fill="#63b8ff" stroke="#63b8ff" points="89.41,-82.54 79.24,-79.56 85.34,-88.23 89.41,-82.54"/>
</a>
</g>
</g>
<!-- Node13 -->
<g id="Node000013" class="node">
<title>Node13</title>
<g id="a_Node000013"><a xlink:title=" ">
<polygon fill="#e0e0e0" stroke="#999999" points="808,-85 667,-85 667,-55 808,-55 808,-85"/>
<text text-anchor="start" x="675" y="-73" font-family="Helvetica,sans-Serif" font-size="10.00">kcenon/common/patterns</text>
<text text-anchor="middle" x="737.5" y="-62" font-family="Helvetica,sans-Serif" font-size="10.00">/result.h</text>
</a>
</g>
</g>
<!-- Node1&#45;&gt;Node13 -->
<g id="edge34_Node000001_Node000013" class="edge">
<title>Node1&#45;&gt;Node13</title>
<g id="a_edge34_Node000001_Node000013"><a xlink:title=" ">
<path fill="none" stroke="#63b8ff" d="M551.35,-250.01C631.2,-245.12 756.88,-223.59 817.5,-140 831.93,-120.1 809.32,-102.12 784.5,-89.51"/>
<polygon fill="#63b8ff" stroke="#63b8ff" points="785.85,-86.27 775.32,-85.11 782.82,-92.59 785.85,-86.27"/>
</a>
</g>
</g>
<!-- Node14 -->
<g id="Node000014" class="node">
<title>Node14</title>
<g id="a_Node000014"><a xlink:title=" ">
<polygon fill="#e0e0e0" stroke="#999999" points="546.5,-140 496.5,-140 496.5,-121 546.5,-121 546.5,-140"/>
<text text-anchor="middle" x="521.5" y="-128" font-family="Helvetica,sans-Serif" font-size="10.00">atomic</text>
</a>
</g>
</g>
<!-- Node1&#45;&gt;Node14 -->
<g id="edge26_Node000001_Node000014" class="edge">
<title>Node1&#45;&gt;Node14</title>
<g id="a_edge26_Node000001_Node000014"><a xlink:title=" ">
<path fill="none" stroke="#63b8ff" d="M488.19,-230.91C492.72,-220.37 498.2,-207.09 502.5,-195 507.81,-180.07 512.9,-162.84 516.48,-150.09"/>
<polygon fill="#63b8ff" stroke="#63b8ff" points="519.92,-150.79 519.2,-140.22 513.17,-148.93 519.92,-150.79"/>
</a>
</g>
</g>
<!-- Node15 -->
<g id="Node000015" class="node">
<title>Node15</title>
<g id="a_Node000015"><a xlink:title=" ">
<polygon fill="#e0e0e0" stroke="#999999" points="630,-140 565,-140 565,-121 630,-121 630,-140"/>
<text text-anchor="middle" x="597.5" y="-128" font-family="Helvetica,sans-Serif" font-size="10.00">functional</text>
</a>
</g>
</g>
<!-- Node1&#45;&gt;Node15 -->
<g id="edge28_Node000001_Node000015" class="edge">
<title>Node1&#45;&gt;Node15</title>
<g id="a_edge28_Node000001_Node000015"><a xlink:title=" ">
<path fill="none" stroke="#63b8ff" d="M498.99,-230.85C522.19,-207.45 560.48,-168.83 581.85,-147.28"/>
<polygon fill="#63b8ff" stroke="#63b8ff" points="584.34,-149.74 588.9,-140.18 579.37,-144.81 584.34,-149.74"/>
</a>
</g>
</g>
<!-- Node16 -->
<g id="Node000016" class="node">
<title>Node16</title>
<g id="a_Node000016"><a xlink:title=" ">
<polygon fill="#e0e0e0" stroke="#999999" points="696.5,-140 648.5,-140 648.5,-121 696.5,-121 696.5,-140"/>
<text text-anchor="middle" x="672.5" y="-128" font-family="Helvetica,sans-Serif" font-size="10.00">mutex</text>
</a>
</g>
</g>
<!-- Node1&#45;&gt;Node16 -->
<g id="edge30_Node000001_Node000016" class="edge">
<title>Node1&#45;&gt;Node16</title>
<g id="a_edge30_Node000001_Node000016"><a xlink:title=" ">
<path fill="none" stroke="#63b8ff" d="M511.37,-230.85C550.32,-206.83 615.27,-166.79 649.6,-145.62"/>
<polygon fill="#63b8ff" stroke="#63b8ff" points="651.76,-148.4 658.43,-140.18 648.08,-142.44 651.76,-148.4"/>
</a>
</g>
</g>
<!-- Node17 -->
<g id="Node000017" class="node">
<title>Node17</title>
<g id="a_Node000017"><a xlink:title=" ">
<polygon fill="#e0e0e0" stroke="#999999" points="808,-140 715,-140 715,-121 808,-121 808,-140"/>
<text text-anchor="middle" x="761.5" y="-128" font-family="Helvetica,sans-Serif" font-size="10.00">unordered_map</text>
</a>
</g>
</g>
<!-- Node1&#45;&gt;Node17 -->
<g id="edge33_Node000001_Node000017" class="edge">
<title>Node1&#45;&gt;Node17</title>
<g id="a_edge33_Node000001_Node000017"><a xlink:title=" ">
<path fill="none" stroke="#63b8ff" d="M525.75,-230.98C584.08,-206.37 682.67,-164.77 731.81,-144.03"/>
<polygon fill="#63b8ff" stroke="#63b8ff" points="733.38,-147.17 741.23,-140.05 730.66,-140.72 733.38,-147.17"/>
</a>
</g>
</g>
<!-- Node18 -->
<g id="Node000018" class="node">
<title>Node18</title>
<g id="a_Node000018"><a xlink:title=" ">
<polygon fill="#e0e0e0" stroke="#999999" points="972,-195 865,-195 865,-176 972,-176 972,-195"/>
<text text-anchor="middle" x="918.5" y="-183" font-family="Helvetica,sans-Serif" font-size="10.00">condition_variable</text>
</a>
</g>
</g>
<!-- Node1&#45;&gt;Node18 -->
<g id="edge27_Node000001_Node000018" class="edge">
<title>Node1&#45;&gt;Node18</title>
<g id="a_edge27_Node000001_Node000018"><a xlink:title=" ">
<path fill="none" stroke="#63b8ff" d="M551.01,-240.07C635.24,-227.8 773.88,-207.58 854.64,-195.81"/>
<polygon fill="#63b8ff" stroke="#63b8ff" points="855.29,-199.25 864.68,-194.35 854.28,-192.33 855.29,-199.25"/>
</a>
</g>
</g>
<!-- Node2&#45;&gt;Node3 -->
<g id="edge2_Node000002_Node000003" class="edge">
<title>Node2&#45;&gt;Node3</title>
<g id="a_edge2_Node000002_Node000003"><a xlink:title=" ">
<path fill="none" stroke="#63b8ff" d="M418.74,-175.98C398.77,-167.38 367.7,-153.99 344.85,-144.15"/>
<polygon fill="#63b8ff" stroke="#63b8ff" points="346.19,-140.91 335.62,-140.17 343.42,-147.34 346.19,-140.91"/>
</a>
</g>
</g>
<!-- Node2&#45;&gt;Node4 -->
<g id="edge15_Node000002_Node000004" class="edge">
<title>Node2&#45;&gt;Node4</title>
<g id="a_edge15_Node000002_Node000004"><a xlink:title=" ">
<path fill="none" stroke="#63b8ff" d="M383.34,-176.3C346.57,-169.56 297.79,-158.11 257.5,-140 226.14,-125.9 194.16,-101.77 175.08,-86.11"/>
<polygon fill="#63b8ff" stroke="#63b8ff" points="177.18,-83.31 167.26,-79.58 172.69,-88.68 177.18,-83.31"/>
</a>
</g>
</g>
<!-- Node2&#45;&gt;Node6 -->
<g id="edge21_Node000002_Node000006" class="edge">
<title>Node2&#45;&gt;Node6</title>
<g id="a_edge21_Node000002_Node000006"><a xlink:title=" ">
<path fill="none" stroke="#63b8ff" d="M443.48,-175.65C451.35,-162.31 467.8,-136.95 487.5,-121 516.24,-97.73 542.81,-116.29 562.5,-85 569.6,-73.71 571.23,-65.08 562.5,-55 527.22,-14.23 359.33,-10.01 287.85,-10.11"/>
<polygon fill="#63b8ff" stroke="#63b8ff" points="287.62,-6.61 277.63,-10.16 287.65,-13.61 287.62,-6.61"/>
</a>
</g>
</g>
<!-- Node8 -->
<g id="Node000008" class="node">
<title>Node8</title>
<g id="a_Node000008"><a xlink:title=" ">
<polygon fill="#e0e0e0" stroke="#999999" points="488.5,-79.5 438.5,-79.5 438.5,-60.5 488.5,-60.5 488.5,-79.5"/>
<text text-anchor="middle" x="463.5" y="-67.5" font-family="Helvetica,sans-Serif" font-size="10.00">chrono</text>
</a>
</g>
</g>
<!-- Node2&#45;&gt;Node8 -->
<g id="edge17_Node000002_Node000008" class="edge">
<title>Node2&#45;&gt;Node8</title>
<g id="a_edge17_Node000002_Node000008"><a xlink:title=" ">
<path fill="none" stroke="#63b8ff" d="M431.49,-175.78C422.47,-163.47 408.85,-140.31 416.5,-121 421.97,-107.19 433.26,-94.97 443.4,-86.07"/>
<polygon fill="#63b8ff" stroke="#63b8ff" points="445.67,-88.74 451.16,-79.68 441.22,-83.34 445.67,-88.74"/>
</a>
</g>
</g>
<!-- Node2&#45;&gt;Node9 -->
<g id="edge19_Node000002_Node000009" class="edge">
<title>Node2&#45;&gt;Node9</title>
<g id="a_edge19_Node000002_Node000009"><a xlink:title=" ">
<path fill="none" stroke="#63b8ff" d="M383.25,-176.6C338.87,-169.44 275.31,-157.34 221.5,-140 174.45,-124.84 122.52,-99.69 92.58,-84.3"/>
<polygon fill="#63b8ff" stroke="#63b8ff" points="94.16,-81.17 83.67,-79.67 90.93,-87.39 94.16,-81.17"/>
</a>
</g>
</g>
<!-- Node12 -->
<g id="Node000012" class="node">
<title>Node12</title>
<g id="a_Node000012"><a xlink:title=" ">
<polygon fill="#e0e0e0" stroke="#999999" points="554,-79.5 507,-79.5 507,-60.5 554,-60.5 554,-79.5"/>
<text text-anchor="middle" x="530.5" y="-67.5" font-family="Helvetica,sans-Serif" font-size="10.00">vector</text>
</a>
</g>
</g>
<!-- Node2&#45;&gt;Node12 -->
<g id="edge23_Node000002_Node000012" class="edge">
<title>Node2&#45;&gt;Node12</title>
<g id="a_edge23_Node000002_Node000012"><a xlink:title=" ">
<path fill="none" stroke="#63b8ff" d="M438.73,-175.88C439.48,-162.85 442.51,-137.87 454.5,-121 466.05,-104.75 484.69,-92.37 500.61,-83.99"/>
<polygon fill="#63b8ff" stroke="#63b8ff" points="502.21,-87.11 509.6,-79.52 499.09,-80.84 502.21,-87.11"/>
</a>
</g>
</g>
<!-- Node2&#45;&gt;Node14 -->
<g id="edge16_Node000002_Node000014" class="edge">
<title>Node2&#45;&gt;Node14</title>
<g id="a_edge16_Node000002_Node000014"><a xlink:title=" ">
<path fill="none" stroke="#63b8ff" d="M451.84,-175.98C464.59,-167.84 484.05,-155.41 499.17,-145.76"/>
<polygon fill="#63b8ff" stroke="#63b8ff" points="501.38,-148.5 507.92,-140.17 497.61,-142.6 501.38,-148.5"/>
</a>
</g>
</g>
<!-- Node2&#45;&gt;Node15 -->
<g id="edge18_Node000002_Node000015" class="edge">
<title>Node2&#45;&gt;Node15</title>
<g id="a_edge18_Node000002_Node000015"><a xlink:title=" ">
<path fill="none" stroke="#63b8ff" d="M464.05,-175.98C490.62,-167.13 532.44,-153.19 562.17,-143.28"/>
<polygon fill="#63b8ff" stroke="#63b8ff" points="563.37,-146.56 571.75,-140.08 561.16,-139.92 563.37,-146.56"/>
</a>
</g>
</g>
<!-- Node2&#45;&gt;Node16 -->
<g id="edge20_Node000002_Node000016" class="edge">
<title>Node2&#45;&gt;Node16</title>
<g id="a_edge20_Node000002_Node000016"><a xlink:title=" ">
<path fill="none" stroke="#63b8ff" d="M478.41,-175.94C518.83,-167.2 583.11,-153.08 638.5,-140 638.6,-139.98 638.7,-139.95 638.8,-139.93"/>
<polygon fill="#63b8ff" stroke="#63b8ff" points="639.48,-143.37 648.37,-137.61 637.83,-136.56 639.48,-143.37"/>
</a>
</g>
</g>
<!-- Node2&#45;&gt;Node17 -->
<g id="edge22_Node000002_Node000017" class="edge">
<title>Node2&#45;&gt;Node17</title>
<g id="a_edge22_Node000002_Node000017"><a xlink:title=" ">
<path fill="none" stroke="#63b8ff" d="M490.4,-175.98C549.06,-166.36 644.26,-150.74 704.82,-140.8"/>
<polygon fill="#63b8ff" stroke="#63b8ff" points="705.67,-144.21 714.97,-139.13 704.54,-137.3 705.67,-144.21"/>
</a>
</g>
</g>
<!-- Node3&#45;&gt;Node4 -->
<g id="edge3_Node000003_Node000004" class="edge">
<title>Node3&#45;&gt;Node4</title>
<g id="a_edge3_Node000003_Node000004"><a xlink:title=" ">
<path fill="none" stroke="#63b8ff" d="M292.53,-120.99C265.61,-111.03 220.83,-94.45 190.27,-83.13"/>
<polygon fill="#63b8ff" stroke="#63b8ff" points="191.1,-79.71 180.5,-79.52 188.66,-86.27 191.1,-79.71"/>
</a>
</g>
</g>
<!-- Node5 -->
<g id="Node000005" class="node">
<title>Node5</title>
<g id="a_Node000005"><a xlink:title=" ">
<polygon fill="#e0e0e0" stroke="#999999" points="193.5,-19 143.5,-19 143.5,0 193.5,0 193.5,-19"/>
<text text-anchor="middle" x="168.5" y="-7" font-family="Helvetica,sans-Serif" font-size="10.00">cstdint</text>
</a>
</g>
</g>
<!-- Node3&#45;&gt;Node5 -->
<g id="edge8_Node000003_Node000005" class="edge">
<title>Node3&#45;&gt;Node5</title>
<g id="a_edge8_Node000003_Node000005"><a xlink:title=" ">
<path fill="none" stroke="#63b8ff" d="M304.93,-120.94C280.26,-100.97 218.61,-51.06 187.33,-25.75"/>
<polygon fill="#63b8ff" stroke="#63b8ff" points="189.35,-22.87 179.37,-19.3 184.94,-28.31 189.35,-22.87"/>
</a>
</g>
</g>
<!-- Node3&#45;&gt;Node6 -->
<g id="edge11_Node000003_Node000006" class="edge">
<title>Node3&#45;&gt;Node6</title>
<g id="a_edge11_Node000003_Node000006"><a xlink:title=" ">
<path fill="none" stroke="#63b8ff" d="M308.96,-120.98C302.46,-112.26 292.49,-98.17 285.5,-85 275.72,-66.57 267.12,-44.22 261.66,-28.84"/>
<polygon fill="#63b8ff" stroke="#63b8ff" points="264.85,-27.34 258.28,-19.03 258.23,-29.62 264.85,-27.34"/>
</a>
</g>
</g>
<!-- Node3&#45;&gt;Node8 -->
<g id="edge7_Node000003_Node000008" class="edge">
<title>Node3&#45;&gt;Node8</title>
<g id="a_edge7_Node000003_Node000008"><a xlink:title=" ">
<path fill="none" stroke="#63b8ff" d="M337.6,-120.84C360.39,-111.9 396.95,-97.52 428.5,-85 429.87,-84.46 431.27,-83.9 432.68,-83.34"/>
<polygon fill="#63b8ff" stroke="#63b8ff" points="434.04,-86.56 442.04,-79.61 431.45,-80.06 434.04,-86.56"/>
</a>
</g>
</g>
<!-- Node3&#45;&gt;Node9 -->
<g id="edge9_Node000003_Node000009" class="edge">
<title>Node3&#45;&gt;Node9</title>
<g id="a_edge9_Node000003_Node000009"><a xlink:title=" ">
<path fill="none" stroke="#63b8ff" d="M266.21,-121.13C223.34,-113.36 159.75,-100.65 105.5,-85 103.22,-84.34 100.88,-83.61 98.54,-82.85"/>
<polygon fill="#63b8ff" stroke="#63b8ff" points="99.62,-79.52 89.02,-79.54 97.32,-86.13 99.62,-79.52"/>
</a>
</g>
</g>
<!-- Node10 -->
<g id="Node000010" class="node">
<title>Node10</title>
<g id="a_Node000010"><a xlink:title=" ">
<polygon fill="#e0e0e0" stroke="#999999" points="350.5,-79.5 294.5,-79.5 294.5,-60.5 350.5,-60.5 350.5,-79.5"/>
<text text-anchor="middle" x="322.5" y="-67.5" font-family="Helvetica,sans-Serif" font-size="10.00">optional</text>
</a>
</g>
</g>
<!-- Node3&#45;&gt;Node10 -->
<g id="edge10_Node000003_Node000010" class="edge">
<title>Node3&#45;&gt;Node10</title>
<g id="a_edge10_Node000003_Node000010"><a xlink:title=" ">
<path fill="none" stroke="#63b8ff" d="M316.53,-120.87C317.5,-112.75 318.99,-100.31 320.24,-89.89"/>
<polygon fill="#63b8ff" stroke="#63b8ff" points="323.75,-90.01 321.46,-79.67 316.8,-89.18 323.75,-90.01"/>
</a>
</g>
</g>
<!-- Node11 -->
<g id="Node000011" class="node">
<title>Node11</title>
<g id="a_Node000011"><a xlink:title=" ">
<polygon fill="#e0e0e0" stroke="#999999" points="420,-79.5 369,-79.5 369,-60.5 420,-60.5 420,-79.5"/>
<text text-anchor="middle" x="394.5" y="-67.5" font-family="Helvetica,sans-Serif" font-size="10.00">variant</text>
</a>
</g>
</g>
<!-- Node3&#45;&gt;Node11 -->
<g id="edge12_Node000003_Node000011" class="edge">
<title>Node3&#45;&gt;Node11</title>
<g id="a_edge12_Node000003_Node000011"><a xlink:title=" ">
<path fill="none" stroke="#63b8ff" d="M327.16,-120.87C339.64,-111.62 359.68,-96.78 374.66,-85.69"/>
<polygon fill="#63b8ff" stroke="#63b8ff" points="376.84,-88.43 382.8,-79.67 372.68,-82.81 376.84,-88.43"/>
</a>
</g>
</g>
<!-- Node3&#45;&gt;Node12 -->
<g id="edge13_Node000003_Node000012" class="edge">
<title>Node3&#45;&gt;Node12</title>
<g id="a_edge13_Node000003_Node000012"><a xlink:title=" ">
<path fill="none" stroke="#63b8ff" d="M358.71,-120.99C395.94,-113.18 450.88,-100.47 497.5,-85 499.12,-84.46 500.78,-83.88 502.44,-83.26"/>
<polygon fill="#63b8ff" stroke="#63b8ff" points="503.85,-86.47 511.85,-79.53 501.27,-79.96 503.85,-86.47"/>
</a>
</g>
</g>
<!-- Node3&#45;&gt;Node13 -->
<g id="edge14_Node000003_Node000013" class="edge">
<title>Node3&#45;&gt;Node13</title>
<g id="a_edge14_Node000003_Node000013"><a xlink:title=" ">
<path fill="none" stroke="#63b8ff" d="M364.73,-122.67C436.47,-112.73 570.55,-94.14 656.83,-82.18"/>
<polygon fill="#63b8ff" stroke="#63b8ff" points="657.42,-85.63 666.85,-80.79 656.46,-78.7 657.42,-85.63"/>
</a>
</g>
</g>
<!-- Node4&#45;&gt;Node5 -->
<g id="edge4_Node000004_Node000005" class="edge">
<title>Node4&#45;&gt;Node5</title>
<g id="a_edge4_Node000004_Node000005"><a xlink:title=" ">
<path fill="none" stroke="#63b8ff" d="M159.12,-60.37C160.67,-52.16 163.04,-39.54 165.01,-29.05"/>
<polygon fill="#63b8ff" stroke="#63b8ff" points="168.46,-29.64 166.87,-19.17 161.58,-28.35 168.46,-29.64"/>
</a>
</g>
</g>
<!-- Node4&#45;&gt;Node6 -->
<g id="edge5_Node000004_Node000006" class="edge">
<title>Node4&#45;&gt;Node6</title>
<g id="a_edge5_Node000004_Node000006"><a xlink:title=" ">
<path fill="none" stroke="#63b8ff" d="M171.96,-60.37C187.81,-50.91 213.47,-35.59 232.18,-24.42"/>
<polygon fill="#63b8ff" stroke="#63b8ff" points="234.19,-27.3 240.98,-19.17 230.6,-21.29 234.19,-27.3"/>
</a>
</g>
</g>
<!-- Node4&#45;&gt;Node7 -->
<g id="edge6_Node000004_Node000007" class="edge">
<title>Node4&#45;&gt;Node7</title>
<g id="a_edge6_Node000004_Node000007"><a xlink:title=" ">
<path fill="none" stroke="#63b8ff" d="M139.91,-60.49C119.74,-50.75 86.48,-34.66 63.14,-23.38"/>
<polygon fill="#63b8ff" stroke="#63b8ff" points="64.64,-20.22 54.12,-19.02 61.6,-26.52 64.64,-20.22"/>
</a>
</g>
</g>
</g>
</svg>
