<?xml version="1.0" encoding="UTF-8" standalone="no"?>
<!DOCTYPE svg PUBLIC "-//W3C//DTD SVG 1.1//EN"
 "http://www.w3.org/Graphics/SVG/1.1/DTD/svg11.dtd">
<!-- Generated by graphviz version 2.43.0 (0)
 -->
<!-- Title: src/gateway/gateway_server.cpp Pages: 1 -->
<!--zoomable 335 -->

<svg id="main" version="1.1" xmlns="http://www.w3.org/2000/svg" xmlns:xlink="http://www.w3.org/1999/xlink" xml:space="preserve" onload="init(evt)">
<style type="text/css"><![CDATA[
.node, .edge {opacity: 0.7;}
.node.selected, .edge.selected {opacity: 1;}
.edge:hover path { stroke: red; }
.edge:hover polygon { stroke: red; fill: red; }
]]></style>

<defs>
  <circle id="rim" cx="0" cy="0" r="7"/>
  <circle id="rim2" cx="0" cy="0" r="3.5"/>
  <g id="zoomPlus">
    <use xlink:href="#rim" fill="#404040"><set attributeName="fill" to="#808080" begin="zoomplus.mouseover" end="zoomplus.mouseout"/></use>
    <path d="M-4,0h8M0,-4v8" fill="none" stroke="white" stroke-width="1.5" pointer-events="none"/>
  </g>
  <g id="zoomMin">
    <use xlink:href="#rim" fill="#404040"><set attributeName="fill" to="#808080" begin="zoomminus.mouseover" end="zoomminus.mouseout"/></use>
    <path d="M-4,0h8" fill="none" stroke="white" stroke-width="1.5" pointer-events="none"/>
  </g>
  <g id="arrowUp" transform="translate(30 24)">
    <use xlink:href="#rim"/>
    <path pointer-events="none" fill="none" stroke="white" stroke-width="1.5" d="M0,-3.0v7 M-2.5,-0.5L0,-3.0L2.5,-0.5"/>
  </g>
  <g id="arrowRight" transform="rotate(90) translate(36 -43)">
    <use xlink:href="#rim"/>
    <path pointer-events="none" fill="none" stroke="white" stroke-width="1.5" d="M0,-3.0v7 M-2.5,-0.5L0,-3.0L2.5,-0.5"/>
  </g>
  <g id="arrowDown" transform="rotate(180) translate(-30 -48)">
    <use xlink:href="#rim"/>
    <path pointer-events="none" fill="none" stroke="white" stroke-width="1.5" d="M0,-3.0v7 M-2.5,-0.5L0,-3.0L2.5,-0.5"/>
  </g>
  <g id="arrowLeft" transform="rotate(270) translate(-36 17)">
    <use xlink:href="#rim"/>
    <path pointer-events="none" fill="none" stroke="white" stroke-width="1.5" d="M0,-3.0v7 M-2.5,-0.5L0,-3.0L2.5,-0.5"/>
  </g>
  <g id="resetDef">
    <use xlink:href="#rim2" fill="#404040"><set attributeName="fill" to="#808080" begin="reset.mouseover" end="reset.mouseout"/></use>
  </g>
</defs>
<script type="application/ecmascript">
var viewWidth = 1036;
var viewHeight = 335;
var sectionId = 'dynsection-0';
</script>
<script type="application/ecmascript" xlink:href="svg.min.js"/>
<svg id="graph" class="graph">
<g id="viewport">
<title>src/gateway/gateway_server.cpp</title>
<!-- Node1 -->
<g id="Node000001" class="node">
<title>Node1</title>
<g id="a_Node000001"><a xlink:title=" ">
<polygon fill="#999999" stroke="#666666" points="645.5,-327 524.5,-327 524.5,-297 645.5,-297 645.5,-327"/>
<text text-anchor="start" x="532.5" y="-315" font-family="Helvetica,sans-Serif" font-size="10.00">src/gateway/gateway</text>
<text text-anchor="middle" x="585" y="-304" font-family="Helvetica,sans-Serif" font-size="10.00">_server.cpp</text>
</a>
</g>
</g>
<!-- Node2 -->
<g id="Node000002" class="node">
<title>Node2</title>
<g id="a_Node000002"><a xlink:href="gateway__server_8h.html" target="_top" xlink:title="Database gateway TCP server.">
<polygon fill="white" stroke="#666666" points="583.5,-261 432.5,-261 432.5,-231 583.5,-231 583.5,-261"/>
<text text-anchor="start" x="440.5" y="-249" font-family="Helvetica,sans-Serif" font-size="10.00">kcenon/database_server</text>
<text text-anchor="middle" x="508" y="-238" font-family="Helvetica,sans-Serif" font-size="10.00">/gateway/gateway_server.h</text>
</a>
</g>
</g>
<!-- Node1&#45;&gt;Node2 -->
<g id="edge1_Node000001_Node000002" class="edge">
<title>Node1&#45;&gt;Node2</title>
<g id="a_edge1_Node000001_Node000002"><a xlink:title=" ">
<path fill="none" stroke="#63b8ff" d="M567.91,-296.8C557.64,-288.26 544.4,-277.25 532.97,-267.75"/>
<polygon fill="#63b8ff" stroke="#63b8ff" points="534.97,-264.86 525.04,-261.16 530.49,-270.25 534.97,-264.86"/>
</a>
</g>
</g>
<!-- Node3 -->
<g id="Node000003" class="node">
<title>Node3</title>
<g id="a_Node000003"><a xlink:href="auth__middleware_8h.html" target="_top" xlink:title="Authentication middleware for database gateway.">
<polygon fill="white" stroke="#666666" points="442,-195 332,-195 332,-176 442,-176 442,-195"/>
<text text-anchor="middle" x="387" y="-183" font-family="Helvetica,sans-Serif" font-size="10.00">auth_middleware.h</text>
</a>
</g>
</g>
<!-- Node1&#45;&gt;Node3 -->
<g id="edge34_Node000001_Node000003" class="edge">
<title>Node1&#45;&gt;Node3</title>
<g id="a_edge34_Node000001_Node000003"><a xlink:title=" ">
<path fill="none" stroke="#63b8ff" d="M524.25,-304.19C491.12,-297.76 451.24,-285.27 423,-261 406.02,-246.41 396.37,-221.97 391.42,-205.08"/>
<polygon fill="#63b8ff" stroke="#63b8ff" points="394.76,-204.02 388.82,-195.25 388,-205.82 394.76,-204.02"/>
</a>
</g>
</g>
<!-- Node9 -->
<g id="Node000009" class="node">
<title>Node9</title>
<g id="a_Node000009"><a xlink:title=" ">
<polygon fill="#e0e0e0" stroke="#999999" points="50,-79.5 0,-79.5 0,-60.5 50,-60.5 50,-79.5"/>
<text text-anchor="middle" x="25" y="-67.5" font-family="Helvetica,sans-Serif" font-size="10.00">chrono</text>
</a>
</g>
</g>
<!-- Node1&#45;&gt;Node9 -->
<g id="edge38_Node000001_Node000009" class="edge">
<title>Node1&#45;&gt;Node9</title>
<g id="a_edge38_Node000001_Node000009"><a xlink:title=" ">
<path fill="none" stroke="#63b8ff" d="M524.16,-297.9C430.83,-275.89 249.19,-225.3 116,-140 89.6,-123.09 61.09,-100.75 43.16,-86.13"/>
<polygon fill="#63b8ff" stroke="#63b8ff" points="45.2,-83.28 35.26,-79.64 40.76,-88.69 45.2,-83.28"/>
</a>
</g>
</g>
<!-- Node19 -->
<g id="Node000019" class="node">
<title>Node19</title>
<g id="a_Node000019"><a xlink:title=" ">
<polygon fill="#e0e0e0" stroke="#999999" points="724,-261 602,-261 602,-231 724,-231 724,-261"/>
<text text-anchor="start" x="610" y="-249" font-family="Helvetica,sans-Serif" font-size="10.00">network_system/core</text>
<text text-anchor="middle" x="663" y="-238" font-family="Helvetica,sans-Serif" font-size="10.00">/messaging_server.h</text>
</a>
</g>
</g>
<!-- Node1&#45;&gt;Node19 -->
<g id="edge35_Node000001_Node000019" class="edge">
<title>Node1&#45;&gt;Node19</title>
<g id="a_edge35_Node000001_Node000019"><a xlink:title=" ">
<path fill="none" stroke="#63b8ff" d="M602.31,-296.8C612.71,-288.26 626.13,-277.25 637.71,-267.75"/>
<polygon fill="#63b8ff" stroke="#63b8ff" points="640.23,-270.21 645.74,-261.16 635.79,-264.8 640.23,-270.21"/>
</a>
</g>
</g>
<!-- Node20 -->
<g id="Node000020" class="node">
<title>Node20</title>
<g id="a_Node000020"><a xlink:title=" ">
<polygon fill="#e0e0e0" stroke="#999999" points="879.5,-261 742.5,-261 742.5,-231 879.5,-231 879.5,-261"/>
<text text-anchor="start" x="750.5" y="-249" font-family="Helvetica,sans-Serif" font-size="10.00">network_system/session</text>
<text text-anchor="middle" x="811" y="-238" font-family="Helvetica,sans-Serif" font-size="10.00">/messaging_session.h</text>
</a>
</g>
</g>
<!-- Node1&#45;&gt;Node20 -->
<g id="edge36_Node000001_Node000020" class="edge">
<title>Node1&#45;&gt;Node20</title>
<g id="a_edge36_Node000001_Node000020"><a xlink:title=" ">
<path fill="none" stroke="#63b8ff" d="M634.6,-296.95C669.04,-287.2 715.1,-274.16 751.52,-263.84"/>
<polygon fill="#63b8ff" stroke="#63b8ff" points="752.85,-267.1 761.52,-261.01 750.94,-260.37 752.85,-267.1"/>
</a>
</g>
</g>
<!-- Node21 -->
<g id="Node000021" class="node">
<title>Node21</title>
<g id="a_Node000021"><a xlink:title=" ">
<polygon fill="#e0e0e0" stroke="#999999" points="1028,-261 898,-261 898,-231 1028,-231 1028,-261"/>
<text text-anchor="start" x="906" y="-249" font-family="Helvetica,sans-Serif" font-size="10.00">kcenon/common/config</text>
<text text-anchor="middle" x="963" y="-238" font-family="Helvetica,sans-Serif" font-size="10.00">/feature_flags.h</text>
</a>
</g>
</g>
<!-- Node1&#45;&gt;Node21 -->
<g id="edge37_Node000001_Node000021" class="edge">
<title>Node1&#45;&gt;Node21</title>
<g id="a_edge37_Node000001_Node000021"><a xlink:title=" ">
<path fill="none" stroke="#63b8ff" d="M645.64,-301.47C704.83,-292.06 797.72,-277.03 887.56,-261.23"/>
<polygon fill="#63b8ff" stroke="#63b8ff" points="888.41,-264.64 897.65,-259.45 887.19,-257.74 888.41,-264.64"/>
</a>
</g>
</g>
<!-- Node2&#45;&gt;Node3 -->
<g id="edge2_Node000002_Node000003" class="edge">
<title>Node2&#45;&gt;Node3</title>
<g id="a_edge2_Node000002_Node000003"><a xlink:title=" ">
<path fill="none" stroke="#63b8ff" d="M479.02,-230.99C459.28,-221.45 433.33,-208.9 414.03,-199.57"/>
<polygon fill="#63b8ff" stroke="#63b8ff" points="415.4,-196.34 404.87,-195.14 412.35,-202.64 415.4,-196.34"/>
</a>
</g>
</g>
<!-- Node4 -->
<g id="Node000004" class="node">
<title>Node4</title>
<g id="a_Node000004"><a xlink:href="query__protocol_8h.html" target="_top" xlink:title="Query protocol message structures for database gateway.">
<polygon fill="white" stroke="#666666" points="320,-140 222,-140 222,-121 320,-121 320,-140"/>
<text text-anchor="middle" x="271" y="-128" font-family="Helvetica,sans-Serif" font-size="10.00">query_protocol.h</text>
</a>
</g>
</g>
<!-- Node2&#45;&gt;Node4 -->
<g id="edge25_Node000002_Node000004" class="edge">
<title>Node2&#45;&gt;Node4</title>
<g id="a_edge25_Node000002_Node000004"><a xlink:title=" ">
<path fill="none" stroke="#63b8ff" d="M432.06,-235.4C396.78,-228.3 355.54,-216.06 323,-195 305.12,-183.43 290.39,-163.72 281.22,-149.32"/>
<polygon fill="#63b8ff" stroke="#63b8ff" points="283.98,-147.1 275.8,-140.36 277.99,-150.73 283.98,-147.1"/>
</a>
</g>
</g>
<!-- Node5 -->
<g id="Node000005" class="node">
<title>Node5</title>
<g id="a_Node000005"><a xlink:href="query__types_8h.html" target="_top" xlink:title="Query protocol type definitions for database gateway.">
<polygon fill="white" stroke="#666666" points="154,-79.5 68,-79.5 68,-60.5 154,-60.5 154,-79.5"/>
<text text-anchor="middle" x="111" y="-67.5" font-family="Helvetica,sans-Serif" font-size="10.00">query_types.h</text>
</a>
</g>
</g>
<!-- Node2&#45;&gt;Node5 -->
<g id="edge26_Node000002_Node000005" class="edge">
<title>Node2&#45;&gt;Node5</title>
<g id="a_edge26_Node000002_Node000005"><a xlink:title=" ">
<path fill="none" stroke="#63b8ff" d="M432.36,-237.51C357.36,-226.76 242.46,-200.99 163,-140 144.84,-126.06 129.86,-104.23 120.71,-88.86"/>
<polygon fill="#63b8ff" stroke="#63b8ff" points="123.57,-86.8 115.57,-79.85 117.49,-90.27 123.57,-86.8"/>
</a>
</g>
</g>
<!-- Node7 -->
<g id="Node000007" class="node">
<title>Node7</title>
<g id="a_Node000007"><a xlink:title=" ">
<polygon fill="#e0e0e0" stroke="#999999" points="471,-19 427,-19 427,0 471,0 471,-19"/>
<text text-anchor="middle" x="449" y="-7" font-family="Helvetica,sans-Serif" font-size="10.00">string</text>
</a>
</g>
</g>
<!-- Node2&#45;&gt;Node7 -->
<g id="edge31_Node000002_Node000007" class="edge">
<title>Node2&#45;&gt;Node7</title>
<g id="a_edge31_Node000002_Node000007"><a xlink:title=" ">
<path fill="none" stroke="#63b8ff" d="M582.59,-231C641.86,-219.4 716.78,-203.48 729,-195 782.06,-158.16 810.4,-103.73 768,-55 731,-12.48 554.47,-9.33 481.1,-9.91"/>
<polygon fill="#63b8ff" stroke="#63b8ff" points="481.01,-6.41 471.05,-10.02 481.08,-13.41 481.01,-6.41"/>
</a>
</g>
</g>
<!-- Node10 -->
<g id="Node000010" class="node">
<title>Node10</title>
<g id="a_Node000010"><a xlink:title=" ">
<polygon fill="#e0e0e0" stroke="#999999" points="554,-79.5 496,-79.5 496,-60.5 554,-60.5 554,-79.5"/>
<text text-anchor="middle" x="525" y="-67.5" font-family="Helvetica,sans-Serif" font-size="10.00">memory</text>
</a>
</g>
</g>
<!-- Node2&#45;&gt;Node10 -->
<g id="edge29_Node000002_Node000010" class="edge">
<title>Node2&#45;&gt;Node10</title>
<g id="a_edge29_Node000002_Node000010"><a xlink:title=" ">
<path fill="none" stroke="#63b8ff" d="M583.7,-231.68C635.73,-218.15 701.13,-191.52 734,-140 738.54,-132.88 739.23,-127.63 734,-121 723.45,-107.63 621.68,-87.91 564.15,-77.69"/>
<polygon fill="#63b8ff" stroke="#63b8ff" points="564.75,-74.24 554.29,-75.95 563.53,-81.13 564.75,-74.24"/>
</a>
</g>
</g>
<!-- Node14 -->
<g id="Node000014" class="node">
<title>Node14</title>
<g id="a_Node000014"><a xlink:title=" ">
<polygon fill="#e0e0e0" stroke="#999999" points="758.5,-85 617.5,-85 617.5,-55 758.5,-55 758.5,-85"/>
<text text-anchor="start" x="625.5" y="-73" font-family="Helvetica,sans-Serif" font-size="10.00">kcenon/common/patterns</text>
<text text-anchor="middle" x="688" y="-62" font-family="Helvetica,sans-Serif" font-size="10.00">/result.h</text>
</a>
</g>
</g>
<!-- Node2&#45;&gt;Node14 -->
<g id="edge33_Node000002_Node000014" class="edge">
<title>Node2&#45;&gt;Node14</title>
<g id="a_edge33_Node000002_Node000014"><a xlink:title=" ">
<path fill="none" stroke="#63b8ff" d="M580.93,-230.97C627.06,-221.19 681.68,-207.68 702,-195 735.05,-174.37 765.67,-156.22 749,-121 743.31,-108.99 733.17,-98.9 722.77,-91"/>
<polygon fill="#63b8ff" stroke="#63b8ff" points="724.64,-88.04 714.45,-85.14 720.61,-93.76 724.64,-88.04"/>
</a>
</g>
</g>
<!-- Node15 -->
<g id="Node000015" class="node">
<title>Node15</title>
<g id="a_Node000015"><a xlink:title=" ">
<polygon fill="#e0e0e0" stroke="#999999" points="464,-140 414,-140 414,-121 464,-121 464,-140"/>
<text text-anchor="middle" x="439" y="-128" font-family="Helvetica,sans-Serif" font-size="10.00">atomic</text>
</a>
</g>
</g>
<!-- Node2&#45;&gt;Node15 -->
<g id="edge27_Node000002_Node000015" class="edge">
<title>Node2&#45;&gt;Node15</title>
<g id="a_edge27_Node000002_Node000015"><a xlink:title=" ">
<path fill="none" stroke="#63b8ff" d="M499.26,-230.63C486.63,-209.84 463.28,-171.44 449.65,-149.02"/>
<polygon fill="#63b8ff" stroke="#63b8ff" points="452.49,-146.96 444.31,-140.23 446.51,-150.59 452.49,-146.96"/>
</a>
</g>
</g>
<!-- Node16 -->
<g id="Node000016" class="node">
<title>Node16</title>
<g id="a_Node000016"><a xlink:title=" ">
<polygon fill="#e0e0e0" stroke="#999999" points="547.5,-140 482.5,-140 482.5,-121 547.5,-121 547.5,-140"/>
<text text-anchor="middle" x="515" y="-128" font-family="Helvetica,sans-Serif" font-size="10.00">functional</text>
</a>
</g>
</g>
<!-- Node2&#45;&gt;Node16 -->
<g id="edge28_Node000002_Node000016" class="edge">
<title>Node2&#45;&gt;Node16</title>
<g id="a_edge28_Node000002_Node000016"><a xlink:title=" ">
<path fill="none" stroke="#63b8ff" d="M508.89,-230.63C510.15,-210.21 512.45,-172.81 513.84,-150.24"/>
<polygon fill="#63b8ff" stroke="#63b8ff" points="517.34,-150.43 514.46,-140.23 510.35,-149.99 517.34,-150.43"/>
</a>
</g>
</g>
<!-- Node17 -->
<g id="Node000017" class="node">
<title>Node17</title>
<g id="a_Node000017"><a xlink:title=" ">
<polygon fill="#e0e0e0" stroke="#999999" points="614,-140 566,-140 566,-121 614,-121 614,-140"/>
<text text-anchor="middle" x="590" y="-128" font-family="Helvetica,sans-Serif" font-size="10.00">mutex</text>
</a>
</g>
</g>
<!-- Node2&#45;&gt;Node17 -->
<g id="edge30_Node000002_Node000017" class="edge">
<title>Node2&#45;&gt;Node17</title>
<g id="a_edge30_Node000002_Node000017"><a xlink:title=" ">
<path fill="none" stroke="#63b8ff" d="M518.39,-230.63C533.54,-209.65 561.65,-170.75 577.77,-148.42"/>
<polygon fill="#63b8ff" stroke="#63b8ff" points="580.67,-150.38 583.69,-140.23 575,-146.29 580.67,-150.38"/>
</a>
</g>
</g>
<!-- Node18 -->
<g id="Node000018" class="node">
<title>Node18</title>
<g id="a_Node000018"><a xlink:title=" ">
<polygon fill="#e0e0e0" stroke="#999999" points="725.5,-140 632.5,-140 632.5,-121 725.5,-121 725.5,-140"/>
<text text-anchor="middle" x="679" y="-128" font-family="Helvetica,sans-Serif" font-size="10.00">unordered_map</text>
</a>
</g>
</g>
<!-- Node2&#45;&gt;Node18 -->
<g id="edge32_Node000002_Node000018" class="edge">
<title>Node2&#45;&gt;Node18</title>
<g id="a_edge32_Node000002_Node000018"><a xlink:title=" ">
<path fill="none" stroke="#63b8ff" d="M529.31,-230.85C562.05,-209.13 624.36,-167.77 657.32,-145.89"/>
<polygon fill="#63b8ff" stroke="#63b8ff" points="659.39,-148.72 665.79,-140.27 655.52,-142.88 659.39,-148.72"/>
</a>
</g>
</g>
<!-- Node3&#45;&gt;Node4 -->
<g id="edge3_Node000003_Node000004" class="edge">
<title>Node3&#45;&gt;Node4</title>
<g id="a_edge3_Node000003_Node000004"><a xlink:title=" ">
<path fill="none" stroke="#63b8ff" d="M368.36,-175.98C349.7,-167.46 320.75,-154.23 299.26,-144.41"/>
<polygon fill="#63b8ff" stroke="#63b8ff" points="300.53,-141.14 289.98,-140.17 297.62,-147.51 300.53,-141.14"/>
</a>
</g>
</g>
<!-- Node3&#45;&gt;Node5 -->
<g id="edge16_Node000003_Node000005" class="edge">
<title>Node3&#45;&gt;Node5</title>
<g id="a_edge16_Node000003_Node000005"><a xlink:title=" ">
<path fill="none" stroke="#63b8ff" d="M331.91,-178.04C293.02,-171.95 240.48,-160.56 198,-140 170.22,-126.55 143.16,-102.94 126.79,-87.13"/>
<polygon fill="#63b8ff" stroke="#63b8ff" points="128.82,-84.22 119.25,-79.68 123.9,-89.2 128.82,-84.22"/>
</a>
</g>
</g>
<!-- Node3&#45;&gt;Node7 -->
<g id="edge22_Node000003_Node000007" class="edge">
<title>Node3&#45;&gt;Node7</title>
<g id="a_edge22_Node000003_Node000007"><a xlink:title=" ">
<path fill="none" stroke="#63b8ff" d="M385.42,-175.7C383.58,-162.87 381.83,-138.64 391,-121 402.82,-98.28 422.95,-107.04 436,-85 446.01,-68.09 448.76,-45.49 449.31,-29.63"/>
<polygon fill="#63b8ff" stroke="#63b8ff" points="452.82,-29.48 449.41,-19.45 445.82,-29.42 452.82,-29.48"/>
</a>
</g>
</g>
<!-- Node3&#45;&gt;Node9 -->
<g id="edge18_Node000003_Node000009" class="edge">
<title>Node3&#45;&gt;Node9</title>
<g id="a_edge18_Node000003_Node000009"><a xlink:title=" ">
<path fill="none" stroke="#63b8ff" d="M331.61,-177.71C285.6,-171.07 218.89,-159.14 163,-140 120.57,-125.47 74.61,-100.43 47.89,-84.84"/>
<polygon fill="#63b8ff" stroke="#63b8ff" points="49.34,-81.64 38.95,-79.57 45.78,-87.67 49.34,-81.64"/>
</a>
</g>
</g>
<!-- Node3&#45;&gt;Node10 -->
<g id="edge20_Node000003_Node000010" class="edge">
<title>Node3&#45;&gt;Node10</title>
<g id="a_edge20_Node000003_Node000010"><a xlink:title=" ">
<path fill="none" stroke="#63b8ff" d="M387.15,-176C387.83,-162.67 391,-136.77 405,-121 411.14,-114.09 458.56,-95.55 491.92,-83.09"/>
<polygon fill="#63b8ff" stroke="#63b8ff" points="493.18,-86.36 501.33,-79.6 490.74,-79.79 493.18,-86.36"/>
</a>
</g>
</g>
<!-- Node13 -->
<g id="Node000013" class="node">
<title>Node13</title>
<g id="a_Node000013"><a xlink:title=" ">
<polygon fill="#e0e0e0" stroke="#999999" points="219.5,-79.5 172.5,-79.5 172.5,-60.5 219.5,-60.5 219.5,-79.5"/>
<text text-anchor="middle" x="196" y="-67.5" font-family="Helvetica,sans-Serif" font-size="10.00">vector</text>
</a>
</g>
</g>
<!-- Node3&#45;&gt;Node13 -->
<g id="edge24_Node000003_Node000013" class="edge">
<title>Node3&#45;&gt;Node13</title>
<g id="a_edge24_Node000003_Node000013"><a xlink:title=" ">
<path fill="none" stroke="#63b8ff" d="M331.56,-176.62C287.13,-169.2 229.57,-156.72 213,-140 199.86,-126.74 196.31,-105.06 195.61,-89.54"/>
<polygon fill="#63b8ff" stroke="#63b8ff" points="199.11,-89.49 195.5,-79.53 192.11,-89.57 199.11,-89.49"/>
</a>
</g>
</g>
<!-- Node3&#45;&gt;Node15 -->
<g id="edge17_Node000003_Node000015" class="edge">
<title>Node3&#45;&gt;Node15</title>
<g id="a_edge17_Node000003_Node000015"><a xlink:title=" ">
<path fill="none" stroke="#63b8ff" d="M395.59,-175.75C403.16,-168.03 414.38,-156.6 423.51,-147.28"/>
<polygon fill="#63b8ff" stroke="#63b8ff" points="426.07,-149.68 430.57,-140.09 421.07,-144.78 426.07,-149.68"/>
</a>
</g>
</g>
<!-- Node3&#45;&gt;Node16 -->
<g id="edge19_Node000003_Node000016" class="edge">
<title>Node3&#45;&gt;Node16</title>
<g id="a_edge19_Node000003_Node000016"><a xlink:title=" ">
<path fill="none" stroke="#63b8ff" d="M407.57,-175.98C428.43,-167.34 460.97,-153.87 484.77,-144.02"/>
<polygon fill="#63b8ff" stroke="#63b8ff" points="486.16,-147.23 494.06,-140.17 483.48,-140.76 486.16,-147.23"/>
</a>
</g>
</g>
<!-- Node3&#45;&gt;Node17 -->
<g id="edge21_Node000003_Node000017" class="edge">
<title>Node3&#45;&gt;Node17</title>
<g id="a_edge21_Node000003_Node000017"><a xlink:title=" ">
<path fill="none" stroke="#63b8ff" d="M419.62,-175.98C456.91,-166.25 517.68,-150.38 555.67,-140.46"/>
<polygon fill="#63b8ff" stroke="#63b8ff" points="556.96,-143.74 565.75,-137.83 555.19,-136.97 556.96,-143.74"/>
</a>
</g>
</g>
<!-- Node3&#45;&gt;Node18 -->
<g id="edge23_Node000003_Node000018" class="edge">
<title>Node3&#45;&gt;Node18</title>
<g id="a_edge23_Node000003_Node000018"><a xlink:title=" ">
<path fill="none" stroke="#63b8ff" d="M433.91,-175.98C485.21,-166.67 567.41,-151.75 622.29,-141.79"/>
<polygon fill="#63b8ff" stroke="#63b8ff" points="622.99,-145.22 632.2,-139.99 621.74,-138.34 622.99,-145.22"/>
</a>
</g>
</g>
<!-- Node4&#45;&gt;Node5 -->
<g id="edge4_Node000004_Node000005" class="edge">
<title>Node4&#45;&gt;Node5</title>
<g id="a_edge4_Node000004_Node000005"><a xlink:title=" ">
<path fill="none" stroke="#63b8ff" d="M247.73,-120.99C220.36,-110.99 174.73,-94.3 143.78,-82.99"/>
<polygon fill="#63b8ff" stroke="#63b8ff" points="144.89,-79.66 134.29,-79.52 142.48,-86.24 144.89,-79.66"/>
</a>
</g>
</g>
<!-- Node6 -->
<g id="Node000006" class="node">
<title>Node6</title>
<g id="a_Node000006"><a xlink:title=" ">
<polygon fill="#e0e0e0" stroke="#999999" points="245,-19 195,-19 195,0 245,0 245,-19"/>
<text text-anchor="middle" x="220" y="-7" font-family="Helvetica,sans-Serif" font-size="10.00">cstdint</text>
</a>
</g>
</g>
<!-- Node4&#45;&gt;Node6 -->
<g id="edge9_Node000004_Node000006" class="edge">
<title>Node4&#45;&gt;Node6</title>
<g id="a_edge9_Node000004_Node000006"><a xlink:title=" ">
<path fill="none" stroke="#63b8ff" d="M267.33,-120.94C259.1,-101.74 239.01,-54.86 227.83,-28.77"/>
<polygon fill="#63b8ff" stroke="#63b8ff" points="230.93,-27.11 223.77,-19.3 224.49,-29.87 230.93,-27.11"/>
</a>
</g>
</g>
<!-- Node4&#45;&gt;Node7 -->
<g id="edge12_Node000004_Node000007" class="edge">
<title>Node4&#45;&gt;Node7</title>
<g id="a_edge12_Node000004_Node000007"><a xlink:title=" ">
<path fill="none" stroke="#63b8ff" d="M320.32,-123.49C349.46,-117.76 385.52,-106.61 411,-85 428.26,-70.36 438.59,-45.93 444.03,-29.06"/>
<polygon fill="#63b8ff" stroke="#63b8ff" points="447.45,-29.83 446.92,-19.24 440.74,-27.85 447.45,-29.83"/>
</a>
</g>
</g>
<!-- Node4&#45;&gt;Node9 -->
<g id="edge8_Node000004_Node000009" class="edge">
<title>Node4&#45;&gt;Node9</title>
<g id="a_edge8_Node000004_Node000009"><a xlink:title=" ">
<path fill="none" stroke="#63b8ff" d="M221.94,-121.84C178.55,-114.44 113.81,-101.88 59,-85 57.32,-84.48 55.61,-83.92 53.9,-83.32"/>
<polygon fill="#63b8ff" stroke="#63b8ff" points="54.78,-79.91 44.19,-79.62 52.29,-86.45 54.78,-79.91"/>
</a>
</g>
</g>
<!-- Node4&#45;&gt;Node10 -->
<g id="edge10_Node000004_Node000010" class="edge">
<title>Node4&#45;&gt;Node10</title>
<g id="a_edge10_Node000004_Node000010"><a xlink:title=" ">
<path fill="none" stroke="#63b8ff" d="M307.93,-120.99C355.46,-110.05 437.66,-91.12 486.12,-79.96"/>
<polygon fill="#63b8ff" stroke="#63b8ff" points="486.96,-83.35 495.92,-77.7 485.39,-76.53 486.96,-83.35"/>
</a>
</g>
</g>
<!-- Node11 -->
<g id="Node000011" class="node">
<title>Node11</title>
<g id="a_Node000011"><a xlink:title=" ">
<polygon fill="#e0e0e0" stroke="#999999" points="402,-79.5 346,-79.5 346,-60.5 402,-60.5 402,-79.5"/>
<text text-anchor="middle" x="374" y="-67.5" font-family="Helvetica,sans-Serif" font-size="10.00">optional</text>
</a>
</g>
</g>
<!-- Node4&#45;&gt;Node11 -->
<g id="edge11_Node000004_Node000011" class="edge">
<title>Node4&#45;&gt;Node11</title>
<g id="a_edge11_Node000004_Node000011"><a xlink:title=" ">
<path fill="none" stroke="#63b8ff" d="M286.2,-120.87C303.01,-111.32 330.32,-95.81 350.02,-84.62"/>
<polygon fill="#63b8ff" stroke="#63b8ff" points="351.77,-87.65 358.74,-79.67 348.32,-81.56 351.77,-87.65"/>
</a>
</g>
</g>
<!-- Node12 -->
<g id="Node000012" class="node">
<title>Node12</title>
<g id="a_Node000012"><a xlink:title=" ">
<polygon fill="#e0e0e0" stroke="#999999" points="327.5,-79.5 276.5,-79.5 276.5,-60.5 327.5,-60.5 327.5,-79.5"/>
<text text-anchor="middle" x="302" y="-67.5" font-family="Helvetica,sans-Serif" font-size="10.00">variant</text>
</a>
</g>
</g>
<!-- Node4&#45;&gt;Node12 -->
<g id="edge13_Node000004_Node000012" class="edge">
<title>Node4&#45;&gt;Node12</title>
<g id="a_edge13_Node000004_Node000012"><a xlink:title=" ">
<path fill="none" stroke="#63b8ff" d="M275.57,-120.87C280.06,-112.4 287.03,-99.24 292.69,-88.57"/>
<polygon fill="#63b8ff" stroke="#63b8ff" points="295.82,-90.14 297.41,-79.67 289.63,-86.86 295.82,-90.14"/>
</a>
</g>
</g>
<!-- Node4&#45;&gt;Node13 -->
<g id="edge14_Node000004_Node000013" class="edge">
<title>Node4&#45;&gt;Node13</title>
<g id="a_edge14_Node000004_Node000013"><a xlink:title=" ">
<path fill="none" stroke="#63b8ff" d="M259.93,-120.87C248.19,-111.71 229.41,-97.06 215.24,-86.01"/>
<polygon fill="#63b8ff" stroke="#63b8ff" points="217.15,-83.06 207.11,-79.67 212.84,-88.58 217.15,-83.06"/>
</a>
</g>
</g>
<!-- Node4&#45;&gt;Node14 -->
<g id="edge15_Node000004_Node000014" class="edge">
<title>Node4&#45;&gt;Node14</title>
<g id="a_edge15_Node000004_Node000014"><a xlink:title=" ">
<path fill="none" stroke="#63b8ff" d="M320.06,-122.62C390.71,-112.71 521.95,-94.3 607.08,-82.35"/>
<polygon fill="#63b8ff" stroke="#63b8ff" points="607.81,-85.78 617.23,-80.93 606.84,-78.85 607.81,-85.78"/>
</a>
</g>
</g>
<!-- Node5&#45;&gt;Node6 -->
<g id="edge5_Node000005_Node000006" class="edge">
<title>Node5&#45;&gt;Node6</title>
<g id="a_edge5_Node000005_Node000006"><a xlink:title=" ">
<path fill="none" stroke="#63b8ff" d="M127.08,-60.37C144.95,-50.78 174.04,-35.17 194.91,-23.97"/>
<polygon fill="#63b8ff" stroke="#63b8ff" points="196.69,-26.98 203.85,-19.17 193.38,-20.81 196.69,-26.98"/>
</a>
</g>
</g>
<!-- Node5&#45;&gt;Node7 -->
<g id="edge6_Node000005_Node000007" class="edge">
<title>Node5&#45;&gt;Node7</title>
<g id="a_edge6_Node000005_Node000007"><a xlink:title=" ">
<path fill="none" stroke="#63b8ff" d="M140.56,-60.44C147.86,-58.5 155.68,-56.55 163,-55 254.29,-35.67 363.64,-20.97 416.8,-14.35"/>
<polygon fill="#63b8ff" stroke="#63b8ff" points="417.47,-17.79 426.96,-13.1 416.61,-10.85 417.47,-17.79"/>
</a>
</g>
</g>
<!-- Node8 -->
<g id="Node000008" class="node">
<title>Node8</title>
<g id="a_Node000008"><a xlink:title=" ">
<polygon fill="#e0e0e0" stroke="#999999" points="147.5,-19 74.5,-19 74.5,0 147.5,0 147.5,-19"/>
<text text-anchor="middle" x="111" y="-7" font-family="Helvetica,sans-Serif" font-size="10.00">string_view</text>
</a>
</g>
</g>
<!-- Node5&#45;&gt;Node8 -->
<g id="edge7_Node000005_Node000008" class="edge">
<title>Node5&#45;&gt;Node8</title>
<g id="a_edge7_Node000005_Node000008"><a xlink:title=" ">
<path fill="none" stroke="#63b8ff" d="M111,-60.37C111,-52.25 111,-39.81 111,-29.39"/>
<polygon fill="#63b8ff" stroke="#63b8ff" points="114.5,-29.17 111,-19.17 107.5,-29.17 114.5,-29.17"/>
</a>
</g>
</g>
</g>
</svg>

<g id="navigator" transform="translate(0 0)" fill="#404254">
  <rect fill="#f2f5e9" fill-opacity="0.5" stroke="#606060" stroke-width=".5" x="0" y="0" width="60" height="60"/>
  <use id="zoomplus" xlink:href="#zoomPlus" x="17" y="9" onmousedown="handleZoom(evt,'in')"/>
  <use id="zoomminus" xlink:href="#zoomMin" x="42" y="9" onmousedown="handleZoom(evt,'out')"/>
  <use id="reset" xlink:href="#resetDef" x="30" y="36" onmousedown="handleReset()"/>
   <use id="arrowup" xlink:href="#arrowUp" x="0" y="0" onmousedown="handlePan(0,-1)"/>
  <use id="arrowright" xlink:href="#arrowRight" x="0" y="0" onmousedown="handlePan(1,0)"/>
  <use id="arrowdown" xlink:href="#arrowDown" x="0" y="0" onmousedown="handlePan(0,1)"/>
  <use id="arrowleft" xlink:href="#arrowLeft" x="0" y="0" onmousedown="handlePan(-1,0)"/>
</g>
<svg viewBox="0 0 15 15" width="100%" height="30px" preserveAspectRatio="xMaxYMin meet">
 <g id="arrow_out" transform="scale(0.3 0.3)">
  <a xlink:href="gateway__server_8cpp__incl_org.svg" target="_base">
   <rect id="button" ry="5" rx="5" y="6" x="6" height="38" width="38"
        fill="#f2f5e9" fill-opacity="0.5" stroke="#606060" stroke-width="1.0"/>
   <path id="arrow"
     d="M 11.500037,31.436501 C 11.940474,20.09759 22.043105,11.32322 32.158766,21.979434 L 37.068811,17.246167 C 37.068811,17.246167 37.088388,32 37.088388,32 L 22.160133,31.978069 C 22.160133,31.978069 26.997745,27.140456 26.997745,27.140456 C 18.528582,18.264221 13.291696,25.230495 11.500037,31.436501 z"
     style="fill:#404040;"/>
  </a>
 </g>
</svg>

<style type='text/css'>
<![CDATA[
[data-mouse-over-selected='false'] { opacity: 0.7; }
[data-mouse-over-selected='true']  { opacity: 1.0; }
]]>
</style>
<script type="application/ecmascript"><![CDATA[
document.addEventListener('DOMContentLoaded', (event) => {
  highlightEdges();
  highlightAdjacentNodes();
});
]]></script>
</svg>
