<?xml version="1.0" encoding="UTF-8" standalone="no"?>
<!DOCTYPE svg PUBLIC "-//W3C//DTD SVG 1.1//EN"
 "http://www.w3.org/Graphics/SVG/1.1/DTD/svg11.dtd">
<!-- Generated by graphviz version 2.43.0 (0)
 -->
<!-- Title: src/gateway/gateway_server.cpp Pages: 1 -->
<!--zoomable 346 -->

<svg id="main" version="1.1" xmlns="http://www.w3.org/2000/svg" xmlns:xlink="http://www.w3.org/1999/xlink" xml:space="preserve" onload="init(evt)">
<style type="text/css"><![CDATA[
.node, .edge {opacity: 0.7;}
.node.selected, .edge.selected {opacity: 1;}
.edge:hover path { stroke: red; }
.edge:hover polygon { stroke: red; fill: red; }
]]></style>

<defs>
  <circle id="rim" cx="0" cy="0" r="7"/>
  <circle id="rim2" cx="0" cy="0" r="3.5"/>
  <g id="zoomPlus">
    <use xlink:href="#rim" fill="#404040"><set attributeName="fill" to="#808080" begin="zoomplus.mouseover" end="zoomplus.mouseout"/></use>
    <path d="M-4,0h8M0,-4v8" fill="none" stroke="white" stroke-width="1.5" pointer-events="none"/>
  </g>
  <g id="zoomMin">
    <use xlink:href="#rim" fill="#404040"><set attributeName="fill" to="#808080" begin="zoomminus.mouseover" end="zoomminus.mouseout"/></use>
    <path d="M-4,0h8" fill="none" stroke="white" stroke-width="1.5" pointer-events="none"/>
  </g>
  <g id="arrowUp" transform="translate(30 24)">
    <use xlink:href="#rim"/>
    <path pointer-events="none" fill="none" stroke="white" stroke-width="1.5" d="M0,-3.0v7 M-2.5,-0.5L0,-3.0L2.5,-0.5"/>
  </g>
  <g id="arrowRight" transform="rotate(90) translate(36 -43)">
    <use xlink:href="#rim"/>
    <path pointer-events="none" fill="none" stroke="white" stroke-width="1.5" d="M0,-3.0v7 M-2.5,-0.5L0,-3.0L2.5,-0.5"/>
  </g>
  <g id="arrowDown" transform="rotate(180) translate(-30 -48)">
    <use xlink:href="#rim"/>
    <path pointer-events="none" fill="none" stroke="white" stroke-width="1.5" d="M0,-3.0v7 M-2.5,-0.5L0,-3.0L2.5,-0.5"/>
  </g>
  <g id="arrowLeft" transform="rotate(270) translate(-36 17)">
    <use xlink:href="#rim"/>
    <path pointer-events="none" fill="none" stroke="white" stroke-width="1.5" d="M0,-3.0v7 M-2.5,-0.5L0,-3.0L2.5,-0.5"/>
  </g>
  <g id="resetDef">
    <use xlink:href="#rim2" fill="#404040"><set attributeName="fill" to="#808080" begin="reset.mouseover" end="reset.mouseout"/></use>
  </g>
</defs>
<script type="application/ecmascript">
var viewWidth = 1070;
var viewHeight = 346;
var sectionId = 'dynsection-0';
</script>
<script type="application/ecmascript" xlink:href="svg.min.js"/>
<svg id="graph" class="graph">
<g id="viewport">
<title>src/gateway/gateway_server.cpp</title>
<!-- Node1 -->
<g id="Node000001" class="node">
<title>Node1</title>
<g id="a_Node000001"><a xlink:title=" ">
<polygon fill="#999999" stroke="#666666" points="674.5,-338 553.5,-338 553.5,-308 674.5,-308 674.5,-338"/>
<text text-anchor="start" x="561.5" y="-326" font-family="Helvetica,sans-Serif" font-size="10.00">src/gateway/gateway</text>
<text text-anchor="middle" x="614" y="-315" font-family="Helvetica,sans-Serif" font-size="10.00">_server.cpp</text>
</a>
</g>
</g>
<!-- Node2 -->
<g id="Node000002" class="node">
<title>Node2</title>
<g id="a_Node000002"><a xlink:href="gateway__server_8h.html" target="_top" xlink:title="Database gateway TCP server.">
<polygon fill="white" stroke="#666666" points="585.5,-272 434.5,-272 434.5,-242 585.5,-242 585.5,-272"/>
<text text-anchor="start" x="442.5" y="-260" font-family="Helvetica,sans-Serif" font-size="10.00">kcenon/database_server</text>
<text text-anchor="middle" x="510" y="-249" font-family="Helvetica,sans-Serif" font-size="10.00">/gateway/gateway_server.h</text>
</a>
</g>
</g>
<!-- Node1&#45;&gt;Node2 -->
<g id="edge1_Node000001_Node000002" class="edge">
<title>Node1&#45;&gt;Node2</title>
<g id="a_edge1_Node000001_Node000002"><a xlink:title=" ">
<path fill="none" stroke="#63b8ff" d="M591.18,-307.95C576.55,-298.95 557.36,-287.14 541.31,-277.27"/>
<polygon fill="#63b8ff" stroke="#63b8ff" points="543.12,-274.27 532.77,-272.01 539.45,-280.23 543.12,-274.27"/>
</a>
</g>
</g>
<!-- Node3 -->
<g id="Node000003" class="node">
<title>Node3</title>
<g id="a_Node000003"><a xlink:href="auth__middleware_8h.html" target="_top" xlink:title="Authentication middleware for database gateway.">
<polygon fill="white" stroke="#666666" points="440,-200.5 330,-200.5 330,-181.5 440,-181.5 440,-200.5"/>
<text text-anchor="middle" x="385" y="-188.5" font-family="Helvetica,sans-Serif" font-size="10.00">auth_middleware.h</text>
</a>
</g>
</g>
<!-- Node1&#45;&gt;Node3 -->
<g id="edge34_Node000001_Node000003" class="edge">
<title>Node1&#45;&gt;Node3</title>
<g id="a_edge34_Node000001_Node000003"><a xlink:title=" ">
<path fill="none" stroke="#63b8ff" d="M553.27,-318.71C513.04,-313.69 461.2,-301.45 425,-272 405.66,-256.26 394.84,-228.79 389.47,-210.5"/>
<polygon fill="#63b8ff" stroke="#63b8ff" points="392.81,-209.47 386.85,-200.71 386.05,-211.28 392.81,-209.47"/>
</a>
</g>
</g>
<!-- Node9 -->
<g id="Node000009" class="node">
<title>Node9</title>
<g id="a_Node000009"><a xlink:title=" ">
<polygon fill="#e0e0e0" stroke="#999999" points="50,-79.5 0,-79.5 0,-60.5 50,-60.5 50,-79.5"/>
<text text-anchor="middle" x="25" y="-67.5" font-family="Helvetica,sans-Serif" font-size="10.00">chrono</text>
</a>
</g>
</g>
<!-- Node1&#45;&gt;Node9 -->
<g id="edge40_Node000001_Node000009" class="edge">
<title>Node1&#45;&gt;Node9</title>
<g id="a_edge40_Node000001_Node000009"><a xlink:title=" ">
<path fill="none" stroke="#63b8ff" d="M553.4,-314.11C467.43,-301.09 306.99,-269.91 185,-206 124.05,-174.07 65.75,-115.54 39.51,-87.21"/>
<polygon fill="#63b8ff" stroke="#63b8ff" points="42.03,-84.78 32.7,-79.76 36.86,-89.5 42.03,-84.78"/>
</a>
</g>
</g>
<!-- Node19 -->
<g id="Node000019" class="node">
<title>Node19</title>
<g id="a_Node000019"><a xlink:href="session__id__generator_8h.html" target="_top" xlink:title="Cryptographically secure session ID generation.">
<polygon fill="white" stroke="#666666" points="1022,-206 846,-206 846,-176 1022,-176 1022,-206"/>
<text text-anchor="start" x="854" y="-194" font-family="Helvetica,sans-Serif" font-size="10.00">kcenon/database_server</text>
<text text-anchor="middle" x="934" y="-183" font-family="Helvetica,sans-Serif" font-size="10.00">/gateway/session_id_generator.h</text>
</a>
</g>
</g>
<!-- Node1&#45;&gt;Node19 -->
<g id="edge35_Node000001_Node000019" class="edge">
<title>Node1&#45;&gt;Node19</title>
<g id="a_edge35_Node000001_Node000019"><a xlink:title=" ">
<path fill="none" stroke="#63b8ff" d="M613.01,-307.85C612.59,-289.82 614.84,-258.95 633,-242 640.55,-234.95 750.77,-217.91 835.67,-205.68"/>
<polygon fill="#63b8ff" stroke="#63b8ff" points="836.22,-209.14 845.62,-204.26 835.23,-202.21 836.22,-209.14"/>
</a>
</g>
</g>
<!-- Node20 -->
<g id="Node000020" class="node">
<title>Node20</title>
<g id="a_Node000020"><a xlink:title=" ">
<polygon fill="#e0e0e0" stroke="#999999" points="761.5,-272 642.5,-272 642.5,-242 761.5,-242 761.5,-272"/>
<text text-anchor="start" x="650.5" y="-260" font-family="Helvetica,sans-Serif" font-size="10.00">kcenon/network/core</text>
<text text-anchor="middle" x="702" y="-249" font-family="Helvetica,sans-Serif" font-size="10.00">/messaging_server.h</text>
</a>
</g>
</g>
<!-- Node1&#45;&gt;Node20 -->
<g id="edge37_Node000001_Node000020" class="edge">
<title>Node1&#45;&gt;Node20</title>
<g id="a_edge37_Node000001_Node000020"><a xlink:title=" ">
<path fill="none" stroke="#63b8ff" d="M633.53,-307.8C645.49,-299.1 660.99,-287.82 674.22,-278.2"/>
<polygon fill="#63b8ff" stroke="#63b8ff" points="676.5,-280.88 682.52,-272.16 672.38,-275.22 676.5,-280.88"/>
</a>
</g>
</g>
<!-- Node21 -->
<g id="Node000021" class="node">
<title>Node21</title>
<g id="a_Node000021"><a xlink:title=" ">
<polygon fill="#e0e0e0" stroke="#999999" points="914,-272 780,-272 780,-242 914,-242 914,-272"/>
<text text-anchor="start" x="788" y="-260" font-family="Helvetica,sans-Serif" font-size="10.00">kcenon/network/session</text>
<text text-anchor="middle" x="847" y="-249" font-family="Helvetica,sans-Serif" font-size="10.00">/messaging_session.h</text>
</a>
</g>
</g>
<!-- Node1&#45;&gt;Node21 -->
<g id="edge38_Node000001_Node000021" class="edge">
<title>Node1&#45;&gt;Node21</title>
<g id="a_edge38_Node000001_Node000021"><a xlink:title=" ">
<path fill="none" stroke="#63b8ff" d="M665.13,-307.95C700.79,-298.16 748.54,-285.05 786.16,-274.71"/>
<polygon fill="#63b8ff" stroke="#63b8ff" points="787.27,-278.04 795.99,-272.01 785.42,-271.29 787.27,-278.04"/>
</a>
</g>
</g>
<!-- Node22 -->
<g id="Node000022" class="node">
<title>Node22</title>
<g id="a_Node000022"><a xlink:title=" ">
<polygon fill="#e0e0e0" stroke="#999999" points="1062,-272 932,-272 932,-242 1062,-242 1062,-272"/>
<text text-anchor="start" x="940" y="-260" font-family="Helvetica,sans-Serif" font-size="10.00">kcenon/common/config</text>
<text text-anchor="middle" x="997" y="-249" font-family="Helvetica,sans-Serif" font-size="10.00">/feature_flags.h</text>
</a>
</g>
</g>
<!-- Node1&#45;&gt;Node22 -->
<g id="edge39_Node000001_Node000022" class="edge">
<title>Node1&#45;&gt;Node22</title>
<g id="a_edge39_Node000001_Node000022"><a xlink:title=" ">
<path fill="none" stroke="#63b8ff" d="M674.76,-312.66C734.94,-303.29 829.98,-288.2 921.64,-272.21"/>
<polygon fill="#63b8ff" stroke="#63b8ff" points="922.4,-275.63 931.65,-270.46 921.19,-268.74 922.4,-275.63"/>
</a>
</g>
</g>
<!-- Node2&#45;&gt;Node3 -->
<g id="edge2_Node000002_Node000003" class="edge">
<title>Node2&#45;&gt;Node3</title>
<g id="a_edge2_Node000002_Node000003"><a xlink:title=" ">
<path fill="none" stroke="#63b8ff" d="M482.57,-241.95C461.13,-230.98 431.55,-215.83 410.6,-205.11"/>
<polygon fill="#63b8ff" stroke="#63b8ff" points="412.13,-201.96 401.64,-200.52 408.94,-208.19 412.13,-201.96"/>
</a>
</g>
</g>
<!-- Node4 -->
<g id="Node000004" class="node">
<title>Node4</title>
<g id="a_Node000004"><a xlink:href="query__protocol_8h.html" target="_top" xlink:title="Query protocol message structures for database gateway.">
<polygon fill="white" stroke="#666666" points="346,-140 248,-140 248,-121 346,-121 346,-140"/>
<text text-anchor="middle" x="297" y="-128" font-family="Helvetica,sans-Serif" font-size="10.00">query_protocol.h</text>
</a>
</g>
</g>
<!-- Node2&#45;&gt;Node4 -->
<g id="edge25_Node000002_Node000004" class="edge">
<title>Node2&#45;&gt;Node4</title>
<g id="a_edge25_Node000002_Node000004"><a xlink:title=" ">
<path fill="none" stroke="#63b8ff" d="M434.49,-252.8C396.11,-247.39 351.29,-234.73 321,-206 305.78,-191.57 300.19,-167.45 298.15,-150.58"/>
<polygon fill="#63b8ff" stroke="#63b8ff" points="301.6,-149.91 297.23,-140.26 294.63,-150.53 301.6,-149.91"/>
</a>
</g>
</g>
<!-- Node5 -->
<g id="Node000005" class="node">
<title>Node5</title>
<g id="a_Node000005"><a xlink:href="query__types_8h.html" target="_top" xlink:title="Query protocol type definitions for database gateway.">
<polygon fill="white" stroke="#666666" points="154,-79.5 68,-79.5 68,-60.5 154,-60.5 154,-79.5"/>
<text text-anchor="middle" x="111" y="-67.5" font-family="Helvetica,sans-Serif" font-size="10.00">query_types.h</text>
</a>
</g>
</g>
<!-- Node2&#45;&gt;Node5 -->
<g id="edge26_Node000002_Node000005" class="edge">
<title>Node2&#45;&gt;Node5</title>
<g id="a_edge26_Node000002_Node000005"><a xlink:title=" ">
<path fill="none" stroke="#63b8ff" d="M434.32,-251.76C351.96,-243.17 221.43,-217.35 142,-140 127.92,-126.29 119.71,-105.02 115.31,-89.72"/>
<polygon fill="#63b8ff" stroke="#63b8ff" points="118.65,-88.64 112.76,-79.83 111.87,-90.39 118.65,-88.64"/>
</a>
</g>
</g>
<!-- Node7 -->
<g id="Node000007" class="node">
<title>Node7</title>
<g id="a_Node000007"><a xlink:title=" ">
<polygon fill="#e0e0e0" stroke="#999999" points="346,-19 302,-19 302,0 346,0 346,-19"/>
<text text-anchor="middle" x="324" y="-7" font-family="Helvetica,sans-Serif" font-size="10.00">string</text>
</a>
</g>
</g>
<!-- Node2&#45;&gt;Node7 -->
<g id="edge31_Node000002_Node000007" class="edge">
<title>Node2&#45;&gt;Node7</title>
<g id="a_edge31_Node000002_Node000007"><a xlink:title=" ">
<path fill="none" stroke="#63b8ff" d="M585.67,-245.16C637.67,-236.43 700.97,-222.85 722,-206 776.09,-162.66 807.46,-106.43 761,-55 733.93,-25.03 452.5,-14.19 356.15,-11.34"/>
<polygon fill="#63b8ff" stroke="#63b8ff" points="356.21,-7.84 346.12,-11.05 356.01,-14.84 356.21,-7.84"/>
</a>
</g>
</g>
<!-- Node10 -->
<g id="Node000010" class="node">
<title>Node10</title>
<g id="a_Node000010"><a xlink:title=" ">
<polygon fill="#e0e0e0" stroke="#999999" points="554,-79.5 496,-79.5 496,-60.5 554,-60.5 554,-79.5"/>
<text text-anchor="middle" x="525" y="-67.5" font-family="Helvetica,sans-Serif" font-size="10.00">memory</text>
</a>
</g>
</g>
<!-- Node2&#45;&gt;Node10 -->
<g id="edge29_Node000002_Node000010" class="edge">
<title>Node2&#45;&gt;Node10</title>
<g id="a_edge29_Node000002_Node000010"><a xlink:title=" ">
<path fill="none" stroke="#63b8ff" d="M571.01,-241.98C622.21,-226.56 691.82,-196.14 723,-140 727.1,-132.62 728.19,-127.66 723,-121 713.2,-108.42 619.39,-88.83 564.49,-78.29"/>
<polygon fill="#63b8ff" stroke="#63b8ff" points="564.87,-74.8 554.39,-76.37 563.56,-81.68 564.87,-74.8"/>
</a>
</g>
</g>
<!-- Node14 -->
<g id="Node000014" class="node">
<title>Node14</title>
<g id="a_Node000014"><a xlink:title=" ">
<polygon fill="#e0e0e0" stroke="#999999" points="751.5,-85 610.5,-85 610.5,-55 751.5,-55 751.5,-85"/>
<text text-anchor="start" x="618.5" y="-73" font-family="Helvetica,sans-Serif" font-size="10.00">kcenon/common/patterns</text>
<text text-anchor="middle" x="681" y="-62" font-family="Helvetica,sans-Serif" font-size="10.00">/result.h</text>
</a>
</g>
</g>
<!-- Node2&#45;&gt;Node14 -->
<g id="edge33_Node000002_Node000014" class="edge">
<title>Node2&#45;&gt;Node14</title>
<g id="a_edge33_Node000002_Node000014"><a xlink:title=" ">
<path fill="none" stroke="#63b8ff" d="M585.77,-246.55C619.92,-239.51 659.35,-227.26 690,-206 725.65,-181.27 755.9,-160.52 738,-121 732.7,-109.29 723.14,-99.24 713.36,-91.28"/>
<polygon fill="#63b8ff" stroke="#63b8ff" points="715.26,-88.33 705.17,-85.1 711.04,-93.92 715.26,-88.33"/>
</a>
</g>
</g>
<!-- Node15 -->
<g id="Node000015" class="node">
<title>Node15</title>
<g id="a_Node000015"><a xlink:title=" ">
<polygon fill="#e0e0e0" stroke="#999999" points="714,-140 664,-140 664,-121 714,-121 714,-140"/>
<text text-anchor="middle" x="689" y="-128" font-family="Helvetica,sans-Serif" font-size="10.00">atomic</text>
</a>
</g>
</g>
<!-- Node2&#45;&gt;Node15 -->
<g id="edge27_Node000002_Node000015" class="edge">
<title>Node2&#45;&gt;Node15</title>
<g id="a_edge27_Node000002_Node000015"><a xlink:title=" ">
<path fill="none" stroke="#63b8ff" d="M530.19,-241.96C564.43,-218.14 633.56,-170.06 668.21,-145.96"/>
<polygon fill="#63b8ff" stroke="#63b8ff" points="670.41,-148.69 676.62,-140.11 666.41,-142.95 670.41,-148.69"/>
</a>
</g>
</g>
<!-- Node16 -->
<g id="Node000016" class="node">
<title>Node16</title>
<g id="a_Node000016"><a xlink:title=" ">
<polygon fill="#e0e0e0" stroke="#999999" points="467.5,-140 402.5,-140 402.5,-121 467.5,-121 467.5,-140"/>
<text text-anchor="middle" x="435" y="-128" font-family="Helvetica,sans-Serif" font-size="10.00">functional</text>
</a>
</g>
</g>
<!-- Node2&#45;&gt;Node16 -->
<g id="edge28_Node000002_Node000016" class="edge">
<title>Node2&#45;&gt;Node16</title>
<g id="a_edge28_Node000002_Node000016"><a xlink:title=" ">
<path fill="none" stroke="#63b8ff" d="M501.4,-241.72C487.54,-218.71 460.32,-173.53 445.4,-148.76"/>
<polygon fill="#63b8ff" stroke="#63b8ff" points="448.32,-146.83 440.16,-140.07 442.32,-150.44 448.32,-146.83"/>
</a>
</g>
</g>
<!-- Node17 -->
<g id="Node000017" class="node">
<title>Node17</title>
<g id="a_Node000017"><a xlink:title=" ">
<polygon fill="#e0e0e0" stroke="#999999" points="534,-140 486,-140 486,-121 534,-121 534,-140"/>
<text text-anchor="middle" x="510" y="-128" font-family="Helvetica,sans-Serif" font-size="10.00">mutex</text>
</a>
</g>
</g>
<!-- Node2&#45;&gt;Node17 -->
<g id="edge30_Node000002_Node000017" class="edge">
<title>Node2&#45;&gt;Node17</title>
<g id="a_edge30_Node000002_Node000017"><a xlink:title=" ">
<path fill="none" stroke="#63b8ff" d="M510,-241.72C510,-219.12 510,-175.12 510,-150.09"/>
<polygon fill="#63b8ff" stroke="#63b8ff" points="513.5,-150.07 510,-140.07 506.5,-150.07 513.5,-150.07"/>
</a>
</g>
</g>
<!-- Node18 -->
<g id="Node000018" class="node">
<title>Node18</title>
<g id="a_Node000018"><a xlink:title=" ">
<polygon fill="#e0e0e0" stroke="#999999" points="645.5,-140 552.5,-140 552.5,-121 645.5,-121 645.5,-140"/>
<text text-anchor="middle" x="599" y="-128" font-family="Helvetica,sans-Serif" font-size="10.00">unordered_map</text>
</a>
</g>
</g>
<!-- Node2&#45;&gt;Node18 -->
<g id="edge32_Node000002_Node000018" class="edge">
<title>Node2&#45;&gt;Node18</title>
<g id="a_edge32_Node000002_Node000018"><a xlink:title=" ">
<path fill="none" stroke="#63b8ff" d="M520.21,-241.72C536.73,-218.61 569.24,-173.13 586.9,-148.43"/>
<polygon fill="#63b8ff" stroke="#63b8ff" points="589.91,-150.24 592.87,-140.07 584.21,-146.17 589.91,-150.24"/>
</a>
</g>
</g>
<!-- Node3&#45;&gt;Node4 -->
<g id="edge3_Node000003_Node000004" class="edge">
<title>Node3&#45;&gt;Node4</title>
<g id="a_edge3_Node000003_Node000004"><a xlink:title=" ">
<path fill="none" stroke="#63b8ff" d="M372.02,-181.37C357.98,-172.04 335.37,-157.01 318.64,-145.88"/>
<polygon fill="#63b8ff" stroke="#63b8ff" points="320.3,-142.79 310.04,-140.17 316.43,-148.62 320.3,-142.79"/>
</a>
</g>
</g>
<!-- Node3&#45;&gt;Node5 -->
<g id="edge16_Node000003_Node000005" class="edge">
<title>Node3&#45;&gt;Node5</title>
<g id="a_edge16_Node000003_Node000005"><a xlink:title=" ">
<path fill="none" stroke="#63b8ff" d="M329.57,-187.06C283.36,-182.41 217.34,-170.48 168,-140 147.42,-127.29 130.79,-104.52 120.92,-88.62"/>
<polygon fill="#63b8ff" stroke="#63b8ff" points="123.78,-86.59 115.67,-79.77 117.76,-90.16 123.78,-86.59"/>
</a>
</g>
</g>
<!-- Node3&#45;&gt;Node7 -->
<g id="edge22_Node000003_Node000007" class="edge">
<title>Node3&#45;&gt;Node7</title>
<g id="a_edge22_Node000003_Node000007"><a xlink:title=" ">
<path fill="none" stroke="#63b8ff" d="M329.84,-183.75C296.72,-177.49 255.61,-164.98 227,-140 206.63,-122.22 206.92,-111.38 201,-85 198.08,-71.99 193.34,-65.91 201,-55 211.68,-39.78 259.04,-25.82 291.77,-17.74"/>
<polygon fill="#63b8ff" stroke="#63b8ff" points="292.91,-21.06 301.82,-15.33 291.28,-14.26 292.91,-21.06"/>
</a>
</g>
</g>
<!-- Node3&#45;&gt;Node9 -->
<g id="edge18_Node000003_Node000009" class="edge">
<title>Node3&#45;&gt;Node9</title>
<g id="a_edge18_Node000003_Node000009"><a xlink:title=" ">
<path fill="none" stroke="#63b8ff" d="M329.98,-183.94C279.75,-177.19 204.09,-163.93 142,-140 105.64,-125.99 67.48,-101.32 44.98,-85.59"/>
<polygon fill="#63b8ff" stroke="#63b8ff" points="46.8,-82.59 36.62,-79.64 42.75,-88.29 46.8,-82.59"/>
</a>
</g>
</g>
<!-- Node3&#45;&gt;Node10 -->
<g id="edge20_Node000003_Node000010" class="edge">
<title>Node3&#45;&gt;Node10</title>
<g id="a_edge20_Node000003_Node000010"><a xlink:title=" ">
<path fill="none" stroke="#63b8ff" d="M383.37,-181.31C381.24,-167.1 379.21,-138.69 393,-121 394.61,-118.93 453.1,-97.27 491.68,-83.14"/>
<polygon fill="#63b8ff" stroke="#63b8ff" points="493.29,-86.28 501.48,-79.56 490.89,-79.7 493.29,-86.28"/>
</a>
</g>
</g>
<!-- Node13 -->
<g id="Node000013" class="node">
<title>Node13</title>
<g id="a_Node000013"><a xlink:title=" ">
<polygon fill="#e0e0e0" stroke="#999999" points="257.5,-79.5 210.5,-79.5 210.5,-60.5 257.5,-60.5 257.5,-79.5"/>
<text text-anchor="middle" x="234" y="-67.5" font-family="Helvetica,sans-Serif" font-size="10.00">vector</text>
</a>
</g>
</g>
<!-- Node3&#45;&gt;Node13 -->
<g id="edge24_Node000003_Node000013" class="edge">
<title>Node3&#45;&gt;Node13</title>
<g id="a_edge24_Node000003_Node000013"><a xlink:title=" ">
<path fill="none" stroke="#63b8ff" d="M329.89,-185.76C298.15,-180.24 260.42,-167.8 239,-140 228.13,-125.9 228.17,-105 230.13,-89.9"/>
<polygon fill="#63b8ff" stroke="#63b8ff" points="233.64,-90.13 231.86,-79.69 226.74,-88.96 233.64,-90.13"/>
</a>
</g>
</g>
<!-- Node3&#45;&gt;Node15 -->
<g id="edge17_Node000003_Node000015" class="edge">
<title>Node3&#45;&gt;Node15</title>
<g id="a_edge17_Node000003_Node000015"><a xlink:title=" ">
<path fill="none" stroke="#63b8ff" d="M435.73,-181.42C489.94,-172.05 578.29,-156.22 654,-140 654.1,-139.98 654.2,-139.96 654.3,-139.94"/>
<polygon fill="#63b8ff" stroke="#63b8ff" points="654.82,-143.41 663.8,-137.79 653.28,-136.58 654.82,-143.41"/>
</a>
</g>
</g>
<!-- Node3&#45;&gt;Node16 -->
<g id="edge19_Node000003_Node000016" class="edge">
<title>Node3&#45;&gt;Node16</title>
<g id="a_edge19_Node000003_Node000016"><a xlink:title=" ">
<path fill="none" stroke="#63b8ff" d="M392.38,-181.37C399.91,-172.55 411.79,-158.66 421.09,-147.77"/>
<polygon fill="#63b8ff" stroke="#63b8ff" points="423.76,-150.04 427.59,-140.17 418.43,-145.5 423.76,-150.04"/>
</a>
</g>
</g>
<!-- Node3&#45;&gt;Node17 -->
<g id="edge21_Node000003_Node000017" class="edge">
<title>Node3&#45;&gt;Node17</title>
<g id="a_edge21_Node000003_Node000017"><a xlink:title=" ">
<path fill="none" stroke="#63b8ff" d="M403.18,-181.49C424.01,-171.75 458.37,-155.66 482.48,-144.38"/>
<polygon fill="#63b8ff" stroke="#63b8ff" points="484.23,-147.43 491.8,-140.02 481.26,-141.09 484.23,-147.43"/>
</a>
</g>
</g>
<!-- Node3&#45;&gt;Node18 -->
<g id="edge23_Node000003_Node000018" class="edge">
<title>Node3&#45;&gt;Node18</title>
<g id="a_edge23_Node000003_Node000018"><a xlink:title=" ">
<path fill="none" stroke="#63b8ff" d="M416.12,-181.49C453.6,-171.25 516.68,-154 558.07,-142.69"/>
<polygon fill="#63b8ff" stroke="#63b8ff" points="559.12,-146.03 567.85,-140.02 557.28,-139.28 559.12,-146.03"/>
</a>
</g>
</g>
<!-- Node4&#45;&gt;Node5 -->
<g id="edge4_Node000004_Node000005" class="edge">
<title>Node4&#45;&gt;Node5</title>
<g id="a_edge4_Node000004_Node000005"><a xlink:title=" ">
<path fill="none" stroke="#63b8ff" d="M269.95,-120.99C237.72,-110.86 183.71,-93.87 147.72,-82.55"/>
<polygon fill="#63b8ff" stroke="#63b8ff" points="148.67,-79.18 138.08,-79.52 146.57,-85.86 148.67,-79.18"/>
</a>
</g>
</g>
<!-- Node6 -->
<g id="Node000006" class="node">
<title>Node6</title>
<g id="a_Node000006"><a xlink:title=" ">
<polygon fill="#e0e0e0" stroke="#999999" points="250,-19 200,-19 200,0 250,0 250,-19"/>
<text text-anchor="middle" x="225" y="-7" font-family="Helvetica,sans-Serif" font-size="10.00">cstdint</text>
</a>
</g>
</g>
<!-- Node4&#45;&gt;Node6 -->
<g id="edge9_Node000004_Node000006" class="edge">
<title>Node4&#45;&gt;Node6</title>
<g id="a_edge9_Node000004_Node000006"><a xlink:title=" ">
<path fill="none" stroke="#63b8ff" d="M294.47,-120.76C290.05,-106.33 280.05,-76.95 266,-55 259.37,-44.65 250.24,-34.46 242.28,-26.46"/>
<polygon fill="#63b8ff" stroke="#63b8ff" points="244.45,-23.69 234.84,-19.25 239.58,-28.72 244.45,-23.69"/>
</a>
</g>
</g>
<!-- Node4&#45;&gt;Node7 -->
<g id="edge12_Node000004_Node000007" class="edge">
<title>Node4&#45;&gt;Node7</title>
<g id="a_edge12_Node000004_Node000007"><a xlink:title=" ">
<path fill="none" stroke="#63b8ff" d="M298.94,-120.94C303.28,-101.82 313.84,-55.27 319.77,-29.12"/>
<polygon fill="#63b8ff" stroke="#63b8ff" points="323.2,-29.83 322,-19.3 316.38,-28.28 323.2,-29.83"/>
</a>
</g>
</g>
<!-- Node4&#45;&gt;Node9 -->
<g id="edge8_Node000004_Node000009" class="edge">
<title>Node4&#45;&gt;Node9</title>
<g id="a_edge8_Node000004_Node000009"><a xlink:title=" ">
<path fill="none" stroke="#63b8ff" d="M247.99,-123.34C199.38,-116.54 123.09,-103.97 59,-85 57.12,-84.44 55.2,-83.82 53.27,-83.15"/>
<polygon fill="#63b8ff" stroke="#63b8ff" points="54.4,-79.83 43.81,-79.55 51.92,-86.38 54.4,-79.83"/>
</a>
</g>
</g>
<!-- Node4&#45;&gt;Node10 -->
<g id="edge10_Node000004_Node000010" class="edge">
<title>Node4&#45;&gt;Node10</title>
<g id="a_edge10_Node000004_Node000010"><a xlink:title=" ">
<path fill="none" stroke="#63b8ff" d="M339.4,-120.96C377.94,-112.85 436.22,-99.74 486,-85 488.27,-84.33 490.6,-83.6 492.94,-82.83"/>
<polygon fill="#63b8ff" stroke="#63b8ff" points="494.13,-86.13 502.46,-79.58 491.86,-79.5 494.13,-86.13"/>
</a>
</g>
</g>
<!-- Node11 -->
<g id="Node000011" class="node">
<title>Node11</title>
<g id="a_Node000011"><a xlink:title=" ">
<polygon fill="#e0e0e0" stroke="#999999" points="408,-79.5 352,-79.5 352,-60.5 408,-60.5 408,-79.5"/>
<text text-anchor="middle" x="380" y="-67.5" font-family="Helvetica,sans-Serif" font-size="10.00">optional</text>
</a>
</g>
</g>
<!-- Node4&#45;&gt;Node11 -->
<g id="edge11_Node000004_Node000011" class="edge">
<title>Node4&#45;&gt;Node11</title>
<g id="a_edge11_Node000004_Node000011"><a xlink:title=" ">
<path fill="none" stroke="#63b8ff" d="M309.25,-120.87C322.36,-111.62 343.42,-96.78 359.15,-85.69"/>
<polygon fill="#63b8ff" stroke="#63b8ff" points="361.55,-88.29 367.7,-79.67 357.51,-82.57 361.55,-88.29"/>
</a>
</g>
</g>
<!-- Node12 -->
<g id="Node000012" class="node">
<title>Node12</title>
<g id="a_Node000012"><a xlink:title=" ">
<polygon fill="#e0e0e0" stroke="#999999" points="477.5,-79.5 426.5,-79.5 426.5,-60.5 477.5,-60.5 477.5,-79.5"/>
<text text-anchor="middle" x="452" y="-67.5" font-family="Helvetica,sans-Serif" font-size="10.00">variant</text>
</a>
</g>
</g>
<!-- Node4&#45;&gt;Node12 -->
<g id="edge13_Node000004_Node000012" class="edge">
<title>Node4&#45;&gt;Node12</title>
<g id="a_edge13_Node000004_Node000012"><a xlink:title=" ">
<path fill="none" stroke="#63b8ff" d="M320.52,-120.98C344.76,-112.15 383.62,-97.86 417,-85 418.41,-84.46 419.85,-83.9 421.31,-83.33"/>
<polygon fill="#63b8ff" stroke="#63b8ff" points="422.92,-86.45 430.93,-79.53 420.35,-79.94 422.92,-86.45"/>
</a>
</g>
</g>
<!-- Node4&#45;&gt;Node13 -->
<g id="edge14_Node000004_Node000013" class="edge">
<title>Node4&#45;&gt;Node13</title>
<g id="a_edge14_Node000004_Node000013"><a xlink:title=" ">
<path fill="none" stroke="#63b8ff" d="M287.7,-120.87C278.03,-111.88 262.66,-97.61 250.84,-86.64"/>
<polygon fill="#63b8ff" stroke="#63b8ff" points="253.04,-83.91 243.33,-79.67 248.28,-89.04 253.04,-83.91"/>
</a>
</g>
</g>
<!-- Node4&#45;&gt;Node14 -->
<g id="edge15_Node000004_Node000014" class="edge">
<title>Node4&#45;&gt;Node14</title>
<g id="a_edge15_Node000004_Node000014"><a xlink:title=" ">
<path fill="none" stroke="#63b8ff" d="M346.02,-122.03C410.17,-112.26 523.44,-95 600.32,-83.29"/>
<polygon fill="#63b8ff" stroke="#63b8ff" points="601.09,-86.71 610.45,-81.75 600.04,-79.79 601.09,-86.71"/>
</a>
</g>
</g>
<!-- Node5&#45;&gt;Node6 -->
<g id="edge5_Node000005_Node000006" class="edge">
<title>Node5&#45;&gt;Node6</title>
<g id="a_edge5_Node000005_Node000006"><a xlink:title=" ">
<path fill="none" stroke="#63b8ff" d="M127.82,-60.37C146.6,-50.73 177.2,-35.03 199.05,-23.81"/>
<polygon fill="#63b8ff" stroke="#63b8ff" points="200.81,-26.85 208.11,-19.17 197.61,-20.62 200.81,-26.85"/>
</a>
</g>
</g>
<!-- Node5&#45;&gt;Node7 -->
<g id="edge6_Node000005_Node000007" class="edge">
<title>Node5&#45;&gt;Node7</title>
<g id="a_edge6_Node000005_Node000007"><a xlink:title=" ">
<path fill="none" stroke="#63b8ff" d="M141.97,-60.49C182.07,-49.48 251.61,-30.38 292.14,-19.25"/>
<polygon fill="#63b8ff" stroke="#63b8ff" points="293.06,-22.63 301.78,-16.6 291.21,-15.88 293.06,-22.63"/>
</a>
</g>
</g>
<!-- Node8 -->
<g id="Node000008" class="node">
<title>Node8</title>
<g id="a_Node000008"><a xlink:title=" ">
<polygon fill="#e0e0e0" stroke="#999999" points="147.5,-19 74.5,-19 74.5,0 147.5,0 147.5,-19"/>
<text text-anchor="middle" x="111" y="-7" font-family="Helvetica,sans-Serif" font-size="10.00">string_view</text>
</a>
</g>
</g>
<!-- Node5&#45;&gt;Node8 -->
<g id="edge7_Node000005_Node000008" class="edge">
<title>Node5&#45;&gt;Node8</title>
<g id="a_edge7_Node000005_Node000008"><a xlink:title=" ">
<path fill="none" stroke="#63b8ff" d="M111,-60.37C111,-52.25 111,-39.81 111,-29.39"/>
<polygon fill="#63b8ff" stroke="#63b8ff" points="114.5,-29.17 111,-19.17 107.5,-29.17 114.5,-29.17"/>
</a>
</g>
</g>
<!-- Node19&#45;&gt;Node7 -->
<g id="edge36_Node000019_Node000007" class="edge">
<title>Node19&#45;&gt;Node7</title>
<g id="a_edge36_Node000019_Node000007"><a xlink:title=" ">
<path fill="none" stroke="#63b8ff" d="M928.12,-175.82C915.4,-147.21 882.37,-82.88 832,-55 749.88,-9.54 455.25,-8.86 356.51,-9.96"/>
<polygon fill="#63b8ff" stroke="#63b8ff" points="356.21,-6.47 346.26,-10.09 356.3,-13.47 356.21,-6.47"/>
</a>
</g>
</g>
</g>
</svg>

<g id="navigator" transform="translate(0 0)" fill="#404254">
  <rect fill="#f2f5e9" fill-opacity="0.5" stroke="#606060" stroke-width=".5" x="0" y="0" width="60" height="60"/>
  <use id="zoomplus" xlink:href="#zoomPlus" x="17" y="9" onmousedown="handleZoom(evt,'in')"/>
  <use id="zoomminus" xlink:href="#zoomMin" x="42" y="9" onmousedown="handleZoom(evt,'out')"/>
  <use id="reset" xlink:href="#resetDef" x="30" y="36" onmousedown="handleReset()"/>
   <use id="arrowup" xlink:href="#arrowUp" x="0" y="0" onmousedown="handlePan(0,-1)"/>
  <use id="arrowright" xlink:href="#arrowRight" x="0" y="0" onmousedown="handlePan(1,0)"/>
  <use id="arrowdown" xlink:href="#arrowDown" x="0" y="0" onmousedown="handlePan(0,1)"/>
  <use id="arrowleft" xlink:href="#arrowLeft" x="0" y="0" onmousedown="handlePan(-1,0)"/>
</g>
<svg viewBox="0 0 15 15" width="100%" height="30px" preserveAspectRatio="xMaxYMin meet">
 <g id="arrow_out" transform="scale(0.3 0.3)">
  <a xlink:href="gateway__server_8cpp__incl_org.svg" target="_base">
   <rect id="button" ry="5" rx="5" y="6" x="6" height="38" width="38"
        fill="#f2f5e9" fill-opacity="0.5" stroke="#606060" stroke-width="1.0"/>
   <path id="arrow"
     d="M 11.500037,31.436501 C 11.940474,20.09759 22.043105,11.32322 32.158766,21.979434 L 37.068811,17.246167 C 37.068811,17.246167 37.088388,32 37.088388,32 L 22.160133,31.978069 C 22.160133,31.978069 26.997745,27.140456 26.997745,27.140456 C 18.528582,18.264221 13.291696,25.230495 11.500037,31.436501 z"
     style="fill:#404040;"/>
  </a>
 </g>
</svg>

<style type='text/css'>
<![CDATA[
[data-mouse-over-selected='false'] { opacity: 0.7; }
[data-mouse-over-selected='true']  { opacity: 1.0; }
]]>
</style>
<script type="application/ecmascript"><![CDATA[
document.addEventListener('DOMContentLoaded', (event) => {
  highlightEdges();
  highlightAdjacentNodes();
});
]]></script>
</svg>
