<?xml version="1.0" encoding="UTF-8" standalone="no"?>
<!DOCTYPE svg PUBLIC "-//W3C//DTD SVG 1.1//EN"
 "http://www.w3.org/Graphics/SVG/1.1/DTD/svg11.dtd">
<!-- Generated by graphviz version 2.43.0 (0)
 -->
<!-- Title: src/gateway/protocol/header_serializer.cpp Pages: 1 -->
<svg width="884pt" height="280pt"
 viewBox="0.00 0.00 883.76 280.00" xmlns="http://www.w3.org/2000/svg" xmlns:xlink="http://www.w3.org/1999/xlink">
<g id="graph0" class="graph" transform="scale(1 1) rotate(0) translate(4 276)">
<title>src/gateway/protocol/header_serializer.cpp</title>
<!-- Node1 -->
<g id="Node000001" class="node">
<title>Node1</title>
<g id="a_Node000001"><a xlink:title="Implementation of message_header serialization.">
<polygon fill="#999999" stroke="#666666" points="645.5,-272 522.5,-272 522.5,-242 645.5,-242 645.5,-272"/>
<text text-anchor="start" x="530.5" y="-260" font-family="Helvetica,sans-Serif" font-size="10.00">src/gateway/protocol</text>
<text text-anchor="middle" x="584" y="-249" font-family="Helvetica,sans-Serif" font-size="10.00">/header_serializer.cpp</text>
</a>
</g>
</g>
<!-- Node2 -->
<g id="Node000002" class="node">
<title>Node2</title>
<g id="a_Node000002"><a xlink:href="serialization__helpers_8h.html" target="_top" xlink:title="Common serialization utilities for query protocol.">
<polygon fill="white" stroke="#666666" points="647.5,-206 520.5,-206 520.5,-187 647.5,-187 647.5,-206"/>
<text text-anchor="middle" x="584" y="-194" font-family="Helvetica,sans-Serif" font-size="10.00">serialization_helpers.h</text>
</a>
</g>
</g>
<!-- Node1&#45;&gt;Node2 -->
<g id="edge1_Node000001_Node000002" class="edge">
<title>Node1&#45;&gt;Node2</title>
<g id="a_edge1_Node000001_Node000002"><a xlink:title=" ">
<path fill="none" stroke="#63b8ff" d="M584,-241.84C584,-234.21 584,-224.7 584,-216.45"/>
<polygon fill="#63b8ff" stroke="#63b8ff" points="587.5,-216.27 584,-206.27 580.5,-216.27 587.5,-216.27"/>
</a>
</g>
</g>
<!-- Node3 -->
<g id="Node000003" class="node">
<title>Node3</title>
<g id="a_Node000003"><a xlink:title=" ">
<polygon fill="#e0e0e0" stroke="#999999" points="130,-151 0,-151 0,-121 130,-121 130,-151"/>
<text text-anchor="start" x="8" y="-139" font-family="Helvetica,sans-Serif" font-size="10.00">kcenon/common/config</text>
<text text-anchor="middle" x="65" y="-128" font-family="Helvetica,sans-Serif" font-size="10.00">/feature_flags.h</text>
</a>
</g>
</g>
<!-- Node2&#45;&gt;Node3 -->
<g id="edge2_Node000002_Node000003" class="edge">
<title>Node2&#45;&gt;Node3</title>
<g id="a_edge2_Node000002_Node000003"><a xlink:title=" ">
<path fill="none" stroke="#63b8ff" d="M520.43,-190.57C434.72,-183.58 277.46,-169.55 144,-151 142.72,-150.82 141.43,-150.64 140.13,-150.45"/>
<polygon fill="#63b8ff" stroke="#63b8ff" points="140.45,-146.96 130.04,-148.92 139.4,-153.88 140.45,-146.96"/>
</a>
</g>
</g>
<!-- Node4 -->
<g id="Node000004" class="node">
<title>Node4</title>
<g id="a_Node000004"><a xlink:title=" ">
<polygon fill="#e0e0e0" stroke="#999999" points="327.5,-85 186.5,-85 186.5,-55 327.5,-55 327.5,-85"/>
<text text-anchor="start" x="194.5" y="-73" font-family="Helvetica,sans-Serif" font-size="10.00">kcenon/common/patterns</text>
<text text-anchor="middle" x="257" y="-62" font-family="Helvetica,sans-Serif" font-size="10.00">/result.h</text>
</a>
</g>
</g>
<!-- Node2&#45;&gt;Node4 -->
<g id="edge3_Node000002_Node000004" class="edge">
<title>Node2&#45;&gt;Node4</title>
<g id="a_edge3_Node000002_Node000004"><a xlink:title=" ">
<path fill="none" stroke="#63b8ff" d="M556.55,-186.92C529.53,-178.33 487.16,-164.49 451,-151 397.98,-131.22 337.87,-105.99 298.8,-89.21"/>
<polygon fill="#63b8ff" stroke="#63b8ff" points="299.91,-85.87 289.34,-85.13 297.14,-92.3 299.91,-85.87"/>
</a>
</g>
</g>
<!-- Node5 -->
<g id="Node000005" class="node">
<title>Node5</title>
<g id="a_Node000005"><a xlink:href="query__protocol_8h.html" target="_top" xlink:title="Query protocol message structures for database gateway.">
<polygon fill="white" stroke="#666666" points="657,-151 511,-151 511,-121 657,-121 657,-151"/>
<text text-anchor="start" x="519" y="-139" font-family="Helvetica,sans-Serif" font-size="10.00">kcenon/database_server</text>
<text text-anchor="middle" x="584" y="-128" font-family="Helvetica,sans-Serif" font-size="10.00">/gateway/query_protocol.h</text>
</a>
</g>
</g>
<!-- Node2&#45;&gt;Node5 -->
<g id="edge4_Node000002_Node000005" class="edge">
<title>Node2&#45;&gt;Node5</title>
<g id="a_edge4_Node000002_Node000005"><a xlink:title=" ">
<path fill="none" stroke="#63b8ff" d="M584,-186.87C584,-180.11 584,-170.35 584,-161.26"/>
<polygon fill="#63b8ff" stroke="#63b8ff" points="587.5,-161.11 584,-151.11 580.5,-161.11 587.5,-161.11"/>
</a>
</g>
</g>
<!-- Node7 -->
<g id="Node000007" class="node">
<title>Node7</title>
<g id="a_Node000007"><a xlink:title=" ">
<polygon fill="#e0e0e0" stroke="#999999" points="444,-19 394,-19 394,0 444,0 444,-19"/>
<text text-anchor="middle" x="419" y="-7" font-family="Helvetica,sans-Serif" font-size="10.00">cstdint</text>
</a>
</g>
</g>
<!-- Node2&#45;&gt;Node7 -->
<g id="edge18_Node000002_Node000007" class="edge">
<title>Node2&#45;&gt;Node7</title>
<g id="a_edge18_Node000002_Node000007"><a xlink:title=" ">
<path fill="none" stroke="#63b8ff" d="M520.35,-187.92C416.21,-174.04 216.95,-140.7 177,-85 169.23,-74.17 168.47,-65.25 177,-55 202.85,-23.96 322.61,-14.49 383.4,-11.67"/>
<polygon fill="#63b8ff" stroke="#63b8ff" points="383.83,-15.15 393.67,-11.23 383.53,-8.16 383.83,-15.15"/>
</a>
</g>
</g>
<!-- Node8 -->
<g id="Node000008" class="node">
<title>Node8</title>
<g id="a_Node000008"><a xlink:title=" ">
<polygon fill="#e0e0e0" stroke="#999999" points="662,-19 618,-19 618,0 662,0 662,-19"/>
<text text-anchor="middle" x="640" y="-7" font-family="Helvetica,sans-Serif" font-size="10.00">string</text>
</a>
</g>
</g>
<!-- Node2&#45;&gt;Node8 -->
<g id="edge20_Node000002_Node000008" class="edge">
<title>Node2&#45;&gt;Node8</title>
<g id="a_edge20_Node000002_Node000008"><a xlink:title=" ">
<path fill="none" stroke="#63b8ff" d="M647.53,-192.83C717.62,-185.94 826.29,-162.56 870,-85 876.55,-73.38 878.49,-65.28 870,-55 845.32,-25.09 729.77,-15.05 672.43,-11.87"/>
<polygon fill="#63b8ff" stroke="#63b8ff" points="672.28,-8.36 662.11,-11.34 671.92,-15.35 672.28,-8.36"/>
</a>
</g>
</g>
<!-- Node10 -->
<g id="Node000010" class="node">
<title>Node10</title>
<g id="a_Node000010"><a xlink:title=" ">
<polygon fill="#e0e0e0" stroke="#999999" points="396,-79.5 346,-79.5 346,-60.5 396,-60.5 396,-79.5"/>
<text text-anchor="middle" x="371" y="-67.5" font-family="Helvetica,sans-Serif" font-size="10.00">chrono</text>
</a>
</g>
</g>
<!-- Node2&#45;&gt;Node10 -->
<g id="edge17_Node000002_Node000010" class="edge">
<title>Node2&#45;&gt;Node10</title>
<g id="a_edge17_Node000002_Node000010"><a xlink:title=" ">
<path fill="none" stroke="#63b8ff" d="M567.53,-186.88C550.87,-178.09 524.45,-163.94 502,-151 463.34,-128.72 419.21,-101.36 393.31,-85.1"/>
<polygon fill="#63b8ff" stroke="#63b8ff" points="394.96,-82 384.63,-79.64 391.23,-87.93 394.96,-82"/>
</a>
</g>
</g>
<!-- Node11 -->
<g id="Node000011" class="node">
<title>Node11</title>
<g id="a_Node000011"><a xlink:title=" ">
<polygon fill="#e0e0e0" stroke="#999999" points="726,-79.5 668,-79.5 668,-60.5 726,-60.5 726,-79.5"/>
<text text-anchor="middle" x="697" y="-67.5" font-family="Helvetica,sans-Serif" font-size="10.00">memory</text>
</a>
</g>
</g>
<!-- Node2&#45;&gt;Node11 -->
<g id="edge19_Node000002_Node000011" class="edge">
<title>Node2&#45;&gt;Node11</title>
<g id="a_edge19_Node000002_Node000011"><a xlink:title=" ">
<path fill="none" stroke="#63b8ff" d="M610.02,-186.86C627.9,-179.74 651.02,-168.02 666,-151 681.42,-133.48 689.57,-107.44 693.58,-89.87"/>
<polygon fill="#63b8ff" stroke="#63b8ff" points="697.08,-90.22 695.65,-79.72 690.23,-88.82 697.08,-90.22"/>
</a>
</g>
</g>
<!-- Node13 -->
<g id="Node000013" class="node">
<title>Node13</title>
<g id="a_Node000013"><a xlink:title=" ">
<polygon fill="#e0e0e0" stroke="#999999" points="795.5,-79.5 744.5,-79.5 744.5,-60.5 795.5,-60.5 795.5,-79.5"/>
<text text-anchor="middle" x="770" y="-67.5" font-family="Helvetica,sans-Serif" font-size="10.00">variant</text>
</a>
</g>
</g>
<!-- Node2&#45;&gt;Node13 -->
<g id="edge21_Node000002_Node000013" class="edge">
<title>Node2&#45;&gt;Node13</title>
<g id="a_edge21_Node000002_Node000013"><a xlink:title=" ">
<path fill="none" stroke="#63b8ff" d="M611.74,-186.97C633.78,-179.46 664.82,-167.19 689,-151 716.1,-132.86 741.91,-104.87 756.84,-87.26"/>
<polygon fill="#63b8ff" stroke="#63b8ff" points="759.56,-89.47 763.26,-79.54 754.17,-85 759.56,-89.47"/>
</a>
</g>
</g>
<!-- Node14 -->
<g id="Node000014" class="node">
<title>Node14</title>
<g id="a_Node000014"><a xlink:title=" ">
<polygon fill="#e0e0e0" stroke="#999999" points="860.5,-79.5 813.5,-79.5 813.5,-60.5 860.5,-60.5 860.5,-79.5"/>
<text text-anchor="middle" x="837" y="-67.5" font-family="Helvetica,sans-Serif" font-size="10.00">vector</text>
</a>
</g>
</g>
<!-- Node2&#45;&gt;Node14 -->
<g id="edge22_Node000002_Node000014" class="edge">
<title>Node2&#45;&gt;Node14</title>
<g id="a_edge22_Node000002_Node000014"><a xlink:title=" ">
<path fill="none" stroke="#63b8ff" d="M620.3,-186.95C648.81,-179.49 689.07,-167.31 722,-151 758.94,-132.7 797.38,-103.56 819.14,-85.96"/>
<polygon fill="#63b8ff" stroke="#63b8ff" points="821.36,-88.66 826.88,-79.61 816.93,-83.25 821.36,-88.66"/>
</a>
</g>
</g>
<!-- Node5&#45;&gt;Node4 -->
<g id="edge16_Node000005_Node000004" class="edge">
<title>Node5&#45;&gt;Node4</title>
<g id="a_edge16_Node000005_Node000004"><a xlink:title=" ">
<path fill="none" stroke="#63b8ff" d="M512.24,-120.95C460.75,-110.88 391.32,-97.29 337.88,-86.83"/>
<polygon fill="#63b8ff" stroke="#63b8ff" points="338.24,-83.33 327.75,-84.85 336.89,-90.2 338.24,-83.33"/>
</a>
</g>
</g>
<!-- Node6 -->
<g id="Node000006" class="node">
<title>Node6</title>
<g id="a_Node000006"><a xlink:href="query__types_8h.html" target="_top" xlink:title="Query protocol type definitions for database gateway.">
<polygon fill="white" stroke="#666666" points="538,-79.5 452,-79.5 452,-60.5 538,-60.5 538,-79.5"/>
<text text-anchor="middle" x="495" y="-67.5" font-family="Helvetica,sans-Serif" font-size="10.00">query_types.h</text>
</a>
</g>
</g>
<!-- Node5&#45;&gt;Node6 -->
<g id="edge5_Node000005_Node000006" class="edge">
<title>Node5&#45;&gt;Node6</title>
<g id="a_edge5_Node000005_Node000006"><a xlink:title=" ">
<path fill="none" stroke="#63b8ff" d="M564.25,-120.8C549.74,-110.37 530.1,-96.24 515.44,-85.69"/>
<polygon fill="#63b8ff" stroke="#63b8ff" points="517.2,-82.66 507.04,-79.66 513.12,-88.34 517.2,-82.66"/>
</a>
</g>
</g>
<!-- Node5&#45;&gt;Node7 -->
<g id="edge10_Node000005_Node000007" class="edge">
<title>Node5&#45;&gt;Node7</title>
<g id="a_edge10_Node000005_Node000007"><a xlink:title=" ">
<path fill="none" stroke="#63b8ff" d="M510.9,-122.68C486.57,-115.34 461.1,-103.63 443,-85 428.38,-69.95 422.67,-45.96 420.43,-29.29"/>
<polygon fill="#63b8ff" stroke="#63b8ff" points="423.89,-28.69 419.38,-19.11 416.93,-29.42 423.89,-28.69"/>
</a>
</g>
</g>
<!-- Node5&#45;&gt;Node8 -->
<g id="edge13_Node000005_Node000008" class="edge">
<title>Node5&#45;&gt;Node8</title>
<g id="a_edge13_Node000005_Node000008"><a xlink:title=" ">
<path fill="none" stroke="#63b8ff" d="M596.97,-120.66C604.95,-111.16 614.79,-98.07 621,-85 629.57,-66.95 634.61,-44.54 637.33,-29.04"/>
<polygon fill="#63b8ff" stroke="#63b8ff" points="640.79,-29.56 638.9,-19.13 633.87,-28.46 640.79,-29.56"/>
</a>
</g>
</g>
<!-- Node5&#45;&gt;Node10 -->
<g id="edge9_Node000005_Node000010" class="edge">
<title>Node5&#45;&gt;Node10</title>
<g id="a_edge9_Node000005_Node000010"><a xlink:title=" ">
<path fill="none" stroke="#63b8ff" d="M531.96,-121C497.24,-111.42 450.68,-98.13 410,-85 407.89,-84.32 405.72,-83.6 403.53,-82.86"/>
<polygon fill="#63b8ff" stroke="#63b8ff" points="404.61,-79.52 394.01,-79.54 402.3,-86.13 404.61,-79.52"/>
</a>
</g>
</g>
<!-- Node5&#45;&gt;Node11 -->
<g id="edge11_Node000005_Node000011" class="edge">
<title>Node5&#45;&gt;Node11</title>
<g id="a_edge11_Node000005_Node000011"><a xlink:title=" ">
<path fill="none" stroke="#63b8ff" d="M608.8,-120.95C627.92,-110.13 654.2,-95.24 673.09,-84.54"/>
<polygon fill="#63b8ff" stroke="#63b8ff" points="674.99,-87.49 681.96,-79.52 671.54,-81.4 674.99,-87.49"/>
</a>
</g>
</g>
<!-- Node12 -->
<g id="Node000012" class="node">
<title>Node12</title>
<g id="a_Node000012"><a xlink:title=" ">
<polygon fill="#e0e0e0" stroke="#999999" points="612,-79.5 556,-79.5 556,-60.5 612,-60.5 612,-79.5"/>
<text text-anchor="middle" x="584" y="-67.5" font-family="Helvetica,sans-Serif" font-size="10.00">optional</text>
</a>
</g>
</g>
<!-- Node5&#45;&gt;Node12 -->
<g id="edge12_Node000005_Node000012" class="edge">
<title>Node5&#45;&gt;Node12</title>
<g id="a_edge12_Node000005_Node000012"><a xlink:title=" ">
<path fill="none" stroke="#63b8ff" d="M584,-120.8C584,-111.7 584,-99.79 584,-89.9"/>
<polygon fill="#63b8ff" stroke="#63b8ff" points="587.5,-89.84 584,-79.84 580.5,-89.84 587.5,-89.84"/>
</a>
</g>
</g>
<!-- Node5&#45;&gt;Node13 -->
<g id="edge14_Node000005_Node000013" class="edge">
<title>Node5&#45;&gt;Node13</title>
<g id="a_edge14_Node000005_Node000013"><a xlink:title=" ">
<path fill="none" stroke="#63b8ff" d="M628.84,-120.94C659.01,-111.29 699.59,-97.93 735,-85 736.61,-84.41 738.25,-83.8 739.9,-83.17"/>
<polygon fill="#63b8ff" stroke="#63b8ff" points="741.3,-86.39 749.35,-79.5 738.76,-79.86 741.3,-86.39"/>
</a>
</g>
</g>
<!-- Node5&#45;&gt;Node14 -->
<g id="edge15_Node000005_Node000014" class="edge">
<title>Node5&#45;&gt;Node14</title>
<g id="a_edge15_Node000005_Node000014"><a xlink:title=" ">
<path fill="none" stroke="#63b8ff" d="M657.21,-121.76C700.43,-113.1 755.92,-100.53 804,-85 805.63,-84.47 807.29,-83.9 808.95,-83.29"/>
<polygon fill="#63b8ff" stroke="#63b8ff" points="810.35,-86.5 818.37,-79.58 807.78,-79.99 810.35,-86.5"/>
</a>
</g>
</g>
<!-- Node6&#45;&gt;Node7 -->
<g id="edge6_Node000006_Node000007" class="edge">
<title>Node6&#45;&gt;Node7</title>
<g id="a_edge6_Node000006_Node000007"><a xlink:title=" ">
<path fill="none" stroke="#63b8ff" d="M483.79,-60.37C471.89,-51.21 452.86,-36.56 438.49,-25.51"/>
<polygon fill="#63b8ff" stroke="#63b8ff" points="440.32,-22.49 430.26,-19.17 436.05,-28.04 440.32,-22.49"/>
</a>
</g>
</g>
<!-- Node6&#45;&gt;Node8 -->
<g id="edge7_Node000006_Node000008" class="edge">
<title>Node6&#45;&gt;Node8</title>
<g id="a_edge7_Node000006_Node000008"><a xlink:title=" ">
<path fill="none" stroke="#63b8ff" d="M516.08,-60.49C540.68,-50.57 581.53,-34.09 609.56,-22.78"/>
<polygon fill="#63b8ff" stroke="#63b8ff" points="610.93,-26 618.89,-19.02 608.31,-19.51 610.93,-26"/>
</a>
</g>
</g>
<!-- Node9 -->
<g id="Node000009" class="node">
<title>Node9</title>
<g id="a_Node000009"><a xlink:title=" ">
<polygon fill="#e0e0e0" stroke="#999999" points="535.5,-19 462.5,-19 462.5,0 535.5,0 535.5,-19"/>
<text text-anchor="middle" x="499" y="-7" font-family="Helvetica,sans-Serif" font-size="10.00">string_view</text>
</a>
</g>
</g>
<!-- Node6&#45;&gt;Node9 -->
<g id="edge8_Node000006_Node000009" class="edge">
<title>Node6&#45;&gt;Node9</title>
<g id="a_edge8_Node000006_Node000009"><a xlink:title=" ">
<path fill="none" stroke="#63b8ff" d="M495.59,-60.37C496.15,-52.25 497,-39.81 497.71,-29.39"/>
<polygon fill="#63b8ff" stroke="#63b8ff" points="501.22,-29.38 498.41,-19.17 494.23,-28.91 501.22,-29.38"/>
</a>
</g>
</g>
</g>
</svg>
