<?xml version="1.0" encoding="UTF-8" standalone="no"?>
<!DOCTYPE svg PUBLIC "-//W3C//DTD SVG 1.1//EN"
 "http://www.w3.org/Graphics/SVG/1.1/DTD/svg11.dtd">
<!-- Generated by graphviz version 2.43.0 (0)
 -->
<!-- Title: src/main.cpp Pages: 1 -->
<svg width="878pt" height="214pt"
 viewBox="0.00 0.00 878.00 214.00" xmlns="http://www.w3.org/2000/svg" xmlns:xlink="http://www.w3.org/1999/xlink">
<g id="graph0" class="graph" transform="scale(1 1) rotate(0) translate(4 210)">
<title>src/main.cpp</title>
<!-- Node1 -->
<g id="Node000001" class="node">
<title>Node1</title>
<g id="a_Node000001"><a xlink:title="Database server entry point.">
<polygon fill="#999999" stroke="#666666" points="779.5,-206 700.5,-206 700.5,-187 779.5,-187 779.5,-206"/>
<text text-anchor="middle" x="740" y="-194" font-family="Helvetica,sans-Serif" font-size="10.00">src/main.cpp</text>
</a>
</g>
</g>
<!-- Node2 -->
<g id="Node000002" class="node">
<title>Node2</title>
<g id="a_Node000002"><a xlink:href="server__app_8h.html" target="_top" xlink:title="Database server application interface.">
<polygon fill="white" stroke="#666666" points="399,-151 263,-151 263,-121 399,-121 399,-151"/>
<text text-anchor="start" x="271" y="-139" font-family="Helvetica,sans-Serif" font-size="10.00">kcenon/database_server</text>
<text text-anchor="middle" x="331" y="-128" font-family="Helvetica,sans-Serif" font-size="10.00">/server_app.h</text>
</a>
</g>
</g>
<!-- Node1&#45;&gt;Node2 -->
<g id="edge1_Node000001_Node000002" class="edge">
<title>Node1&#45;&gt;Node2</title>
<g id="a_edge1_Node000001_Node000002"><a xlink:title=" ">
<path fill="none" stroke="#63b8ff" d="M700.41,-189.84C633.4,-180.25 496.43,-160.66 409.42,-148.22"/>
<polygon fill="#63b8ff" stroke="#63b8ff" points="409.72,-144.72 399.32,-146.77 408.73,-151.65 409.72,-144.72"/>
</a>
</g>
</g>
<!-- Node6 -->
<g id="Node000006" class="node">
<title>Node6</title>
<g id="a_Node000006"><a xlink:title=" ">
<polygon fill="#e0e0e0" stroke="#999999" points="252,-19 208,-19 208,0 252,0 252,-19"/>
<text text-anchor="middle" x="230" y="-7" font-family="Helvetica,sans-Serif" font-size="10.00">string</text>
</a>
</g>
</g>
<!-- Node1&#45;&gt;Node6 -->
<g id="edge14_Node000001_Node000006" class="edge">
<title>Node1&#45;&gt;Node6</title>
<g id="a_edge14_Node000001_Node000006"><a xlink:title=" ">
<path fill="none" stroke="#63b8ff" d="M738.49,-186.78C733.45,-158.82 716.34,-72.19 695,-55 661.37,-27.91 361.82,-15.09 262.12,-11.55"/>
<polygon fill="#63b8ff" stroke="#63b8ff" points="262.15,-8.05 252.04,-11.2 261.91,-15.05 262.15,-8.05"/>
</a>
</g>
</g>
<!-- Node12 -->
<g id="Node000012" class="node">
<title>Node12</title>
<g id="a_Node000012"><a xlink:title=" ">
<polygon fill="#e0e0e0" stroke="#999999" points="792,-145.5 742,-145.5 742,-126.5 792,-126.5 792,-145.5"/>
<text text-anchor="middle" x="767" y="-133.5" font-family="Helvetica,sans-Serif" font-size="10.00">cstring</text>
</a>
</g>
</g>
<!-- Node1&#45;&gt;Node12 -->
<g id="edge12_Node000001_Node000012" class="edge">
<title>Node1&#45;&gt;Node12</title>
<g id="a_edge12_Node000001_Node000012"><a xlink:title=" ">
<path fill="none" stroke="#63b8ff" d="M743.98,-186.87C747.85,-178.49 753.84,-165.51 758.74,-154.89"/>
<polygon fill="#63b8ff" stroke="#63b8ff" points="761.99,-156.21 763,-145.67 755.63,-153.28 761.99,-156.21"/>
</a>
</g>
</g>
<!-- Node13 -->
<g id="Node000013" class="node">
<title>Node13</title>
<g id="a_Node000013"><a xlink:title=" ">
<polygon fill="#e0e0e0" stroke="#999999" points="870,-145.5 810,-145.5 810,-126.5 870,-126.5 870,-145.5"/>
<text text-anchor="middle" x="840" y="-133.5" font-family="Helvetica,sans-Serif" font-size="10.00">iostream</text>
</a>
</g>
</g>
<!-- Node1&#45;&gt;Node13 -->
<g id="edge13_Node000001_Node000013" class="edge">
<title>Node1&#45;&gt;Node13</title>
<g id="a_edge13_Node000001_Node000013"><a xlink:title=" ">
<path fill="none" stroke="#63b8ff" d="M754.76,-186.87C771,-177.36 797.35,-161.95 816.46,-150.77"/>
<polygon fill="#63b8ff" stroke="#63b8ff" points="818.32,-153.74 825.18,-145.67 814.79,-147.7 818.32,-153.74"/>
</a>
</g>
</g>
<!-- Node3 -->
<g id="Node000003" class="node">
<title>Node3</title>
<g id="a_Node000003"><a xlink:href="server__config_8h.html" target="_top" xlink:title="Server configuration structures.">
<polygon fill="white" stroke="#666666" points="177.5,-79.5 62.5,-79.5 62.5,-60.5 177.5,-60.5 177.5,-79.5"/>
<text text-anchor="middle" x="120" y="-67.5" font-family="Helvetica,sans-Serif" font-size="10.00">core/server_config.h</text>
</a>
</g>
</g>
<!-- Node2&#45;&gt;Node3 -->
<g id="edge2_Node000002_Node000003" class="edge">
<title>Node2&#45;&gt;Node3</title>
<g id="a_edge2_Node000002_Node000003"><a xlink:title=" ">
<path fill="none" stroke="#63b8ff" d="M284.7,-120.95C246.71,-109.43 193.6,-93.32 158.06,-82.54"/>
<polygon fill="#63b8ff" stroke="#63b8ff" points="158.67,-79.07 148.08,-79.52 156.63,-85.77 158.67,-79.07"/>
</a>
</g>
</g>
<!-- Node2&#45;&gt;Node6 -->
<g id="edge9_Node000002_Node000006" class="edge">
<title>Node2&#45;&gt;Node6</title>
<g id="a_edge9_Node000002_Node000006"><a xlink:title=" ">
<path fill="none" stroke="#63b8ff" d="M272.75,-120.96C254.27,-113.46 235.84,-102.1 225,-85 214.4,-68.28 218.23,-44.99 223.04,-28.92"/>
<polygon fill="#63b8ff" stroke="#63b8ff" points="226.47,-29.71 226.37,-19.12 219.84,-27.47 226.47,-29.71"/>
</a>
</g>
</g>
<!-- Node8 -->
<g id="Node000008" class="node">
<title>Node8</title>
<g id="a_Node000008"><a xlink:title=" ">
<polygon fill="#e0e0e0" stroke="#999999" points="284,-79.5 234,-79.5 234,-60.5 284,-60.5 284,-79.5"/>
<text text-anchor="middle" x="259" y="-67.5" font-family="Helvetica,sans-Serif" font-size="10.00">atomic</text>
</a>
</g>
</g>
<!-- Node2&#45;&gt;Node8 -->
<g id="edge7_Node000002_Node000008" class="edge">
<title>Node2&#45;&gt;Node8</title>
<g id="a_edge7_Node000002_Node000008"><a xlink:title=" ">
<path fill="none" stroke="#63b8ff" d="M315.02,-120.8C303.69,-110.72 288.47,-97.19 276.75,-86.78"/>
<polygon fill="#63b8ff" stroke="#63b8ff" points="278.75,-83.87 268.95,-79.84 274.1,-89.1 278.75,-83.87"/>
</a>
</g>
</g>
<!-- Node9 -->
<g id="Node000009" class="node">
<title>Node9</title>
<g id="a_Node000009"><a xlink:title=" ">
<polygon fill="#e0e0e0" stroke="#999999" points="360,-79.5 302,-79.5 302,-60.5 360,-60.5 360,-79.5"/>
<text text-anchor="middle" x="331" y="-67.5" font-family="Helvetica,sans-Serif" font-size="10.00">memory</text>
</a>
</g>
</g>
<!-- Node2&#45;&gt;Node9 -->
<g id="edge8_Node000002_Node000009" class="edge">
<title>Node2&#45;&gt;Node9</title>
<g id="a_edge8_Node000002_Node000009"><a xlink:title=" ">
<path fill="none" stroke="#63b8ff" d="M331,-120.8C331,-111.7 331,-99.79 331,-89.9"/>
<polygon fill="#63b8ff" stroke="#63b8ff" points="334.5,-89.84 331,-79.84 327.5,-89.84 334.5,-89.84"/>
</a>
</g>
</g>
<!-- Node10 -->
<g id="Node000010" class="node">
<title>Node10</title>
<g id="a_Node000010"><a xlink:title=" ">
<polygon fill="#e0e0e0" stroke="#999999" points="526.5,-85 377.5,-85 377.5,-55 526.5,-55 526.5,-85"/>
<text text-anchor="start" x="385.5" y="-73" font-family="Helvetica,sans-Serif" font-size="10.00">kcenon/common/interfaces</text>
<text text-anchor="middle" x="452" y="-62" font-family="Helvetica,sans-Serif" font-size="10.00">/executor_interface.h</text>
</a>
</g>
</g>
<!-- Node2&#45;&gt;Node10 -->
<g id="edge10_Node000002_Node000010" class="edge">
<title>Node2&#45;&gt;Node10</title>
<g id="a_edge10_Node000002_Node000010"><a xlink:title=" ">
<path fill="none" stroke="#63b8ff" d="M357.55,-120.95C374.89,-111.78 397.73,-99.71 416.6,-89.72"/>
<polygon fill="#63b8ff" stroke="#63b8ff" points="418.3,-92.78 425.51,-85.01 415.03,-86.59 418.3,-92.78"/>
</a>
</g>
</g>
<!-- Node11 -->
<g id="Node000011" class="node">
<title>Node11</title>
<g id="a_Node000011"><a xlink:title=" ">
<polygon fill="#e0e0e0" stroke="#999999" points="685.5,-85 544.5,-85 544.5,-55 685.5,-55 685.5,-85"/>
<text text-anchor="start" x="552.5" y="-73" font-family="Helvetica,sans-Serif" font-size="10.00">kcenon/common/patterns</text>
<text text-anchor="middle" x="615" y="-62" font-family="Helvetica,sans-Serif" font-size="10.00">/result.h</text>
</a>
</g>
</g>
<!-- Node2&#45;&gt;Node11 -->
<g id="edge11_Node000002_Node000011" class="edge">
<title>Node2&#45;&gt;Node11</title>
<g id="a_edge11_Node000002_Node000011"><a xlink:title=" ">
<path fill="none" stroke="#63b8ff" d="M393.33,-120.95C437.44,-111.01 496.72,-97.65 542.88,-87.25"/>
<polygon fill="#63b8ff" stroke="#63b8ff" points="543.83,-90.63 552.82,-85.01 542.3,-83.8 543.83,-90.63"/>
</a>
</g>
</g>
<!-- Node4 -->
<g id="Node000004" class="node">
<title>Node4</title>
<g id="a_Node000004"><a xlink:title=" ">
<polygon fill="#e0e0e0" stroke="#999999" points="50,-19 0,-19 0,0 50,0 50,-19"/>
<text text-anchor="middle" x="25" y="-7" font-family="Helvetica,sans-Serif" font-size="10.00">cstdint</text>
</a>
</g>
</g>
<!-- Node3&#45;&gt;Node4 -->
<g id="edge3_Node000003_Node000004" class="edge">
<title>Node3&#45;&gt;Node4</title>
<g id="a_edge3_Node000003_Node000004"><a xlink:title=" ">
<path fill="none" stroke="#63b8ff" d="M105.98,-60.37C90.69,-50.95 65.97,-35.73 47.86,-24.58"/>
<polygon fill="#63b8ff" stroke="#63b8ff" points="49.43,-21.43 39.08,-19.17 45.75,-27.39 49.43,-21.43"/>
</a>
</g>
</g>
<!-- Node5 -->
<g id="Node000005" class="node">
<title>Node5</title>
<g id="a_Node000005"><a xlink:title=" ">
<polygon fill="#e0e0e0" stroke="#999999" points="124,-19 68,-19 68,0 124,0 124,-19"/>
<text text-anchor="middle" x="96" y="-7" font-family="Helvetica,sans-Serif" font-size="10.00">optional</text>
</a>
</g>
</g>
<!-- Node3&#45;&gt;Node5 -->
<g id="edge4_Node000003_Node000005" class="edge">
<title>Node3&#45;&gt;Node5</title>
<g id="a_edge4_Node000003_Node000005"><a xlink:title=" ">
<path fill="none" stroke="#63b8ff" d="M116.46,-60.37C113.06,-52.07 107.81,-39.28 103.48,-28.72"/>
<polygon fill="#63b8ff" stroke="#63b8ff" points="106.59,-27.09 99.56,-19.17 100.11,-29.75 106.59,-27.09"/>
</a>
</g>
</g>
<!-- Node3&#45;&gt;Node6 -->
<g id="edge5_Node000003_Node000006" class="edge">
<title>Node3&#45;&gt;Node6</title>
<g id="a_edge5_Node000003_Node000006"><a xlink:title=" ">
<path fill="none" stroke="#63b8ff" d="M136.23,-60.37C154.27,-50.78 183.62,-35.17 204.68,-23.97"/>
<polygon fill="#63b8ff" stroke="#63b8ff" points="206.52,-26.95 213.7,-19.17 203.23,-20.77 206.52,-26.95"/>
</a>
</g>
</g>
<!-- Node7 -->
<g id="Node000007" class="node">
<title>Node7</title>
<g id="a_Node000007"><a xlink:title=" ">
<polygon fill="#e0e0e0" stroke="#999999" points="189.5,-19 142.5,-19 142.5,0 189.5,0 189.5,-19"/>
<text text-anchor="middle" x="166" y="-7" font-family="Helvetica,sans-Serif" font-size="10.00">vector</text>
</a>
</g>
</g>
<!-- Node3&#45;&gt;Node7 -->
<g id="edge6_Node000003_Node000007" class="edge">
<title>Node3&#45;&gt;Node7</title>
<g id="a_edge6_Node000003_Node000007"><a xlink:title=" ">
<path fill="none" stroke="#63b8ff" d="M126.79,-60.37C133.65,-51.64 144.43,-37.93 152.95,-27.09"/>
<polygon fill="#63b8ff" stroke="#63b8ff" points="155.75,-29.19 159.18,-19.17 150.25,-24.86 155.75,-29.19"/>
</a>
</g>
</g>
</g>
</svg>
