<?xml version="1.0" encoding="UTF-8" standalone="no"?>
<!DOCTYPE svg PUBLIC "-//W3C//DTD SVG 1.1//EN"
 "http://www.w3.org/Graphics/SVG/1.1/DTD/svg11.dtd">
<!-- Generated by graphviz version 2.43.0 (0)
 -->
<!-- Title: src/main.cpp Pages: 1 -->
<svg width="1045pt" height="214pt"
 viewBox="0.00 0.00 1045.00 214.00" xmlns="http://www.w3.org/2000/svg" xmlns:xlink="http://www.w3.org/1999/xlink">
<g id="graph0" class="graph" transform="scale(1 1) rotate(0) translate(4 210)">
<title>src/main.cpp</title>
<!-- Node1 -->
<g id="Node000001" class="node">
<title>Node1</title>
<g id="a_Node000001"><a xlink:title="Database server entry point.">
<polygon fill="#999999" stroke="#666666" points="946.5,-206 867.5,-206 867.5,-187 946.5,-187 946.5,-206"/>
<text text-anchor="middle" x="907" y="-194" font-family="Helvetica,sans-Serif" font-size="10.00">src/main.cpp</text>
</a>
</g>
</g>
<!-- Node2 -->
<g id="Node000002" class="node">
<title>Node2</title>
<g id="a_Node000002"><a xlink:href="server__app_8h.html" target="_top" xlink:title="Database server application interface.">
<polygon fill="white" stroke="#666666" points="460,-151 324,-151 324,-121 460,-121 460,-151"/>
<text text-anchor="start" x="332" y="-139" font-family="Helvetica,sans-Serif" font-size="10.00">kcenon/database_server</text>
<text text-anchor="middle" x="392" y="-128" font-family="Helvetica,sans-Serif" font-size="10.00">/server_app.h</text>
</a>
</g>
</g>
<!-- Node1&#45;&gt;Node2 -->
<g id="edge1_Node000001_Node000002" class="edge">
<title>Node1&#45;&gt;Node2</title>
<g id="a_edge1_Node000001_Node000002"><a xlink:title=" ">
<path fill="none" stroke="#63b8ff" d="M867.44,-191.01C782.71,-181.38 582.3,-158.62 470.63,-145.93"/>
<polygon fill="#63b8ff" stroke="#63b8ff" points="470.76,-142.42 460.43,-144.77 469.97,-149.38 470.76,-142.42"/>
</a>
</g>
</g>
<!-- Node6 -->
<g id="Node000006" class="node">
<title>Node6</title>
<g id="a_Node000006"><a xlink:title=" ">
<polygon fill="#e0e0e0" stroke="#999999" points="252,-19 208,-19 208,0 252,0 252,-19"/>
<text text-anchor="middle" x="230" y="-7" font-family="Helvetica,sans-Serif" font-size="10.00">string</text>
</a>
</g>
</g>
<!-- Node1&#45;&gt;Node6 -->
<g id="edge15_Node000001_Node000006" class="edge">
<title>Node1&#45;&gt;Node6</title>
<g id="a_edge15_Node000001_Node000006"><a xlink:title=" ">
<path fill="none" stroke="#63b8ff" d="M905.5,-186.76C900.52,-158.73 883.56,-71.92 862,-55 814.6,-17.79 385.26,-11.68 262.59,-10.69"/>
<polygon fill="#63b8ff" stroke="#63b8ff" points="262.37,-7.19 252.34,-10.61 262.32,-14.19 262.37,-7.19"/>
</a>
</g>
</g>
<!-- Node13 -->
<g id="Node000013" class="node">
<title>Node13</title>
<g id="a_Node000013"><a xlink:title=" ">
<polygon fill="#e0e0e0" stroke="#999999" points="959,-145.5 909,-145.5 909,-126.5 959,-126.5 959,-145.5"/>
<text text-anchor="middle" x="934" y="-133.5" font-family="Helvetica,sans-Serif" font-size="10.00">cstring</text>
</a>
</g>
</g>
<!-- Node1&#45;&gt;Node13 -->
<g id="edge13_Node000001_Node000013" class="edge">
<title>Node1&#45;&gt;Node13</title>
<g id="a_edge13_Node000001_Node000013"><a xlink:title=" ">
<path fill="none" stroke="#63b8ff" d="M910.98,-186.87C914.85,-178.49 920.84,-165.51 925.74,-154.89"/>
<polygon fill="#63b8ff" stroke="#63b8ff" points="928.99,-156.21 930,-145.67 922.63,-153.28 928.99,-156.21"/>
</a>
</g>
</g>
<!-- Node14 -->
<g id="Node000014" class="node">
<title>Node14</title>
<g id="a_Node000014"><a xlink:title=" ">
<polygon fill="#e0e0e0" stroke="#999999" points="1037,-145.5 977,-145.5 977,-126.5 1037,-126.5 1037,-145.5"/>
<text text-anchor="middle" x="1007" y="-133.5" font-family="Helvetica,sans-Serif" font-size="10.00">iostream</text>
</a>
</g>
</g>
<!-- Node1&#45;&gt;Node14 -->
<g id="edge14_Node000001_Node000014" class="edge">
<title>Node1&#45;&gt;Node14</title>
<g id="a_edge14_Node000001_Node000014"><a xlink:title=" ">
<path fill="none" stroke="#63b8ff" d="M921.76,-186.87C938,-177.36 964.35,-161.95 983.46,-150.77"/>
<polygon fill="#63b8ff" stroke="#63b8ff" points="985.32,-153.74 992.18,-145.67 981.79,-147.7 985.32,-153.74"/>
</a>
</g>
</g>
<!-- Node3 -->
<g id="Node000003" class="node">
<title>Node3</title>
<g id="a_Node000003"><a xlink:href="server__config_8h.html" target="_top" xlink:title="Server configuration structures.">
<polygon fill="white" stroke="#666666" points="177.5,-79.5 62.5,-79.5 62.5,-60.5 177.5,-60.5 177.5,-79.5"/>
<text text-anchor="middle" x="120" y="-67.5" font-family="Helvetica,sans-Serif" font-size="10.00">core/server_config.h</text>
</a>
</g>
</g>
<!-- Node2&#45;&gt;Node3 -->
<g id="edge2_Node000002_Node000003" class="edge">
<title>Node2&#45;&gt;Node3</title>
<g id="a_edge2_Node000002_Node000003"><a xlink:title=" ">
<path fill="none" stroke="#63b8ff" d="M332.31,-120.95C282.3,-109.19 211.93,-92.63 166.14,-81.86"/>
<polygon fill="#63b8ff" stroke="#63b8ff" points="166.73,-78.4 156.2,-79.52 165.13,-85.21 166.73,-78.4"/>
</a>
</g>
</g>
<!-- Node2&#45;&gt;Node6 -->
<g id="edge9_Node000002_Node000006" class="edge">
<title>Node2&#45;&gt;Node6</title>
<g id="a_edge9_Node000002_Node000006"><a xlink:title=" ">
<path fill="none" stroke="#63b8ff" d="M323.74,-133.02C288.26,-128.08 247.68,-115.47 225,-85 213.06,-68.96 217.32,-45.21 222.6,-28.86"/>
<polygon fill="#63b8ff" stroke="#63b8ff" points="225.93,-29.93 226.05,-19.34 219.35,-27.55 225.93,-29.93"/>
</a>
</g>
</g>
<!-- Node8 -->
<g id="Node000008" class="node">
<title>Node8</title>
<g id="a_Node000008"><a xlink:title=" ">
<polygon fill="#e0e0e0" stroke="#999999" points="284,-79.5 234,-79.5 234,-60.5 284,-60.5 284,-79.5"/>
<text text-anchor="middle" x="259" y="-67.5" font-family="Helvetica,sans-Serif" font-size="10.00">atomic</text>
</a>
</g>
</g>
<!-- Node2&#45;&gt;Node8 -->
<g id="edge7_Node000002_Node000008" class="edge">
<title>Node2&#45;&gt;Node8</title>
<g id="a_edge7_Node000002_Node000008"><a xlink:title=" ">
<path fill="none" stroke="#63b8ff" d="M362.81,-120.95C339.9,-109.93 308.25,-94.7 285.93,-83.96"/>
<polygon fill="#63b8ff" stroke="#63b8ff" points="287.23,-80.7 276.7,-79.52 284.19,-87.01 287.23,-80.7"/>
</a>
</g>
</g>
<!-- Node9 -->
<g id="Node000009" class="node">
<title>Node9</title>
<g id="a_Node000009"><a xlink:title=" ">
<polygon fill="#e0e0e0" stroke="#999999" points="360,-79.5 302,-79.5 302,-60.5 360,-60.5 360,-79.5"/>
<text text-anchor="middle" x="331" y="-67.5" font-family="Helvetica,sans-Serif" font-size="10.00">memory</text>
</a>
</g>
</g>
<!-- Node2&#45;&gt;Node9 -->
<g id="edge8_Node000002_Node000009" class="edge">
<title>Node2&#45;&gt;Node9</title>
<g id="a_edge8_Node000002_Node000009"><a xlink:title=" ">
<path fill="none" stroke="#63b8ff" d="M378.46,-120.8C368.95,-110.82 356.22,-97.46 346.33,-87.09"/>
<polygon fill="#63b8ff" stroke="#63b8ff" points="348.86,-84.67 339.43,-79.84 343.8,-89.5 348.86,-84.67"/>
</a>
</g>
</g>
<!-- Node10 -->
<g id="Node000010" class="node">
<title>Node10</title>
<g id="a_Node000010"><a xlink:title=" ">
<polygon fill="#e0e0e0" stroke="#999999" points="526.5,-85 377.5,-85 377.5,-55 526.5,-55 526.5,-85"/>
<text text-anchor="start" x="385.5" y="-73" font-family="Helvetica,sans-Serif" font-size="10.00">kcenon/common/interfaces</text>
<text text-anchor="middle" x="452" y="-62" font-family="Helvetica,sans-Serif" font-size="10.00">/executor_interface.h</text>
</a>
</g>
</g>
<!-- Node2&#45;&gt;Node10 -->
<g id="edge10_Node000002_Node000010" class="edge">
<title>Node2&#45;&gt;Node10</title>
<g id="a_edge10_Node000002_Node000010"><a xlink:title=" ">
<path fill="none" stroke="#63b8ff" d="M405.32,-120.8C413.08,-112.51 423.04,-101.89 431.76,-92.59"/>
<polygon fill="#63b8ff" stroke="#63b8ff" points="434.44,-94.85 438.72,-85.16 429.33,-90.07 434.44,-94.85"/>
</a>
</g>
</g>
<!-- Node11 -->
<g id="Node000011" class="node">
<title>Node11</title>
<g id="a_Node000011"><a xlink:title=" ">
<polygon fill="#e0e0e0" stroke="#999999" points="693.5,-85 544.5,-85 544.5,-55 693.5,-55 693.5,-85"/>
<text text-anchor="start" x="552.5" y="-73" font-family="Helvetica,sans-Serif" font-size="10.00">kcenon/common/interfaces</text>
<text text-anchor="middle" x="619" y="-62" font-family="Helvetica,sans-Serif" font-size="10.00">/logger_interface.h</text>
</a>
</g>
</g>
<!-- Node2&#45;&gt;Node11 -->
<g id="edge11_Node000002_Node000011" class="edge">
<title>Node2&#45;&gt;Node11</title>
<g id="a_edge11_Node000002_Node000011"><a xlink:title=" ">
<path fill="none" stroke="#63b8ff" d="M441.82,-120.95C476.41,-111.2 522.68,-98.16 559.26,-87.84"/>
<polygon fill="#63b8ff" stroke="#63b8ff" points="560.63,-91.09 569.3,-85.01 558.73,-84.36 560.63,-91.09"/>
</a>
</g>
</g>
<!-- Node12 -->
<g id="Node000012" class="node">
<title>Node12</title>
<g id="a_Node000012"><a xlink:title=" ">
<polygon fill="#e0e0e0" stroke="#999999" points="852.5,-85 711.5,-85 711.5,-55 852.5,-55 852.5,-85"/>
<text text-anchor="start" x="719.5" y="-73" font-family="Helvetica,sans-Serif" font-size="10.00">kcenon/common/patterns</text>
<text text-anchor="middle" x="782" y="-62" font-family="Helvetica,sans-Serif" font-size="10.00">/result.h</text>
</a>
</g>
</g>
<!-- Node2&#45;&gt;Node12 -->
<g id="edge12_Node000002_Node000012" class="edge">
<title>Node2&#45;&gt;Node12</title>
<g id="a_edge12_Node000002_Node000012"><a xlink:title=" ">
<path fill="none" stroke="#63b8ff" d="M460,-124.39C520.76,-114.83 612.5,-100.23 701.39,-85.26"/>
<polygon fill="#63b8ff" stroke="#63b8ff" points="702.1,-88.69 711.37,-83.57 700.93,-81.79 702.1,-88.69"/>
</a>
</g>
</g>
<!-- Node4 -->
<g id="Node000004" class="node">
<title>Node4</title>
<g id="a_Node000004"><a xlink:title=" ">
<polygon fill="#e0e0e0" stroke="#999999" points="50,-19 0,-19 0,0 50,0 50,-19"/>
<text text-anchor="middle" x="25" y="-7" font-family="Helvetica,sans-Serif" font-size="10.00">cstdint</text>
</a>
</g>
</g>
<!-- Node3&#45;&gt;Node4 -->
<g id="edge3_Node000003_Node000004" class="edge">
<title>Node3&#45;&gt;Node4</title>
<g id="a_edge3_Node000003_Node000004"><a xlink:title=" ">
<path fill="none" stroke="#63b8ff" d="M105.98,-60.37C90.69,-50.95 65.97,-35.73 47.86,-24.58"/>
<polygon fill="#63b8ff" stroke="#63b8ff" points="49.43,-21.43 39.08,-19.17 45.75,-27.39 49.43,-21.43"/>
</a>
</g>
</g>
<!-- Node5 -->
<g id="Node000005" class="node">
<title>Node5</title>
<g id="a_Node000005"><a xlink:title=" ">
<polygon fill="#e0e0e0" stroke="#999999" points="124,-19 68,-19 68,0 124,0 124,-19"/>
<text text-anchor="middle" x="96" y="-7" font-family="Helvetica,sans-Serif" font-size="10.00">optional</text>
</a>
</g>
</g>
<!-- Node3&#45;&gt;Node5 -->
<g id="edge4_Node000003_Node000005" class="edge">
<title>Node3&#45;&gt;Node5</title>
<g id="a_edge4_Node000003_Node000005"><a xlink:title=" ">
<path fill="none" stroke="#63b8ff" d="M116.46,-60.37C113.06,-52.07 107.81,-39.28 103.48,-28.72"/>
<polygon fill="#63b8ff" stroke="#63b8ff" points="106.59,-27.09 99.56,-19.17 100.11,-29.75 106.59,-27.09"/>
</a>
</g>
</g>
<!-- Node3&#45;&gt;Node6 -->
<g id="edge5_Node000003_Node000006" class="edge">
<title>Node3&#45;&gt;Node6</title>
<g id="a_edge5_Node000003_Node000006"><a xlink:title=" ">
<path fill="none" stroke="#63b8ff" d="M136.23,-60.37C154.27,-50.78 183.62,-35.17 204.68,-23.97"/>
<polygon fill="#63b8ff" stroke="#63b8ff" points="206.52,-26.95 213.7,-19.17 203.23,-20.77 206.52,-26.95"/>
</a>
</g>
</g>
<!-- Node7 -->
<g id="Node000007" class="node">
<title>Node7</title>
<g id="a_Node000007"><a xlink:title=" ">
<polygon fill="#e0e0e0" stroke="#999999" points="189.5,-19 142.5,-19 142.5,0 189.5,0 189.5,-19"/>
<text text-anchor="middle" x="166" y="-7" font-family="Helvetica,sans-Serif" font-size="10.00">vector</text>
</a>
</g>
</g>
<!-- Node3&#45;&gt;Node7 -->
<g id="edge6_Node000003_Node000007" class="edge">
<title>Node3&#45;&gt;Node7</title>
<g id="a_edge6_Node000003_Node000007"><a xlink:title=" ">
<path fill="none" stroke="#63b8ff" d="M126.79,-60.37C133.65,-51.64 144.43,-37.93 152.95,-27.09"/>
<polygon fill="#63b8ff" stroke="#63b8ff" points="155.75,-29.19 159.18,-19.17 150.25,-24.86 155.75,-29.19"/>
</a>
</g>
</g>
</g>
</svg>
