<?xml version="1.0" encoding="UTF-8" standalone="no"?>
<!DOCTYPE svg PUBLIC "-//W3C//DTD SVG 1.1//EN"
 "http://www.w3.org/Graphics/SVG/1.1/DTD/svg11.dtd">
<!-- Generated by graphviz version 2.43.0 (0)
 -->
<!-- Title: include/kcenon/database_server/pooling/pool_metrics.h Pages: 1 -->
<svg width="446pt" height="159pt"
 viewBox="0.00 0.00 446.00 159.00" xmlns="http://www.w3.org/2000/svg" xmlns:xlink="http://www.w3.org/1999/xlink">
<g id="graph0" class="graph" transform="scale(1 1) rotate(0) translate(4 155)">
<title>include/kcenon/database_server/pooling/pool_metrics.h</title>
<!-- Node1 -->
<g id="Node000001" class="node">
<title>Node1</title>
<g id="a_Node000001"><a xlink:title="Performance metrics for connection pools.">
<polygon fill="#999999" stroke="#666666" points="312.5,-151 145.5,-151 145.5,-121 312.5,-121 312.5,-151"/>
<text text-anchor="start" x="153.5" y="-139" font-family="Helvetica,sans-Serif" font-size="10.00">include/kcenon/database</text>
<text text-anchor="middle" x="229" y="-128" font-family="Helvetica,sans-Serif" font-size="10.00">_server/pooling/pool_metrics.h</text>
</a>
</g>
</g>
<!-- Node2 -->
<g id="Node000002" class="node">
<title>Node2</title>
<g id="a_Node000002"><a xlink:href="metrics__base_8h.html" target="_top" xlink:title="Common utilities for atomic metrics operations.">
<polygon fill="white" stroke="#666666" points="148,-85 46,-85 46,-55 148,-55 148,-85"/>
<text text-anchor="start" x="54" y="-73" font-family="Helvetica,sans-Serif" font-size="10.00">../metrics/metrics</text>
<text text-anchor="middle" x="97" y="-62" font-family="Helvetica,sans-Serif" font-size="10.00">_base.h</text>
</a>
</g>
</g>
<!-- Node1&#45;&gt;Node2 -->
<g id="edge1_Node000001_Node000002" class="edge">
<title>Node1&#45;&gt;Node2</title>
<g id="a_edge1_Node000001_Node000002"><a xlink:title=" ">
<path fill="none" stroke="#63b8ff" d="M200.03,-120.95C180.95,-111.7 155.75,-99.49 135.06,-89.45"/>
<polygon fill="#63b8ff" stroke="#63b8ff" points="136.43,-86.23 125.9,-85.01 133.37,-92.52 136.43,-86.23"/>
</a>
</g>
</g>
<!-- Node3 -->
<g id="Node000003" class="node">
<title>Node3</title>
<g id="a_Node000003"><a xlink:title=" ">
<polygon fill="#e0e0e0" stroke="#999999" points="50,-19 0,-19 0,0 50,0 50,-19"/>
<text text-anchor="middle" x="25" y="-7" font-family="Helvetica,sans-Serif" font-size="10.00">atomic</text>
</a>
</g>
</g>
<!-- Node1&#45;&gt;Node3 -->
<g id="edge5_Node000001_Node000003" class="edge">
<title>Node1&#45;&gt;Node3</title>
<g id="a_edge5_Node000001_Node000003"><a xlink:title=" ">
<path fill="none" stroke="#63b8ff" d="M145.42,-122.48C100.77,-114.05 51.97,-101.47 37,-85 23.39,-70.04 21.83,-46.03 22.74,-29.33"/>
<polygon fill="#63b8ff" stroke="#63b8ff" points="26.25,-29.4 23.64,-19.13 19.27,-28.78 26.25,-29.4"/>
</a>
</g>
</g>
<!-- Node4 -->
<g id="Node000004" class="node">
<title>Node4</title>
<g id="a_Node000004"><a xlink:title=" ">
<polygon fill="#e0e0e0" stroke="#999999" points="194,-19 144,-19 144,0 194,0 194,-19"/>
<text text-anchor="middle" x="169" y="-7" font-family="Helvetica,sans-Serif" font-size="10.00">cstdint</text>
</a>
</g>
</g>
<!-- Node1&#45;&gt;Node4 -->
<g id="edge7_Node000001_Node000004" class="edge">
<title>Node1&#45;&gt;Node4</title>
<g id="a_edge7_Node000001_Node000004"><a xlink:title=" ">
<path fill="none" stroke="#63b8ff" d="M217.82,-120.75C210.62,-111.07 201.42,-97.75 195,-85 185.78,-66.69 178.45,-44.32 173.96,-28.9"/>
<polygon fill="#63b8ff" stroke="#63b8ff" points="177.27,-27.74 171.2,-19.06 170.53,-29.63 177.27,-27.74"/>
</a>
</g>
</g>
<!-- Node6 -->
<g id="Node000006" class="node">
<title>Node6</title>
<g id="a_Node000006"><a xlink:title=" ">
<polygon fill="#e0e0e0" stroke="#999999" points="254,-79.5 204,-79.5 204,-60.5 254,-60.5 254,-79.5"/>
<text text-anchor="middle" x="229" y="-67.5" font-family="Helvetica,sans-Serif" font-size="10.00">chrono</text>
</a>
</g>
</g>
<!-- Node1&#45;&gt;Node6 -->
<g id="edge6_Node000001_Node000006" class="edge">
<title>Node1&#45;&gt;Node6</title>
<g id="a_edge6_Node000001_Node000006"><a xlink:title=" ">
<path fill="none" stroke="#63b8ff" d="M229,-120.8C229,-111.7 229,-99.79 229,-89.9"/>
<polygon fill="#63b8ff" stroke="#63b8ff" points="232.5,-89.84 229,-79.84 225.5,-89.84 232.5,-89.84"/>
</a>
</g>
</g>
<!-- Node7 -->
<g id="Node000007" class="node">
<title>Node7</title>
<g id="a_Node000007"><a xlink:title=" ">
<polygon fill="#e0e0e0" stroke="#999999" points="310,-79.5 272,-79.5 272,-60.5 310,-60.5 310,-79.5"/>
<text text-anchor="middle" x="291" y="-67.5" font-family="Helvetica,sans-Serif" font-size="10.00">map</text>
</a>
</g>
</g>
<!-- Node1&#45;&gt;Node7 -->
<g id="edge8_Node000001_Node000007" class="edge">
<title>Node1&#45;&gt;Node7</title>
<g id="a_edge8_Node000001_Node000007"><a xlink:title=" ">
<path fill="none" stroke="#63b8ff" d="M242.76,-120.8C252.43,-110.82 265.37,-97.46 275.42,-87.09"/>
<polygon fill="#63b8ff" stroke="#63b8ff" points="277.99,-89.46 282.43,-79.84 272.96,-84.59 277.99,-89.46"/>
</a>
</g>
</g>
<!-- Node8 -->
<g id="Node000008" class="node">
<title>Node8</title>
<g id="a_Node000008"><a xlink:title=" ">
<polygon fill="#e0e0e0" stroke="#999999" points="376,-79.5 328,-79.5 328,-60.5 376,-60.5 376,-79.5"/>
<text text-anchor="middle" x="352" y="-67.5" font-family="Helvetica,sans-Serif" font-size="10.00">mutex</text>
</a>
</g>
</g>
<!-- Node1&#45;&gt;Node8 -->
<g id="edge9_Node000001_Node000008" class="edge">
<title>Node1&#45;&gt;Node8</title>
<g id="a_edge9_Node000001_Node000008"><a xlink:title=" ">
<path fill="none" stroke="#63b8ff" d="M255.99,-120.95C276.99,-110.03 305.93,-94.97 326.53,-84.25"/>
<polygon fill="#63b8ff" stroke="#63b8ff" points="328.38,-87.24 335.63,-79.52 325.14,-81.03 328.38,-87.24"/>
</a>
</g>
</g>
<!-- Node9 -->
<g id="Node000009" class="node">
<title>Node9</title>
<g id="a_Node000009"><a xlink:title=" ">
<polygon fill="#e0e0e0" stroke="#999999" points="438,-79.5 394,-79.5 394,-60.5 438,-60.5 438,-79.5"/>
<text text-anchor="middle" x="416" y="-67.5" font-family="Helvetica,sans-Serif" font-size="10.00">string</text>
</a>
</g>
</g>
<!-- Node1&#45;&gt;Node9 -->
<g id="edge10_Node000001_Node000009" class="edge">
<title>Node1&#45;&gt;Node9</title>
<g id="a_edge10_Node000001_Node000009"><a xlink:title=" ">
<path fill="none" stroke="#63b8ff" d="M277.63,-120.97C308.66,-111.64 349.56,-98.63 385,-85 386.18,-84.55 387.38,-84.07 388.58,-83.58"/>
<polygon fill="#63b8ff" stroke="#63b8ff" points="389.97,-86.79 397.79,-79.64 387.22,-80.36 389.97,-86.79"/>
</a>
</g>
</g>
<!-- Node2&#45;&gt;Node3 -->
<g id="edge2_Node000002_Node000003" class="edge">
<title>Node2&#45;&gt;Node3</title>
<g id="a_edge2_Node000002_Node000003"><a xlink:title=" ">
<path fill="none" stroke="#63b8ff" d="M79.57,-54.84C68.69,-46 54.7,-34.63 43.61,-25.62"/>
<polygon fill="#63b8ff" stroke="#63b8ff" points="45.76,-22.86 35.79,-19.27 41.34,-28.29 45.76,-22.86"/>
</a>
</g>
</g>
<!-- Node2&#45;&gt;Node4 -->
<g id="edge3_Node000002_Node000004" class="edge">
<title>Node2&#45;&gt;Node4</title>
<g id="a_edge3_Node000002_Node000004"><a xlink:title=" ">
<path fill="none" stroke="#63b8ff" d="M114.43,-54.84C125.31,-46 139.3,-34.63 150.39,-25.62"/>
<polygon fill="#63b8ff" stroke="#63b8ff" points="152.66,-28.29 158.21,-19.27 148.24,-22.86 152.66,-28.29"/>
</a>
</g>
</g>
<!-- Node5 -->
<g id="Node000005" class="node">
<title>Node5</title>
<g id="a_Node000005"><a xlink:title=" ">
<polygon fill="#e0e0e0" stroke="#999999" points="119,-19 75,-19 75,0 119,0 119,-19"/>
<text text-anchor="middle" x="97" y="-7" font-family="Helvetica,sans-Serif" font-size="10.00">limits</text>
</a>
</g>
</g>
<!-- Node2&#45;&gt;Node5 -->
<g id="edge4_Node000002_Node000005" class="edge">
<title>Node2&#45;&gt;Node5</title>
<g id="a_edge4_Node000002_Node000005"><a xlink:title=" ">
<path fill="none" stroke="#63b8ff" d="M97,-54.84C97,-47.21 97,-37.7 97,-29.45"/>
<polygon fill="#63b8ff" stroke="#63b8ff" points="100.5,-29.27 97,-19.27 93.5,-29.27 100.5,-29.27"/>
</a>
</g>
</g>
</g>
</svg>
