<?xml version="1.0" encoding="UTF-8" standalone="no"?>
<!DOCTYPE svg PUBLIC "-//W3C//DTD SVG 1.1//EN"
 "http://www.w3.org/Graphics/SVG/1.1/DTD/svg11.dtd">
<!-- Generated by graphviz version 2.43.0 (0)
 -->
<!-- Title: src/metrics/query_metrics_collector.cpp Pages: 1 -->
<svg width="552pt" height="280pt"
 viewBox="0.00 0.00 551.50 280.00" xmlns="http://www.w3.org/2000/svg" xmlns:xlink="http://www.w3.org/1999/xlink">
<g id="graph0" class="graph" transform="scale(1 1) rotate(0) translate(4 276)">
<title>src/metrics/query_metrics_collector.cpp</title>
<!-- Node1 -->
<g id="Node000001" class="node">
<title>Node1</title>
<g id="a_Node000001"><a xlink:title=" ">
<polygon fill="#999999" stroke="#666666" points="503,-272 360,-272 360,-242 503,-242 503,-272"/>
<text text-anchor="start" x="368" y="-260" font-family="Helvetica,sans-Serif" font-size="10.00">src/metrics/query_metrics</text>
<text text-anchor="middle" x="431.5" y="-249" font-family="Helvetica,sans-Serif" font-size="10.00">_collector.cpp</text>
</a>
</g>
</g>
<!-- Node2 -->
<g id="Node000002" class="node">
<title>Node2</title>
<g id="a_Node000002"><a xlink:href="query__metrics__collector_8h.html" target="_top" xlink:title="CRTP&#45;based query metrics collector implementation.">
<polygon fill="white" stroke="#666666" points="348.5,-206 212.5,-206 212.5,-165 348.5,-165 348.5,-206"/>
<text text-anchor="start" x="220.5" y="-194" font-family="Helvetica,sans-Serif" font-size="10.00">kcenon/database_server</text>
<text text-anchor="start" x="220.5" y="-183" font-family="Helvetica,sans-Serif" font-size="10.00">/metrics/query_metrics</text>
<text text-anchor="middle" x="280.5" y="-172" font-family="Helvetica,sans-Serif" font-size="10.00">_collector.h</text>
</a>
</g>
</g>
<!-- Node1&#45;&gt;Node2 -->
<g id="edge1_Node000001_Node000002" class="edge">
<title>Node1&#45;&gt;Node2</title>
<g id="a_edge1_Node000001_Node000002"><a xlink:title=" ">
<path fill="none" stroke="#63b8ff" d="M400.94,-241.94C381.25,-232.87 355.14,-220.86 332.27,-210.33"/>
<polygon fill="#63b8ff" stroke="#63b8ff" points="333.57,-207.08 323.03,-206.07 330.65,-213.43 333.57,-207.08"/>
</a>
</g>
</g>
<!-- Node8 -->
<g id="Node000008" class="node">
<title>Node8</title>
<g id="a_Node000008"><a xlink:title=" ">
<polygon fill="#e0e0e0" stroke="#999999" points="411.5,-74 363.5,-74 363.5,-55 411.5,-55 411.5,-74"/>
<text text-anchor="middle" x="387.5" y="-62" font-family="Helvetica,sans-Serif" font-size="10.00">mutex</text>
</a>
</g>
</g>
<!-- Node1&#45;&gt;Node8 -->
<g id="edge18_Node000001_Node000008" class="edge">
<title>Node1&#45;&gt;Node8</title>
<g id="a_edge18_Node000001_Node000008"><a xlink:title=" ">
<path fill="none" stroke="#63b8ff" d="M435.17,-241.61C441.31,-214.58 451.25,-154.91 432.5,-110 427.64,-98.36 418.08,-88.2 409.02,-80.55"/>
<polygon fill="#63b8ff" stroke="#63b8ff" points="411.02,-77.67 400.99,-74.25 406.7,-83.17 411.02,-77.67"/>
</a>
</g>
</g>
<!-- Node11 -->
<g id="Node000011" class="node">
<title>Node11</title>
<g id="a_Node000011"><a xlink:title=" ">
<polygon fill="#e0e0e0" stroke="#999999" points="423.5,-129 365.5,-129 365.5,-110 423.5,-110 423.5,-129"/>
<text text-anchor="middle" x="394.5" y="-117" font-family="Helvetica,sans-Serif" font-size="10.00">memory</text>
</a>
</g>
</g>
<!-- Node1&#45;&gt;Node11 -->
<g id="edge17_Node000001_Node000011" class="edge">
<title>Node1&#45;&gt;Node11</title>
<g id="a_edge17_Node000001_Node000011"><a xlink:title=" ">
<path fill="none" stroke="#63b8ff" d="M427.61,-241.76C420.86,-217.03 406.98,-166.21 399.52,-138.87"/>
<polygon fill="#63b8ff" stroke="#63b8ff" points="402.84,-137.76 396.83,-129.03 396.09,-139.6 402.84,-137.76"/>
</a>
</g>
</g>
<!-- Node13 -->
<g id="Node000013" class="node">
<title>Node13</title>
<g id="a_Node000013"><a xlink:title=" ">
<polygon fill="#e0e0e0" stroke="#999999" points="543.5,-195 479.5,-195 479.5,-176 543.5,-176 543.5,-195"/>
<text text-anchor="middle" x="511.5" y="-183" font-family="Helvetica,sans-Serif" font-size="10.00">algorithm</text>
</a>
</g>
</g>
<!-- Node1&#45;&gt;Node13 -->
<g id="edge16_Node000001_Node000013" class="edge">
<title>Node1&#45;&gt;Node13</title>
<g id="a_edge16_Node000001_Node000013"><a xlink:title=" ">
<path fill="none" stroke="#63b8ff" d="M447.69,-241.94C461,-230.37 479.84,-214.01 493.59,-202.06"/>
<polygon fill="#63b8ff" stroke="#63b8ff" points="496.15,-204.47 501.41,-195.27 491.56,-199.18 496.15,-204.47"/>
</a>
</g>
</g>
<!-- Node3 -->
<g id="Node000003" class="node">
<title>Node3</title>
<g id="a_Node000003"><a xlink:href="query__collector__base_8h.html" target="_top" xlink:title="CRTP base class for query metrics collectors.">
<polygon fill="white" stroke="#666666" points="309,-129 180,-129 180,-110 309,-110 309,-129"/>
<text text-anchor="middle" x="244.5" y="-117" font-family="Helvetica,sans-Serif" font-size="10.00">query_collector_base.h</text>
</a>
</g>
</g>
<!-- Node2&#45;&gt;Node3 -->
<g id="edge2_Node000002_Node000003" class="edge">
<title>Node2&#45;&gt;Node3</title>
<g id="a_edge2_Node000002_Node000003"><a xlink:title=" ">
<path fill="none" stroke="#63b8ff" d="M269.5,-164.95C264.69,-156.39 259.08,-146.42 254.4,-138.1"/>
<polygon fill="#63b8ff" stroke="#63b8ff" points="257.38,-136.26 249.43,-129.26 251.28,-139.69 257.38,-136.26"/>
</a>
</g>
</g>
<!-- Node4 -->
<g id="Node000004" class="node">
<title>Node4</title>
<g id="a_Node000004"><a xlink:href="query__metrics_8h.html" target="_top" xlink:title="Metrics structures for query server performance monitoring.">
<polygon fill="white" stroke="#666666" points="95,-74 0,-74 0,-55 95,-55 95,-74"/>
<text text-anchor="middle" x="47.5" y="-62" font-family="Helvetica,sans-Serif" font-size="10.00">query_metrics.h</text>
</a>
</g>
</g>
<!-- Node2&#45;&gt;Node4 -->
<g id="edge12_Node000002_Node000004" class="edge">
<title>Node2&#45;&gt;Node4</title>
<g id="a_edge12_Node000002_Node000004"><a xlink:title=" ">
<path fill="none" stroke="#63b8ff" d="M212.34,-183.61C165.57,-179.39 105.19,-166.29 66.5,-129 54.47,-117.41 49.97,-98.54 48.34,-84.38"/>
<polygon fill="#63b8ff" stroke="#63b8ff" points="51.81,-83.95 47.55,-74.26 44.83,-84.5 51.81,-83.95"/>
</a>
</g>
</g>
<!-- Node2&#45;&gt;Node8 -->
<g id="edge14_Node000002_Node000008" class="edge">
<title>Node2&#45;&gt;Node8</title>
<g id="a_edge14_Node000002_Node000008"><a xlink:title=" ">
<path fill="none" stroke="#63b8ff" d="M298.17,-164.85C319.02,-141.65 353.33,-103.51 372.8,-81.85"/>
<polygon fill="#63b8ff" stroke="#63b8ff" points="375.62,-83.95 379.7,-74.18 370.41,-79.27 375.62,-83.95"/>
</a>
</g>
</g>
<!-- Node2&#45;&gt;Node11 -->
<g id="edge13_Node000002_Node000011" class="edge">
<title>Node2&#45;&gt;Node11</title>
<g id="a_edge13_Node000002_Node000011"><a xlink:title=" ">
<path fill="none" stroke="#63b8ff" d="M315.32,-164.95C333.17,-154.93 354.45,-142.99 370.45,-134"/>
<polygon fill="#63b8ff" stroke="#63b8ff" points="372.19,-137.04 379.2,-129.09 368.76,-130.94 372.19,-137.04"/>
</a>
</g>
</g>
<!-- Node12 -->
<g id="Node000012" class="node">
<title>Node12</title>
<g id="a_Node000012"><a xlink:title=" ">
<polygon fill="#e0e0e0" stroke="#999999" points="161.5,-129 75.5,-129 75.5,-110 161.5,-110 161.5,-129"/>
<text text-anchor="middle" x="118.5" y="-117" font-family="Helvetica,sans-Serif" font-size="10.00">shared_mutex</text>
</a>
</g>
</g>
<!-- Node2&#45;&gt;Node12 -->
<g id="edge15_Node000002_Node000012" class="edge">
<title>Node2&#45;&gt;Node12</title>
<g id="a_edge15_Node000002_Node000012"><a xlink:title=" ">
<path fill="none" stroke="#63b8ff" d="M231.01,-164.95C204.59,-154.51 172.87,-141.98 149.85,-132.88"/>
<polygon fill="#63b8ff" stroke="#63b8ff" points="150.83,-129.51 140.25,-129.09 148.26,-136.02 150.83,-129.51"/>
</a>
</g>
</g>
<!-- Node3&#45;&gt;Node4 -->
<g id="edge3_Node000003_Node000004" class="edge">
<title>Node3&#45;&gt;Node4</title>
<g id="a_edge3_Node000003_Node000004"><a xlink:title=" ">
<path fill="none" stroke="#63b8ff" d="M212.85,-109.98C179.34,-100.97 126.3,-86.7 89.36,-76.76"/>
<polygon fill="#63b8ff" stroke="#63b8ff" points="89.97,-73.3 79.4,-74.08 88.15,-80.06 89.97,-73.3"/>
</a>
</g>
</g>
<!-- Node5 -->
<g id="Node000005" class="node">
<title>Node5</title>
<g id="a_Node000005"><a xlink:title=" ">
<polygon fill="#e0e0e0" stroke="#999999" points="286.5,-19 236.5,-19 236.5,0 286.5,0 286.5,-19"/>
<text text-anchor="middle" x="261.5" y="-7" font-family="Helvetica,sans-Serif" font-size="10.00">atomic</text>
</a>
</g>
</g>
<!-- Node3&#45;&gt;Node5 -->
<g id="edge7_Node000003_Node000005" class="edge">
<title>Node3&#45;&gt;Node5</title>
<g id="a_edge7_Node000003_Node000005"><a xlink:title=" ">
<path fill="none" stroke="#63b8ff" d="M270.01,-109.9C286.19,-102.96 305.85,-91.44 315.5,-74 326.03,-54.98 305.61,-36.42 286.94,-24.33"/>
<polygon fill="#63b8ff" stroke="#63b8ff" points="288.69,-21.29 278.32,-19.09 285.05,-27.28 288.69,-21.29"/>
</a>
</g>
</g>
<!-- Node6 -->
<g id="Node000006" class="node">
<title>Node6</title>
<g id="a_Node000006"><a xlink:title=" ">
<polygon fill="#e0e0e0" stroke="#999999" points="144.5,-19 94.5,-19 94.5,0 144.5,0 144.5,-19"/>
<text text-anchor="middle" x="119.5" y="-7" font-family="Helvetica,sans-Serif" font-size="10.00">chrono</text>
</a>
</g>
</g>
<!-- Node3&#45;&gt;Node6 -->
<g id="edge8_Node000003_Node000006" class="edge">
<title>Node3&#45;&gt;Node6</title>
<g id="a_edge8_Node000003_Node000006"><a xlink:title=" ">
<path fill="none" stroke="#63b8ff" d="M206.69,-109.93C185.32,-103.33 159.55,-92.18 142.5,-74 130.85,-61.58 125.02,-42.83 122.15,-28.91"/>
<polygon fill="#63b8ff" stroke="#63b8ff" points="125.59,-28.26 120.43,-19.01 118.69,-29.46 125.59,-28.26"/>
</a>
</g>
</g>
<!-- Node3&#45;&gt;Node8 -->
<g id="edge9_Node000003_Node000008" class="edge">
<title>Node3&#45;&gt;Node8</title>
<g id="a_edge9_Node000003_Node000008"><a xlink:title=" ">
<path fill="none" stroke="#63b8ff" d="M267.48,-109.98C291,-101.27 327.79,-87.63 354.44,-77.75"/>
<polygon fill="#63b8ff" stroke="#63b8ff" points="355.95,-80.93 364.11,-74.17 353.51,-74.36 355.95,-80.93"/>
</a>
</g>
</g>
<!-- Node9 -->
<g id="Node000009" class="node">
<title>Node9</title>
<g id="a_Node000009"><a xlink:title=" ">
<polygon fill="#e0e0e0" stroke="#999999" points="195.5,-74 151.5,-74 151.5,-55 195.5,-55 195.5,-74"/>
<text text-anchor="middle" x="173.5" y="-62" font-family="Helvetica,sans-Serif" font-size="10.00">string</text>
</a>
</g>
</g>
<!-- Node3&#45;&gt;Node9 -->
<g id="edge10_Node000003_Node000009" class="edge">
<title>Node3&#45;&gt;Node9</title>
<g id="a_edge10_Node000003_Node000009"><a xlink:title=" ">
<path fill="none" stroke="#63b8ff" d="M233.09,-109.98C222.39,-102 206.16,-89.88 193.34,-80.31"/>
<polygon fill="#63b8ff" stroke="#63b8ff" points="195.22,-77.35 185.11,-74.17 191.03,-82.96 195.22,-77.35"/>
</a>
</g>
</g>
<!-- Node10 -->
<g id="Node000010" class="node">
<title>Node10</title>
<g id="a_Node000010"><a xlink:title=" ">
<polygon fill="#e0e0e0" stroke="#999999" points="307,-74 214,-74 214,-55 307,-55 307,-74"/>
<text text-anchor="middle" x="260.5" y="-62" font-family="Helvetica,sans-Serif" font-size="10.00">unordered_map</text>
</a>
</g>
</g>
<!-- Node3&#45;&gt;Node10 -->
<g id="edge11_Node000003_Node000010" class="edge">
<title>Node3&#45;&gt;Node10</title>
<g id="a_edge11_Node000003_Node000010"><a xlink:title=" ">
<path fill="none" stroke="#63b8ff" d="M247.14,-109.75C249.26,-102.72 252.31,-92.62 254.96,-83.84"/>
<polygon fill="#63b8ff" stroke="#63b8ff" points="258.37,-84.67 257.91,-74.09 251.67,-82.65 258.37,-84.67"/>
</a>
</g>
</g>
<!-- Node4&#45;&gt;Node5 -->
<g id="edge4_Node000004_Node000005" class="edge">
<title>Node4&#45;&gt;Node5</title>
<g id="a_edge4_Node000004_Node000005"><a xlink:title=" ">
<path fill="none" stroke="#63b8ff" d="M81.88,-54.98C121.55,-45.16 186.44,-29.09 226.41,-19.19"/>
<polygon fill="#63b8ff" stroke="#63b8ff" points="227.38,-22.56 236.25,-16.75 225.7,-15.76 227.38,-22.56"/>
</a>
</g>
</g>
<!-- Node4&#45;&gt;Node6 -->
<g id="edge5_Node000004_Node000006" class="edge">
<title>Node4&#45;&gt;Node6</title>
<g id="a_edge5_Node000004_Node000006"><a xlink:title=" ">
<path fill="none" stroke="#63b8ff" d="M59.07,-54.98C69.92,-47 86.38,-34.88 99.38,-25.31"/>
<polygon fill="#63b8ff" stroke="#63b8ff" points="101.74,-27.92 107.72,-19.17 97.59,-22.28 101.74,-27.92"/>
</a>
</g>
</g>
<!-- Node7 -->
<g id="Node000007" class="node">
<title>Node7</title>
<g id="a_Node000007"><a xlink:title=" ">
<polygon fill="#e0e0e0" stroke="#999999" points="72.5,-19 22.5,-19 22.5,0 72.5,0 72.5,-19"/>
<text text-anchor="middle" x="47.5" y="-7" font-family="Helvetica,sans-Serif" font-size="10.00">cstdint</text>
</a>
</g>
</g>
<!-- Node4&#45;&gt;Node7 -->
<g id="edge6_Node000004_Node000007" class="edge">
<title>Node4&#45;&gt;Node7</title>
<g id="a_edge6_Node000004_Node000007"><a xlink:title=" ">
<path fill="none" stroke="#63b8ff" d="M47.5,-54.75C47.5,-47.8 47.5,-37.85 47.5,-29.13"/>
<polygon fill="#63b8ff" stroke="#63b8ff" points="51,-29.09 47.5,-19.09 44,-29.09 51,-29.09"/>
</a>
</g>
</g>
</g>
</svg>
