<?xml version="1.0" encoding="UTF-8" standalone="no"?>
<!DOCTYPE svg PUBLIC "-//W3C//DTD SVG 1.1//EN"
 "http://www.w3.org/Graphics/SVG/1.1/DTD/svg11.dtd">
<!-- Generated by graphviz version 2.43.0 (0)
 -->
<!-- Title: include/kcenon/database_server/gateway/query_protocol.h Pages: 1 -->
<svg width="1534pt" height="335pt"
 viewBox="0.00 0.00 1534.41 335.00" xmlns="http://www.w3.org/2000/svg" xmlns:xlink="http://www.w3.org/1999/xlink">
<g id="graph0" class="graph" transform="scale(1 1) rotate(0) translate(4 331)">
<title>include/kcenon/database_server/gateway/query_protocol.h</title>
<!-- Node1 -->
<g id="Node000001" class="node">
<title>Node1</title>
<g id="a_Node000001"><a xlink:title="Query protocol message structures for database gateway.">
<polygon fill="#999999" stroke="#666666" points="513.41,-327 375.41,-327 375.41,-286 513.41,-286 513.41,-327"/>
<text text-anchor="start" x="383.41" y="-315" font-family="Helvetica,sans-Serif" font-size="10.00">include/kcenon/database</text>
<text text-anchor="start" x="383.41" y="-304" font-family="Helvetica,sans-Serif" font-size="10.00">_server/gateway/query</text>
<text text-anchor="middle" x="444.41" y="-293" font-family="Helvetica,sans-Serif" font-size="10.00">_protocol.h</text>
</a>
</g>
</g>
<!-- Node2 -->
<g id="Node000002" class="node">
<title>Node2</title>
<g id="a_Node000002"><a xlink:href="auth__middleware_8h.html" target="_top" xlink:title="Authentication middleware for database gateway.">
<polygon fill="white" stroke="#666666" points="745.41,-244.5 551.41,-244.5 551.41,-214.5 745.41,-214.5 745.41,-244.5"/>
<text text-anchor="start" x="559.41" y="-232.5" font-family="Helvetica,sans-Serif" font-size="10.00">include/kcenon/database</text>
<text text-anchor="middle" x="648.41" y="-221.5" font-family="Helvetica,sans-Serif" font-size="10.00">_server/gateway/auth_middleware.h</text>
</a>
</g>
</g>
<!-- Node1&#45;&gt;Node2 -->
<g id="edge1_Node000001_Node000002" class="edge">
<title>Node1&#45;&gt;Node2</title>
<g id="a_edge1_Node000001_Node000002"><a xlink:title=" ">
<path fill="none" stroke="#63b8ff" d="M507.23,-282.41C540.85,-270.05 581.18,-255.22 610.11,-244.58"/>
<polygon fill="#63b8ff" stroke="#63b8ff" points="505.66,-279.25 497.48,-285.99 508.07,-285.82 505.66,-279.25"/>
</a>
</g>
</g>
<!-- Node3 -->
<g id="Node000003" class="node">
<title>Node3</title>
<g id="a_Node000003"><a xlink:href="gateway__server_8h.html" target="_top" xlink:title="Database gateway TCP server.">
<polygon fill="white" stroke="#666666" points="571.91,-173 428.91,-173 428.91,-132 571.91,-132 571.91,-173"/>
<text text-anchor="start" x="436.91" y="-161" font-family="Helvetica,sans-Serif" font-size="10.00">include/kcenon/database</text>
<text text-anchor="start" x="436.91" y="-150" font-family="Helvetica,sans-Serif" font-size="10.00">_server/gateway/gateway</text>
<text text-anchor="middle" x="500.41" y="-139" font-family="Helvetica,sans-Serif" font-size="10.00">_server.h</text>
</a>
</g>
</g>
<!-- Node1&#45;&gt;Node3 -->
<g id="edge7_Node000001_Node000003" class="edge">
<title>Node1&#45;&gt;Node3</title>
<g id="a_edge7_Node000001_Node000003"><a xlink:title=" ">
<path fill="none" stroke="#63b8ff" d="M455.15,-276.37C466.27,-246.16 483.37,-199.76 493.06,-173.47"/>
<polygon fill="#63b8ff" stroke="#63b8ff" points="451.79,-275.35 451.62,-285.94 458.36,-277.77 451.79,-275.35"/>
</a>
</g>
</g>
<!-- Node7 -->
<g id="Node000007" class="node">
<title>Node7</title>
<g id="a_Node000007"><a xlink:href="query__cache_8h.html" target="_top" xlink:title="Query result cache with LRU eviction and TTL expiration.">
<polygon fill="white" stroke="#666666" points="260.41,-250 122.41,-250 122.41,-209 260.41,-209 260.41,-250"/>
<text text-anchor="start" x="130.41" y="-238" font-family="Helvetica,sans-Serif" font-size="10.00">include/kcenon/database</text>
<text text-anchor="start" x="130.41" y="-227" font-family="Helvetica,sans-Serif" font-size="10.00">_server/gateway/query</text>
<text text-anchor="middle" x="191.41" y="-216" font-family="Helvetica,sans-Serif" font-size="10.00">_cache.h</text>
</a>
</g>
</g>
<!-- Node1&#45;&gt;Node7 -->
<g id="edge8_Node000001_Node000007" class="edge">
<title>Node1&#45;&gt;Node7</title>
<g id="a_edge8_Node000001_Node000007"><a xlink:title=" ">
<path fill="none" stroke="#63b8ff" d="M368.78,-283.08C333.33,-272.57 291.48,-260.16 257.34,-250.04"/>
<polygon fill="#63b8ff" stroke="#63b8ff" points="368.02,-286.5 378.6,-285.99 370.01,-279.79 368.02,-286.5"/>
</a>
</g>
</g>
<!-- Node8 -->
<g id="Node000008" class="node">
<title>Node8</title>
<g id="a_Node000008"><a xlink:href="query__handlers_8h.html" target="_top" xlink:title="CRTP&#45;based query handlers for database gateway.">
<polygon fill="white" stroke="#666666" points="410.41,-173 272.41,-173 272.41,-132 410.41,-132 410.41,-173"/>
<text text-anchor="start" x="280.41" y="-161" font-family="Helvetica,sans-Serif" font-size="10.00">include/kcenon/database</text>
<text text-anchor="start" x="280.41" y="-150" font-family="Helvetica,sans-Serif" font-size="10.00">_server/gateway/query</text>
<text text-anchor="middle" x="341.41" y="-139" font-family="Helvetica,sans-Serif" font-size="10.00">_handlers.h</text>
</a>
</g>
</g>
<!-- Node1&#45;&gt;Node8 -->
<g id="edge19_Node000001_Node000008" class="edge">
<title>Node1&#45;&gt;Node8</title>
<g id="a_edge19_Node000001_Node000008"><a xlink:title=" ">
<path fill="none" stroke="#63b8ff" d="M444.39,-275.44C443.04,-255.15 438.55,-228.6 425.41,-209 415.39,-194.05 399.83,-182.14 384.82,-173.25"/>
<polygon fill="#63b8ff" stroke="#63b8ff" points="440.91,-275.86 444.85,-285.7 447.9,-275.55 440.91,-275.86"/>
</a>
</g>
</g>
<!-- Node9 -->
<g id="Node000009" class="node">
<title>Node9</title>
<g id="a_Node000009"><a xlink:href="query__router_8h.html" target="_top" xlink:title="Query router with load balancing for database gateway.">
<polygon fill="white" stroke="#666666" points="277.41,-96 139.41,-96 139.41,-55 277.41,-55 277.41,-96"/>
<text text-anchor="start" x="147.41" y="-84" font-family="Helvetica,sans-Serif" font-size="10.00">include/kcenon/database</text>
<text text-anchor="start" x="147.41" y="-73" font-family="Helvetica,sans-Serif" font-size="10.00">_server/gateway/query</text>
<text text-anchor="middle" x="208.41" y="-62" font-family="Helvetica,sans-Serif" font-size="10.00">_router.h</text>
</a>
</g>
</g>
<!-- Node1&#45;&gt;Node9 -->
<g id="edge20_Node000001_Node000009" class="edge">
<title>Node1&#45;&gt;Node9</title>
<g id="a_edge20_Node000001_Node000009"><a xlink:title=" ">
<path fill="none" stroke="#63b8ff" d="M364.96,-302.4C296.08,-297.35 194.93,-284.19 113.41,-250 59.72,-227.48 33.85,-224.88 7.41,-173 -0.86,-156.76 -3.62,-146.5 7.41,-132 23.56,-110.79 87.63,-95.62 139.16,-86.56"/>
<polygon fill="#63b8ff" stroke="#63b8ff" points="365.09,-305.91 375.31,-303.11 365.57,-298.93 365.09,-305.91"/>
</a>
</g>
</g>
<!-- Node13 -->
<g id="Node000013" class="node">
<title>Node13</title>
<g id="a_Node000013"><a xlink:href="query__handler__base_8h.html" target="_top" xlink:title="CRTP&#45;based query handler infrastructure for database gateway.">
<polygon fill="white" stroke="#666666" points="416.41,-250 278.41,-250 278.41,-209 416.41,-209 416.41,-250"/>
<text text-anchor="start" x="286.41" y="-238" font-family="Helvetica,sans-Serif" font-size="10.00">include/kcenon/database</text>
<text text-anchor="start" x="286.41" y="-227" font-family="Helvetica,sans-Serif" font-size="10.00">_server/gateway/query</text>
<text text-anchor="middle" x="347.41" y="-216" font-family="Helvetica,sans-Serif" font-size="10.00">_handler_base.h</text>
</a>
</g>
</g>
<!-- Node1&#45;&gt;Node13 -->
<g id="edge16_Node000001_Node000013" class="edge">
<title>Node1&#45;&gt;Node13</title>
<g id="a_edge16_Node000001_Node000013"><a xlink:title=" ">
<path fill="none" stroke="#63b8ff" d="M411.2,-279.82C398.65,-270.11 384.58,-259.24 372.86,-250.17"/>
<polygon fill="#63b8ff" stroke="#63b8ff" points="409.13,-282.64 419.18,-285.99 413.41,-277.1 409.13,-282.64"/>
</a>
</g>
</g>
<!-- Node14 -->
<g id="Node000014" class="node">
<title>Node14</title>
<g id="a_Node000014"><a xlink:href="serialization__helpers_8h.html" target="_top" xlink:title="Common serialization utilities for query protocol.">
<polygon fill="white" stroke="#666666" points="1176.41,-244.5 1046.41,-244.5 1046.41,-214.5 1176.41,-214.5 1176.41,-244.5"/>
<text text-anchor="start" x="1054.41" y="-232.5" font-family="Helvetica,sans-Serif" font-size="10.00">src/gateway/protocol</text>
<text text-anchor="middle" x="1111.41" y="-221.5" font-family="Helvetica,sans-Serif" font-size="10.00">/serialization_helpers.h</text>
</a>
</g>
</g>
<!-- Node1&#45;&gt;Node14 -->
<g id="edge21_Node000001_Node000014" class="edge">
<title>Node1&#45;&gt;Node14</title>
<g id="a_edge21_Node000001_Node000014"><a xlink:title=" ">
<path fill="none" stroke="#63b8ff" d="M523.72,-296.58C656.85,-281.61 922.75,-251.71 1045.96,-237.86"/>
<polygon fill="#63b8ff" stroke="#63b8ff" points="523.14,-293.13 513.6,-297.72 523.92,-300.08 523.14,-293.13"/>
</a>
</g>
</g>
<!-- Node2&#45;&gt;Node3 -->
<g id="edge2_Node000002_Node000003" class="edge">
<title>Node2&#45;&gt;Node3</title>
<g id="a_edge2_Node000002_Node000003"><a xlink:title=" ">
<path fill="none" stroke="#63b8ff" d="M611.51,-209.8C589.43,-198.61 561.4,-184.4 539.02,-173.06"/>
<polygon fill="#63b8ff" stroke="#63b8ff" points="610.07,-212.99 620.58,-214.39 613.24,-206.75 610.07,-212.99"/>
</a>
</g>
</g>
<!-- Node5 -->
<g id="Node000005" class="node">
<title>Node5</title>
<g id="a_Node000005"><a xlink:href="gateway__server_8cpp.html" target="_top" xlink:title=" ">
<polygon fill="white" stroke="#666666" points="754.91,-90.5 633.91,-90.5 633.91,-60.5 754.91,-60.5 754.91,-90.5"/>
<text text-anchor="start" x="641.91" y="-78.5" font-family="Helvetica,sans-Serif" font-size="10.00">src/gateway/gateway</text>
<text text-anchor="middle" x="694.41" y="-67.5" font-family="Helvetica,sans-Serif" font-size="10.00">_server.cpp</text>
</a>
</g>
</g>
<!-- Node2&#45;&gt;Node5 -->
<g id="edge6_Node000002_Node000005" class="edge">
<title>Node2&#45;&gt;Node5</title>
<g id="a_edge6_Node000002_Node000005"><a xlink:title=" ">
<path fill="none" stroke="#63b8ff" d="M733.48,-210.88C753.07,-202.66 771.6,-190.63 783.41,-173 793.56,-157.86 792.26,-147.93 783.41,-132 772.81,-112.89 752.59,-99.5 734.1,-90.67"/>
<polygon fill="#63b8ff" stroke="#63b8ff" points="732.19,-207.63 724.12,-214.5 734.71,-214.15 732.19,-207.63"/>
</a>
</g>
</g>
<!-- Node6 -->
<g id="Node000006" class="node">
<title>Node6</title>
<g id="a_Node000006"><a xlink:href="auth__middleware_8cpp.html" target="_top" xlink:title=" ">
<polygon fill="white" stroke="#666666" points="774.41,-162 590.41,-162 590.41,-143 774.41,-143 774.41,-162"/>
<text text-anchor="middle" x="682.41" y="-150" font-family="Helvetica,sans-Serif" font-size="10.00">src/gateway/auth_middleware.cpp</text>
</a>
</g>
</g>
<!-- Node2&#45;&gt;Node6 -->
<g id="edge5_Node000002_Node000006" class="edge">
<title>Node2&#45;&gt;Node6</title>
<g id="a_edge5_Node000002_Node000006"><a xlink:title=" ">
<path fill="none" stroke="#63b8ff" d="M659.06,-205.02C665.62,-190.54 673.66,-172.81 678.39,-162.37"/>
<polygon fill="#63b8ff" stroke="#63b8ff" points="655.75,-203.84 654.81,-214.39 662.13,-206.73 655.75,-203.84"/>
</a>
</g>
</g>
<!-- Node4 -->
<g id="Node000004" class="node">
<title>Node4</title>
<g id="a_Node000004"><a xlink:href="server__app_8cpp.html" target="_top" xlink:title=" ">
<polygon fill="white" stroke="#666666" points="501.41,-19 369.41,-19 369.41,0 501.41,0 501.41,-19"/>
<text text-anchor="middle" x="435.41" y="-7" font-family="Helvetica,sans-Serif" font-size="10.00">src/core/server_app.cpp</text>
</a>
</g>
</g>
<!-- Node3&#45;&gt;Node4 -->
<g id="edge3_Node000003_Node000004" class="edge">
<title>Node3&#45;&gt;Node4</title>
<g id="a_edge3_Node000003_Node000004"><a xlink:title=" ">
<path fill="none" stroke="#63b8ff" d="M497.86,-121.89C495.16,-102.01 489.65,-75.75 478.41,-55 470.54,-40.45 456.58,-27.3 446.7,-19.13"/>
<polygon fill="#63b8ff" stroke="#63b8ff" points="494.39,-122.41 499.05,-131.92 501.34,-121.58 494.39,-122.41"/>
</a>
</g>
</g>
<!-- Node3&#45;&gt;Node5 -->
<g id="edge4_Node000003_Node000005" class="edge">
<title>Node3&#45;&gt;Node5</title>
<g id="a_edge4_Node000003_Node000005"><a xlink:title=" ">
<path fill="none" stroke="#63b8ff" d="M560.56,-128.25C592.45,-115.92 630.59,-101.17 657.99,-90.58"/>
<polygon fill="#63b8ff" stroke="#63b8ff" points="558.94,-125.12 550.88,-131.99 561.47,-131.65 558.94,-125.12"/>
</a>
</g>
</g>
<!-- Node7&#45;&gt;Node8 -->
<g id="edge9_Node000007_Node000008" class="edge">
<title>Node7&#45;&gt;Node8</title>
<g id="a_edge9_Node000007_Node000008"><a xlink:title=" ">
<path fill="none" stroke="#63b8ff" d="M239.52,-204.45C259.81,-194.3 283.13,-182.64 302.33,-173.04"/>
<polygon fill="#63b8ff" stroke="#63b8ff" points="237.81,-201.39 230.43,-208.99 240.94,-207.65 237.81,-201.39"/>
</a>
</g>
</g>
<!-- Node7&#45;&gt;Node9 -->
<g id="edge14_Node000007_Node000009" class="edge">
<title>Node7&#45;&gt;Node9</title>
<g id="a_edge14_Node000007_Node000009"><a xlink:title=" ">
<path fill="none" stroke="#63b8ff" d="M194.72,-198.98C198.1,-168.76 203.25,-122.64 206.18,-96.47"/>
<polygon fill="#63b8ff" stroke="#63b8ff" points="191.24,-198.61 193.6,-208.94 198.19,-199.39 191.24,-198.61"/>
</a>
</g>
</g>
<!-- Node12 -->
<g id="Node000012" class="node">
<title>Node12</title>
<g id="a_Node000012"><a xlink:href="query__cache_8cpp.html" target="_top" xlink:title=" ">
<polygon fill="white" stroke="#666666" points="177.91,-162 16.91,-162 16.91,-143 177.91,-143 177.91,-162"/>
<text text-anchor="middle" x="97.41" y="-150" font-family="Helvetica,sans-Serif" font-size="10.00">src/gateway/query_cache.cpp</text>
</a>
</g>
</g>
<!-- Node7&#45;&gt;Node12 -->
<g id="edge15_Node000007_Node000012" class="edge">
<title>Node7&#45;&gt;Node12</title>
<g id="a_edge15_Node000007_Node000012"><a xlink:title=" ">
<path fill="none" stroke="#63b8ff" d="M158.88,-202.54C141.28,-188.5 120.69,-172.07 108.36,-162.24"/>
<polygon fill="#63b8ff" stroke="#63b8ff" points="156.72,-205.29 166.72,-208.79 161.08,-199.82 156.72,-205.29"/>
</a>
</g>
</g>
<!-- Node8&#45;&gt;Node9 -->
<g id="edge10_Node000008_Node000009" class="edge">
<title>Node8&#45;&gt;Node9</title>
<g id="a_edge10_Node000008_Node000009"><a xlink:title=" ">
<path fill="none" stroke="#63b8ff" d="M297.82,-126.92C280.14,-116.95 259.99,-105.58 243.3,-96.17"/>
<polygon fill="#63b8ff" stroke="#63b8ff" points="296.39,-130.13 306.82,-131.99 299.83,-124.03 296.39,-130.13"/>
</a>
</g>
</g>
<!-- Node11 -->
<g id="Node000011" class="node">
<title>Node11</title>
<g id="a_Node000011"><a xlink:href="query__handlers_8cpp.html" target="_top" xlink:title=" ">
<polygon fill="white" stroke="#666666" points="469.41,-85 295.41,-85 295.41,-66 469.41,-66 469.41,-85"/>
<text text-anchor="middle" x="382.41" y="-73" font-family="Helvetica,sans-Serif" font-size="10.00">src/gateway/query_handlers.cpp</text>
</a>
</g>
</g>
<!-- Node8&#45;&gt;Node11 -->
<g id="edge13_Node000008_Node000011" class="edge">
<title>Node8&#45;&gt;Node11</title>
<g id="a_edge13_Node000008_Node000011"><a xlink:title=" ">
<path fill="none" stroke="#63b8ff" d="M357.07,-122.86C364.4,-109.46 372.6,-94.45 377.64,-85.24"/>
<polygon fill="#63b8ff" stroke="#63b8ff" points="353.91,-121.34 352.19,-131.79 360.05,-124.7 353.91,-121.34"/>
</a>
</g>
</g>
<!-- Node9&#45;&gt;Node4 -->
<g id="edge11_Node000009_Node000004" class="edge">
<title>Node9&#45;&gt;Node4</title>
<g id="a_edge11_Node000009_Node000004"><a xlink:title=" ">
<path fill="none" stroke="#63b8ff" d="M287.1,-52.32C327.8,-40.84 375.11,-27.5 405.15,-19.03"/>
<polygon fill="#63b8ff" stroke="#63b8ff" points="286.12,-48.95 277.45,-55.04 288.02,-55.69 286.12,-48.95"/>
</a>
</g>
</g>
<!-- Node10 -->
<g id="Node000010" class="node">
<title>Node10</title>
<g id="a_Node000010"><a xlink:href="query__router_8cpp.html" target="_top" xlink:title=" ">
<polygon fill="white" stroke="#666666" points="288.91,-19 127.91,-19 127.91,0 288.91,0 288.91,-19"/>
<text text-anchor="middle" x="208.41" y="-7" font-family="Helvetica,sans-Serif" font-size="10.00">src/gateway/query_router.cpp</text>
</a>
</g>
</g>
<!-- Node9&#45;&gt;Node10 -->
<g id="edge12_Node000009_Node000010" class="edge">
<title>Node9&#45;&gt;Node10</title>
<g id="a_edge12_Node000009_Node000010"><a xlink:title=" ">
<path fill="none" stroke="#63b8ff" d="M208.41,-44.74C208.41,-35.45 208.41,-25.9 208.41,-19.26"/>
<polygon fill="#63b8ff" stroke="#63b8ff" points="204.91,-44.95 208.41,-54.95 211.91,-44.95 204.91,-44.95"/>
</a>
</g>
</g>
<!-- Node13&#45;&gt;Node8 -->
<g id="edge17_Node000013_Node000008" class="edge">
<title>Node13&#45;&gt;Node8</title>
<g id="a_edge17_Node000013_Node000008"><a xlink:title=" ">
<path fill="none" stroke="#63b8ff" d="M345.03,-198.69C344.34,-190.08 343.61,-180.9 342.98,-173.07"/>
<polygon fill="#63b8ff" stroke="#63b8ff" points="341.55,-199.11 345.84,-208.79 348.53,-198.55 341.55,-199.11"/>
</a>
</g>
</g>
<!-- Node13&#45;&gt;Node9 -->
<g id="edge18_Node000013_Node000009" class="edge">
<title>Node13&#45;&gt;Node9</title>
<g id="a_edge18_Node000013_Node000009"><a xlink:title=" ">
<path fill="none" stroke="#63b8ff" d="M301.28,-203.54C288.06,-194.99 274.29,-184.62 263.41,-173 241.93,-150.05 225.51,-117.21 216.41,-96.37"/>
<polygon fill="#63b8ff" stroke="#63b8ff" points="299.52,-206.57 309.86,-208.89 303.22,-200.62 299.52,-206.57"/>
</a>
</g>
</g>
<!-- Node15 -->
<g id="Node000015" class="node">
<title>Node15</title>
<g id="a_Node000015"><a xlink:href="auth__serializer_8cpp.html" target="_top" xlink:title="Implementation of auth_token serialization.">
<polygon fill="white" stroke="#666666" points="1101.91,-167.5 982.91,-167.5 982.91,-137.5 1101.91,-137.5 1101.91,-167.5"/>
<text text-anchor="start" x="990.91" y="-155.5" font-family="Helvetica,sans-Serif" font-size="10.00">src/gateway/protocol</text>
<text text-anchor="middle" x="1042.41" y="-144.5" font-family="Helvetica,sans-Serif" font-size="10.00">/auth_serializer.cpp</text>
</a>
</g>
</g>
<!-- Node14&#45;&gt;Node15 -->
<g id="edge22_Node000014_Node000015" class="edge">
<title>Node14&#45;&gt;Node15</title>
<g id="a_edge22_Node000014_Node000015"><a xlink:title=" ">
<path fill="none" stroke="#63b8ff" d="M1091.6,-206.96C1079.94,-194.29 1065.53,-178.63 1055.33,-167.54"/>
<polygon fill="#63b8ff" stroke="#63b8ff" points="1089.09,-209.4 1098.44,-214.39 1094.24,-204.66 1089.09,-209.4"/>
</a>
</g>
</g>
<!-- Node16 -->
<g id="Node000016" class="node">
<title>Node16</title>
<g id="a_Node000016"><a xlink:href="header__serializer_8cpp.html" target="_top" xlink:title="Implementation of message_header serialization.">
<polygon fill="white" stroke="#666666" points="1242.91,-167.5 1119.91,-167.5 1119.91,-137.5 1242.91,-137.5 1242.91,-167.5"/>
<text text-anchor="start" x="1127.91" y="-155.5" font-family="Helvetica,sans-Serif" font-size="10.00">src/gateway/protocol</text>
<text text-anchor="middle" x="1181.41" y="-144.5" font-family="Helvetica,sans-Serif" font-size="10.00">/header_serializer.cpp</text>
</a>
</g>
</g>
<!-- Node14&#45;&gt;Node16 -->
<g id="edge23_Node000014_Node000016" class="edge">
<title>Node14&#45;&gt;Node16</title>
<g id="a_edge23_Node000014_Node000016"><a xlink:title=" ">
<path fill="none" stroke="#63b8ff" d="M1131.52,-206.96C1143.35,-194.29 1157.96,-178.63 1168.31,-167.54"/>
<polygon fill="#63b8ff" stroke="#63b8ff" points="1128.85,-204.69 1124.58,-214.39 1133.96,-209.47 1128.85,-204.69"/>
</a>
</g>
</g>
<!-- Node17 -->
<g id="Node000017" class="node">
<title>Node17</title>
<g id="a_Node000017"><a xlink:href="param__serializer_8cpp.html" target="_top" xlink:title="Implementation of query_param serialization.">
<polygon fill="white" stroke="#666666" points="1381.91,-167.5 1260.91,-167.5 1260.91,-137.5 1381.91,-137.5 1381.91,-167.5"/>
<text text-anchor="start" x="1268.91" y="-155.5" font-family="Helvetica,sans-Serif" font-size="10.00">src/gateway/protocol</text>
<text text-anchor="middle" x="1321.41" y="-144.5" font-family="Helvetica,sans-Serif" font-size="10.00">/param_serializer.cpp</text>
</a>
</g>
</g>
<!-- Node14&#45;&gt;Node17 -->
<g id="edge24_Node000014_Node000017" class="edge">
<title>Node14&#45;&gt;Node17</title>
<g id="a_edge24_Node000014_Node000017"><a xlink:title=" ">
<path fill="none" stroke="#63b8ff" d="M1160.51,-210.97C1197.54,-197.74 1247.68,-179.83 1282.09,-167.54"/>
<polygon fill="#63b8ff" stroke="#63b8ff" points="1159.15,-207.73 1150.91,-214.39 1161.51,-214.33 1159.15,-207.73"/>
</a>
</g>
</g>
<!-- Node18 -->
<g id="Node000018" class="node">
<title>Node18</title>
<g id="a_Node000018"><a xlink:href="request__serializer_8cpp.html" target="_top" xlink:title="Implementation of query_request serialization.">
<polygon fill="white" stroke="#666666" points="1526.41,-167.5 1400.41,-167.5 1400.41,-137.5 1526.41,-137.5 1526.41,-167.5"/>
<text text-anchor="start" x="1408.41" y="-155.5" font-family="Helvetica,sans-Serif" font-size="10.00">src/gateway/protocol</text>
<text text-anchor="middle" x="1463.41" y="-144.5" font-family="Helvetica,sans-Serif" font-size="10.00">/request_serializer.cpp</text>
</a>
</g>
</g>
<!-- Node14&#45;&gt;Node18 -->
<g id="edge25_Node000014_Node000018" class="edge">
<title>Node14&#45;&gt;Node18</title>
<g id="a_edge25_Node000014_Node000018"><a xlink:title=" ">
<path fill="none" stroke="#63b8ff" d="M1186.4,-215.09C1242.96,-204.62 1322.34,-189.18 1391.41,-173 1398.48,-171.35 1405.89,-169.48 1413.17,-167.58"/>
<polygon fill="#63b8ff" stroke="#63b8ff" points="1185.67,-211.66 1176.47,-216.92 1186.94,-218.55 1185.67,-211.66"/>
</a>
</g>
</g>
<!-- Node19 -->
<g id="Node000019" class="node">
<title>Node19</title>
<g id="a_Node000019"><a xlink:href="response__serializer_8cpp.html" target="_top" xlink:title="Implementation of query_response, column_metadata, result_row serialization.">
<polygon fill="white" stroke="#666666" points="964.41,-167.5 830.41,-167.5 830.41,-137.5 964.41,-137.5 964.41,-167.5"/>
<text text-anchor="start" x="838.41" y="-155.5" font-family="Helvetica,sans-Serif" font-size="10.00">src/gateway/protocol</text>
<text text-anchor="middle" x="897.41" y="-144.5" font-family="Helvetica,sans-Serif" font-size="10.00">/response_serializer.cpp</text>
</a>
</g>
</g>
<!-- Node14&#45;&gt;Node19 -->
<g id="edge26_Node000014_Node000019" class="edge">
<title>Node14&#45;&gt;Node19</title>
<g id="a_edge26_Node000014_Node000019"><a xlink:title=" ">
<path fill="none" stroke="#63b8ff" d="M1061.64,-211.06C1023.91,-197.83 972.73,-179.89 937.58,-167.58"/>
<polygon fill="#63b8ff" stroke="#63b8ff" points="1060.82,-214.48 1071.41,-214.48 1063.13,-207.87 1060.82,-214.48"/>
</a>
</g>
</g>
</g>
</svg>
