<?xml version="1.0" encoding="UTF-8" standalone="no"?>
<!DOCTYPE svg PUBLIC "-//W3C//DTD SVG 1.1//EN"
 "http://www.w3.org/Graphics/SVG/1.1/DTD/svg11.dtd">
<!-- Generated by graphviz version 2.43.0 (0)
 -->
<!-- Title: include/kcenon/database_server/gateway/query_types.h Pages: 1 -->
<!--zoomable 346 -->

<svg id="main" version="1.1" xmlns="http://www.w3.org/2000/svg" xmlns:xlink="http://www.w3.org/1999/xlink" xml:space="preserve" onload="init(evt)">
<style type="text/css"><![CDATA[
.node, .edge {opacity: 0.7;}
.node.selected, .edge.selected {opacity: 1;}
.edge:hover path { stroke: red; }
.edge:hover polygon { stroke: red; fill: red; }
]]></style>

<defs>
  <circle id="rim" cx="0" cy="0" r="7"/>
  <circle id="rim2" cx="0" cy="0" r="3.5"/>
  <g id="zoomPlus">
    <use xlink:href="#rim" fill="#404040"><set attributeName="fill" to="#808080" begin="zoomplus.mouseover" end="zoomplus.mouseout"/></use>
    <path d="M-4,0h8M0,-4v8" fill="none" stroke="white" stroke-width="1.5" pointer-events="none"/>
  </g>
  <g id="zoomMin">
    <use xlink:href="#rim" fill="#404040"><set attributeName="fill" to="#808080" begin="zoomminus.mouseover" end="zoomminus.mouseout"/></use>
    <path d="M-4,0h8" fill="none" stroke="white" stroke-width="1.5" pointer-events="none"/>
  </g>
  <g id="arrowUp" transform="translate(30 24)">
    <use xlink:href="#rim"/>
    <path pointer-events="none" fill="none" stroke="white" stroke-width="1.5" d="M0,-3.0v7 M-2.5,-0.5L0,-3.0L2.5,-0.5"/>
  </g>
  <g id="arrowRight" transform="rotate(90) translate(36 -43)">
    <use xlink:href="#rim"/>
    <path pointer-events="none" fill="none" stroke="white" stroke-width="1.5" d="M0,-3.0v7 M-2.5,-0.5L0,-3.0L2.5,-0.5"/>
  </g>
  <g id="arrowDown" transform="rotate(180) translate(-30 -48)">
    <use xlink:href="#rim"/>
    <path pointer-events="none" fill="none" stroke="white" stroke-width="1.5" d="M0,-3.0v7 M-2.5,-0.5L0,-3.0L2.5,-0.5"/>
  </g>
  <g id="arrowLeft" transform="rotate(270) translate(-36 17)">
    <use xlink:href="#rim"/>
    <path pointer-events="none" fill="none" stroke="white" stroke-width="1.5" d="M0,-3.0v7 M-2.5,-0.5L0,-3.0L2.5,-0.5"/>
  </g>
  <g id="resetDef">
    <use xlink:href="#rim2" fill="#404040"><set attributeName="fill" to="#808080" begin="reset.mouseover" end="reset.mouseout"/></use>
  </g>
</defs>
<script type="application/ecmascript">
var viewWidth = 636;
var viewHeight = 346;
var sectionId = 'dynsection-1';
</script>
<script type="application/ecmascript" xlink:href="svg.min.js"/>
<svg id="graph" class="graph">
<g id="viewport">
<title>include/kcenon/database_server/gateway/query_types.h</title>
<!-- Node1 -->
<g id="Node000001" class="node">
<title>Node1</title>
<g id="a_Node000001"><a xlink:title="Query protocol type definitions for database gateway.">
<polygon fill="#999999" stroke="#666666" points="473.68,-338 335.68,-338 335.68,-297 473.68,-297 473.68,-338"/>
<text text-anchor="start" x="343.68" y="-326" font-family="Helvetica,sans-Serif" font-size="10.00">include/kcenon/database</text>
<text text-anchor="start" x="343.68" y="-315" font-family="Helvetica,sans-Serif" font-size="10.00">_server/gateway/query</text>
<text text-anchor="middle" x="404.68" y="-304" font-family="Helvetica,sans-Serif" font-size="10.00">_types.h</text>
</a>
</g>
</g>
<!-- Node2 -->
<g id="Node000002" class="node">
<title>Node2</title>
<g id="a_Node000002"><a xlink:href="auth__middleware_8h.html" target="_top" xlink:title="Authentication middleware for database gateway.">
<polygon fill="white" stroke="#666666" points="205.68,-178.5 11.68,-178.5 11.68,-148.5 205.68,-148.5 205.68,-178.5"/>
<text text-anchor="start" x="19.68" y="-166.5" font-family="Helvetica,sans-Serif" font-size="10.00">include/kcenon/database</text>
<text text-anchor="middle" x="108.68" y="-155.5" font-family="Helvetica,sans-Serif" font-size="10.00">_server/gateway/auth_middleware.h</text>
</a>
</g>
</g>
<!-- Node1&#45;&gt;Node2 -->
<g id="edge1_Node000001_Node000002" class="edge">
<title>Node1&#45;&gt;Node2</title>
<g id="a_edge1_Node000001_Node000002"><a xlink:title=" ">
<path fill="none" stroke="#63b8ff" d="M342.54,-293.22C319.33,-283.94 292.97,-272.69 269.68,-261 217.69,-234.92 159.93,-198.29 129.72,-178.51"/>
<polygon fill="#63b8ff" stroke="#63b8ff" points="341.35,-296.51 351.94,-296.94 343.93,-290.01 341.35,-296.51"/>
</a>
</g>
</g>
<!-- Node3 -->
<g id="Node000003" class="node">
<title>Node3</title>
<g id="a_Node000003"><a xlink:href="gateway__server_8h.html" target="_top" xlink:title="Database gateway TCP server.">
<polygon fill="white" stroke="#666666" points="362.18,-107 219.18,-107 219.18,-66 362.18,-66 362.18,-107"/>
<text text-anchor="start" x="227.18" y="-95" font-family="Helvetica,sans-Serif" font-size="10.00">include/kcenon/database</text>
<text text-anchor="start" x="227.18" y="-84" font-family="Helvetica,sans-Serif" font-size="10.00">_server/gateway/gateway</text>
<text text-anchor="middle" x="290.68" y="-73" font-family="Helvetica,sans-Serif" font-size="10.00">_server.h</text>
</a>
</g>
</g>
<!-- Node1&#45;&gt;Node3 -->
<g id="edge7_Node000001_Node000003" class="edge">
<title>Node1&#45;&gt;Node3</title>
<g id="a_edge7_Node000001_Node000003"><a xlink:title=" ">
<path fill="none" stroke="#63b8ff" d="M423.26,-288.18C444.75,-251.49 473.47,-187.03 442.68,-143 432.7,-128.73 396.72,-115.26 362.28,-105.17"/>
<polygon fill="#63b8ff" stroke="#63b8ff" points="420.18,-286.51 417.99,-296.88 426.16,-290.14 420.18,-286.51"/>
</a>
</g>
</g>
<!-- Node7 -->
<g id="Node000007" class="node">
<title>Node7</title>
<g id="a_Node000007"><a xlink:href="query__protocol_8h.html" target="_top" xlink:title="Query protocol message structures for database gateway.">
<polygon fill="white" stroke="#666666" points="416.68,-261 278.68,-261 278.68,-220 416.68,-220 416.68,-261"/>
<text text-anchor="start" x="286.68" y="-249" font-family="Helvetica,sans-Serif" font-size="10.00">include/kcenon/database</text>
<text text-anchor="start" x="286.68" y="-238" font-family="Helvetica,sans-Serif" font-size="10.00">_server/gateway/query</text>
<text text-anchor="middle" x="347.68" y="-227" font-family="Helvetica,sans-Serif" font-size="10.00">_protocol.h</text>
</a>
</g>
</g>
<!-- Node1&#45;&gt;Node7 -->
<g id="edge8_Node000001_Node000007" class="edge">
<title>Node1&#45;&gt;Node7</title>
<g id="a_edge8_Node000001_Node000007"><a xlink:title=" ">
<path fill="none" stroke="#63b8ff" d="M383.53,-288.67C376.56,-279.5 368.96,-269.5 362.56,-261.07"/>
<polygon fill="#63b8ff" stroke="#63b8ff" points="380.87,-290.95 389.7,-296.79 386.44,-286.72 380.87,-290.95"/>
</a>
</g>
</g>
<!-- Node8 -->
<g id="Node000008" class="node">
<title>Node8</title>
<g id="a_Node000008"><a xlink:href="query__router_8h.html" target="_top" xlink:title="Query router with load balancing for database gateway.">
<polygon fill="white" stroke="#666666" points="627.68,-184 489.68,-184 489.68,-143 627.68,-143 627.68,-184"/>
<text text-anchor="start" x="497.68" y="-172" font-family="Helvetica,sans-Serif" font-size="10.00">include/kcenon/database</text>
<text text-anchor="start" x="497.68" y="-161" font-family="Helvetica,sans-Serif" font-size="10.00">_server/gateway/query</text>
<text text-anchor="middle" x="558.68" y="-150" font-family="Helvetica,sans-Serif" font-size="10.00">_router.h</text>
</a>
</g>
</g>
<!-- Node1&#45;&gt;Node8 -->
<g id="edge15_Node000001_Node000008" class="edge">
<title>Node1&#45;&gt;Node8</title>
<g id="a_edge15_Node000001_Node000008"><a xlink:title=" ">
<path fill="none" stroke="#63b8ff" d="M440.57,-290.64C452.18,-281.71 464.84,-271.34 475.68,-261 501.42,-236.44 527.61,-204.6 543.51,-184.36"/>
<polygon fill="#63b8ff" stroke="#63b8ff" points="438.2,-288.04 432.35,-296.87 442.43,-293.62 438.2,-288.04"/>
</a>
</g>
</g>
<!-- Node2&#45;&gt;Node3 -->
<g id="edge2_Node000002_Node000003" class="edge">
<title>Node2&#45;&gt;Node3</title>
<g id="a_edge2_Node000002_Node000003"><a xlink:title=" ">
<path fill="none" stroke="#63b8ff" d="M152.26,-144.54C179.68,-133.24 215.07,-118.66 243.21,-107.06"/>
<polygon fill="#63b8ff" stroke="#63b8ff" points="150.83,-141.35 142.91,-148.39 153.49,-147.82 150.83,-141.35"/>
</a>
</g>
</g>
<!-- Node5 -->
<g id="Node000005" class="node">
<title>Node5</title>
<g id="a_Node000005"><a xlink:href="gateway__server_8cpp.html" target="_top" xlink:title=" ">
<polygon fill="white" stroke="#666666" points="239.18,-30 118.18,-30 118.18,0 239.18,0 239.18,-30"/>
<text text-anchor="start" x="126.18" y="-18" font-family="Helvetica,sans-Serif" font-size="10.00">src/gateway/gateway</text>
<text text-anchor="middle" x="178.68" y="-7" font-family="Helvetica,sans-Serif" font-size="10.00">_server.cpp</text>
</a>
</g>
</g>
<!-- Node2&#45;&gt;Node5 -->
<g id="edge6_Node000002_Node000005" class="edge">
<title>Node2&#45;&gt;Node5</title>
<g id="a_edge6_Node000002_Node000005"><a xlink:title=" ">
<path fill="none" stroke="#63b8ff" d="M51.42,-144.09C34.32,-135.62 17.52,-123.64 7.68,-107 -1.6,-91.32 -3.25,-80.58 7.68,-66 21.18,-47.99 74.57,-34.3 118.15,-25.84"/>
<polygon fill="#63b8ff" stroke="#63b8ff" points="50.36,-147.46 60.91,-148.45 53.28,-141.1 50.36,-147.46"/>
</a>
</g>
</g>
<!-- Node6 -->
<g id="Node000006" class="node">
<title>Node6</title>
<g id="a_Node000006"><a xlink:href="auth__middleware_8cpp.html" target="_top" xlink:title=" ">
<polygon fill="white" stroke="#666666" points="200.68,-96 16.68,-96 16.68,-77 200.68,-77 200.68,-96"/>
<text text-anchor="middle" x="108.68" y="-84" font-family="Helvetica,sans-Serif" font-size="10.00">src/gateway/auth_middleware.cpp</text>
</a>
</g>
</g>
<!-- Node2&#45;&gt;Node6 -->
<g id="edge5_Node000002_Node000006" class="edge">
<title>Node2&#45;&gt;Node6</title>
<g id="a_edge5_Node000002_Node000006"><a xlink:title=" ">
<path fill="none" stroke="#63b8ff" d="M108.68,-138.18C108.68,-123.86 108.68,-106.61 108.68,-96.37"/>
<polygon fill="#63b8ff" stroke="#63b8ff" points="105.18,-138.39 108.68,-148.39 112.18,-138.39 105.18,-138.39"/>
</a>
</g>
</g>
<!-- Node4 -->
<g id="Node000004" class="node">
<title>Node4</title>
<g id="a_Node000004"><a xlink:href="server__app_8cpp.html" target="_top" xlink:title=" ">
<polygon fill="white" stroke="#666666" points="467.68,-24.5 335.68,-24.5 335.68,-5.5 467.68,-5.5 467.68,-24.5"/>
<text text-anchor="middle" x="401.68" y="-12.5" font-family="Helvetica,sans-Serif" font-size="10.00">src/core/server_app.cpp</text>
</a>
</g>
</g>
<!-- Node3&#45;&gt;Node4 -->
<g id="edge3_Node000003_Node000004" class="edge">
<title>Node3&#45;&gt;Node4</title>
<g id="a_edge3_Node000003_Node000004"><a xlink:title=" ">
<path fill="none" stroke="#63b8ff" d="M330.6,-60.51C350.73,-47.9 373.84,-33.43 388.1,-24.5"/>
<polygon fill="#63b8ff" stroke="#63b8ff" points="328.51,-57.68 321.9,-65.96 332.23,-63.62 328.51,-57.68"/>
</a>
</g>
</g>
<!-- Node3&#45;&gt;Node5 -->
<g id="edge4_Node000003_Node000005" class="edge">
<title>Node3&#45;&gt;Node5</title>
<g id="a_edge4_Node000003_Node000005"><a xlink:title=" ">
<path fill="none" stroke="#63b8ff" d="M250.29,-60.44C233.85,-50.23 215.45,-38.82 201.42,-30.11"/>
<polygon fill="#63b8ff" stroke="#63b8ff" points="248.84,-63.66 259.18,-65.96 252.53,-57.71 248.84,-63.66"/>
</a>
</g>
</g>
<!-- Node7&#45;&gt;Node2 -->
<g id="edge9_Node000007_Node000002" class="edge">
<title>Node7&#45;&gt;Node2</title>
<g id="a_edge9_Node000007_Node000002"><a xlink:title=" ">
<path fill="none" stroke="#63b8ff" d="M275.86,-216.96C236.12,-204.49 187.96,-189.38 153.56,-178.58"/>
<polygon fill="#63b8ff" stroke="#63b8ff" points="274.92,-220.34 285.51,-219.99 277.02,-213.66 274.92,-220.34"/>
</a>
</g>
</g>
<!-- Node7&#45;&gt;Node3 -->
<g id="edge10_Node000007_Node000003" class="edge">
<title>Node7&#45;&gt;Node3</title>
<g id="a_edge10_Node000007_Node000003"><a xlink:title=" ">
<path fill="none" stroke="#63b8ff" d="M284.12,-214.81C271.57,-206.91 260.02,-196.79 252.68,-184 238.25,-158.86 257,-127.17 272.9,-107.12"/>
<polygon fill="#63b8ff" stroke="#63b8ff" points="282.53,-217.93 292.94,-219.93 286.05,-211.88 282.53,-217.93"/>
</a>
</g>
</g>
<!-- Node7&#45;&gt;Node8 -->
<g id="edge11_Node000007_Node000008" class="edge">
<title>Node7&#45;&gt;Node8</title>
<g id="a_edge11_Node000007_Node000008"><a xlink:title=" ">
<path fill="none" stroke="#63b8ff" d="M412.28,-216.54C441.52,-206.15 475.71,-193.99 503.7,-184.04"/>
<polygon fill="#63b8ff" stroke="#63b8ff" points="410.82,-213.34 402.57,-219.99 413.16,-219.94 410.82,-213.34"/>
</a>
</g>
</g>
<!-- Node10 -->
<g id="Node000010" class="node">
<title>Node10</title>
<g id="a_Node000010"><a xlink:href="query__protocol_8cpp.html" target="_top" xlink:title=" ">
<polygon fill="white" stroke="#666666" points="433.68,-173 261.68,-173 261.68,-154 433.68,-154 433.68,-173"/>
<text text-anchor="middle" x="347.68" y="-161" font-family="Helvetica,sans-Serif" font-size="10.00">src/gateway/query_protocol.cpp</text>
</a>
</g>
</g>
<!-- Node7&#45;&gt;Node10 -->
<g id="edge14_Node000007_Node000010" class="edge">
<title>Node7&#45;&gt;Node10</title>
<g id="a_edge14_Node000007_Node000010"><a xlink:title=" ">
<path fill="none" stroke="#63b8ff" d="M347.68,-209.7C347.68,-196.59 347.68,-182.18 347.68,-173.24"/>
<polygon fill="#63b8ff" stroke="#63b8ff" points="344.18,-209.79 347.68,-219.79 351.18,-209.79 344.18,-209.79"/>
</a>
</g>
</g>
<!-- Node8&#45;&gt;Node4 -->
<g id="edge12_Node000008_Node000004" class="edge">
<title>Node8&#45;&gt;Node4</title>
<g id="a_edge12_Node000008_Node000004"><a xlink:title=" ">
<path fill="none" stroke="#63b8ff" d="M563.77,-132.91C565.63,-112.05 564.41,-84.63 549.68,-66 530,-41.11 497.4,-28.53 467.79,-22.2"/>
<polygon fill="#63b8ff" stroke="#63b8ff" points="560.29,-132.51 562.6,-142.84 567.24,-133.32 560.29,-132.51"/>
</a>
</g>
</g>
<!-- Node9 -->
<g id="Node000009" class="node">
<title>Node9</title>
<g id="a_Node000009"><a xlink:href="query__router_8cpp.html" target="_top" xlink:title=" ">
<polygon fill="white" stroke="#666666" points="541.18,-96 380.18,-96 380.18,-77 541.18,-77 541.18,-96"/>
<text text-anchor="middle" x="460.68" y="-84" font-family="Helvetica,sans-Serif" font-size="10.00">src/gateway/query_router.cpp</text>
</a>
</g>
</g>
<!-- Node8&#45;&gt;Node9 -->
<g id="edge13_Node000008_Node000009" class="edge">
<title>Node8&#45;&gt;Node9</title>
<g id="a_edge13_Node000008_Node000009"><a xlink:title=" ">
<path fill="none" stroke="#63b8ff" d="M525.22,-136.89C506.68,-122.7 484.83,-105.98 471.9,-96.09"/>
<polygon fill="#63b8ff" stroke="#63b8ff" points="523.12,-139.69 533.19,-142.99 527.37,-134.13 523.12,-139.69"/>
</a>
</g>
</g>
</g>
</svg>

<g id="navigator" transform="translate(0 0)" fill="#404254">
  <rect fill="#f2f5e9" fill-opacity="0.5" stroke="#606060" stroke-width=".5" x="0" y="0" width="60" height="60"/>
  <use id="zoomplus" xlink:href="#zoomPlus" x="17" y="9" onmousedown="handleZoom(evt,'in')"/>
  <use id="zoomminus" xlink:href="#zoomMin" x="42" y="9" onmousedown="handleZoom(evt,'out')"/>
  <use id="reset" xlink:href="#resetDef" x="30" y="36" onmousedown="handleReset()"/>
   <use id="arrowup" xlink:href="#arrowUp" x="0" y="0" onmousedown="handlePan(0,-1)"/>
  <use id="arrowright" xlink:href="#arrowRight" x="0" y="0" onmousedown="handlePan(1,0)"/>
  <use id="arrowdown" xlink:href="#arrowDown" x="0" y="0" onmousedown="handlePan(0,1)"/>
  <use id="arrowleft" xlink:href="#arrowLeft" x="0" y="0" onmousedown="handlePan(-1,0)"/>
</g>
<svg viewBox="0 0 15 15" width="100%" height="30px" preserveAspectRatio="xMaxYMin meet">
 <g id="arrow_out" transform="scale(0.3 0.3)">
  <a xlink:href="query__types_8h__dep__incl_org.svg" target="_base">
   <rect id="button" ry="5" rx="5" y="6" x="6" height="38" width="38"
        fill="#f2f5e9" fill-opacity="0.5" stroke="#606060" stroke-width="1.0"/>
   <path id="arrow"
     d="M 11.500037,31.436501 C 11.940474,20.09759 22.043105,11.32322 32.158766,21.979434 L 37.068811,17.246167 C 37.068811,17.246167 37.088388,32 37.088388,32 L 22.160133,31.978069 C 22.160133,31.978069 26.997745,27.140456 26.997745,27.140456 C 18.528582,18.264221 13.291696,25.230495 11.500037,31.436501 z"
     style="fill:#404040;"/>
  </a>
 </g>
</svg>

<style type='text/css'>
<![CDATA[
[data-mouse-over-selected='false'] { opacity: 0.7; }
[data-mouse-over-selected='true']  { opacity: 1.0; }
]]>
</style>
<script type="application/ecmascript"><![CDATA[
document.addEventListener('DOMContentLoaded', (event) => {
  highlightEdges();
  highlightAdjacentNodes();
});
]]></script>
</svg>
