<?xml version="1.0" encoding="UTF-8" standalone="no"?>
<!DOCTYPE svg PUBLIC "-//W3C//DTD SVG 1.1//EN"
 "http://www.w3.org/Graphics/SVG/1.1/DTD/svg11.dtd">
<!-- Generated by graphviz version 2.43.0 (0)
 -->
<!-- Title: src/gateway/query_router.cpp Pages: 1 -->
<svg width="2095pt" height="291pt"
 viewBox="0.00 0.00 2094.53 291.00" xmlns="http://www.w3.org/2000/svg" xmlns:xlink="http://www.w3.org/1999/xlink">
<g id="graph0" class="graph" transform="scale(1 1) rotate(0) translate(4 287)">
<title>src/gateway/query_router.cpp</title>
<!-- Node1 -->
<g id="Node000001" class="node">
<title>Node1</title>
<g id="a_Node000001"><a xlink:title=" ">
<polygon fill="#999999" stroke="#666666" points="1732.03,-283 1571.03,-283 1571.03,-264 1732.03,-264 1732.03,-283"/>
<text text-anchor="middle" x="1651.53" y="-271" font-family="Helvetica,sans-Serif" font-size="10.00">src/gateway/query_router.cpp</text>
</a>
</g>
</g>
<!-- Node2 -->
<g id="Node000002" class="node">
<title>Node2</title>
<g id="a_Node000002"><a xlink:href="query__router_8h.html" target="_top" xlink:title="Query router with load balancing for database gateway.">
<polygon fill="white" stroke="#666666" points="582.53,-228 446.53,-228 446.53,-198 582.53,-198 582.53,-228"/>
<text text-anchor="start" x="454.53" y="-216" font-family="Helvetica,sans-Serif" font-size="10.00">kcenon/database_server</text>
<text text-anchor="middle" x="514.53" y="-205" font-family="Helvetica,sans-Serif" font-size="10.00">/gateway/query_router.h</text>
</a>
</g>
</g>
<!-- Node1&#45;&gt;Node2 -->
<g id="edge1_Node000001_Node000002" class="edge">
<title>Node1&#45;&gt;Node2</title>
<g id="a_edge1_Node000001_Node000002"><a xlink:title=" ">
<path fill="none" stroke="#63b8ff" d="M1570.68,-268.34C1360.76,-257.54 800.38,-228.71 593.07,-218.04"/>
<polygon fill="#63b8ff" stroke="#63b8ff" points="593.04,-214.53 582.88,-217.52 592.68,-221.53 593.04,-214.53"/>
</a>
</g>
</g>
<!-- Node8 -->
<g id="Node000008" class="node">
<title>Node8</title>
<g id="a_Node000008"><a xlink:title=" ">
<polygon fill="#e0e0e0" stroke="#999999" points="613.53,-79.5 563.53,-79.5 563.53,-60.5 613.53,-60.5 613.53,-79.5"/>
<text text-anchor="middle" x="588.53" y="-67.5" font-family="Helvetica,sans-Serif" font-size="10.00">chrono</text>
</a>
</g>
</g>
<!-- Node1&#45;&gt;Node8 -->
<g id="edge58_Node000001_Node000008" class="edge">
<title>Node1&#45;&gt;Node8</title>
<g id="a_edge58_Node000001_Node000008"><a xlink:title=" ">
<path fill="none" stroke="#63b8ff" d="M1570.66,-272.58C1305.45,-272.45 476.85,-268.78 437.53,-228 411.15,-200.63 446.11,-145.32 470.53,-121 472.21,-119.33 523.82,-97.78 558.22,-83.52"/>
<polygon fill="#63b8ff" stroke="#63b8ff" points="559.94,-86.6 567.84,-79.54 557.26,-80.13 559.94,-86.6"/>
</a>
</g>
</g>
<!-- Node18 -->
<g id="Node000018" class="node">
<title>Node18</title>
<g id="a_Node000018"><a xlink:href="connection__pool_8h.html" target="_top" xlink:title="High&#45;performance connection pool with adaptive queue and priority scheduling.">
<polygon fill="white" stroke="#666666" points="1500.03,-228 1353.03,-228 1353.03,-198 1500.03,-198 1500.03,-228"/>
<text text-anchor="start" x="1361.03" y="-216" font-family="Helvetica,sans-Serif" font-size="10.00">kcenon/database_server</text>
<text text-anchor="middle" x="1426.53" y="-205" font-family="Helvetica,sans-Serif" font-size="10.00">/pooling/connection_pool.h</text>
</a>
</g>
</g>
<!-- Node1&#45;&gt;Node18 -->
<g id="edge24_Node000001_Node000018" class="edge">
<title>Node1&#45;&gt;Node18</title>
<g id="a_edge24_Node000001_Node000018"><a xlink:title=" ">
<path fill="none" stroke="#63b8ff" d="M1618.82,-263.99C1585.31,-255.28 1532.33,-241.51 1490.47,-230.62"/>
<polygon fill="#63b8ff" stroke="#63b8ff" points="1491.19,-227.19 1480.63,-228.06 1489.42,-233.97 1491.19,-227.19"/>
</a>
</g>
</g>
<!-- Node19 -->
<g id="Node000019" class="node">
<title>Node19</title>
<g id="a_Node000019"><a xlink:href="connection__priority_8h.html" target="_top" xlink:title="Priority levels for connection acquisition requests.">
<polygon fill="white" stroke="#666666" points="2022.53,-151 1904.53,-151 1904.53,-132 2022.53,-132 2022.53,-151"/>
<text text-anchor="middle" x="1963.53" y="-139" font-family="Helvetica,sans-Serif" font-size="10.00">connection_priority.h</text>
</a>
</g>
</g>
<!-- Node1&#45;&gt;Node19 -->
<g id="edge57_Node000001_Node000019" class="edge">
<title>Node1&#45;&gt;Node19</title>
<g id="a_edge57_Node000001_Node000019"><a xlink:title=" ">
<path fill="none" stroke="#63b8ff" d="M1732.04,-270.87C1780.73,-266.76 1842.48,-255.77 1890.53,-228 1919,-211.55 1941.61,-179.73 1953.75,-159.89"/>
<polygon fill="#63b8ff" stroke="#63b8ff" points="1956.79,-161.63 1958.84,-151.23 1950.75,-158.08 1956.79,-161.63"/>
</a>
</g>
</g>
<!-- Node23 -->
<g id="Node000023" class="node">
<title>Node23</title>
<g id="a_Node000023"><a xlink:title=" ">
<polygon fill="#e0e0e0" stroke="#999999" points="2086.53,-151 2040.53,-151 2040.53,-132 2086.53,-132 2086.53,-151"/>
<text text-anchor="middle" x="2063.53" y="-139" font-family="Helvetica,sans-Serif" font-size="10.00">future</text>
</a>
</g>
</g>
<!-- Node1&#45;&gt;Node23 -->
<g id="edge59_Node000001_Node000023" class="edge">
<title>Node1&#45;&gt;Node23</title>
<g id="a_edge59_Node000001_Node000023"><a xlink:title=" ">
<path fill="none" stroke="#63b8ff" d="M1732.12,-267.19C1786.87,-261.68 1860.21,-250.51 1921.53,-228 1968.9,-210.61 2017.99,-176.94 2044.23,-157.44"/>
<polygon fill="#63b8ff" stroke="#63b8ff" points="2046.64,-160 2052.51,-151.18 2042.42,-154.42 2046.64,-160"/>
</a>
</g>
</g>
<!-- Node24 -->
<g id="Node000024" class="node">
<title>Node24</title>
<g id="a_Node000024"><a xlink:title=" ">
<polygon fill="#e0e0e0" stroke="#999999" points="1862.53,-79.5 1814.53,-79.5 1814.53,-60.5 1862.53,-60.5 1862.53,-79.5"/>
<text text-anchor="middle" x="1838.53" y="-67.5" font-family="Helvetica,sans-Serif" font-size="10.00">thread</text>
</a>
</g>
</g>
<!-- Node1&#45;&gt;Node24 -->
<g id="edge60_Node000001_Node000024" class="edge">
<title>Node1&#45;&gt;Node24</title>
<g id="a_edge60_Node000001_Node000024"><a xlink:title=" ">
<path fill="none" stroke="#63b8ff" d="M1678.66,-263.92C1718.65,-249.73 1792.46,-217.3 1827.53,-162 1841.43,-140.09 1842.09,-109.19 1840.73,-89.63"/>
<polygon fill="#63b8ff" stroke="#63b8ff" points="1844.21,-89.2 1839.79,-79.57 1837.24,-89.86 1844.21,-89.2"/>
</a>
</g>
</g>
<!-- Node3 -->
<g id="Node000003" class="node">
<title>Node3</title>
<g id="a_Node000003"><a xlink:href="query__protocol_8h.html" target="_top" xlink:title="Query protocol message structures for database gateway.">
<polygon fill="white" stroke="#666666" points="352.53,-151 254.53,-151 254.53,-132 352.53,-132 352.53,-151"/>
<text text-anchor="middle" x="303.53" y="-139" font-family="Helvetica,sans-Serif" font-size="10.00">query_protocol.h</text>
</a>
</g>
</g>
<!-- Node2&#45;&gt;Node3 -->
<g id="edge2_Node000002_Node000003" class="edge">
<title>Node2&#45;&gt;Node3</title>
<g id="a_edge2_Node000002_Node000003"><a xlink:title=" ">
<path fill="none" stroke="#63b8ff" d="M471.84,-197.94C432.87,-185.1 375.93,-166.35 339.31,-154.28"/>
<polygon fill="#63b8ff" stroke="#63b8ff" points="340.14,-150.87 329.55,-151.07 337.95,-157.52 340.14,-150.87"/>
</a>
</g>
</g>
<!-- Node4 -->
<g id="Node000004" class="node">
<title>Node4</title>
<g id="a_Node000004"><a xlink:href="query__types_8h.html" target="_top" xlink:title="Query protocol type definitions for database gateway.">
<polygon fill="white" stroke="#666666" points="100.53,-79.5 14.53,-79.5 14.53,-60.5 100.53,-60.5 100.53,-79.5"/>
<text text-anchor="middle" x="57.53" y="-67.5" font-family="Helvetica,sans-Serif" font-size="10.00">query_types.h</text>
</a>
</g>
</g>
<!-- Node2&#45;&gt;Node4 -->
<g id="edge15_Node000002_Node000004" class="edge">
<title>Node2&#45;&gt;Node4</title>
<g id="a_edge15_Node000002_Node000004"><a xlink:title=" ">
<path fill="none" stroke="#63b8ff" d="M446.4,-204.45C391.26,-197.13 312.1,-183.86 245.53,-162 183.5,-141.63 115.72,-104.89 80.97,-84.89"/>
<polygon fill="#63b8ff" stroke="#63b8ff" points="82.48,-81.72 72.07,-79.72 78.96,-87.77 82.48,-81.72"/>
</a>
</g>
</g>
<!-- Node6 -->
<g id="Node000006" class="node">
<title>Node6</title>
<g id="a_Node000006"><a xlink:title=" ">
<polygon fill="#e0e0e0" stroke="#999999" points="150.53,-19 106.53,-19 106.53,0 150.53,0 150.53,-19"/>
<text text-anchor="middle" x="128.53" y="-7" font-family="Helvetica,sans-Serif" font-size="10.00">string</text>
</a>
</g>
</g>
<!-- Node2&#45;&gt;Node6 -->
<g id="edge21_Node000002_Node000006" class="edge">
<title>Node2&#45;&gt;Node6</title>
<g id="a_edge21_Node000002_Node000006"><a xlink:title=" ">
<path fill="none" stroke="#63b8ff" d="M446.27,-210.03C371.31,-206.19 248.22,-194.94 147.53,-162 79.3,-139.68 42.26,-146.69 5.53,-85 -1.29,-73.54 -2.12,-65.91 5.53,-55 11.01,-47.2 62.23,-30.48 96.82,-19.91"/>
<polygon fill="#63b8ff" stroke="#63b8ff" points="97.96,-23.22 106.52,-16.97 95.93,-16.52 97.96,-23.22"/>
</a>
</g>
</g>
<!-- Node2&#45;&gt;Node8 -->
<g id="edge17_Node000002_Node000008" class="edge">
<title>Node2&#45;&gt;Node8</title>
<g id="a_edge17_Node000002_Node000008"><a xlink:title=" ">
<path fill="none" stroke="#63b8ff" d="M501.7,-197.9C486.37,-179.26 464.64,-145.87 480.53,-121 482.84,-117.39 527.59,-97.43 558.75,-83.85"/>
<polygon fill="#63b8ff" stroke="#63b8ff" points="560.54,-86.88 568.32,-79.69 557.75,-80.46 560.54,-86.88"/>
</a>
</g>
</g>
<!-- Node9 -->
<g id="Node000009" class="node">
<title>Node9</title>
<g id="a_Node000009"><a xlink:title=" ">
<polygon fill="#e0e0e0" stroke="#999999" points="689.53,-79.5 631.53,-79.5 631.53,-60.5 689.53,-60.5 689.53,-79.5"/>
<text text-anchor="middle" x="660.53" y="-67.5" font-family="Helvetica,sans-Serif" font-size="10.00">memory</text>
</a>
</g>
</g>
<!-- Node2&#45;&gt;Node9 -->
<g id="edge19_Node000002_Node000009" class="edge">
<title>Node2&#45;&gt;Node9</title>
<g id="a_edge19_Node000002_Node000009"><a xlink:title=" ">
<path fill="none" stroke="#63b8ff" d="M509.86,-197.83C504.44,-178.5 498.18,-143.69 514.53,-121 544.12,-79.95 574.79,-101.75 622.53,-85 624.38,-84.35 626.26,-83.68 628.17,-83"/>
<polygon fill="#63b8ff" stroke="#63b8ff" points="629.46,-86.26 637.67,-79.56 627.07,-79.68 629.46,-86.26"/>
</a>
</g>
</g>
<!-- Node13 -->
<g id="Node000013" class="node">
<title>Node13</title>
<g id="a_Node000013"><a xlink:title=" ">
<polygon fill="#e0e0e0" stroke="#999999" points="545.03,-85 404.03,-85 404.03,-55 545.03,-55 545.03,-85"/>
<text text-anchor="start" x="412.03" y="-73" font-family="Helvetica,sans-Serif" font-size="10.00">kcenon/common/patterns</text>
<text text-anchor="middle" x="474.53" y="-62" font-family="Helvetica,sans-Serif" font-size="10.00">/result.h</text>
</a>
</g>
</g>
<!-- Node2&#45;&gt;Node13 -->
<g id="edge23_Node000002_Node000013" class="edge">
<title>Node2&#45;&gt;Node13</title>
<g id="a_edge23_Node000002_Node000013"><a xlink:title=" ">
<path fill="none" stroke="#63b8ff" d="M481.58,-197.95C466.8,-189.78 450.86,-177.91 442.53,-162 430.88,-139.71 443.92,-112.25 456.68,-93.36"/>
<polygon fill="#63b8ff" stroke="#63b8ff" points="459.64,-95.24 462.63,-85.08 453.95,-91.16 459.64,-95.24"/>
</a>
</g>
</g>
<!-- Node14 -->
<g id="Node000014" class="node">
<title>Node14</title>
<g id="a_Node000014"><a xlink:title=" ">
<polygon fill="#e0e0e0" stroke="#999999" points="757.53,-79.5 707.53,-79.5 707.53,-60.5 757.53,-60.5 757.53,-79.5"/>
<text text-anchor="middle" x="732.53" y="-67.5" font-family="Helvetica,sans-Serif" font-size="10.00">atomic</text>
</a>
</g>
</g>
<!-- Node2&#45;&gt;Node14 -->
<g id="edge16_Node000002_Node000014" class="edge">
<title>Node2&#45;&gt;Node14</title>
<g id="a_edge16_Node000002_Node000014"><a xlink:title=" ">
<path fill="none" stroke="#63b8ff" d="M552.63,-197.95C574.7,-189.06 602.58,-176.52 625.53,-162 660.86,-139.66 696.84,-106.44 716.77,-86.93"/>
<polygon fill="#63b8ff" stroke="#63b8ff" points="719.42,-89.24 724.05,-79.71 714.48,-84.27 719.42,-89.24"/>
</a>
</g>
</g>
<!-- Node15 -->
<g id="Node000015" class="node">
<title>Node15</title>
<g id="a_Node000015"><a xlink:title=" ">
<polygon fill="#e0e0e0" stroke="#999999" points="1563.03,-79.5 1498.03,-79.5 1498.03,-60.5 1563.03,-60.5 1563.03,-79.5"/>
<text text-anchor="middle" x="1530.53" y="-67.5" font-family="Helvetica,sans-Serif" font-size="10.00">functional</text>
</a>
</g>
</g>
<!-- Node2&#45;&gt;Node15 -->
<g id="edge18_Node000002_Node000015" class="edge">
<title>Node2&#45;&gt;Node15</title>
<g id="a_edge18_Node000002_Node000015"><a xlink:title=" ">
<path fill="none" stroke="#63b8ff" d="M582.6,-211.68C708.52,-210.11 972.4,-201.99 1053.53,-162 1075.82,-151.02 1069.24,-131.96 1091.53,-121 1171.24,-81.83 1402.67,-103.48 1489.53,-85 1492.6,-84.35 1495.75,-83.54 1498.88,-82.64"/>
<polygon fill="#63b8ff" stroke="#63b8ff" points="1500.2,-85.89 1508.68,-79.54 1498.09,-79.22 1500.2,-85.89"/>
</a>
</g>
</g>
<!-- Node16 -->
<g id="Node000016" class="node">
<title>Node16</title>
<g id="a_Node000016"><a xlink:title=" ">
<polygon fill="#e0e0e0" stroke="#999999" points="955.53,-79.5 907.53,-79.5 907.53,-60.5 955.53,-60.5 955.53,-79.5"/>
<text text-anchor="middle" x="931.53" y="-67.5" font-family="Helvetica,sans-Serif" font-size="10.00">mutex</text>
</a>
</g>
</g>
<!-- Node2&#45;&gt;Node16 -->
<g id="edge20_Node000002_Node000016" class="edge">
<title>Node2&#45;&gt;Node16</title>
<g id="a_edge20_Node000002_Node000016"><a xlink:title=" ">
<path fill="none" stroke="#63b8ff" d="M582.56,-210.29C676.09,-206.7 838.2,-195.67 885.53,-162 909.86,-144.7 922.09,-110.71 927.62,-89.52"/>
<polygon fill="#63b8ff" stroke="#63b8ff" points="931.03,-90.3 929.92,-79.77 924.21,-88.7 931.03,-90.3"/>
</a>
</g>
</g>
<!-- Node17 -->
<g id="Node000017" class="node">
<title>Node17</title>
<g id="a_Node000017"><a xlink:title=" ">
<polygon fill="#e0e0e0" stroke="#999999" points="616.03,-151 523.03,-151 523.03,-132 616.03,-132 616.03,-151"/>
<text text-anchor="middle" x="569.53" y="-139" font-family="Helvetica,sans-Serif" font-size="10.00">unordered_map</text>
</a>
</g>
</g>
<!-- Node2&#45;&gt;Node17 -->
<g id="edge22_Node000002_Node000017" class="edge">
<title>Node2&#45;&gt;Node17</title>
<g id="a_edge22_Node000002_Node000017"><a xlink:title=" ">
<path fill="none" stroke="#63b8ff" d="M525.66,-197.94C534.47,-186.81 546.79,-171.24 556.14,-159.43"/>
<polygon fill="#63b8ff" stroke="#63b8ff" points="559.14,-161.28 562.6,-151.27 553.65,-156.94 559.14,-161.28"/>
</a>
</g>
</g>
<!-- Node3&#45;&gt;Node4 -->
<g id="edge3_Node000003_Node000004" class="edge">
<title>Node3&#45;&gt;Node4</title>
<g id="a_edge3_Node000003_Node000004"><a xlink:title=" ">
<path fill="none" stroke="#63b8ff" d="M273.37,-131.98C229.2,-119.5 146.84,-96.23 97.62,-82.33"/>
<polygon fill="#63b8ff" stroke="#63b8ff" points="98.52,-78.94 87.95,-79.59 96.62,-85.68 98.52,-78.94"/>
</a>
</g>
</g>
<!-- Node5 -->
<g id="Node000005" class="node">
<title>Node5</title>
<g id="a_Node000005"><a xlink:title=" ">
<polygon fill="#e0e0e0" stroke="#999999" points="400.53,-19 350.53,-19 350.53,0 400.53,0 400.53,-19"/>
<text text-anchor="middle" x="375.53" y="-7" font-family="Helvetica,sans-Serif" font-size="10.00">cstdint</text>
</a>
</g>
</g>
<!-- Node3&#45;&gt;Node5 -->
<g id="edge8_Node000003_Node000005" class="edge">
<title>Node3&#45;&gt;Node5</title>
<g id="a_edge8_Node000003_Node000005"><a xlink:title=" ">
<path fill="none" stroke="#63b8ff" d="M314.61,-131.92C326.71,-121.94 345.81,-104.34 356.53,-85 366.22,-67.53 371.07,-45.02 373.44,-29.34"/>
<polygon fill="#63b8ff" stroke="#63b8ff" points="376.92,-29.66 374.75,-19.29 369.98,-28.76 376.92,-29.66"/>
</a>
</g>
</g>
<!-- Node3&#45;&gt;Node6 -->
<g id="edge11_Node000003_Node000006" class="edge">
<title>Node3&#45;&gt;Node6</title>
<g id="a_edge11_Node000003_Node000006"><a xlink:title=" ">
<path fill="none" stroke="#63b8ff" d="M254.28,-135.16C219.71,-128.84 174.94,-115.06 147.53,-85 133.65,-69.77 129.6,-45.82 128.58,-29.2"/>
<polygon fill="#63b8ff" stroke="#63b8ff" points="132.07,-28.95 128.26,-19.07 125.07,-29.17 132.07,-28.95"/>
</a>
</g>
</g>
<!-- Node3&#45;&gt;Node8 -->
<g id="edge7_Node000003_Node000008" class="edge">
<title>Node3&#45;&gt;Node8</title>
<g id="a_edge7_Node000003_Node000008"><a xlink:title=" ">
<path fill="none" stroke="#63b8ff" d="M346.38,-131.96C407.39,-119.64 516.16,-97.04 554.53,-85 556.21,-84.47 557.92,-83.9 559.63,-83.29"/>
<polygon fill="#63b8ff" stroke="#63b8ff" points="561.24,-86.43 569.33,-79.58 558.74,-79.89 561.24,-86.43"/>
</a>
</g>
</g>
<!-- Node3&#45;&gt;Node9 -->
<g id="edge9_Node000003_Node000009" class="edge">
<title>Node3&#45;&gt;Node9</title>
<g id="a_edge9_Node000003_Node000009"><a xlink:title=" ">
<path fill="none" stroke="#63b8ff" d="M352.77,-134.74C415.95,-126.72 528.62,-110.25 622.53,-85 624.97,-84.35 627.47,-83.6 629.97,-82.8"/>
<polygon fill="#63b8ff" stroke="#63b8ff" points="631.13,-86.1 639.45,-79.54 628.85,-79.48 631.13,-86.1"/>
</a>
</g>
</g>
<!-- Node10 -->
<g id="Node000010" class="node">
<title>Node10</title>
<g id="a_Node000010"><a xlink:title=" ">
<polygon fill="#e0e0e0" stroke="#999999" points="347.53,-79.5 291.53,-79.5 291.53,-60.5 347.53,-60.5 347.53,-79.5"/>
<text text-anchor="middle" x="319.53" y="-67.5" font-family="Helvetica,sans-Serif" font-size="10.00">optional</text>
</a>
</g>
</g>
<!-- Node3&#45;&gt;Node10 -->
<g id="edge10_Node000003_Node000010" class="edge">
<title>Node3&#45;&gt;Node10</title>
<g id="a_edge10_Node000003_Node000010"><a xlink:title=" ">
<path fill="none" stroke="#63b8ff" d="M305.5,-131.98C307.92,-121.45 312.11,-103.25 315.28,-89.47"/>
<polygon fill="#63b8ff" stroke="#63b8ff" points="318.72,-90.12 317.56,-79.59 311.9,-88.55 318.72,-90.12"/>
</a>
</g>
</g>
<!-- Node11 -->
<g id="Node000011" class="node">
<title>Node11</title>
<g id="a_Node000011"><a xlink:title=" ">
<polygon fill="#e0e0e0" stroke="#999999" points="208.03,-79.5 157.03,-79.5 157.03,-60.5 208.03,-60.5 208.03,-79.5"/>
<text text-anchor="middle" x="182.53" y="-67.5" font-family="Helvetica,sans-Serif" font-size="10.00">variant</text>
</a>
</g>
</g>
<!-- Node3&#45;&gt;Node11 -->
<g id="edge12_Node000003_Node000011" class="edge">
<title>Node3&#45;&gt;Node11</title>
<g id="a_edge12_Node000003_Node000011"><a xlink:title=" ">
<path fill="none" stroke="#63b8ff" d="M288.7,-131.98C268.1,-120.15 230.64,-98.63 206.17,-84.58"/>
<polygon fill="#63b8ff" stroke="#63b8ff" points="207.91,-81.54 197.49,-79.59 204.42,-87.61 207.91,-81.54"/>
</a>
</g>
</g>
<!-- Node12 -->
<g id="Node000012" class="node">
<title>Node12</title>
<g id="a_Node000012"><a xlink:title=" ">
<polygon fill="#e0e0e0" stroke="#999999" points="273.03,-79.5 226.03,-79.5 226.03,-60.5 273.03,-60.5 273.03,-79.5"/>
<text text-anchor="middle" x="249.53" y="-67.5" font-family="Helvetica,sans-Serif" font-size="10.00">vector</text>
</a>
</g>
</g>
<!-- Node3&#45;&gt;Node12 -->
<g id="edge13_Node000003_Node000012" class="edge">
<title>Node3&#45;&gt;Node12</title>
<g id="a_edge13_Node000003_Node000012"><a xlink:title=" ">
<path fill="none" stroke="#63b8ff" d="M296.91,-131.98C288.41,-121.04 273.46,-101.8 262.63,-87.85"/>
<polygon fill="#63b8ff" stroke="#63b8ff" points="265.11,-85.34 256.21,-79.59 259.58,-89.64 265.11,-85.34"/>
</a>
</g>
</g>
<!-- Node3&#45;&gt;Node13 -->
<g id="edge14_Node000003_Node000013" class="edge">
<title>Node3&#45;&gt;Node13</title>
<g id="a_edge14_Node000003_Node000013"><a xlink:title=" ">
<path fill="none" stroke="#63b8ff" d="M324.5,-131.98C350.83,-121.28 396.69,-102.64 430.79,-88.78"/>
<polygon fill="#63b8ff" stroke="#63b8ff" points="432.13,-92.01 440.07,-85.01 429.49,-85.53 432.13,-92.01"/>
</a>
</g>
</g>
<!-- Node4&#45;&gt;Node5 -->
<g id="edge4_Node000004_Node000005" class="edge">
<title>Node4&#45;&gt;Node5</title>
<g id="a_edge4_Node000004_Node000005"><a xlink:title=" ">
<path fill="none" stroke="#63b8ff" d="M100.75,-61.05C164.35,-49.35 281.93,-27.72 340.49,-16.95"/>
<polygon fill="#63b8ff" stroke="#63b8ff" points="341.18,-20.38 350.38,-15.13 339.91,-13.5 341.18,-20.38"/>
</a>
</g>
</g>
<!-- Node4&#45;&gt;Node6 -->
<g id="edge5_Node000004_Node000006" class="edge">
<title>Node4&#45;&gt;Node6</title>
<g id="a_edge5_Node000004_Node000006"><a xlink:title=" ">
<path fill="none" stroke="#63b8ff" d="M68.01,-60.37C79.02,-51.3 96.57,-36.84 109.94,-25.82"/>
<polygon fill="#63b8ff" stroke="#63b8ff" points="112.52,-28.23 118.01,-19.17 108.07,-22.83 112.52,-28.23"/>
</a>
</g>
</g>
<!-- Node7 -->
<g id="Node000007" class="node">
<title>Node7</title>
<g id="a_Node000007"><a xlink:title=" ">
<polygon fill="#e0e0e0" stroke="#999999" points="88.03,-19 15.03,-19 15.03,0 88.03,0 88.03,-19"/>
<text text-anchor="middle" x="51.53" y="-7" font-family="Helvetica,sans-Serif" font-size="10.00">string_view</text>
</a>
</g>
</g>
<!-- Node4&#45;&gt;Node7 -->
<g id="edge6_Node000004_Node000007" class="edge">
<title>Node4&#45;&gt;Node7</title>
<g id="a_edge6_Node000004_Node000007"><a xlink:title=" ">
<path fill="none" stroke="#63b8ff" d="M56.65,-60.37C55.82,-52.25 54.54,-39.81 53.47,-29.39"/>
<polygon fill="#63b8ff" stroke="#63b8ff" points="56.93,-28.76 52.42,-19.17 49.96,-29.47 56.93,-28.76"/>
</a>
</g>
</g>
<!-- Node18&#45;&gt;Node8 -->
<g id="edge35_Node000018_Node000008" class="edge">
<title>Node18&#45;&gt;Node8</title>
<g id="a_edge35_Node000018_Node000008"><a xlink:title=" ">
<path fill="none" stroke="#63b8ff" d="M1352.98,-209.71C1178.67,-203.89 750.48,-187.22 690.53,-162 652.08,-145.83 618.34,-108.96 600.98,-87.44"/>
<polygon fill="#63b8ff" stroke="#63b8ff" points="603.69,-85.23 594.76,-79.52 598.18,-89.55 603.69,-85.23"/>
</a>
</g>
</g>
<!-- Node18&#45;&gt;Node9 -->
<g id="edge38_Node000018_Node000009" class="edge">
<title>Node18&#45;&gt;Node9</title>
<g id="a_edge38_Node000018_Node000009"><a xlink:title=" ">
<path fill="none" stroke="#63b8ff" d="M1352.83,-209.71C1187.29,-204.13 796.27,-188.3 742.53,-162 709.57,-145.87 683.79,-110.13 670.48,-88.55"/>
<polygon fill="#63b8ff" stroke="#63b8ff" points="673.38,-86.57 665.27,-79.76 667.36,-90.14 673.38,-86.57"/>
</a>
</g>
</g>
<!-- Node18&#45;&gt;Node14 -->
<g id="edge34_Node000018_Node000014" class="edge">
<title>Node18&#45;&gt;Node14</title>
<g id="a_edge34_Node000018_Node000014"><a xlink:title=" ">
<path fill="none" stroke="#63b8ff" d="M1352.91,-210.35C1193.17,-206.2 825.33,-193.32 778.53,-162 753.61,-145.31 741.52,-110.84 736.2,-89.45"/>
<polygon fill="#63b8ff" stroke="#63b8ff" points="739.6,-88.61 734.01,-79.61 732.77,-90.13 739.6,-88.61"/>
</a>
</g>
</g>
<!-- Node18&#45;&gt;Node15 -->
<g id="edge36_Node000018_Node000015" class="edge">
<title>Node18&#45;&gt;Node15</title>
<g id="a_edge36_Node000018_Node000015"><a xlink:title=" ">
<path fill="none" stroke="#63b8ff" d="M1500.33,-212.49C1593.47,-211.35 1745.86,-203.05 1781.53,-162 1841.57,-92.91 1659.64,-76.26 1573.31,-72.26"/>
<polygon fill="#63b8ff" stroke="#63b8ff" points="1573.42,-68.76 1563.28,-71.83 1573.12,-75.76 1573.42,-68.76"/>
</a>
</g>
</g>
<!-- Node18&#45;&gt;Node19 -->
<g id="edge25_Node000018_Node000019" class="edge">
<title>Node18&#45;&gt;Node19</title>
<g id="a_edge25_Node000018_Node000019"><a xlink:title=" ">
<path fill="none" stroke="#63b8ff" d="M1500.2,-204.64C1585.26,-195.85 1729.3,-180.04 1852.53,-162 1870.74,-159.33 1890.55,-156 1908.33,-152.84"/>
<polygon fill="#63b8ff" stroke="#63b8ff" points="1909.31,-156.22 1918.53,-151.01 1908.07,-149.33 1909.31,-156.22"/>
</a>
</g>
</g>
<!-- Node21 -->
<g id="Node000021" class="node">
<title>Node21</title>
<g id="a_Node000021"><a xlink:href="pool__metrics_8h.html" target="_top" xlink:title="Performance metrics for connection pools.">
<polygon fill="white" stroke="#666666" points="876.03,-151 787.03,-151 787.03,-132 876.03,-132 876.03,-151"/>
<text text-anchor="middle" x="831.53" y="-139" font-family="Helvetica,sans-Serif" font-size="10.00">pool_metrics.h</text>
</a>
</g>
</g>
<!-- Node18&#45;&gt;Node21 -->
<g id="edge27_Node000018_Node000021" class="edge">
<title>Node18&#45;&gt;Node21</title>
<g id="a_edge27_Node000018_Node000021"><a xlink:title=" ">
<path fill="none" stroke="#63b8ff" d="M1352.64,-207.14C1254.47,-200.1 1075.8,-185.32 924.53,-162 909.17,-159.63 892.51,-156.36 877.6,-153.18"/>
<polygon fill="#63b8ff" stroke="#63b8ff" points="878.1,-149.71 867.59,-151 876.61,-156.55 878.1,-149.71"/>
</a>
</g>
</g>
<!-- Node18&#45;&gt;Node23 -->
<g id="edge37_Node000018_Node000023" class="edge">
<title>Node18&#45;&gt;Node23</title>
<g id="a_edge37_Node000018_Node000023"><a xlink:title=" ">
<path fill="none" stroke="#63b8ff" d="M1500.04,-210.15C1638.92,-205.97 1934.64,-193.56 2031.53,-162 2035.71,-160.64 2039.91,-158.64 2043.83,-156.44"/>
<polygon fill="#63b8ff" stroke="#63b8ff" points="2045.7,-159.39 2052.32,-151.12 2041.99,-153.46 2045.7,-159.39"/>
</a>
</g>
</g>
<!-- Node18&#45;&gt;Node24 -->
<g id="edge39_Node000018_Node000024" class="edge">
<title>Node18&#45;&gt;Node24</title>
<g id="a_edge39_Node000018_Node000024"><a xlink:title=" ">
<path fill="none" stroke="#63b8ff" d="M1500.28,-210.67C1595.62,-207.52 1754.85,-197.02 1800.53,-162 1823.34,-144.52 1832.57,-110.84 1836.23,-89.72"/>
<polygon fill="#63b8ff" stroke="#63b8ff" points="1839.71,-90.12 1837.71,-79.72 1832.79,-89.1 1839.71,-90.12"/>
</a>
</g>
</g>
<!-- Node25 -->
<g id="Node000025" class="node">
<title>Node25</title>
<g id="a_Node000025"><a xlink:href="connection__types_8h.html" target="_top" xlink:title="Connection pool types for database_server middleware.">
<polygon fill="white" stroke="#666666" points="1044.03,-151 933.03,-151 933.03,-132 1044.03,-132 1044.03,-151"/>
<text text-anchor="middle" x="988.53" y="-139" font-family="Helvetica,sans-Serif" font-size="10.00">connection_types.h</text>
</a>
</g>
</g>
<!-- Node18&#45;&gt;Node25 -->
<g id="edge40_Node000018_Node000025" class="edge">
<title>Node18&#45;&gt;Node25</title>
<g id="a_edge40_Node000018_Node000025"><a xlink:title=" ">
<path fill="none" stroke="#63b8ff" d="M1352.88,-201.85C1284.92,-192.28 1181.26,-177.18 1091.53,-162 1075.34,-159.26 1057.77,-156.03 1041.8,-152.99"/>
<polygon fill="#63b8ff" stroke="#63b8ff" points="1042.05,-149.48 1031.57,-151.03 1040.73,-156.35 1042.05,-149.48"/>
</a>
</g>
</g>
<!-- Node30 -->
<g id="Node000030" class="node">
<title>Node30</title>
<g id="a_Node000030"><a xlink:title=" ">
<polygon fill="#e0e0e0" stroke="#999999" points="1220.53,-156.5 1100.53,-156.5 1100.53,-126.5 1220.53,-126.5 1220.53,-156.5"/>
<text text-anchor="start" x="1108.53" y="-144.5" font-family="Helvetica,sans-Serif" font-size="10.00">kcenon/thread/core</text>
<text text-anchor="middle" x="1160.53" y="-133.5" font-family="Helvetica,sans-Serif" font-size="10.00">/cancellation_token.h</text>
</a>
</g>
</g>
<!-- Node18&#45;&gt;Node30 -->
<g id="edge52_Node000018_Node000030" class="edge">
<title>Node18&#45;&gt;Node30</title>
<g id="a_edge52_Node000018_Node000030"><a xlink:title=" ">
<path fill="none" stroke="#63b8ff" d="M1369.53,-197.96C1330.14,-188.16 1276.57,-174.61 1229.53,-162 1226.19,-161.1 1222.75,-160.17 1219.29,-159.22"/>
<polygon fill="#63b8ff" stroke="#63b8ff" points="1220.06,-155.8 1209.49,-156.51 1218.2,-162.55 1220.06,-155.8"/>
</a>
</g>
</g>
<!-- Node31 -->
<g id="Node000031" class="node">
<title>Node31</title>
<g id="a_Node000031"><a xlink:title=" ">
<polygon fill="#e0e0e0" stroke="#999999" points="1348.53,-156.5 1238.53,-156.5 1238.53,-126.5 1348.53,-126.5 1348.53,-156.5"/>
<text text-anchor="start" x="1246.53" y="-144.5" font-family="Helvetica,sans-Serif" font-size="10.00">kcenon/thread/core</text>
<text text-anchor="middle" x="1293.53" y="-133.5" font-family="Helvetica,sans-Serif" font-size="10.00">/error_handling.h</text>
</a>
</g>
</g>
<!-- Node18&#45;&gt;Node31 -->
<g id="edge53_Node000018_Node000031" class="edge">
<title>Node18&#45;&gt;Node31</title>
<g id="a_edge53_Node000018_Node000031"><a xlink:title=" ">
<path fill="none" stroke="#63b8ff" d="M1399.62,-197.94C1379.43,-187.38 1351.58,-172.83 1329.49,-161.29"/>
<polygon fill="#63b8ff" stroke="#63b8ff" points="1330.89,-158.07 1320.41,-156.54 1327.65,-164.28 1330.89,-158.07"/>
</a>
</g>
</g>
<!-- Node32 -->
<g id="Node000032" class="node">
<title>Node32</title>
<g id="a_Node000032"><a xlink:title=" ">
<polygon fill="#e0e0e0" stroke="#999999" points="1486.03,-156.5 1367.03,-156.5 1367.03,-126.5 1486.03,-126.5 1486.03,-156.5"/>
<text text-anchor="start" x="1375.03" y="-144.5" font-family="Helvetica,sans-Serif" font-size="10.00">kcenon/thread/core</text>
<text text-anchor="middle" x="1426.53" y="-133.5" font-family="Helvetica,sans-Serif" font-size="10.00">/typed_thread_pool.h</text>
</a>
</g>
</g>
<!-- Node18&#45;&gt;Node32 -->
<g id="edge54_Node000018_Node000032" class="edge">
<title>Node18&#45;&gt;Node32</title>
<g id="a_edge54_Node000018_Node000032"><a xlink:title=" ">
<path fill="none" stroke="#63b8ff" d="M1426.53,-197.94C1426.53,-188.99 1426.53,-177.16 1426.53,-166.73"/>
<polygon fill="#63b8ff" stroke="#63b8ff" points="1430.03,-166.54 1426.53,-156.54 1423.03,-166.54 1430.03,-166.54"/>
</a>
</g>
</g>
<!-- Node33 -->
<g id="Node000033" class="node">
<title>Node33</title>
<g id="a_Node000033"><a xlink:title=" ">
<polygon fill="#e0e0e0" stroke="#999999" points="1635.03,-156.5 1504.03,-156.5 1504.03,-126.5 1635.03,-126.5 1635.03,-156.5"/>
<text text-anchor="start" x="1512.03" y="-144.5" font-family="Helvetica,sans-Serif" font-size="10.00">kcenon/thread/core</text>
<text text-anchor="middle" x="1569.53" y="-133.5" font-family="Helvetica,sans-Serif" font-size="10.00">/typed_thread_worker.h</text>
</a>
</g>
</g>
<!-- Node18&#45;&gt;Node33 -->
<g id="edge55_Node000018_Node000033" class="edge">
<title>Node18&#45;&gt;Node33</title>
<g id="a_edge55_Node000018_Node000033"><a xlink:title=" ">
<path fill="none" stroke="#63b8ff" d="M1455.47,-197.94C1477.37,-187.29 1507.66,-172.57 1531.51,-160.98"/>
<polygon fill="#63b8ff" stroke="#63b8ff" points="1533.17,-164.06 1540.64,-156.54 1530.12,-157.77 1533.17,-164.06"/>
</a>
</g>
</g>
<!-- Node34 -->
<g id="Node000034" class="node">
<title>Node34</title>
<g id="a_Node000034"><a xlink:title=" ">
<polygon fill="#e0e0e0" stroke="#999999" points="1772.03,-162 1653.03,-162 1653.03,-121 1772.03,-121 1772.03,-162"/>
<text text-anchor="start" x="1661.03" y="-150" font-family="Helvetica,sans-Serif" font-size="10.00">kcenon/thread/impl</text>
<text text-anchor="start" x="1661.03" y="-139" font-family="Helvetica,sans-Serif" font-size="10.00">/typed_pool/adaptive</text>
<text text-anchor="middle" x="1712.53" y="-128" font-family="Helvetica,sans-Serif" font-size="10.00">_typed_job_queue.h</text>
</a>
</g>
</g>
<!-- Node18&#45;&gt;Node34 -->
<g id="edge56_Node000018_Node000034" class="edge">
<title>Node18&#45;&gt;Node34</title>
<g id="a_edge56_Node000018_Node000034"><a xlink:title=" ">
<path fill="none" stroke="#63b8ff" d="M1492.1,-197.93C1533.12,-188.9 1587.28,-176.57 1643.16,-162.3"/>
<polygon fill="#63b8ff" stroke="#63b8ff" points="1644.07,-165.68 1652.88,-159.8 1642.32,-158.9 1644.07,-165.68"/>
</a>
</g>
</g>
<!-- Node20 -->
<g id="Node000020" class="node">
<title>Node20</title>
<g id="a_Node000020"><a xlink:title=" ">
<polygon fill="#e0e0e0" stroke="#999999" points="2030.03,-85 1897.03,-85 1897.03,-55 2030.03,-55 2030.03,-85"/>
<text text-anchor="start" x="1905.03" y="-73" font-family="Helvetica,sans-Serif" font-size="10.00">kcenon/thread/impl</text>
<text text-anchor="middle" x="1963.53" y="-62" font-family="Helvetica,sans-Serif" font-size="10.00">/typed_pool/job_types.h</text>
</a>
</g>
</g>
<!-- Node19&#45;&gt;Node20 -->
<g id="edge26_Node000019_Node000020" class="edge">
<title>Node19&#45;&gt;Node20</title>
<g id="a_edge26_Node000019_Node000020"><a xlink:title=" ">
<path fill="none" stroke="#63b8ff" d="M1963.53,-131.98C1963.53,-122.86 1963.53,-107.98 1963.53,-95.2"/>
<polygon fill="#63b8ff" stroke="#63b8ff" points="1967.03,-95.14 1963.53,-85.14 1960.03,-95.14 1967.03,-95.14"/>
</a>
</g>
</g>
<!-- Node21&#45;&gt;Node5 -->
<g id="edge30_Node000021_Node000005" class="edge">
<title>Node21&#45;&gt;Node5</title>
<g id="a_edge30_Node000021_Node000005"><a xlink:title=" ">
<path fill="none" stroke="#63b8ff" d="M831.13,-131.74C829.81,-114.03 824.1,-74.01 799.53,-55 769.03,-31.39 507.12,-16.73 410.85,-12.09"/>
<polygon fill="#63b8ff" stroke="#63b8ff" points="410.89,-8.59 400.74,-11.61 410.56,-15.58 410.89,-8.59"/>
</a>
</g>
</g>
<!-- Node21&#45;&gt;Node6 -->
<g id="edge33_Node000021_Node000006" class="edge">
<title>Node21&#45;&gt;Node6</title>
<g id="a_edge33_Node000021_Node000006"><a xlink:title=" ">
<path fill="none" stroke="#63b8ff" d="M826.29,-131.89C814,-112.01 783.1,-63.95 766.53,-55 739.66,-40.48 287.45,-18.04 161.09,-12.02"/>
<polygon fill="#63b8ff" stroke="#63b8ff" points="161.05,-8.52 150.9,-11.54 160.72,-15.51 161.05,-8.52"/>
</a>
</g>
</g>
<!-- Node21&#45;&gt;Node8 -->
<g id="edge29_Node000021_Node000008" class="edge">
<title>Node21&#45;&gt;Node8</title>
<g id="a_edge29_Node000021_Node000008"><a xlink:title=" ">
<path fill="none" stroke="#63b8ff" d="M793.33,-131.95C751.09,-122.12 681.23,-104.78 622.53,-85 620.91,-84.45 619.26,-83.87 617.59,-83.26"/>
<polygon fill="#63b8ff" stroke="#63b8ff" points="618.73,-79.95 608.14,-79.59 616.2,-86.47 618.73,-79.95"/>
</a>
</g>
</g>
<!-- Node21&#45;&gt;Node14 -->
<g id="edge28_Node000021_Node000014" class="edge">
<title>Node21&#45;&gt;Node14</title>
<g id="a_edge28_Node000021_Node000014"><a xlink:title=" ">
<path fill="none" stroke="#63b8ff" d="M819.39,-131.98C802.92,-120.41 773.24,-99.57 753.21,-85.52"/>
<polygon fill="#63b8ff" stroke="#63b8ff" points="754.97,-82.47 744.77,-79.59 750.95,-88.2 754.97,-82.47"/>
</a>
</g>
</g>
<!-- Node21&#45;&gt;Node16 -->
<g id="edge32_Node000021_Node000016" class="edge">
<title>Node21&#45;&gt;Node16</title>
<g id="a_edge32_Node000021_Node000016"><a xlink:title=" ">
<path fill="none" stroke="#63b8ff" d="M843.8,-131.98C860.51,-120.36 890.69,-99.39 910.92,-85.33"/>
<polygon fill="#63b8ff" stroke="#63b8ff" points="912.96,-88.17 919.17,-79.59 908.96,-82.42 912.96,-88.17"/>
</a>
</g>
</g>
<!-- Node22 -->
<g id="Node000022" class="node">
<title>Node22</title>
<g id="a_Node000022"><a xlink:title=" ">
<polygon fill="#e0e0e0" stroke="#999999" points="889.53,-79.5 851.53,-79.5 851.53,-60.5 889.53,-60.5 889.53,-79.5"/>
<text text-anchor="middle" x="870.53" y="-67.5" font-family="Helvetica,sans-Serif" font-size="10.00">map</text>
</a>
</g>
</g>
<!-- Node21&#45;&gt;Node22 -->
<g id="edge31_Node000021_Node000022" class="edge">
<title>Node21&#45;&gt;Node22</title>
<g id="a_edge31_Node000021_Node000022"><a xlink:title=" ">
<path fill="none" stroke="#63b8ff" d="M836.32,-131.98C842.34,-121.24 852.84,-102.53 860.63,-88.66"/>
<polygon fill="#63b8ff" stroke="#63b8ff" points="863.87,-90.03 865.71,-79.59 857.77,-86.6 863.87,-90.03"/>
</a>
</g>
</g>
<!-- Node25&#45;&gt;Node8 -->
<g id="edge45_Node000025_Node000008" class="edge">
<title>Node25&#45;&gt;Node8</title>
<g id="a_edge45_Node000025_Node000008"><a xlink:title=" ">
<path fill="none" stroke="#63b8ff" d="M946.27,-132C927.68,-128.38 905.56,-124.26 885.53,-121 769.09,-102.02 736.45,-115.71 622.53,-85 620.59,-84.48 618.61,-83.87 616.64,-83.21"/>
<polygon fill="#63b8ff" stroke="#63b8ff" points="617.54,-79.81 606.94,-79.58 615.08,-86.36 617.54,-79.81"/>
</a>
</g>
</g>
<!-- Node25&#45;&gt;Node9 -->
<g id="edge48_Node000025_Node000009" class="edge">
<title>Node25&#45;&gt;Node9</title>
<g id="a_edge48_Node000025_Node000009"><a xlink:title=" ">
<path fill="none" stroke="#63b8ff" d="M943.4,-131.96C863.37,-116.81 704.44,-86.64 698.53,-85 696.25,-84.36 693.9,-83.65 691.56,-82.9"/>
<polygon fill="#63b8ff" stroke="#63b8ff" points="692.63,-79.57 682.04,-79.62 690.35,-86.18 692.63,-79.57"/>
</a>
</g>
</g>
<!-- Node25&#45;&gt;Node13 -->
<g id="edge43_Node000025_Node000013" class="edge">
<title>Node25&#45;&gt;Node13</title>
<g id="a_edge43_Node000025_Node000013"><a xlink:title=" ">
<path fill="none" stroke="#63b8ff" d="M947.56,-131.98C928.73,-128.25 906.06,-124.05 885.53,-121 742.45,-99.71 702.82,-105.49 555.49,-85.07"/>
<polygon fill="#63b8ff" stroke="#63b8ff" points="555.55,-81.54 545.16,-83.62 554.58,-88.47 555.55,-81.54"/>
</a>
</g>
</g>
<!-- Node25&#45;&gt;Node14 -->
<g id="edge44_Node000025_Node000014" class="edge">
<title>Node25&#45;&gt;Node14</title>
<g id="a_edge44_Node000025_Node000014"><a xlink:title=" ">
<path fill="none" stroke="#63b8ff" d="M957.14,-131.98C909.05,-118.92 817.47,-94.06 767.38,-80.46"/>
<polygon fill="#63b8ff" stroke="#63b8ff" points="768.22,-77.06 757.65,-77.82 766.38,-83.82 768.22,-77.06"/>
</a>
</g>
</g>
<!-- Node25&#45;&gt;Node15 -->
<g id="edge47_Node000025_Node000015" class="edge">
<title>Node25&#45;&gt;Node15</title>
<g id="a_edge47_Node000025_Node000015"><a xlink:title=" ">
<path fill="none" stroke="#63b8ff" d="M1014.85,-131.9C1027.86,-127.98 1043.88,-123.63 1058.53,-121 1247.74,-87.06 1301.38,-124.35 1489.53,-85 1492.6,-84.36 1495.76,-83.56 1498.89,-82.66"/>
<polygon fill="#63b8ff" stroke="#63b8ff" points="1500.2,-85.92 1508.68,-79.57 1498.09,-79.24 1500.2,-85.92"/>
</a>
</g>
</g>
<!-- Node25&#45;&gt;Node16 -->
<g id="edge49_Node000025_Node000016" class="edge">
<title>Node25&#45;&gt;Node16</title>
<g id="a_edge49_Node000025_Node000016"><a xlink:title=" ">
<path fill="none" stroke="#63b8ff" d="M981.54,-131.98C972.49,-120.93 956.49,-101.43 945.03,-87.46"/>
<polygon fill="#63b8ff" stroke="#63b8ff" points="947.63,-85.1 938.58,-79.59 942.22,-89.54 947.63,-85.1"/>
</a>
</g>
</g>
<!-- Node25&#45;&gt;Node24 -->
<g id="edge51_Node000025_Node000024" class="edge">
<title>Node25&#45;&gt;Node24</title>
<g id="a_edge51_Node000025_Node000024"><a xlink:title=" ">
<path fill="none" stroke="#63b8ff" d="M1027.49,-131.98C1046.68,-128.07 1070.23,-123.72 1091.53,-121 1232.32,-103.03 1676.51,-79.33 1804.01,-72.76"/>
<polygon fill="#63b8ff" stroke="#63b8ff" points="1804.53,-76.24 1814.34,-72.23 1804.17,-69.24 1804.53,-76.24"/>
</a>
</g>
</g>
<!-- Node26 -->
<g id="Node000026" class="node">
<title>Node26</title>
<g id="a_Node000026"><a xlink:title=" ">
<polygon fill="#e0e0e0" stroke="#999999" points="1186.03,-79.5 1039.03,-79.5 1039.03,-60.5 1186.03,-60.5 1186.03,-79.5"/>
<text text-anchor="middle" x="1112.53" y="-67.5" font-family="Helvetica,sans-Serif" font-size="10.00">database/database_base.h</text>
</a>
</g>
</g>
<!-- Node25&#45;&gt;Node26 -->
<g id="edge41_Node000025_Node000026" class="edge">
<title>Node25&#45;&gt;Node26</title>
<g id="a_edge41_Node000025_Node000026"><a xlink:title=" ">
<path fill="none" stroke="#63b8ff" d="M1003.74,-131.98C1024.84,-120.15 1063.24,-98.63 1088.31,-84.58"/>
<polygon fill="#63b8ff" stroke="#63b8ff" points="1090.19,-87.53 1097.2,-79.59 1086.77,-81.43 1090.19,-87.53"/>
</a>
</g>
</g>
<!-- Node27 -->
<g id="Node000027" class="node">
<title>Node27</title>
<g id="a_Node000027"><a xlink:title=" ">
<polygon fill="#e0e0e0" stroke="#999999" points="1355.03,-79.5 1204.03,-79.5 1204.03,-60.5 1355.03,-60.5 1355.03,-79.5"/>
<text text-anchor="middle" x="1279.53" y="-67.5" font-family="Helvetica,sans-Serif" font-size="10.00">database/database_types.h</text>
</a>
</g>
</g>
<!-- Node25&#45;&gt;Node27 -->
<g id="edge42_Node000025_Node000027" class="edge">
<title>Node25&#45;&gt;Node27</title>
<g id="a_edge42_Node000025_Node000027"><a xlink:title=" ">
<path fill="none" stroke="#63b8ff" d="M1018.08,-131.92C1030.53,-128.4 1045.2,-124.36 1058.53,-121 1116.87,-106.29 1184.38,-91.31 1229.28,-81.63"/>
<polygon fill="#63b8ff" stroke="#63b8ff" points="1230.02,-85.05 1239.06,-79.53 1228.55,-78.21 1230.02,-85.05"/>
</a>
</g>
</g>
<!-- Node28 -->
<g id="Node000028" class="node">
<title>Node28</title>
<g id="a_Node000028"><a xlink:title=" ">
<polygon fill="#e0e0e0" stroke="#999999" points="1480.03,-79.5 1373.03,-79.5 1373.03,-60.5 1480.03,-60.5 1480.03,-79.5"/>
<text text-anchor="middle" x="1426.53" y="-67.5" font-family="Helvetica,sans-Serif" font-size="10.00">condition_variable</text>
</a>
</g>
</g>
<!-- Node25&#45;&gt;Node28 -->
<g id="edge46_Node000025_Node000028" class="edge">
<title>Node25&#45;&gt;Node28</title>
<g id="a_edge46_Node000025_Node000028"><a xlink:title=" ">
<path fill="none" stroke="#63b8ff" d="M1015.56,-131.92C1028.46,-128.1 1044.18,-123.83 1058.53,-121 1192.89,-94.55 1229.56,-108.11 1364.53,-85 1370.04,-84.06 1375.79,-82.94 1381.48,-81.75"/>
<polygon fill="#63b8ff" stroke="#63b8ff" points="1382.55,-85.1 1391.58,-79.57 1381.06,-78.26 1382.55,-85.1"/>
</a>
</g>
</g>
<!-- Node29 -->
<g id="Node000029" class="node">
<title>Node29</title>
<g id="a_Node000029"><a xlink:title=" ">
<polygon fill="#e0e0e0" stroke="#999999" points="1021.03,-79.5 974.03,-79.5 974.03,-60.5 1021.03,-60.5 1021.03,-79.5"/>
<text text-anchor="middle" x="997.53" y="-67.5" font-family="Helvetica,sans-Serif" font-size="10.00">queue</text>
</a>
</g>
</g>
<!-- Node25&#45;&gt;Node29 -->
<g id="edge50_Node000025_Node000029" class="edge">
<title>Node25&#45;&gt;Node29</title>
<g id="a_edge50_Node000025_Node000029"><a xlink:title=" ">
<path fill="none" stroke="#63b8ff" d="M989.64,-131.98C990.99,-121.56 993.31,-103.61 995.09,-89.88"/>
<polygon fill="#63b8ff" stroke="#63b8ff" points="998.61,-89.96 996.42,-79.59 991.67,-89.06 998.61,-89.96"/>
</a>
</g>
</g>
</g>
</svg>
