<?xml version="1.0" encoding="UTF-8" standalone="no"?>
<!DOCTYPE svg PUBLIC "-//W3C//DTD SVG 1.1//EN"
 "http://www.w3.org/Graphics/SVG/1.1/DTD/svg11.dtd">
<!-- Generated by graphviz version 2.43.0 (0)
 -->
<!-- Title: include/kcenon/database_server/metrics/query_metrics.h Pages: 1 -->
<svg width="254pt" height="159pt"
 viewBox="0.00 0.00 254.00 159.00" xmlns="http://www.w3.org/2000/svg" xmlns:xlink="http://www.w3.org/1999/xlink">

<svg id="main" version="1.1" xmlns="http://www.w3.org/2000/svg" xmlns:xlink="http://www.w3.org/1999/xlink" xml:space="preserve" onload="init(evt)">
<style type="text/css"><![CDATA[
.node, .edge {opacity: 0.7;}
.node.selected, .edge.selected {opacity: 1;}
.edge:hover path { stroke: red; }
.edge:hover polygon { stroke: red; fill: red; }
]]></style>
<script type="application/ecmascript" xlink:href="svg.min.js"/>
<svg id="graph" class="graph">
<g id="graph0" class="graph" transform="scale(1 1) rotate(0) translate(4 155)">
<title>include/kcenon/database_server/metrics/query_metrics.h</title>
<!-- Node1 -->
<g id="Node000001" class="node">
<title>Node1</title>
<g id="a_Node000001"><a xlink:title="Metrics structures for query server performance monitoring.">
<polygon fill="#999999" stroke="#666666" points="200,-151 62,-151 62,-110 200,-110 200,-151"/>
<text text-anchor="start" x="70" y="-139" font-family="Helvetica,sans-Serif" font-size="10.00">include/kcenon/database</text>
<text text-anchor="start" x="70" y="-128" font-family="Helvetica,sans-Serif" font-size="10.00">_server/metrics/query</text>
<text text-anchor="middle" x="131" y="-117" font-family="Helvetica,sans-Serif" font-size="10.00">_metrics.h</text>
</a>
</g>
</g>
<!-- Node2 -->
<g id="Node000002" class="node">
<title>Node2</title>
<g id="a_Node000002"><a xlink:href="metrics__base_8h.html" target="_top" xlink:title="Common utilities for atomic metrics operations.">
<polygon fill="white" stroke="#666666" points="139.5,-74 48.5,-74 48.5,-55 139.5,-55 139.5,-74"/>
<text text-anchor="middle" x="94" y="-62" font-family="Helvetica,sans-Serif" font-size="10.00">metrics_base.h</text>
</a>
</g>
</g>
<!-- Node1&#45;&gt;Node2 -->
<g id="edge1_Node000001_Node000002" class="edge">
<title>Node1&#45;&gt;Node2</title>
<g id="a_edge1_Node000001_Node000002"><a xlink:title=" ">
<path fill="none" stroke="#63b8ff" d="M119.7,-109.95C114.75,-101.39 108.99,-91.42 104.17,-83.1"/>
<polygon fill="#63b8ff" stroke="#63b8ff" points="107.1,-81.17 99.06,-74.26 101.04,-84.67 107.1,-81.17"/>
</a>
</g>
</g>
<!-- Node3 -->
<g id="Node000003" class="node">
<title>Node3</title>
<g id="a_Node000003"><a xlink:title=" ">
<polygon fill="#e0e0e0" stroke="#999999" points="50,-19 0,-19 0,0 50,0 50,-19"/>
<text text-anchor="middle" x="25" y="-7" font-family="Helvetica,sans-Serif" font-size="10.00">atomic</text>
</a>
</g>
</g>
<!-- Node1&#45;&gt;Node3 -->
<g id="edge5_Node000001_Node000003" class="edge">
<title>Node1&#45;&gt;Node3</title>
<g id="a_edge5_Node000001_Node000003"><a xlink:title=" ">
<path fill="none" stroke="#63b8ff" d="M83.86,-110C67.78,-101.19 51.08,-89.28 40,-74 30.54,-60.96 26.96,-42.82 25.65,-29.26"/>
<polygon fill="#63b8ff" stroke="#63b8ff" points="29.14,-28.92 25,-19.17 22.15,-29.37 29.14,-28.92"/>
</a>
</g>
</g>
<!-- Node4 -->
<g id="Node000004" class="node">
<title>Node4</title>
<g id="a_Node000004"><a xlink:title=" ">
<polygon fill="#e0e0e0" stroke="#999999" points="188,-19 138,-19 138,0 188,0 188,-19"/>
<text text-anchor="middle" x="163" y="-7" font-family="Helvetica,sans-Serif" font-size="10.00">cstdint</text>
</a>
</g>
</g>
<!-- Node1&#45;&gt;Node4 -->
<g id="edge7_Node000001_Node000004" class="edge">
<title>Node1&#45;&gt;Node4</title>
<g id="a_edge7_Node000001_Node000004"><a xlink:title=" ">
<path fill="none" stroke="#63b8ff" d="M137.88,-109.86C141.45,-99.31 145.73,-86.02 149,-74 153.08,-59 156.82,-41.77 159.4,-29.05"/>
<polygon fill="#63b8ff" stroke="#63b8ff" points="162.85,-29.68 161.36,-19.19 155.98,-28.32 162.85,-29.68"/>
</a>
</g>
</g>
<!-- Node6 -->
<g id="Node000006" class="node">
<title>Node6</title>
<g id="a_Node000006"><a xlink:title=" ">
<polygon fill="#e0e0e0" stroke="#999999" points="246,-74 196,-74 196,-55 246,-55 246,-74"/>
<text text-anchor="middle" x="221" y="-62" font-family="Helvetica,sans-Serif" font-size="10.00">chrono</text>
</a>
</g>
</g>
<!-- Node1&#45;&gt;Node6 -->
<g id="edge6_Node000001_Node000006" class="edge">
<title>Node1&#45;&gt;Node6</title>
<g id="a_edge6_Node000001_Node000006"><a xlink:title=" ">
<path fill="none" stroke="#63b8ff" d="M158.49,-109.95C171.97,-100.37 187.93,-89.02 200.35,-80.19"/>
<polygon fill="#63b8ff" stroke="#63b8ff" points="202.56,-82.91 208.68,-74.26 198.5,-77.2 202.56,-82.91"/>
</a>
</g>
</g>
<!-- Node2&#45;&gt;Node3 -->
<g id="edge2_Node000002_Node000003" class="edge">
<title>Node2&#45;&gt;Node3</title>
<g id="a_edge2_Node000002_Node000003"><a xlink:title=" ">
<path fill="none" stroke="#63b8ff" d="M82.91,-54.98C72.51,-47 56.74,-34.88 44.28,-25.31"/>
<polygon fill="#63b8ff" stroke="#63b8ff" points="46.35,-22.49 36.29,-19.17 42.09,-28.04 46.35,-22.49"/>
</a>
</g>
</g>
<!-- Node2&#45;&gt;Node4 -->
<g id="edge3_Node000002_Node000004" class="edge">
<title>Node2&#45;&gt;Node4</title>
<g id="a_edge3_Node000002_Node000004"><a xlink:title=" ">
<path fill="none" stroke="#63b8ff" d="M105.09,-54.98C115.49,-47 131.26,-34.88 143.72,-25.31"/>
<polygon fill="#63b8ff" stroke="#63b8ff" points="145.91,-28.04 151.71,-19.17 141.65,-22.49 145.91,-28.04"/>
</a>
</g>
</g>
<!-- Node5 -->
<g id="Node000005" class="node">
<title>Node5</title>
<g id="a_Node000005"><a xlink:title=" ">
<polygon fill="#e0e0e0" stroke="#999999" points="116,-19 72,-19 72,0 116,0 116,-19"/>
<text text-anchor="middle" x="94" y="-7" font-family="Helvetica,sans-Serif" font-size="10.00">limits</text>
</a>
</g>
</g>
<!-- Node2&#45;&gt;Node5 -->
<g id="edge4_Node000002_Node000005" class="edge">
<title>Node2&#45;&gt;Node5</title>
<g id="a_edge4_Node000002_Node000005"><a xlink:title=" ">
<path fill="none" stroke="#63b8ff" d="M94,-54.75C94,-47.8 94,-37.85 94,-29.13"/>
<polygon fill="#63b8ff" stroke="#63b8ff" points="97.5,-29.09 94,-19.09 90.5,-29.09 97.5,-29.09"/>
</a>
</g>
</g>
</g>
</svg>
</svg>

<style type='text/css'>
<![CDATA[
[data-mouse-over-selected='false'] { opacity: 0.7; }
[data-mouse-over-selected='true']  { opacity: 1.0; }
]]>
</style>
<script type="application/ecmascript"><![CDATA[
document.addEventListener('DOMContentLoaded', (event) => {
  highlightEdges();
  highlightAdjacentNodes();
});
]]></script>
</svg>
