<?xml version="1.0" encoding="UTF-8" standalone="no"?>
<!DOCTYPE svg PUBLIC "-//W3C//DTD SVG 1.1//EN"
 "http://www.w3.org/Graphics/SVG/1.1/DTD/svg11.dtd">
<!-- Generated by graphviz version 2.43.0 (0)
 -->
<!-- Title: include/kcenon/database_server/metrics/query_collector_base.h Pages: 1 -->
<svg width="286pt" height="192pt"
 viewBox="0.00 0.00 285.50 192.00" xmlns="http://www.w3.org/2000/svg" xmlns:xlink="http://www.w3.org/1999/xlink">
<g id="graph0" class="graph" transform="scale(1 1) rotate(0) translate(4 188)">
<title>include/kcenon/database_server/metrics/query_collector_base.h</title>
<!-- Node1 -->
<g id="Node000001" class="node">
<title>Node1</title>
<g id="a_Node000001"><a xlink:title="CRTP base class for query metrics collectors.">
<polygon fill="#999999" stroke="#666666" points="201,-184 63,-184 63,-143 201,-143 201,-184"/>
<text text-anchor="start" x="71" y="-172" font-family="Helvetica,sans-Serif" font-size="10.00">include/kcenon/database</text>
<text text-anchor="start" x="71" y="-161" font-family="Helvetica,sans-Serif" font-size="10.00">_server/metrics/query</text>
<text text-anchor="middle" x="132" y="-150" font-family="Helvetica,sans-Serif" font-size="10.00">_collector_base.h</text>
</a>
</g>
</g>
<!-- Node2 -->
<g id="Node000002" class="node">
<title>Node2</title>
<g id="a_Node000002"><a xlink:href="query__metrics__collector_8h.html" target="_top" xlink:title="CRTP&#45;based query metrics collector implementation.">
<polygon fill="white" stroke="#666666" points="201,-107 63,-107 63,-66 201,-66 201,-107"/>
<text text-anchor="start" x="71" y="-95" font-family="Helvetica,sans-Serif" font-size="10.00">include/kcenon/database</text>
<text text-anchor="start" x="71" y="-84" font-family="Helvetica,sans-Serif" font-size="10.00">_server/metrics/query</text>
<text text-anchor="middle" x="132" y="-73" font-family="Helvetica,sans-Serif" font-size="10.00">_metrics_collector.h</text>
</a>
</g>
</g>
<!-- Node1&#45;&gt;Node2 -->
<g id="edge1_Node000001_Node000002" class="edge">
<title>Node1&#45;&gt;Node2</title>
<g id="a_edge1_Node000001_Node000002"><a xlink:title=" ">
<path fill="none" stroke="#63b8ff" d="M132,-132.69C132,-124.08 132,-114.9 132,-107.07"/>
<polygon fill="#63b8ff" stroke="#63b8ff" points="128.5,-132.79 132,-142.79 135.5,-132.79 128.5,-132.79"/>
</a>
</g>
</g>
<!-- Node3 -->
<g id="Node000003" class="node">
<title>Node3</title>
<g id="a_Node000003"><a xlink:href="collector__integration_8cpp.html" target="_top" xlink:title="Integration layer between query_metrics_collector and monitoring_system.">
<polygon fill="white" stroke="#666666" points="116,-30 0,-30 0,0 116,0 116,-30"/>
<text text-anchor="start" x="8" y="-18" font-family="Helvetica,sans-Serif" font-size="10.00">src/metrics/collector</text>
<text text-anchor="middle" x="58" y="-7" font-family="Helvetica,sans-Serif" font-size="10.00">_integration.cpp</text>
</a>
</g>
</g>
<!-- Node2&#45;&gt;Node3 -->
<g id="edge2_Node000002_Node000003" class="edge">
<title>Node2&#45;&gt;Node3</title>
<g id="a_edge2_Node000002_Node000003"><a xlink:title=" ">
<path fill="none" stroke="#63b8ff" d="M103.61,-58.83C93.16,-49.02 81.74,-38.3 72.95,-30.04"/>
<polygon fill="#63b8ff" stroke="#63b8ff" points="101.31,-61.48 110.99,-65.77 106.1,-56.37 101.31,-61.48"/>
</a>
</g>
</g>
<!-- Node4 -->
<g id="Node000004" class="node">
<title>Node4</title>
<g id="a_Node000004"><a xlink:href="query__metrics__collector_8cpp.html" target="_top" xlink:title=" ">
<polygon fill="white" stroke="#666666" points="277.5,-30 134.5,-30 134.5,0 277.5,0 277.5,-30"/>
<text text-anchor="start" x="142.5" y="-18" font-family="Helvetica,sans-Serif" font-size="10.00">src/metrics/query_metrics</text>
<text text-anchor="middle" x="206" y="-7" font-family="Helvetica,sans-Serif" font-size="10.00">_collector.cpp</text>
</a>
</g>
</g>
<!-- Node2&#45;&gt;Node4 -->
<g id="edge3_Node000002_Node000004" class="edge">
<title>Node2&#45;&gt;Node4</title>
<g id="a_edge3_Node000002_Node000004"><a xlink:title=" ">
<path fill="none" stroke="#63b8ff" d="M160.39,-58.83C170.84,-49.02 182.26,-38.3 191.05,-30.04"/>
<polygon fill="#63b8ff" stroke="#63b8ff" points="157.9,-56.37 153.01,-65.77 162.69,-61.48 157.9,-56.37"/>
</a>
</g>
</g>
</g>
</svg>
