<?xml version="1.0" encoding="UTF-8" standalone="no"?>
<!DOCTYPE svg PUBLIC "-//W3C//DTD SVG 1.1//EN"
 "http://www.w3.org/Graphics/SVG/1.1/DTD/svg11.dtd">
<!-- Generated by graphviz version 2.43.0 (0)
 -->
<!-- Title: include/kcenon/database_server/gateway/query_protocol.h Pages: 1 -->
<svg width="709pt" height="269pt"
 viewBox="0.00 0.00 709.02 269.00" xmlns="http://www.w3.org/2000/svg" xmlns:xlink="http://www.w3.org/1999/xlink">
<g id="graph0" class="graph" transform="scale(1 1) rotate(0) translate(4 265)">
<title>include/kcenon/database_server/gateway/query_protocol.h</title>
<!-- Node1 -->
<g id="Node000001" class="node">
<title>Node1</title>
<g id="a_Node000001"><a xlink:title="Query protocol message structures for database gateway.">
<polygon fill="#999999" stroke="#666666" points="426.02,-261 288.02,-261 288.02,-220 426.02,-220 426.02,-261"/>
<text text-anchor="start" x="296.02" y="-249" font-family="Helvetica,sans-Serif" font-size="10.00">include/kcenon/database</text>
<text text-anchor="start" x="296.02" y="-238" font-family="Helvetica,sans-Serif" font-size="10.00">_server/gateway/query</text>
<text text-anchor="middle" x="357.02" y="-227" font-family="Helvetica,sans-Serif" font-size="10.00">_protocol.h</text>
</a>
</g>
</g>
<!-- Node2 -->
<g id="Node000002" class="node">
<title>Node2</title>
<g id="a_Node000002"><a xlink:href="auth__middleware_8h.html" target="_top" xlink:title="Authentication middleware for database gateway.">
<polygon fill="white" stroke="#666666" points="253.02,-178.5 59.02,-178.5 59.02,-148.5 253.02,-148.5 253.02,-178.5"/>
<text text-anchor="start" x="67.02" y="-166.5" font-family="Helvetica,sans-Serif" font-size="10.00">include/kcenon/database</text>
<text text-anchor="middle" x="156.02" y="-155.5" font-family="Helvetica,sans-Serif" font-size="10.00">_server/gateway/auth_middleware.h</text>
</a>
</g>
</g>
<!-- Node1&#45;&gt;Node2 -->
<g id="edge1_Node000001_Node000002" class="edge">
<title>Node1&#45;&gt;Node2</title>
<g id="a_edge1_Node000001_Node000002"><a xlink:title=" ">
<path fill="none" stroke="#63b8ff" d="M295.14,-216.41C262.01,-204.05 222.27,-189.22 193.77,-178.58"/>
<polygon fill="#63b8ff" stroke="#63b8ff" points="294.15,-219.77 304.74,-219.99 296.59,-213.22 294.15,-219.77"/>
</a>
</g>
</g>
<!-- Node3 -->
<g id="Node000003" class="node">
<title>Node3</title>
<g id="a_Node000003"><a xlink:href="gateway__server_8h.html" target="_top" xlink:title="Database gateway TCP server.">
<polygon fill="white" stroke="#666666" points="362.52,-107 219.52,-107 219.52,-66 362.52,-66 362.52,-107"/>
<text text-anchor="start" x="227.52" y="-95" font-family="Helvetica,sans-Serif" font-size="10.00">include/kcenon/database</text>
<text text-anchor="start" x="227.52" y="-84" font-family="Helvetica,sans-Serif" font-size="10.00">_server/gateway/gateway</text>
<text text-anchor="middle" x="291.02" y="-73" font-family="Helvetica,sans-Serif" font-size="10.00">_server.h</text>
</a>
</g>
</g>
<!-- Node1&#45;&gt;Node3 -->
<g id="edge7_Node000001_Node000003" class="edge">
<title>Node1&#45;&gt;Node3</title>
<g id="a_edge7_Node000001_Node000003"><a xlink:title=" ">
<path fill="none" stroke="#63b8ff" d="M344.55,-210.76C331.44,-180.57 311.16,-133.87 299.69,-107.47"/>
<polygon fill="#63b8ff" stroke="#63b8ff" points="341.34,-212.16 348.53,-219.94 347.76,-209.37 341.34,-212.16"/>
</a>
</g>
</g>
<!-- Node7 -->
<g id="Node000007" class="node">
<title>Node7</title>
<g id="a_Node000007"><a xlink:href="query__router_8h.html" target="_top" xlink:title="Query router with load balancing for database gateway.">
<polygon fill="white" stroke="#666666" points="511.02,-184 373.02,-184 373.02,-143 511.02,-143 511.02,-184"/>
<text text-anchor="start" x="381.02" y="-172" font-family="Helvetica,sans-Serif" font-size="10.00">include/kcenon/database</text>
<text text-anchor="start" x="381.02" y="-161" font-family="Helvetica,sans-Serif" font-size="10.00">_server/gateway/query</text>
<text text-anchor="middle" x="442.02" y="-150" font-family="Helvetica,sans-Serif" font-size="10.00">_router.h</text>
</a>
</g>
</g>
<!-- Node1&#45;&gt;Node7 -->
<g id="edge8_Node000001_Node000007" class="edge">
<title>Node1&#45;&gt;Node7</title>
<g id="a_edge8_Node000001_Node000007"><a xlink:title=" ">
<path fill="none" stroke="#63b8ff" d="M386.98,-213.07C397.8,-203.52 409.81,-192.93 419.84,-184.07"/>
<polygon fill="#63b8ff" stroke="#63b8ff" points="384.54,-210.55 379.36,-219.79 389.17,-215.8 384.54,-210.55"/>
</a>
</g>
</g>
<!-- Node9 -->
<g id="Node000009" class="node">
<title>Node9</title>
<g id="a_Node000009"><a xlink:href="query__protocol_8cpp.html" target="_top" xlink:title=" ">
<polygon fill="white" stroke="#666666" points="701.02,-173 529.02,-173 529.02,-154 701.02,-154 701.02,-173"/>
<text text-anchor="middle" x="615.02" y="-161" font-family="Helvetica,sans-Serif" font-size="10.00">src/gateway/query_protocol.cpp</text>
</a>
</g>
</g>
<!-- Node1&#45;&gt;Node9 -->
<g id="edge11_Node000001_Node000009" class="edge">
<title>Node1&#45;&gt;Node9</title>
<g id="a_edge11_Node000001_Node000009"><a xlink:title=" ">
<path fill="none" stroke="#63b8ff" d="M433.81,-217.18C484.76,-202.37 548.77,-183.76 585.48,-173.09"/>
<polygon fill="#63b8ff" stroke="#63b8ff" points="432.76,-213.84 424.14,-219.99 434.72,-220.56 432.76,-213.84"/>
</a>
</g>
</g>
<!-- Node2&#45;&gt;Node3 -->
<g id="edge2_Node000002_Node000003" class="edge">
<title>Node2&#45;&gt;Node3</title>
<g id="a_edge2_Node000002_Node000003"><a xlink:title=" ">
<path fill="none" stroke="#63b8ff" d="M190.23,-143.5C210.29,-132.35 235.58,-118.3 255.81,-107.06"/>
<polygon fill="#63b8ff" stroke="#63b8ff" points="188.46,-140.48 181.42,-148.39 191.86,-146.6 188.46,-140.48"/>
</a>
</g>
</g>
<!-- Node5 -->
<g id="Node000005" class="node">
<title>Node5</title>
<g id="a_Node000005"><a xlink:href="gateway__server_8cpp.html" target="_top" xlink:title=" ">
<polygon fill="white" stroke="#666666" points="239.52,-30 118.52,-30 118.52,0 239.52,0 239.52,-30"/>
<text text-anchor="start" x="126.52" y="-18" font-family="Helvetica,sans-Serif" font-size="10.00">src/gateway/gateway</text>
<text text-anchor="middle" x="179.02" y="-7" font-family="Helvetica,sans-Serif" font-size="10.00">_server.cpp</text>
</a>
</g>
</g>
<!-- Node2&#45;&gt;Node5 -->
<g id="edge6_Node000002_Node000005" class="edge">
<title>Node2&#45;&gt;Node5</title>
<g id="a_edge6_Node000002_Node000005"><a xlink:title=" ">
<path fill="none" stroke="#63b8ff" d="M58.65,-144.87C38.78,-136.66 20.24,-124.62 8.02,-107 -2.35,-92.02 -2.9,-80.58 8.02,-66 21.52,-47.99 74.91,-34.3 118.49,-25.84"/>
<polygon fill="#63b8ff" stroke="#63b8ff" points="57.58,-148.21 68.17,-148.5 60.07,-141.67 57.58,-148.21"/>
</a>
</g>
</g>
<!-- Node6 -->
<g id="Node000006" class="node">
<title>Node6</title>
<g id="a_Node000006"><a xlink:href="auth__middleware_8cpp.html" target="_top" xlink:title=" ">
<polygon fill="white" stroke="#666666" points="201.02,-96 17.02,-96 17.02,-77 201.02,-77 201.02,-96"/>
<text text-anchor="middle" x="109.02" y="-84" font-family="Helvetica,sans-Serif" font-size="10.00">src/gateway/auth_middleware.cpp</text>
</a>
</g>
</g>
<!-- Node2&#45;&gt;Node6 -->
<g id="edge5_Node000002_Node000006" class="edge">
<title>Node2&#45;&gt;Node6</title>
<g id="a_edge5_Node000002_Node000006"><a xlink:title=" ">
<path fill="none" stroke="#63b8ff" d="M141.83,-139.85C132.67,-125.23 121.25,-107.01 114.59,-96.37"/>
<polygon fill="#63b8ff" stroke="#63b8ff" points="138.91,-141.78 147.18,-148.39 144.84,-138.06 138.91,-141.78"/>
</a>
</g>
</g>
<!-- Node4 -->
<g id="Node000004" class="node">
<title>Node4</title>
<g id="a_Node000004"><a xlink:href="server__app_8cpp.html" target="_top" xlink:title=" ">
<polygon fill="white" stroke="#666666" points="468.02,-24.5 336.02,-24.5 336.02,-5.5 468.02,-5.5 468.02,-24.5"/>
<text text-anchor="middle" x="402.02" y="-12.5" font-family="Helvetica,sans-Serif" font-size="10.00">src/core/server_app.cpp</text>
</a>
</g>
</g>
<!-- Node3&#45;&gt;Node4 -->
<g id="edge3_Node000003_Node000004" class="edge">
<title>Node3&#45;&gt;Node4</title>
<g id="a_edge3_Node000003_Node000004"><a xlink:title=" ">
<path fill="none" stroke="#63b8ff" d="M330.94,-60.51C351.07,-47.9 374.18,-33.43 388.44,-24.5"/>
<polygon fill="#63b8ff" stroke="#63b8ff" points="328.86,-57.68 322.24,-65.96 332.57,-63.62 328.86,-57.68"/>
</a>
</g>
</g>
<!-- Node3&#45;&gt;Node5 -->
<g id="edge4_Node000003_Node000005" class="edge">
<title>Node3&#45;&gt;Node5</title>
<g id="a_edge4_Node000003_Node000005"><a xlink:title=" ">
<path fill="none" stroke="#63b8ff" d="M250.63,-60.44C234.19,-50.23 215.8,-38.82 201.77,-30.11"/>
<polygon fill="#63b8ff" stroke="#63b8ff" points="249.19,-63.66 259.53,-65.96 252.88,-57.71 249.19,-63.66"/>
</a>
</g>
</g>
<!-- Node7&#45;&gt;Node4 -->
<g id="edge9_Node000007_Node000004" class="edge">
<title>Node7&#45;&gt;Node4</title>
<g id="a_edge9_Node000007_Node000004"><a xlink:title=" ">
<path fill="none" stroke="#63b8ff" d="M517.29,-138.1C530.71,-130.3 542.97,-120.14 551.02,-107 560.55,-91.46 561.66,-80.79 551.02,-66 532.07,-39.64 498.54,-26.98 468.08,-20.98"/>
<polygon fill="#63b8ff" stroke="#63b8ff" points="515.5,-135.09 508.34,-142.89 518.81,-141.26 515.5,-135.09"/>
</a>
</g>
</g>
<!-- Node8 -->
<g id="Node000008" class="node">
<title>Node8</title>
<g id="a_Node000008"><a xlink:href="query__router_8cpp.html" target="_top" xlink:title=" ">
<polygon fill="white" stroke="#666666" points="541.52,-96 380.52,-96 380.52,-77 541.52,-77 541.52,-96"/>
<text text-anchor="middle" x="461.02" y="-84" font-family="Helvetica,sans-Serif" font-size="10.00">src/gateway/query_router.cpp</text>
</a>
</g>
</g>
<!-- Node7&#45;&gt;Node8 -->
<g id="edge10_Node000007_Node000008" class="edge">
<title>Node7&#45;&gt;Node8</title>
<g id="a_edge10_Node000007_Node000008"><a xlink:title=" ">
<path fill="none" stroke="#63b8ff" d="M449.48,-133.09C452.82,-119.88 456.52,-105.27 458.81,-96.24"/>
<polygon fill="#63b8ff" stroke="#63b8ff" points="446.08,-132.24 447.02,-142.79 452.87,-133.96 446.08,-132.24"/>
</a>
</g>
</g>
</g>
</svg>
