<?xml version="1.0" encoding="UTF-8" standalone="no"?>
<!DOCTYPE svg PUBLIC "-//W3C//DTD SVG 1.1//EN"
 "http://www.w3.org/Graphics/SVG/1.1/DTD/svg11.dtd">
<!-- Generated by graphviz version 2.43.0 (0)
 -->
<!-- Title: src/gateway/query_cache.cpp Pages: 1 -->
<!--zoomable 269 -->

<svg id="main" version="1.1" xmlns="http://www.w3.org/2000/svg" xmlns:xlink="http://www.w3.org/1999/xlink" xml:space="preserve" onload="init(evt)">
<style type="text/css"><![CDATA[
.node, .edge {opacity: 0.7;}
.node.selected, .edge.selected {opacity: 1;}
.edge:hover path { stroke: red; }
.edge:hover polygon { stroke: red; fill: red; }
]]></style>

<defs>
  <circle id="rim" cx="0" cy="0" r="7"/>
  <circle id="rim2" cx="0" cy="0" r="3.5"/>
  <g id="zoomPlus">
    <use xlink:href="#rim" fill="#404040"><set attributeName="fill" to="#808080" begin="zoomplus.mouseover" end="zoomplus.mouseout"/></use>
    <path d="M-4,0h8M0,-4v8" fill="none" stroke="white" stroke-width="1.5" pointer-events="none"/>
  </g>
  <g id="zoomMin">
    <use xlink:href="#rim" fill="#404040"><set attributeName="fill" to="#808080" begin="zoomminus.mouseover" end="zoomminus.mouseout"/></use>
    <path d="M-4,0h8" fill="none" stroke="white" stroke-width="1.5" pointer-events="none"/>
  </g>
  <g id="arrowUp" transform="translate(30 24)">
    <use xlink:href="#rim"/>
    <path pointer-events="none" fill="none" stroke="white" stroke-width="1.5" d="M0,-3.0v7 M-2.5,-0.5L0,-3.0L2.5,-0.5"/>
  </g>
  <g id="arrowRight" transform="rotate(90) translate(36 -43)">
    <use xlink:href="#rim"/>
    <path pointer-events="none" fill="none" stroke="white" stroke-width="1.5" d="M0,-3.0v7 M-2.5,-0.5L0,-3.0L2.5,-0.5"/>
  </g>
  <g id="arrowDown" transform="rotate(180) translate(-30 -48)">
    <use xlink:href="#rim"/>
    <path pointer-events="none" fill="none" stroke="white" stroke-width="1.5" d="M0,-3.0v7 M-2.5,-0.5L0,-3.0L2.5,-0.5"/>
  </g>
  <g id="arrowLeft" transform="rotate(270) translate(-36 17)">
    <use xlink:href="#rim"/>
    <path pointer-events="none" fill="none" stroke="white" stroke-width="1.5" d="M0,-3.0v7 M-2.5,-0.5L0,-3.0L2.5,-0.5"/>
  </g>
  <g id="resetDef">
    <use xlink:href="#rim2" fill="#404040"><set attributeName="fill" to="#808080" begin="reset.mouseover" end="reset.mouseout"/></use>
  </g>
</defs>
<script type="application/ecmascript">
var viewWidth = 1019;
var viewHeight = 269;
var sectionId = 'dynsection-0';
</script>
<script type="application/ecmascript" xlink:href="svg.min.js"/>
<svg id="graph" class="graph">
<g id="viewport">
<title>src/gateway/query_cache.cpp</title>
<!-- Node1 -->
<g id="Node000001" class="node">
<title>Node1</title>
<g id="a_Node000001"><a xlink:title=" ">
<polygon fill="#999999" stroke="#666666" points="902.83,-261 741.83,-261 741.83,-242 902.83,-242 902.83,-261"/>
<text text-anchor="middle" x="822.33" y="-249" font-family="Helvetica,sans-Serif" font-size="10.00">src/gateway/query_cache.cpp</text>
</a>
</g>
</g>
<!-- Node2 -->
<g id="Node000002" class="node">
<title>Node2</title>
<g id="a_Node000002"><a xlink:href="query__cache_8h.html" target="_top" xlink:title="Query result cache with LRU eviction and TTL expiration.">
<polygon fill="white" stroke="#666666" points="579.33,-206 443.33,-206 443.33,-176 579.33,-176 579.33,-206"/>
<text text-anchor="start" x="451.33" y="-194" font-family="Helvetica,sans-Serif" font-size="10.00">kcenon/database_server</text>
<text text-anchor="middle" x="511.33" y="-183" font-family="Helvetica,sans-Serif" font-size="10.00">/gateway/query_cache.h</text>
</a>
</g>
</g>
<!-- Node1&#45;&gt;Node2 -->
<g id="edge1_Node000001_Node000002" class="edge">
<title>Node1&#45;&gt;Node2</title>
<g id="a_edge1_Node000001_Node000002"><a xlink:title=" ">
<path fill="none" stroke="#63b8ff" d="M777.1,-241.99C728.05,-232.77 648.84,-217.87 589.64,-206.73"/>
<polygon fill="#63b8ff" stroke="#63b8ff" points="590.05,-203.25 579.57,-204.84 588.75,-210.13 590.05,-203.25"/>
</a>
</g>
</g>
<!-- Node16 -->
<g id="Node000016" class="node">
<title>Node16</title>
<g id="a_Node000016"><a xlink:title=" ">
<polygon fill="#e0e0e0" stroke="#999999" points="1010.83,-140 945.83,-140 945.83,-121 1010.83,-121 1010.83,-140"/>
<text text-anchor="middle" x="978.33" y="-128" font-family="Helvetica,sans-Serif" font-size="10.00">functional</text>
</a>
</g>
</g>
<!-- Node1&#45;&gt;Node16 -->
<g id="edge30_Node000001_Node000016" class="edge">
<title>Node1&#45;&gt;Node16</title>
<g id="a_edge30_Node000001_Node000016"><a xlink:title=" ">
<path fill="none" stroke="#63b8ff" d="M817.24,-241.65C809.3,-226.53 796.35,-195.49 811.33,-176 819.01,-166 888.66,-149.93 935.55,-140.09"/>
<polygon fill="#63b8ff" stroke="#63b8ff" points="936.39,-143.49 945.47,-138.03 934.97,-136.64 936.39,-143.49"/>
</a>
</g>
</g>
<!-- Node22 -->
<g id="Node000022" class="node">
<title>Node22</title>
<g id="a_Node000022"><a xlink:title=" ">
<polygon fill="#e0e0e0" stroke="#999999" points="884.33,-200.5 820.33,-200.5 820.33,-181.5 884.33,-181.5 884.33,-200.5"/>
<text text-anchor="middle" x="852.33" y="-188.5" font-family="Helvetica,sans-Serif" font-size="10.00">algorithm</text>
</a>
</g>
</g>
<!-- Node1&#45;&gt;Node22 -->
<g id="edge29_Node000001_Node000022" class="edge">
<title>Node1&#45;&gt;Node22</title>
<g id="a_edge29_Node000001_Node000022"><a xlink:title=" ">
<path fill="none" stroke="#63b8ff" d="M826.75,-241.87C831.1,-233.4 837.84,-220.24 843.32,-209.57"/>
<polygon fill="#63b8ff" stroke="#63b8ff" points="846.43,-211.16 847.88,-200.67 840.2,-207.97 846.43,-211.16"/>
</a>
</g>
</g>
<!-- Node23 -->
<g id="Node000023" class="node">
<title>Node23</title>
<g id="a_Node000023"><a xlink:title=" ">
<polygon fill="#e0e0e0" stroke="#999999" points="958.33,-200.5 902.33,-200.5 902.33,-181.5 958.33,-181.5 958.33,-200.5"/>
<text text-anchor="middle" x="930.33" y="-188.5" font-family="Helvetica,sans-Serif" font-size="10.00">sstream</text>
</a>
</g>
</g>
<!-- Node1&#45;&gt;Node23 -->
<g id="edge31_Node000001_Node000023" class="edge">
<title>Node1&#45;&gt;Node23</title>
<g id="a_edge31_Node000001_Node000023"><a xlink:title=" ">
<path fill="none" stroke="#63b8ff" d="M838.26,-241.87C855.97,-232.28 884.79,-216.67 905.47,-205.47"/>
<polygon fill="#63b8ff" stroke="#63b8ff" points="907.2,-208.51 914.33,-200.67 903.87,-202.35 907.2,-208.51"/>
</a>
</g>
</g>
<!-- Node3 -->
<g id="Node000003" class="node">
<title>Node3</title>
<g id="a_Node000003"><a xlink:href="query__protocol_8h.html" target="_top" xlink:title="Query protocol message structures for database gateway.">
<polygon fill="white" stroke="#666666" points="199.33,-140 101.33,-140 101.33,-121 199.33,-121 199.33,-140"/>
<text text-anchor="middle" x="150.33" y="-128" font-family="Helvetica,sans-Serif" font-size="10.00">query_protocol.h</text>
</a>
</g>
</g>
<!-- Node2&#45;&gt;Node3 -->
<g id="edge2_Node000002_Node000003" class="edge">
<title>Node2&#45;&gt;Node3</title>
<g id="a_edge2_Node000002_Node000003"><a xlink:title=" ">
<path fill="none" stroke="#63b8ff" d="M443,-178.93C375.58,-168 273.55,-151.47 209.49,-141.09"/>
<polygon fill="#63b8ff" stroke="#63b8ff" points="209.98,-137.62 199.55,-139.48 208.86,-144.53 209.98,-137.62"/>
</a>
</g>
</g>
<!-- Node4 -->
<g id="Node000004" class="node">
<title>Node4</title>
<g id="a_Node000004"><a xlink:href="query__types_8h.html" target="_top" xlink:title="Query protocol type definitions for database gateway.">
<polygon fill="white" stroke="#666666" points="417.33,-79.5 331.33,-79.5 331.33,-60.5 417.33,-60.5 417.33,-79.5"/>
<text text-anchor="middle" x="374.33" y="-67.5" font-family="Helvetica,sans-Serif" font-size="10.00">query_types.h</text>
</a>
</g>
</g>
<!-- Node2&#45;&gt;Node4 -->
<g id="edge15_Node000002_Node000004" class="edge">
<title>Node2&#45;&gt;Node4</title>
<g id="a_edge15_Node000002_Node000004"><a xlink:title=" ">
<path fill="none" stroke="#63b8ff" d="M443.06,-186.74C373,-181.8 270.87,-169.6 246.33,-140 240.94,-133.5 241.56,-127.97 246.33,-121 256.29,-106.4 297.6,-91.95 330.64,-82.37"/>
<polygon fill="#63b8ff" stroke="#63b8ff" points="331.91,-85.65 340.58,-79.56 330,-78.91 331.91,-85.65"/>
</a>
</g>
</g>
<!-- Node5 -->
<g id="Node000005" class="node">
<title>Node5</title>
<g id="a_Node000005"><a xlink:title=" ">
<polygon fill="#e0e0e0" stroke="#999999" points="476.33,-19 426.33,-19 426.33,0 476.33,0 476.33,-19"/>
<text text-anchor="middle" x="451.33" y="-7" font-family="Helvetica,sans-Serif" font-size="10.00">cstdint</text>
</a>
</g>
</g>
<!-- Node2&#45;&gt;Node5 -->
<g id="edge19_Node000002_Node000005" class="edge">
<title>Node2&#45;&gt;Node5</title>
<g id="a_edge19_Node000002_Node000005"><a xlink:title=" ">
<path fill="none" stroke="#63b8ff" d="M579.6,-190.22C669.77,-188.9 821.27,-180.5 856.33,-140 870.29,-123.87 887.88,-93.78 849.33,-55 823.95,-29.48 579.27,-16.13 486.63,-11.96"/>
<polygon fill="#63b8ff" stroke="#63b8ff" points="486.51,-8.45 476.36,-11.51 486.2,-15.44 486.51,-8.45"/>
</a>
</g>
</g>
<!-- Node6 -->
<g id="Node000006" class="node">
<title>Node6</title>
<g id="a_Node000006"><a xlink:title=" ">
<polygon fill="#e0e0e0" stroke="#999999" points="116.33,-19 72.33,-19 72.33,0 116.33,0 116.33,-19"/>
<text text-anchor="middle" x="94.33" y="-7" font-family="Helvetica,sans-Serif" font-size="10.00">string</text>
</a>
</g>
</g>
<!-- Node2&#45;&gt;Node6 -->
<g id="edge25_Node000002_Node000006" class="edge">
<title>Node2&#45;&gt;Node6</title>
<g id="a_edge25_Node000002_Node000006"><a xlink:title=" ">
<path fill="none" stroke="#63b8ff" d="M443.32,-187.47C335.97,-182.63 132.72,-169.76 67.33,-140 25.24,-120.85 -16.8,-94.45 7.33,-55 19.24,-35.53 42.66,-24.23 62.2,-17.9"/>
<polygon fill="#63b8ff" stroke="#63b8ff" points="63.38,-21.2 71.99,-15.02 61.41,-14.48 63.38,-21.2"/>
</a>
</g>
</g>
<!-- Node8 -->
<g id="Node000008" class="node">
<title>Node8</title>
<g id="a_Node000008"><a xlink:title=" ">
<polygon fill="#e0e0e0" stroke="#999999" points="66.33,-79.5 16.33,-79.5 16.33,-60.5 66.33,-60.5 66.33,-79.5"/>
<text text-anchor="middle" x="41.33" y="-67.5" font-family="Helvetica,sans-Serif" font-size="10.00">chrono</text>
</a>
</g>
</g>
<!-- Node2&#45;&gt;Node8 -->
<g id="edge17_Node000002_Node000008" class="edge">
<title>Node2&#45;&gt;Node8</title>
<g id="a_edge17_Node000002_Node000008"><a xlink:title=" ">
<path fill="none" stroke="#63b8ff" d="M443.11,-188.35C340,-184.79 150.36,-173.73 92.33,-140 72.06,-128.22 57.44,-104.86 49.18,-88.6"/>
<polygon fill="#63b8ff" stroke="#63b8ff" points="52.34,-87.07 44.87,-79.56 46.02,-90.09 52.34,-87.07"/>
</a>
</g>
</g>
<!-- Node9 -->
<g id="Node000009" class="node">
<title>Node9</title>
<g id="a_Node000009"><a xlink:title=" ">
<polygon fill="#e0e0e0" stroke="#999999" points="584.33,-79.5 526.33,-79.5 526.33,-60.5 584.33,-60.5 584.33,-79.5"/>
<text text-anchor="middle" x="555.33" y="-67.5" font-family="Helvetica,sans-Serif" font-size="10.00">memory</text>
</a>
</g>
</g>
<!-- Node2&#45;&gt;Node9 -->
<g id="edge22_Node000002_Node000009" class="edge">
<title>Node2&#45;&gt;Node9</title>
<g id="a_edge22_Node000002_Node000009"><a xlink:title=" ">
<path fill="none" stroke="#63b8ff" d="M579.6,-188.96C661.54,-186.09 791.78,-175.85 822.33,-140 827.8,-133.57 827.72,-127.5 822.33,-121 807.89,-103.61 665.41,-84.23 594.71,-75.59"/>
<polygon fill="#63b8ff" stroke="#63b8ff" points="594.76,-72.07 584.41,-74.35 593.92,-79.02 594.76,-72.07"/>
</a>
</g>
</g>
<!-- Node13 -->
<g id="Node000013" class="node">
<title>Node13</title>
<g id="a_Node000013"><a xlink:title=" ">
<polygon fill="#e0e0e0" stroke="#999999" points="840.83,-85 699.83,-85 699.83,-55 840.83,-55 840.83,-85"/>
<text text-anchor="start" x="707.83" y="-73" font-family="Helvetica,sans-Serif" font-size="10.00">kcenon/common/patterns</text>
<text text-anchor="middle" x="770.33" y="-62" font-family="Helvetica,sans-Serif" font-size="10.00">/result.h</text>
</a>
</g>
</g>
<!-- Node2&#45;&gt;Node13 -->
<g id="edge28_Node000002_Node000013" class="edge">
<title>Node2&#45;&gt;Node13</title>
<g id="a_edge28_Node000002_Node000013"><a xlink:title=" ">
<path fill="none" stroke="#63b8ff" d="M579.56,-189.62C665.67,-187.53 806.53,-178.18 839.33,-140 854.6,-122.22 833.22,-103.51 810.34,-90.07"/>
<polygon fill="#63b8ff" stroke="#63b8ff" points="812.01,-86.99 801.57,-85.18 808.6,-93.11 812.01,-86.99"/>
</a>
</g>
</g>
<!-- Node14 -->
<g id="Node000014" class="node">
<title>Node14</title>
<g id="a_Node000014"><a xlink:title=" ">
<polygon fill="#e0e0e0" stroke="#999999" points="305.33,-140 255.33,-140 255.33,-121 305.33,-121 305.33,-140"/>
<text text-anchor="middle" x="280.33" y="-128" font-family="Helvetica,sans-Serif" font-size="10.00">atomic</text>
</a>
</g>
</g>
<!-- Node2&#45;&gt;Node14 -->
<g id="edge16_Node000002_Node000014" class="edge">
<title>Node2&#45;&gt;Node14</title>
<g id="a_edge16_Node000002_Node000014"><a xlink:title=" ">
<path fill="none" stroke="#63b8ff" d="M456,-175.99C412.32,-164.93 352.71,-149.83 315.38,-140.38"/>
<polygon fill="#63b8ff" stroke="#63b8ff" points="316.03,-136.93 305.48,-137.87 314.31,-143.72 316.03,-136.93"/>
</a>
</g>
</g>
<!-- Node15 -->
<g id="Node000015" class="node">
<title>Node15</title>
<g id="a_Node000015"><a xlink:title=" ">
<polygon fill="#e0e0e0" stroke="#999999" points="376.83,-140 323.83,-140 323.83,-121 376.83,-121 376.83,-140"/>
<text text-anchor="middle" x="350.33" y="-128" font-family="Helvetica,sans-Serif" font-size="10.00">cstddef</text>
</a>
</g>
</g>
<!-- Node2&#45;&gt;Node15 -->
<g id="edge18_Node000002_Node000015" class="edge">
<title>Node2&#45;&gt;Node15</title>
<g id="a_edge18_Node000002_Node000015"><a xlink:title=" ">
<path fill="none" stroke="#63b8ff" d="M472.76,-175.99C445.54,-166.1 409.44,-152.98 383.51,-143.56"/>
<polygon fill="#63b8ff" stroke="#63b8ff" points="384.7,-140.26 374.1,-140.14 382.31,-146.84 384.7,-140.26"/>
</a>
</g>
</g>
<!-- Node2&#45;&gt;Node16 -->
<g id="edge20_Node000002_Node000016" class="edge">
<title>Node2&#45;&gt;Node16</title>
<g id="a_edge20_Node000002_Node000016"><a xlink:title=" ">
<path fill="none" stroke="#63b8ff" d="M579.51,-183.16C662.74,-174.52 807.69,-158.52 931.33,-140 932.79,-139.78 934.27,-139.55 935.77,-139.31"/>
<polygon fill="#63b8ff" stroke="#63b8ff" points="936.46,-142.75 945.75,-137.65 935.31,-135.84 936.46,-142.75"/>
</a>
</g>
</g>
<!-- Node17 -->
<g id="Node000017" class="node">
<title>Node17</title>
<g id="a_Node000017"><a xlink:title=" ">
<polygon fill="#e0e0e0" stroke="#999999" points="427.33,-140 395.33,-140 395.33,-121 427.33,-121 427.33,-140"/>
<text text-anchor="middle" x="411.33" y="-128" font-family="Helvetica,sans-Serif" font-size="10.00">list</text>
</a>
</g>
</g>
<!-- Node2&#45;&gt;Node17 -->
<g id="edge21_Node000002_Node000017" class="edge">
<title>Node2&#45;&gt;Node17</title>
<g id="a_edge21_Node000002_Node000017"><a xlink:title=" ">
<path fill="none" stroke="#63b8ff" d="M487.37,-175.99C471.43,-166.66 450.6,-154.47 434.76,-145.21"/>
<polygon fill="#63b8ff" stroke="#63b8ff" points="436.49,-142.17 426.09,-140.14 432.96,-148.21 436.49,-142.17"/>
</a>
</g>
</g>
<!-- Node18 -->
<g id="Node000018" class="node">
<title>Node18</title>
<g id="a_Node000018"><a xlink:title=" ">
<polygon fill="#e0e0e0" stroke="#999999" points="493.33,-140 445.33,-140 445.33,-121 493.33,-121 493.33,-140"/>
<text text-anchor="middle" x="469.33" y="-128" font-family="Helvetica,sans-Serif" font-size="10.00">mutex</text>
</a>
</g>
</g>
<!-- Node2&#45;&gt;Node18 -->
<g id="edge23_Node000002_Node000018" class="edge">
<title>Node2&#45;&gt;Node18</title>
<g id="a_edge23_Node000002_Node000018"><a xlink:title=" ">
<path fill="none" stroke="#63b8ff" d="M501.16,-175.84C495.25,-167.61 487.76,-157.18 481.54,-148.51"/>
<polygon fill="#63b8ff" stroke="#63b8ff" points="484.3,-146.35 475.62,-140.27 478.61,-150.43 484.3,-146.35"/>
</a>
</g>
</g>
<!-- Node19 -->
<g id="Node000019" class="node">
<title>Node19</title>
<g id="a_Node000019"><a xlink:title=" ">
<polygon fill="#e0e0e0" stroke="#999999" points="597.33,-140 511.33,-140 511.33,-121 597.33,-121 597.33,-140"/>
<text text-anchor="middle" x="554.33" y="-128" font-family="Helvetica,sans-Serif" font-size="10.00">shared_mutex</text>
</a>
</g>
</g>
<!-- Node2&#45;&gt;Node19 -->
<g id="edge24_Node000002_Node000019" class="edge">
<title>Node2&#45;&gt;Node19</title>
<g id="a_edge24_Node000002_Node000019"><a xlink:title=" ">
<path fill="none" stroke="#63b8ff" d="M521.74,-175.84C527.79,-167.61 535.45,-157.18 541.83,-148.51"/>
<polygon fill="#63b8ff" stroke="#63b8ff" points="544.78,-150.4 547.88,-140.27 539.14,-146.25 544.78,-150.4"/>
</a>
</g>
</g>
<!-- Node20 -->
<g id="Node000020" class="node">
<title>Node20</title>
<g id="a_Node000020"><a xlink:title=" ">
<polygon fill="#e0e0e0" stroke="#999999" points="708.83,-140 615.83,-140 615.83,-121 708.83,-121 708.83,-140"/>
<text text-anchor="middle" x="662.33" y="-128" font-family="Helvetica,sans-Serif" font-size="10.00">unordered_map</text>
</a>
</g>
</g>
<!-- Node2&#45;&gt;Node20 -->
<g id="edge26_Node000002_Node000020" class="edge">
<title>Node2&#45;&gt;Node20</title>
<g id="a_edge26_Node000002_Node000020"><a xlink:title=" ">
<path fill="none" stroke="#63b8ff" d="M547.49,-175.99C572.8,-166.18 606.29,-153.21 630.56,-143.81"/>
<polygon fill="#63b8ff" stroke="#63b8ff" points="631.97,-147.02 640.03,-140.14 629.44,-140.49 631.97,-147.02"/>
</a>
</g>
</g>
<!-- Node21 -->
<g id="Node000021" class="node">
<title>Node21</title>
<g id="a_Node000021"><a xlink:title=" ">
<polygon fill="#e0e0e0" stroke="#999999" points="813.33,-140 727.33,-140 727.33,-121 813.33,-121 813.33,-140"/>
<text text-anchor="middle" x="770.33" y="-128" font-family="Helvetica,sans-Serif" font-size="10.00">unordered_set</text>
</a>
</g>
</g>
<!-- Node2&#45;&gt;Node21 -->
<g id="edge27_Node000002_Node000021" class="edge">
<title>Node2&#45;&gt;Node21</title>
<g id="a_edge27_Node000002_Node000021"><a xlink:title=" ">
<path fill="none" stroke="#63b8ff" d="M573.36,-175.99C619.13,-165.65 680.48,-151.79 722.48,-142.31"/>
<polygon fill="#63b8ff" stroke="#63b8ff" points="723.47,-145.67 732.46,-140.05 721.93,-138.84 723.47,-145.67"/>
</a>
</g>
</g>
<!-- Node3&#45;&gt;Node4 -->
<g id="edge3_Node000003_Node000004" class="edge">
<title>Node3&#45;&gt;Node4</title>
<g id="a_edge3_Node000003_Node000004"><a xlink:title=" ">
<path fill="none" stroke="#63b8ff" d="M183.44,-120.92C217.89,-111.99 273.4,-97.56 321.33,-85 324.9,-84.06 328.6,-83.09 332.32,-82.11"/>
<polygon fill="#63b8ff" stroke="#63b8ff" points="333.32,-85.47 342.1,-79.53 331.54,-78.7 333.32,-85.47"/>
</a>
</g>
</g>
<!-- Node3&#45;&gt;Node5 -->
<g id="edge8_Node000003_Node000005" class="edge">
<title>Node3&#45;&gt;Node5</title>
<g id="a_edge8_Node000003_Node000005"><a xlink:title=" ">
<path fill="none" stroke="#63b8ff" d="M199.5,-124.35C274.17,-116.11 409.3,-99.44 426.33,-85 442.63,-71.17 448.34,-46.37 450.32,-29.2"/>
<polygon fill="#63b8ff" stroke="#63b8ff" points="453.81,-29.47 451.15,-19.21 446.83,-28.88 453.81,-29.47"/>
</a>
</g>
</g>
<!-- Node3&#45;&gt;Node6 -->
<g id="edge11_Node000003_Node000006" class="edge">
<title>Node3&#45;&gt;Node6</title>
<g id="a_edge11_Node000003_Node000006"><a xlink:title=" ">
<path fill="none" stroke="#63b8ff" d="M141.06,-120.83C132.63,-112.43 120.45,-98.96 113.33,-85 104.25,-67.2 99.29,-44.75 96.74,-29.17"/>
<polygon fill="#63b8ff" stroke="#63b8ff" points="100.19,-28.59 95.28,-19.2 93.27,-29.6 100.19,-28.59"/>
</a>
</g>
</g>
<!-- Node3&#45;&gt;Node8 -->
<g id="edge7_Node000003_Node000008" class="edge">
<title>Node3&#45;&gt;Node8</title>
<g id="a_edge7_Node000003_Node000008"><a xlink:title=" ">
<path fill="none" stroke="#63b8ff" d="M134.24,-120.87C116.37,-111.28 87.29,-95.67 66.42,-84.47"/>
<polygon fill="#63b8ff" stroke="#63b8ff" points="67.94,-81.31 57.48,-79.67 64.63,-87.48 67.94,-81.31"/>
</a>
</g>
</g>
<!-- Node3&#45;&gt;Node9 -->
<g id="edge9_Node000003_Node000009" class="edge">
<title>Node3&#45;&gt;Node9</title>
<g id="a_edge9_Node000003_Node000009"><a xlink:title=" ">
<path fill="none" stroke="#63b8ff" d="M199.41,-122.67C261.06,-114.06 370.06,-98.73 463.33,-85 480.5,-82.47 499.47,-79.6 515.7,-77.12"/>
<polygon fill="#63b8ff" stroke="#63b8ff" points="516.57,-80.53 525.92,-75.55 515.51,-73.61 516.57,-80.53"/>
</a>
</g>
</g>
<!-- Node10 -->
<g id="Node000010" class="node">
<title>Node10</title>
<g id="a_Node000010"><a xlink:title=" ">
<polygon fill="#e0e0e0" stroke="#999999" points="178.33,-79.5 122.33,-79.5 122.33,-60.5 178.33,-60.5 178.33,-79.5"/>
<text text-anchor="middle" x="150.33" y="-67.5" font-family="Helvetica,sans-Serif" font-size="10.00">optional</text>
</a>
</g>
</g>
<!-- Node3&#45;&gt;Node10 -->
<g id="edge10_Node000003_Node000010" class="edge">
<title>Node3&#45;&gt;Node10</title>
<g id="a_edge10_Node000003_Node000010"><a xlink:title=" ">
<path fill="none" stroke="#63b8ff" d="M150.33,-120.87C150.33,-112.75 150.33,-100.31 150.33,-89.89"/>
<polygon fill="#63b8ff" stroke="#63b8ff" points="153.83,-89.67 150.33,-79.67 146.83,-89.67 153.83,-89.67"/>
</a>
</g>
</g>
<!-- Node11 -->
<g id="Node000011" class="node">
<title>Node11</title>
<g id="a_Node000011"><a xlink:title=" ">
<polygon fill="#e0e0e0" stroke="#999999" points="247.83,-79.5 196.83,-79.5 196.83,-60.5 247.83,-60.5 247.83,-79.5"/>
<text text-anchor="middle" x="222.33" y="-67.5" font-family="Helvetica,sans-Serif" font-size="10.00">variant</text>
</a>
</g>
</g>
<!-- Node3&#45;&gt;Node11 -->
<g id="edge12_Node000003_Node000011" class="edge">
<title>Node3&#45;&gt;Node11</title>
<g id="a_edge12_Node000003_Node000011"><a xlink:title=" ">
<path fill="none" stroke="#63b8ff" d="M160.95,-120.87C172.22,-111.71 190.25,-97.06 203.86,-86.01"/>
<polygon fill="#63b8ff" stroke="#63b8ff" points="206.11,-88.69 211.66,-79.67 201.69,-83.26 206.11,-88.69"/>
</a>
</g>
</g>
<!-- Node12 -->
<g id="Node000012" class="node">
<title>Node12</title>
<g id="a_Node000012"><a xlink:title=" ">
<polygon fill="#e0e0e0" stroke="#999999" points="312.83,-79.5 265.83,-79.5 265.83,-60.5 312.83,-60.5 312.83,-79.5"/>
<text text-anchor="middle" x="289.33" y="-67.5" font-family="Helvetica,sans-Serif" font-size="10.00">vector</text>
</a>
</g>
</g>
<!-- Node3&#45;&gt;Node12 -->
<g id="edge13_Node000003_Node000012" class="edge">
<title>Node3&#45;&gt;Node12</title>
<g id="a_edge13_Node000003_Node000012"><a xlink:title=" ">
<path fill="none" stroke="#63b8ff" d="M170.66,-120.99C192,-112.05 226.54,-97.57 256.33,-85 257.49,-84.51 258.67,-84.01 259.87,-83.5"/>
<polygon fill="#63b8ff" stroke="#63b8ff" points="261.24,-86.72 269.09,-79.6 258.51,-80.28 261.24,-86.72"/>
</a>
</g>
</g>
<!-- Node3&#45;&gt;Node13 -->
<g id="edge14_Node000003_Node000013" class="edge">
<title>Node3&#45;&gt;Node13</title>
<g id="a_edge14_Node000003_Node000013"><a xlink:title=" ">
<path fill="none" stroke="#63b8ff" d="M199.5,-124.86C306.02,-114.81 559,-90.94 689.45,-78.63"/>
<polygon fill="#63b8ff" stroke="#63b8ff" points="690.15,-82.08 699.77,-77.66 689.49,-75.11 690.15,-82.08"/>
</a>
</g>
</g>
<!-- Node4&#45;&gt;Node5 -->
<g id="edge4_Node000004_Node000005" class="edge">
<title>Node4&#45;&gt;Node5</title>
<g id="a_edge4_Node000004_Node000005"><a xlink:title=" ">
<path fill="none" stroke="#63b8ff" d="M385.69,-60.37C397.74,-51.21 417.02,-36.56 431.58,-25.51"/>
<polygon fill="#63b8ff" stroke="#63b8ff" points="434.07,-28 439.92,-19.17 429.84,-22.43 434.07,-28"/>
</a>
</g>
</g>
<!-- Node4&#45;&gt;Node6 -->
<g id="edge5_Node000004_Node000006" class="edge">
<title>Node4&#45;&gt;Node6</title>
<g id="a_edge5_Node000004_Node000006"><a xlink:title=" ">
<path fill="none" stroke="#63b8ff" d="M343.3,-60.45C336.11,-58.56 328.47,-56.64 321.33,-55 252.26,-39.13 170.56,-23.99 126.46,-16.12"/>
<polygon fill="#63b8ff" stroke="#63b8ff" points="126.8,-12.63 116.34,-14.33 125.57,-19.52 126.8,-12.63"/>
</a>
</g>
</g>
<!-- Node7 -->
<g id="Node000007" class="node">
<title>Node7</title>
<g id="a_Node000007"><a xlink:title=" ">
<polygon fill="#e0e0e0" stroke="#999999" points="407.83,-19 334.83,-19 334.83,0 407.83,0 407.83,-19"/>
<text text-anchor="middle" x="371.33" y="-7" font-family="Helvetica,sans-Serif" font-size="10.00">string_view</text>
</a>
</g>
</g>
<!-- Node4&#45;&gt;Node7 -->
<g id="edge6_Node000004_Node000007" class="edge">
<title>Node4&#45;&gt;Node7</title>
<g id="a_edge6_Node000004_Node000007"><a xlink:title=" ">
<path fill="none" stroke="#63b8ff" d="M373.88,-60.37C373.47,-52.25 372.83,-39.81 372.3,-29.39"/>
<polygon fill="#63b8ff" stroke="#63b8ff" points="375.78,-28.97 371.77,-19.17 368.79,-29.33 375.78,-28.97"/>
</a>
</g>
</g>
</g>
</svg>

<g id="navigator" transform="translate(0 0)" fill="#404254">
  <rect fill="#f2f5e9" fill-opacity="0.5" stroke="#606060" stroke-width=".5" x="0" y="0" width="60" height="60"/>
  <use id="zoomplus" xlink:href="#zoomPlus" x="17" y="9" onmousedown="handleZoom(evt,'in')"/>
  <use id="zoomminus" xlink:href="#zoomMin" x="42" y="9" onmousedown="handleZoom(evt,'out')"/>
  <use id="reset" xlink:href="#resetDef" x="30" y="36" onmousedown="handleReset()"/>
   <use id="arrowup" xlink:href="#arrowUp" x="0" y="0" onmousedown="handlePan(0,-1)"/>
  <use id="arrowright" xlink:href="#arrowRight" x="0" y="0" onmousedown="handlePan(1,0)"/>
  <use id="arrowdown" xlink:href="#arrowDown" x="0" y="0" onmousedown="handlePan(0,1)"/>
  <use id="arrowleft" xlink:href="#arrowLeft" x="0" y="0" onmousedown="handlePan(-1,0)"/>
</g>
<svg viewBox="0 0 15 15" width="100%" height="30px" preserveAspectRatio="xMaxYMin meet">
 <g id="arrow_out" transform="scale(0.3 0.3)">
  <a xlink:href="query__cache_8cpp__incl_org.svg" target="_base">
   <rect id="button" ry="5" rx="5" y="6" x="6" height="38" width="38"
        fill="#f2f5e9" fill-opacity="0.5" stroke="#606060" stroke-width="1.0"/>
   <path id="arrow"
     d="M 11.500037,31.436501 C 11.940474,20.09759 22.043105,11.32322 32.158766,21.979434 L 37.068811,17.246167 C 37.068811,17.246167 37.088388,32 37.088388,32 L 22.160133,31.978069 C 22.160133,31.978069 26.997745,27.140456 26.997745,27.140456 C 18.528582,18.264221 13.291696,25.230495 11.500037,31.436501 z"
     style="fill:#404040;"/>
  </a>
 </g>
</svg>

<style type='text/css'>
<![CDATA[
[data-mouse-over-selected='false'] { opacity: 0.7; }
[data-mouse-over-selected='true']  { opacity: 1.0; }
]]>
</style>
<script type="application/ecmascript"><![CDATA[
document.addEventListener('DOMContentLoaded', (event) => {
  highlightEdges();
  highlightAdjacentNodes();
});
]]></script>
</svg>
