<?xml version="1.0" encoding="UTF-8" standalone="no"?>
<!DOCTYPE svg PUBLIC "-//W3C//DTD SVG 1.1//EN"
 "http://www.w3.org/Graphics/SVG/1.1/DTD/svg11.dtd">
<!-- Generated by graphviz version 2.43.0 (0)
 -->
<!-- Title: include/kcenon/database_server/gateway/query_handlers.h Pages: 1 -->
<svg width="417pt" height="181pt"
 viewBox="0.00 0.00 417.00 181.00" xmlns="http://www.w3.org/2000/svg" xmlns:xlink="http://www.w3.org/1999/xlink">
<g id="graph0" class="graph" transform="scale(1 1) rotate(0) translate(4 177)">
<title>include/kcenon/database_server/gateway/query_handlers.h</title>
<!-- Node1 -->
<g id="Node000001" class="node">
<title>Node1</title>
<g id="a_Node000001"><a xlink:title="CRTP&#45;based query handlers for database gateway.">
<polygon fill="#999999" stroke="#666666" points="304,-173 166,-173 166,-132 304,-132 304,-173"/>
<text text-anchor="start" x="174" y="-161" font-family="Helvetica,sans-Serif" font-size="10.00">include/kcenon/database</text>
<text text-anchor="start" x="174" y="-150" font-family="Helvetica,sans-Serif" font-size="10.00">_server/gateway/query</text>
<text text-anchor="middle" x="235" y="-139" font-family="Helvetica,sans-Serif" font-size="10.00">_handlers.h</text>
</a>
</g>
</g>
<!-- Node2 -->
<g id="Node000002" class="node">
<title>Node2</title>
<g id="a_Node000002"><a xlink:href="query__router_8h.html" target="_top" xlink:title="Query router with load balancing for database gateway.">
<polygon fill="white" stroke="#666666" points="217,-96 79,-96 79,-55 217,-55 217,-96"/>
<text text-anchor="start" x="87" y="-84" font-family="Helvetica,sans-Serif" font-size="10.00">include/kcenon/database</text>
<text text-anchor="start" x="87" y="-73" font-family="Helvetica,sans-Serif" font-size="10.00">_server/gateway/query</text>
<text text-anchor="middle" x="148" y="-62" font-family="Helvetica,sans-Serif" font-size="10.00">_router.h</text>
</a>
</g>
</g>
<!-- Node1&#45;&gt;Node2 -->
<g id="edge1_Node000001_Node000002" class="edge">
<title>Node1&#45;&gt;Node2</title>
<g id="a_edge1_Node000001_Node000002"><a xlink:title=" ">
<path fill="none" stroke="#63b8ff" d="M204.34,-125.07C193.27,-115.52 180.98,-104.93 170.71,-96.07"/>
<polygon fill="#63b8ff" stroke="#63b8ff" points="202.28,-127.92 212.14,-131.79 206.85,-122.61 202.28,-127.92"/>
</a>
</g>
</g>
<!-- Node5 -->
<g id="Node000005" class="node">
<title>Node5</title>
<g id="a_Node000005"><a xlink:href="query__handlers_8cpp.html" target="_top" xlink:title=" ">
<polygon fill="white" stroke="#666666" points="409,-85 235,-85 235,-66 409,-66 409,-85"/>
<text text-anchor="middle" x="322" y="-73" font-family="Helvetica,sans-Serif" font-size="10.00">src/gateway/query_handlers.cpp</text>
</a>
</g>
</g>
<!-- Node1&#45;&gt;Node5 -->
<g id="edge4_Node000001_Node000005" class="edge">
<title>Node1&#45;&gt;Node5</title>
<g id="a_edge4_Node000001_Node000005"><a xlink:title=" ">
<path fill="none" stroke="#63b8ff" d="M265.55,-125.16C281.74,-111.21 300.56,-94.98 311.87,-85.24"/>
<polygon fill="#63b8ff" stroke="#63b8ff" points="263.15,-122.61 257.86,-131.79 267.72,-127.92 263.15,-122.61"/>
</a>
</g>
</g>
<!-- Node3 -->
<g id="Node000003" class="node">
<title>Node3</title>
<g id="a_Node000003"><a xlink:href="server__app_8cpp.html" target="_top" xlink:title=" ">
<polygon fill="white" stroke="#666666" points="132,-19 0,-19 0,0 132,0 132,-19"/>
<text text-anchor="middle" x="66" y="-7" font-family="Helvetica,sans-Serif" font-size="10.00">src/core/server_app.cpp</text>
</a>
</g>
</g>
<!-- Node2&#45;&gt;Node3 -->
<g id="edge2_Node000002_Node000003" class="edge">
<title>Node2&#45;&gt;Node3</title>
<g id="a_edge2_Node000002_Node000003"><a xlink:title=" ">
<path fill="none" stroke="#63b8ff" d="M114.83,-48.61C101.45,-38.17 86.93,-26.83 77.22,-19.26"/>
<polygon fill="#63b8ff" stroke="#63b8ff" points="112.92,-51.56 122.95,-54.95 117.22,-46.04 112.92,-51.56"/>
</a>
</g>
</g>
<!-- Node4 -->
<g id="Node000004" class="node">
<title>Node4</title>
<g id="a_Node000004"><a xlink:href="query__router_8cpp.html" target="_top" xlink:title=" ">
<polygon fill="white" stroke="#666666" points="311.5,-19 150.5,-19 150.5,0 311.5,0 311.5,-19"/>
<text text-anchor="middle" x="231" y="-7" font-family="Helvetica,sans-Serif" font-size="10.00">src/gateway/query_router.cpp</text>
</a>
</g>
</g>
<!-- Node2&#45;&gt;Node4 -->
<g id="edge3_Node000002_Node000004" class="edge">
<title>Node2&#45;&gt;Node4</title>
<g id="a_edge3_Node000002_Node000004"><a xlink:title=" ">
<path fill="none" stroke="#63b8ff" d="M181.58,-48.61C195.11,-38.17 209.82,-26.83 219.64,-19.26"/>
<polygon fill="#63b8ff" stroke="#63b8ff" points="179.14,-46.07 173.35,-54.95 183.41,-51.62 179.14,-46.07"/>
</a>
</g>
</g>
</g>
</svg>
