<?xml version="1.0" encoding="UTF-8" standalone="no"?>
<!DOCTYPE svg PUBLIC "-//W3C//DTD SVG 1.1//EN"
 "http://www.w3.org/Graphics/SVG/1.1/DTD/svg11.dtd">
<!-- Generated by graphviz version 2.43.0 (0)
 -->
<!-- Title: include/kcenon/database_server/gateway/query_types.h Pages: 1 -->
<!--zoomable 412 -->

<svg id="main" version="1.1" xmlns="http://www.w3.org/2000/svg" xmlns:xlink="http://www.w3.org/1999/xlink" xml:space="preserve" onload="init(evt)">
<style type="text/css"><![CDATA[
.node, .edge {opacity: 0.7;}
.node.selected, .edge.selected {opacity: 1;}
.edge:hover path { stroke: red; }
.edge:hover polygon { stroke: red; fill: red; }
]]></style>

<defs>
  <circle id="rim" cx="0" cy="0" r="7"/>
  <circle id="rim2" cx="0" cy="0" r="3.5"/>
  <g id="zoomPlus">
    <use xlink:href="#rim" fill="#404040"><set attributeName="fill" to="#808080" begin="zoomplus.mouseover" end="zoomplus.mouseout"/></use>
    <path d="M-4,0h8M0,-4v8" fill="none" stroke="white" stroke-width="1.5" pointer-events="none"/>
  </g>
  <g id="zoomMin">
    <use xlink:href="#rim" fill="#404040"><set attributeName="fill" to="#808080" begin="zoomminus.mouseover" end="zoomminus.mouseout"/></use>
    <path d="M-4,0h8" fill="none" stroke="white" stroke-width="1.5" pointer-events="none"/>
  </g>
  <g id="arrowUp" transform="translate(30 24)">
    <use xlink:href="#rim"/>
    <path pointer-events="none" fill="none" stroke="white" stroke-width="1.5" d="M0,-3.0v7 M-2.5,-0.5L0,-3.0L2.5,-0.5"/>
  </g>
  <g id="arrowRight" transform="rotate(90) translate(36 -43)">
    <use xlink:href="#rim"/>
    <path pointer-events="none" fill="none" stroke="white" stroke-width="1.5" d="M0,-3.0v7 M-2.5,-0.5L0,-3.0L2.5,-0.5"/>
  </g>
  <g id="arrowDown" transform="rotate(180) translate(-30 -48)">
    <use xlink:href="#rim"/>
    <path pointer-events="none" fill="none" stroke="white" stroke-width="1.5" d="M0,-3.0v7 M-2.5,-0.5L0,-3.0L2.5,-0.5"/>
  </g>
  <g id="arrowLeft" transform="rotate(270) translate(-36 17)">
    <use xlink:href="#rim"/>
    <path pointer-events="none" fill="none" stroke="white" stroke-width="1.5" d="M0,-3.0v7 M-2.5,-0.5L0,-3.0L2.5,-0.5"/>
  </g>
  <g id="resetDef">
    <use xlink:href="#rim2" fill="#404040"><set attributeName="fill" to="#808080" begin="reset.mouseover" end="reset.mouseout"/></use>
  </g>
</defs>
<script type="application/ecmascript">
var viewWidth = 1534;
var viewHeight = 412;
var sectionId = 'dynsection-1';
</script>
<script type="application/ecmascript" xlink:href="svg.min.js"/>
<svg id="graph" class="graph">
<g id="viewport">
<title>include/kcenon/database_server/gateway/query_types.h</title>
<!-- Node1 -->
<g id="Node000001" class="node">
<title>Node1</title>
<g id="a_Node000001"><a xlink:title="Query protocol type definitions for database gateway.">
<polygon fill="#999999" stroke="#666666" points="1270.22,-404 1132.22,-404 1132.22,-363 1270.22,-363 1270.22,-404"/>
<text text-anchor="start" x="1140.22" y="-392" font-family="Helvetica,sans-Serif" font-size="10.00">include/kcenon/database</text>
<text text-anchor="start" x="1140.22" y="-381" font-family="Helvetica,sans-Serif" font-size="10.00">_server/gateway/query</text>
<text text-anchor="middle" x="1201.22" y="-370" font-family="Helvetica,sans-Serif" font-size="10.00">_types.h</text>
</a>
</g>
</g>
<!-- Node2 -->
<g id="Node000002" class="node">
<title>Node2</title>
<g id="a_Node000002"><a xlink:href="auth__middleware_8h.html" target="_top" xlink:title="Authentication middleware for database gateway.">
<polygon fill="white" stroke="#666666" points="388.22,-244.5 194.22,-244.5 194.22,-214.5 388.22,-214.5 388.22,-244.5"/>
<text text-anchor="start" x="202.22" y="-232.5" font-family="Helvetica,sans-Serif" font-size="10.00">include/kcenon/database</text>
<text text-anchor="middle" x="291.22" y="-221.5" font-family="Helvetica,sans-Serif" font-size="10.00">_server/gateway/auth_middleware.h</text>
</a>
</g>
</g>
<!-- Node1&#45;&gt;Node2 -->
<g id="edge1_Node000001_Node000002" class="edge">
<title>Node1&#45;&gt;Node2</title>
<g id="a_edge1_Node000001_Node000002"><a xlink:title=" ">
<path fill="none" stroke="#63b8ff" d="M1121.56,-383.05C996.37,-382.3 746.67,-374.27 541.22,-327 457.79,-307.81 365.14,-266.35 319.62,-244.55"/>
<polygon fill="#63b8ff" stroke="#63b8ff" points="1121.8,-386.55 1131.82,-383.1 1121.83,-379.55 1121.8,-386.55"/>
</a>
</g>
</g>
<!-- Node3 -->
<g id="Node000003" class="node">
<title>Node3</title>
<g id="a_Node000003"><a xlink:href="gateway__server_8h.html" target="_top" xlink:title="Database gateway TCP server.">
<polygon fill="white" stroke="#666666" points="362.72,-173 219.72,-173 219.72,-132 362.72,-132 362.72,-173"/>
<text text-anchor="start" x="227.72" y="-161" font-family="Helvetica,sans-Serif" font-size="10.00">include/kcenon/database</text>
<text text-anchor="start" x="227.72" y="-150" font-family="Helvetica,sans-Serif" font-size="10.00">_server/gateway/gateway</text>
<text text-anchor="middle" x="291.22" y="-139" font-family="Helvetica,sans-Serif" font-size="10.00">_server.h</text>
</a>
</g>
</g>
<!-- Node1&#45;&gt;Node3 -->
<g id="edge7_Node000001_Node000003" class="edge">
<title>Node1&#45;&gt;Node3</title>
<g id="a_edge7_Node000001_Node000003"><a xlink:title=" ">
<path fill="none" stroke="#63b8ff" d="M1121.9,-369.22C1001.4,-348.3 765.45,-304.39 569.22,-250 488.23,-227.55 396.54,-194.11 341.33,-173.07"/>
<polygon fill="#63b8ff" stroke="#63b8ff" points="1121.34,-372.68 1131.79,-370.93 1122.53,-365.78 1121.34,-372.68"/>
</a>
</g>
</g>
<!-- Node7 -->
<g id="Node000007" class="node">
<title>Node7</title>
<g id="a_Node000007"><a xlink:href="query__cache_8h.html" target="_top" xlink:title="Query result cache with LRU eviction and TTL expiration.">
<polygon fill="white" stroke="#666666" points="1270.22,-250 1132.22,-250 1132.22,-209 1270.22,-209 1270.22,-250"/>
<text text-anchor="start" x="1140.22" y="-238" font-family="Helvetica,sans-Serif" font-size="10.00">include/kcenon/database</text>
<text text-anchor="start" x="1140.22" y="-227" font-family="Helvetica,sans-Serif" font-size="10.00">_server/gateway/query</text>
<text text-anchor="middle" x="1201.22" y="-216" font-family="Helvetica,sans-Serif" font-size="10.00">_cache.h</text>
</a>
</g>
</g>
<!-- Node1&#45;&gt;Node7 -->
<g id="edge8_Node000001_Node000007" class="edge">
<title>Node1&#45;&gt;Node7</title>
<g id="a_edge8_Node000001_Node000007"><a xlink:title=" ">
<path fill="none" stroke="#63b8ff" d="M1201.22,-352.58C1201.22,-322.36 1201.22,-276.53 1201.22,-250.47"/>
<polygon fill="#63b8ff" stroke="#63b8ff" points="1197.72,-352.94 1201.22,-362.94 1204.72,-352.94 1197.72,-352.94"/>
</a>
</g>
</g>
<!-- Node8 -->
<g id="Node000008" class="node">
<title>Node8</title>
<g id="a_Node000008"><a xlink:href="query__handlers_8h.html" target="_top" xlink:title="CRTP&#45;based query handlers for database gateway.">
<polygon fill="white" stroke="#666666" points="1488.22,-173 1350.22,-173 1350.22,-132 1488.22,-132 1488.22,-173"/>
<text text-anchor="start" x="1358.22" y="-161" font-family="Helvetica,sans-Serif" font-size="10.00">include/kcenon/database</text>
<text text-anchor="start" x="1358.22" y="-150" font-family="Helvetica,sans-Serif" font-size="10.00">_server/gateway/query</text>
<text text-anchor="middle" x="1419.22" y="-139" font-family="Helvetica,sans-Serif" font-size="10.00">_handlers.h</text>
</a>
</g>
</g>
<!-- Node1&#45;&gt;Node8 -->
<g id="edge19_Node000001_Node000008" class="edge">
<title>Node1&#45;&gt;Node8</title>
<g id="a_edge19_Node000001_Node000008"><a xlink:title=" ">
<path fill="none" stroke="#63b8ff" d="M1280.04,-367.78C1344.37,-351.16 1431.24,-317.15 1473.22,-250 1482.88,-234.55 1480.07,-225.88 1473.22,-209 1467.55,-195.05 1456.51,-182.68 1445.87,-173.18"/>
<polygon fill="#63b8ff" stroke="#63b8ff" points="1279.18,-364.39 1270.32,-370.2 1280.87,-371.18 1279.18,-364.39"/>
</a>
</g>
</g>
<!-- Node9 -->
<g id="Node000009" class="node">
<title>Node9</title>
<g id="a_Node000009"><a xlink:href="query__router_8h.html" target="_top" xlink:title="Query router with load balancing for database gateway.">
<polygon fill="white" stroke="#666666" points="1488.22,-96 1350.22,-96 1350.22,-55 1488.22,-55 1488.22,-96"/>
<text text-anchor="start" x="1358.22" y="-84" font-family="Helvetica,sans-Serif" font-size="10.00">include/kcenon/database</text>
<text text-anchor="start" x="1358.22" y="-73" font-family="Helvetica,sans-Serif" font-size="10.00">_server/gateway/query</text>
<text text-anchor="middle" x="1419.22" y="-62" font-family="Helvetica,sans-Serif" font-size="10.00">_router.h</text>
</a>
</g>
</g>
<!-- Node1&#45;&gt;Node9 -->
<g id="edge33_Node000001_Node000009" class="edge">
<title>Node1&#45;&gt;Node9</title>
<g id="a_edge33_Node000001_Node000009"><a xlink:title=" ">
<path fill="none" stroke="#63b8ff" d="M1280.6,-375.57C1326.31,-368.64 1383.22,-354.76 1427.22,-327 1464.61,-303.4 1469.25,-288.93 1490.22,-250 1515.59,-202.88 1540.86,-178.42 1514.22,-132 1505.18,-116.26 1489.77,-104.56 1473.96,-96.07"/>
<polygon fill="#63b8ff" stroke="#63b8ff" points="1279.84,-372.15 1270.44,-377.03 1280.83,-379.08 1279.84,-372.15"/>
</a>
</g>
</g>
<!-- Node13 -->
<g id="Node000013" class="node">
<title>Node13</title>
<g id="a_Node000013"><a xlink:href="query__handler__base_8h.html" target="_top" xlink:title="CRTP&#45;based query handler infrastructure for database gateway.">
<polygon fill="white" stroke="#666666" points="1464.22,-250 1326.22,-250 1326.22,-209 1464.22,-209 1464.22,-250"/>
<text text-anchor="start" x="1334.22" y="-238" font-family="Helvetica,sans-Serif" font-size="10.00">include/kcenon/database</text>
<text text-anchor="start" x="1334.22" y="-227" font-family="Helvetica,sans-Serif" font-size="10.00">_server/gateway/query</text>
<text text-anchor="middle" x="1395.22" y="-216" font-family="Helvetica,sans-Serif" font-size="10.00">_handler_base.h</text>
</a>
</g>
</g>
<!-- Node1&#45;&gt;Node13 -->
<g id="edge16_Node000001_Node000013" class="edge">
<title>Node1&#45;&gt;Node13</title>
<g id="a_edge16_Node000001_Node000013"><a xlink:title=" ">
<path fill="none" stroke="#63b8ff" d="M1234.47,-356.44C1272.94,-326.31 1335.39,-277.37 1370.04,-250.23"/>
<polygon fill="#63b8ff" stroke="#63b8ff" points="1231.89,-354.02 1226.18,-362.94 1236.21,-359.53 1231.89,-354.02"/>
</a>
</g>
</g>
<!-- Node14 -->
<g id="Node000014" class="node">
<title>Node14</title>
<g id="a_Node000014"><a xlink:href="query__protocol_8h.html" target="_top" xlink:title="Query protocol message structures for database gateway.">
<polygon fill="white" stroke="#666666" points="1173.22,-327 1035.22,-327 1035.22,-286 1173.22,-286 1173.22,-327"/>
<text text-anchor="start" x="1043.22" y="-315" font-family="Helvetica,sans-Serif" font-size="10.00">include/kcenon/database</text>
<text text-anchor="start" x="1043.22" y="-304" font-family="Helvetica,sans-Serif" font-size="10.00">_server/gateway/query</text>
<text text-anchor="middle" x="1104.22" y="-293" font-family="Helvetica,sans-Serif" font-size="10.00">_protocol.h</text>
</a>
</g>
</g>
<!-- Node1&#45;&gt;Node14 -->
<g id="edge20_Node000001_Node000014" class="edge">
<title>Node1&#45;&gt;Node14</title>
<g id="a_edge20_Node000001_Node000014"><a xlink:title=" ">
<path fill="none" stroke="#63b8ff" d="M1168,-356.82C1155.45,-347.11 1141.38,-336.24 1129.66,-327.17"/>
<polygon fill="#63b8ff" stroke="#63b8ff" points="1165.93,-359.64 1175.98,-362.99 1170.21,-354.1 1165.93,-359.64"/>
</a>
</g>
</g>
<!-- Node2&#45;&gt;Node3 -->
<g id="edge2_Node000002_Node000003" class="edge">
<title>Node2&#45;&gt;Node3</title>
<g id="a_edge2_Node000002_Node000003"><a xlink:title=" ">
<path fill="none" stroke="#63b8ff" d="M291.22,-204.23C291.22,-194.2 291.22,-182.71 291.22,-173.2"/>
<polygon fill="#63b8ff" stroke="#63b8ff" points="287.72,-204.39 291.22,-214.39 294.72,-204.39 287.72,-204.39"/>
</a>
</g>
</g>
<!-- Node5 -->
<g id="Node000005" class="node">
<title>Node5</title>
<g id="a_Node000005"><a xlink:href="gateway__server_8cpp.html" target="_top" xlink:title=" ">
<polygon fill="white" stroke="#666666" points="200.72,-90.5 79.72,-90.5 79.72,-60.5 200.72,-60.5 200.72,-90.5"/>
<text text-anchor="start" x="87.72" y="-78.5" font-family="Helvetica,sans-Serif" font-size="10.00">src/gateway/gateway</text>
<text text-anchor="middle" x="140.22" y="-67.5" font-family="Helvetica,sans-Serif" font-size="10.00">_server.cpp</text>
</a>
</g>
</g>
<!-- Node2&#45;&gt;Node5 -->
<g id="edge6_Node000002_Node000005" class="edge">
<title>Node2&#45;&gt;Node5</title>
<g id="a_edge6_Node000002_Node000005"><a xlink:title=" ">
<path fill="none" stroke="#63b8ff" d="M183.8,-221.36C113.45,-214.19 30.54,-200.13 8.22,-173 -3.36,-158.93 -1.87,-147.18 8.22,-132 24.24,-107.88 53.02,-94.22 79.62,-86.49"/>
<polygon fill="#63b8ff" stroke="#63b8ff" points="183.78,-224.88 194.08,-222.37 184.47,-217.91 183.78,-224.88"/>
</a>
</g>
</g>
<!-- Node6 -->
<g id="Node000006" class="node">
<title>Node6</title>
<g id="a_Node000006"><a xlink:href="auth__middleware_8cpp.html" target="_top" xlink:title=" ">
<polygon fill="white" stroke="#666666" points="201.22,-162 17.22,-162 17.22,-143 201.22,-143 201.22,-162"/>
<text text-anchor="middle" x="109.22" y="-150" font-family="Helvetica,sans-Serif" font-size="10.00">src/gateway/auth_middleware.cpp</text>
</a>
</g>
</g>
<!-- Node2&#45;&gt;Node6 -->
<g id="edge5_Node000002_Node000006" class="edge">
<title>Node2&#45;&gt;Node6</title>
<g id="a_edge5_Node000002_Node000006"><a xlink:title=" ">
<path fill="none" stroke="#63b8ff" d="M247.38,-210.44C210.17,-195.1 158.41,-173.77 129.98,-162.06"/>
<polygon fill="#63b8ff" stroke="#63b8ff" points="246.4,-213.82 256.98,-214.39 249.07,-207.35 246.4,-213.82"/>
</a>
</g>
</g>
<!-- Node4 -->
<g id="Node000004" class="node">
<title>Node4</title>
<g id="a_Node000004"><a xlink:href="server__app_8cpp.html" target="_top" xlink:title=" ">
<polygon fill="white" stroke="#666666" points="1071.22,-19 939.22,-19 939.22,0 1071.22,0 1071.22,-19"/>
<text text-anchor="middle" x="1005.22" y="-7" font-family="Helvetica,sans-Serif" font-size="10.00">src/core/server_app.cpp</text>
</a>
</g>
</g>
<!-- Node3&#45;&gt;Node4 -->
<g id="edge3_Node000003_Node000004" class="edge">
<title>Node3&#45;&gt;Node4</title>
<g id="a_edge3_Node000003_Node000004"><a xlink:title=" ">
<path fill="none" stroke="#63b8ff" d="M373.05,-131.64C595.94,-83.4 850.95,-37.55 956.13,-19.05"/>
<polygon fill="#63b8ff" stroke="#63b8ff" points="372.17,-128.25 363.14,-133.79 373.65,-135.09 372.17,-128.25"/>
</a>
</g>
</g>
<!-- Node3&#45;&gt;Node5 -->
<g id="edge4_Node000003_Node000005" class="edge">
<title>Node3&#45;&gt;Node5</title>
<g id="a_edge4_Node000003_Node000005"><a xlink:title=" ">
<path fill="none" stroke="#63b8ff" d="M242.82,-127.46C218.42,-115.34 189.66,-101.06 168.81,-90.7"/>
<polygon fill="#63b8ff" stroke="#63b8ff" points="241.42,-130.68 251.94,-131.99 244.54,-124.41 241.42,-130.68"/>
</a>
</g>
</g>
<!-- Node7&#45;&gt;Node8 -->
<g id="edge9_Node000007_Node000008" class="edge">
<title>Node7&#45;&gt;Node8</title>
<g id="a_edge9_Node000007_Node000008"><a xlink:title=" ">
<path fill="none" stroke="#63b8ff" d="M1267.56,-205.67C1297.86,-195.25 1333.37,-183.03 1362.41,-173.04"/>
<polygon fill="#63b8ff" stroke="#63b8ff" points="1266.24,-202.43 1257.92,-208.99 1268.52,-209.05 1266.24,-202.43"/>
</a>
</g>
</g>
<!-- Node7&#45;&gt;Node9 -->
<g id="edge14_Node000007_Node000009" class="edge">
<title>Node7&#45;&gt;Node9</title>
<g id="a_edge14_Node000007_Node000009"><a xlink:title=" ">
<path fill="none" stroke="#63b8ff" d="M1176.14,-201.15C1160.29,-180.45 1145.64,-152.24 1162.22,-132 1213.63,-69.22 1262.05,-113.85 1341.22,-96 1344.08,-95.36 1346.99,-94.69 1349.93,-94"/>
<polygon fill="#63b8ff" stroke="#63b8ff" points="1173.44,-203.37 1182.45,-208.95 1178.89,-198.97 1173.44,-203.37"/>
</a>
</g>
</g>
<!-- Node12 -->
<g id="Node000012" class="node">
<title>Node12</title>
<g id="a_Node000012"><a xlink:href="query__cache_8cpp.html" target="_top" xlink:title=" ">
<polygon fill="white" stroke="#666666" points="1331.72,-162 1170.72,-162 1170.72,-143 1331.72,-143 1331.72,-162"/>
<text text-anchor="middle" x="1251.22" y="-150" font-family="Helvetica,sans-Serif" font-size="10.00">src/gateway/query_cache.cpp</text>
</a>
</g>
</g>
<!-- Node7&#45;&gt;Node12 -->
<g id="edge15_Node000007_Node000012" class="edge">
<title>Node7&#45;&gt;Node12</title>
<g id="a_edge15_Node000007_Node000012"><a xlink:title=" ">
<path fill="none" stroke="#63b8ff" d="M1220.05,-200.25C1229.05,-186.75 1239.19,-171.54 1245.39,-162.24"/>
<polygon fill="#63b8ff" stroke="#63b8ff" points="1216.99,-198.53 1214.35,-208.79 1222.81,-202.42 1216.99,-198.53"/>
</a>
</g>
</g>
<!-- Node8&#45;&gt;Node9 -->
<g id="edge10_Node000008_Node000009" class="edge">
<title>Node8&#45;&gt;Node9</title>
<g id="a_edge10_Node000008_Node000009"><a xlink:title=" ">
<path fill="none" stroke="#63b8ff" d="M1419.22,-121.69C1419.22,-113.08 1419.22,-103.9 1419.22,-96.07"/>
<polygon fill="#63b8ff" stroke="#63b8ff" points="1415.72,-121.79 1419.22,-131.79 1422.72,-121.79 1415.72,-121.79"/>
</a>
</g>
</g>
<!-- Node11 -->
<g id="Node000011" class="node">
<title>Node11</title>
<g id="a_Node000011"><a xlink:href="query__handlers_8cpp.html" target="_top" xlink:title=" ">
<polygon fill="white" stroke="#666666" points="1332.22,-85 1158.22,-85 1158.22,-66 1332.22,-66 1332.22,-85"/>
<text text-anchor="middle" x="1245.22" y="-73" font-family="Helvetica,sans-Serif" font-size="10.00">src/gateway/query_handlers.cpp</text>
</a>
</g>
</g>
<!-- Node8&#45;&gt;Node11 -->
<g id="edge13_Node000008_Node000011" class="edge">
<title>Node8&#45;&gt;Node11</title>
<g id="a_edge13_Node000008_Node000011"><a xlink:title=" ">
<path fill="none" stroke="#63b8ff" d="M1364.62,-127.97C1330.75,-113.37 1289.23,-95.47 1265.14,-85.09"/>
<polygon fill="#63b8ff" stroke="#63b8ff" points="1363.39,-131.25 1373.95,-131.99 1366.16,-124.82 1363.39,-131.25"/>
</a>
</g>
</g>
<!-- Node9&#45;&gt;Node4 -->
<g id="edge11_Node000009_Node000004" class="edge">
<title>Node9&#45;&gt;Node4</title>
<g id="a_edge11_Node000009_Node000004"><a xlink:title=" ">
<path fill="none" stroke="#63b8ff" d="M1340.12,-54.89C1241.18,-36.43 1137.06,-24 1071.24,-17.01"/>
<polygon fill="#63b8ff" stroke="#63b8ff" points="1339.51,-58.34 1349.98,-56.76 1340.81,-51.46 1339.51,-58.34"/>
</a>
</g>
</g>
<!-- Node10 -->
<g id="Node000010" class="node">
<title>Node10</title>
<g id="a_Node000010"><a xlink:href="query__router_8cpp.html" target="_top" xlink:title=" ">
<polygon fill="white" stroke="#666666" points="1499.72,-19 1338.72,-19 1338.72,0 1499.72,0 1499.72,-19"/>
<text text-anchor="middle" x="1419.22" y="-7" font-family="Helvetica,sans-Serif" font-size="10.00">src/gateway/query_router.cpp</text>
</a>
</g>
</g>
<!-- Node9&#45;&gt;Node10 -->
<g id="edge12_Node000009_Node000010" class="edge">
<title>Node9&#45;&gt;Node10</title>
<g id="a_edge12_Node000009_Node000010"><a xlink:title=" ">
<path fill="none" stroke="#63b8ff" d="M1419.22,-44.74C1419.22,-35.45 1419.22,-25.9 1419.22,-19.26"/>
<polygon fill="#63b8ff" stroke="#63b8ff" points="1415.72,-44.95 1419.22,-54.95 1422.72,-44.95 1415.72,-44.95"/>
</a>
</g>
</g>
<!-- Node13&#45;&gt;Node8 -->
<g id="edge17_Node000013_Node000008" class="edge">
<title>Node13&#45;&gt;Node8</title>
<g id="a_edge17_Node000013_Node000008"><a xlink:title=" ">
<path fill="none" stroke="#63b8ff" d="M1404.57,-199.26C1407.38,-190.48 1410.4,-181.07 1412.95,-173.07"/>
<polygon fill="#63b8ff" stroke="#63b8ff" points="1401.24,-198.2 1401.52,-208.79 1407.9,-200.34 1401.24,-198.2"/>
</a>
</g>
</g>
<!-- Node13&#45;&gt;Node9 -->
<g id="edge18_Node000013_Node000009" class="edge">
<title>Node13&#45;&gt;Node9</title>
<g id="a_edge18_Node000013_Node000009"><a xlink:title=" ">
<path fill="none" stroke="#63b8ff" d="M1464.25,-204.14C1477.39,-196.27 1489.44,-186.08 1497.22,-173 1506.53,-157.34 1505.57,-148.2 1497.22,-132 1489.45,-116.93 1475.49,-105.06 1461.5,-96.23"/>
<polygon fill="#63b8ff" stroke="#63b8ff" points="1462.55,-201.08 1455.5,-208.98 1465.94,-207.2 1462.55,-201.08"/>
</a>
</g>
</g>
<!-- Node14&#45;&gt;Node2 -->
<g id="edge21_Node000014_Node000002" class="edge">
<title>Node14&#45;&gt;Node2</title>
<g id="a_edge21_Node000014_Node000002"><a xlink:title=" ">
<path fill="none" stroke="#63b8ff" d="M1024.86,-298.18C875.07,-284.36 551.17,-254.48 388.54,-239.48"/>
<polygon fill="#63b8ff" stroke="#63b8ff" points="1024.62,-301.67 1034.9,-299.11 1025.26,-294.7 1024.62,-301.67"/>
</a>
</g>
</g>
<!-- Node14&#45;&gt;Node3 -->
<g id="edge22_Node000014_Node000003" class="edge">
<title>Node14&#45;&gt;Node3</title>
<g id="a_edge22_Node000014_Node000003"><a xlink:title=" ">
<path fill="none" stroke="#63b8ff" d="M1024.95,-293.75C955.51,-283.19 851.96,-266.8 762.22,-250 676.02,-233.86 655.25,-225.96 569.22,-209 481.46,-191.71 458.7,-191.6 371.22,-173 368.56,-172.44 365.86,-171.85 363.13,-171.24"/>
<polygon fill="#63b8ff" stroke="#63b8ff" points="1024.53,-297.23 1034.94,-295.26 1025.58,-290.31 1024.53,-297.23"/>
</a>
</g>
</g>
<!-- Node14&#45;&gt;Node7 -->
<g id="edge23_Node000014_Node000007" class="edge">
<title>Node14&#45;&gt;Node7</title>
<g id="a_edge23_Node000014_Node000007"><a xlink:title=" ">
<path fill="none" stroke="#63b8ff" d="M1137.44,-279.82C1149.98,-270.11 1164.05,-259.24 1175.77,-250.17"/>
<polygon fill="#63b8ff" stroke="#63b8ff" points="1135.22,-277.1 1129.45,-285.99 1139.5,-282.64 1135.22,-277.1"/>
</a>
</g>
</g>
<!-- Node14&#45;&gt;Node8 -->
<g id="edge25_Node000014_Node000008" class="edge">
<title>Node14&#45;&gt;Node8</title>
<g id="a_edge25_Node000014_Node000008"><a xlink:title=" ">
<path fill="none" stroke="#63b8ff" d="M1183.46,-289.64C1214.87,-281.05 1250.31,-268.33 1279.22,-250 1300.2,-236.69 1297.6,-224.25 1317.22,-209 1335.2,-195.02 1357.18,-182.57 1376.13,-173.02"/>
<polygon fill="#63b8ff" stroke="#63b8ff" points="1182.19,-286.35 1173.41,-292.28 1183.97,-293.12 1182.19,-286.35"/>
</a>
</g>
</g>
<!-- Node14&#45;&gt;Node9 -->
<g id="edge26_Node000014_Node000009" class="edge">
<title>Node14&#45;&gt;Node9</title>
<g id="a_edge26_Node000014_Node000009"><a xlink:title=" ">
<path fill="none" stroke="#63b8ff" d="M1102.7,-275.96C1102.45,-236.61 1108.54,-167.81 1150.22,-132 1215.73,-75.7 1256.83,-114.48 1341.22,-96 1344.08,-95.37 1347,-94.72 1349.94,-94.04"/>
<polygon fill="#63b8ff" stroke="#63b8ff" points="1099.2,-276.06 1102.91,-285.99 1106.2,-275.92 1099.2,-276.06"/>
</a>
</g>
</g>
<!-- Node14&#45;&gt;Node13 -->
<g id="edge24_Node000014_Node000013" class="edge">
<title>Node14&#45;&gt;Node13</title>
<g id="a_edge24_Node000014_Node000013"><a xlink:title=" ">
<path fill="none" stroke="#63b8ff" d="M1183.48,-285.07C1228.12,-273.57 1283.32,-259.34 1326.16,-248.3"/>
<polygon fill="#63b8ff" stroke="#63b8ff" points="1182.36,-281.75 1173.55,-287.63 1184.11,-288.52 1182.36,-281.75"/>
</a>
</g>
</g>
<!-- Node15 -->
<g id="Node000015" class="node">
<title>Node15</title>
<g id="a_Node000015"><a xlink:href="serialization__helpers_8h.html" target="_top" xlink:title="Common serialization utilities for query protocol.">
<polygon fill="white" stroke="#666666" points="901.22,-244.5 771.22,-244.5 771.22,-214.5 901.22,-214.5 901.22,-244.5"/>
<text text-anchor="start" x="779.22" y="-232.5" font-family="Helvetica,sans-Serif" font-size="10.00">src/gateway/protocol</text>
<text text-anchor="middle" x="836.22" y="-221.5" font-family="Helvetica,sans-Serif" font-size="10.00">/serialization_helpers.h</text>
</a>
</g>
</g>
<!-- Node14&#45;&gt;Node15 -->
<g id="edge27_Node000014_Node000015" class="edge">
<title>Node14&#45;&gt;Node15</title>
<g id="a_edge27_Node000014_Node000015"><a xlink:title=" ">
<path fill="none" stroke="#63b8ff" d="M1025.48,-283.46C980.51,-270.88 925.49,-255.48 886.38,-244.54"/>
<polygon fill="#63b8ff" stroke="#63b8ff" points="1024.63,-286.86 1035.2,-286.19 1026.51,-280.12 1024.63,-286.86"/>
</a>
</g>
</g>
<!-- Node16 -->
<g id="Node000016" class="node">
<title>Node16</title>
<g id="a_Node000016"><a xlink:href="auth__serializer_8cpp.html" target="_top" xlink:title="Implementation of auth_token serialization.">
<polygon fill="white" stroke="#666666" points="499.72,-167.5 380.72,-167.5 380.72,-137.5 499.72,-137.5 499.72,-167.5"/>
<text text-anchor="start" x="388.72" y="-155.5" font-family="Helvetica,sans-Serif" font-size="10.00">src/gateway/protocol</text>
<text text-anchor="middle" x="440.22" y="-144.5" font-family="Helvetica,sans-Serif" font-size="10.00">/auth_serializer.cpp</text>
</a>
</g>
</g>
<!-- Node15&#45;&gt;Node16 -->
<g id="edge28_Node000015_Node000016" class="edge">
<title>Node15&#45;&gt;Node16</title>
<g id="a_edge28_Node000015_Node000016"><a xlink:title=" ">
<path fill="none" stroke="#63b8ff" d="M761.06,-218.22C694.27,-208.51 594.19,-192.54 508.22,-173 501.15,-171.39 493.73,-169.49 486.49,-167.52"/>
<polygon fill="#63b8ff" stroke="#63b8ff" points="760.68,-221.7 771.07,-219.67 761.68,-214.77 760.68,-221.7"/>
</a>
</g>
</g>
<!-- Node17 -->
<g id="Node000017" class="node">
<title>Node17</title>
<g id="a_Node000017"><a xlink:href="header__serializer_8cpp.html" target="_top" xlink:title="Implementation of message_header serialization.">
<polygon fill="white" stroke="#666666" points="640.72,-167.5 517.72,-167.5 517.72,-137.5 640.72,-137.5 640.72,-167.5"/>
<text text-anchor="start" x="525.72" y="-155.5" font-family="Helvetica,sans-Serif" font-size="10.00">src/gateway/protocol</text>
<text text-anchor="middle" x="579.22" y="-144.5" font-family="Helvetica,sans-Serif" font-size="10.00">/header_serializer.cpp</text>
</a>
</g>
</g>
<!-- Node15&#45;&gt;Node17 -->
<g id="edge29_Node000015_Node000017" class="edge">
<title>Node15&#45;&gt;Node17</title>
<g id="a_edge29_Node000015_Node000017"><a xlink:title=" ">
<path fill="none" stroke="#63b8ff" d="M778.46,-211.64C732.96,-198.37 670.29,-180.08 627.46,-167.58"/>
<polygon fill="#63b8ff" stroke="#63b8ff" points="777.6,-215.04 788.18,-214.48 779.56,-208.32 777.6,-215.04"/>
</a>
</g>
</g>
<!-- Node18 -->
<g id="Node000018" class="node">
<title>Node18</title>
<g id="a_Node000018"><a xlink:href="param__serializer_8cpp.html" target="_top" xlink:title="Implementation of query_param serialization.">
<polygon fill="white" stroke="#666666" points="779.72,-167.5 658.72,-167.5 658.72,-137.5 779.72,-137.5 779.72,-167.5"/>
<text text-anchor="start" x="666.72" y="-155.5" font-family="Helvetica,sans-Serif" font-size="10.00">src/gateway/protocol</text>
<text text-anchor="middle" x="719.22" y="-144.5" font-family="Helvetica,sans-Serif" font-size="10.00">/param_serializer.cpp</text>
</a>
</g>
</g>
<!-- Node15&#45;&gt;Node18 -->
<g id="edge30_Node000015_Node000018" class="edge">
<title>Node15&#45;&gt;Node18</title>
<g id="a_edge30_Node000015_Node000018"><a xlink:title=" ">
<path fill="none" stroke="#63b8ff" d="M805.65,-208.9C785.4,-195.93 759.32,-179.21 741.13,-167.54"/>
<polygon fill="#63b8ff" stroke="#63b8ff" points="803.9,-211.94 814.21,-214.39 807.68,-206.05 803.9,-211.94"/>
</a>
</g>
</g>
<!-- Node19 -->
<g id="Node000019" class="node">
<title>Node19</title>
<g id="a_Node000019"><a xlink:href="request__serializer_8cpp.html" target="_top" xlink:title="Implementation of query_request serialization.">
<polygon fill="white" stroke="#666666" points="924.22,-167.5 798.22,-167.5 798.22,-137.5 924.22,-137.5 924.22,-167.5"/>
<text text-anchor="start" x="806.22" y="-155.5" font-family="Helvetica,sans-Serif" font-size="10.00">src/gateway/protocol</text>
<text text-anchor="middle" x="861.22" y="-144.5" font-family="Helvetica,sans-Serif" font-size="10.00">/request_serializer.cpp</text>
</a>
</g>
</g>
<!-- Node15&#45;&gt;Node19 -->
<g id="edge31_Node000015_Node000019" class="edge">
<title>Node15&#45;&gt;Node19</title>
<g id="a_edge31_Node000015_Node000019"><a xlink:title=" ">
<path fill="none" stroke="#63b8ff" d="M844.12,-204.78C848.21,-192.53 853.05,-178 856.54,-167.54"/>
<polygon fill="#63b8ff" stroke="#63b8ff" points="840.76,-203.8 840.92,-214.39 847.4,-206.01 840.76,-203.8"/>
</a>
</g>
</g>
<!-- Node20 -->
<g id="Node000020" class="node">
<title>Node20</title>
<g id="a_Node000020"><a xlink:href="response__serializer_8cpp.html" target="_top" xlink:title="Implementation of query_response, column_metadata, result_row serialization.">
<polygon fill="white" stroke="#666666" points="1076.22,-167.5 942.22,-167.5 942.22,-137.5 1076.22,-137.5 1076.22,-167.5"/>
<text text-anchor="start" x="950.22" y="-155.5" font-family="Helvetica,sans-Serif" font-size="10.00">src/gateway/protocol</text>
<text text-anchor="middle" x="1009.22" y="-144.5" font-family="Helvetica,sans-Serif" font-size="10.00">/response_serializer.cpp</text>
</a>
</g>
</g>
<!-- Node15&#45;&gt;Node20 -->
<g id="edge32_Node000015_Node000020" class="edge">
<title>Node15&#45;&gt;Node20</title>
<g id="a_edge32_Node000015_Node000020"><a xlink:title=" ">
<path fill="none" stroke="#63b8ff" d="M878.23,-210.29C908.57,-197.13 948.96,-179.62 976.82,-167.54"/>
<polygon fill="#63b8ff" stroke="#63b8ff" points="876.54,-207.2 868.76,-214.39 879.32,-213.63 876.54,-207.2"/>
</a>
</g>
</g>
</g>
</svg>

<g id="navigator" transform="translate(0 0)" fill="#404254">
  <rect fill="#f2f5e9" fill-opacity="0.5" stroke="#606060" stroke-width=".5" x="0" y="0" width="60" height="60"/>
  <use id="zoomplus" xlink:href="#zoomPlus" x="17" y="9" onmousedown="handleZoom(evt,'in')"/>
  <use id="zoomminus" xlink:href="#zoomMin" x="42" y="9" onmousedown="handleZoom(evt,'out')"/>
  <use id="reset" xlink:href="#resetDef" x="30" y="36" onmousedown="handleReset()"/>
   <use id="arrowup" xlink:href="#arrowUp" x="0" y="0" onmousedown="handlePan(0,-1)"/>
  <use id="arrowright" xlink:href="#arrowRight" x="0" y="0" onmousedown="handlePan(1,0)"/>
  <use id="arrowdown" xlink:href="#arrowDown" x="0" y="0" onmousedown="handlePan(0,1)"/>
  <use id="arrowleft" xlink:href="#arrowLeft" x="0" y="0" onmousedown="handlePan(-1,0)"/>
</g>
<svg viewBox="0 0 15 15" width="100%" height="30px" preserveAspectRatio="xMaxYMin meet">
 <g id="arrow_out" transform="scale(0.3 0.3)">
  <a xlink:href="query__types_8h__dep__incl_org.svg" target="_base">
   <rect id="button" ry="5" rx="5" y="6" x="6" height="38" width="38"
        fill="#f2f5e9" fill-opacity="0.5" stroke="#606060" stroke-width="1.0"/>
   <path id="arrow"
     d="M 11.500037,31.436501 C 11.940474,20.09759 22.043105,11.32322 32.158766,21.979434 L 37.068811,17.246167 C 37.068811,17.246167 37.088388,32 37.088388,32 L 22.160133,31.978069 C 22.160133,31.978069 26.997745,27.140456 26.997745,27.140456 C 18.528582,18.264221 13.291696,25.230495 11.500037,31.436501 z"
     style="fill:#404040;"/>
  </a>
 </g>
</svg>

<style type='text/css'>
<![CDATA[
[data-mouse-over-selected='false'] { opacity: 0.7; }
[data-mouse-over-selected='true']  { opacity: 1.0; }
]]>
</style>
<script type="application/ecmascript"><![CDATA[
document.addEventListener('DOMContentLoaded', (event) => {
  highlightEdges();
  highlightAdjacentNodes();
});
]]></script>
</svg>
