<?xml version="1.0" encoding="UTF-8" standalone="no"?>
<!DOCTYPE svg PUBLIC "-//W3C//DTD SVG 1.1//EN"
 "http://www.w3.org/Graphics/SVG/1.1/DTD/svg11.dtd">
<!-- Generated by graphviz version 2.43.0 (0)
 -->
<!-- Title: src/metrics/query_metrics_collector.cpp Pages: 1 -->
<!--zoomable 335 -->

<svg id="main" version="1.1" xmlns="http://www.w3.org/2000/svg" xmlns:xlink="http://www.w3.org/1999/xlink" xml:space="preserve" onload="init(evt)">
<style type="text/css"><![CDATA[
.node, .edge {opacity: 0.7;}
.node.selected, .edge.selected {opacity: 1;}
.edge:hover path { stroke: red; }
.edge:hover polygon { stroke: red; fill: red; }
]]></style>

<defs>
  <circle id="rim" cx="0" cy="0" r="7"/>
  <circle id="rim2" cx="0" cy="0" r="3.5"/>
  <g id="zoomPlus">
    <use xlink:href="#rim" fill="#404040"><set attributeName="fill" to="#808080" begin="zoomplus.mouseover" end="zoomplus.mouseout"/></use>
    <path d="M-4,0h8M0,-4v8" fill="none" stroke="white" stroke-width="1.5" pointer-events="none"/>
  </g>
  <g id="zoomMin">
    <use xlink:href="#rim" fill="#404040"><set attributeName="fill" to="#808080" begin="zoomminus.mouseover" end="zoomminus.mouseout"/></use>
    <path d="M-4,0h8" fill="none" stroke="white" stroke-width="1.5" pointer-events="none"/>
  </g>
  <g id="arrowUp" transform="translate(30 24)">
    <use xlink:href="#rim"/>
    <path pointer-events="none" fill="none" stroke="white" stroke-width="1.5" d="M0,-3.0v7 M-2.5,-0.5L0,-3.0L2.5,-0.5"/>
  </g>
  <g id="arrowRight" transform="rotate(90) translate(36 -43)">
    <use xlink:href="#rim"/>
    <path pointer-events="none" fill="none" stroke="white" stroke-width="1.5" d="M0,-3.0v7 M-2.5,-0.5L0,-3.0L2.5,-0.5"/>
  </g>
  <g id="arrowDown" transform="rotate(180) translate(-30 -48)">
    <use xlink:href="#rim"/>
    <path pointer-events="none" fill="none" stroke="white" stroke-width="1.5" d="M0,-3.0v7 M-2.5,-0.5L0,-3.0L2.5,-0.5"/>
  </g>
  <g id="arrowLeft" transform="rotate(270) translate(-36 17)">
    <use xlink:href="#rim"/>
    <path pointer-events="none" fill="none" stroke="white" stroke-width="1.5" d="M0,-3.0v7 M-2.5,-0.5L0,-3.0L2.5,-0.5"/>
  </g>
  <g id="resetDef">
    <use xlink:href="#rim2" fill="#404040"><set attributeName="fill" to="#808080" begin="reset.mouseover" end="reset.mouseout"/></use>
  </g>
</defs>
<script type="application/ecmascript">
var viewWidth = 623;
var viewHeight = 335;
var sectionId = 'dynsection-0';
</script>
<script type="application/ecmascript" xlink:href="svg.min.js"/>
<svg id="graph" class="graph">
<g id="viewport">
<title>src/metrics/query_metrics_collector.cpp</title>
<!-- Node1 -->
<g id="Node000001" class="node">
<title>Node1</title>
<g id="a_Node000001"><a xlink:title=" ">
<polygon fill="#999999" stroke="#666666" points="574.5,-327 431.5,-327 431.5,-297 574.5,-297 574.5,-327"/>
<text text-anchor="start" x="439.5" y="-315" font-family="Helvetica,sans-Serif" font-size="10.00">src/metrics/query_metrics</text>
<text text-anchor="middle" x="503" y="-304" font-family="Helvetica,sans-Serif" font-size="10.00">_collector.cpp</text>
</a>
</g>
</g>
<!-- Node2 -->
<g id="Node000002" class="node">
<title>Node2</title>
<g id="a_Node000002"><a xlink:href="query__metrics__collector_8h.html" target="_top" xlink:title="CRTP&#45;based query metrics collector implementation.">
<polygon fill="white" stroke="#666666" points="420,-261 284,-261 284,-220 420,-220 420,-261"/>
<text text-anchor="start" x="292" y="-249" font-family="Helvetica,sans-Serif" font-size="10.00">kcenon/database_server</text>
<text text-anchor="start" x="292" y="-238" font-family="Helvetica,sans-Serif" font-size="10.00">/metrics/query_metrics</text>
<text text-anchor="middle" x="352" y="-227" font-family="Helvetica,sans-Serif" font-size="10.00">_collector.h</text>
</a>
</g>
</g>
<!-- Node1&#45;&gt;Node2 -->
<g id="edge1_Node000001_Node000002" class="edge">
<title>Node1&#45;&gt;Node2</title>
<g id="a_edge1_Node000001_Node000002"><a xlink:title=" ">
<path fill="none" stroke="#63b8ff" d="M472.44,-296.94C452.75,-287.87 426.64,-275.86 403.77,-265.33"/>
<polygon fill="#63b8ff" stroke="#63b8ff" points="405.07,-262.08 394.53,-261.07 402.15,-268.43 405.07,-262.08"/>
</a>
</g>
</g>
<!-- Node10 -->
<g id="Node000010" class="node">
<title>Node10</title>
<g id="a_Node000010"><a xlink:title=" ">
<polygon fill="#e0e0e0" stroke="#999999" points="483,-129 435,-129 435,-110 483,-110 483,-129"/>
<text text-anchor="middle" x="459" y="-117" font-family="Helvetica,sans-Serif" font-size="10.00">mutex</text>
</a>
</g>
</g>
<!-- Node1&#45;&gt;Node10 -->
<g id="edge22_Node000001_Node000010" class="edge">
<title>Node1&#45;&gt;Node10</title>
<g id="a_edge22_Node000001_Node000010"><a xlink:title=" ">
<path fill="none" stroke="#63b8ff" d="M506.67,-296.61C512.81,-269.58 522.75,-209.91 504,-165 499.14,-153.36 489.58,-143.2 480.52,-135.55"/>
<polygon fill="#63b8ff" stroke="#63b8ff" points="482.52,-132.67 472.49,-129.25 478.2,-138.17 482.52,-132.67"/>
</a>
</g>
</g>
<!-- Node13 -->
<g id="Node000013" class="node">
<title>Node13</title>
<g id="a_Node000013"><a xlink:title=" ">
<polygon fill="#e0e0e0" stroke="#999999" points="495,-184 437,-184 437,-165 495,-165 495,-184"/>
<text text-anchor="middle" x="466" y="-172" font-family="Helvetica,sans-Serif" font-size="10.00">memory</text>
</a>
</g>
</g>
<!-- Node1&#45;&gt;Node13 -->
<g id="edge21_Node000001_Node000013" class="edge">
<title>Node1&#45;&gt;Node13</title>
<g id="a_edge21_Node000001_Node000013"><a xlink:title=" ">
<path fill="none" stroke="#63b8ff" d="M499.11,-296.76C492.36,-272.03 478.48,-221.21 471.02,-193.87"/>
<polygon fill="#63b8ff" stroke="#63b8ff" points="474.34,-192.76 468.33,-184.03 467.59,-194.6 474.34,-192.76"/>
</a>
</g>
</g>
<!-- Node15 -->
<g id="Node000015" class="node">
<title>Node15</title>
<g id="a_Node000015"><a xlink:title=" ">
<polygon fill="#e0e0e0" stroke="#999999" points="615,-250 551,-250 551,-231 615,-231 615,-250"/>
<text text-anchor="middle" x="583" y="-238" font-family="Helvetica,sans-Serif" font-size="10.00">algorithm</text>
</a>
</g>
</g>
<!-- Node1&#45;&gt;Node15 -->
<g id="edge20_Node000001_Node000015" class="edge">
<title>Node1&#45;&gt;Node15</title>
<g id="a_edge20_Node000001_Node000015"><a xlink:title=" ">
<path fill="none" stroke="#63b8ff" d="M519.19,-296.94C532.5,-285.37 551.34,-269.01 565.09,-257.06"/>
<polygon fill="#63b8ff" stroke="#63b8ff" points="567.65,-259.47 572.91,-250.27 563.06,-254.18 567.65,-259.47"/>
</a>
</g>
</g>
<!-- Node3 -->
<g id="Node000003" class="node">
<title>Node3</title>
<g id="a_Node000003"><a xlink:href="query__collector__base_8h.html" target="_top" xlink:title="CRTP base class for query metrics collectors.">
<polygon fill="white" stroke="#666666" points="380.5,-184 251.5,-184 251.5,-165 380.5,-165 380.5,-184"/>
<text text-anchor="middle" x="316" y="-172" font-family="Helvetica,sans-Serif" font-size="10.00">query_collector_base.h</text>
</a>
</g>
</g>
<!-- Node2&#45;&gt;Node3 -->
<g id="edge2_Node000002_Node000003" class="edge">
<title>Node2&#45;&gt;Node3</title>
<g id="a_edge2_Node000002_Node000003"><a xlink:title=" ">
<path fill="none" stroke="#63b8ff" d="M341,-219.95C336.19,-211.39 330.58,-201.42 325.9,-193.1"/>
<polygon fill="#63b8ff" stroke="#63b8ff" points="328.88,-191.26 320.93,-184.26 322.78,-194.69 328.88,-191.26"/>
</a>
</g>
</g>
<!-- Node4 -->
<g id="Node000004" class="node">
<title>Node4</title>
<g id="a_Node000004"><a xlink:href="query__metrics_8h.html" target="_top" xlink:title="Metrics structures for query server performance monitoring.">
<polygon fill="white" stroke="#666666" points="166.5,-129 71.5,-129 71.5,-110 166.5,-110 166.5,-129"/>
<text text-anchor="middle" x="119" y="-117" font-family="Helvetica,sans-Serif" font-size="10.00">query_metrics.h</text>
</a>
</g>
</g>
<!-- Node2&#45;&gt;Node4 -->
<g id="edge16_Node000002_Node000004" class="edge">
<title>Node2&#45;&gt;Node4</title>
<g id="a_edge16_Node000002_Node000004"><a xlink:title=" ">
<path fill="none" stroke="#63b8ff" d="M283.84,-238.61C237.07,-234.39 176.69,-221.29 138,-184 125.97,-172.41 121.47,-153.54 119.84,-139.38"/>
<polygon fill="#63b8ff" stroke="#63b8ff" points="123.31,-138.95 119.05,-129.26 116.33,-139.5 123.31,-138.95"/>
</a>
</g>
</g>
<!-- Node2&#45;&gt;Node10 -->
<g id="edge18_Node000002_Node000010" class="edge">
<title>Node2&#45;&gt;Node10</title>
<g id="a_edge18_Node000002_Node000010"><a xlink:title=" ">
<path fill="none" stroke="#63b8ff" d="M369.67,-219.85C390.52,-196.65 424.83,-158.51 444.3,-136.85"/>
<polygon fill="#63b8ff" stroke="#63b8ff" points="447.12,-138.95 451.2,-129.18 441.91,-134.27 447.12,-138.95"/>
</a>
</g>
</g>
<!-- Node2&#45;&gt;Node13 -->
<g id="edge17_Node000002_Node000013" class="edge">
<title>Node2&#45;&gt;Node13</title>
<g id="a_edge17_Node000002_Node000013"><a xlink:title=" ">
<path fill="none" stroke="#63b8ff" d="M386.82,-219.95C404.67,-209.93 425.95,-197.99 441.95,-189"/>
<polygon fill="#63b8ff" stroke="#63b8ff" points="443.69,-192.04 450.7,-184.09 440.26,-185.94 443.69,-192.04"/>
</a>
</g>
</g>
<!-- Node14 -->
<g id="Node000014" class="node">
<title>Node14</title>
<g id="a_Node000014"><a xlink:title=" ">
<polygon fill="#e0e0e0" stroke="#999999" points="233,-184 147,-184 147,-165 233,-165 233,-184"/>
<text text-anchor="middle" x="190" y="-172" font-family="Helvetica,sans-Serif" font-size="10.00">shared_mutex</text>
</a>
</g>
</g>
<!-- Node2&#45;&gt;Node14 -->
<g id="edge19_Node000002_Node000014" class="edge">
<title>Node2&#45;&gt;Node14</title>
<g id="a_edge19_Node000002_Node000014"><a xlink:title=" ">
<path fill="none" stroke="#63b8ff" d="M302.51,-219.95C276.09,-209.51 244.37,-196.98 221.35,-187.88"/>
<polygon fill="#63b8ff" stroke="#63b8ff" points="222.33,-184.51 211.75,-184.09 219.76,-191.02 222.33,-184.51"/>
</a>
</g>
</g>
<!-- Node3&#45;&gt;Node4 -->
<g id="edge3_Node000003_Node000004" class="edge">
<title>Node3&#45;&gt;Node4</title>
<g id="a_edge3_Node000003_Node000004"><a xlink:title=" ">
<path fill="none" stroke="#63b8ff" d="M284.35,-164.98C250.84,-155.97 197.8,-141.7 160.86,-131.76"/>
<polygon fill="#63b8ff" stroke="#63b8ff" points="161.47,-128.3 150.9,-129.08 159.65,-135.06 161.47,-128.3"/>
</a>
</g>
</g>
<!-- Node6 -->
<g id="Node000006" class="node">
<title>Node6</title>
<g id="a_Node000006"><a xlink:title=" ">
<polygon fill="#e0e0e0" stroke="#999999" points="193,-19 143,-19 143,0 193,0 193,-19"/>
<text text-anchor="middle" x="168" y="-7" font-family="Helvetica,sans-Serif" font-size="10.00">atomic</text>
</a>
</g>
</g>
<!-- Node3&#45;&gt;Node6 -->
<g id="edge11_Node000003_Node000006" class="edge">
<title>Node3&#45;&gt;Node6</title>
<g id="a_edge11_Node000003_Node000006"><a xlink:title=" ">
<path fill="none" stroke="#63b8ff" d="M339.81,-164.82C365.92,-153.88 402.22,-133.64 387,-110 346.26,-46.74 254.38,-23.24 203.53,-14.87"/>
<polygon fill="#63b8ff" stroke="#63b8ff" points="203.75,-11.36 193.33,-13.3 202.69,-18.28 203.75,-11.36"/>
</a>
</g>
</g>
<!-- Node9 -->
<g id="Node000009" class="node">
<title>Node9</title>
<g id="a_Node000009"><a xlink:title=" ">
<polygon fill="#e0e0e0" stroke="#999999" points="246,-74 196,-74 196,-55 246,-55 246,-74"/>
<text text-anchor="middle" x="221" y="-62" font-family="Helvetica,sans-Serif" font-size="10.00">chrono</text>
</a>
</g>
</g>
<!-- Node3&#45;&gt;Node9 -->
<g id="edge12_Node000003_Node000009" class="edge">
<title>Node3&#45;&gt;Node9</title>
<g id="a_edge12_Node000003_Node000009"><a xlink:title=" ">
<path fill="none" stroke="#63b8ff" d="M268.86,-164.95C248.37,-158.64 226.28,-147.75 214,-129 205.28,-115.67 208.54,-97.32 213.09,-83.77"/>
<polygon fill="#63b8ff" stroke="#63b8ff" points="216.48,-84.71 216.81,-74.12 209.95,-82.19 216.48,-84.71"/>
</a>
</g>
</g>
<!-- Node3&#45;&gt;Node10 -->
<g id="edge13_Node000003_Node000010" class="edge">
<title>Node3&#45;&gt;Node10</title>
<g id="a_edge13_Node000003_Node000010"><a xlink:title=" ">
<path fill="none" stroke="#63b8ff" d="M338.98,-164.98C362.5,-156.27 399.29,-142.63 425.94,-132.75"/>
<polygon fill="#63b8ff" stroke="#63b8ff" points="427.45,-135.93 435.61,-129.17 425.01,-129.36 427.45,-135.93"/>
</a>
</g>
</g>
<!-- Node11 -->
<g id="Node000011" class="node">
<title>Node11</title>
<g id="a_Node000011"><a xlink:title=" ">
<polygon fill="#e0e0e0" stroke="#999999" points="267,-129 223,-129 223,-110 267,-110 267,-129"/>
<text text-anchor="middle" x="245" y="-117" font-family="Helvetica,sans-Serif" font-size="10.00">string</text>
</a>
</g>
</g>
<!-- Node3&#45;&gt;Node11 -->
<g id="edge14_Node000003_Node000011" class="edge">
<title>Node3&#45;&gt;Node11</title>
<g id="a_edge14_Node000003_Node000011"><a xlink:title=" ">
<path fill="none" stroke="#63b8ff" d="M304.59,-164.98C293.89,-157 277.66,-144.88 264.84,-135.31"/>
<polygon fill="#63b8ff" stroke="#63b8ff" points="266.72,-132.35 256.61,-129.17 262.53,-137.96 266.72,-132.35"/>
</a>
</g>
</g>
<!-- Node12 -->
<g id="Node000012" class="node">
<title>Node12</title>
<g id="a_Node000012"><a xlink:title=" ">
<polygon fill="#e0e0e0" stroke="#999999" points="378.5,-129 285.5,-129 285.5,-110 378.5,-110 378.5,-129"/>
<text text-anchor="middle" x="332" y="-117" font-family="Helvetica,sans-Serif" font-size="10.00">unordered_map</text>
</a>
</g>
</g>
<!-- Node3&#45;&gt;Node12 -->
<g id="edge15_Node000003_Node000012" class="edge">
<title>Node3&#45;&gt;Node12</title>
<g id="a_edge15_Node000003_Node000012"><a xlink:title=" ">
<path fill="none" stroke="#63b8ff" d="M318.64,-164.75C320.76,-157.72 323.81,-147.62 326.46,-138.84"/>
<polygon fill="#63b8ff" stroke="#63b8ff" points="329.87,-139.67 329.41,-129.09 323.17,-137.65 329.87,-139.67"/>
</a>
</g>
</g>
<!-- Node5 -->
<g id="Node000005" class="node">
<title>Node5</title>
<g id="a_Node000005"><a xlink:href="metrics__base_8h.html" target="_top" xlink:title="Common utilities for atomic metrics operations.">
<polygon fill="white" stroke="#666666" points="139.5,-74 48.5,-74 48.5,-55 139.5,-55 139.5,-74"/>
<text text-anchor="middle" x="94" y="-62" font-family="Helvetica,sans-Serif" font-size="10.00">metrics_base.h</text>
</a>
</g>
</g>
<!-- Node4&#45;&gt;Node5 -->
<g id="edge4_Node000004_Node000005" class="edge">
<title>Node4&#45;&gt;Node5</title>
<g id="a_edge4_Node000004_Node000005"><a xlink:title=" ">
<path fill="none" stroke="#63b8ff" d="M114.87,-109.75C111.49,-102.57 106.58,-92.18 102.38,-83.27"/>
<polygon fill="#63b8ff" stroke="#63b8ff" points="105.48,-81.64 98.05,-74.09 99.15,-84.63 105.48,-81.64"/>
</a>
</g>
</g>
<!-- Node4&#45;&gt;Node6 -->
<g id="edge8_Node000004_Node000006" class="edge">
<title>Node4&#45;&gt;Node6</title>
<g id="a_edge8_Node000004_Node000006"><a xlink:title=" ">
<path fill="none" stroke="#63b8ff" d="M125.76,-109.72C132.19,-101.04 141.78,-87.17 148,-74 154.8,-59.61 160.07,-42.33 163.49,-29.44"/>
<polygon fill="#63b8ff" stroke="#63b8ff" points="166.96,-29.96 166.01,-19.41 160.18,-28.26 166.96,-29.96"/>
</a>
</g>
</g>
<!-- Node7 -->
<g id="Node000007" class="node">
<title>Node7</title>
<g id="a_Node000007"><a xlink:title=" ">
<polygon fill="#e0e0e0" stroke="#999999" points="50,-19 0,-19 0,0 50,0 50,-19"/>
<text text-anchor="middle" x="25" y="-7" font-family="Helvetica,sans-Serif" font-size="10.00">cstdint</text>
</a>
</g>
</g>
<!-- Node4&#45;&gt;Node7 -->
<g id="edge10_Node000004_Node000007" class="edge">
<title>Node4&#45;&gt;Node7</title>
<g id="a_edge10_Node000004_Node000007"><a xlink:title=" ">
<path fill="none" stroke="#63b8ff" d="M91.64,-109.91C74,-102.98 52,-91.46 39,-74 29.41,-61.13 26.16,-42.96 25.16,-29.36"/>
<polygon fill="#63b8ff" stroke="#63b8ff" points="28.65,-29.07 24.76,-19.22 21.65,-29.35 28.65,-29.07"/>
</a>
</g>
</g>
<!-- Node4&#45;&gt;Node9 -->
<g id="edge9_Node000004_Node000009" class="edge">
<title>Node4&#45;&gt;Node9</title>
<g id="a_edge9_Node000004_Node000009"><a xlink:title=" ">
<path fill="none" stroke="#63b8ff" d="M135.39,-109.98C151.57,-101.57 176.57,-88.59 195.38,-78.81"/>
<polygon fill="#63b8ff" stroke="#63b8ff" points="197.05,-81.89 204.31,-74.17 193.83,-75.68 197.05,-81.89"/>
</a>
</g>
</g>
<!-- Node5&#45;&gt;Node6 -->
<g id="edge5_Node000005_Node000006" class="edge">
<title>Node5&#45;&gt;Node6</title>
<g id="a_edge5_Node000005_Node000006"><a xlink:title=" ">
<path fill="none" stroke="#63b8ff" d="M105.89,-54.98C117.15,-46.92 134.29,-34.65 147.71,-25.03"/>
<polygon fill="#63b8ff" stroke="#63b8ff" points="149.8,-27.84 155.89,-19.17 145.73,-22.15 149.8,-27.84"/>
</a>
</g>
</g>
<!-- Node5&#45;&gt;Node7 -->
<g id="edge6_Node000005_Node000007" class="edge">
<title>Node5&#45;&gt;Node7</title>
<g id="a_edge6_Node000005_Node000007"><a xlink:title=" ">
<path fill="none" stroke="#63b8ff" d="M82.91,-54.98C72.51,-47 56.74,-34.88 44.28,-25.31"/>
<polygon fill="#63b8ff" stroke="#63b8ff" points="46.35,-22.49 36.29,-19.17 42.09,-28.04 46.35,-22.49"/>
</a>
</g>
</g>
<!-- Node8 -->
<g id="Node000008" class="node">
<title>Node8</title>
<g id="a_Node000008"><a xlink:title=" ">
<polygon fill="#e0e0e0" stroke="#999999" points="116,-19 72,-19 72,0 116,0 116,-19"/>
<text text-anchor="middle" x="94" y="-7" font-family="Helvetica,sans-Serif" font-size="10.00">limits</text>
</a>
</g>
</g>
<!-- Node5&#45;&gt;Node8 -->
<g id="edge7_Node000005_Node000008" class="edge">
<title>Node5&#45;&gt;Node8</title>
<g id="a_edge7_Node000005_Node000008"><a xlink:title=" ">
<path fill="none" stroke="#63b8ff" d="M94,-54.75C94,-47.8 94,-37.85 94,-29.13"/>
<polygon fill="#63b8ff" stroke="#63b8ff" points="97.5,-29.09 94,-19.09 90.5,-29.09 97.5,-29.09"/>
</a>
</g>
</g>
</g>
</svg>

<g id="navigator" transform="translate(0 0)" fill="#404254">
  <rect fill="#f2f5e9" fill-opacity="0.5" stroke="#606060" stroke-width=".5" x="0" y="0" width="60" height="60"/>
  <use id="zoomplus" xlink:href="#zoomPlus" x="17" y="9" onmousedown="handleZoom(evt,'in')"/>
  <use id="zoomminus" xlink:href="#zoomMin" x="42" y="9" onmousedown="handleZoom(evt,'out')"/>
  <use id="reset" xlink:href="#resetDef" x="30" y="36" onmousedown="handleReset()"/>
   <use id="arrowup" xlink:href="#arrowUp" x="0" y="0" onmousedown="handlePan(0,-1)"/>
  <use id="arrowright" xlink:href="#arrowRight" x="0" y="0" onmousedown="handlePan(1,0)"/>
  <use id="arrowdown" xlink:href="#arrowDown" x="0" y="0" onmousedown="handlePan(0,1)"/>
  <use id="arrowleft" xlink:href="#arrowLeft" x="0" y="0" onmousedown="handlePan(-1,0)"/>
</g>
<svg viewBox="0 0 15 15" width="100%" height="30px" preserveAspectRatio="xMaxYMin meet">
 <g id="arrow_out" transform="scale(0.3 0.3)">
  <a xlink:href="query__metrics__collector_8cpp__incl_org.svg" target="_base">
   <rect id="button" ry="5" rx="5" y="6" x="6" height="38" width="38"
        fill="#f2f5e9" fill-opacity="0.5" stroke="#606060" stroke-width="1.0"/>
   <path id="arrow"
     d="M 11.500037,31.436501 C 11.940474,20.09759 22.043105,11.32322 32.158766,21.979434 L 37.068811,17.246167 C 37.068811,17.246167 37.088388,32 37.088388,32 L 22.160133,31.978069 C 22.160133,31.978069 26.997745,27.140456 26.997745,27.140456 C 18.528582,18.264221 13.291696,25.230495 11.500037,31.436501 z"
     style="fill:#404040;"/>
  </a>
 </g>
</svg>

<style type='text/css'>
<![CDATA[
[data-mouse-over-selected='false'] { opacity: 0.7; }
[data-mouse-over-selected='true']  { opacity: 1.0; }
]]>
</style>
<script type="application/ecmascript"><![CDATA[
document.addEventListener('DOMContentLoaded', (event) => {
  highlightEdges();
  highlightAdjacentNodes();
});
]]></script>
</svg>
