<?xml version="1.0" encoding="UTF-8" standalone="no"?>
<!DOCTYPE svg PUBLIC "-//W3C//DTD SVG 1.1//EN"
 "http://www.w3.org/Graphics/SVG/1.1/DTD/svg11.dtd">
<!-- Generated by graphviz version 2.43.0 (0)
 -->
<!-- Title: include/kcenon/database_server/gateway/query_cache.h Pages: 1 -->
<!--zoomable 225 -->

<svg id="main" version="1.1" xmlns="http://www.w3.org/2000/svg" xmlns:xlink="http://www.w3.org/1999/xlink" xml:space="preserve" onload="init(evt)">
<style type="text/css"><![CDATA[
.node, .edge {opacity: 0.7;}
.node.selected, .edge.selected {opacity: 1;}
.edge:hover path { stroke: red; }
.edge:hover polygon { stroke: red; fill: red; }
]]></style>

<defs>
  <circle id="rim" cx="0" cy="0" r="7"/>
  <circle id="rim2" cx="0" cy="0" r="3.5"/>
  <g id="zoomPlus">
    <use xlink:href="#rim" fill="#404040"><set attributeName="fill" to="#808080" begin="zoomplus.mouseover" end="zoomplus.mouseout"/></use>
    <path d="M-4,0h8M0,-4v8" fill="none" stroke="white" stroke-width="1.5" pointer-events="none"/>
  </g>
  <g id="zoomMin">
    <use xlink:href="#rim" fill="#404040"><set attributeName="fill" to="#808080" begin="zoomminus.mouseover" end="zoomminus.mouseout"/></use>
    <path d="M-4,0h8" fill="none" stroke="white" stroke-width="1.5" pointer-events="none"/>
  </g>
  <g id="arrowUp" transform="translate(30 24)">
    <use xlink:href="#rim"/>
    <path pointer-events="none" fill="none" stroke="white" stroke-width="1.5" d="M0,-3.0v7 M-2.5,-0.5L0,-3.0L2.5,-0.5"/>
  </g>
  <g id="arrowRight" transform="rotate(90) translate(36 -43)">
    <use xlink:href="#rim"/>
    <path pointer-events="none" fill="none" stroke="white" stroke-width="1.5" d="M0,-3.0v7 M-2.5,-0.5L0,-3.0L2.5,-0.5"/>
  </g>
  <g id="arrowDown" transform="rotate(180) translate(-30 -48)">
    <use xlink:href="#rim"/>
    <path pointer-events="none" fill="none" stroke="white" stroke-width="1.5" d="M0,-3.0v7 M-2.5,-0.5L0,-3.0L2.5,-0.5"/>
  </g>
  <g id="arrowLeft" transform="rotate(270) translate(-36 17)">
    <use xlink:href="#rim"/>
    <path pointer-events="none" fill="none" stroke="white" stroke-width="1.5" d="M0,-3.0v7 M-2.5,-0.5L0,-3.0L2.5,-0.5"/>
  </g>
  <g id="resetDef">
    <use xlink:href="#rim2" fill="#404040"><set attributeName="fill" to="#808080" begin="reset.mouseover" end="reset.mouseout"/></use>
  </g>
</defs>
<script type="application/ecmascript">
var viewWidth = 1314;
var viewHeight = 225;
var sectionId = 'dynsection-0';
</script>
<script type="application/ecmascript" xlink:href="svg.min.js"/>
<svg id="graph" class="graph">
<g id="viewport">
<title>include/kcenon/database_server/gateway/query_cache.h</title>
<!-- Node1 -->
<g id="Node000001" class="node">
<title>Node1</title>
<g id="a_Node000001"><a xlink:title="Query result cache with LRU eviction and TTL expiration.">
<polygon fill="#999999" stroke="#666666" points="758.63,-217 620.63,-217 620.63,-176 758.63,-176 758.63,-217"/>
<text text-anchor="start" x="628.63" y="-205" font-family="Helvetica,sans-Serif" font-size="10.00">include/kcenon/database</text>
<text text-anchor="start" x="628.63" y="-194" font-family="Helvetica,sans-Serif" font-size="10.00">_server/gateway/query</text>
<text text-anchor="middle" x="689.63" y="-183" font-family="Helvetica,sans-Serif" font-size="10.00">_cache.h</text>
</a>
</g>
</g>
<!-- Node2 -->
<g id="Node000002" class="node">
<title>Node2</title>
<g id="a_Node000002"><a xlink:href="query__protocol_8h.html" target="_top" xlink:title="Query protocol message structures for database gateway.">
<polygon fill="white" stroke="#666666" points="406.63,-140 308.63,-140 308.63,-121 406.63,-121 406.63,-140"/>
<text text-anchor="middle" x="357.63" y="-128" font-family="Helvetica,sans-Serif" font-size="10.00">query_protocol.h</text>
</a>
</g>
</g>
<!-- Node1&#45;&gt;Node2 -->
<g id="edge1_Node000001_Node000002" class="edge">
<title>Node1&#45;&gt;Node2</title>
<g id="a_edge1_Node000001_Node000002"><a xlink:title=" ">
<path fill="none" stroke="#63b8ff" d="M620.43,-182.16C558.4,-170.2 468.65,-152.9 411.74,-141.93"/>
<polygon fill="#63b8ff" stroke="#63b8ff" points="412.34,-138.48 401.85,-140.03 411.01,-145.36 412.34,-138.48"/>
</a>
</g>
</g>
<!-- Node3 -->
<g id="Node000003" class="node">
<title>Node3</title>
<g id="a_Node000003"><a xlink:href="query__types_8h.html" target="_top" xlink:title="Query protocol type definitions for database gateway.">
<polygon fill="white" stroke="#666666" points="206.63,-79.5 120.63,-79.5 120.63,-60.5 206.63,-60.5 206.63,-79.5"/>
<text text-anchor="middle" x="163.63" y="-67.5" font-family="Helvetica,sans-Serif" font-size="10.00">query_types.h</text>
</a>
</g>
</g>
<!-- Node1&#45;&gt;Node3 -->
<g id="edge14_Node000001_Node000003" class="edge">
<title>Node1&#45;&gt;Node3</title>
<g id="a_edge14_Node000001_Node000003"><a xlink:title=" ">
<path fill="none" stroke="#63b8ff" d="M620.49,-192.49C541.33,-187.5 408.55,-174.34 299.63,-140 257.12,-126.6 211.71,-100.99 185.6,-85.02"/>
<polygon fill="#63b8ff" stroke="#63b8ff" points="187.23,-81.91 176.89,-79.61 183.54,-87.86 187.23,-81.91"/>
</a>
</g>
</g>
<!-- Node4 -->
<g id="Node000004" class="node">
<title>Node4</title>
<g id="a_Node000004"><a xlink:title=" ">
<polygon fill="#e0e0e0" stroke="#999999" points="112.63,-19 62.63,-19 62.63,0 112.63,0 112.63,-19"/>
<text text-anchor="middle" x="87.63" y="-7" font-family="Helvetica,sans-Serif" font-size="10.00">cstdint</text>
</a>
</g>
</g>
<!-- Node1&#45;&gt;Node4 -->
<g id="edge18_Node000001_Node000004" class="edge">
<title>Node1&#45;&gt;Node4</title>
<g id="a_edge18_Node000001_Node000004"><a xlink:title=" ">
<path fill="none" stroke="#63b8ff" d="M620.41,-195.94C461.18,-195.23 77.06,-183.18 5.63,-85 -2.22,-74.22 -1.19,-66.46 5.63,-55 15.81,-37.9 35.11,-26.96 52.43,-20.21"/>
<polygon fill="#63b8ff" stroke="#63b8ff" points="54.06,-23.34 62.31,-16.7 51.72,-16.75 54.06,-23.34"/>
</a>
</g>
</g>
<!-- Node5 -->
<g id="Node000005" class="node">
<title>Node5</title>
<g id="a_Node000005"><a xlink:title=" ">
<polygon fill="#e0e0e0" stroke="#999999" points="465.63,-19 421.63,-19 421.63,0 465.63,0 465.63,-19"/>
<text text-anchor="middle" x="443.63" y="-7" font-family="Helvetica,sans-Serif" font-size="10.00">string</text>
</a>
</g>
</g>
<!-- Node1&#45;&gt;Node5 -->
<g id="edge24_Node000001_Node000005" class="edge">
<title>Node1&#45;&gt;Node5</title>
<g id="a_edge24_Node000001_Node000005"><a xlink:title=" ">
<path fill="none" stroke="#63b8ff" d="M670.82,-175.85C658.8,-160.8 646.96,-139.55 655.63,-121 666.17,-98.42 688.08,-107.58 698.63,-85 704.27,-72.92 707.21,-65.21 698.63,-55 670.54,-21.59 538.24,-13.26 476.07,-11.19"/>
<polygon fill="#63b8ff" stroke="#63b8ff" points="476.11,-7.69 466.01,-10.89 475.9,-14.68 476.11,-7.69"/>
</a>
</g>
</g>
<!-- Node7 -->
<g id="Node000007" class="node">
<title>Node7</title>
<g id="a_Node000007"><a xlink:title=" ">
<polygon fill="#e0e0e0" stroke="#999999" points="64.63,-79.5 14.63,-79.5 14.63,-60.5 64.63,-60.5 64.63,-79.5"/>
<text text-anchor="middle" x="39.63" y="-67.5" font-family="Helvetica,sans-Serif" font-size="10.00">chrono</text>
</a>
</g>
</g>
<!-- Node1&#45;&gt;Node7 -->
<g id="edge16_Node000001_Node000007" class="edge">
<title>Node1&#45;&gt;Node7</title>
<g id="a_edge16_Node000001_Node000007"><a xlink:title=" ">
<path fill="none" stroke="#63b8ff" d="M620.33,-190.89C533.03,-184.14 378.82,-169.09 249.63,-140 184.57,-125.35 111.07,-98.8 70.57,-83.25"/>
<polygon fill="#63b8ff" stroke="#63b8ff" points="71.6,-79.89 61.01,-79.55 69.07,-86.42 71.6,-79.89"/>
</a>
</g>
</g>
<!-- Node8 -->
<g id="Node000008" class="node">
<title>Node8</title>
<g id="a_Node000008"><a xlink:title=" ">
<polygon fill="#e0e0e0" stroke="#999999" points="529.63,-79.5 471.63,-79.5 471.63,-60.5 529.63,-60.5 529.63,-79.5"/>
<text text-anchor="middle" x="500.63" y="-67.5" font-family="Helvetica,sans-Serif" font-size="10.00">memory</text>
</a>
</g>
</g>
<!-- Node1&#45;&gt;Node8 -->
<g id="edge21_Node000001_Node000008" class="edge">
<title>Node1&#45;&gt;Node8</title>
<g id="a_edge21_Node000001_Node000008"><a xlink:title=" ">
<path fill="none" stroke="#63b8ff" d="M659.68,-175.77C621.43,-150.58 556.16,-107.58 522.35,-85.31"/>
<polygon fill="#63b8ff" stroke="#63b8ff" points="523.98,-82.19 513.7,-79.61 520.13,-88.04 523.98,-82.19"/>
</a>
</g>
</g>
<!-- Node12 -->
<g id="Node000012" class="node">
<title>Node12</title>
<g id="a_Node000012"><a xlink:title=" ">
<polygon fill="#e0e0e0" stroke="#999999" points="689.13,-85 548.13,-85 548.13,-55 689.13,-55 689.13,-85"/>
<text text-anchor="start" x="556.13" y="-73" font-family="Helvetica,sans-Serif" font-size="10.00">kcenon/common/patterns</text>
<text text-anchor="middle" x="618.63" y="-62" font-family="Helvetica,sans-Serif" font-size="10.00">/result.h</text>
</a>
</g>
</g>
<!-- Node1&#45;&gt;Node12 -->
<g id="edge27_Node000001_Node000012" class="edge">
<title>Node1&#45;&gt;Node12</title>
<g id="a_edge27_Node000001_Node000012"><a xlink:title=" ">
<path fill="none" stroke="#63b8ff" d="M655.72,-175.89C643.07,-166.71 629.99,-154.56 622.63,-140 615.7,-126.31 614.69,-109.09 615.42,-95.28"/>
<polygon fill="#63b8ff" stroke="#63b8ff" points="618.93,-95.32 616.3,-85.06 611.96,-94.73 618.93,-95.32"/>
</a>
</g>
</g>
<!-- Node13 -->
<g id="Node000013" class="node">
<title>Node13</title>
<g id="a_Node000013"><a xlink:title=" ">
<polygon fill="#e0e0e0" stroke="#999999" points="714.63,-140 664.63,-140 664.63,-121 714.63,-121 714.63,-140"/>
<text text-anchor="middle" x="689.63" y="-128" font-family="Helvetica,sans-Serif" font-size="10.00">atomic</text>
</a>
</g>
</g>
<!-- Node1&#45;&gt;Node13 -->
<g id="edge15_Node000001_Node000013" class="edge">
<title>Node1&#45;&gt;Node13</title>
<g id="a_edge15_Node000001_Node000013"><a xlink:title=" ">
<path fill="none" stroke="#63b8ff" d="M689.63,-175.95C689.63,-167.85 689.63,-158.5 689.63,-150.47"/>
<polygon fill="#63b8ff" stroke="#63b8ff" points="693.13,-150.26 689.63,-140.26 686.13,-150.26 693.13,-150.26"/>
</a>
</g>
</g>
<!-- Node14 -->
<g id="Node000014" class="node">
<title>Node14</title>
<g id="a_Node000014"><a xlink:title=" ">
<polygon fill="#e0e0e0" stroke="#999999" points="786.13,-140 733.13,-140 733.13,-121 786.13,-121 786.13,-140"/>
<text text-anchor="middle" x="759.63" y="-128" font-family="Helvetica,sans-Serif" font-size="10.00">cstddef</text>
</a>
</g>
</g>
<!-- Node1&#45;&gt;Node14 -->
<g id="edge17_Node000001_Node000014" class="edge">
<title>Node1&#45;&gt;Node14</title>
<g id="a_edge17_Node000001_Node000014"><a xlink:title=" ">
<path fill="none" stroke="#63b8ff" d="M711.01,-175.95C721.08,-166.74 732.94,-155.9 742.43,-147.23"/>
<polygon fill="#63b8ff" stroke="#63b8ff" points="745.03,-149.59 750.04,-140.26 740.3,-144.43 745.03,-149.59"/>
</a>
</g>
</g>
<!-- Node15 -->
<g id="Node000015" class="node">
<title>Node15</title>
<g id="a_Node000015"><a xlink:title=" ">
<polygon fill="#e0e0e0" stroke="#999999" points="869.13,-140 804.13,-140 804.13,-121 869.13,-121 869.13,-140"/>
<text text-anchor="middle" x="836.63" y="-128" font-family="Helvetica,sans-Serif" font-size="10.00">functional</text>
</a>
</g>
</g>
<!-- Node1&#45;&gt;Node15 -->
<g id="edge19_Node000001_Node000015" class="edge">
<title>Node1&#45;&gt;Node15</title>
<g id="a_edge19_Node000001_Node000015"><a xlink:title=" ">
<path fill="none" stroke="#63b8ff" d="M734.53,-175.95C758.29,-165.6 786.78,-153.2 807.62,-144.13"/>
<polygon fill="#63b8ff" stroke="#63b8ff" points="809.12,-147.29 816.89,-140.09 806.33,-140.87 809.12,-147.29"/>
</a>
</g>
</g>
<!-- Node16 -->
<g id="Node000016" class="node">
<title>Node16</title>
<g id="a_Node000016"><a xlink:title=" ">
<polygon fill="#e0e0e0" stroke="#999999" points="919.63,-140 887.63,-140 887.63,-121 919.63,-121 919.63,-140"/>
<text text-anchor="middle" x="903.63" y="-128" font-family="Helvetica,sans-Serif" font-size="10.00">list</text>
</a>
</g>
</g>
<!-- Node1&#45;&gt;Node16 -->
<g id="edge20_Node000001_Node000016" class="edge">
<title>Node1&#45;&gt;Node16</title>
<g id="a_edge20_Node000001_Node000016"><a xlink:title=" ">
<path fill="none" stroke="#63b8ff" d="M758.96,-175.9C792.42,-166.26 833.32,-154.22 877.94,-140.13"/>
<polygon fill="#63b8ff" stroke="#63b8ff" points="879.05,-143.45 887.52,-137.09 876.93,-136.77 879.05,-143.45"/>
</a>
</g>
</g>
<!-- Node17 -->
<g id="Node000017" class="node">
<title>Node17</title>
<g id="a_Node000017"><a xlink:title=" ">
<polygon fill="#e0e0e0" stroke="#999999" points="985.63,-140 937.63,-140 937.63,-121 985.63,-121 985.63,-140"/>
<text text-anchor="middle" x="961.63" y="-128" font-family="Helvetica,sans-Serif" font-size="10.00">mutex</text>
</a>
</g>
</g>
<!-- Node1&#45;&gt;Node17 -->
<g id="edge22_Node000001_Node000017" class="edge">
<title>Node1&#45;&gt;Node17</title>
<g id="a_edge22_Node000001_Node000017"><a xlink:title=" ">
<path fill="none" stroke="#63b8ff" d="M758.76,-179.91C804.11,-169.57 864.97,-155.5 927.45,-140.24"/>
<polygon fill="#63b8ff" stroke="#63b8ff" points="928.61,-143.56 937.49,-137.79 926.95,-136.77 928.61,-143.56"/>
</a>
</g>
</g>
<!-- Node18 -->
<g id="Node000018" class="node">
<title>Node18</title>
<g id="a_Node000018"><a xlink:title=" ">
<polygon fill="#e0e0e0" stroke="#999999" points="1089.63,-140 1003.63,-140 1003.63,-121 1089.63,-121 1089.63,-140"/>
<text text-anchor="middle" x="1046.63" y="-128" font-family="Helvetica,sans-Serif" font-size="10.00">shared_mutex</text>
</a>
</g>
</g>
<!-- Node1&#45;&gt;Node18 -->
<g id="edge23_Node000001_Node000018" class="edge">
<title>Node1&#45;&gt;Node18</title>
<g id="a_edge23_Node000001_Node000018"><a xlink:title=" ">
<path fill="none" stroke="#63b8ff" d="M758.88,-183.08C827.45,-170.79 930.97,-152.23 993.36,-141.05"/>
<polygon fill="#63b8ff" stroke="#63b8ff" points="994.16,-144.46 1003.38,-139.25 992.92,-137.57 994.16,-144.46"/>
</a>
</g>
</g>
<!-- Node19 -->
<g id="Node000019" class="node">
<title>Node19</title>
<g id="a_Node000019"><a xlink:title=" ">
<polygon fill="#e0e0e0" stroke="#999999" points="1201.13,-140 1108.13,-140 1108.13,-121 1201.13,-121 1201.13,-140"/>
<text text-anchor="middle" x="1154.63" y="-128" font-family="Helvetica,sans-Serif" font-size="10.00">unordered_map</text>
</a>
</g>
</g>
<!-- Node1&#45;&gt;Node19 -->
<g id="edge25_Node000001_Node000019" class="edge">
<title>Node1&#45;&gt;Node19</title>
<g id="a_edge25_Node000001_Node000019"><a xlink:title=" ">
<path fill="none" stroke="#63b8ff" d="M758.78,-186.45C838,-176.01 971.99,-158.13 1097.69,-140.11"/>
<polygon fill="#63b8ff" stroke="#63b8ff" points="1098.48,-143.54 1107.88,-138.65 1097.49,-136.61 1098.48,-143.54"/>
</a>
</g>
</g>
<!-- Node20 -->
<g id="Node000020" class="node">
<title>Node20</title>
<g id="a_Node000020"><a xlink:title=" ">
<polygon fill="#e0e0e0" stroke="#999999" points="1305.63,-140 1219.63,-140 1219.63,-121 1305.63,-121 1305.63,-140"/>
<text text-anchor="middle" x="1262.63" y="-128" font-family="Helvetica,sans-Serif" font-size="10.00">unordered_set</text>
</a>
</g>
</g>
<!-- Node1&#45;&gt;Node20 -->
<g id="edge26_Node000001_Node000020" class="edge">
<title>Node1&#45;&gt;Node20</title>
<g id="a_edge26_Node000001_Node000020"><a xlink:title=" ">
<path fill="none" stroke="#63b8ff" d="M758.88,-189.36C856.88,-180.41 1041.86,-162.48 1209.53,-140.08"/>
<polygon fill="#63b8ff" stroke="#63b8ff" points="1210.08,-143.54 1219.52,-138.74 1209.15,-136.6 1210.08,-143.54"/>
</a>
</g>
</g>
<!-- Node2&#45;&gt;Node3 -->
<g id="edge2_Node000002_Node000003" class="edge">
<title>Node2&#45;&gt;Node3</title>
<g id="a_edge2_Node000002_Node000003"><a xlink:title=" ">
<path fill="none" stroke="#63b8ff" d="M329.42,-120.99C295.65,-110.81 238.98,-93.72 201.44,-82.4"/>
<polygon fill="#63b8ff" stroke="#63b8ff" points="202.45,-79.05 191.87,-79.52 200.43,-85.75 202.45,-79.05"/>
</a>
</g>
</g>
<!-- Node2&#45;&gt;Node4 -->
<g id="edge7_Node000002_Node000004" class="edge">
<title>Node2&#45;&gt;Node4</title>
<g id="a_edge7_Node000002_Node000004"><a xlink:title=" ">
<path fill="none" stroke="#63b8ff" d="M308.45,-126.51C245.26,-121.69 140.28,-110.09 111.63,-85 95.76,-71.11 90.31,-46.68 88.48,-29.6"/>
<polygon fill="#63b8ff" stroke="#63b8ff" points="91.94,-28.88 87.71,-19.16 84.95,-29.39 91.94,-28.88"/>
</a>
</g>
</g>
<!-- Node2&#45;&gt;Node5 -->
<g id="edge10_Node000002_Node000005" class="edge">
<title>Node2&#45;&gt;Node5</title>
<g id="a_edge10_Node000002_Node000005"><a xlink:title=" ">
<path fill="none" stroke="#63b8ff" d="M377.52,-120.86C392.36,-113.42 411.98,-101.31 423.63,-85 435.4,-68.51 440.24,-45.49 442.23,-29.42"/>
<polygon fill="#63b8ff" stroke="#63b8ff" points="445.75,-29.43 443.24,-19.14 438.78,-28.75 445.75,-29.43"/>
</a>
</g>
</g>
<!-- Node2&#45;&gt;Node7 -->
<g id="edge6_Node000002_Node000007" class="edge">
<title>Node2&#45;&gt;Node7</title>
<g id="a_edge6_Node000002_Node000007"><a xlink:title=" ">
<path fill="none" stroke="#63b8ff" d="M308.42,-124.46C252.24,-118.07 157.85,-105.35 78.63,-85 76.13,-84.36 73.56,-83.62 71,-82.83"/>
<polygon fill="#63b8ff" stroke="#63b8ff" points="71.86,-79.43 61.27,-79.58 69.64,-86.07 71.86,-79.43"/>
</a>
</g>
</g>
<!-- Node2&#45;&gt;Node8 -->
<g id="edge8_Node000002_Node000008" class="edge">
<title>Node2&#45;&gt;Node8</title>
<g id="a_edge8_Node000002_Node000008"><a xlink:title=" ">
<path fill="none" stroke="#63b8ff" d="M378.42,-120.99C402.57,-111.12 442.61,-94.73 470.24,-83.43"/>
<polygon fill="#63b8ff" stroke="#63b8ff" points="471.88,-86.54 479.81,-79.52 469.23,-80.06 471.88,-86.54"/>
</a>
</g>
</g>
<!-- Node9 -->
<g id="Node000009" class="node">
<title>Node9</title>
<g id="a_Node000009"><a xlink:title=" ">
<polygon fill="#e0e0e0" stroke="#999999" points="280.63,-79.5 224.63,-79.5 224.63,-60.5 280.63,-60.5 280.63,-79.5"/>
<text text-anchor="middle" x="252.63" y="-67.5" font-family="Helvetica,sans-Serif" font-size="10.00">optional</text>
</a>
</g>
</g>
<!-- Node2&#45;&gt;Node9 -->
<g id="edge9_Node000002_Node000009" class="edge">
<title>Node2&#45;&gt;Node9</title>
<g id="a_edge9_Node000002_Node000009"><a xlink:title=" ">
<path fill="none" stroke="#63b8ff" d="M342.13,-120.87C325,-111.32 297.15,-95.81 277.07,-84.62"/>
<polygon fill="#63b8ff" stroke="#63b8ff" points="278.62,-81.48 268.18,-79.67 275.22,-87.59 278.62,-81.48"/>
</a>
</g>
</g>
<!-- Node10 -->
<g id="Node000010" class="node">
<title>Node10</title>
<g id="a_Node000010"><a xlink:title=" ">
<polygon fill="#e0e0e0" stroke="#999999" points="350.13,-79.5 299.13,-79.5 299.13,-60.5 350.13,-60.5 350.13,-79.5"/>
<text text-anchor="middle" x="324.63" y="-67.5" font-family="Helvetica,sans-Serif" font-size="10.00">variant</text>
</a>
</g>
</g>
<!-- Node2&#45;&gt;Node10 -->
<g id="edge11_Node000002_Node000010" class="edge">
<title>Node2&#45;&gt;Node10</title>
<g id="a_edge11_Node000002_Node000010"><a xlink:title=" ">
<path fill="none" stroke="#63b8ff" d="M352.76,-120.87C347.98,-112.4 340.56,-99.24 334.54,-88.57"/>
<polygon fill="#63b8ff" stroke="#63b8ff" points="337.48,-86.66 329.52,-79.67 331.38,-90.1 337.48,-86.66"/>
</a>
</g>
</g>
<!-- Node11 -->
<g id="Node000011" class="node">
<title>Node11</title>
<g id="a_Node000011"><a xlink:title=" ">
<polygon fill="#e0e0e0" stroke="#999999" points="415.13,-79.5 368.13,-79.5 368.13,-60.5 415.13,-60.5 415.13,-79.5"/>
<text text-anchor="middle" x="391.63" y="-67.5" font-family="Helvetica,sans-Serif" font-size="10.00">vector</text>
</a>
</g>
</g>
<!-- Node2&#45;&gt;Node11 -->
<g id="edge12_Node000002_Node000011" class="edge">
<title>Node2&#45;&gt;Node11</title>
<g id="a_edge12_Node000002_Node000011"><a xlink:title=" ">
<path fill="none" stroke="#63b8ff" d="M362.64,-120.87C367.57,-112.4 375.21,-99.24 381.42,-88.57"/>
<polygon fill="#63b8ff" stroke="#63b8ff" points="384.59,-90.07 386.59,-79.67 378.54,-86.55 384.59,-90.07"/>
</a>
</g>
</g>
<!-- Node2&#45;&gt;Node12 -->
<g id="edge13_Node000002_Node000012" class="edge">
<title>Node2&#45;&gt;Node12</title>
<g id="a_edge13_Node000002_Node000012"><a xlink:title=" ">
<path fill="none" stroke="#63b8ff" d="M395.58,-120.99C434.93,-112.17 497.41,-98.17 546.24,-87.22"/>
<polygon fill="#63b8ff" stroke="#63b8ff" points="547.14,-90.61 556.13,-85.01 545.61,-83.78 547.14,-90.61"/>
</a>
</g>
</g>
<!-- Node3&#45;&gt;Node4 -->
<g id="edge3_Node000003_Node000004" class="edge">
<title>Node3&#45;&gt;Node4</title>
<g id="a_edge3_Node000003_Node000004"><a xlink:title=" ">
<path fill="none" stroke="#63b8ff" d="M152.41,-60.37C140.51,-51.21 121.48,-36.56 107.12,-25.51"/>
<polygon fill="#63b8ff" stroke="#63b8ff" points="108.95,-22.49 98.89,-19.17 104.68,-28.04 108.95,-22.49"/>
</a>
</g>
</g>
<!-- Node3&#45;&gt;Node5 -->
<g id="edge4_Node000003_Node000005" class="edge">
<title>Node3&#45;&gt;Node5</title>
<g id="a_edge4_Node000003_Node000005"><a xlink:title=" ">
<path fill="none" stroke="#63b8ff" d="M193.78,-60.5C200.92,-58.59 208.52,-56.65 215.63,-55 285.1,-38.89 367.38,-23.8 411.62,-16.01"/>
<polygon fill="#63b8ff" stroke="#63b8ff" points="412.26,-19.46 421.51,-14.28 411.05,-12.56 412.26,-19.46"/>
</a>
</g>
</g>
<!-- Node6 -->
<g id="Node000006" class="node">
<title>Node6</title>
<g id="a_Node000006"><a xlink:title=" ">
<polygon fill="#e0e0e0" stroke="#999999" points="204.13,-19 131.13,-19 131.13,0 204.13,0 204.13,-19"/>
<text text-anchor="middle" x="167.63" y="-7" font-family="Helvetica,sans-Serif" font-size="10.00">string_view</text>
</a>
</g>
</g>
<!-- Node3&#45;&gt;Node6 -->
<g id="edge5_Node000003_Node000006" class="edge">
<title>Node3&#45;&gt;Node6</title>
<g id="a_edge5_Node000003_Node000006"><a xlink:title=" ">
<path fill="none" stroke="#63b8ff" d="M164.22,-60.37C164.77,-52.25 165.62,-39.81 166.34,-29.39"/>
<polygon fill="#63b8ff" stroke="#63b8ff" points="169.84,-29.38 167.03,-19.17 162.86,-28.91 169.84,-29.38"/>
</a>
</g>
</g>
</g>
</svg>

<g id="navigator" transform="translate(0 0)" fill="#404254">
  <rect fill="#f2f5e9" fill-opacity="0.5" stroke="#606060" stroke-width=".5" x="0" y="0" width="60" height="60"/>
  <use id="zoomplus" xlink:href="#zoomPlus" x="17" y="9" onmousedown="handleZoom(evt,'in')"/>
  <use id="zoomminus" xlink:href="#zoomMin" x="42" y="9" onmousedown="handleZoom(evt,'out')"/>
  <use id="reset" xlink:href="#resetDef" x="30" y="36" onmousedown="handleReset()"/>
   <use id="arrowup" xlink:href="#arrowUp" x="0" y="0" onmousedown="handlePan(0,-1)"/>
  <use id="arrowright" xlink:href="#arrowRight" x="0" y="0" onmousedown="handlePan(1,0)"/>
  <use id="arrowdown" xlink:href="#arrowDown" x="0" y="0" onmousedown="handlePan(0,1)"/>
  <use id="arrowleft" xlink:href="#arrowLeft" x="0" y="0" onmousedown="handlePan(-1,0)"/>
</g>
<svg viewBox="0 0 15 15" width="100%" height="30px" preserveAspectRatio="xMaxYMin meet">
 <g id="arrow_out" transform="scale(0.3 0.3)">
  <a xlink:href="query__cache_8h__incl_org.svg" target="_base">
   <rect id="button" ry="5" rx="5" y="6" x="6" height="38" width="38"
        fill="#f2f5e9" fill-opacity="0.5" stroke="#606060" stroke-width="1.0"/>
   <path id="arrow"
     d="M 11.500037,31.436501 C 11.940474,20.09759 22.043105,11.32322 32.158766,21.979434 L 37.068811,17.246167 C 37.068811,17.246167 37.088388,32 37.088388,32 L 22.160133,31.978069 C 22.160133,31.978069 26.997745,27.140456 26.997745,27.140456 C 18.528582,18.264221 13.291696,25.230495 11.500037,31.436501 z"
     style="fill:#404040;"/>
  </a>
 </g>
</svg>

<style type='text/css'>
<![CDATA[
[data-mouse-over-selected='false'] { opacity: 0.7; }
[data-mouse-over-selected='true']  { opacity: 1.0; }
]]>
</style>
<script type="application/ecmascript"><![CDATA[
document.addEventListener('DOMContentLoaded', (event) => {
  highlightEdges();
  highlightAdjacentNodes();
});
]]></script>
</svg>
