<?xml version="1.0" encoding="UTF-8" standalone="no"?>
<!DOCTYPE svg PUBLIC "-//W3C//DTD SVG 1.1//EN"
 "http://www.w3.org/Graphics/SVG/1.1/DTD/svg11.dtd">
<!-- Generated by graphviz version 2.43.0 (0)
 -->
<!-- Title: include/kcenon/database_server/gateway/query_router.h Pages: 1 -->
<svg width="990pt" height="225pt"
 viewBox="0.00 0.00 989.50 225.00" xmlns="http://www.w3.org/2000/svg" xmlns:xlink="http://www.w3.org/1999/xlink">
<g id="graph0" class="graph" transform="scale(1 1) rotate(0) translate(4 221)">
<title>include/kcenon/database_server/gateway/query_router.h</title>
<!-- Node1 -->
<g id="Node000001" class="node">
<title>Node1</title>
<g id="a_Node000001"><a xlink:title="Query router with load balancing for database gateway.">
<polygon fill="#999999" stroke="#666666" points="692,-217 554,-217 554,-176 692,-176 692,-217"/>
<text text-anchor="start" x="562" y="-205" font-family="Helvetica,sans-Serif" font-size="10.00">include/kcenon/database</text>
<text text-anchor="start" x="562" y="-194" font-family="Helvetica,sans-Serif" font-size="10.00">_server/gateway/query</text>
<text text-anchor="middle" x="623" y="-183" font-family="Helvetica,sans-Serif" font-size="10.00">_router.h</text>
</a>
</g>
</g>
<!-- Node2 -->
<g id="Node000002" class="node">
<title>Node2</title>
<g id="a_Node000002"><a xlink:href="query__protocol_8h.html" target="_top" xlink:title="Query protocol message structures for database gateway.">
<polygon fill="white" stroke="#666666" points="361,-140 263,-140 263,-121 361,-121 361,-140"/>
<text text-anchor="middle" x="312" y="-128" font-family="Helvetica,sans-Serif" font-size="10.00">query_protocol.h</text>
</a>
</g>
</g>
<!-- Node1&#45;&gt;Node2 -->
<g id="edge1_Node000001_Node000002" class="edge">
<title>Node1&#45;&gt;Node2</title>
<g id="a_edge1_Node000001_Node000002"><a xlink:title=" ">
<path fill="none" stroke="#63b8ff" d="M553.98,-181.3C496.43,-169.45 415.72,-152.85 363.64,-142.13"/>
<polygon fill="#63b8ff" stroke="#63b8ff" points="364.13,-138.65 353.63,-140.07 362.71,-145.51 364.13,-138.65"/>
</a>
</g>
</g>
<!-- Node3 -->
<g id="Node000003" class="node">
<title>Node3</title>
<g id="a_Node000003"><a xlink:href="query__types_8h.html" target="_top" xlink:title="Query protocol type definitions for database gateway.">
<polygon fill="white" stroke="#666666" points="86,-79.5 0,-79.5 0,-60.5 86,-60.5 86,-79.5"/>
<text text-anchor="middle" x="43" y="-67.5" font-family="Helvetica,sans-Serif" font-size="10.00">query_types.h</text>
</a>
</g>
</g>
<!-- Node1&#45;&gt;Node3 -->
<g id="edge14_Node000001_Node000003" class="edge">
<title>Node1&#45;&gt;Node3</title>
<g id="a_edge14_Node000001_Node000003"><a xlink:title=" ">
<path fill="none" stroke="#63b8ff" d="M553.8,-191.89C470.33,-186.27 326.35,-172.45 207,-140 155.94,-126.12 99.79,-99.93 68.22,-84.11"/>
<polygon fill="#63b8ff" stroke="#63b8ff" points="69.75,-80.96 59.24,-79.56 66.58,-87.2 69.75,-80.96"/>
</a>
</g>
</g>
<!-- Node5 -->
<g id="Node000005" class="node">
<title>Node5</title>
<g id="a_Node000005"><a xlink:title=" ">
<polygon fill="#e0e0e0" stroke="#999999" points="242,-19 198,-19 198,0 242,0 242,-19"/>
<text text-anchor="middle" x="220" y="-7" font-family="Helvetica,sans-Serif" font-size="10.00">string</text>
</a>
</g>
</g>
<!-- Node1&#45;&gt;Node5 -->
<g id="edge20_Node000001_Node000005" class="edge">
<title>Node1&#45;&gt;Node5</title>
<g id="a_edge20_Node000001_Node000005"><a xlink:title=" ">
<path fill="none" stroke="#63b8ff" d="M632.34,-175.93C639.74,-160.74 650.54,-139.27 661,-121 670.44,-104.52 678.68,-103.22 684,-85 687.74,-72.2 692.97,-64.87 684,-55 655.02,-23.11 353.08,-13.48 252.44,-11.15"/>
<polygon fill="#63b8ff" stroke="#63b8ff" points="252.34,-7.64 242.26,-10.92 252.18,-14.64 252.34,-7.64"/>
</a>
</g>
</g>
<!-- Node7 -->
<g id="Node000007" class="node">
<title>Node7</title>
<g id="a_Node000007"><a xlink:title=" ">
<polygon fill="#e0e0e0" stroke="#999999" points="154,-79.5 104,-79.5 104,-60.5 154,-60.5 154,-79.5"/>
<text text-anchor="middle" x="129" y="-67.5" font-family="Helvetica,sans-Serif" font-size="10.00">chrono</text>
</a>
</g>
</g>
<!-- Node1&#45;&gt;Node7 -->
<g id="edge16_Node000001_Node000007" class="edge">
<title>Node1&#45;&gt;Node7</title>
<g id="a_edge16_Node000001_Node000007"><a xlink:title=" ">
<path fill="none" stroke="#63b8ff" d="M553.96,-192.41C478.51,-187.37 354.93,-174.21 254,-140 214.83,-126.72 173.62,-101.44 149.67,-85.44"/>
<polygon fill="#63b8ff" stroke="#63b8ff" points="151.33,-82.34 141.09,-79.61 147.39,-88.13 151.33,-82.34"/>
</a>
</g>
</g>
<!-- Node8 -->
<g id="Node000008" class="node">
<title>Node8</title>
<g id="a_Node000008"><a xlink:title=" ">
<polygon fill="#e0e0e0" stroke="#999999" points="515,-79.5 457,-79.5 457,-60.5 515,-60.5 515,-79.5"/>
<text text-anchor="middle" x="486" y="-67.5" font-family="Helvetica,sans-Serif" font-size="10.00">memory</text>
</a>
</g>
</g>
<!-- Node1&#45;&gt;Node8 -->
<g id="edge18_Node000001_Node000008" class="edge">
<title>Node1&#45;&gt;Node8</title>
<g id="a_edge18_Node000001_Node000008"><a xlink:title=" ">
<path fill="none" stroke="#63b8ff" d="M601.29,-175.77C574.04,-151.01 527.87,-109.05 503.03,-86.47"/>
<polygon fill="#63b8ff" stroke="#63b8ff" points="505.23,-83.75 495.48,-79.61 500.52,-88.93 505.23,-83.75"/>
</a>
</g>
</g>
<!-- Node12 -->
<g id="Node000012" class="node">
<title>Node12</title>
<g id="a_Node000012"><a xlink:title=" ">
<polygon fill="#e0e0e0" stroke="#999999" points="674.5,-85 533.5,-85 533.5,-55 674.5,-55 674.5,-85"/>
<text text-anchor="start" x="541.5" y="-73" font-family="Helvetica,sans-Serif" font-size="10.00">kcenon/common/patterns</text>
<text text-anchor="middle" x="604" y="-62" font-family="Helvetica,sans-Serif" font-size="10.00">/result.h</text>
</a>
</g>
</g>
<!-- Node1&#45;&gt;Node12 -->
<g id="edge22_Node000001_Node000012" class="edge">
<title>Node1&#45;&gt;Node12</title>
<g id="a_edge22_Node000001_Node000012"><a xlink:title=" ">
<path fill="none" stroke="#63b8ff" d="M619.99,-175.77C616.67,-153.99 611.31,-118.9 607.72,-95.41"/>
<polygon fill="#63b8ff" stroke="#63b8ff" points="611.14,-94.57 606.17,-85.21 604.22,-95.63 611.14,-94.57"/>
</a>
</g>
</g>
<!-- Node13 -->
<g id="Node000013" class="node">
<title>Node13</title>
<g id="a_Node000013"><a xlink:title=" ">
<polygon fill="#e0e0e0" stroke="#999999" points="720,-140 670,-140 670,-121 720,-121 720,-140"/>
<text text-anchor="middle" x="695" y="-128" font-family="Helvetica,sans-Serif" font-size="10.00">atomic</text>
</a>
</g>
</g>
<!-- Node1&#45;&gt;Node13 -->
<g id="edge15_Node000001_Node000013" class="edge">
<title>Node1&#45;&gt;Node13</title>
<g id="a_edge15_Node000001_Node000013"><a xlink:title=" ">
<path fill="none" stroke="#63b8ff" d="M644.99,-175.95C655.46,-166.65 667.8,-155.68 677.6,-146.96"/>
<polygon fill="#63b8ff" stroke="#63b8ff" points="680,-149.52 685.14,-140.26 675.34,-144.29 680,-149.52"/>
</a>
</g>
</g>
<!-- Node14 -->
<g id="Node000014" class="node">
<title>Node14</title>
<g id="a_Node000014"><a xlink:title=" ">
<polygon fill="#e0e0e0" stroke="#999999" points="803.5,-140 738.5,-140 738.5,-121 803.5,-121 803.5,-140"/>
<text text-anchor="middle" x="771" y="-128" font-family="Helvetica,sans-Serif" font-size="10.00">functional</text>
</a>
</g>
</g>
<!-- Node1&#45;&gt;Node14 -->
<g id="edge17_Node000001_Node000014" class="edge">
<title>Node1&#45;&gt;Node14</title>
<g id="a_edge17_Node000001_Node000014"><a xlink:title=" ">
<path fill="none" stroke="#63b8ff" d="M668.21,-175.95C692.13,-165.6 720.81,-153.2 741.79,-144.13"/>
<polygon fill="#63b8ff" stroke="#63b8ff" points="743.34,-147.27 751.13,-140.09 740.56,-140.85 743.34,-147.27"/>
</a>
</g>
</g>
<!-- Node15 -->
<g id="Node000015" class="node">
<title>Node15</title>
<g id="a_Node000015"><a xlink:title=" ">
<polygon fill="#e0e0e0" stroke="#999999" points="870,-140 822,-140 822,-121 870,-121 870,-140"/>
<text text-anchor="middle" x="846" y="-128" font-family="Helvetica,sans-Serif" font-size="10.00">mutex</text>
</a>
</g>
</g>
<!-- Node1&#45;&gt;Node15 -->
<g id="edge19_Node000001_Node000015" class="edge">
<title>Node1&#45;&gt;Node15</title>
<g id="a_edge19_Node000001_Node000015"><a xlink:title=" ">
<path fill="none" stroke="#63b8ff" d="M691.12,-175.95C731.22,-164.44 780.2,-150.38 812.2,-141.2"/>
<polygon fill="#63b8ff" stroke="#63b8ff" points="813.31,-144.52 821.96,-138.4 811.38,-137.79 813.31,-144.52"/>
</a>
</g>
</g>
<!-- Node16 -->
<g id="Node000016" class="node">
<title>Node16</title>
<g id="a_Node000016"><a xlink:title=" ">
<polygon fill="#e0e0e0" stroke="#999999" points="981.5,-140 888.5,-140 888.5,-121 981.5,-121 981.5,-140"/>
<text text-anchor="middle" x="935" y="-128" font-family="Helvetica,sans-Serif" font-size="10.00">unordered_map</text>
</a>
</g>
</g>
<!-- Node1&#45;&gt;Node16 -->
<g id="edge21_Node000001_Node000016" class="edge">
<title>Node1&#45;&gt;Node16</title>
<g id="a_edge21_Node000001_Node000016"><a xlink:title=" ">
<path fill="none" stroke="#63b8ff" d="M692.24,-181.3C749.97,-169.45 830.94,-152.85 883.19,-142.13"/>
<polygon fill="#63b8ff" stroke="#63b8ff" points="884.15,-145.5 893.24,-140.07 882.74,-138.65 884.15,-145.5"/>
</a>
</g>
</g>
<!-- Node2&#45;&gt;Node3 -->
<g id="edge2_Node000002_Node000003" class="edge">
<title>Node2&#45;&gt;Node3</title>
<g id="a_edge2_Node000002_Node000003"><a xlink:title=" ">
<path fill="none" stroke="#63b8ff" d="M266.1,-120.93C222.06,-112.5 153.75,-98.92 95,-85 91.17,-84.09 87.19,-83.1 83.22,-82.09"/>
<polygon fill="#63b8ff" stroke="#63b8ff" points="84,-78.67 73.44,-79.53 82.23,-85.45 84,-78.67"/>
</a>
</g>
</g>
<!-- Node4 -->
<g id="Node000004" class="node">
<title>Node4</title>
<g id="a_Node000004"><a xlink:title=" ">
<polygon fill="#e0e0e0" stroke="#999999" points="164,-19 114,-19 114,0 164,0 164,-19"/>
<text text-anchor="middle" x="139" y="-7" font-family="Helvetica,sans-Serif" font-size="10.00">cstdint</text>
</a>
</g>
</g>
<!-- Node2&#45;&gt;Node4 -->
<g id="edge7_Node000002_Node000004" class="edge">
<title>Node2&#45;&gt;Node4</title>
<g id="a_edge7_Node000002_Node000004"><a xlink:title=" ">
<path fill="none" stroke="#63b8ff" d="M290.74,-120.95C271.92,-112.93 244.08,-99.96 222,-85 196.33,-67.62 170.31,-42.84 154.41,-26.71"/>
<polygon fill="#63b8ff" stroke="#63b8ff" points="156.55,-23.9 147.08,-19.16 151.53,-28.77 156.55,-23.9"/>
</a>
</g>
</g>
<!-- Node2&#45;&gt;Node5 -->
<g id="edge10_Node000002_Node000005" class="edge">
<title>Node2&#45;&gt;Node5</title>
<g id="a_edge10_Node000002_Node000005"><a xlink:title=" ">
<path fill="none" stroke="#63b8ff" d="M288.92,-120.97C272.62,-113.79 251.53,-101.95 239,-85 227,-68.76 222.55,-45.7 220.91,-29.55"/>
<polygon fill="#63b8ff" stroke="#63b8ff" points="224.38,-28.92 220.15,-19.21 217.39,-29.43 224.38,-28.92"/>
</a>
</g>
</g>
<!-- Node2&#45;&gt;Node7 -->
<g id="edge6_Node000002_Node000007" class="edge">
<title>Node2&#45;&gt;Node7</title>
<g id="a_edge6_Node000002_Node000007"><a xlink:title=" ">
<path fill="none" stroke="#63b8ff" d="M282.92,-120.93C253.74,-112.24 207.59,-98.22 168,-85 166.11,-84.37 164.17,-83.71 162.21,-83.03"/>
<polygon fill="#63b8ff" stroke="#63b8ff" points="163.05,-79.62 152.45,-79.61 160.73,-86.22 163.05,-79.62"/>
</a>
</g>
</g>
<!-- Node2&#45;&gt;Node8 -->
<g id="edge8_Node000002_Node000008" class="edge">
<title>Node2&#45;&gt;Node8</title>
<g id="a_edge8_Node000002_Node000008"><a xlink:title=" ">
<path fill="none" stroke="#63b8ff" d="M338.71,-120.92C365.99,-112.11 409.55,-97.89 447,-85 448.89,-84.35 450.82,-83.68 452.78,-82.99"/>
<polygon fill="#63b8ff" stroke="#63b8ff" points="454.27,-86.18 462.52,-79.54 451.93,-79.58 454.27,-86.18"/>
</a>
</g>
</g>
<!-- Node9 -->
<g id="Node000009" class="node">
<title>Node9</title>
<g id="a_Node000009"><a xlink:title=" ">
<polygon fill="#e0e0e0" stroke="#999999" points="304,-79.5 248,-79.5 248,-60.5 304,-60.5 304,-79.5"/>
<text text-anchor="middle" x="276" y="-67.5" font-family="Helvetica,sans-Serif" font-size="10.00">optional</text>
</a>
</g>
</g>
<!-- Node2&#45;&gt;Node9 -->
<g id="edge9_Node000002_Node000009" class="edge">
<title>Node2&#45;&gt;Node9</title>
<g id="a_edge9_Node000002_Node000009"><a xlink:title=" ">
<path fill="none" stroke="#63b8ff" d="M306.69,-120.87C301.42,-112.31 293.21,-98.97 286.61,-88.24"/>
<polygon fill="#63b8ff" stroke="#63b8ff" points="289.56,-86.35 281.33,-79.67 283.59,-90.02 289.56,-86.35"/>
</a>
</g>
</g>
<!-- Node10 -->
<g id="Node000010" class="node">
<title>Node10</title>
<g id="a_Node000010"><a xlink:title=" ">
<polygon fill="#e0e0e0" stroke="#999999" points="373.5,-79.5 322.5,-79.5 322.5,-60.5 373.5,-60.5 373.5,-79.5"/>
<text text-anchor="middle" x="348" y="-67.5" font-family="Helvetica,sans-Serif" font-size="10.00">variant</text>
</a>
</g>
</g>
<!-- Node2&#45;&gt;Node10 -->
<g id="edge11_Node000002_Node000010" class="edge">
<title>Node2&#45;&gt;Node10</title>
<g id="a_edge11_Node000002_Node000010"><a xlink:title=" ">
<path fill="none" stroke="#63b8ff" d="M317.31,-120.87C322.58,-112.31 330.79,-98.97 337.39,-88.24"/>
<polygon fill="#63b8ff" stroke="#63b8ff" points="340.41,-90.02 342.67,-79.67 334.44,-86.35 340.41,-90.02"/>
</a>
</g>
</g>
<!-- Node11 -->
<g id="Node000011" class="node">
<title>Node11</title>
<g id="a_Node000011"><a xlink:title=" ">
<polygon fill="#e0e0e0" stroke="#999999" points="438.5,-79.5 391.5,-79.5 391.5,-60.5 438.5,-60.5 438.5,-79.5"/>
<text text-anchor="middle" x="415" y="-67.5" font-family="Helvetica,sans-Serif" font-size="10.00">vector</text>
</a>
</g>
</g>
<!-- Node2&#45;&gt;Node11 -->
<g id="edge12_Node000002_Node000011" class="edge">
<title>Node2&#45;&gt;Node11</title>
<g id="a_edge12_Node000002_Node000011"><a xlink:title=" ">
<path fill="none" stroke="#63b8ff" d="M327.2,-120.87C344.01,-111.32 371.32,-95.81 391.02,-84.62"/>
<polygon fill="#63b8ff" stroke="#63b8ff" points="392.77,-87.65 399.74,-79.67 389.32,-81.56 392.77,-87.65"/>
</a>
</g>
</g>
<!-- Node2&#45;&gt;Node12 -->
<g id="edge13_Node000002_Node000012" class="edge">
<title>Node2&#45;&gt;Node12</title>
<g id="a_edge13_Node000002_Node000012"><a xlink:title=" ">
<path fill="none" stroke="#63b8ff" d="M354.46,-120.99C398.76,-112.12 469.26,-97.99 524.04,-87.02"/>
<polygon fill="#63b8ff" stroke="#63b8ff" points="524.96,-90.4 534.08,-85.01 523.59,-83.54 524.96,-90.4"/>
</a>
</g>
</g>
<!-- Node3&#45;&gt;Node4 -->
<g id="edge3_Node000003_Node000004" class="edge">
<title>Node3&#45;&gt;Node4</title>
<g id="a_edge3_Node000003_Node000004"><a xlink:title=" ">
<path fill="none" stroke="#63b8ff" d="M57.17,-60.37C72.69,-50.91 97.83,-35.59 116.15,-24.42"/>
<polygon fill="#63b8ff" stroke="#63b8ff" points="118.06,-27.36 124.78,-19.17 114.42,-21.38 118.06,-27.36"/>
</a>
</g>
</g>
<!-- Node3&#45;&gt;Node5 -->
<g id="edge4_Node000003_Node000005" class="edge">
<title>Node3&#45;&gt;Node5</title>
<g id="a_edge4_Node000003_Node000005"><a xlink:title=" ">
<path fill="none" stroke="#63b8ff" d="M68.74,-60.49C100.41,-50.02 154.2,-32.25 188.36,-20.96"/>
<polygon fill="#63b8ff" stroke="#63b8ff" points="189.47,-24.28 197.87,-17.81 187.27,-17.63 189.47,-24.28"/>
</a>
</g>
</g>
<!-- Node6 -->
<g id="Node000006" class="node">
<title>Node6</title>
<g id="a_Node000006"><a xlink:title=" ">
<polygon fill="#e0e0e0" stroke="#999999" points="79.5,-19 6.5,-19 6.5,0 79.5,0 79.5,-19"/>
<text text-anchor="middle" x="43" y="-7" font-family="Helvetica,sans-Serif" font-size="10.00">string_view</text>
</a>
</g>
</g>
<!-- Node3&#45;&gt;Node6 -->
<g id="edge5_Node000003_Node000006" class="edge">
<title>Node3&#45;&gt;Node6</title>
<g id="a_edge5_Node000003_Node000006"><a xlink:title=" ">
<path fill="none" stroke="#63b8ff" d="M43,-60.37C43,-52.25 43,-39.81 43,-29.39"/>
<polygon fill="#63b8ff" stroke="#63b8ff" points="46.5,-29.17 43,-19.17 39.5,-29.17 46.5,-29.17"/>
</a>
</g>
</g>
</g>
</svg>
