<?xml version="1.0" encoding="UTF-8" standalone="no"?>
<!DOCTYPE svg PUBLIC "-//W3C//DTD SVG 1.1//EN"
 "http://www.w3.org/Graphics/SVG/1.1/DTD/svg11.dtd">
<!-- Generated by graphviz version 2.43.0 (0)
 -->
<!-- Title: include/kcenon/database_server/metrics/query_metrics_collector.h Pages: 1 -->
<svg width="559pt" height="269pt"
 viewBox="0.00 0.00 559.00 269.00" xmlns="http://www.w3.org/2000/svg" xmlns:xlink="http://www.w3.org/1999/xlink">
<g id="graph0" class="graph" transform="scale(1 1) rotate(0) translate(4 265)">
<title>include/kcenon/database_server/metrics/query_metrics_collector.h</title>
<!-- Node1 -->
<g id="Node000001" class="node">
<title>Node1</title>
<g id="a_Node000001"><a xlink:title="CRTP&#45;based query metrics collector implementation.">
<polygon fill="#999999" stroke="#666666" points="430,-261 292,-261 292,-220 430,-220 430,-261"/>
<text text-anchor="start" x="300" y="-249" font-family="Helvetica,sans-Serif" font-size="10.00">include/kcenon/database</text>
<text text-anchor="start" x="300" y="-238" font-family="Helvetica,sans-Serif" font-size="10.00">_server/metrics/query</text>
<text text-anchor="middle" x="361" y="-227" font-family="Helvetica,sans-Serif" font-size="10.00">_metrics_collector.h</text>
</a>
</g>
</g>
<!-- Node2 -->
<g id="Node000002" class="node">
<title>Node2</title>
<g id="a_Node000002"><a xlink:href="query__collector__base_8h.html" target="_top" xlink:title="CRTP base class for query metrics collectors.">
<polygon fill="white" stroke="#666666" points="332.5,-184 203.5,-184 203.5,-165 332.5,-165 332.5,-184"/>
<text text-anchor="middle" x="268" y="-172" font-family="Helvetica,sans-Serif" font-size="10.00">query_collector_base.h</text>
</a>
</g>
</g>
<!-- Node1&#45;&gt;Node2 -->
<g id="edge1_Node000001_Node000002" class="edge">
<title>Node1&#45;&gt;Node2</title>
<g id="a_edge1_Node000001_Node000002"><a xlink:title=" ">
<path fill="none" stroke="#63b8ff" d="M332.59,-219.95C318.66,-210.37 302.17,-199.02 289.34,-190.19"/>
<polygon fill="#63b8ff" stroke="#63b8ff" points="290.95,-187.05 280.73,-184.26 286.98,-192.81 290.95,-187.05"/>
</a>
</g>
</g>
<!-- Node3 -->
<g id="Node000003" class="node">
<title>Node3</title>
<g id="a_Node000003"><a xlink:href="query__metrics_8h.html" target="_top" xlink:title="Metrics structures for query server performance monitoring.">
<polygon fill="white" stroke="#666666" points="104.5,-129 9.5,-129 9.5,-110 104.5,-110 104.5,-129"/>
<text text-anchor="middle" x="57" y="-117" font-family="Helvetica,sans-Serif" font-size="10.00">query_metrics.h</text>
</a>
</g>
</g>
<!-- Node1&#45;&gt;Node3 -->
<g id="edge15_Node000001_Node000003" class="edge">
<title>Node1&#45;&gt;Node3</title>
<g id="a_edge15_Node000001_Node000003"><a xlink:title=" ">
<path fill="none" stroke="#63b8ff" d="M296.96,-219.88C265.89,-209.91 228.2,-197.14 195,-184 155.47,-168.35 111,-147.23 83.49,-133.74"/>
<polygon fill="#63b8ff" stroke="#63b8ff" points="84.68,-130.42 74.17,-129.13 81.58,-136.7 84.68,-130.42"/>
</a>
</g>
</g>
<!-- Node9 -->
<g id="Node000009" class="node">
<title>Node9</title>
<g id="a_Node000009"><a xlink:title=" ">
<polygon fill="#e0e0e0" stroke="#999999" points="421,-129 373,-129 373,-110 421,-110 421,-129"/>
<text text-anchor="middle" x="397" y="-117" font-family="Helvetica,sans-Serif" font-size="10.00">mutex</text>
</a>
</g>
</g>
<!-- Node1&#45;&gt;Node9 -->
<g id="edge17_Node000001_Node000009" class="edge">
<title>Node1&#45;&gt;Node9</title>
<g id="a_edge17_Node000001_Node000009"><a xlink:title=" ">
<path fill="none" stroke="#63b8ff" d="M365.39,-219.72C368.9,-204.6 374.19,-183.32 380,-165 382.78,-156.23 386.36,-146.68 389.51,-138.68"/>
<polygon fill="#63b8ff" stroke="#63b8ff" points="392.82,-139.84 393.31,-129.26 386.32,-137.22 392.82,-139.84"/>
</a>
</g>
</g>
<!-- Node12 -->
<g id="Node000012" class="node">
<title>Node12</title>
<g id="a_Node000012"><a xlink:title=" ">
<polygon fill="#e0e0e0" stroke="#999999" points="447,-184 389,-184 389,-165 447,-165 447,-184"/>
<text text-anchor="middle" x="418" y="-172" font-family="Helvetica,sans-Serif" font-size="10.00">memory</text>
</a>
</g>
</g>
<!-- Node1&#45;&gt;Node12 -->
<g id="edge16_Node000001_Node000012" class="edge">
<title>Node1&#45;&gt;Node12</title>
<g id="a_edge16_Node000001_Node000012"><a xlink:title=" ">
<path fill="none" stroke="#63b8ff" d="M378.41,-219.95C386.45,-210.92 395.88,-200.33 403.52,-191.75"/>
<polygon fill="#63b8ff" stroke="#63b8ff" points="406.16,-194.06 410.2,-184.26 400.93,-189.4 406.16,-194.06"/>
</a>
</g>
</g>
<!-- Node13 -->
<g id="Node000013" class="node">
<title>Node13</title>
<g id="a_Node000013"><a xlink:title=" ">
<polygon fill="#e0e0e0" stroke="#999999" points="551,-184 465,-184 465,-165 551,-165 551,-184"/>
<text text-anchor="middle" x="508" y="-172" font-family="Helvetica,sans-Serif" font-size="10.00">shared_mutex</text>
</a>
</g>
</g>
<!-- Node1&#45;&gt;Node13 -->
<g id="edge18_Node000001_Node000013" class="edge">
<title>Node1&#45;&gt;Node13</title>
<g id="a_edge18_Node000001_Node000013"><a xlink:title=" ">
<path fill="none" stroke="#63b8ff" d="M405.9,-219.95C429.67,-209.6 458.15,-197.2 478.99,-188.13"/>
<polygon fill="#63b8ff" stroke="#63b8ff" points="480.49,-191.29 488.27,-184.09 477.7,-184.87 480.49,-191.29"/>
</a>
</g>
</g>
<!-- Node2&#45;&gt;Node3 -->
<g id="edge2_Node000002_Node000003" class="edge">
<title>Node2&#45;&gt;Node3</title>
<g id="a_edge2_Node000002_Node000003"><a xlink:title=" ">
<path fill="none" stroke="#63b8ff" d="M234.1,-164.98C197.98,-155.91 140.68,-141.52 101.08,-131.57"/>
<polygon fill="#63b8ff" stroke="#63b8ff" points="101.72,-128.12 91.17,-129.08 100.01,-134.91 101.72,-128.12"/>
</a>
</g>
</g>
<!-- Node5 -->
<g id="Node000005" class="node">
<title>Node5</title>
<g id="a_Node000005"><a xlink:title=" ">
<polygon fill="#e0e0e0" stroke="#999999" points="193,-19 143,-19 143,0 193,0 193,-19"/>
<text text-anchor="middle" x="168" y="-7" font-family="Helvetica,sans-Serif" font-size="10.00">atomic</text>
</a>
</g>
</g>
<!-- Node2&#45;&gt;Node5 -->
<g id="edge10_Node000002_Node000005" class="edge">
<title>Node2&#45;&gt;Node5</title>
<g id="a_edge10_Node000002_Node000005"><a xlink:title=" ">
<path fill="none" stroke="#63b8ff" d="M277.61,-164.69C285.87,-156.41 297.2,-143.18 302,-129 309.05,-108.15 295.5,-60.22 291,-55 269,-29.43 231.13,-18.55 203.2,-13.93"/>
<polygon fill="#63b8ff" stroke="#63b8ff" points="203.44,-10.42 193.04,-12.44 202.43,-17.35 203.44,-10.42"/>
</a>
</g>
</g>
<!-- Node8 -->
<g id="Node000008" class="node">
<title>Node8</title>
<g id="a_Node000008"><a xlink:title=" ">
<polygon fill="#e0e0e0" stroke="#999999" points="282,-74 232,-74 232,-55 282,-55 282,-74"/>
<text text-anchor="middle" x="257" y="-62" font-family="Helvetica,sans-Serif" font-size="10.00">chrono</text>
</a>
</g>
</g>
<!-- Node2&#45;&gt;Node8 -->
<g id="edge11_Node000002_Node000008" class="edge">
<title>Node2&#45;&gt;Node8</title>
<g id="a_edge11_Node000002_Node000008"><a xlink:title=" ">
<path fill="none" stroke="#63b8ff" d="M274.16,-164.87C282.09,-152.66 294.16,-129.63 288,-110 284.77,-99.71 278.22,-89.72 271.97,-81.82"/>
<polygon fill="#63b8ff" stroke="#63b8ff" points="274.61,-79.52 265.48,-74.15 269.27,-84.04 274.61,-79.52"/>
</a>
</g>
</g>
<!-- Node2&#45;&gt;Node9 -->
<g id="edge12_Node000002_Node000009" class="edge">
<title>Node2&#45;&gt;Node9</title>
<g id="a_edge12_Node000002_Node000009"><a xlink:title=" ">
<path fill="none" stroke="#63b8ff" d="M288.73,-164.98C309.76,-156.34 342.55,-142.87 366.54,-133.02"/>
<polygon fill="#63b8ff" stroke="#63b8ff" points="367.98,-136.21 375.9,-129.17 365.32,-129.73 367.98,-136.21"/>
</a>
</g>
</g>
<!-- Node10 -->
<g id="Node000010" class="node">
<title>Node10</title>
<g id="a_Node000010"><a xlink:title=" ">
<polygon fill="#e0e0e0" stroke="#999999" points="167,-129 123,-129 123,-110 167,-110 167,-129"/>
<text text-anchor="middle" x="145" y="-117" font-family="Helvetica,sans-Serif" font-size="10.00">string</text>
</a>
</g>
</g>
<!-- Node2&#45;&gt;Node10 -->
<g id="edge13_Node000002_Node000010" class="edge">
<title>Node2&#45;&gt;Node10</title>
<g id="a_edge13_Node000002_Node000010"><a xlink:title=" ">
<path fill="none" stroke="#63b8ff" d="M248.24,-164.98C228.27,-156.38 197.2,-142.99 174.35,-133.15"/>
<polygon fill="#63b8ff" stroke="#63b8ff" points="175.69,-129.91 165.12,-129.17 172.92,-136.34 175.69,-129.91"/>
</a>
</g>
</g>
<!-- Node11 -->
<g id="Node000011" class="node">
<title>Node11</title>
<g id="a_Node000011"><a xlink:title=" ">
<polygon fill="#e0e0e0" stroke="#999999" points="278.5,-129 185.5,-129 185.5,-110 278.5,-110 278.5,-129"/>
<text text-anchor="middle" x="232" y="-117" font-family="Helvetica,sans-Serif" font-size="10.00">unordered_map</text>
</a>
</g>
</g>
<!-- Node2&#45;&gt;Node11 -->
<g id="edge14_Node000002_Node000011" class="edge">
<title>Node2&#45;&gt;Node11</title>
<g id="a_edge14_Node000002_Node000011"><a xlink:title=" ">
<path fill="none" stroke="#63b8ff" d="M262.06,-164.75C257.02,-157.34 249.66,-146.5 243.49,-137.41"/>
<polygon fill="#63b8ff" stroke="#63b8ff" points="246.35,-135.39 237.83,-129.09 240.56,-139.33 246.35,-135.39"/>
</a>
</g>
</g>
<!-- Node4 -->
<g id="Node000004" class="node">
<title>Node4</title>
<g id="a_Node000004"><a xlink:href="metrics__base_8h.html" target="_top" xlink:title="Common utilities for atomic metrics operations.">
<polygon fill="white" stroke="#666666" points="139.5,-74 48.5,-74 48.5,-55 139.5,-55 139.5,-74"/>
<text text-anchor="middle" x="94" y="-62" font-family="Helvetica,sans-Serif" font-size="10.00">metrics_base.h</text>
</a>
</g>
</g>
<!-- Node3&#45;&gt;Node4 -->
<g id="edge3_Node000003_Node000004" class="edge">
<title>Node3&#45;&gt;Node4</title>
<g id="a_edge3_Node000003_Node000004"><a xlink:title=" ">
<path fill="none" stroke="#63b8ff" d="M63.11,-109.75C68.28,-102.34 75.85,-91.5 82.19,-82.41"/>
<polygon fill="#63b8ff" stroke="#63b8ff" points="85.15,-84.29 88,-74.09 79.41,-80.29 85.15,-84.29"/>
</a>
</g>
</g>
<!-- Node3&#45;&gt;Node5 -->
<g id="edge7_Node000003_Node000005" class="edge">
<title>Node3&#45;&gt;Node5</title>
<g id="a_edge7_Node000003_Node000005"><a xlink:title=" ">
<path fill="none" stroke="#63b8ff" d="M88.83,-109.98C108.42,-103.22 132.63,-91.86 148,-74 158.72,-61.54 163.7,-43.33 166.01,-29.61"/>
<polygon fill="#63b8ff" stroke="#63b8ff" points="169.53,-29.73 167.39,-19.35 162.59,-28.8 169.53,-29.73"/>
</a>
</g>
</g>
<!-- Node6 -->
<g id="Node000006" class="node">
<title>Node6</title>
<g id="a_Node000006"><a xlink:title=" ">
<polygon fill="#e0e0e0" stroke="#999999" points="50,-19 0,-19 0,0 50,0 50,-19"/>
<text text-anchor="middle" x="25" y="-7" font-family="Helvetica,sans-Serif" font-size="10.00">cstdint</text>
</a>
</g>
</g>
<!-- Node3&#45;&gt;Node6 -->
<g id="edge9_Node000003_Node000006" class="edge">
<title>Node3&#45;&gt;Node6</title>
<g id="a_edge9_Node000003_Node000006"><a xlink:title=" ">
<path fill="none" stroke="#63b8ff" d="M52.97,-109.79C48.99,-100.93 42.95,-86.74 39,-74 34.4,-59.16 30.7,-41.91 28.26,-29.14"/>
<polygon fill="#63b8ff" stroke="#63b8ff" points="31.69,-28.46 26.45,-19.25 24.8,-29.71 31.69,-28.46"/>
</a>
</g>
</g>
<!-- Node3&#45;&gt;Node8 -->
<g id="edge8_Node000003_Node000008" class="edge">
<title>Node3&#45;&gt;Node8</title>
<g id="a_edge8_Node000003_Node000008"><a xlink:title=" ">
<path fill="none" stroke="#63b8ff" d="M89.13,-109.98C125.47,-100.36 184.44,-84.73 221.94,-74.79"/>
<polygon fill="#63b8ff" stroke="#63b8ff" points="223.14,-78.09 231.91,-72.15 221.35,-71.33 223.14,-78.09"/>
</a>
</g>
</g>
<!-- Node4&#45;&gt;Node5 -->
<g id="edge4_Node000004_Node000005" class="edge">
<title>Node4&#45;&gt;Node5</title>
<g id="a_edge4_Node000004_Node000005"><a xlink:title=" ">
<path fill="none" stroke="#63b8ff" d="M105.89,-54.98C117.15,-46.92 134.29,-34.65 147.71,-25.03"/>
<polygon fill="#63b8ff" stroke="#63b8ff" points="149.8,-27.84 155.89,-19.17 145.73,-22.15 149.8,-27.84"/>
</a>
</g>
</g>
<!-- Node4&#45;&gt;Node6 -->
<g id="edge5_Node000004_Node000006" class="edge">
<title>Node4&#45;&gt;Node6</title>
<g id="a_edge5_Node000004_Node000006"><a xlink:title=" ">
<path fill="none" stroke="#63b8ff" d="M82.91,-54.98C72.51,-47 56.74,-34.88 44.28,-25.31"/>
<polygon fill="#63b8ff" stroke="#63b8ff" points="46.35,-22.49 36.29,-19.17 42.09,-28.04 46.35,-22.49"/>
</a>
</g>
</g>
<!-- Node7 -->
<g id="Node000007" class="node">
<title>Node7</title>
<g id="a_Node000007"><a xlink:title=" ">
<polygon fill="#e0e0e0" stroke="#999999" points="116,-19 72,-19 72,0 116,0 116,-19"/>
<text text-anchor="middle" x="94" y="-7" font-family="Helvetica,sans-Serif" font-size="10.00">limits</text>
</a>
</g>
</g>
<!-- Node4&#45;&gt;Node7 -->
<g id="edge6_Node000004_Node000007" class="edge">
<title>Node4&#45;&gt;Node7</title>
<g id="a_edge6_Node000004_Node000007"><a xlink:title=" ">
<path fill="none" stroke="#63b8ff" d="M94,-54.75C94,-47.8 94,-37.85 94,-29.13"/>
<polygon fill="#63b8ff" stroke="#63b8ff" points="97.5,-29.09 94,-19.09 90.5,-29.09 97.5,-29.09"/>
</a>
</g>
</g>
</g>
</svg>
