<?xml version="1.0" encoding="UTF-8" standalone="no"?>
<!DOCTYPE svg PUBLIC "-//W3C//DTD SVG 1.1//EN"
 "http://www.w3.org/Graphics/SVG/1.1/DTD/svg11.dtd">
<!-- Generated by graphviz version 2.43.0 (0)
 -->
<!-- Title: include/kcenon/database_server/metrics/query_metrics.h Pages: 1 -->
<svg width="286pt" height="269pt"
 viewBox="0.00 0.00 285.50 269.00" xmlns="http://www.w3.org/2000/svg" xmlns:xlink="http://www.w3.org/1999/xlink">

<svg id="main" version="1.1" xmlns="http://www.w3.org/2000/svg" xmlns:xlink="http://www.w3.org/1999/xlink" xml:space="preserve" onload="init(evt)">
<style type="text/css"><![CDATA[
.node, .edge {opacity: 0.7;}
.node.selected, .edge.selected {opacity: 1;}
.edge:hover path { stroke: red; }
.edge:hover polygon { stroke: red; fill: red; }
]]></style>
<script type="application/ecmascript" xlink:href="svg.min.js"/>
<svg id="graph" class="graph">
<g id="graph0" class="graph" transform="scale(1 1) rotate(0) translate(4 265)">
<title>include/kcenon/database_server/metrics/query_metrics.h</title>
<!-- Node1 -->
<g id="Node000001" class="node">
<title>Node1</title>
<g id="a_Node000001"><a xlink:title="Metrics structures for query server performance monitoring.">
<polygon fill="#999999" stroke="#666666" points="201,-261 63,-261 63,-220 201,-220 201,-261"/>
<text text-anchor="start" x="71" y="-249" font-family="Helvetica,sans-Serif" font-size="10.00">include/kcenon/database</text>
<text text-anchor="start" x="71" y="-238" font-family="Helvetica,sans-Serif" font-size="10.00">_server/metrics/query</text>
<text text-anchor="middle" x="132" y="-227" font-family="Helvetica,sans-Serif" font-size="10.00">_metrics.h</text>
</a>
</g>
</g>
<!-- Node2 -->
<g id="Node000002" class="node">
<title>Node2</title>
<g id="a_Node000002"><a xlink:href="query__collector__base_8h.html" target="_top" xlink:title="CRTP base class for query metrics collectors.">
<polygon fill="white" stroke="#666666" points="153,-184 15,-184 15,-143 153,-143 153,-184"/>
<text text-anchor="start" x="23" y="-172" font-family="Helvetica,sans-Serif" font-size="10.00">include/kcenon/database</text>
<text text-anchor="start" x="23" y="-161" font-family="Helvetica,sans-Serif" font-size="10.00">_server/metrics/query</text>
<text text-anchor="middle" x="84" y="-150" font-family="Helvetica,sans-Serif" font-size="10.00">_collector_base.h</text>
</a>
</g>
</g>
<!-- Node1&#45;&gt;Node2 -->
<g id="edge1_Node000001_Node000002" class="edge">
<title>Node1&#45;&gt;Node2</title>
<g id="a_edge1_Node000001_Node000002"><a xlink:title=" ">
<path fill="none" stroke="#63b8ff" d="M113.83,-211.11C108.06,-202.09 101.81,-192.33 96.53,-184.07"/>
<polygon fill="#63b8ff" stroke="#63b8ff" points="111.05,-213.26 119.39,-219.79 116.95,-209.49 111.05,-213.26"/>
</a>
</g>
</g>
<!-- Node3 -->
<g id="Node000003" class="node">
<title>Node3</title>
<g id="a_Node000003"><a xlink:href="query__metrics__collector_8h.html" target="_top" xlink:title="CRTP&#45;based query metrics collector implementation.">
<polygon fill="white" stroke="#666666" points="201,-107 63,-107 63,-66 201,-66 201,-107"/>
<text text-anchor="start" x="71" y="-95" font-family="Helvetica,sans-Serif" font-size="10.00">include/kcenon/database</text>
<text text-anchor="start" x="71" y="-84" font-family="Helvetica,sans-Serif" font-size="10.00">_server/metrics/query</text>
<text text-anchor="middle" x="132" y="-73" font-family="Helvetica,sans-Serif" font-size="10.00">_metrics_collector.h</text>
</a>
</g>
</g>
<!-- Node1&#45;&gt;Node3 -->
<g id="edge5_Node000001_Node000003" class="edge">
<title>Node1&#45;&gt;Node3</title>
<g id="a_edge5_Node000001_Node000003"><a xlink:title=" ">
<path fill="none" stroke="#63b8ff" d="M150.73,-211.27C155.34,-202.85 159.63,-193.36 162,-184 166.47,-166.33 166.47,-160.67 162,-143 158.78,-130.26 151.98,-117.27 145.68,-107.06"/>
<polygon fill="#63b8ff" stroke="#63b8ff" points="147.69,-209.54 145.68,-219.94 153.74,-213.06 147.69,-209.54"/>
</a>
</g>
</g>
<!-- Node2&#45;&gt;Node3 -->
<g id="edge2_Node000002_Node000003" class="edge">
<title>Node2&#45;&gt;Node3</title>
<g id="a_edge2_Node000002_Node000003"><a xlink:title=" ">
<path fill="none" stroke="#63b8ff" d="M102.17,-134.11C107.94,-125.09 114.19,-115.33 119.47,-107.07"/>
<polygon fill="#63b8ff" stroke="#63b8ff" points="99.05,-132.49 96.61,-142.79 104.95,-136.26 99.05,-132.49"/>
</a>
</g>
</g>
<!-- Node4 -->
<g id="Node000004" class="node">
<title>Node4</title>
<g id="a_Node000004"><a xlink:href="collector__integration_8cpp.html" target="_top" xlink:title="Integration layer between query_metrics_collector and monitoring_system.">
<polygon fill="white" stroke="#666666" points="116,-30 0,-30 0,0 116,0 116,-30"/>
<text text-anchor="start" x="8" y="-18" font-family="Helvetica,sans-Serif" font-size="10.00">src/metrics/collector</text>
<text text-anchor="middle" x="58" y="-7" font-family="Helvetica,sans-Serif" font-size="10.00">_integration.cpp</text>
</a>
</g>
</g>
<!-- Node3&#45;&gt;Node4 -->
<g id="edge3_Node000003_Node000004" class="edge">
<title>Node3&#45;&gt;Node4</title>
<g id="a_edge3_Node000003_Node000004"><a xlink:title=" ">
<path fill="none" stroke="#63b8ff" d="M103.61,-58.83C93.16,-49.02 81.74,-38.3 72.95,-30.04"/>
<polygon fill="#63b8ff" stroke="#63b8ff" points="101.31,-61.48 110.99,-65.77 106.1,-56.37 101.31,-61.48"/>
</a>
</g>
</g>
<!-- Node5 -->
<g id="Node000005" class="node">
<title>Node5</title>
<g id="a_Node000005"><a xlink:href="query__metrics__collector_8cpp.html" target="_top" xlink:title=" ">
<polygon fill="white" stroke="#666666" points="277.5,-30 134.5,-30 134.5,0 277.5,0 277.5,-30"/>
<text text-anchor="start" x="142.5" y="-18" font-family="Helvetica,sans-Serif" font-size="10.00">src/metrics/query_metrics</text>
<text text-anchor="middle" x="206" y="-7" font-family="Helvetica,sans-Serif" font-size="10.00">_collector.cpp</text>
</a>
</g>
</g>
<!-- Node3&#45;&gt;Node5 -->
<g id="edge4_Node000003_Node000005" class="edge">
<title>Node3&#45;&gt;Node5</title>
<g id="a_edge4_Node000003_Node000005"><a xlink:title=" ">
<path fill="none" stroke="#63b8ff" d="M160.39,-58.83C170.84,-49.02 182.26,-38.3 191.05,-30.04"/>
<polygon fill="#63b8ff" stroke="#63b8ff" points="157.9,-56.37 153.01,-65.77 162.69,-61.48 157.9,-56.37"/>
</a>
</g>
</g>
</g>
</svg>
</svg>

<style type='text/css'>
<![CDATA[
[data-mouse-over-selected='false'] { opacity: 0.7; }
[data-mouse-over-selected='true']  { opacity: 1.0; }
]]>
</style>
<script type="application/ecmascript"><![CDATA[
document.addEventListener('DOMContentLoaded', (event) => {
  highlightEdges();
  highlightAdjacentNodes();
});
]]></script>
</svg>
