<?xml version="1.0" encoding="UTF-8" standalone="no"?>
<!DOCTYPE svg PUBLIC "-//W3C//DTD SVG 1.1//EN"
 "http://www.w3.org/Graphics/SVG/1.1/DTD/svg11.dtd">
<!-- Generated by graphviz version 2.43.0 (0)
 -->
<!-- Title: src/gateway/query_protocol.cpp Pages: 1 -->
<svg width="682pt" height="214pt"
 viewBox="0.00 0.00 681.50 214.00" xmlns="http://www.w3.org/2000/svg" xmlns:xlink="http://www.w3.org/1999/xlink">
<g id="graph0" class="graph" transform="scale(1 1) rotate(0) translate(4 210)">
<title>src/gateway/query_protocol.cpp</title>
<!-- Node1 -->
<g id="Node000001" class="node">
<title>Node1</title>
<g id="a_Node000001"><a xlink:title=" ">
<polygon fill="#999999" stroke="#666666" points="334,-206 162,-206 162,-187 334,-187 334,-206"/>
<text text-anchor="middle" x="248" y="-194" font-family="Helvetica,sans-Serif" font-size="10.00">src/gateway/query_protocol.cpp</text>
</a>
</g>
</g>
<!-- Node2 -->
<g id="Node000002" class="node">
<title>Node2</title>
<g id="a_Node000002"><a xlink:href="query__protocol_8h.html" target="_top" xlink:title="Query protocol message structures for database gateway.">
<polygon fill="white" stroke="#666666" points="321,-151 175,-151 175,-121 321,-121 321,-151"/>
<text text-anchor="start" x="183" y="-139" font-family="Helvetica,sans-Serif" font-size="10.00">kcenon/database_server</text>
<text text-anchor="middle" x="248" y="-128" font-family="Helvetica,sans-Serif" font-size="10.00">/gateway/query_protocol.h</text>
</a>
</g>
</g>
<!-- Node1&#45;&gt;Node2 -->
<g id="edge1_Node000001_Node000002" class="edge">
<title>Node1&#45;&gt;Node2</title>
<g id="a_edge1_Node000001_Node000002"><a xlink:title=" ">
<path fill="none" stroke="#63b8ff" d="M248,-186.87C248,-180.11 248,-170.35 248,-161.26"/>
<polygon fill="#63b8ff" stroke="#63b8ff" points="251.5,-161.11 248,-151.11 244.5,-161.11 251.5,-161.11"/>
</a>
</g>
</g>
<!-- Node7 -->
<g id="Node000007" class="node">
<title>Node7</title>
<g id="a_Node000007"><a xlink:title=" ">
<polygon fill="#e0e0e0" stroke="#999999" points="50,-79.5 0,-79.5 0,-60.5 50,-60.5 50,-79.5"/>
<text text-anchor="middle" x="25" y="-67.5" font-family="Helvetica,sans-Serif" font-size="10.00">chrono</text>
</a>
</g>
</g>
<!-- Node1&#45;&gt;Node7 -->
<g id="edge15_Node000001_Node000007" class="edge">
<title>Node1&#45;&gt;Node7</title>
<g id="a_edge15_Node000001_Node000007"><a xlink:title=" ">
<path fill="none" stroke="#63b8ff" d="M231.92,-186.89C215.36,-177.99 188.8,-163.65 166,-151 124.61,-128.03 76.75,-100.72 48.79,-84.68"/>
<polygon fill="#63b8ff" stroke="#63b8ff" points="50.18,-81.44 39.77,-79.5 46.7,-87.51 50.18,-81.44"/>
</a>
</g>
</g>
<!-- Node13 -->
<g id="Node000013" class="node">
<title>Node13</title>
<g id="a_Node000013"><a xlink:title=" ">
<polygon fill="#e0e0e0" stroke="#999999" points="469,-151 339,-151 339,-121 469,-121 469,-151"/>
<text text-anchor="start" x="347" y="-139" font-family="Helvetica,sans-Serif" font-size="10.00">kcenon/common/config</text>
<text text-anchor="middle" x="404" y="-128" font-family="Helvetica,sans-Serif" font-size="10.00">/feature_flags.h</text>
</a>
</g>
</g>
<!-- Node1&#45;&gt;Node13 -->
<g id="edge14_Node000001_Node000013" class="edge">
<title>Node1&#45;&gt;Node13</title>
<g id="a_edge14_Node000001_Node000013"><a xlink:title=" ">
<path fill="none" stroke="#63b8ff" d="M270.68,-186.99C293.23,-178.54 328.49,-165.32 357.08,-154.59"/>
<polygon fill="#63b8ff" stroke="#63b8ff" points="358.36,-157.85 366.5,-151.06 355.9,-151.3 358.36,-157.85"/>
</a>
</g>
</g>
<!-- Node3 -->
<g id="Node000003" class="node">
<title>Node3</title>
<g id="a_Node000003"><a xlink:href="query__types_8h.html" target="_top" xlink:title="Query protocol type definitions for database gateway.">
<polygon fill="white" stroke="#666666" points="192,-79.5 106,-79.5 106,-60.5 192,-60.5 192,-79.5"/>
<text text-anchor="middle" x="149" y="-67.5" font-family="Helvetica,sans-Serif" font-size="10.00">query_types.h</text>
</a>
</g>
</g>
<!-- Node2&#45;&gt;Node3 -->
<g id="edge2_Node000002_Node000003" class="edge">
<title>Node2&#45;&gt;Node3</title>
<g id="a_edge2_Node000002_Node000003"><a xlink:title=" ">
<path fill="none" stroke="#63b8ff" d="M226.03,-120.8C209.59,-110.17 187.21,-95.7 170.81,-85.1"/>
<polygon fill="#63b8ff" stroke="#63b8ff" points="172.69,-82.15 162.39,-79.66 168.89,-88.03 172.69,-82.15"/>
</a>
</g>
</g>
<!-- Node4 -->
<g id="Node000004" class="node">
<title>Node4</title>
<g id="a_Node000004"><a xlink:title=" ">
<polygon fill="#e0e0e0" stroke="#999999" points="94,-19 44,-19 44,0 94,0 94,-19"/>
<text text-anchor="middle" x="69" y="-7" font-family="Helvetica,sans-Serif" font-size="10.00">cstdint</text>
</a>
</g>
</g>
<!-- Node2&#45;&gt;Node4 -->
<g id="edge7_Node000002_Node000004" class="edge">
<title>Node2&#45;&gt;Node4</title>
<g id="a_edge7_Node000002_Node000004"><a xlink:title=" ">
<path fill="none" stroke="#63b8ff" d="M174.96,-124.51C147.62,-117.34 118.11,-105.28 97,-85 81.62,-70.22 74.61,-46.17 71.46,-29.41"/>
<polygon fill="#63b8ff" stroke="#63b8ff" points="74.86,-28.51 69.85,-19.17 67.95,-29.6 74.86,-28.51"/>
</a>
</g>
</g>
<!-- Node5 -->
<g id="Node000005" class="node">
<title>Node5</title>
<g id="a_Node000005"><a xlink:title=" ">
<polygon fill="#e0e0e0" stroke="#999999" points="248,-19 204,-19 204,0 248,0 248,-19"/>
<text text-anchor="middle" x="226" y="-7" font-family="Helvetica,sans-Serif" font-size="10.00">string</text>
</a>
</g>
</g>
<!-- Node2&#45;&gt;Node5 -->
<g id="edge10_Node000002_Node000005" class="edge">
<title>Node2&#45;&gt;Node5</title>
<g id="a_edge10_Node000002_Node000005"><a xlink:title=" ">
<path fill="none" stroke="#63b8ff" d="M245.46,-120.99C243.64,-110.97 241.16,-97.16 239,-85 235.64,-66.04 231.86,-44.36 229.25,-29.3"/>
<polygon fill="#63b8ff" stroke="#63b8ff" points="232.66,-28.48 227.51,-19.22 225.76,-29.67 232.66,-28.48"/>
</a>
</g>
</g>
<!-- Node2&#45;&gt;Node7 -->
<g id="edge6_Node000002_Node000007" class="edge">
<title>Node2&#45;&gt;Node7</title>
<g id="a_edge6_Node000002_Node000007"><a xlink:title=" ">
<path fill="none" stroke="#63b8ff" d="M191.7,-120.94C155.1,-111.49 106.47,-98.37 64,-85 61.88,-84.33 59.71,-83.62 57.52,-82.89"/>
<polygon fill="#63b8ff" stroke="#63b8ff" points="58.59,-79.56 47.99,-79.6 56.3,-86.17 58.59,-79.56"/>
</a>
</g>
</g>
<!-- Node8 -->
<g id="Node000008" class="node">
<title>Node8</title>
<g id="a_Node000008"><a xlink:title=" ">
<polygon fill="#e0e0e0" stroke="#999999" points="306,-79.5 248,-79.5 248,-60.5 306,-60.5 306,-79.5"/>
<text text-anchor="middle" x="277" y="-67.5" font-family="Helvetica,sans-Serif" font-size="10.00">memory</text>
</a>
</g>
</g>
<!-- Node2&#45;&gt;Node8 -->
<g id="edge8_Node000002_Node000008" class="edge">
<title>Node2&#45;&gt;Node8</title>
<g id="a_edge8_Node000002_Node000008"><a xlink:title=" ">
<path fill="none" stroke="#63b8ff" d="M254.44,-120.8C258.65,-111.5 264.19,-99.27 268.73,-89.26"/>
<polygon fill="#63b8ff" stroke="#63b8ff" points="272.05,-90.4 272.99,-79.84 265.68,-87.51 272.05,-90.4"/>
</a>
</g>
</g>
<!-- Node9 -->
<g id="Node000009" class="node">
<title>Node9</title>
<g id="a_Node000009"><a xlink:title=" ">
<polygon fill="#e0e0e0" stroke="#999999" points="380,-79.5 324,-79.5 324,-60.5 380,-60.5 380,-79.5"/>
<text text-anchor="middle" x="352" y="-67.5" font-family="Helvetica,sans-Serif" font-size="10.00">optional</text>
</a>
</g>
</g>
<!-- Node2&#45;&gt;Node9 -->
<g id="edge9_Node000002_Node000009" class="edge">
<title>Node2&#45;&gt;Node9</title>
<g id="a_edge9_Node000002_Node000009"><a xlink:title=" ">
<path fill="none" stroke="#63b8ff" d="M270.82,-120.95C288.18,-110.27 311.94,-95.65 329.27,-84.98"/>
<polygon fill="#63b8ff" stroke="#63b8ff" points="331.48,-87.74 338.16,-79.52 327.81,-81.78 331.48,-87.74"/>
</a>
</g>
</g>
<!-- Node10 -->
<g id="Node000010" class="node">
<title>Node10</title>
<g id="a_Node000010"><a xlink:title=" ">
<polygon fill="#e0e0e0" stroke="#999999" points="449.5,-79.5 398.5,-79.5 398.5,-60.5 449.5,-60.5 449.5,-79.5"/>
<text text-anchor="middle" x="424" y="-67.5" font-family="Helvetica,sans-Serif" font-size="10.00">variant</text>
</a>
</g>
</g>
<!-- Node2&#45;&gt;Node10 -->
<g id="edge11_Node000002_Node000010" class="edge">
<title>Node2&#45;&gt;Node10</title>
<g id="a_edge11_Node000002_Node000010"><a xlink:title=" ">
<path fill="none" stroke="#63b8ff" d="M288.88,-120.99C317.11,-111.19 355.46,-97.65 389,-85 390.42,-84.47 391.86,-83.91 393.32,-83.35"/>
<polygon fill="#63b8ff" stroke="#63b8ff" points="394.92,-86.48 402.95,-79.58 392.37,-79.97 394.92,-86.48"/>
</a>
</g>
</g>
<!-- Node11 -->
<g id="Node000011" class="node">
<title>Node11</title>
<g id="a_Node000011"><a xlink:title=" ">
<polygon fill="#e0e0e0" stroke="#999999" points="514.5,-79.5 467.5,-79.5 467.5,-60.5 514.5,-60.5 514.5,-79.5"/>
<text text-anchor="middle" x="491" y="-67.5" font-family="Helvetica,sans-Serif" font-size="10.00">vector</text>
</a>
</g>
</g>
<!-- Node2&#45;&gt;Node11 -->
<g id="edge12_Node000002_Node000011" class="edge">
<title>Node2&#45;&gt;Node11</title>
<g id="a_edge12_Node000002_Node000011"><a xlink:title=" ">
<path fill="none" stroke="#63b8ff" d="M321.17,-121.05C362.19,-112.38 414.01,-100.04 459,-85 460.44,-84.52 461.9,-84 463.37,-83.45"/>
<polygon fill="#63b8ff" stroke="#63b8ff" points="464.99,-86.57 472.95,-79.57 462.36,-80.08 464.99,-86.57"/>
</a>
</g>
</g>
<!-- Node12 -->
<g id="Node000012" class="node">
<title>Node12</title>
<g id="a_Node000012"><a xlink:title=" ">
<polygon fill="#e0e0e0" stroke="#999999" points="673.5,-85 532.5,-85 532.5,-55 673.5,-55 673.5,-85"/>
<text text-anchor="start" x="540.5" y="-73" font-family="Helvetica,sans-Serif" font-size="10.00">kcenon/common/patterns</text>
<text text-anchor="middle" x="603" y="-62" font-family="Helvetica,sans-Serif" font-size="10.00">/result.h</text>
</a>
</g>
</g>
<!-- Node2&#45;&gt;Node12 -->
<g id="edge13_Node000002_Node000012" class="edge">
<title>Node2&#45;&gt;Node12</title>
<g id="a_edge13_Node000002_Node000012"><a xlink:title=" ">
<path fill="none" stroke="#63b8ff" d="M321.13,-121.82C379.77,-111.24 461.98,-96.42 522.49,-85.51"/>
<polygon fill="#63b8ff" stroke="#63b8ff" points="523.17,-88.95 532.39,-83.73 521.93,-82.06 523.17,-88.95"/>
</a>
</g>
</g>
<!-- Node3&#45;&gt;Node4 -->
<g id="edge3_Node000003_Node000004" class="edge">
<title>Node3&#45;&gt;Node4</title>
<g id="a_edge3_Node000003_Node000004"><a xlink:title=" ">
<path fill="none" stroke="#63b8ff" d="M137.2,-60.37C124.55,-51.12 104.26,-36.28 89.09,-25.19"/>
<polygon fill="#63b8ff" stroke="#63b8ff" points="90.99,-22.24 80.85,-19.17 86.86,-27.9 90.99,-22.24"/>
</a>
</g>
</g>
<!-- Node3&#45;&gt;Node5 -->
<g id="edge4_Node000003_Node000005" class="edge">
<title>Node3&#45;&gt;Node5</title>
<g id="a_edge4_Node000003_Node000005"><a xlink:title=" ">
<path fill="none" stroke="#63b8ff" d="M160.36,-60.37C172.42,-51.21 191.7,-36.56 206.25,-25.51"/>
<polygon fill="#63b8ff" stroke="#63b8ff" points="208.75,-28 214.59,-19.17 204.51,-22.43 208.75,-28"/>
</a>
</g>
</g>
<!-- Node6 -->
<g id="Node000006" class="node">
<title>Node6</title>
<g id="a_Node000006"><a xlink:title=" ">
<polygon fill="#e0e0e0" stroke="#999999" points="185.5,-19 112.5,-19 112.5,0 185.5,0 185.5,-19"/>
<text text-anchor="middle" x="149" y="-7" font-family="Helvetica,sans-Serif" font-size="10.00">string_view</text>
</a>
</g>
</g>
<!-- Node3&#45;&gt;Node6 -->
<g id="edge5_Node000003_Node000006" class="edge">
<title>Node3&#45;&gt;Node6</title>
<g id="a_edge5_Node000003_Node000006"><a xlink:title=" ">
<path fill="none" stroke="#63b8ff" d="M149,-60.37C149,-52.25 149,-39.81 149,-29.39"/>
<polygon fill="#63b8ff" stroke="#63b8ff" points="152.5,-29.17 149,-19.17 145.5,-29.17 152.5,-29.17"/>
</a>
</g>
</g>
</g>
</svg>
