<?xml version="1.0" encoding="UTF-8" standalone="no"?>
<!DOCTYPE svg PUBLIC "-//W3C//DTD SVG 1.1//EN"
 "http://www.w3.org/Graphics/SVG/1.1/DTD/svg11.dtd">
<!-- Generated by graphviz version 2.43.0 (0)
 -->
<!-- Title: include/kcenon/database_server/resilience/resilient_database_connection.h Pages: 1 -->
<svg width="731pt" height="170pt"
 viewBox="0.00 0.00 730.50 170.00" xmlns="http://www.w3.org/2000/svg" xmlns:xlink="http://www.w3.org/1999/xlink">
<g id="graph0" class="graph" transform="scale(1 1) rotate(0) translate(4 166)">
<title>include/kcenon/database_server/resilience/resilient_database_connection.h</title>
<!-- Node1 -->
<g id="Node000001" class="node">
<title>Node1</title>
<g id="a_Node000001"><a xlink:title="Resilient database connection with automatic reconnection.">
<polygon fill="#999999" stroke="#666666" points="484,-162 338,-162 338,-121 484,-121 484,-162"/>
<text text-anchor="start" x="346" y="-150" font-family="Helvetica,sans-Serif" font-size="10.00">include/kcenon/database</text>
<text text-anchor="start" x="346" y="-139" font-family="Helvetica,sans-Serif" font-size="10.00">_server/resilience/resilient</text>
<text text-anchor="middle" x="411" y="-128" font-family="Helvetica,sans-Serif" font-size="10.00">_database_connection.h</text>
</a>
</g>
</g>
<!-- Node2 -->
<g id="Node000002" class="node">
<title>Node2</title>
<g id="a_Node000002"><a xlink:href="connection__health__monitor_8h.html" target="_top" xlink:title="Health monitoring for database connections.">
<polygon fill="white" stroke="#666666" points="383,-85 225,-85 225,-66 383,-66 383,-85"/>
<text text-anchor="middle" x="304" y="-73" font-family="Helvetica,sans-Serif" font-size="10.00">connection_health_monitor.h</text>
</a>
</g>
</g>
<!-- Node1&#45;&gt;Node2 -->
<g id="edge1_Node000001_Node000002" class="edge">
<title>Node1&#45;&gt;Node2</title>
<g id="a_edge1_Node000001_Node000002"><a xlink:title=" ">
<path fill="none" stroke="#63b8ff" d="M378.32,-120.95C361.72,-111.03 341.97,-99.21 327,-90.25"/>
<polygon fill="#63b8ff" stroke="#63b8ff" points="328.74,-87.22 318.36,-85.09 325.15,-93.23 328.74,-87.22"/>
</a>
</g>
</g>
<!-- Node3 -->
<g id="Node000003" class="node">
<title>Node3</title>
<g id="a_Node000003"><a xlink:title=" ">
<polygon fill="#e0e0e0" stroke="#999999" points="50,-24.5 0,-24.5 0,-5.5 50,-5.5 50,-24.5"/>
<text text-anchor="middle" x="25" y="-12.5" font-family="Helvetica,sans-Serif" font-size="10.00">atomic</text>
</a>
</g>
</g>
<!-- Node1&#45;&gt;Node3 -->
<g id="edge11_Node000001_Node000003" class="edge">
<title>Node1&#45;&gt;Node3</title>
<g id="a_edge11_Node000001_Node000003"><a xlink:title=" ">
<path fill="none" stroke="#63b8ff" d="M337.87,-129.7C286.56,-120.86 216.88,-106.31 158,-85 117.26,-70.26 73.24,-45.49 47.45,-29.99"/>
<polygon fill="#63b8ff" stroke="#63b8ff" points="49.17,-26.94 38.81,-24.73 45.53,-32.92 49.17,-26.94"/>
</a>
</g>
</g>
<!-- Node4 -->
<g id="Node000004" class="node">
<title>Node4</title>
<g id="a_Node000004"><a xlink:title=" ">
<polygon fill="#e0e0e0" stroke="#999999" points="118,-24.5 68,-24.5 68,-5.5 118,-5.5 118,-24.5"/>
<text text-anchor="middle" x="93" y="-12.5" font-family="Helvetica,sans-Serif" font-size="10.00">chrono</text>
</a>
</g>
</g>
<!-- Node1&#45;&gt;Node4 -->
<g id="edge12_Node000001_Node000004" class="edge">
<title>Node1&#45;&gt;Node4</title>
<g id="a_edge12_Node000001_Node000004"><a xlink:title=" ">
<path fill="none" stroke="#63b8ff" d="M337.77,-128.39C294.66,-119.66 239.79,-105.72 194,-85 162.46,-70.73 130.13,-46.65 110.81,-31.04"/>
<polygon fill="#63b8ff" stroke="#63b8ff" points="112.84,-28.19 102.89,-24.54 108.39,-33.59 112.84,-28.19"/>
</a>
</g>
</g>
<!-- Node6 -->
<g id="Node000006" class="node">
<title>Node6</title>
<g id="a_Node000006"><a xlink:title=" ">
<polygon fill="#e0e0e0" stroke="#999999" points="194,-24.5 136,-24.5 136,-5.5 194,-5.5 194,-24.5"/>
<text text-anchor="middle" x="165" y="-12.5" font-family="Helvetica,sans-Serif" font-size="10.00">memory</text>
</a>
</g>
</g>
<!-- Node1&#45;&gt;Node6 -->
<g id="edge14_Node000001_Node000006" class="edge">
<title>Node1&#45;&gt;Node6</title>
<g id="a_edge14_Node000001_Node000006"><a xlink:title=" ">
<path fill="none" stroke="#63b8ff" d="M337.55,-131.27C298.75,-123.65 251.88,-109.85 216,-85 197.12,-71.92 182.48,-49.56 173.82,-33.84"/>
<polygon fill="#63b8ff" stroke="#63b8ff" points="176.74,-31.89 169.01,-24.64 170.54,-35.13 176.74,-31.89"/>
</a>
</g>
</g>
<!-- Node7 -->
<g id="Node000007" class="node">
<title>Node7</title>
<g id="a_Node000007"><a xlink:title=" ">
<polygon fill="#e0e0e0" stroke="#999999" points="460,-24.5 412,-24.5 412,-5.5 460,-5.5 460,-24.5"/>
<text text-anchor="middle" x="436" y="-12.5" font-family="Helvetica,sans-Serif" font-size="10.00">mutex</text>
</a>
</g>
</g>
<!-- Node1&#45;&gt;Node7 -->
<g id="edge15_Node000001_Node000007" class="edge">
<title>Node1&#45;&gt;Node7</title>
<g id="a_edge15_Node000001_Node000007"><a xlink:title=" ">
<path fill="none" stroke="#63b8ff" d="M414.96,-120.77C419.72,-97.09 427.63,-57.66 432.28,-34.52"/>
<polygon fill="#63b8ff" stroke="#63b8ff" points="435.73,-35.11 434.27,-24.61 428.87,-33.73 435.73,-35.11"/>
</a>
</g>
</g>
<!-- Node8 -->
<g id="Node000008" class="node">
<title>Node8</title>
<g id="a_Node000008"><a xlink:title=" ">
<polygon fill="#e0e0e0" stroke="#999999" points="522,-24.5 478,-24.5 478,-5.5 522,-5.5 522,-24.5"/>
<text text-anchor="middle" x="500" y="-12.5" font-family="Helvetica,sans-Serif" font-size="10.00">string</text>
</a>
</g>
</g>
<!-- Node1&#45;&gt;Node8 -->
<g id="edge16_Node000001_Node000008" class="edge">
<title>Node1&#45;&gt;Node8</title>
<g id="a_edge16_Node000001_Node000008"><a xlink:title=" ">
<path fill="none" stroke="#63b8ff" d="M425.1,-120.77C442.42,-96.55 471.5,-55.86 487.87,-32.97"/>
<polygon fill="#63b8ff" stroke="#63b8ff" points="490.87,-34.78 493.84,-24.61 485.18,-30.71 490.87,-34.78"/>
</a>
</g>
</g>
<!-- Node11 -->
<g id="Node000011" class="node">
<title>Node11</title>
<g id="a_Node000011"><a xlink:title=" ">
<polygon fill="#e0e0e0" stroke="#999999" points="674,-30 540,-30 540,0 674,0 674,-30"/>
<text text-anchor="start" x="548" y="-18" font-family="Helvetica,sans-Serif" font-size="10.00">database/core/database</text>
<text text-anchor="middle" x="607" y="-7" font-family="Helvetica,sans-Serif" font-size="10.00">_backend.h</text>
</a>
</g>
</g>
<!-- Node1&#45;&gt;Node11 -->
<g id="edge17_Node000001_Node000011" class="edge">
<title>Node1&#45;&gt;Node11</title>
<g id="a_edge17_Node000001_Node000011"><a xlink:title=" ">
<path fill="none" stroke="#63b8ff" d="M433.45,-120.74C452.11,-104.86 479.76,-82.54 506,-66 524.69,-54.22 546.54,-43.1 565.13,-34.36"/>
<polygon fill="#63b8ff" stroke="#63b8ff" points="566.64,-37.52 574.25,-30.14 563.7,-31.16 566.64,-37.52"/>
</a>
</g>
</g>
<!-- Node12 -->
<g id="Node000012" class="node">
<title>Node12</title>
<g id="a_Node000012"><a xlink:title=" ">
<polygon fill="#e0e0e0" stroke="#999999" points="553,-85 515,-85 515,-66 553,-66 553,-85"/>
<text text-anchor="middle" x="534" y="-73" font-family="Helvetica,sans-Serif" font-size="10.00">map</text>
</a>
</g>
</g>
<!-- Node1&#45;&gt;Node12 -->
<g id="edge13_Node000001_Node000012" class="edge">
<title>Node1&#45;&gt;Node12</title>
<g id="a_edge13_Node000001_Node000012"><a xlink:title=" ">
<path fill="none" stroke="#63b8ff" d="M448.57,-120.95C468.01,-110.84 491.21,-98.76 508.53,-89.75"/>
<polygon fill="#63b8ff" stroke="#63b8ff" points="510.23,-92.81 517.49,-85.09 507,-86.6 510.23,-92.81"/>
</a>
</g>
</g>
<!-- Node13 -->
<g id="Node000013" class="node">
<title>Node13</title>
<g id="a_Node000013"><a xlink:title=" ">
<polygon fill="#e0e0e0" stroke="#999999" points="722.5,-85 571.5,-85 571.5,-66 722.5,-66 722.5,-85"/>
<text text-anchor="middle" x="647" y="-73" font-family="Helvetica,sans-Serif" font-size="10.00">database/database_types.h</text>
</a>
</g>
</g>
<!-- Node1&#45;&gt;Node13 -->
<g id="edge18_Node000001_Node000013" class="edge">
<title>Node1&#45;&gt;Node13</title>
<g id="a_edge18_Node000001_Node000013"><a xlink:title=" ">
<path fill="none" stroke="#63b8ff" d="M483.09,-120.95C523.26,-110.06 571.84,-96.88 605.64,-87.72"/>
<polygon fill="#63b8ff" stroke="#63b8ff" points="606.89,-91 615.63,-85.01 605.06,-84.25 606.89,-91"/>
</a>
</g>
</g>
<!-- Node2&#45;&gt;Node3 -->
<g id="edge2_Node000002_Node000003" class="edge">
<title>Node2&#45;&gt;Node3</title>
<g id="a_edge2_Node000002_Node000003"><a xlink:title=" ">
<path fill="none" stroke="#63b8ff" d="M235.25,-65.97C185.63,-58.86 117.39,-47.12 59,-30 57.12,-29.45 55.19,-28.83 53.27,-28.16"/>
<polygon fill="#63b8ff" stroke="#63b8ff" points="54.4,-24.84 43.81,-24.57 51.92,-31.39 54.4,-24.84"/>
</a>
</g>
</g>
<!-- Node2&#45;&gt;Node4 -->
<g id="edge3_Node000002_Node000004" class="edge">
<title>Node2&#45;&gt;Node4</title>
<g id="a_edge3_Node000002_Node000004"><a xlink:title=" ">
<path fill="none" stroke="#63b8ff" d="M263.1,-65.98C226.92,-58.02 172.89,-45.13 127,-30 125.37,-29.46 123.72,-28.89 122.05,-28.28"/>
<polygon fill="#63b8ff" stroke="#63b8ff" points="123.19,-24.97 112.6,-24.63 120.66,-31.5 123.19,-24.97"/>
</a>
</g>
</g>
<!-- Node5 -->
<g id="Node000005" class="node">
<title>Node5</title>
<g id="a_Node000005"><a xlink:title=" ">
<polygon fill="#e0e0e0" stroke="#999999" points="262,-24.5 212,-24.5 212,-5.5 262,-5.5 262,-24.5"/>
<text text-anchor="middle" x="237" y="-12.5" font-family="Helvetica,sans-Serif" font-size="10.00">cstdint</text>
</a>
</g>
</g>
<!-- Node2&#45;&gt;Node5 -->
<g id="edge4_Node000002_Node000005" class="edge">
<title>Node2&#45;&gt;Node5</title>
<g id="a_edge4_Node000002_Node000005"><a xlink:title=" ">
<path fill="none" stroke="#63b8ff" d="M294.11,-65.87C283.72,-56.8 267.16,-42.34 254.55,-31.32"/>
<polygon fill="#63b8ff" stroke="#63b8ff" points="256.76,-28.61 246.93,-24.67 252.16,-33.88 256.76,-28.61"/>
</a>
</g>
</g>
<!-- Node2&#45;&gt;Node6 -->
<g id="edge5_Node000002_Node000006" class="edge">
<title>Node2&#45;&gt;Node6</title>
<g id="a_edge5_Node000002_Node000006"><a xlink:title=" ">
<path fill="none" stroke="#63b8ff" d="M283.79,-65.99C260.32,-56.12 221.39,-39.73 194.54,-28.43"/>
<polygon fill="#63b8ff" stroke="#63b8ff" points="195.81,-25.17 185.24,-24.52 193.1,-31.62 195.81,-25.17"/>
</a>
</g>
</g>
<!-- Node2&#45;&gt;Node7 -->
<g id="edge6_Node000002_Node000007" class="edge">
<title>Node2&#45;&gt;Node7</title>
<g id="a_edge6_Node000002_Node000007"><a xlink:title=" ">
<path fill="none" stroke="#63b8ff" d="M323.19,-65.99C345.39,-56.16 382.12,-39.88 407.62,-28.58"/>
<polygon fill="#63b8ff" stroke="#63b8ff" points="409.06,-31.77 416.78,-24.52 406.22,-25.37 409.06,-31.77"/>
</a>
</g>
</g>
<!-- Node2&#45;&gt;Node8 -->
<g id="edge7_Node000002_Node000008" class="edge">
<title>Node2&#45;&gt;Node8</title>
<g id="a_edge7_Node000002_Node000008"><a xlink:title=" ">
<path fill="none" stroke="#63b8ff" d="M342.55,-65.96C376.33,-58.04 426.54,-45.2 469,-30 470.22,-29.56 471.46,-29.1 472.7,-28.61"/>
<polygon fill="#63b8ff" stroke="#63b8ff" points="474.3,-31.74 482.17,-24.64 471.59,-25.28 474.3,-31.74"/>
</a>
</g>
</g>
<!-- Node9 -->
<g id="Node000009" class="node">
<title>Node9</title>
<g id="a_Node000009"><a xlink:title=" ">
<polygon fill="#e0e0e0" stroke="#999999" points="328,-24.5 280,-24.5 280,-5.5 328,-5.5 328,-24.5"/>
<text text-anchor="middle" x="304" y="-12.5" font-family="Helvetica,sans-Serif" font-size="10.00">thread</text>
</a>
</g>
</g>
<!-- Node2&#45;&gt;Node9 -->
<g id="edge8_Node000002_Node000009" class="edge">
<title>Node2&#45;&gt;Node9</title>
<g id="a_edge8_Node000002_Node000009"><a xlink:title=" ">
<path fill="none" stroke="#63b8ff" d="M304,-65.87C304,-57.75 304,-45.31 304,-34.89"/>
<polygon fill="#63b8ff" stroke="#63b8ff" points="307.5,-34.67 304,-24.67 300.5,-34.67 307.5,-34.67"/>
</a>
</g>
</g>
<!-- Node10 -->
<g id="Node000010" class="node">
<title>Node10</title>
<g id="a_Node000010"><a xlink:title=" ">
<polygon fill="#e0e0e0" stroke="#999999" points="393.5,-24.5 346.5,-24.5 346.5,-5.5 393.5,-5.5 393.5,-24.5"/>
<text text-anchor="middle" x="370" y="-12.5" font-family="Helvetica,sans-Serif" font-size="10.00">vector</text>
</a>
</g>
</g>
<!-- Node2&#45;&gt;Node10 -->
<g id="edge9_Node000002_Node000010" class="edge">
<title>Node2&#45;&gt;Node10</title>
<g id="a_edge9_Node000002_Node000010"><a xlink:title=" ">
<path fill="none" stroke="#63b8ff" d="M313.74,-65.87C323.97,-56.8 340.29,-42.34 352.72,-31.32"/>
<polygon fill="#63b8ff" stroke="#63b8ff" points="355.06,-33.92 360.22,-24.67 350.42,-28.68 355.06,-33.92"/>
</a>
</g>
</g>
<!-- Node2&#45;&gt;Node11 -->
<g id="edge10_Node000002_Node000011" class="edge">
<title>Node2&#45;&gt;Node11</title>
<g id="a_edge10_Node000002_Node000011"><a xlink:title=" ">
<path fill="none" stroke="#63b8ff" d="M348.06,-65.99C395.59,-56.82 472.2,-42.03 529.79,-30.91"/>
<polygon fill="#63b8ff" stroke="#63b8ff" points="530.79,-34.28 539.94,-28.95 529.46,-27.41 530.79,-34.28"/>
</a>
</g>
</g>
</g>
</svg>
