<?xml version="1.0" encoding="UTF-8" standalone="no"?>
<!DOCTYPE svg PUBLIC "-//W3C//DTD SVG 1.1//EN"
 "http://www.w3.org/Graphics/SVG/1.1/DTD/svg11.dtd">
<!-- Generated by graphviz version 2.43.0 (0)
 -->
<!-- Title: include/kcenon/database_server/resilience/resilient_database_connection.h Pages: 1 -->
<svg width="848pt" height="170pt"
 viewBox="0.00 0.00 847.50 170.00" xmlns="http://www.w3.org/2000/svg" xmlns:xlink="http://www.w3.org/1999/xlink">
<g id="graph0" class="graph" transform="scale(1 1) rotate(0) translate(4 166)">
<title>include/kcenon/database_server/resilience/resilient_database_connection.h</title>
<!-- Node1 -->
<g id="Node000001" class="node">
<title>Node1</title>
<g id="a_Node000001"><a xlink:title="Resilient database connection with automatic reconnection.">
<polygon fill="#999999" stroke="#666666" points="526,-162 380,-162 380,-121 526,-121 526,-162"/>
<text text-anchor="start" x="388" y="-150" font-family="Helvetica,sans-Serif" font-size="10.00">include/kcenon/database</text>
<text text-anchor="start" x="388" y="-139" font-family="Helvetica,sans-Serif" font-size="10.00">_server/resilience/resilient</text>
<text text-anchor="middle" x="453" y="-128" font-family="Helvetica,sans-Serif" font-size="10.00">_database_connection.h</text>
</a>
</g>
</g>
<!-- Node2 -->
<g id="Node000002" class="node">
<title>Node2</title>
<g id="a_Node000002"><a xlink:href="connection__health__monitor_8h.html" target="_top" xlink:title="Health monitoring for database connections.">
<polygon fill="white" stroke="#666666" points="406,-85 248,-85 248,-66 406,-66 406,-85"/>
<text text-anchor="middle" x="327" y="-73" font-family="Helvetica,sans-Serif" font-size="10.00">connection_health_monitor.h</text>
</a>
</g>
</g>
<!-- Node1&#45;&gt;Node2 -->
<g id="edge1_Node000001_Node000002" class="edge">
<title>Node1&#45;&gt;Node2</title>
<g id="a_edge1_Node000001_Node000002"><a xlink:title=" ">
<path fill="none" stroke="#63b8ff" d="M414.51,-120.95C394.6,-110.84 370.83,-98.76 353.09,-89.75"/>
<polygon fill="#63b8ff" stroke="#63b8ff" points="354.42,-86.5 343.92,-85.09 351.25,-92.74 354.42,-86.5"/>
</a>
</g>
</g>
<!-- Node3 -->
<g id="Node000003" class="node">
<title>Node3</title>
<g id="a_Node000003"><a xlink:title=" ">
<polygon fill="#e0e0e0" stroke="#999999" points="50,-24.5 0,-24.5 0,-5.5 50,-5.5 50,-24.5"/>
<text text-anchor="middle" x="25" y="-12.5" font-family="Helvetica,sans-Serif" font-size="10.00">atomic</text>
</a>
</g>
</g>
<!-- Node1&#45;&gt;Node3 -->
<g id="edge12_Node000001_Node000003" class="edge">
<title>Node1&#45;&gt;Node3</title>
<g id="a_edge12_Node000001_Node000003"><a xlink:title=" ">
<path fill="none" stroke="#63b8ff" d="M379.9,-131.3C321.98,-122.8 239.53,-107.96 170,-85 125.48,-70.3 76.88,-45.14 48.77,-29.6"/>
<polygon fill="#63b8ff" stroke="#63b8ff" points="50.16,-26.37 39.72,-24.54 46.74,-32.48 50.16,-26.37"/>
</a>
</g>
</g>
<!-- Node4 -->
<g id="Node000004" class="node">
<title>Node4</title>
<g id="a_Node000004"><a xlink:title=" ">
<polygon fill="#e0e0e0" stroke="#999999" points="118,-24.5 68,-24.5 68,-5.5 118,-5.5 118,-24.5"/>
<text text-anchor="middle" x="93" y="-12.5" font-family="Helvetica,sans-Serif" font-size="10.00">chrono</text>
</a>
</g>
</g>
<!-- Node1&#45;&gt;Node4 -->
<g id="edge13_Node000001_Node000004" class="edge">
<title>Node1&#45;&gt;Node4</title>
<g id="a_edge13_Node000001_Node000004"><a xlink:title=" ">
<path fill="none" stroke="#63b8ff" d="M379.79,-129.68C330.87,-121.02 265.7,-106.68 211,-85 174.55,-70.55 135.99,-46.01 113.23,-30.42"/>
<polygon fill="#63b8ff" stroke="#63b8ff" points="114.98,-27.38 104.77,-24.54 110.99,-33.12 114.98,-27.38"/>
</a>
</g>
</g>
<!-- Node7 -->
<g id="Node000007" class="node">
<title>Node7</title>
<g id="a_Node000007"><a xlink:title=" ">
<polygon fill="#e0e0e0" stroke="#999999" points="194,-24.5 136,-24.5 136,-5.5 194,-5.5 194,-24.5"/>
<text text-anchor="middle" x="165" y="-12.5" font-family="Helvetica,sans-Serif" font-size="10.00">memory</text>
</a>
</g>
</g>
<!-- Node1&#45;&gt;Node7 -->
<g id="edge15_Node000001_Node000007" class="edge">
<title>Node1&#45;&gt;Node7</title>
<g id="a_edge15_Node000001_Node000007"><a xlink:title=" ">
<path fill="none" stroke="#63b8ff" d="M379.8,-130.76C336.82,-122.84 282.57,-108.92 239,-85 214.58,-71.59 192.01,-48.31 178.37,-32.53"/>
<polygon fill="#63b8ff" stroke="#63b8ff" points="180.87,-30.07 171.76,-24.65 175.51,-34.57 180.87,-30.07"/>
</a>
</g>
</g>
<!-- Node8 -->
<g id="Node000008" class="node">
<title>Node8</title>
<g id="a_Node000008"><a xlink:title=" ">
<polygon fill="#e0e0e0" stroke="#999999" points="458,-24.5 410,-24.5 410,-5.5 458,-5.5 458,-24.5"/>
<text text-anchor="middle" x="434" y="-12.5" font-family="Helvetica,sans-Serif" font-size="10.00">mutex</text>
</a>
</g>
</g>
<!-- Node1&#45;&gt;Node8 -->
<g id="edge16_Node000001_Node000008" class="edge">
<title>Node1&#45;&gt;Node8</title>
<g id="a_edge16_Node000001_Node000008"><a xlink:title=" ">
<path fill="none" stroke="#63b8ff" d="M449.99,-120.77C446.37,-97.09 440.36,-57.66 436.83,-34.52"/>
<polygon fill="#63b8ff" stroke="#63b8ff" points="440.28,-33.97 435.31,-24.61 433.36,-35.03 440.28,-33.97"/>
</a>
</g>
</g>
<!-- Node9 -->
<g id="Node000009" class="node">
<title>Node9</title>
<g id="a_Node000009"><a xlink:title=" ">
<polygon fill="#e0e0e0" stroke="#999999" points="520,-24.5 476,-24.5 476,-5.5 520,-5.5 520,-24.5"/>
<text text-anchor="middle" x="498" y="-12.5" font-family="Helvetica,sans-Serif" font-size="10.00">string</text>
</a>
</g>
</g>
<!-- Node1&#45;&gt;Node9 -->
<g id="edge17_Node000001_Node000009" class="edge">
<title>Node1&#45;&gt;Node9</title>
<g id="a_edge17_Node000001_Node000009"><a xlink:title=" ">
<path fill="none" stroke="#63b8ff" d="M460.13,-120.77C468.73,-96.98 483.07,-57.3 491.42,-34.21"/>
<polygon fill="#63b8ff" stroke="#63b8ff" points="494.78,-35.21 494.89,-24.61 488.2,-32.83 494.78,-35.21"/>
</a>
</g>
</g>
<!-- Node11 -->
<g id="Node000011" class="node">
<title>Node11</title>
<g id="a_Node000011"><a xlink:title=" ">
<polygon fill="#e0e0e0" stroke="#999999" points="672,-30 538,-30 538,0 672,0 672,-30"/>
<text text-anchor="start" x="546" y="-18" font-family="Helvetica,sans-Serif" font-size="10.00">database/core/database</text>
<text text-anchor="middle" x="605" y="-7" font-family="Helvetica,sans-Serif" font-size="10.00">_backend.h</text>
</a>
</g>
</g>
<!-- Node1&#45;&gt;Node11 -->
<g id="edge18_Node000001_Node000011" class="edge">
<title>Node1&#45;&gt;Node11</title>
<g id="a_edge18_Node000001_Node000011"><a xlink:title=" ">
<path fill="none" stroke="#63b8ff" d="M472.99,-120.75C488.99,-105.28 512.28,-83.51 534,-66 546.97,-55.54 561.97,-44.8 574.83,-35.96"/>
<polygon fill="#63b8ff" stroke="#63b8ff" points="577.04,-38.69 583.35,-30.18 573.11,-32.9 577.04,-38.69"/>
</a>
</g>
</g>
<!-- Node12 -->
<g id="Node000012" class="node">
<title>Node12</title>
<g id="a_Node000012"><a xlink:title=" ">
<polygon fill="#e0e0e0" stroke="#999999" points="839.5,-30 690.5,-30 690.5,0 839.5,0 839.5,-30"/>
<text text-anchor="start" x="698.5" y="-18" font-family="Helvetica,sans-Serif" font-size="10.00">kcenon/common/interfaces</text>
<text text-anchor="middle" x="765" y="-7" font-family="Helvetica,sans-Serif" font-size="10.00">/executor_interface.h</text>
</a>
</g>
</g>
<!-- Node1&#45;&gt;Node12 -->
<g id="edge20_Node000001_Node000012" class="edge">
<title>Node1&#45;&gt;Node12</title>
<g id="a_edge20_Node000001_Node000012"><a xlink:title=" ">
<path fill="none" stroke="#63b8ff" d="M480.73,-120.85C508.47,-101.48 549.46,-73.69 567,-66 602.77,-50.32 644.41,-38.88 680.25,-30.93"/>
<polygon fill="#63b8ff" stroke="#63b8ff" points="681.16,-34.31 690.19,-28.78 679.68,-27.47 681.16,-34.31"/>
</a>
</g>
</g>
<!-- Node13 -->
<g id="Node000013" class="node">
<title>Node13</title>
<g id="a_Node000013"><a xlink:title=" ">
<polygon fill="#e0e0e0" stroke="#999999" points="614,-85 576,-85 576,-66 614,-66 614,-85"/>
<text text-anchor="middle" x="595" y="-73" font-family="Helvetica,sans-Serif" font-size="10.00">map</text>
</a>
</g>
</g>
<!-- Node1&#45;&gt;Node13 -->
<g id="edge14_Node000001_Node000013" class="edge">
<title>Node1&#45;&gt;Node13</title>
<g id="a_edge14_Node000001_Node000013"><a xlink:title=" ">
<path fill="none" stroke="#63b8ff" d="M496.38,-120.95C519.23,-110.65 546.6,-98.31 566.7,-89.25"/>
<polygon fill="#63b8ff" stroke="#63b8ff" points="568.26,-92.39 575.94,-85.09 565.38,-86.01 568.26,-92.39"/>
</a>
</g>
</g>
<!-- Node14 -->
<g id="Node000014" class="node">
<title>Node14</title>
<g id="a_Node000014"><a xlink:title=" ">
<polygon fill="#e0e0e0" stroke="#999999" points="783.5,-85 632.5,-85 632.5,-66 783.5,-66 783.5,-85"/>
<text text-anchor="middle" x="708" y="-73" font-family="Helvetica,sans-Serif" font-size="10.00">database/database_types.h</text>
</a>
</g>
</g>
<!-- Node1&#45;&gt;Node14 -->
<g id="edge19_Node000001_Node000014" class="edge">
<title>Node1&#45;&gt;Node14</title>
<g id="a_edge19_Node000001_Node000014"><a xlink:title=" ">
<path fill="none" stroke="#63b8ff" d="M526.07,-122.16C570.79,-110.94 626.5,-96.95 664.41,-87.44"/>
<polygon fill="#63b8ff" stroke="#63b8ff" points="665.28,-90.83 674.13,-85 663.58,-84.04 665.28,-90.83"/>
</a>
</g>
</g>
<!-- Node2&#45;&gt;Node3 -->
<g id="edge2_Node000002_Node000003" class="edge">
<title>Node2&#45;&gt;Node3</title>
<g id="a_edge2_Node000002_Node000003"><a xlink:title=" ">
<path fill="none" stroke="#63b8ff" d="M247.98,-66.15C194.05,-59.29 121.37,-47.77 59,-30 57.11,-29.46 55.19,-28.85 53.26,-28.19"/>
<polygon fill="#63b8ff" stroke="#63b8ff" points="54.38,-24.88 43.79,-24.62 51.91,-31.43 54.38,-24.88"/>
</a>
</g>
</g>
<!-- Node2&#45;&gt;Node4 -->
<g id="edge3_Node000002_Node000004" class="edge">
<title>Node2&#45;&gt;Node4</title>
<g id="a_edge3_Node000002_Node000004"><a xlink:title=" ">
<path fill="none" stroke="#63b8ff" d="M277.47,-65.93C236.62,-58.29 177.39,-45.85 127,-30 125.33,-29.47 123.62,-28.9 121.9,-28.29"/>
<polygon fill="#63b8ff" stroke="#63b8ff" points="122.8,-24.88 112.21,-24.58 120.3,-31.42 122.8,-24.88"/>
</a>
</g>
</g>
<!-- Node5 -->
<g id="Node000005" class="node">
<title>Node5</title>
<g id="a_Node000005"><a xlink:title=" ">
<polygon fill="#e0e0e0" stroke="#999999" points="262,-24.5 212,-24.5 212,-5.5 262,-5.5 262,-24.5"/>
<text text-anchor="middle" x="237" y="-12.5" font-family="Helvetica,sans-Serif" font-size="10.00">cstdint</text>
</a>
</g>
</g>
<!-- Node2&#45;&gt;Node5 -->
<g id="edge4_Node000002_Node000005" class="edge">
<title>Node2&#45;&gt;Node5</title>
<g id="a_edge4_Node000002_Node000005"><a xlink:title=" ">
<path fill="none" stroke="#63b8ff" d="M313.72,-65.87C299.36,-56.54 276.24,-41.51 259.13,-30.38"/>
<polygon fill="#63b8ff" stroke="#63b8ff" points="260.63,-27.18 250.33,-24.67 256.81,-33.05 260.63,-27.18"/>
</a>
</g>
</g>
<!-- Node6 -->
<g id="Node000006" class="node">
<title>Node6</title>
<g id="a_Node000006"><a xlink:title=" ">
<polygon fill="#e0e0e0" stroke="#999999" points="326,-24.5 280,-24.5 280,-5.5 326,-5.5 326,-24.5"/>
<text text-anchor="middle" x="303" y="-12.5" font-family="Helvetica,sans-Serif" font-size="10.00">future</text>
</a>
</g>
</g>
<!-- Node2&#45;&gt;Node6 -->
<g id="edge5_Node000002_Node000006" class="edge">
<title>Node2&#45;&gt;Node6</title>
<g id="a_edge5_Node000002_Node000006"><a xlink:title=" ">
<path fill="none" stroke="#63b8ff" d="M323.46,-65.87C320.06,-57.57 314.81,-44.78 310.48,-34.22"/>
<polygon fill="#63b8ff" stroke="#63b8ff" points="313.59,-32.59 306.56,-24.67 307.11,-35.25 313.59,-32.59"/>
</a>
</g>
</g>
<!-- Node2&#45;&gt;Node7 -->
<g id="edge6_Node000002_Node000007" class="edge">
<title>Node2&#45;&gt;Node7</title>
<g id="a_edge6_Node000002_Node000007"><a xlink:title=" ">
<path fill="none" stroke="#63b8ff" d="M302.74,-65.86C277.73,-56.94 237.61,-42.58 203,-30 201.36,-29.41 199.69,-28.79 198,-28.18"/>
<polygon fill="#63b8ff" stroke="#63b8ff" points="198.89,-24.78 188.3,-24.62 196.48,-31.35 198.89,-24.78"/>
</a>
</g>
</g>
<!-- Node2&#45;&gt;Node8 -->
<g id="edge7_Node000002_Node000008" class="edge">
<title>Node2&#45;&gt;Node8</title>
<g id="a_edge7_Node000002_Node000008"><a xlink:title=" ">
<path fill="none" stroke="#63b8ff" d="M342.79,-65.87C360.33,-56.28 388.88,-40.67 409.37,-29.47"/>
<polygon fill="#63b8ff" stroke="#63b8ff" points="411.05,-32.54 418.15,-24.67 407.69,-26.39 411.05,-32.54"/>
</a>
</g>
</g>
<!-- Node2&#45;&gt;Node9 -->
<g id="edge8_Node000002_Node000009" class="edge">
<title>Node2&#45;&gt;Node9</title>
<g id="a_edge8_Node000002_Node000009"><a xlink:title=" ">
<path fill="none" stroke="#63b8ff" d="M357.39,-65.95C385.99,-57.65 429.85,-44.24 467,-30 468.21,-29.54 469.44,-29.05 470.68,-28.55"/>
<polygon fill="#63b8ff" stroke="#63b8ff" points="472.3,-31.66 480.12,-24.5 469.55,-25.22 472.3,-31.66"/>
</a>
</g>
</g>
<!-- Node10 -->
<g id="Node000010" class="node">
<title>Node10</title>
<g id="a_Node000010"><a xlink:title=" ">
<polygon fill="#e0e0e0" stroke="#999999" points="391.5,-24.5 344.5,-24.5 344.5,-5.5 391.5,-5.5 391.5,-24.5"/>
<text text-anchor="middle" x="368" y="-12.5" font-family="Helvetica,sans-Serif" font-size="10.00">vector</text>
</a>
</g>
</g>
<!-- Node2&#45;&gt;Node10 -->
<g id="edge9_Node000002_Node000010" class="edge">
<title>Node2&#45;&gt;Node10</title>
<g id="a_edge9_Node000002_Node000010"><a xlink:title=" ">
<path fill="none" stroke="#63b8ff" d="M333.05,-65.87C339.11,-57.23 348.59,-43.7 356.14,-32.92"/>
<polygon fill="#63b8ff" stroke="#63b8ff" points="359.05,-34.87 361.93,-24.67 353.32,-30.85 359.05,-34.87"/>
</a>
</g>
</g>
<!-- Node2&#45;&gt;Node11 -->
<g id="edge10_Node000002_Node000011" class="edge">
<title>Node2&#45;&gt;Node11</title>
<g id="a_edge10_Node000002_Node000011"><a xlink:title=" ">
<path fill="none" stroke="#63b8ff" d="M367.42,-65.99C409.51,-57.14 476.44,-43.05 528.55,-32.09"/>
<polygon fill="#63b8ff" stroke="#63b8ff" points="529.37,-35.49 538.43,-30.01 527.93,-28.64 529.37,-35.49"/>
</a>
</g>
</g>
<!-- Node2&#45;&gt;Node12 -->
<g id="edge11_Node000002_Node000012" class="edge">
<title>Node2&#45;&gt;Node12</title>
<g id="a_edge11_Node000002_Node000012"><a xlink:title=" ">
<path fill="none" stroke="#63b8ff" d="M401.7,-65.99C471.19,-57.87 577.85,-44.9 680.45,-30.04"/>
<polygon fill="#63b8ff" stroke="#63b8ff" points="680.98,-33.5 690.37,-28.6 679.97,-26.58 680.98,-33.5"/>
</a>
</g>
</g>
</g>
</svg>
