<?xml version="1.0" encoding="UTF-8" standalone="no"?>
<!DOCTYPE svg PUBLIC "-//W3C//DTD SVG 1.1//EN"
 "http://www.w3.org/Graphics/SVG/1.1/DTD/svg11.dtd">
<!-- Generated by graphviz version 2.43.0 (0)
 -->
<!-- Title: src/gateway/protocol/response_serializer.cpp Pages: 1 -->
<svg width="1087pt" height="280pt"
 viewBox="0.00 0.00 1086.50 280.00" xmlns="http://www.w3.org/2000/svg" xmlns:xlink="http://www.w3.org/1999/xlink">
<g id="graph0" class="graph" transform="scale(1 1) rotate(0) translate(4 276)">
<title>src/gateway/protocol/response_serializer.cpp</title>
<!-- Node1 -->
<g id="Node000001" class="node">
<title>Node1</title>
<g id="a_Node000001"><a xlink:title="Implementation of query_response, column_metadata, result_row serialization.">
<polygon fill="#999999" stroke="#666666" points="752,-272 618,-272 618,-242 752,-242 752,-272"/>
<text text-anchor="start" x="626" y="-260" font-family="Helvetica,sans-Serif" font-size="10.00">src/gateway/protocol</text>
<text text-anchor="middle" x="685" y="-249" font-family="Helvetica,sans-Serif" font-size="10.00">/response_serializer.cpp</text>
</a>
</g>
</g>
<!-- Node2 -->
<g id="Node000002" class="node">
<title>Node2</title>
<g id="a_Node000002"><a xlink:href="serialization__helpers_8h.html" target="_top" xlink:title="Common serialization utilities for query protocol.">
<polygon fill="white" stroke="#666666" points="748.5,-206 621.5,-206 621.5,-187 748.5,-187 748.5,-206"/>
<text text-anchor="middle" x="685" y="-194" font-family="Helvetica,sans-Serif" font-size="10.00">serialization_helpers.h</text>
</a>
</g>
</g>
<!-- Node1&#45;&gt;Node2 -->
<g id="edge1_Node000001_Node000002" class="edge">
<title>Node1&#45;&gt;Node2</title>
<g id="a_edge1_Node000001_Node000002"><a xlink:title=" ">
<path fill="none" stroke="#63b8ff" d="M685,-241.84C685,-234.21 685,-224.7 685,-216.45"/>
<polygon fill="#63b8ff" stroke="#63b8ff" points="688.5,-216.27 685,-206.27 681.5,-216.27 688.5,-216.27"/>
</a>
</g>
</g>
<!-- Node3 -->
<g id="Node000003" class="node">
<title>Node3</title>
<g id="a_Node000003"><a xlink:title=" ">
<polygon fill="#e0e0e0" stroke="#999999" points="130,-151 0,-151 0,-121 130,-121 130,-151"/>
<text text-anchor="start" x="8" y="-139" font-family="Helvetica,sans-Serif" font-size="10.00">kcenon/common/config</text>
<text text-anchor="middle" x="65" y="-128" font-family="Helvetica,sans-Serif" font-size="10.00">/feature_flags.h</text>
</a>
</g>
</g>
<!-- Node2&#45;&gt;Node3 -->
<g id="edge2_Node000002_Node000003" class="edge">
<title>Node2&#45;&gt;Node3</title>
<g id="a_edge2_Node000002_Node000003"><a xlink:title=" ">
<path fill="none" stroke="#63b8ff" d="M621.5,-192.2C520.21,-186.51 315.97,-173.26 144,-151 142.72,-150.83 141.42,-150.66 140.12,-150.48"/>
<polygon fill="#63b8ff" stroke="#63b8ff" points="140.42,-146.99 130.02,-149.02 139.42,-153.92 140.42,-146.99"/>
</a>
</g>
</g>
<!-- Node4 -->
<g id="Node000004" class="node">
<title>Node4</title>
<g id="a_Node000004"><a xlink:title=" ">
<polygon fill="#e0e0e0" stroke="#999999" points="327.5,-85 186.5,-85 186.5,-55 327.5,-55 327.5,-85"/>
<text text-anchor="start" x="194.5" y="-73" font-family="Helvetica,sans-Serif" font-size="10.00">kcenon/common/patterns</text>
<text text-anchor="middle" x="257" y="-62" font-family="Helvetica,sans-Serif" font-size="10.00">/result.h</text>
</a>
</g>
</g>
<!-- Node2&#45;&gt;Node4 -->
<g id="edge3_Node000002_Node000004" class="edge">
<title>Node2&#45;&gt;Node4</title>
<g id="a_edge3_Node000002_Node000004"><a xlink:title=" ">
<path fill="none" stroke="#63b8ff" d="M638.46,-186.94C597.26,-178.97 535.65,-166.06 483,-151 419.25,-132.77 347.32,-106.25 302.08,-88.81"/>
<polygon fill="#63b8ff" stroke="#63b8ff" points="303.16,-85.48 292.57,-85.13 300.63,-92.01 303.16,-85.48"/>
</a>
</g>
</g>
<!-- Node5 -->
<g id="Node000005" class="node">
<title>Node5</title>
<g id="a_Node000005"><a xlink:href="query__protocol_8h.html" target="_top" xlink:title="Query protocol message structures for database gateway.">
<polygon fill="white" stroke="#666666" points="638,-151 492,-151 492,-121 638,-121 638,-151"/>
<text text-anchor="start" x="500" y="-139" font-family="Helvetica,sans-Serif" font-size="10.00">kcenon/database_server</text>
<text text-anchor="middle" x="565" y="-128" font-family="Helvetica,sans-Serif" font-size="10.00">/gateway/query_protocol.h</text>
</a>
</g>
</g>
<!-- Node2&#45;&gt;Node5 -->
<g id="edge4_Node000002_Node000005" class="edge">
<title>Node2&#45;&gt;Node5</title>
<g id="a_edge4_Node000002_Node000005"><a xlink:title=" ">
<path fill="none" stroke="#63b8ff" d="M667.55,-186.99C650.79,-178.82 624.9,-166.2 603.33,-155.69"/>
<polygon fill="#63b8ff" stroke="#63b8ff" points="604.6,-152.41 594.08,-151.18 601.54,-158.71 604.6,-152.41"/>
</a>
</g>
</g>
<!-- Node7 -->
<g id="Node000007" class="node">
<title>Node7</title>
<g id="a_Node000007"><a xlink:title=" ">
<polygon fill="#e0e0e0" stroke="#999999" points="381,-19 331,-19 331,0 381,0 381,-19"/>
<text text-anchor="middle" x="356" y="-7" font-family="Helvetica,sans-Serif" font-size="10.00">cstdint</text>
</a>
</g>
</g>
<!-- Node2&#45;&gt;Node7 -->
<g id="edge19_Node000002_Node000007" class="edge">
<title>Node2&#45;&gt;Node7</title>
<g id="a_edge19_Node000002_Node000007"><a xlink:title=" ">
<path fill="none" stroke="#63b8ff" d="M621.13,-191.72C496.68,-182.84 229.3,-155.77 177,-85 138.61,-33.05 258.35,-17.12 320.73,-12.4"/>
<polygon fill="#63b8ff" stroke="#63b8ff" points="321.21,-15.88 330.94,-11.69 320.72,-8.9 321.21,-15.88"/>
</a>
</g>
</g>
<!-- Node8 -->
<g id="Node000008" class="node">
<title>Node8</title>
<g id="a_Node000008"><a xlink:title=" ">
<polygon fill="#e0e0e0" stroke="#999999" points="597,-19 553,-19 553,0 597,0 597,-19"/>
<text text-anchor="middle" x="575" y="-7" font-family="Helvetica,sans-Serif" font-size="10.00">string</text>
</a>
</g>
</g>
<!-- Node2&#45;&gt;Node8 -->
<g id="edge21_Node000002_Node000008" class="edge">
<title>Node2&#45;&gt;Node8</title>
<g id="a_edge21_Node000002_Node000008"><a xlink:title=" ">
<path fill="none" stroke="#63b8ff" d="M715.73,-186.9C780.81,-167.25 922.48,-115.99 870,-55 836.41,-15.96 677,-10.72 607.51,-10.33"/>
<polygon fill="#63b8ff" stroke="#63b8ff" points="607.17,-6.83 597.16,-10.3 607.15,-13.83 607.17,-6.83"/>
</a>
</g>
</g>
<!-- Node10 -->
<g id="Node000010" class="node">
<title>Node10</title>
<g id="a_Node000010"><a xlink:title=" ">
<polygon fill="#e0e0e0" stroke="#999999" points="650,-79.5 600,-79.5 600,-60.5 650,-60.5 650,-79.5"/>
<text text-anchor="middle" x="625" y="-67.5" font-family="Helvetica,sans-Serif" font-size="10.00">chrono</text>
</a>
</g>
</g>
<!-- Node2&#45;&gt;Node10 -->
<g id="edge18_Node000002_Node000010" class="edge">
<title>Node2&#45;&gt;Node10</title>
<g id="a_edge18_Node000002_Node000010"><a xlink:title=" ">
<path fill="none" stroke="#63b8ff" d="M680.88,-186.94C671.16,-166.77 646.65,-115.92 633.56,-88.76"/>
<polygon fill="#63b8ff" stroke="#63b8ff" points="636.65,-87.11 629.15,-79.62 630.34,-90.15 636.65,-87.11"/>
</a>
</g>
</g>
<!-- Node11 -->
<g id="Node000011" class="node">
<title>Node11</title>
<g id="a_Node000011"><a xlink:title=" ">
<polygon fill="#e0e0e0" stroke="#999999" points="726,-79.5 668,-79.5 668,-60.5 726,-60.5 726,-79.5"/>
<text text-anchor="middle" x="697" y="-67.5" font-family="Helvetica,sans-Serif" font-size="10.00">memory</text>
</a>
</g>
</g>
<!-- Node2&#45;&gt;Node11 -->
<g id="edge20_Node000002_Node000011" class="edge">
<title>Node2&#45;&gt;Node11</title>
<g id="a_edge20_Node000002_Node000011"><a xlink:title=" ">
<path fill="none" stroke="#63b8ff" d="M685.82,-186.94C687.74,-167.04 692.54,-117.26 695.18,-89.85"/>
<polygon fill="#63b8ff" stroke="#63b8ff" points="698.69,-89.91 696.17,-79.62 691.73,-89.24 698.69,-89.91"/>
</a>
</g>
</g>
<!-- Node13 -->
<g id="Node000013" class="node">
<title>Node13</title>
<g id="a_Node000013"><a xlink:title=" ">
<polygon fill="#e0e0e0" stroke="#999999" points="795.5,-79.5 744.5,-79.5 744.5,-60.5 795.5,-60.5 795.5,-79.5"/>
<text text-anchor="middle" x="770" y="-67.5" font-family="Helvetica,sans-Serif" font-size="10.00">variant</text>
</a>
</g>
</g>
<!-- Node2&#45;&gt;Node13 -->
<g id="edge22_Node000002_Node000013" class="edge">
<title>Node2&#45;&gt;Node13</title>
<g id="a_edge22_Node000002_Node000013"><a xlink:title=" ">
<path fill="none" stroke="#63b8ff" d="M690.84,-186.94C704.73,-166.6 739.94,-115.03 758.36,-88.04"/>
<polygon fill="#63b8ff" stroke="#63b8ff" points="761.37,-89.85 764.12,-79.62 755.59,-85.9 761.37,-89.85"/>
</a>
</g>
</g>
<!-- Node14 -->
<g id="Node000014" class="node">
<title>Node14</title>
<g id="a_Node000014"><a xlink:title=" ">
<polygon fill="#e0e0e0" stroke="#999999" points="860.5,-79.5 813.5,-79.5 813.5,-60.5 860.5,-60.5 860.5,-79.5"/>
<text text-anchor="middle" x="837" y="-67.5" font-family="Helvetica,sans-Serif" font-size="10.00">vector</text>
</a>
</g>
</g>
<!-- Node2&#45;&gt;Node14 -->
<g id="edge23_Node000002_Node000014" class="edge">
<title>Node2&#45;&gt;Node14</title>
<g id="a_edge23_Node000002_Node000014"><a xlink:title=" ">
<path fill="none" stroke="#63b8ff" d="M696.22,-186.71C707.57,-177.79 725.59,-163.54 741,-151 768.41,-128.69 799.81,-102.38 819.02,-86.2"/>
<polygon fill="#63b8ff" stroke="#63b8ff" points="821.31,-88.84 826.7,-79.72 816.79,-83.49 821.31,-88.84"/>
</a>
</g>
</g>
<!-- Node15 -->
<g id="Node000015" class="node">
<title>Node15</title>
<g id="a_Node000015"><a xlink:href="container__compat_8h.html" target="_top" xlink:title="Compatibility header for container_system includes.">
<polygon fill="white" stroke="#666666" points="1078.5,-151 917.5,-151 917.5,-121 1078.5,-121 1078.5,-151"/>
<text text-anchor="start" x="925.5" y="-139" font-family="Helvetica,sans-Serif" font-size="10.00">kcenon/database_server</text>
<text text-anchor="middle" x="998" y="-128" font-family="Helvetica,sans-Serif" font-size="10.00">/gateway/container_compat.h</text>
</a>
</g>
</g>
<!-- Node2&#45;&gt;Node15 -->
<g id="edge17_Node000002_Node000015" class="edge">
<title>Node2&#45;&gt;Node15</title>
<g id="a_edge17_Node000002_Node000015"><a xlink:title=" ">
<path fill="none" stroke="#63b8ff" d="M730.51,-186.99C778.2,-178.08 854.2,-163.88 913.02,-152.88"/>
<polygon fill="#63b8ff" stroke="#63b8ff" points="913.87,-156.29 923.05,-151.01 912.58,-149.4 913.87,-156.29"/>
</a>
</g>
</g>
<!-- Node5&#45;&gt;Node4 -->
<g id="edge16_Node000005_Node000004" class="edge">
<title>Node5&#45;&gt;Node4</title>
<g id="a_edge16_Node000005_Node000004"><a xlink:title=" ">
<path fill="none" stroke="#63b8ff" d="M497.41,-120.95C449.26,-110.95 384.46,-97.49 334.27,-87.06"/>
<polygon fill="#63b8ff" stroke="#63b8ff" points="334.94,-83.62 324.43,-85.01 333.51,-90.47 334.94,-83.62"/>
</a>
</g>
</g>
<!-- Node6 -->
<g id="Node000006" class="node">
<title>Node6</title>
<g id="a_Node000006"><a xlink:href="query__types_8h.html" target="_top" xlink:title="Query protocol type definitions for database gateway.">
<polygon fill="white" stroke="#666666" points="544,-79.5 458,-79.5 458,-60.5 544,-60.5 544,-79.5"/>
<text text-anchor="middle" x="501" y="-67.5" font-family="Helvetica,sans-Serif" font-size="10.00">query_types.h</text>
</a>
</g>
</g>
<!-- Node5&#45;&gt;Node6 -->
<g id="edge5_Node000005_Node000006" class="edge">
<title>Node5&#45;&gt;Node6</title>
<g id="a_edge5_Node000005_Node000006"><a xlink:title=" ">
<path fill="none" stroke="#63b8ff" d="M550.8,-120.8C540.82,-110.82 527.46,-97.46 517.09,-87.09"/>
<polygon fill="#63b8ff" stroke="#63b8ff" points="519.39,-84.44 509.84,-79.84 514.44,-89.39 519.39,-84.44"/>
</a>
</g>
</g>
<!-- Node5&#45;&gt;Node7 -->
<g id="edge10_Node000005_Node000007" class="edge">
<title>Node5&#45;&gt;Node7</title>
<g id="a_edge10_Node000005_Node000007"><a xlink:title=" ">
<path fill="none" stroke="#63b8ff" d="M491.66,-133.07C452.14,-128.19 405.39,-115.63 375,-85 360.48,-70.37 356.57,-46.3 355.74,-29.49"/>
<polygon fill="#63b8ff" stroke="#63b8ff" points="359.24,-29.15 355.58,-19.21 352.24,-29.27 359.24,-29.15"/>
</a>
</g>
</g>
<!-- Node5&#45;&gt;Node8 -->
<g id="edge13_Node000005_Node000008" class="edge">
<title>Node5&#45;&gt;Node8</title>
<g id="a_edge13_Node000005_Node000008"><a xlink:title=" ">
<path fill="none" stroke="#63b8ff" d="M566.15,-120.72C567.96,-98.12 571.5,-54.12 573.51,-29.09"/>
<polygon fill="#63b8ff" stroke="#63b8ff" points="577,-29.32 574.31,-19.07 570.02,-28.76 577,-29.32"/>
</a>
</g>
</g>
<!-- Node5&#45;&gt;Node10 -->
<g id="edge9_Node000005_Node000010" class="edge">
<title>Node5&#45;&gt;Node10</title>
<g id="a_edge9_Node000005_Node000010"><a xlink:title=" ">
<path fill="none" stroke="#63b8ff" d="M578.32,-120.8C587.58,-110.92 599.95,-97.72 609.63,-87.39"/>
<polygon fill="#63b8ff" stroke="#63b8ff" points="612.42,-89.53 616.71,-79.84 607.32,-84.75 612.42,-89.53"/>
</a>
</g>
</g>
<!-- Node5&#45;&gt;Node11 -->
<g id="edge11_Node000005_Node000011" class="edge">
<title>Node5&#45;&gt;Node11</title>
<g id="a_edge11_Node000005_Node000011"><a xlink:title=" ">
<path fill="none" stroke="#63b8ff" d="M593.97,-120.95C616.71,-109.93 648.12,-94.7 670.27,-83.96"/>
<polygon fill="#63b8ff" stroke="#63b8ff" points="671.96,-87.03 679.43,-79.52 668.91,-80.73 671.96,-87.03"/>
</a>
</g>
</g>
<!-- Node12 -->
<g id="Node000012" class="node">
<title>Node12</title>
<g id="a_Node000012"><a xlink:title=" ">
<polygon fill="#e0e0e0" stroke="#999999" points="440,-79.5 384,-79.5 384,-60.5 440,-60.5 440,-79.5"/>
<text text-anchor="middle" x="412" y="-67.5" font-family="Helvetica,sans-Serif" font-size="10.00">optional</text>
</a>
</g>
</g>
<!-- Node5&#45;&gt;Node12 -->
<g id="edge12_Node000005_Node000012" class="edge">
<title>Node5&#45;&gt;Node12</title>
<g id="a_edge12_Node000005_Node000012"><a xlink:title=" ">
<path fill="none" stroke="#63b8ff" d="M531.42,-120.95C504.59,-109.73 467.34,-94.15 441.61,-83.39"/>
<polygon fill="#63b8ff" stroke="#63b8ff" points="442.94,-80.15 432.36,-79.52 440.24,-86.61 442.94,-80.15"/>
</a>
</g>
</g>
<!-- Node5&#45;&gt;Node13 -->
<g id="edge14_Node000005_Node000013" class="edge">
<title>Node5&#45;&gt;Node13</title>
<g id="a_edge14_Node000005_Node000013"><a xlink:title=" ">
<path fill="none" stroke="#63b8ff" d="M617.49,-120.95C651.29,-111.55 696.04,-98.49 735,-85 736.62,-84.44 738.27,-83.85 739.93,-83.24"/>
<polygon fill="#63b8ff" stroke="#63b8ff" points="741.3,-86.46 749.39,-79.62 738.8,-79.92 741.3,-86.46"/>
</a>
</g>
</g>
<!-- Node5&#45;&gt;Node14 -->
<g id="edge15_Node000005_Node000014" class="edge">
<title>Node5&#45;&gt;Node14</title>
<g id="a_edge15_Node000005_Node000014"><a xlink:title=" ">
<path fill="none" stroke="#63b8ff" d="M638.11,-123.52C685.91,-115.08 749.39,-102.12 804,-85 805.63,-84.49 807.3,-83.92 808.96,-83.33"/>
<polygon fill="#63b8ff" stroke="#63b8ff" points="810.35,-86.54 818.39,-79.64 807.8,-80.02 810.35,-86.54"/>
</a>
</g>
</g>
<!-- Node6&#45;&gt;Node7 -->
<g id="edge6_Node000006_Node000007" class="edge">
<title>Node6&#45;&gt;Node7</title>
<g id="a_edge6_Node000006_Node000007"><a xlink:title=" ">
<path fill="none" stroke="#63b8ff" d="M479.92,-60.49C455.32,-50.57 414.47,-34.09 386.44,-22.78"/>
<polygon fill="#63b8ff" stroke="#63b8ff" points="387.69,-19.51 377.11,-19.02 385.07,-26 387.69,-19.51"/>
</a>
</g>
</g>
<!-- Node6&#45;&gt;Node8 -->
<g id="edge7_Node000006_Node000008" class="edge">
<title>Node6&#45;&gt;Node8</title>
<g id="a_edge7_Node000006_Node000008"><a xlink:title=" ">
<path fill="none" stroke="#63b8ff" d="M511.92,-60.37C523.51,-51.21 542.03,-36.56 556.02,-25.51"/>
<polygon fill="#63b8ff" stroke="#63b8ff" points="558.36,-28.11 564.04,-19.17 554.02,-22.62 558.36,-28.11"/>
</a>
</g>
</g>
<!-- Node9 -->
<g id="Node000009" class="node">
<title>Node9</title>
<g id="a_Node000009"><a xlink:title=" ">
<polygon fill="#e0e0e0" stroke="#999999" points="534.5,-19 461.5,-19 461.5,0 534.5,0 534.5,-19"/>
<text text-anchor="middle" x="498" y="-7" font-family="Helvetica,sans-Serif" font-size="10.00">string_view</text>
</a>
</g>
</g>
<!-- Node6&#45;&gt;Node9 -->
<g id="edge8_Node000006_Node000009" class="edge">
<title>Node6&#45;&gt;Node9</title>
<g id="a_edge8_Node000006_Node000009"><a xlink:title=" ">
<path fill="none" stroke="#63b8ff" d="M500.56,-60.37C500.14,-52.25 499.5,-39.81 498.97,-29.39"/>
<polygon fill="#63b8ff" stroke="#63b8ff" points="502.45,-28.97 498.44,-19.17 495.46,-29.33 502.45,-28.97"/>
</a>
</g>
</g>
</g>
</svg>
