<?xml version="1.0" encoding="UTF-8" standalone="no"?>
<!DOCTYPE svg PUBLIC "-//W3C//DTD SVG 1.1//EN"
 "http://www.w3.org/Graphics/SVG/1.1/DTD/svg11.dtd">
<!-- Generated by graphviz version 2.43.0 (0)
 -->
<!-- Title: src/gateway/protocol/serialization_helpers.h Pages: 1 -->
<svg width="704pt" height="104pt"
 viewBox="0.00 0.00 703.50 104.00" xmlns="http://www.w3.org/2000/svg" xmlns:xlink="http://www.w3.org/1999/xlink">
<g id="graph0" class="graph" transform="scale(1 1) rotate(0) translate(4 100)">
<title>src/gateway/protocol/serialization_helpers.h</title>
<!-- Node1 -->
<g id="Node000001" class="node">
<title>Node1</title>
<g id="a_Node000001"><a xlink:title="Common serialization utilities for query protocol.">
<polygon fill="#999999" stroke="#666666" points="403.5,-96 273.5,-96 273.5,-66 403.5,-66 403.5,-96"/>
<text text-anchor="start" x="281.5" y="-84" font-family="Helvetica,sans-Serif" font-size="10.00">src/gateway/protocol</text>
<text text-anchor="middle" x="338.5" y="-73" font-family="Helvetica,sans-Serif" font-size="10.00">/serialization_helpers.h</text>
</a>
</g>
</g>
<!-- Node2 -->
<g id="Node000002" class="node">
<title>Node2</title>
<g id="a_Node000002"><a xlink:href="auth__serializer_8cpp.html" target="_top" xlink:title="Implementation of auth_token serialization.">
<polygon fill="white" stroke="#666666" points="119,-30 0,-30 0,0 119,0 119,-30"/>
<text text-anchor="start" x="8" y="-18" font-family="Helvetica,sans-Serif" font-size="10.00">src/gateway/protocol</text>
<text text-anchor="middle" x="59.5" y="-7" font-family="Helvetica,sans-Serif" font-size="10.00">/auth_serializer.cpp</text>
</a>
</g>
</g>
<!-- Node1&#45;&gt;Node2 -->
<g id="edge1_Node000001_Node000002" class="edge">
<title>Node1&#45;&gt;Node2</title>
<g id="a_edge1_Node000001_Node000002"><a xlink:title=" ">
<path fill="none" stroke="#63b8ff" d="M267.4,-63.69C221.54,-53.17 162.56,-39.64 119.15,-29.68"/>
<polygon fill="#63b8ff" stroke="#63b8ff" points="266.74,-67.13 277.27,-65.95 268.31,-60.31 266.74,-67.13"/>
</a>
</g>
</g>
<!-- Node3 -->
<g id="Node000003" class="node">
<title>Node3</title>
<g id="a_Node000003"><a xlink:href="header__serializer_8cpp.html" target="_top" xlink:title="Implementation of message_header serialization.">
<polygon fill="white" stroke="#666666" points="260,-30 137,-30 137,0 260,0 260,-30"/>
<text text-anchor="start" x="145" y="-18" font-family="Helvetica,sans-Serif" font-size="10.00">src/gateway/protocol</text>
<text text-anchor="middle" x="198.5" y="-7" font-family="Helvetica,sans-Serif" font-size="10.00">/header_serializer.cpp</text>
</a>
</g>
</g>
<!-- Node1&#45;&gt;Node3 -->
<g id="edge2_Node000001_Node000003" class="edge">
<title>Node1&#45;&gt;Node3</title>
<g id="a_edge2_Node000001_Node000003"><a xlink:title=" ">
<path fill="none" stroke="#63b8ff" d="M298.65,-61.78C276.58,-51.69 249.56,-39.34 229.15,-30.01"/>
<polygon fill="#63b8ff" stroke="#63b8ff" points="297.23,-64.98 307.78,-65.95 300.14,-58.61 297.23,-64.98"/>
</a>
</g>
</g>
<!-- Node4 -->
<g id="Node000004" class="node">
<title>Node4</title>
<g id="a_Node000004"><a xlink:href="param__serializer_8cpp.html" target="_top" xlink:title="Implementation of query_param serialization.">
<polygon fill="white" stroke="#666666" points="399,-30 278,-30 278,0 399,0 399,-30"/>
<text text-anchor="start" x="286" y="-18" font-family="Helvetica,sans-Serif" font-size="10.00">src/gateway/protocol</text>
<text text-anchor="middle" x="338.5" y="-7" font-family="Helvetica,sans-Serif" font-size="10.00">/param_serializer.cpp</text>
</a>
</g>
</g>
<!-- Node1&#45;&gt;Node4 -->
<g id="edge3_Node000001_Node000004" class="edge">
<title>Node1&#45;&gt;Node4</title>
<g id="a_edge3_Node000001_Node000004"><a xlink:title=" ">
<path fill="none" stroke="#63b8ff" d="M338.5,-55.54C338.5,-46.96 338.5,-37.61 338.5,-30.16"/>
<polygon fill="#63b8ff" stroke="#63b8ff" points="335,-55.8 338.5,-65.8 342,-55.8 335,-55.8"/>
</a>
</g>
</g>
<!-- Node5 -->
<g id="Node000005" class="node">
<title>Node5</title>
<g id="a_Node000005"><a xlink:href="request__serializer_8cpp.html" target="_top" xlink:title="Implementation of query_request serialization.">
<polygon fill="white" stroke="#666666" points="543.5,-30 417.5,-30 417.5,0 543.5,0 543.5,-30"/>
<text text-anchor="start" x="425.5" y="-18" font-family="Helvetica,sans-Serif" font-size="10.00">src/gateway/protocol</text>
<text text-anchor="middle" x="480.5" y="-7" font-family="Helvetica,sans-Serif" font-size="10.00">/request_serializer.cpp</text>
</a>
</g>
</g>
<!-- Node1&#45;&gt;Node5 -->
<g id="edge4_Node000001_Node000005" class="edge">
<title>Node1&#45;&gt;Node5</title>
<g id="a_edge4_Node000001_Node000005"><a xlink:title=" ">
<path fill="none" stroke="#63b8ff" d="M378.92,-61.78C401.3,-51.69 428.71,-39.34 449.41,-30.01"/>
<polygon fill="#63b8ff" stroke="#63b8ff" points="377.34,-58.65 369.66,-65.95 380.22,-65.04 377.34,-58.65"/>
</a>
</g>
</g>
<!-- Node6 -->
<g id="Node000006" class="node">
<title>Node6</title>
<g id="a_Node000006"><a xlink:href="response__serializer_8cpp.html" target="_top" xlink:title="Implementation of query_response, column_metadata, result_row serialization.">
<polygon fill="white" stroke="#666666" points="695.5,-30 561.5,-30 561.5,0 695.5,0 695.5,-30"/>
<text text-anchor="start" x="569.5" y="-18" font-family="Helvetica,sans-Serif" font-size="10.00">src/gateway/protocol</text>
<text text-anchor="middle" x="628.5" y="-7" font-family="Helvetica,sans-Serif" font-size="10.00">/response_serializer.cpp</text>
</a>
</g>
</g>
<!-- Node1&#45;&gt;Node6 -->
<g id="edge5_Node000001_Node000006" class="edge">
<title>Node1&#45;&gt;Node6</title>
<g id="a_edge5_Node000001_Node000006"><a xlink:title=" ">
<path fill="none" stroke="#63b8ff" d="M412,-63.78C459.21,-53.36 519.9,-39.97 565.01,-30.01"/>
<polygon fill="#63b8ff" stroke="#63b8ff" points="411.15,-60.38 402.14,-65.95 412.66,-67.22 411.15,-60.38"/>
</a>
</g>
</g>
</g>
</svg>
