<?xml version="1.0" encoding="UTF-8" standalone="no"?>
<!DOCTYPE svg PUBLIC "-//W3C//DTD SVG 1.1//EN"
 "http://www.w3.org/Graphics/SVG/1.1/DTD/svg11.dtd">
<!-- Generated by graphviz version 2.43.0 (0)
 -->
<!-- Title: include/kcenon/database_server/server_app.h Pages: 1 -->
<svg width="718pt" height="159pt"
 viewBox="0.00 0.00 717.50 159.00" xmlns="http://www.w3.org/2000/svg" xmlns:xlink="http://www.w3.org/1999/xlink">
<g id="graph0" class="graph" transform="scale(1 1) rotate(0) translate(4 155)">
<title>include/kcenon/database_server/server_app.h</title>
<!-- Node1 -->
<g id="Node000001" class="node">
<title>Node1</title>
<g id="a_Node000001"><a xlink:title="Database server application interface.">
<polygon fill="#999999" stroke="#666666" points="388,-151 250,-151 250,-121 388,-121 388,-151"/>
<text text-anchor="start" x="258" y="-139" font-family="Helvetica,sans-Serif" font-size="10.00">include/kcenon/database</text>
<text text-anchor="middle" x="319" y="-128" font-family="Helvetica,sans-Serif" font-size="10.00">_server/server_app.h</text>
</a>
</g>
</g>
<!-- Node2 -->
<g id="Node000002" class="node">
<title>Node2</title>
<g id="a_Node000002"><a xlink:href="server__config_8h.html" target="_top" xlink:title="Server configuration structures.">
<polygon fill="white" stroke="#666666" points="201.5,-79.5 86.5,-79.5 86.5,-60.5 201.5,-60.5 201.5,-79.5"/>
<text text-anchor="middle" x="144" y="-67.5" font-family="Helvetica,sans-Serif" font-size="10.00">core/server_config.h</text>
</a>
</g>
</g>
<!-- Node1&#45;&gt;Node2 -->
<g id="edge1_Node000001_Node000002" class="edge">
<title>Node1&#45;&gt;Node2</title>
<g id="a_edge1_Node000001_Node000002"><a xlink:title=" ">
<path fill="none" stroke="#63b8ff" d="M280.6,-120.95C249.5,-109.58 206.17,-93.74 176.71,-82.96"/>
<polygon fill="#63b8ff" stroke="#63b8ff" points="177.88,-79.66 167.29,-79.52 175.48,-86.24 177.88,-79.66"/>
</a>
</g>
</g>
<!-- Node5 -->
<g id="Node000005" class="node">
<title>Node5</title>
<g id="a_Node000005"><a xlink:title=" ">
<polygon fill="#e0e0e0" stroke="#999999" points="252,-19 208,-19 208,0 252,0 252,-19"/>
<text text-anchor="middle" x="230" y="-7" font-family="Helvetica,sans-Serif" font-size="10.00">string</text>
</a>
</g>
</g>
<!-- Node1&#45;&gt;Node5 -->
<g id="edge8_Node000001_Node000005" class="edge">
<title>Node1&#45;&gt;Node5</title>
<g id="a_edge8_Node000001_Node000005"><a xlink:title=" ">
<path fill="none" stroke="#63b8ff" d="M290.35,-120.81C275.94,-112.29 259.37,-100.16 249,-85 237.6,-68.34 233.04,-45.35 231.21,-29.33"/>
<polygon fill="#63b8ff" stroke="#63b8ff" points="234.67,-28.75 230.31,-19.09 227.7,-29.36 234.67,-28.75"/>
</a>
</g>
</g>
<!-- Node7 -->
<g id="Node000007" class="node">
<title>Node7</title>
<g id="a_Node000007"><a xlink:title=" ">
<polygon fill="#e0e0e0" stroke="#999999" points="308,-79.5 258,-79.5 258,-60.5 308,-60.5 308,-79.5"/>
<text text-anchor="middle" x="283" y="-67.5" font-family="Helvetica,sans-Serif" font-size="10.00">atomic</text>
</a>
</g>
</g>
<!-- Node1&#45;&gt;Node7 -->
<g id="edge6_Node000001_Node000007" class="edge">
<title>Node1&#45;&gt;Node7</title>
<g id="a_edge6_Node000001_Node000007"><a xlink:title=" ">
<path fill="none" stroke="#63b8ff" d="M311.01,-120.8C305.67,-111.31 298.61,-98.76 292.92,-88.63"/>
<polygon fill="#63b8ff" stroke="#63b8ff" points="295.93,-86.84 287.97,-79.84 289.83,-90.28 295.93,-86.84"/>
</a>
</g>
</g>
<!-- Node8 -->
<g id="Node000008" class="node">
<title>Node8</title>
<g id="a_Node000008"><a xlink:title=" ">
<polygon fill="#e0e0e0" stroke="#999999" points="384,-79.5 326,-79.5 326,-60.5 384,-60.5 384,-79.5"/>
<text text-anchor="middle" x="355" y="-67.5" font-family="Helvetica,sans-Serif" font-size="10.00">memory</text>
</a>
</g>
</g>
<!-- Node1&#45;&gt;Node8 -->
<g id="edge7_Node000001_Node000008" class="edge">
<title>Node1&#45;&gt;Node8</title>
<g id="a_edge7_Node000001_Node000008"><a xlink:title=" ">
<path fill="none" stroke="#63b8ff" d="M326.99,-120.8C332.33,-111.31 339.39,-98.76 345.08,-88.63"/>
<polygon fill="#63b8ff" stroke="#63b8ff" points="348.17,-90.28 350.03,-79.84 342.07,-86.84 348.17,-90.28"/>
</a>
</g>
</g>
<!-- Node9 -->
<g id="Node000009" class="node">
<title>Node9</title>
<g id="a_Node000009"><a xlink:title=" ">
<polygon fill="#e0e0e0" stroke="#999999" points="550.5,-85 401.5,-85 401.5,-55 550.5,-55 550.5,-85"/>
<text text-anchor="start" x="409.5" y="-73" font-family="Helvetica,sans-Serif" font-size="10.00">kcenon/common/interfaces</text>
<text text-anchor="middle" x="476" y="-62" font-family="Helvetica,sans-Serif" font-size="10.00">/executor_interface.h</text>
</a>
</g>
</g>
<!-- Node1&#45;&gt;Node9 -->
<g id="edge9_Node000001_Node000009" class="edge">
<title>Node1&#45;&gt;Node9</title>
<g id="a_edge9_Node000001_Node000009"><a xlink:title=" ">
<path fill="none" stroke="#63b8ff" d="M353.45,-120.95C376.56,-111.53 407.2,-99.04 432.06,-88.91"/>
<polygon fill="#63b8ff" stroke="#63b8ff" points="433.69,-92.03 441.63,-85.01 431.04,-85.55 433.69,-92.03"/>
</a>
</g>
</g>
<!-- Node10 -->
<g id="Node000010" class="node">
<title>Node10</title>
<g id="a_Node000010"><a xlink:title=" ">
<polygon fill="#e0e0e0" stroke="#999999" points="709.5,-85 568.5,-85 568.5,-55 709.5,-55 709.5,-85"/>
<text text-anchor="start" x="576.5" y="-73" font-family="Helvetica,sans-Serif" font-size="10.00">kcenon/common/patterns</text>
<text text-anchor="middle" x="639" y="-62" font-family="Helvetica,sans-Serif" font-size="10.00">/result.h</text>
</a>
</g>
</g>
<!-- Node1&#45;&gt;Node10 -->
<g id="edge10_Node000001_Node000010" class="edge">
<title>Node1&#45;&gt;Node10</title>
<g id="a_edge10_Node000001_Node000010"><a xlink:title=" ">
<path fill="none" stroke="#63b8ff" d="M388.04,-121.19C438.27,-111.15 506.41,-97.52 559.01,-87"/>
<polygon fill="#63b8ff" stroke="#63b8ff" points="559.86,-90.4 568.98,-85 558.49,-83.53 559.86,-90.4"/>
</a>
</g>
</g>
<!-- Node3 -->
<g id="Node000003" class="node">
<title>Node3</title>
<g id="a_Node000003"><a xlink:title=" ">
<polygon fill="#e0e0e0" stroke="#999999" points="50,-19 0,-19 0,0 50,0 50,-19"/>
<text text-anchor="middle" x="25" y="-7" font-family="Helvetica,sans-Serif" font-size="10.00">cstdint</text>
</a>
</g>
</g>
<!-- Node2&#45;&gt;Node3 -->
<g id="edge2_Node000002_Node000003" class="edge">
<title>Node2&#45;&gt;Node3</title>
<g id="a_edge2_Node000002_Node000003"><a xlink:title=" ">
<path fill="none" stroke="#63b8ff" d="M126.7,-60.49C106.95,-50.79 74.45,-34.81 51.51,-23.53"/>
<polygon fill="#63b8ff" stroke="#63b8ff" points="52.84,-20.29 42.32,-19.02 49.75,-26.57 52.84,-20.29"/>
</a>
</g>
</g>
<!-- Node4 -->
<g id="Node000004" class="node">
<title>Node4</title>
<g id="a_Node000004"><a xlink:title=" ">
<polygon fill="#e0e0e0" stroke="#999999" points="124,-19 68,-19 68,0 124,0 124,-19"/>
<text text-anchor="middle" x="96" y="-7" font-family="Helvetica,sans-Serif" font-size="10.00">optional</text>
</a>
</g>
</g>
<!-- Node2&#45;&gt;Node4 -->
<g id="edge3_Node000002_Node000004" class="edge">
<title>Node2&#45;&gt;Node4</title>
<g id="a_edge3_Node000002_Node000004"><a xlink:title=" ">
<path fill="none" stroke="#63b8ff" d="M136.92,-60.37C129.76,-51.64 118.51,-37.93 109.61,-27.09"/>
<polygon fill="#63b8ff" stroke="#63b8ff" points="112.16,-24.68 103.11,-19.17 106.75,-29.12 112.16,-24.68"/>
</a>
</g>
</g>
<!-- Node2&#45;&gt;Node5 -->
<g id="edge4_Node000002_Node000005" class="edge">
<title>Node2&#45;&gt;Node5</title>
<g id="a_edge4_Node000002_Node000005"><a xlink:title=" ">
<path fill="none" stroke="#63b8ff" d="M156.69,-60.37C170.41,-51.04 192.5,-36.01 208.85,-24.88"/>
<polygon fill="#63b8ff" stroke="#63b8ff" points="210.96,-27.69 217.26,-19.17 207.02,-21.9 210.96,-27.69"/>
</a>
</g>
</g>
<!-- Node6 -->
<g id="Node000006" class="node">
<title>Node6</title>
<g id="a_Node000006"><a xlink:title=" ">
<polygon fill="#e0e0e0" stroke="#999999" points="189.5,-19 142.5,-19 142.5,0 189.5,0 189.5,-19"/>
<text text-anchor="middle" x="166" y="-7" font-family="Helvetica,sans-Serif" font-size="10.00">vector</text>
</a>
</g>
</g>
<!-- Node2&#45;&gt;Node6 -->
<g id="edge5_Node000002_Node000006" class="edge">
<title>Node2&#45;&gt;Node6</title>
<g id="a_edge5_Node000002_Node000006"><a xlink:title=" ">
<path fill="none" stroke="#63b8ff" d="M147.25,-60.37C150.37,-52.07 155.18,-39.28 159.15,-28.72"/>
<polygon fill="#63b8ff" stroke="#63b8ff" points="162.5,-29.76 162.74,-19.17 155.94,-27.3 162.5,-29.76"/>
</a>
</g>
</g>
</g>
</svg>
