<?xml version="1.0" encoding="UTF-8" standalone="no"?>
<!DOCTYPE svg PUBLIC "-//W3C//DTD SVG 1.1//EN"
 "http://www.w3.org/Graphics/SVG/1.1/DTD/svg11.dtd">
<!-- Generated by graphviz version 2.43.0 (0)
 -->
<!-- Title: src/core/server_config.cpp Pages: 1 -->
<svg width="518pt" height="148pt"
 viewBox="0.00 0.00 518.00 148.00" xmlns="http://www.w3.org/2000/svg" xmlns:xlink="http://www.w3.org/1999/xlink">
<g id="graph0" class="graph" transform="scale(1 1) rotate(0) translate(4 144)">
<title>src/core/server_config.cpp</title>
<!-- Node1 -->
<g id="Node000001" class="node">
<title>Node1</title>
<g id="a_Node000001"><a xlink:title=" ">
<polygon fill="#999999" stroke="#666666" points="401.5,-140 258.5,-140 258.5,-121 401.5,-121 401.5,-140"/>
<text text-anchor="middle" x="330" y="-128" font-family="Helvetica,sans-Serif" font-size="10.00">src/core/server_config.cpp</text>
</a>
</g>
</g>
<!-- Node2 -->
<g id="Node000002" class="node">
<title>Node2</title>
<g id="a_Node000002"><a xlink:href="server__config_8h.html" target="_top" xlink:title="Server configuration structures.">
<polygon fill="white" stroke="#666666" points="198,-85 62,-85 62,-55 198,-55 198,-85"/>
<text text-anchor="start" x="70" y="-73" font-family="Helvetica,sans-Serif" font-size="10.00">kcenon/database_server</text>
<text text-anchor="middle" x="130" y="-62" font-family="Helvetica,sans-Serif" font-size="10.00">/core/server_config.h</text>
</a>
</g>
</g>
<!-- Node1&#45;&gt;Node2 -->
<g id="edge1_Node000001_Node000002" class="edge">
<title>Node1&#45;&gt;Node2</title>
<g id="a_edge1_Node000001_Node000002"><a xlink:title=" ">
<path fill="none" stroke="#63b8ff" d="M300.92,-120.99C271.38,-112.35 224.84,-98.74 187.77,-87.9"/>
<polygon fill="#63b8ff" stroke="#63b8ff" points="188.66,-84.51 178.08,-85.06 186.7,-91.23 188.66,-84.51"/>
</a>
</g>
</g>
<!-- Node7 -->
<g id="Node000007" class="node">
<title>Node7</title>
<g id="a_Node000007"><a xlink:title=" ">
<polygon fill="#e0e0e0" stroke="#999999" points="284,-79.5 216,-79.5 216,-60.5 284,-60.5 284,-79.5"/>
<text text-anchor="middle" x="250" y="-67.5" font-family="Helvetica,sans-Serif" font-size="10.00">filesystem</text>
</a>
</g>
</g>
<!-- Node1&#45;&gt;Node7 -->
<g id="edge6_Node000001_Node000007" class="edge">
<title>Node1&#45;&gt;Node7</title>
<g id="a_edge6_Node000001_Node000007"><a xlink:title=" ">
<path fill="none" stroke="#63b8ff" d="M318.2,-120.87C305.55,-111.62 285.26,-96.78 270.09,-85.69"/>
<polygon fill="#63b8ff" stroke="#63b8ff" points="271.99,-82.74 261.85,-79.67 267.86,-88.4 271.99,-82.74"/>
</a>
</g>
</g>
<!-- Node8 -->
<g id="Node000008" class="node">
<title>Node8</title>
<g id="a_Node000008"><a xlink:title=" ">
<polygon fill="#e0e0e0" stroke="#999999" points="357.5,-79.5 302.5,-79.5 302.5,-60.5 357.5,-60.5 357.5,-79.5"/>
<text text-anchor="middle" x="330" y="-67.5" font-family="Helvetica,sans-Serif" font-size="10.00">fstream</text>
</a>
</g>
</g>
<!-- Node1&#45;&gt;Node8 -->
<g id="edge7_Node000001_Node000008" class="edge">
<title>Node1&#45;&gt;Node8</title>
<g id="a_edge7_Node000001_Node000008"><a xlink:title=" ">
<path fill="none" stroke="#63b8ff" d="M330,-120.87C330,-112.75 330,-100.31 330,-89.89"/>
<polygon fill="#63b8ff" stroke="#63b8ff" points="333.5,-89.67 330,-79.67 326.5,-89.67 333.5,-89.67"/>
</a>
</g>
</g>
<!-- Node9 -->
<g id="Node000009" class="node">
<title>Node9</title>
<g id="a_Node000009"><a xlink:title=" ">
<polygon fill="#e0e0e0" stroke="#999999" points="436,-79.5 376,-79.5 376,-60.5 436,-60.5 436,-79.5"/>
<text text-anchor="middle" x="406" y="-67.5" font-family="Helvetica,sans-Serif" font-size="10.00">iostream</text>
</a>
</g>
</g>
<!-- Node1&#45;&gt;Node9 -->
<g id="edge8_Node000001_Node000009" class="edge">
<title>Node1&#45;&gt;Node9</title>
<g id="a_edge8_Node000001_Node000009"><a xlink:title=" ">
<path fill="none" stroke="#63b8ff" d="M341.21,-120.87C353.11,-111.71 372.14,-97.06 386.51,-86.01"/>
<polygon fill="#63b8ff" stroke="#63b8ff" points="388.95,-88.54 394.74,-79.67 384.68,-82.99 388.95,-88.54"/>
</a>
</g>
</g>
<!-- Node10 -->
<g id="Node000010" class="node">
<title>Node10</title>
<g id="a_Node000010"><a xlink:title=" ">
<polygon fill="#e0e0e0" stroke="#999999" points="510,-79.5 454,-79.5 454,-60.5 510,-60.5 510,-79.5"/>
<text text-anchor="middle" x="482" y="-67.5" font-family="Helvetica,sans-Serif" font-size="10.00">sstream</text>
</a>
</g>
</g>
<!-- Node1&#45;&gt;Node10 -->
<g id="edge9_Node000001_Node000010" class="edge">
<title>Node1&#45;&gt;Node10</title>
<g id="a_edge9_Node000001_Node000010"><a xlink:title=" ">
<path fill="none" stroke="#63b8ff" d="M352.1,-120.99C377.99,-111.03 421.08,-94.45 450.47,-83.13"/>
<polygon fill="#63b8ff" stroke="#63b8ff" points="451.8,-86.38 459.87,-79.52 449.28,-79.84 451.8,-86.38"/>
</a>
</g>
</g>
<!-- Node3 -->
<g id="Node000003" class="node">
<title>Node3</title>
<g id="a_Node000003"><a xlink:title=" ">
<polygon fill="#e0e0e0" stroke="#999999" points="50,-19 0,-19 0,0 50,0 50,-19"/>
<text text-anchor="middle" x="25" y="-7" font-family="Helvetica,sans-Serif" font-size="10.00">cstdint</text>
</a>
</g>
</g>
<!-- Node2&#45;&gt;Node3 -->
<g id="edge2_Node000002_Node000003" class="edge">
<title>Node2&#45;&gt;Node3</title>
<g id="a_edge2_Node000002_Node000003"><a xlink:title=" ">
<path fill="none" stroke="#63b8ff" d="M104.85,-54.99C88.11,-45.66 66.23,-33.47 49.61,-24.21"/>
<polygon fill="#63b8ff" stroke="#63b8ff" points="50.95,-20.95 40.51,-19.14 47.54,-27.06 50.95,-20.95"/>
</a>
</g>
</g>
<!-- Node4 -->
<g id="Node000004" class="node">
<title>Node4</title>
<g id="a_Node000004"><a xlink:title=" ">
<polygon fill="#e0e0e0" stroke="#999999" points="124,-19 68,-19 68,0 124,0 124,-19"/>
<text text-anchor="middle" x="96" y="-7" font-family="Helvetica,sans-Serif" font-size="10.00">optional</text>
</a>
</g>
</g>
<!-- Node2&#45;&gt;Node4 -->
<g id="edge3_Node000002_Node000004" class="edge">
<title>Node2&#45;&gt;Node4</title>
<g id="a_edge3_Node000002_Node000004"><a xlink:title=" ">
<path fill="none" stroke="#63b8ff" d="M121.77,-54.84C117.09,-46.78 111.18,-36.62 106.2,-28.06"/>
<polygon fill="#63b8ff" stroke="#63b8ff" points="109.15,-26.15 101.09,-19.27 103.09,-29.67 109.15,-26.15"/>
</a>
</g>
</g>
<!-- Node5 -->
<g id="Node000005" class="node">
<title>Node5</title>
<g id="a_Node000005"><a xlink:title=" ">
<polygon fill="#e0e0e0" stroke="#999999" points="186,-19 142,-19 142,0 186,0 186,-19"/>
<text text-anchor="middle" x="164" y="-7" font-family="Helvetica,sans-Serif" font-size="10.00">string</text>
</a>
</g>
</g>
<!-- Node2&#45;&gt;Node5 -->
<g id="edge4_Node000002_Node000005" class="edge">
<title>Node2&#45;&gt;Node5</title>
<g id="a_edge4_Node000002_Node000005"><a xlink:title=" ">
<path fill="none" stroke="#63b8ff" d="M138.23,-54.84C142.91,-46.78 148.82,-36.62 153.8,-28.06"/>
<polygon fill="#63b8ff" stroke="#63b8ff" points="156.91,-29.67 158.91,-19.27 150.85,-26.15 156.91,-29.67"/>
</a>
</g>
</g>
<!-- Node6 -->
<g id="Node000006" class="node">
<title>Node6</title>
<g id="a_Node000006"><a xlink:title=" ">
<polygon fill="#e0e0e0" stroke="#999999" points="251.5,-19 204.5,-19 204.5,0 251.5,0 251.5,-19"/>
<text text-anchor="middle" x="228" y="-7" font-family="Helvetica,sans-Serif" font-size="10.00">vector</text>
</a>
</g>
</g>
<!-- Node2&#45;&gt;Node6 -->
<g id="edge5_Node000002_Node000006" class="edge">
<title>Node2&#45;&gt;Node6</title>
<g id="a_edge5_Node000002_Node000006"><a xlink:title=" ">
<path fill="none" stroke="#63b8ff" d="M153.72,-54.84C169.2,-45.6 189.32,-33.59 204.71,-24.4"/>
<polygon fill="#63b8ff" stroke="#63b8ff" points="206.81,-27.23 213.6,-19.09 203.22,-21.21 206.81,-27.23"/>
</a>
</g>
</g>
</g>
</svg>
