<?xml version="1.0" encoding="UTF-8" standalone="no"?>
<!DOCTYPE svg PUBLIC "-//W3C//DTD SVG 1.1//EN"
 "http://www.w3.org/Graphics/SVG/1.1/DTD/svg11.dtd">
<!-- Generated by graphviz version 2.43.0 (0)
 -->
<!-- Title: src/gateway/session_id_generator.cpp Pages: 1 -->
<svg width="404pt" height="159pt"
 viewBox="0.00 0.00 404.00 159.00" xmlns="http://www.w3.org/2000/svg" xmlns:xlink="http://www.w3.org/1999/xlink">
<g id="graph0" class="graph" transform="scale(1 1) rotate(0) translate(4 155)">
<title>src/gateway/session_id_generator.cpp</title>
<!-- Node1 -->
<g id="Node000001" class="node">
<title>Node1</title>
<g id="a_Node000001"><a xlink:title=" ">
<polygon fill="#999999" stroke="#666666" points="316,-151 200,-151 200,-121 316,-121 316,-151"/>
<text text-anchor="start" x="208" y="-139" font-family="Helvetica,sans-Serif" font-size="10.00">src/gateway/session</text>
<text text-anchor="middle" x="258" y="-128" font-family="Helvetica,sans-Serif" font-size="10.00">_id_generator.cpp</text>
</a>
</g>
</g>
<!-- Node2 -->
<g id="Node000002" class="node">
<title>Node2</title>
<g id="a_Node000002"><a xlink:href="session__id__generator_8h.html" target="_top" xlink:title="Cryptographically secure session ID generation.">
<polygon fill="white" stroke="#666666" points="176,-85 0,-85 0,-55 176,-55 176,-85"/>
<text text-anchor="start" x="8" y="-73" font-family="Helvetica,sans-Serif" font-size="10.00">kcenon/database_server</text>
<text text-anchor="middle" x="88" y="-62" font-family="Helvetica,sans-Serif" font-size="10.00">/gateway/session_id_generator.h</text>
</a>
</g>
</g>
<!-- Node1&#45;&gt;Node2 -->
<g id="edge1_Node000001_Node000002" class="edge">
<title>Node1&#45;&gt;Node2</title>
<g id="a_edge1_Node000001_Node000002"><a xlink:title=" ">
<path fill="none" stroke="#63b8ff" d="M220.69,-120.95C195.45,-111.45 161.91,-98.82 134.86,-88.64"/>
<polygon fill="#63b8ff" stroke="#63b8ff" points="135.81,-85.26 125.22,-85.01 133.35,-91.81 135.81,-85.26"/>
</a>
</g>
</g>
<!-- Node4 -->
<g id="Node000004" class="node">
<title>Node4</title>
<g id="a_Node000004"><a xlink:title=" ">
<polygon fill="#e0e0e0" stroke="#999999" points="250,-79.5 194,-79.5 194,-60.5 250,-60.5 250,-79.5"/>
<text text-anchor="middle" x="222" y="-67.5" font-family="Helvetica,sans-Serif" font-size="10.00">iomanip</text>
</a>
</g>
</g>
<!-- Node1&#45;&gt;Node4 -->
<g id="edge3_Node000001_Node000004" class="edge">
<title>Node1&#45;&gt;Node4</title>
<g id="a_edge3_Node000001_Node000004"><a xlink:title=" ">
<path fill="none" stroke="#63b8ff" d="M250.01,-120.8C244.67,-111.31 237.61,-98.76 231.92,-88.63"/>
<polygon fill="#63b8ff" stroke="#63b8ff" points="234.93,-86.84 226.97,-79.84 228.83,-90.28 234.93,-86.84"/>
</a>
</g>
</g>
<!-- Node5 -->
<g id="Node000005" class="node">
<title>Node5</title>
<g id="a_Node000005"><a xlink:title=" ">
<polygon fill="#e0e0e0" stroke="#999999" points="322,-79.5 268,-79.5 268,-60.5 322,-60.5 322,-79.5"/>
<text text-anchor="middle" x="295" y="-67.5" font-family="Helvetica,sans-Serif" font-size="10.00">random</text>
</a>
</g>
</g>
<!-- Node1&#45;&gt;Node5 -->
<g id="edge4_Node000001_Node000005" class="edge">
<title>Node1&#45;&gt;Node5</title>
<g id="a_edge4_Node000001_Node000005"><a xlink:title=" ">
<path fill="none" stroke="#63b8ff" d="M266.21,-120.8C271.7,-111.31 278.95,-98.76 284.81,-88.63"/>
<polygon fill="#63b8ff" stroke="#63b8ff" points="287.91,-90.25 289.89,-79.84 281.85,-86.75 287.91,-90.25"/>
</a>
</g>
</g>
<!-- Node6 -->
<g id="Node000006" class="node">
<title>Node6</title>
<g id="a_Node000006"><a xlink:title=" ">
<polygon fill="#e0e0e0" stroke="#999999" points="396,-79.5 340,-79.5 340,-60.5 396,-60.5 396,-79.5"/>
<text text-anchor="middle" x="368" y="-67.5" font-family="Helvetica,sans-Serif" font-size="10.00">sstream</text>
</a>
</g>
</g>
<!-- Node1&#45;&gt;Node6 -->
<g id="edge5_Node000001_Node000006" class="edge">
<title>Node1&#45;&gt;Node6</title>
<g id="a_edge5_Node000001_Node000006"><a xlink:title=" ">
<path fill="none" stroke="#63b8ff" d="M282.14,-120.95C300.67,-110.18 326.1,-95.38 344.47,-84.69"/>
<polygon fill="#63b8ff" stroke="#63b8ff" points="346.48,-87.57 353.36,-79.52 342.96,-81.52 346.48,-87.57"/>
</a>
</g>
</g>
<!-- Node3 -->
<g id="Node000003" class="node">
<title>Node3</title>
<g id="a_Node000003"><a xlink:title=" ">
<polygon fill="#e0e0e0" stroke="#999999" points="110,-19 66,-19 66,0 110,0 110,-19"/>
<text text-anchor="middle" x="88" y="-7" font-family="Helvetica,sans-Serif" font-size="10.00">string</text>
</a>
</g>
</g>
<!-- Node2&#45;&gt;Node3 -->
<g id="edge2_Node000002_Node000003" class="edge">
<title>Node2&#45;&gt;Node3</title>
<g id="a_edge2_Node000002_Node000003"><a xlink:title=" ">
<path fill="none" stroke="#63b8ff" d="M88,-54.84C88,-47.21 88,-37.7 88,-29.45"/>
<polygon fill="#63b8ff" stroke="#63b8ff" points="91.5,-29.27 88,-19.27 84.5,-29.27 91.5,-29.27"/>
</a>
</g>
</g>
</g>
</svg>
