<?xml version="1.0" encoding="UTF-8" standalone="no"?>
<!DOCTYPE svg PUBLIC "-//W3C//DTD SVG 1.1//EN"
 "http://www.w3.org/Graphics/SVG/1.1/DTD/svg11.dtd">
<!-- Generated by graphviz version 2.43.0 (0)
 -->
<!-- Title: include/kcenon/database_server/gateway/session_id_generator.h Pages: 1 -->
<svg width="264pt" height="115pt"
 viewBox="0.00 0.00 263.50 115.00" xmlns="http://www.w3.org/2000/svg" xmlns:xlink="http://www.w3.org/1999/xlink">
<g id="graph0" class="graph" transform="scale(1 1) rotate(0) translate(4 111)">
<title>include/kcenon/database_server/gateway/session_id_generator.h</title>
<!-- Node1 -->
<g id="Node000001" class="node">
<title>Node1</title>
<g id="a_Node000001"><a xlink:title="Cryptographically secure session ID generation.">
<polygon fill="#999999" stroke="#666666" points="197.5,-107 59.5,-107 59.5,-66 197.5,-66 197.5,-107"/>
<text text-anchor="start" x="67.5" y="-95" font-family="Helvetica,sans-Serif" font-size="10.00">include/kcenon/database</text>
<text text-anchor="start" x="67.5" y="-84" font-family="Helvetica,sans-Serif" font-size="10.00">_server/gateway/session</text>
<text text-anchor="middle" x="128.5" y="-73" font-family="Helvetica,sans-Serif" font-size="10.00">_id_generator.h</text>
</a>
</g>
</g>
<!-- Node2 -->
<g id="Node000002" class="node">
<title>Node2</title>
<g id="a_Node000002"><a xlink:href="gateway__server_8cpp.html" target="_top" xlink:title=" ">
<polygon fill="white" stroke="#666666" points="121,-30 0,-30 0,0 121,0 121,-30"/>
<text text-anchor="start" x="8" y="-18" font-family="Helvetica,sans-Serif" font-size="10.00">src/gateway/gateway</text>
<text text-anchor="middle" x="60.5" y="-7" font-family="Helvetica,sans-Serif" font-size="10.00">_server.cpp</text>
</a>
</g>
</g>
<!-- Node1&#45;&gt;Node2 -->
<g id="edge1_Node000001_Node000002" class="edge">
<title>Node1&#45;&gt;Node2</title>
<g id="a_edge1_Node000001_Node000002"><a xlink:title=" ">
<path fill="none" stroke="#63b8ff" d="M102.13,-58.55C92.61,-48.81 82.24,-38.22 74.24,-30.04"/>
<polygon fill="#63b8ff" stroke="#63b8ff" points="99.7,-61.07 109.2,-65.77 104.7,-56.17 99.7,-61.07"/>
</a>
</g>
</g>
<!-- Node3 -->
<g id="Node000003" class="node">
<title>Node3</title>
<g id="a_Node000003"><a xlink:href="session__id__generator_8cpp.html" target="_top" xlink:title=" ">
<polygon fill="white" stroke="#666666" points="255.5,-30 139.5,-30 139.5,0 255.5,0 255.5,-30"/>
<text text-anchor="start" x="147.5" y="-18" font-family="Helvetica,sans-Serif" font-size="10.00">src/gateway/session</text>
<text text-anchor="middle" x="197.5" y="-7" font-family="Helvetica,sans-Serif" font-size="10.00">_id_generator.cpp</text>
</a>
</g>
</g>
<!-- Node1&#45;&gt;Node3 -->
<g id="edge2_Node000001_Node000003" class="edge">
<title>Node1&#45;&gt;Node3</title>
<g id="a_edge2_Node000001_Node000003"><a xlink:title=" ">
<path fill="none" stroke="#63b8ff" d="M155.26,-58.55C164.92,-48.81 175.44,-38.22 183.56,-30.04"/>
<polygon fill="#63b8ff" stroke="#63b8ff" points="152.65,-56.21 148.09,-65.77 157.62,-61.14 152.65,-56.21"/>
</a>
</g>
</g>
</g>
</svg>
