<?xml version="1.0" encoding="UTF-8" standalone="no"?>
<!DOCTYPE svg PUBLIC "-//W3C//DTD SVG 1.1//EN"
 "http://www.w3.org/Graphics/SVG/1.1/DTD/svg11.dtd">
<!-- Generated by graphviz version 2.43.0 (0)
 -->
<!-- Title: database_server::server_config Pages: 1 -->
<svg width="364pt" height="182pt"
 viewBox="0.00 0.00 364.00 182.00" xmlns="http://www.w3.org/2000/svg" xmlns:xlink="http://www.w3.org/1999/xlink">
<g id="graph0" class="graph" transform="scale(1 1) rotate(0) translate(4 178)">
<title>database_server::server_config</title>
<!-- Node1 -->
<g id="Node000001" class="node">
<title>Node1</title>
<g id="a_Node000001"><a xlink:title="Main server configuration.">
<polygon fill="#999999" stroke="#666666" points="356,-102 222,-102 222,-72 356,-72 356,-102"/>
<text text-anchor="start" x="230" y="-90" font-family="Helvetica,sans-Serif" font-size="10.00">database_server::server</text>
<text text-anchor="middle" x="289" y="-79" font-family="Helvetica,sans-Serif" font-size="10.00">_config</text>
</a>
</g>
</g>
<!-- Node2 -->
<g id="Node000002" class="node">
<title>Node2</title>
<g id="a_Node000002"><a xlink:href="structdatabase__server_1_1network__config.html" target="_top" xlink:title="Network listener configuration.">
<polygon fill="white" stroke="#666666" points="143,-174 0,-174 0,-144 143,-144 143,-174"/>
<text text-anchor="start" x="8" y="-162" font-family="Helvetica,sans-Serif" font-size="10.00">database_server::network</text>
<text text-anchor="middle" x="71.5" y="-151" font-family="Helvetica,sans-Serif" font-size="10.00">_config</text>
</a>
</g>
</g>
<!-- Node2&#45;&gt;Node1 -->
<g id="edge1_Node000001_Node000002" class="edge">
<title>Node2&#45;&gt;Node1</title>
<g id="a_edge1_Node000001_Node000002"><a xlink:title=" ">
<path fill="none" stroke="#9a32cd" stroke-dasharray="5,2" d="M127.2,-140.72C162.96,-128.78 209.1,-113.36 242.77,-102.11"/>
<polygon fill="#9a32cd" stroke="#9a32cd" points="125.79,-137.51 117.41,-143.99 128.01,-144.14 125.79,-137.51"/>
</a>
</g>
<text text-anchor="middle" x="182.5" y="-130" font-family="Helvetica,sans-Serif" font-size="10.00" fill="grey"> network</text>
</g>
<!-- Node3 -->
<g id="Node000003" class="node">
<title>Node3</title>
<g id="a_Node000003"><a xlink:href="structdatabase__server_1_1logging__config.html" target="_top" xlink:title="Logging configuration.">
<polygon fill="white" stroke="#666666" points="141.5,-126 1.5,-126 1.5,-96 141.5,-96 141.5,-126"/>
<text text-anchor="start" x="9.5" y="-114" font-family="Helvetica,sans-Serif" font-size="10.00">database_server::logging</text>
<text text-anchor="middle" x="71.5" y="-103" font-family="Helvetica,sans-Serif" font-size="10.00">_config</text>
</a>
</g>
</g>
<!-- Node3&#45;&gt;Node1 -->
<g id="edge2_Node000001_Node000003" class="edge">
<title>Node3&#45;&gt;Node1</title>
<g id="a_edge2_Node000001_Node000003"><a xlink:title=" ">
<path fill="none" stroke="#9a32cd" stroke-dasharray="5,2" d="M151.68,-102.18C174.75,-99.61 199.71,-96.83 221.89,-94.36"/>
<polygon fill="#9a32cd" stroke="#9a32cd" points="151.13,-98.72 141.57,-103.31 151.9,-105.68 151.13,-98.72"/>
</a>
</g>
<text text-anchor="middle" x="182.5" y="-103" font-family="Helvetica,sans-Serif" font-size="10.00" fill="grey"> logging</text>
</g>
<!-- Node4 -->
<g id="Node000004" class="node">
<title>Node4</title>
<g id="a_Node000004"><a xlink:href="structdatabase__server_1_1pool__config.html" target="_top" xlink:title="Connection pool configuration (for Phase 2)">
<polygon fill="white" stroke="#666666" points="134,-78 9,-78 9,-48 134,-48 134,-78"/>
<text text-anchor="start" x="17" y="-66" font-family="Helvetica,sans-Serif" font-size="10.00">database_server::pool</text>
<text text-anchor="middle" x="71.5" y="-55" font-family="Helvetica,sans-Serif" font-size="10.00">_config</text>
</a>
</g>
</g>
<!-- Node4&#45;&gt;Node1 -->
<g id="edge3_Node000001_Node000004" class="edge">
<title>Node4&#45;&gt;Node1</title>
<g id="a_edge3_Node000001_Node000004"><a xlink:title=" ">
<path fill="none" stroke="#9a32cd" stroke-dasharray="5,2" d="M144.39,-71.01C169.36,-73.79 197.22,-76.89 221.72,-79.62"/>
<polygon fill="#9a32cd" stroke="#9a32cd" points="144.58,-67.51 134.25,-69.88 143.8,-74.46 144.58,-67.51"/>
</a>
</g>
<text text-anchor="middle" x="182.5" y="-80" font-family="Helvetica,sans-Serif" font-size="10.00" fill="grey"> pool</text>
</g>
<!-- Node5 -->
<g id="Node000005" class="node">
<title>Node5</title>
<g id="a_Node000005"><a xlink:href="structdatabase__server_1_1query__cache__config.html" target="_top" xlink:title="Query cache configuration (for Phase 3)">
<polygon fill="white" stroke="#666666" points="137,-30 6,-30 6,0 137,0 137,-30"/>
<text text-anchor="start" x="14" y="-18" font-family="Helvetica,sans-Serif" font-size="10.00">database_server::query</text>
<text text-anchor="middle" x="71.5" y="-7" font-family="Helvetica,sans-Serif" font-size="10.00">_cache_config</text>
</a>
</g>
</g>
<!-- Node5&#45;&gt;Node1 -->
<g id="edge4_Node000001_Node000005" class="edge">
<title>Node5&#45;&gt;Node1</title>
<g id="a_edge4_Node000001_Node000005"><a xlink:title=" ">
<path fill="none" stroke="#9a32cd" stroke-dasharray="5,2" d="M128.84,-33.2C152.13,-40.78 179.4,-49.73 204,-58 217.31,-62.47 231.77,-67.43 244.88,-71.96"/>
<polygon fill="#9a32cd" stroke="#9a32cd" points="129.71,-29.8 119.12,-30.04 127.55,-36.46 129.71,-29.8"/>
</a>
</g>
<text text-anchor="middle" x="182.5" y="-61" font-family="Helvetica,sans-Serif" font-size="10.00" fill="grey"> cache</text>
</g>
</g>
</svg>
