<?xml version="1.0" encoding="UTF-8" standalone="no"?>
<!DOCTYPE svg PUBLIC "-//W3C//DTD SVG 1.1//EN"
 "http://www.w3.org/Graphics/SVG/1.1/DTD/svg11.dtd">
<!-- Generated by graphviz version 2.43.0 (0)
 -->
<!-- Title: database_server::metrics::query_server_metrics Pages: 1 -->
<svg width="435pt" height="182pt"
 viewBox="0.00 0.00 435.00 182.00" xmlns="http://www.w3.org/2000/svg" xmlns:xlink="http://www.w3.org/1999/xlink">

<svg id="main" version="1.1" xmlns="http://www.w3.org/2000/svg" xmlns:xlink="http://www.w3.org/1999/xlink" xml:space="preserve" onload="init(evt)">
<style type="text/css"><![CDATA[
.node, .edge {opacity: 0.7;}
.node.selected, .edge.selected {opacity: 1;}
.edge:hover path { stroke: red; }
.edge:hover polygon { stroke: red; fill: red; }
]]></style>
<script type="application/ecmascript" xlink:href="svg.min.js"/>
<svg id="graph" class="graph">
<g id="graph0" class="graph" transform="scale(1 1) rotate(0) translate(4 178)">
<title>database_server::metrics::query_server_metrics</title>
<!-- Node1 -->
<g id="Node000001" class="node">
<title>Node1</title>
<g id="a_Node000001"><a xlink:title="Aggregated metrics for the entire query server.">
<polygon fill="#999999" stroke="#666666" points="427,-102 287,-102 287,-72 427,-72 427,-102"/>
<text text-anchor="start" x="295" y="-90" font-family="Helvetica,sans-Serif" font-size="10.00">database_server::metrics</text>
<text text-anchor="middle" x="357" y="-79" font-family="Helvetica,sans-Serif" font-size="10.00">::query_server_metrics</text>
</a>
</g>
</g>
<!-- Node2 -->
<g id="Node000002" class="node">
<title>Node2</title>
<g id="a_Node000002"><a xlink:href="structdatabase__server_1_1metrics_1_1query__execution__metrics.html" target="_top" xlink:title="Metrics for tracking query execution performance.">
<polygon fill="white" stroke="#666666" points="157,-174 12,-174 12,-144 157,-144 157,-174"/>
<text text-anchor="start" x="20" y="-162" font-family="Helvetica,sans-Serif" font-size="10.00">database_server::metrics</text>
<text text-anchor="middle" x="84.5" y="-151" font-family="Helvetica,sans-Serif" font-size="10.00">::query_execution_metrics</text>
</a>
</g>
</g>
<!-- Node2&#45;&gt;Node1 -->
<g id="edge1_Node000001_Node000002" class="edge">
<title>Node2&#45;&gt;Node1</title>
<g id="a_edge1_Node000001_Node000002"><a xlink:title=" ">
<path fill="none" stroke="#9a32cd" stroke-dasharray="5,2" d="M166.27,-141.75C198.41,-134.45 235.62,-125.45 269,-116 283.55,-111.88 299.29,-106.82 313.32,-102.09"/>
<polygon fill="#9a32cd" stroke="#9a32cd" points="165.46,-138.35 156.47,-143.96 166.99,-145.18 165.46,-138.35"/>
</a>
</g>
<text text-anchor="middle" x="228" y="-139" font-family="Helvetica,sans-Serif" font-size="10.00" fill="grey"> query_metrics</text>
</g>
<!-- Node3 -->
<g id="Node000003" class="node">
<title>Node3</title>
<g id="a_Node000003"><a xlink:href="structdatabase__server_1_1metrics_1_1cache__performance__metrics.html" target="_top" xlink:title="Metrics for tracking cache performance.">
<polygon fill="white" stroke="#666666" points="165,-126 4,-126 4,-96 165,-96 165,-126"/>
<text text-anchor="start" x="12" y="-114" font-family="Helvetica,sans-Serif" font-size="10.00">database_server::metrics</text>
<text text-anchor="middle" x="84.5" y="-103" font-family="Helvetica,sans-Serif" font-size="10.00">::cache_performance_metrics</text>
</a>
</g>
</g>
<!-- Node3&#45;&gt;Node1 -->
<g id="edge2_Node000001_Node000003" class="edge">
<title>Node3&#45;&gt;Node1</title>
<g id="a_edge2_Node000001_Node000003"><a xlink:title=" ">
<path fill="none" stroke="#9a32cd" stroke-dasharray="5,2" d="M175.31,-103.03C211.68,-99.8 253.01,-96.14 286.95,-93.13"/>
<polygon fill="#9a32cd" stroke="#9a32cd" points="174.85,-99.56 165.2,-103.93 175.47,-106.53 174.85,-99.56"/>
</a>
</g>
<text text-anchor="middle" x="228" y="-104" font-family="Helvetica,sans-Serif" font-size="10.00" fill="grey"> cache_metrics</text>
</g>
<!-- Node4 -->
<g id="Node000004" class="node">
<title>Node4</title>
<g id="a_Node000004"><a xlink:href="structdatabase__server_1_1metrics_1_1pool__performance__metrics.html" target="_top" xlink:title="Metrics for tracking connection pool performance.">
<polygon fill="white" stroke="#666666" points="161,-78 8,-78 8,-48 161,-48 161,-78"/>
<text text-anchor="start" x="16" y="-66" font-family="Helvetica,sans-Serif" font-size="10.00">database_server::metrics</text>
<text text-anchor="middle" x="84.5" y="-55" font-family="Helvetica,sans-Serif" font-size="10.00">::pool_performance_metrics</text>
</a>
</g>
</g>
<!-- Node4&#45;&gt;Node1 -->
<g id="edge3_Node000001_Node000004" class="edge">
<title>Node4&#45;&gt;Node1</title>
<g id="a_edge3_Node000001_Node000004"><a xlink:title=" ">
<path fill="none" stroke="#9a32cd" stroke-dasharray="5,2" d="M171.65,-70.43C202.37,-73.1 237.24,-76.15 269,-79 274.74,-79.51 280.69,-80.05 286.67,-80.6"/>
<polygon fill="#9a32cd" stroke="#9a32cd" points="171.66,-66.91 161.39,-69.54 171.05,-73.89 171.66,-66.91"/>
</a>
</g>
<text text-anchor="middle" x="228" y="-82" font-family="Helvetica,sans-Serif" font-size="10.00" fill="grey"> pool_metrics</text>
</g>
<!-- Node5 -->
<g id="Node000005" class="node">
<title>Node5</title>
<g id="a_Node000005"><a xlink:href="structdatabase__server_1_1metrics_1_1session__performance__metrics.html" target="_top" xlink:title="Metrics for tracking session management.">
<polygon fill="white" stroke="#666666" points="169,-30 0,-30 0,0 169,0 169,-30"/>
<text text-anchor="start" x="8" y="-18" font-family="Helvetica,sans-Serif" font-size="10.00">database_server::metrics</text>
<text text-anchor="middle" x="84.5" y="-7" font-family="Helvetica,sans-Serif" font-size="10.00">::session_performance_metrics</text>
</a>
</g>
</g>
<!-- Node5&#45;&gt;Node1 -->
<g id="edge4_Node000001_Node000005" class="edge">
<title>Node5&#45;&gt;Node1</title>
<g id="a_edge4_Node000001_Node000005"><a xlink:title=" ">
<path fill="none" stroke="#9a32cd" stroke-dasharray="5,2" d="M172.62,-32.18C203.29,-38.83 237.87,-47.01 269,-56 284.87,-60.58 302.05,-66.49 316.92,-71.93"/>
<polygon fill="#9a32cd" stroke="#9a32cd" points="173.32,-28.75 162.81,-30.08 171.86,-35.6 173.32,-28.75"/>
</a>
</g>
<text text-anchor="middle" x="228" y="-59" font-family="Helvetica,sans-Serif" font-size="10.00" fill="grey"> session_metrics</text>
</g>
</g>
</svg>
</svg>

<style type='text/css'>
<![CDATA[
[data-mouse-over-selected='false'] { opacity: 0.7; }
[data-mouse-over-selected='true']  { opacity: 1.0; }
]]>
</style>
<script type="application/ecmascript"><![CDATA[
document.addEventListener('DOMContentLoaded', (event) => {
  highlightEdges();
  highlightAdjacentNodes();
});
]]></script>
</svg>
